<?xml version="1.0" encoding="UTF-8" standalone="no"?>
<svg
   width="483.116"
   height="179.23801"
   version="1.1"
   id="svg17"
   xmlns="http://www.w3.org/2000/svg"
   xmlns:svg="http://www.w3.org/2000/svg">
  <defs
     id="defs8">
    <clipPath
       id="a"
       clipPathUnits="userSpaceOnUse">
      <path
         d="m -419.256,265.55 h 612 v -612 h -612 z"
         id="path1" />
    </clipPath>
    <clipPath
       id="c"
       clipPathUnits="userSpaceOnUse">
      <path
         d="m -209.39,402.174 h 612 v -612 h -612 z"
         id="path2" />
    </clipPath>
    <clipPath
       id="d"
       clipPathUnits="userSpaceOnUse">
      <path
         d="m -308.566,195.751 h 612 v -612 h -612 z"
         id="path3" />
    </clipPath>
    <clipPath
       id="e"
       clipPathUnits="userSpaceOnUse">
      <path
         d="m -390.41,184.968 h 612 v -612 h -612 z"
         id="path4" />
    </clipPath>
    <clipPath
       id="f"
       clipPathUnits="userSpaceOnUse">
      <path
         d="m -228.877,266.342 h 612 v -612 h -612 z"
         id="path5" />
    </clipPath>
    <clipPath
       id="g"
       clipPathUnits="userSpaceOnUse">
      <path
         d="m -223.347,350.94 h 612 v -612 h -612 z"
         id="path6" />
    </clipPath>
    <clipPath
       id="h"
       clipPathUnits="userSpaceOnUse">
      <path
         d="m -300.366,341.204 h 612 v -612 h -612 z"
         id="path7" />
    </clipPath>
    <clipPath
       id="f-3"
       clipPathUnits="userSpaceOnUse">
      <path
         d="m -228.877,266.342 h 612 v -612 h -612 z"
         id="path5-6" />
    </clipPath>
    <clipPath
       id="e-3-9"
       clipPathUnits="userSpaceOnUse">
      <path
         d="m -390.41,184.968 h 612 v -612 h -612 z"
         id="path4-5-1" />
    </clipPath>
    <clipPath
       id="e-3-9-0"
       clipPathUnits="userSpaceOnUse">
      <path
         d="m -390.41,184.968 h 612 v -612 h -612 z"
         id="path4-5-1-9" />
    </clipPath>
    <clipPath
       id="e-3-0"
       clipPathUnits="userSpaceOnUse">
      <path
         d="m -390.41,184.968 h 612 v -612 h -612 z"
         id="path4-5-6" />
    </clipPath>
    <clipPath
       id="e-3-0-1"
       clipPathUnits="userSpaceOnUse">
      <path
         d="m -390.41,184.968 h 612 v -612 h -612 z"
         id="path4-5-6-8" />
    </clipPath>
    <clipPath
       id="e-3-0-1-2"
       clipPathUnits="userSpaceOnUse">
      <path
         d="m -390.41,184.968 h 612 v -612 h -612 z"
         id="path4-5-6-8-0" />
    </clipPath>
    <clipPath
       id="e-3-0-1-2-7"
       clipPathUnits="userSpaceOnUse">
      <path
         d="m -390.41,184.968 h 612 v -612 h -612 z"
         id="path4-5-6-8-0-5" />
    </clipPath>
    <clipPath
       id="e-3-0-1-2-7-2"
       clipPathUnits="userSpaceOnUse">
      <path
         d="m -390.41,184.968 h 612 v -612 h -612 z"
         id="path4-5-6-8-0-5-8" />
    </clipPath>
    <clipPath
       id="e-3-0-1-2-7-2-3"
       clipPathUnits="userSpaceOnUse">
      <path
         d="m -390.41,184.968 h 612 v -612 h -612 z"
         id="path4-5-6-8-0-5-8-6" />
    </clipPath>
    <clipPath
       id="e-3-0-1-2-7-2-3-9"
       clipPathUnits="userSpaceOnUse">
      <path
         d="m -390.41,184.968 h 612 v -612 h -612 z"
         id="path4-5-6-8-0-5-8-6-3" />
    </clipPath>
    <clipPath
       id="e-3-0-1-2-7-2-4"
       clipPathUnits="userSpaceOnUse">
      <path
         d="m -390.41,184.968 h 612 v -612 h -612 z"
         id="path4-5-6-8-0-5-8-7" />
    </clipPath>
    <clipPath
       id="e-3-0-1-2-5"
       clipPathUnits="userSpaceOnUse">
      <path
         d="m -390.41,184.968 h 612 v -612 h -612 z"
         id="path4-5-6-8-0-0" />
    </clipPath>
    <clipPath
       id="e-3-0-1-2-5-1"
       clipPathUnits="userSpaceOnUse">
      <path
         d="m -390.41,184.968 h 612 v -612 h -612 z"
         id="path4-5-6-8-0-0-0" />
    </clipPath>
    <clipPath
       id="e-3-0-1-2-7-2-3-9-2"
       clipPathUnits="userSpaceOnUse">
      <path
         d="m -390.41,184.968 h 612 v -612 h -612 z"
         id="path4-5-6-8-0-5-8-6-3-0" />
    </clipPath>
  </defs>
  <g
     id="g1">
    <path
       d="m 0,0 6.078,7.859 -2.354,-9.652 9.934,0.147 -9.014,-4.177 6.309,-7.676 -8.887,4.444 -2.066,-9.718 -2.066,9.718 -8.887,-4.444 6.309,7.676 -9.014,4.177 9.933,-0.147 -2.354,9.652 z"
       clip-path="url(#a)"
       style="fill:#808080;fill-opacity:1;fill-rule:nonzero;stroke:none"
       id="path9"
       transform="matrix(1.12853,0,0,-1.12853,408.766,114.283)" />
    <path
       d="M 0,0 3.868,5.001 2.37,-1.142 8.691,-1.048 2.955,-3.706 6.97,-8.59 1.315,-5.762 0,-11.946 -1.315,-5.762 -6.97,-8.59 l 4.015,4.884 -5.736,2.658 6.321,-0.094 -1.498,6.143 z"
       clip-path="url(#c)"
       style="fill:#808080;fill-opacity:1;fill-rule:nonzero;stroke:none"
       id="path10"
       transform="matrix(1.12853,0,0,-1.12853,55.237344,143.87684)" />
    <path
       d="M 0,0 2.461,3.182 1.508,-0.726 5.53,-0.667 1.88,-2.358 4.435,-5.466 0.837,-3.667 0,-7.602 l -0.837,3.935 -3.599,-1.799 2.556,3.108 -3.651,1.691 4.023,-0.059 -0.953,3.908 z"
       clip-path="url(#d)"
       style="fill:#808080;fill-opacity:1;fill-rule:nonzero;stroke:none"
       id="path11"
       transform="matrix(1.12853,0,0,-1.12853,64.589948,34.106431)" />
    <path
       d="M 0,0 2.461,3.182 1.508,-0.726 5.53,-0.667 1.88,-2.358 4.435,-5.466 0.837,-3.667 0,-7.602 l -0.837,3.935 -3.599,-1.799 2.555,3.108 -3.65,1.691 4.023,-0.059 -0.954,3.908 z"
       clip-path="url(#e)"
       style="fill:#808080;fill-opacity:1;fill-rule:nonzero;stroke:none"
       id="path12"
       transform="matrix(1.12853,0,0,-1.12853,115.39537,99.778373)" />
    <path
       d="M 0,0 2.461,3.182 1.508,-0.726 5.53,-0.667 1.88,-2.358 4.435,-5.466 0.837,-3.667 0,-7.602 l -0.837,3.935 -3.599,-1.799 2.555,3.108 -3.65,1.691 4.023,-0.059 -0.954,3.908 z"
       clip-path="url(#e-3-0)"
       style="fill:#808080;fill-opacity:1;fill-rule:nonzero;stroke:none"
       id="path12-2-6"
       transform="matrix(1.12853,0,0,-1.12853,192.0207,36.464907)" />
    <path
       d="M 0,0 2.461,3.182 1.508,-0.726 5.53,-0.667 1.88,-2.358 4.435,-5.466 0.837,-3.667 0,-7.602 l -0.837,3.935 -3.599,-1.799 2.555,3.108 -3.65,1.691 4.023,-0.059 -0.954,3.908 z"
       clip-path="url(#e-3-0-1)"
       style="fill:#808080;fill-opacity:1;fill-rule:nonzero;stroke:none"
       id="path12-2-6-9"
       transform="matrix(1.12853,0,0,-1.12853,205.49062,72.341125)" />
    <path
       d="M 0,0 2.461,3.182 1.508,-0.726 5.53,-0.667 1.88,-2.358 4.435,-5.466 0.837,-3.667 0,-7.602 l -0.837,3.935 -3.599,-1.799 2.555,3.108 -3.65,1.691 4.023,-0.059 -0.954,3.908 z"
       clip-path="url(#e-3-0-1-2)"
       style="fill:#808080;fill-opacity:1;fill-rule:nonzero;stroke:none"
       id="path12-2-6-9-3"
       transform="matrix(1.12853,0,0,-1.12853,239.58574,100.24714)" />
    <path
       d="M 0,0 2.461,3.182 1.508,-0.726 5.53,-0.667 1.88,-2.358 4.435,-5.466 0.837,-3.667 0,-7.602 l -0.837,3.935 -3.599,-1.799 2.555,3.108 -3.65,1.691 4.023,-0.059 -0.954,3.908 z"
       clip-path="url(#e-3-0-1-2-5)"
       style="fill:#808080;fill-opacity:1;fill-rule:nonzero;stroke:none"
       id="path12-2-6-9-3-6"
       transform="matrix(1.12853,0,0,-1.12853,362.62963,146.53081)" />
    <path
       d="M 0,0 2.461,3.182 1.508,-0.726 5.53,-0.667 1.88,-2.358 4.435,-5.466 0.837,-3.667 0,-7.602 l -0.837,3.935 -3.599,-1.799 2.555,3.108 -3.65,1.691 4.023,-0.059 -0.954,3.908 z"
       clip-path="url(#e-3-0-1-2-5-1)"
       style="fill:#808080;fill-opacity:1;fill-rule:nonzero;stroke:none"
       id="path12-2-6-9-3-6-3"
       transform="matrix(1.12853,0,0,-1.12853,421.89806,69.090121)" />
    <path
       d="M 0,0 2.461,3.182 1.508,-0.726 5.53,-0.667 1.88,-2.358 4.435,-5.466 0.837,-3.667 0,-7.602 l -0.837,3.935 -3.599,-1.799 2.555,3.108 -3.65,1.691 4.023,-0.059 -0.954,3.908 z"
       clip-path="url(#e-3-0-1-2-7)"
       style="fill:#808080;fill-opacity:1;fill-rule:nonzero;stroke:none"
       id="path12-2-6-9-3-2"
       transform="matrix(1.12853,0,0,-1.12853,268.43044,134.96691)" />
    <path
       d="M 0,0 2.461,3.182 1.508,-0.726 5.53,-0.667 1.88,-2.358 4.435,-5.466 0.837,-3.667 0,-7.602 l -0.837,3.935 -3.599,-1.799 2.555,3.108 -3.65,1.691 4.023,-0.059 -0.954,3.908 z"
       clip-path="url(#e-3-0-1-2-7-2)"
       style="fill:#808080;fill-opacity:1;fill-rule:nonzero;stroke:none"
       id="path12-2-6-9-3-2-7"
       transform="matrix(1.12853,0,0,-1.12853,319.98629,119.90273)" />
    <path
       d="M 0,0 2.461,3.182 1.508,-0.726 5.53,-0.667 1.88,-2.358 4.435,-5.466 0.837,-3.667 0,-7.602 l -0.837,3.935 -3.599,-1.799 2.555,3.108 -3.65,1.691 4.023,-0.059 -0.954,3.908 z"
       clip-path="url(#e-3-0-1-2-7-2-4)"
       style="fill:#808080;fill-opacity:1;fill-rule:nonzero;stroke:none"
       id="path12-2-6-9-3-2-7-4"
       transform="matrix(1.12853,0,0,-1.12853,389.59758,40.80168)" />
    <path
       d="M 0,0 2.461,3.182 1.508,-0.726 5.53,-0.667 1.88,-2.358 4.435,-5.466 0.837,-3.667 0,-7.602 l -0.837,3.935 -3.599,-1.799 2.555,3.108 -3.65,1.691 4.023,-0.059 -0.954,3.908 z"
       clip-path="url(#e-3-0-1-2-7-2-3)"
       style="fill:#808080;fill-opacity:1;fill-rule:nonzero;stroke:none"
       id="path12-2-6-9-3-2-7-2"
       transform="matrix(1.12853,0,0,-1.12853,297.77211,63.526799)" />
    <path
       d="M 0,0 2.461,3.182 1.508,-0.726 5.53,-0.667 1.88,-2.358 4.435,-5.466 0.837,-3.667 0,-7.602 l -0.837,3.935 -3.599,-1.799 2.555,3.108 -3.65,1.691 4.023,-0.059 -0.954,3.908 z"
       clip-path="url(#e-3-0-1-2-7-2-3-9)"
       style="fill:#808080;fill-opacity:1;fill-rule:nonzero;stroke:none"
       id="path12-2-6-9-3-2-7-2-9"
       transform="matrix(1.12853,0,0,-1.12853,356.52374,86.560036)" />
    <path
       d="M 0,0 2.461,3.182 1.508,-0.726 5.53,-0.667 1.88,-2.358 4.435,-5.466 0.837,-3.667 0,-7.602 l -0.837,3.935 -3.599,-1.799 2.555,3.108 -3.65,1.691 4.023,-0.059 -0.954,3.908 z"
       clip-path="url(#e-3-0-1-2-7-2-3-9-2)"
       style="fill:#808080;fill-opacity:1;fill-rule:nonzero;stroke:none"
       id="path12-2-6-9-3-2-7-2-9-1"
       transform="matrix(1.12853,0,0,-1.12853,343.17829,39.026514)" />
    <path
       d="M 0,0 2.461,3.182 1.508,-0.726 5.53,-0.667 1.88,-2.358 4.435,-5.466 0.837,-3.667 0,-7.602 l -0.837,3.935 -3.599,-1.799 2.555,3.108 -3.65,1.691 4.023,-0.059 -0.954,3.908 z"
       clip-path="url(#e-3-9)"
       style="fill:#808080;fill-opacity:1;fill-rule:nonzero;stroke:none"
       id="path12-2-7"
       transform="matrix(1.12853,0,0,-1.12853,107.55251,40.80168)" />
    <path
       d="M 0,0 2.461,3.182 1.508,-0.726 5.53,-0.667 1.88,-2.358 4.435,-5.466 0.837,-3.667 0,-7.602 l -0.837,3.935 -3.599,-1.799 2.555,3.108 -3.65,1.691 4.023,-0.059 -0.954,3.908 z"
       clip-path="url(#e-3-9-0)"
       style="fill:#808080;fill-opacity:1;fill-rule:nonzero;stroke:none"
       id="path12-2-7-6"
       transform="matrix(1.12853,0,0,-1.12853,65.07973,106.93654)" />
    <path
       d="M 0,0 2.461,3.182 1.508,-0.726 5.531,-0.667 1.88,-2.358 4.435,-5.466 0.837,-3.667 0,-7.602 l -0.837,3.935 -3.598,-1.799 2.555,3.108 -3.651,1.691 4.023,-0.059 -0.953,3.908 z"
       clip-path="url(#f-3)"
       style="fill:#808080;fill-opacity:1;fill-rule:nonzero;stroke:none"
       id="path13-5"
       transform="matrix(1.12853,0,0,-1.12853,137.11754,74.029782)" />
    <path
       d="M 0,0 2.461,3.182 1.508,-0.726 5.531,-0.667 1.88,-2.358 4.435,-5.466 0.837,-3.667 0,-7.602 l -0.837,3.935 -3.598,-1.799 2.555,3.108 -3.651,1.691 4.023,-0.059 -0.953,3.908 z"
       clip-path="url(#f)"
       style="fill:#808080;fill-opacity:1;fill-rule:nonzero;stroke:none"
       id="path13"
       transform="matrix(1.12853,0,0,-1.12853,64.044489,68.404567)" />
    <path
       d="M 0,0 2.461,3.183 1.508,-0.727 5.531,-0.666 1.88,-2.357 4.436,-5.466 0.837,-3.666 0,-7.602 l -0.836,3.936 -3.599,-1.8 2.555,3.109 -3.65,1.691 4.022,-0.061 -0.953,3.91 z"
       clip-path="url(#g)"
       style="fill:#808080;fill-opacity:1;fill-rule:nonzero;stroke:none"
       id="path14"
       transform="matrix(1.12853,0,0,-1.12853,142.36563,27.930519)" />
    <path
       d="M 0,0 3.868,5.001 2.37,-1.142 8.691,-1.047 2.955,-3.705 6.97,-8.59 1.315,-5.762 0,-11.946 -1.315,-5.762 -6.97,-8.59 l 4.015,4.885 -5.736,2.658 6.321,-0.095 -1.498,6.143 z"
       clip-path="url(#h)"
       style="fill:#808080;fill-opacity:1;fill-rule:nonzero;stroke:none"
       id="path15"
       transform="matrix(1.12853,0,0,-1.12853,144.72197,136.64174)" />
  </g>
  <style
     id="style17">
      #dropped-star {
         transform-origin: 157.48px 120px;
         animation: spin 1s infinite linear;
      }

      @keyframes spin {
         0% {
            transform: rotate(0deg);
         }

         100% {
            transform: rotate(360deg);
         }
      }

      .stroke-dash-1 {
         stroke-dasharray: 140;
         stroke-dashoffset: 140;
         animation: dash-1 2s infinite linear;
      }

      @keyframes dash-1 {
         to {
            stroke-dashoffset: -140;
         }
      }

      .stroke-dash-2 {
         stroke-dasharray: 160;
         stroke-dashoffset: 160;
         animation: dash-2 4s 1s infinite linear;
      }

      @keyframes dash-2 {
         to {
            stroke-dashoffset: -160;
         }
      }
   </style>
  <g
     id="g17">
    <path
       d="m 194.46852,140.39782 7.85014,6.264 -3.53214,-9.40194 8.384,-5.53 -10.033,0.45394 -2.669,-9.682 -2.669,9.682 -10.033,-0.454 8.384,5.53 -3.532,9.402 z"
       clip-path="url(#i)"
       style="fill:#808080;fill-opacity:1;fill-rule:nonzero;stroke:none"
       id="dropped-star" />
    <path
       style="fill:#808080;fill-opacity:1;stroke:#808080;stroke-width:1;stroke-linecap:square;stroke-linejoin:bevel;stroke-dasharray:none;stroke-opacity:1"
       d="M 205.32033,119.06704 274.69798,30.938681"
       id="path8" />
    <path
       style="fill:#808080;fill-opacity:1;stroke:#808080;stroke-width:1;stroke-linecap:square;stroke-linejoin:bevel;stroke-dasharray:none;stroke-opacity:1"
       d="m 206.96102,125.86418 67.151,-86.253294"
       id="path16" />
  </g>
  <g
     id="g20">
    <path
       style="fill:none;fill-opacity:1;stroke:#808080;stroke-width:1;stroke-linecap:square;stroke-linejoin:bevel;stroke-dasharray:none;stroke-opacity:1"
       d="M 55.023846,147.17221 64.967915,108.55608 64.304977,70.271418 64.470711,36.29585"
       id="path17" />
    <path
       style="fill:none;fill-opacity:1;stroke:#808080;stroke-width:1;stroke-linecap:square;stroke-linejoin:bevel;stroke-dasharray:none;stroke-opacity:1"
       d="M 115.18546,102.09244 137.22815,76.072124 142.36591,29.500737 107.39594,43.090964 64.470711,35.964381"
       id="path18" />
    <path
       style="fill:none;fill-opacity:1;stroke:#808080;stroke-width:1;stroke-linecap:square;stroke-linejoin:bevel;stroke-dasharray:none;stroke-opacity:1"
       d="m 64.967915,108.72182 50.383285,-6.96085 29.335,37.95319"
       id="path19" />
    <path
       style="fill:none;fill-opacity:1;stroke:#808080;stroke-width:1;stroke-linecap:square;stroke-linejoin:bevel;stroke-dasharray:none;stroke-opacity:1"
       d="m 191.92052,38.616133 13.4245,35.467178 34.47277,28.340599 28.50633,34.6385"
       id="path20" />
  </g>
</svg>
