{
    "accessors": [
        {
            "bufferView": 0,
            "byteOffset": 0,
            "componentType": 5126,
            "count": 4,
            "max": [
                0.28575,
                0.001,
                0.0
            ],
            "min": [
                0.28575,
                0.0,
                -0.01905000000000001
            ],
            "type": "VEC3"
        },
        {
            "bufferView": 0,
            "byteOffset": 48,
            "componentType": 5126,
            "count": 20,
            "max": [
                0.28575,
                0.0045000000000000009,
                0.0
            ],
            "min": [
                0.0,
                0.0,
                0.0
            ],
            "type": "VEC3"
        },
        {
            "bufferView": 0,
            "byteOffset": 288,
            "componentType": 5126,
            "count": 20,
            "max": [
                0.28575,
                0.0045000000000000009,
                -0.01905000000000001
            ],
            "min": [
                0.0,
                0.0,
                -0.01905000000000001
            ],
            "type": "VEC3"
        },
        {
            "bufferView": 0,
            "byteOffset": 528,
            "componentType": 5126,
            "count": 286,
            "max": [
                0.28575,
                0.0,
                0.0
            ],
            "min": [
                0.0,
                0.0,
                -0.01905000000000001
            ],
            "type": "VEC3"
        },
        {
            "bufferView": 0,
            "byteOffset": 3960,
            "componentType": 5126,
            "count": 8,
            "max": [
                0.28575,
                0.001,
                0.0
            ],
            "min": [
                0.266661,
                0.001,
                -0.01905000000000001
            ],
            "type": "VEC3"
        },
        {
            "bufferView": 0,
            "byteOffset": 4056,
            "componentType": 5126,
            "count": 4,
            "max": [
                0.0,
                0.001,
                0.0
            ],
            "min": [
                0.0,
                0.0,
                -0.01905000000000001
            ],
            "type": "VEC3"
        },
        {
            "bufferView": 0,
            "byteOffset": 4104,
            "componentType": 5126,
            "count": 4,
            "max": [
                0.266661,
                0.0045000000000000009,
                0.0
            ],
            "min": [
                0.266661,
                0.001,
                -0.01905000000000001
            ],
            "type": "VEC3"
        },
        {
            "bufferView": 0,
            "byteOffset": 4152,
            "componentType": 5126,
            "count": 4,
            "max": [
                0.266661,
                0.0045000000000000009,
                0.0
            ],
            "min": [
                0.261961,
                0.0045000000000000009,
                -0.01905000000000001
            ],
            "type": "VEC3"
        },
        {
            "bufferView": 0,
            "byteOffset": 4200,
            "componentType": 5126,
            "count": 4,
            "max": [
                0.261961,
                0.0045000000000000009,
                0.0
            ],
            "min": [
                0.261961,
                0.001,
                -0.01905000000000001
            ],
            "type": "VEC3"
        },
        {
            "bufferView": 0,
            "byteOffset": 4248,
            "componentType": 5126,
            "count": 133,
            "max": [
                0.261961,
                0.001,
                0.0
            ],
            "min": [
                0.18570100000000004,
                0.001,
                -0.01905000000000001
            ],
            "type": "VEC3"
        },
        {
            "bufferView": 0,
            "byteOffset": 5844,
            "componentType": 5126,
            "count": 4,
            "max": [
                0.18570100000000004,
                0.0045000000000000009,
                0.0
            ],
            "min": [
                0.18570100000000004,
                0.001,
                -0.01905000000000001
            ],
            "type": "VEC3"
        },
        {
            "bufferView": 0,
            "byteOffset": 5892,
            "componentType": 5126,
            "count": 4,
            "max": [
                0.18570100000000004,
                0.0045000000000000009,
                0.0
            ],
            "min": [
                0.181001,
                0.0045000000000000009,
                -0.01905000000000001
            ],
            "type": "VEC3"
        },
        {
            "bufferView": 0,
            "byteOffset": 5940,
            "componentType": 5126,
            "count": 4,
            "max": [
                0.181001,
                0.0045000000000000009,
                0.0
            ],
            "min": [
                0.181001,
                0.001,
                -0.01905000000000001
            ],
            "type": "VEC3"
        },
        {
            "bufferView": 0,
            "byteOffset": 5988,
            "componentType": 5126,
            "count": 20,
            "max": [
                0.181001,
                0.001,
                0.0
            ],
            "min": [
                0.10474100000000002,
                0.001,
                -0.01905000000000001
            ],
            "type": "VEC3"
        },
        {
            "bufferView": 0,
            "byteOffset": 6228,
            "componentType": 5126,
            "count": 4,
            "max": [
                0.10474100000000002,
                0.0045000000000000009,
                0.0
            ],
            "min": [
                0.10474100000000002,
                0.001,
                -0.01905000000000001
            ],
            "type": "VEC3"
        },
        {
            "bufferView": 0,
            "byteOffset": 6276,
            "componentType": 5126,
            "count": 4,
            "max": [
                0.10474100000000002,
                0.0045000000000000009,
                0.0
            ],
            "min": [
                0.100041,
                0.0045000000000000009,
                -0.01905000000000001
            ],
            "type": "VEC3"
        },
        {
            "bufferView": 0,
            "byteOffset": 6324,
            "componentType": 5126,
            "count": 4,
            "max": [
                0.100041,
                0.0045000000000000009,
                0.0
            ],
            "min": [
                0.100041,
                0.001,
                -0.01905000000000001
            ],
            "type": "VEC3"
        },
        {
            "bufferView": 0,
            "byteOffset": 6372,
            "componentType": 5126,
            "count": 133,
            "max": [
                0.100041,
                0.001,
                0.0
            ],
            "min": [
                0.023781000000000008,
                0.001,
                -0.01905000000000001
            ],
            "type": "VEC3"
        },
        {
            "bufferView": 0,
            "byteOffset": 7968,
            "componentType": 5126,
            "count": 4,
            "max": [
                0.023781000000000008,
                0.0045000000000000009,
                0.0
            ],
            "min": [
                0.023781000000000008,
                0.001,
                -0.01905000000000001
            ],
            "type": "VEC3"
        },
        {
            "bufferView": 0,
            "byteOffset": 8016,
            "componentType": 5126,
            "count": 4,
            "max": [
                0.023781000000000008,
                0.0045000000000000009,
                0.0
            ],
            "min": [
                0.019081000000000005,
                0.0045000000000000009,
                -0.01905000000000001
            ],
            "type": "VEC3"
        },
        {
            "bufferView": 0,
            "byteOffset": 8064,
            "componentType": 5126,
            "count": 4,
            "max": [
                0.019081000000000005,
                0.0045000000000000009,
                0.0
            ],
            "min": [
                0.019081000000000005,
                0.001,
                -0.01905000000000001
            ],
            "type": "VEC3"
        },
        {
            "bufferView": 0,
            "byteOffset": 8112,
            "componentType": 5126,
            "count": 8,
            "max": [
                0.019081000000000005,
                0.001,
                0.0
            ],
            "min": [
                0.0,
                0.001,
                -0.01905000000000001
            ],
            "type": "VEC3"
        },
        {
            "bufferView": 0,
            "byteOffset": 8208,
            "componentType": 5126,
            "count": 4,
            "max": [
                0.016524999999999999,
                0.001,
                -0.016525000000000006
            ],
            "min": [
                0.0025249999999999988,
                0.0,
                -0.016525000000000006
            ],
            "type": "VEC3"
        },
        {
            "bufferView": 0,
            "byteOffset": 8256,
            "componentType": 5126,
            "count": 4,
            "max": [
                0.0025249999999999988,
                0.001,
                -0.0025250000000000057
            ],
            "min": [
                0.0025249999999999988,
                0.0,
                -0.016525000000000006
            ],
            "type": "VEC3"
        },
        {
            "bufferView": 0,
            "byteOffset": 8304,
            "componentType": 5126,
            "count": 4,
            "max": [
                0.016524999999999999,
                0.001,
                -0.0025250000000000057
            ],
            "min": [
                0.016524999999999999,
                0.0,
                -0.016525000000000006
            ],
            "type": "VEC3"
        },
        {
            "bufferView": 0,
            "byteOffset": 8352,
            "componentType": 5126,
            "count": 4,
            "max": [
                0.016524999999999999,
                0.001,
                -0.0025250000000000057
            ],
            "min": [
                0.0025249999999999988,
                0.0,
                -0.0025250000000000057
            ],
            "type": "VEC3"
        },
        {
            "bufferView": 0,
            "byteOffset": 8400,
            "componentType": 5126,
            "count": 4,
            "max": [
                0.040337500000000008,
                0.001,
                -0.016525000000000006
            ],
            "min": [
                0.026337500000000008,
                0.0,
                -0.016525000000000006
            ],
            "type": "VEC3"
        },
        {
            "bufferView": 0,
            "byteOffset": 8448,
            "componentType": 5126,
            "count": 4,
            "max": [
                0.026337500000000008,
                0.001,
                -0.0025250000000000057
            ],
            "min": [
                0.026337500000000008,
                0.0,
                -0.016525000000000006
            ],
            "type": "VEC3"
        },
        {
            "bufferView": 0,
            "byteOffset": 8496,
            "componentType": 5126,
            "count": 4,
            "max": [
                0.040337500000000008,
                0.001,
                -0.0025250000000000057
            ],
            "min": [
                0.040337500000000008,
                0.0,
                -0.016525000000000006
            ],
            "type": "VEC3"
        },
        {
            "bufferView": 0,
            "byteOffset": 8544,
            "componentType": 5126,
            "count": 4,
            "max": [
                0.040337500000000008,
                0.001,
                -0.0025250000000000057
            ],
            "min": [
                0.026337500000000008,
                0.0,
                -0.0025250000000000057
            ],
            "type": "VEC3"
        },
        {
            "bufferView": 0,
            "byteOffset": 8592,
            "componentType": 5126,
            "count": 228,
            "max": [
                0.04397499999999999,
                0.001,
                -0.008425106276822988
            ],
            "min": [
                0.04177542508675599,
                0.0,
                -0.010624893723177025
            ],
            "type": "VEC3"
        },
        {
            "bufferView": 0,
            "byteOffset": 11328,
            "componentType": 5126,
            "count": 4,
            "max": [
                0.0593875,
                0.001,
                -0.016525000000000006
            ],
            "min": [
                0.045387500000000007,
                0.0,
                -0.016525000000000006
            ],
            "type": "VEC3"
        },
        {
            "bufferView": 0,
            "byteOffset": 11376,
            "componentType": 5126,
            "count": 4,
            "max": [
                0.045387500000000007,
                0.001,
                -0.0025250000000000057
            ],
            "min": [
                0.045387500000000007,
                0.0,
                -0.016525000000000006
            ],
            "type": "VEC3"
        },
        {
            "bufferView": 0,
            "byteOffset": 11424,
            "componentType": 5126,
            "count": 4,
            "max": [
                0.0593875,
                0.001,
                -0.0025250000000000057
            ],
            "min": [
                0.0593875,
                0.0,
                -0.016525000000000006
            ],
            "type": "VEC3"
        },
        {
            "bufferView": 0,
            "byteOffset": 11472,
            "componentType": 5126,
            "count": 4,
            "max": [
                0.0593875,
                0.001,
                -0.0025250000000000057
            ],
            "min": [
                0.045387500000000007,
                0.0,
                -0.0025250000000000057
            ],
            "type": "VEC3"
        },
        {
            "bufferView": 0,
            "byteOffset": 11520,
            "componentType": 5126,
            "count": 4,
            "max": [
                0.07843750000000001,
                0.001,
                -0.016525000000000006
            ],
            "min": [
                0.0644375,
                0.0,
                -0.016525000000000006
            ],
            "type": "VEC3"
        },
        {
            "bufferView": 0,
            "byteOffset": 11568,
            "componentType": 5126,
            "count": 4,
            "max": [
                0.0644375,
                0.001,
                -0.0025250000000000057
            ],
            "min": [
                0.0644375,
                0.0,
                -0.016525000000000006
            ],
            "type": "VEC3"
        },
        {
            "bufferView": 0,
            "byteOffset": 11616,
            "componentType": 5126,
            "count": 4,
            "max": [
                0.07843750000000001,
                0.001,
                -0.0025250000000000057
            ],
            "min": [
                0.07843750000000001,
                0.0,
                -0.016525000000000006
            ],
            "type": "VEC3"
        },
        {
            "bufferView": 0,
            "byteOffset": 11664,
            "componentType": 5126,
            "count": 4,
            "max": [
                0.07843750000000001,
                0.001,
                -0.0025250000000000057
            ],
            "min": [
                0.0644375,
                0.0,
                -0.0025250000000000057
            ],
            "type": "VEC3"
        },
        {
            "bufferView": 0,
            "byteOffset": 11712,
            "componentType": 5126,
            "count": 4,
            "max": [
                0.09748750000000002,
                0.001,
                -0.016525000000000006
            ],
            "min": [
                0.08348749999999999,
                0.0,
                -0.016525000000000006
            ],
            "type": "VEC3"
        },
        {
            "bufferView": 0,
            "byteOffset": 11760,
            "componentType": 5126,
            "count": 4,
            "max": [
                0.08348749999999999,
                0.001,
                -0.0025250000000000057
            ],
            "min": [
                0.08348749999999999,
                0.0,
                -0.016525000000000006
            ],
            "type": "VEC3"
        },
        {
            "bufferView": 0,
            "byteOffset": 11808,
            "componentType": 5126,
            "count": 4,
            "max": [
                0.09748750000000002,
                0.001,
                -0.0025250000000000057
            ],
            "min": [
                0.09748750000000002,
                0.0,
                -0.016525000000000006
            ],
            "type": "VEC3"
        },
        {
            "bufferView": 0,
            "byteOffset": 11856,
            "componentType": 5126,
            "count": 4,
            "max": [
                0.09748750000000002,
                0.001,
                -0.0025250000000000057
            ],
            "min": [
                0.08348749999999999,
                0.0,
                -0.0025250000000000057
            ],
            "type": "VEC3"
        },
        {
            "bufferView": 0,
            "byteOffset": 11904,
            "componentType": 5126,
            "count": 4,
            "max": [
                0.12130000000000002,
                0.001,
                -0.016525000000000006
            ],
            "min": [
                0.10730000000000002,
                0.0,
                -0.016525000000000006
            ],
            "type": "VEC3"
        },
        {
            "bufferView": 0,
            "byteOffset": 11952,
            "componentType": 5126,
            "count": 4,
            "max": [
                0.10730000000000002,
                0.001,
                -0.0025250000000000057
            ],
            "min": [
                0.10730000000000002,
                0.0,
                -0.016525000000000006
            ],
            "type": "VEC3"
        },
        {
            "bufferView": 0,
            "byteOffset": 12000,
            "componentType": 5126,
            "count": 4,
            "max": [
                0.12130000000000002,
                0.001,
                -0.0025250000000000057
            ],
            "min": [
                0.12130000000000002,
                0.0,
                -0.016525000000000006
            ],
            "type": "VEC3"
        },
        {
            "bufferView": 0,
            "byteOffset": 12048,
            "componentType": 5126,
            "count": 4,
            "max": [
                0.12130000000000002,
                0.001,
                -0.0025250000000000057
            ],
            "min": [
                0.10730000000000002,
                0.0,
                -0.0025250000000000057
            ],
            "type": "VEC3"
        },
        {
            "bufferView": 0,
            "byteOffset": 12096,
            "componentType": 5126,
            "count": 4,
            "max": [
                0.14035000000000004,
                0.001,
                -0.016525000000000006
            ],
            "min": [
                0.12635000000000003,
                0.0,
                -0.016525000000000006
            ],
            "type": "VEC3"
        },
        {
            "bufferView": 0,
            "byteOffset": 12144,
            "componentType": 5126,
            "count": 4,
            "max": [
                0.12635000000000003,
                0.001,
                -0.0025250000000000057
            ],
            "min": [
                0.12635000000000003,
                0.0,
                -0.016525000000000006
            ],
            "type": "VEC3"
        },
        {
            "bufferView": 0,
            "byteOffset": 12192,
            "componentType": 5126,
            "count": 4,
            "max": [
                0.14035000000000004,
                0.001,
                -0.0025250000000000057
            ],
            "min": [
                0.14035000000000004,
                0.0,
                -0.016525000000000006
            ],
            "type": "VEC3"
        },
        {
            "bufferView": 0,
            "byteOffset": 12240,
            "componentType": 5126,
            "count": 4,
            "max": [
                0.14035000000000004,
                0.001,
                -0.0025250000000000057
            ],
            "min": [
                0.12635000000000003,
                0.0,
                -0.0025250000000000057
            ],
            "type": "VEC3"
        },
        {
            "bufferView": 0,
            "byteOffset": 12288,
            "componentType": 5126,
            "count": 4,
            "max": [
                0.15940000000000002,
                0.001,
                -0.016525000000000006
            ],
            "min": [
                0.1454,
                0.0,
                -0.016525000000000006
            ],
            "type": "VEC3"
        },
        {
            "bufferView": 0,
            "byteOffset": 12336,
            "componentType": 5126,
            "count": 4,
            "max": [
                0.1454,
                0.001,
                -0.0025250000000000057
            ],
            "min": [
                0.1454,
                0.0,
                -0.016525000000000006
            ],
            "type": "VEC3"
        },
        {
            "bufferView": 0,
            "byteOffset": 12384,
            "componentType": 5126,
            "count": 4,
            "max": [
                0.15940000000000002,
                0.001,
                -0.0025250000000000057
            ],
            "min": [
                0.15940000000000002,
                0.0,
                -0.016525000000000006
            ],
            "type": "VEC3"
        },
        {
            "bufferView": 0,
            "byteOffset": 12432,
            "componentType": 5126,
            "count": 4,
            "max": [
                0.15940000000000002,
                0.001,
                -0.0025250000000000057
            ],
            "min": [
                0.1454,
                0.0,
                -0.0025250000000000057
            ],
            "type": "VEC3"
        },
        {
            "bufferView": 0,
            "byteOffset": 12480,
            "componentType": 5126,
            "count": 4,
            "max": [
                0.17845,
                0.001,
                -0.016525000000000006
            ],
            "min": [
                0.16444999999999999,
                0.0,
                -0.016525000000000006
            ],
            "type": "VEC3"
        },
        {
            "bufferView": 0,
            "byteOffset": 12528,
            "componentType": 5126,
            "count": 4,
            "max": [
                0.16444999999999999,
                0.001,
                -0.0025250000000000057
            ],
            "min": [
                0.16444999999999999,
                0.0,
                -0.016525000000000006
            ],
            "type": "VEC3"
        },
        {
            "bufferView": 0,
            "byteOffset": 12576,
            "componentType": 5126,
            "count": 4,
            "max": [
                0.17845,
                0.001,
                -0.0025250000000000057
            ],
            "min": [
                0.17845,
                0.0,
                -0.016525000000000006
            ],
            "type": "VEC3"
        },
        {
            "bufferView": 0,
            "byteOffset": 12624,
            "componentType": 5126,
            "count": 4,
            "max": [
                0.17845,
                0.001,
                -0.0025250000000000057
            ],
            "min": [
                0.16444999999999999,
                0.0,
                -0.0025250000000000057
            ],
            "type": "VEC3"
        },
        {
            "bufferView": 0,
            "byteOffset": 12672,
            "componentType": 5126,
            "count": 4,
            "max": [
                0.2022625,
                0.001,
                -0.016525000000000006
            ],
            "min": [
                0.18826250000000004,
                0.0,
                -0.016525000000000006
            ],
            "type": "VEC3"
        },
        {
            "bufferView": 0,
            "byteOffset": 12720,
            "componentType": 5126,
            "count": 4,
            "max": [
                0.18826250000000004,
                0.001,
                -0.0025250000000000057
            ],
            "min": [
                0.18826250000000004,
                0.0,
                -0.016525000000000006
            ],
            "type": "VEC3"
        },
        {
            "bufferView": 0,
            "byteOffset": 12768,
            "componentType": 5126,
            "count": 4,
            "max": [
                0.2022625,
                0.001,
                -0.0025250000000000057
            ],
            "min": [
                0.2022625,
                0.0,
                -0.016525000000000006
            ],
            "type": "VEC3"
        },
        {
            "bufferView": 0,
            "byteOffset": 12816,
            "componentType": 5126,
            "count": 4,
            "max": [
                0.2022625,
                0.001,
                -0.0025250000000000057
            ],
            "min": [
                0.18826250000000004,
                0.0,
                -0.0025250000000000057
            ],
            "type": "VEC3"
        },
        {
            "bufferView": 0,
            "byteOffset": 12864,
            "componentType": 5126,
            "count": 4,
            "max": [
                0.2213125,
                0.001,
                -0.016525000000000006
            ],
            "min": [
                0.2073125,
                0.0,
                -0.016525000000000006
            ],
            "type": "VEC3"
        },
        {
            "bufferView": 0,
            "byteOffset": 12912,
            "componentType": 5126,
            "count": 4,
            "max": [
                0.2073125,
                0.001,
                -0.0025250000000000057
            ],
            "min": [
                0.2073125,
                0.0,
                -0.016525000000000006
            ],
            "type": "VEC3"
        },
        {
            "bufferView": 0,
            "byteOffset": 12960,
            "componentType": 5126,
            "count": 4,
            "max": [
                0.2213125,
                0.001,
                -0.0025250000000000057
            ],
            "min": [
                0.2213125,
                0.0,
                -0.016525000000000006
            ],
            "type": "VEC3"
        },
        {
            "bufferView": 0,
            "byteOffset": 13008,
            "componentType": 5126,
            "count": 4,
            "max": [
                0.2213125,
                0.001,
                -0.0025250000000000057
            ],
            "min": [
                0.2073125,
                0.0,
                -0.0025250000000000057
            ],
            "type": "VEC3"
        },
        {
            "bufferView": 0,
            "byteOffset": 13056,
            "componentType": 5126,
            "count": 4,
            "max": [
                0.2403625,
                0.001,
                -0.016525000000000006
            ],
            "min": [
                0.22636250000000003,
                0.0,
                -0.016525000000000006
            ],
            "type": "VEC3"
        },
        {
            "bufferView": 0,
            "byteOffset": 13104,
            "componentType": 5126,
            "count": 4,
            "max": [
                0.22636250000000003,
                0.001,
                -0.0025250000000000057
            ],
            "min": [
                0.22636250000000003,
                0.0,
                -0.016525000000000006
            ],
            "type": "VEC3"
        },
        {
            "bufferView": 0,
            "byteOffset": 13152,
            "componentType": 5126,
            "count": 4,
            "max": [
                0.2403625,
                0.001,
                -0.0025250000000000057
            ],
            "min": [
                0.2403625,
                0.0,
                -0.016525000000000006
            ],
            "type": "VEC3"
        },
        {
            "bufferView": 0,
            "byteOffset": 13200,
            "componentType": 5126,
            "count": 4,
            "max": [
                0.2403625,
                0.001,
                -0.0025250000000000057
            ],
            "min": [
                0.22636250000000003,
                0.0,
                -0.0025250000000000057
            ],
            "type": "VEC3"
        },
        {
            "bufferView": 0,
            "byteOffset": 13248,
            "componentType": 5126,
            "count": 228,
            "max": [
                0.2440075,
                0.001,
                -0.008425106276822988
            ],
            "min": [
                0.24180792508675598,
                0.0,
                -0.010624893723177025
            ],
            "type": "VEC3"
        },
        {
            "bufferView": 0,
            "byteOffset": 15984,
            "componentType": 5126,
            "count": 4,
            "max": [
                0.25941250000000007,
                0.001,
                -0.016525000000000006
            ],
            "min": [
                0.24541250000000004,
                0.0,
                -0.016525000000000006
            ],
            "type": "VEC3"
        },
        {
            "bufferView": 0,
            "byteOffset": 16032,
            "componentType": 5126,
            "count": 4,
            "max": [
                0.24541250000000004,
                0.001,
                -0.0025250000000000057
            ],
            "min": [
                0.24541250000000004,
                0.0,
                -0.016525000000000006
            ],
            "type": "VEC3"
        },
        {
            "bufferView": 0,
            "byteOffset": 16080,
            "componentType": 5126,
            "count": 4,
            "max": [
                0.25941250000000007,
                0.001,
                -0.0025250000000000057
            ],
            "min": [
                0.25941250000000007,
                0.0,
                -0.016525000000000006
            ],
            "type": "VEC3"
        },
        {
            "bufferView": 0,
            "byteOffset": 16128,
            "componentType": 5126,
            "count": 4,
            "max": [
                0.25941250000000007,
                0.001,
                -0.0025250000000000057
            ],
            "min": [
                0.24541250000000004,
                0.0,
                -0.0025250000000000057
            ],
            "type": "VEC3"
        },
        {
            "bufferView": 0,
            "byteOffset": 16176,
            "componentType": 5126,
            "count": 4,
            "max": [
                0.283225,
                0.001,
                -0.016525000000000006
            ],
            "min": [
                0.26922500000000007,
                0.0,
                -0.016525000000000006
            ],
            "type": "VEC3"
        },
        {
            "bufferView": 0,
            "byteOffset": 16224,
            "componentType": 5126,
            "count": 4,
            "max": [
                0.26922500000000007,
                0.001,
                -0.0025250000000000057
            ],
            "min": [
                0.26922500000000007,
                0.0,
                -0.016525000000000006
            ],
            "type": "VEC3"
        },
        {
            "bufferView": 0,
            "byteOffset": 16272,
            "componentType": 5126,
            "count": 4,
            "max": [
                0.283225,
                0.001,
                -0.0025250000000000057
            ],
            "min": [
                0.283225,
                0.0,
                -0.016525000000000006
            ],
            "type": "VEC3"
        },
        {
            "bufferView": 0,
            "byteOffset": 16320,
            "componentType": 5126,
            "count": 4,
            "max": [
                0.283225,
                0.001,
                -0.0025250000000000057
            ],
            "min": [
                0.26922500000000007,
                0.0,
                -0.0025250000000000057
            ],
            "type": "VEC3"
        },
        {
            "bufferView": 1,
            "byteOffset": 0,
            "componentType": 5126,
            "count": 4,
            "type": "VEC3"
        },
        {
            "bufferView": 1,
            "byteOffset": 48,
            "componentType": 5126,
            "count": 20,
            "type": "VEC3"
        },
        {
            "bufferView": 1,
            "byteOffset": 288,
            "componentType": 5126,
            "count": 20,
            "type": "VEC3"
        },
        {
            "bufferView": 1,
            "byteOffset": 528,
            "componentType": 5126,
            "count": 286,
            "type": "VEC3"
        },
        {
            "bufferView": 1,
            "byteOffset": 3960,
            "componentType": 5126,
            "count": 8,
            "type": "VEC3"
        },
        {
            "bufferView": 1,
            "byteOffset": 4056,
            "componentType": 5126,
            "count": 4,
            "type": "VEC3"
        },
        {
            "bufferView": 1,
            "byteOffset": 4104,
            "componentType": 5126,
            "count": 4,
            "type": "VEC3"
        },
        {
            "bufferView": 1,
            "byteOffset": 4152,
            "componentType": 5126,
            "count": 4,
            "type": "VEC3"
        },
        {
            "bufferView": 1,
            "byteOffset": 4200,
            "componentType": 5126,
            "count": 4,
            "type": "VEC3"
        },
        {
            "bufferView": 1,
            "byteOffset": 4248,
            "componentType": 5126,
            "count": 133,
            "type": "VEC3"
        },
        {
            "bufferView": 1,
            "byteOffset": 5844,
            "componentType": 5126,
            "count": 4,
            "type": "VEC3"
        },
        {
            "bufferView": 1,
            "byteOffset": 5892,
            "componentType": 5126,
            "count": 4,
            "type": "VEC3"
        },
        {
            "bufferView": 1,
            "byteOffset": 5940,
            "componentType": 5126,
            "count": 4,
            "type": "VEC3"
        },
        {
            "bufferView": 1,
            "byteOffset": 5988,
            "componentType": 5126,
            "count": 20,
            "type": "VEC3"
        },
        {
            "bufferView": 1,
            "byteOffset": 6228,
            "componentType": 5126,
            "count": 4,
            "type": "VEC3"
        },
        {
            "bufferView": 1,
            "byteOffset": 6276,
            "componentType": 5126,
            "count": 4,
            "type": "VEC3"
        },
        {
            "bufferView": 1,
            "byteOffset": 6324,
            "componentType": 5126,
            "count": 4,
            "type": "VEC3"
        },
        {
            "bufferView": 1,
            "byteOffset": 6372,
            "componentType": 5126,
            "count": 133,
            "type": "VEC3"
        },
        {
            "bufferView": 1,
            "byteOffset": 7968,
            "componentType": 5126,
            "count": 4,
            "type": "VEC3"
        },
        {
            "bufferView": 1,
            "byteOffset": 8016,
            "componentType": 5126,
            "count": 4,
            "type": "VEC3"
        },
        {
            "bufferView": 1,
            "byteOffset": 8064,
            "componentType": 5126,
            "count": 4,
            "type": "VEC3"
        },
        {
            "bufferView": 1,
            "byteOffset": 8112,
            "componentType": 5126,
            "count": 8,
            "type": "VEC3"
        },
        {
            "bufferView": 1,
            "byteOffset": 8208,
            "componentType": 5126,
            "count": 4,
            "type": "VEC3"
        },
        {
            "bufferView": 1,
            "byteOffset": 8256,
            "componentType": 5126,
            "count": 4,
            "type": "VEC3"
        },
        {
            "bufferView": 1,
            "byteOffset": 8304,
            "componentType": 5126,
            "count": 4,
            "type": "VEC3"
        },
        {
            "bufferView": 1,
            "byteOffset": 8352,
            "componentType": 5126,
            "count": 4,
            "type": "VEC3"
        },
        {
            "bufferView": 1,
            "byteOffset": 8400,
            "componentType": 5126,
            "count": 4,
            "type": "VEC3"
        },
        {
            "bufferView": 1,
            "byteOffset": 8448,
            "componentType": 5126,
            "count": 4,
            "type": "VEC3"
        },
        {
            "bufferView": 1,
            "byteOffset": 8496,
            "componentType": 5126,
            "count": 4,
            "type": "VEC3"
        },
        {
            "bufferView": 1,
            "byteOffset": 8544,
            "componentType": 5126,
            "count": 4,
            "type": "VEC3"
        },
        {
            "bufferView": 1,
            "byteOffset": 8592,
            "componentType": 5126,
            "count": 228,
            "type": "VEC3"
        },
        {
            "bufferView": 1,
            "byteOffset": 11328,
            "componentType": 5126,
            "count": 4,
            "type": "VEC3"
        },
        {
            "bufferView": 1,
            "byteOffset": 11376,
            "componentType": 5126,
            "count": 4,
            "type": "VEC3"
        },
        {
            "bufferView": 1,
            "byteOffset": 11424,
            "componentType": 5126,
            "count": 4,
            "type": "VEC3"
        },
        {
            "bufferView": 1,
            "byteOffset": 11472,
            "componentType": 5126,
            "count": 4,
            "type": "VEC3"
        },
        {
            "bufferView": 1,
            "byteOffset": 11520,
            "componentType": 5126,
            "count": 4,
            "type": "VEC3"
        },
        {
            "bufferView": 1,
            "byteOffset": 11568,
            "componentType": 5126,
            "count": 4,
            "type": "VEC3"
        },
        {
            "bufferView": 1,
            "byteOffset": 11616,
            "componentType": 5126,
            "count": 4,
            "type": "VEC3"
        },
        {
            "bufferView": 1,
            "byteOffset": 11664,
            "componentType": 5126,
            "count": 4,
            "type": "VEC3"
        },
        {
            "bufferView": 1,
            "byteOffset": 11712,
            "componentType": 5126,
            "count": 4,
            "type": "VEC3"
        },
        {
            "bufferView": 1,
            "byteOffset": 11760,
            "componentType": 5126,
            "count": 4,
            "type": "VEC3"
        },
        {
            "bufferView": 1,
            "byteOffset": 11808,
            "componentType": 5126,
            "count": 4,
            "type": "VEC3"
        },
        {
            "bufferView": 1,
            "byteOffset": 11856,
            "componentType": 5126,
            "count": 4,
            "type": "VEC3"
        },
        {
            "bufferView": 1,
            "byteOffset": 11904,
            "componentType": 5126,
            "count": 4,
            "type": "VEC3"
        },
        {
            "bufferView": 1,
            "byteOffset": 11952,
            "componentType": 5126,
            "count": 4,
            "type": "VEC3"
        },
        {
            "bufferView": 1,
            "byteOffset": 12000,
            "componentType": 5126,
            "count": 4,
            "type": "VEC3"
        },
        {
            "bufferView": 1,
            "byteOffset": 12048,
            "componentType": 5126,
            "count": 4,
            "type": "VEC3"
        },
        {
            "bufferView": 1,
            "byteOffset": 12096,
            "componentType": 5126,
            "count": 4,
            "type": "VEC3"
        },
        {
            "bufferView": 1,
            "byteOffset": 12144,
            "componentType": 5126,
            "count": 4,
            "type": "VEC3"
        },
        {
            "bufferView": 1,
            "byteOffset": 12192,
            "componentType": 5126,
            "count": 4,
            "type": "VEC3"
        },
        {
            "bufferView": 1,
            "byteOffset": 12240,
            "componentType": 5126,
            "count": 4,
            "type": "VEC3"
        },
        {
            "bufferView": 1,
            "byteOffset": 12288,
            "componentType": 5126,
            "count": 4,
            "type": "VEC3"
        },
        {
            "bufferView": 1,
            "byteOffset": 12336,
            "componentType": 5126,
            "count": 4,
            "type": "VEC3"
        },
        {
            "bufferView": 1,
            "byteOffset": 12384,
            "componentType": 5126,
            "count": 4,
            "type": "VEC3"
        },
        {
            "bufferView": 1,
            "byteOffset": 12432,
            "componentType": 5126,
            "count": 4,
            "type": "VEC3"
        },
        {
            "bufferView": 1,
            "byteOffset": 12480,
            "componentType": 5126,
            "count": 4,
            "type": "VEC3"
        },
        {
            "bufferView": 1,
            "byteOffset": 12528,
            "componentType": 5126,
            "count": 4,
            "type": "VEC3"
        },
        {
            "bufferView": 1,
            "byteOffset": 12576,
            "componentType": 5126,
            "count": 4,
            "type": "VEC3"
        },
        {
            "bufferView": 1,
            "byteOffset": 12624,
            "componentType": 5126,
            "count": 4,
            "type": "VEC3"
        },
        {
            "bufferView": 1,
            "byteOffset": 12672,
            "componentType": 5126,
            "count": 4,
            "type": "VEC3"
        },
        {
            "bufferView": 1,
            "byteOffset": 12720,
            "componentType": 5126,
            "count": 4,
            "type": "VEC3"
        },
        {
            "bufferView": 1,
            "byteOffset": 12768,
            "componentType": 5126,
            "count": 4,
            "type": "VEC3"
        },
        {
            "bufferView": 1,
            "byteOffset": 12816,
            "componentType": 5126,
            "count": 4,
            "type": "VEC3"
        },
        {
            "bufferView": 1,
            "byteOffset": 12864,
            "componentType": 5126,
            "count": 4,
            "type": "VEC3"
        },
        {
            "bufferView": 1,
            "byteOffset": 12912,
            "componentType": 5126,
            "count": 4,
            "type": "VEC3"
        },
        {
            "bufferView": 1,
            "byteOffset": 12960,
            "componentType": 5126,
            "count": 4,
            "type": "VEC3"
        },
        {
            "bufferView": 1,
            "byteOffset": 13008,
            "componentType": 5126,
            "count": 4,
            "type": "VEC3"
        },
        {
            "bufferView": 1,
            "byteOffset": 13056,
            "componentType": 5126,
            "count": 4,
            "type": "VEC3"
        },
        {
            "bufferView": 1,
            "byteOffset": 13104,
            "componentType": 5126,
            "count": 4,
            "type": "VEC3"
        },
        {
            "bufferView": 1,
            "byteOffset": 13152,
            "componentType": 5126,
            "count": 4,
            "type": "VEC3"
        },
        {
            "bufferView": 1,
            "byteOffset": 13200,
            "componentType": 5126,
            "count": 4,
            "type": "VEC3"
        },
        {
            "bufferView": 1,
            "byteOffset": 13248,
            "componentType": 5126,
            "count": 228,
            "type": "VEC3"
        },
        {
            "bufferView": 1,
            "byteOffset": 15984,
            "componentType": 5126,
            "count": 4,
            "type": "VEC3"
        },
        {
            "bufferView": 1,
            "byteOffset": 16032,
            "componentType": 5126,
            "count": 4,
            "type": "VEC3"
        },
        {
            "bufferView": 1,
            "byteOffset": 16080,
            "componentType": 5126,
            "count": 4,
            "type": "VEC3"
        },
        {
            "bufferView": 1,
            "byteOffset": 16128,
            "componentType": 5126,
            "count": 4,
            "type": "VEC3"
        },
        {
            "bufferView": 1,
            "byteOffset": 16176,
            "componentType": 5126,
            "count": 4,
            "type": "VEC3"
        },
        {
            "bufferView": 1,
            "byteOffset": 16224,
            "componentType": 5126,
            "count": 4,
            "type": "VEC3"
        },
        {
            "bufferView": 1,
            "byteOffset": 16272,
            "componentType": 5126,
            "count": 4,
            "type": "VEC3"
        },
        {
            "bufferView": 1,
            "byteOffset": 16320,
            "componentType": 5126,
            "count": 4,
            "type": "VEC3"
        },
        {
            "bufferView": 2,
            "byteOffset": 0,
            "componentType": 5123,
            "count": 6,
            "type": "SCALAR"
        },
        {
            "bufferView": 2,
            "byteOffset": 12,
            "componentType": 5123,
            "count": 54,
            "type": "SCALAR"
        },
        {
            "bufferView": 2,
            "byteOffset": 120,
            "componentType": 5123,
            "count": 54,
            "type": "SCALAR"
        },
        {
            "bufferView": 2,
            "byteOffset": 228,
            "componentType": 5123,
            "count": 948,
            "type": "SCALAR"
        },
        {
            "bufferView": 2,
            "byteOffset": 2124,
            "componentType": 5123,
            "count": 24,
            "type": "SCALAR"
        },
        {
            "bufferView": 2,
            "byteOffset": 2172,
            "componentType": 5123,
            "count": 6,
            "type": "SCALAR"
        },
        {
            "bufferView": 2,
            "byteOffset": 2184,
            "componentType": 5123,
            "count": 6,
            "type": "SCALAR"
        },
        {
            "bufferView": 2,
            "byteOffset": 2196,
            "componentType": 5123,
            "count": 6,
            "type": "SCALAR"
        },
        {
            "bufferView": 2,
            "byteOffset": 2208,
            "componentType": 5123,
            "count": 6,
            "type": "SCALAR"
        },
        {
            "bufferView": 2,
            "byteOffset": 2220,
            "componentType": 5123,
            "count": 423,
            "type": "SCALAR"
        },
        {
            "bufferView": 2,
            "byteOffset": 3068,
            "componentType": 5123,
            "count": 6,
            "type": "SCALAR"
        },
        {
            "bufferView": 2,
            "byteOffset": 3080,
            "componentType": 5123,
            "count": 6,
            "type": "SCALAR"
        },
        {
            "bufferView": 2,
            "byteOffset": 3092,
            "componentType": 5123,
            "count": 6,
            "type": "SCALAR"
        },
        {
            "bufferView": 2,
            "byteOffset": 3104,
            "componentType": 5123,
            "count": 78,
            "type": "SCALAR"
        },
        {
            "bufferView": 2,
            "byteOffset": 3260,
            "componentType": 5123,
            "count": 6,
            "type": "SCALAR"
        },
        {
            "bufferView": 2,
            "byteOffset": 3272,
            "componentType": 5123,
            "count": 6,
            "type": "SCALAR"
        },
        {
            "bufferView": 2,
            "byteOffset": 3284,
            "componentType": 5123,
            "count": 6,
            "type": "SCALAR"
        },
        {
            "bufferView": 2,
            "byteOffset": 3296,
            "componentType": 5123,
            "count": 423,
            "type": "SCALAR"
        },
        {
            "bufferView": 2,
            "byteOffset": 4144,
            "componentType": 5123,
            "count": 6,
            "type": "SCALAR"
        },
        {
            "bufferView": 2,
            "byteOffset": 4156,
            "componentType": 5123,
            "count": 6,
            "type": "SCALAR"
        },
        {
            "bufferView": 2,
            "byteOffset": 4168,
            "componentType": 5123,
            "count": 6,
            "type": "SCALAR"
        },
        {
            "bufferView": 2,
            "byteOffset": 4180,
            "componentType": 5123,
            "count": 24,
            "type": "SCALAR"
        },
        {
            "bufferView": 2,
            "byteOffset": 4228,
            "componentType": 5123,
            "count": 6,
            "type": "SCALAR"
        },
        {
            "bufferView": 2,
            "byteOffset": 4240,
            "componentType": 5123,
            "count": 6,
            "type": "SCALAR"
        },
        {
            "bufferView": 2,
            "byteOffset": 4252,
            "componentType": 5123,
            "count": 6,
            "type": "SCALAR"
        },
        {
            "bufferView": 2,
            "byteOffset": 4264,
            "componentType": 5123,
            "count": 6,
            "type": "SCALAR"
        },
        {
            "bufferView": 2,
            "byteOffset": 4276,
            "componentType": 5123,
            "count": 6,
            "type": "SCALAR"
        },
        {
            "bufferView": 2,
            "byteOffset": 4288,
            "componentType": 5123,
            "count": 6,
            "type": "SCALAR"
        },
        {
            "bufferView": 2,
            "byteOffset": 4300,
            "componentType": 5123,
            "count": 6,
            "type": "SCALAR"
        },
        {
            "bufferView": 2,
            "byteOffset": 4312,
            "componentType": 5123,
            "count": 6,
            "type": "SCALAR"
        },
        {
            "bufferView": 2,
            "byteOffset": 4324,
            "componentType": 5123,
            "count": 678,
            "type": "SCALAR"
        },
        {
            "bufferView": 2,
            "byteOffset": 5680,
            "componentType": 5123,
            "count": 6,
            "type": "SCALAR"
        },
        {
            "bufferView": 2,
            "byteOffset": 5692,
            "componentType": 5123,
            "count": 6,
            "type": "SCALAR"
        },
        {
            "bufferView": 2,
            "byteOffset": 5704,
            "componentType": 5123,
            "count": 6,
            "type": "SCALAR"
        },
        {
            "bufferView": 2,
            "byteOffset": 5716,
            "componentType": 5123,
            "count": 6,
            "type": "SCALAR"
        },
        {
            "bufferView": 2,
            "byteOffset": 5728,
            "componentType": 5123,
            "count": 6,
            "type": "SCALAR"
        },
        {
            "bufferView": 2,
            "byteOffset": 5740,
            "componentType": 5123,
            "count": 6,
            "type": "SCALAR"
        },
        {
            "bufferView": 2,
            "byteOffset": 5752,
            "componentType": 5123,
            "count": 6,
            "type": "SCALAR"
        },
        {
            "bufferView": 2,
            "byteOffset": 5764,
            "componentType": 5123,
            "count": 6,
            "type": "SCALAR"
        },
        {
            "bufferView": 2,
            "byteOffset": 5776,
            "componentType": 5123,
            "count": 6,
            "type": "SCALAR"
        },
        {
            "bufferView": 2,
            "byteOffset": 5788,
            "componentType": 5123,
            "count": 6,
            "type": "SCALAR"
        },
        {
            "bufferView": 2,
            "byteOffset": 5800,
            "componentType": 5123,
            "count": 6,
            "type": "SCALAR"
        },
        {
            "bufferView": 2,
            "byteOffset": 5812,
            "componentType": 5123,
            "count": 6,
            "type": "SCALAR"
        },
        {
            "bufferView": 2,
            "byteOffset": 5824,
            "componentType": 5123,
            "count": 6,
            "type": "SCALAR"
        },
        {
            "bufferView": 2,
            "byteOffset": 5836,
            "componentType": 5123,
            "count": 6,
            "type": "SCALAR"
        },
        {
            "bufferView": 2,
            "byteOffset": 5848,
            "componentType": 5123,
            "count": 6,
            "type": "SCALAR"
        },
        {
            "bufferView": 2,
            "byteOffset": 5860,
            "componentType": 5123,
            "count": 6,
            "type": "SCALAR"
        },
        {
            "bufferView": 2,
            "byteOffset": 5872,
            "componentType": 5123,
            "count": 6,
            "type": "SCALAR"
        },
        {
            "bufferView": 2,
            "byteOffset": 5884,
            "componentType": 5123,
            "count": 6,
            "type": "SCALAR"
        },
        {
            "bufferView": 2,
            "byteOffset": 5896,
            "componentType": 5123,
            "count": 6,
            "type": "SCALAR"
        },
        {
            "bufferView": 2,
            "byteOffset": 5908,
            "componentType": 5123,
            "count": 6,
            "type": "SCALAR"
        },
        {
            "bufferView": 2,
            "byteOffset": 5920,
            "componentType": 5123,
            "count": 6,
            "type": "SCALAR"
        },
        {
            "bufferView": 2,
            "byteOffset": 5932,
            "componentType": 5123,
            "count": 6,
            "type": "SCALAR"
        },
        {
            "bufferView": 2,
            "byteOffset": 5944,
            "componentType": 5123,
            "count": 6,
            "type": "SCALAR"
        },
        {
            "bufferView": 2,
            "byteOffset": 5956,
            "componentType": 5123,
            "count": 6,
            "type": "SCALAR"
        },
        {
            "bufferView": 2,
            "byteOffset": 5968,
            "componentType": 5123,
            "count": 6,
            "type": "SCALAR"
        },
        {
            "bufferView": 2,
            "byteOffset": 5980,
            "componentType": 5123,
            "count": 6,
            "type": "SCALAR"
        },
        {
            "bufferView": 2,
            "byteOffset": 5992,
            "componentType": 5123,
            "count": 6,
            "type": "SCALAR"
        },
        {
            "bufferView": 2,
            "byteOffset": 6004,
            "componentType": 5123,
            "count": 6,
            "type": "SCALAR"
        },
        {
            "bufferView": 2,
            "byteOffset": 6016,
            "componentType": 5123,
            "count": 6,
            "type": "SCALAR"
        },
        {
            "bufferView": 2,
            "byteOffset": 6028,
            "componentType": 5123,
            "count": 6,
            "type": "SCALAR"
        },
        {
            "bufferView": 2,
            "byteOffset": 6040,
            "componentType": 5123,
            "count": 6,
            "type": "SCALAR"
        },
        {
            "bufferView": 2,
            "byteOffset": 6052,
            "componentType": 5123,
            "count": 6,
            "type": "SCALAR"
        },
        {
            "bufferView": 2,
            "byteOffset": 6064,
            "componentType": 5123,
            "count": 6,
            "type": "SCALAR"
        },
        {
            "bufferView": 2,
            "byteOffset": 6076,
            "componentType": 5123,
            "count": 6,
            "type": "SCALAR"
        },
        {
            "bufferView": 2,
            "byteOffset": 6088,
            "componentType": 5123,
            "count": 6,
            "type": "SCALAR"
        },
        {
            "bufferView": 2,
            "byteOffset": 6100,
            "componentType": 5123,
            "count": 6,
            "type": "SCALAR"
        },
        {
            "bufferView": 2,
            "byteOffset": 6112,
            "componentType": 5123,
            "count": 6,
            "type": "SCALAR"
        },
        {
            "bufferView": 2,
            "byteOffset": 6124,
            "componentType": 5123,
            "count": 6,
            "type": "SCALAR"
        },
        {
            "bufferView": 2,
            "byteOffset": 6136,
            "componentType": 5123,
            "count": 6,
            "type": "SCALAR"
        },
        {
            "bufferView": 2,
            "byteOffset": 6148,
            "componentType": 5123,
            "count": 6,
            "type": "SCALAR"
        },
        {
            "bufferView": 2,
            "byteOffset": 6160,
            "componentType": 5123,
            "count": 678,
            "type": "SCALAR"
        },
        {
            "bufferView": 2,
            "byteOffset": 7516,
            "componentType": 5123,
            "count": 6,
            "type": "SCALAR"
        },
        {
            "bufferView": 2,
            "byteOffset": 7528,
            "componentType": 5123,
            "count": 6,
            "type": "SCALAR"
        },
        {
            "bufferView": 2,
            "byteOffset": 7540,
            "componentType": 5123,
            "count": 6,
            "type": "SCALAR"
        },
        {
            "bufferView": 2,
            "byteOffset": 7552,
            "componentType": 5123,
            "count": 6,
            "type": "SCALAR"
        },
        {
            "bufferView": 2,
            "byteOffset": 7564,
            "componentType": 5123,
            "count": 6,
            "type": "SCALAR"
        },
        {
            "bufferView": 2,
            "byteOffset": 7576,
            "componentType": 5123,
            "count": 6,
            "type": "SCALAR"
        },
        {
            "bufferView": 2,
            "byteOffset": 7588,
            "componentType": 5123,
            "count": 6,
            "type": "SCALAR"
        },
        {
            "bufferView": 2,
            "byteOffset": 7600,
            "componentType": 5123,
            "count": 6,
            "type": "SCALAR"
        }
    ],
    "asset": {
        "generator": "Open CASCADE Technology 7.9 [dev.opencascade.org]",
        "version": "2.0"
    },
    "bufferViews": [
        {
            "buffer": 0,
            "byteLength": 16368,
            "byteOffset": 0,
            "byteStride": 12,
            "target": 34962
        },
        {
            "buffer": 0,
            "byteLength": 16368,
            "byteOffset": 16368,
            "byteStride": 12,
            "target": 34962
        },
        {
            "buffer": 0,
            "byteLength": 7612,
            "byteOffset": 32736,
            "target": 34963
        }
    ],
    "buffers": [
        {
            "byteLength": 40348,
            "uri": "Keyboard-ExternalPlatePad.bin"
        }
    ],
    "materials": [
        {
            "name": "mat_0",
            "pbrMetallicRoughness": {
                "baseColorFactor": [
                    1.0,
                    1.0,
                    1.0,
                    1.0
                ]
            },
            "doubleSided": true
        }
    ],
    "meshes": [
        {
            "name": "FPlate",
            "primitives": [
                {
                    "attributes": {
                        "NORMAL": 80,
                        "POSITION": 0
                    },
                    "indices": 160,
                    "material": 0,
                    "mode": 4
                },
                {
                    "attributes": {
                        "NORMAL": 81,
                        "POSITION": 1
                    },
                    "indices": 161,
                    "material": 0,
                    "mode": 4
                },
                {
                    "attributes": {
                        "NORMAL": 82,
                        "POSITION": 2
                    },
                    "indices": 162,
                    "material": 0,
                    "mode": 4
                },
                {
                    "attributes": {
                        "NORMAL": 83,
                        "POSITION": 3
                    },
                    "indices": 163,
                    "material": 0,
                    "mode": 4
                },
                {
                    "attributes": {
                        "NORMAL": 84,
                        "POSITION": 4
                    },
                    "indices": 164,
                    "material": 0,
                    "mode": 4
                },
                {
                    "attributes": {
                        "NORMAL": 85,
                        "POSITION": 5
                    },
                    "indices": 165,
                    "material": 0,
                    "mode": 4
                },
                {
                    "attributes": {
                        "NORMAL": 86,
                        "POSITION": 6
                    },
                    "indices": 166,
                    "material": 0,
                    "mode": 4
                },
                {
                    "attributes": {
                        "NORMAL": 87,
                        "POSITION": 7
                    },
                    "indices": 167,
                    "material": 0,
                    "mode": 4
                },
                {
                    "attributes": {
                        "NORMAL": 88,
                        "POSITION": 8
                    },
                    "indices": 168,
                    "material": 0,
                    "mode": 4
                },
                {
                    "attributes": {
                        "NORMAL": 89,
                        "POSITION": 9
                    },
                    "indices": 169,
                    "material": 0,
                    "mode": 4
                },
                {
                    "attributes": {
                        "NORMAL": 90,
                        "POSITION": 10
                    },
                    "indices": 170,
                    "material": 0,
                    "mode": 4
                },
                {
                    "attributes": {
                        "NORMAL": 91,
                        "POSITION": 11
                    },
                    "indices": 171,
                    "material": 0,
                    "mode": 4
                },
                {
                    "attributes": {
                        "NORMAL": 92,
                        "POSITION": 12
                    },
                    "indices": 172,
                    "material": 0,
                    "mode": 4
                },
                {
                    "attributes": {
                        "NORMAL": 93,
                        "POSITION": 13
                    },
                    "indices": 173,
                    "material": 0,
                    "mode": 4
                },
                {
                    "attributes": {
                        "NORMAL": 94,
                        "POSITION": 14
                    },
                    "indices": 174,
                    "material": 0,
                    "mode": 4
                },
                {
                    "attributes": {
                        "NORMAL": 95,
                        "POSITION": 15
                    },
                    "indices": 175,
                    "material": 0,
                    "mode": 4
                },
                {
                    "attributes": {
                        "NORMAL": 96,
                        "POSITION": 16
                    },
                    "indices": 176,
                    "material": 0,
                    "mode": 4
                },
                {
                    "attributes": {
                        "NORMAL": 97,
                        "POSITION": 17
                    },
                    "indices": 177,
                    "material": 0,
                    "mode": 4
                },
                {
                    "attributes": {
                        "NORMAL": 98,
                        "POSITION": 18
                    },
                    "indices": 178,
                    "material": 0,
                    "mode": 4
                },
                {
                    "attributes": {
                        "NORMAL": 99,
                        "POSITION": 19
                    },
                    "indices": 179,
                    "material": 0,
                    "mode": 4
                },
                {
                    "attributes": {
                        "NORMAL": 100,
                        "POSITION": 20
                    },
                    "indices": 180,
                    "material": 0,
                    "mode": 4
                },
                {
                    "attributes": {
                        "NORMAL": 101,
                        "POSITION": 21
                    },
                    "indices": 181,
                    "material": 0,
                    "mode": 4
                },
                {
                    "attributes": {
                        "NORMAL": 102,
                        "POSITION": 22
                    },
                    "indices": 182,
                    "material": 0,
                    "mode": 4
                },
                {
                    "attributes": {
                        "NORMAL": 103,
                        "POSITION": 23
                    },
                    "indices": 183,
                    "material": 0,
                    "mode": 4
                },
                {
                    "attributes": {
                        "NORMAL": 104,
                        "POSITION": 24
                    },
                    "indices": 184,
                    "material": 0,
                    "mode": 4
                },
                {
                    "attributes": {
                        "NORMAL": 105,
                        "POSITION": 25
                    },
                    "indices": 185,
                    "material": 0,
                    "mode": 4
                },
                {
                    "attributes": {
                        "NORMAL": 106,
                        "POSITION": 26
                    },
                    "indices": 186,
                    "material": 0,
                    "mode": 4
                },
                {
                    "attributes": {
                        "NORMAL": 107,
                        "POSITION": 27
                    },
                    "indices": 187,
                    "material": 0,
                    "mode": 4
                },
                {
                    "attributes": {
                        "NORMAL": 108,
                        "POSITION": 28
                    },
                    "indices": 188,
                    "material": 0,
                    "mode": 4
                },
                {
                    "attributes": {
                        "NORMAL": 109,
                        "POSITION": 29
                    },
                    "indices": 189,
                    "material": 0,
                    "mode": 4
                },
                {
                    "attributes": {
                        "NORMAL": 110,
                        "POSITION": 30
                    },
                    "indices": 190,
                    "material": 0,
                    "mode": 4
                },
                {
                    "attributes": {
                        "NORMAL": 111,
                        "POSITION": 31
                    },
                    "indices": 191,
                    "material": 0,
                    "mode": 4
                },
                {
                    "attributes": {
                        "NORMAL": 112,
                        "POSITION": 32
                    },
                    "indices": 192,
                    "material": 0,
                    "mode": 4
                },
                {
                    "attributes": {
                        "NORMAL": 113,
                        "POSITION": 33
                    },
                    "indices": 193,
                    "material": 0,
                    "mode": 4
                },
                {
                    "attributes": {
                        "NORMAL": 114,
                        "POSITION": 34
                    },
                    "indices": 194,
                    "material": 0,
                    "mode": 4
                },
                {
                    "attributes": {
                        "NORMAL": 115,
                        "POSITION": 35
                    },
                    "indices": 195,
                    "material": 0,
                    "mode": 4
                },
                {
                    "attributes": {
                        "NORMAL": 116,
                        "POSITION": 36
                    },
                    "indices": 196,
                    "material": 0,
                    "mode": 4
                },
                {
                    "attributes": {
                        "NORMAL": 117,
                        "POSITION": 37
                    },
                    "indices": 197,
                    "material": 0,
                    "mode": 4
                },
                {
                    "attributes": {
                        "NORMAL": 118,
                        "POSITION": 38
                    },
                    "indices": 198,
                    "material": 0,
                    "mode": 4
                },
                {
                    "attributes": {
                        "NORMAL": 119,
                        "POSITION": 39
                    },
                    "indices": 199,
                    "material": 0,
                    "mode": 4
                },
                {
                    "attributes": {
                        "NORMAL": 120,
                        "POSITION": 40
                    },
                    "indices": 200,
                    "material": 0,
                    "mode": 4
                },
                {
                    "attributes": {
                        "NORMAL": 121,
                        "POSITION": 41
                    },
                    "indices": 201,
                    "material": 0,
                    "mode": 4
                },
                {
                    "attributes": {
                        "NORMAL": 122,
                        "POSITION": 42
                    },
                    "indices": 202,
                    "material": 0,
                    "mode": 4
                },
                {
                    "attributes": {
                        "NORMAL": 123,
                        "POSITION": 43
                    },
                    "indices": 203,
                    "material": 0,
                    "mode": 4
                },
                {
                    "attributes": {
                        "NORMAL": 124,
                        "POSITION": 44
                    },
                    "indices": 204,
                    "material": 0,
                    "mode": 4
                },
                {
                    "attributes": {
                        "NORMAL": 125,
                        "POSITION": 45
                    },
                    "indices": 205,
                    "material": 0,
                    "mode": 4
                },
                {
                    "attributes": {
                        "NORMAL": 126,
                        "POSITION": 46
                    },
                    "indices": 206,
                    "material": 0,
                    "mode": 4
                },
                {
                    "attributes": {
                        "NORMAL": 127,
                        "POSITION": 47
                    },
                    "indices": 207,
                    "material": 0,
                    "mode": 4
                },
                {
                    "attributes": {
                        "NORMAL": 128,
                        "POSITION": 48
                    },
                    "indices": 208,
                    "material": 0,
                    "mode": 4
                },
                {
                    "attributes": {
                        "NORMAL": 129,
                        "POSITION": 49
                    },
                    "indices": 209,
                    "material": 0,
                    "mode": 4
                },
                {
                    "attributes": {
                        "NORMAL": 130,
                        "POSITION": 50
                    },
                    "indices": 210,
                    "material": 0,
                    "mode": 4
                },
                {
                    "attributes": {
                        "NORMAL": 131,
                        "POSITION": 51
                    },
                    "indices": 211,
                    "material": 0,
                    "mode": 4
                },
                {
                    "attributes": {
                        "NORMAL": 132,
                        "POSITION": 52
                    },
                    "indices": 212,
                    "material": 0,
                    "mode": 4
                },
                {
                    "attributes": {
                        "NORMAL": 133,
                        "POSITION": 53
                    },
                    "indices": 213,
                    "material": 0,
                    "mode": 4
                },
                {
                    "attributes": {
                        "NORMAL": 134,
                        "POSITION": 54
                    },
                    "indices": 214,
                    "material": 0,
                    "mode": 4
                },
                {
                    "attributes": {
                        "NORMAL": 135,
                        "POSITION": 55
                    },
                    "indices": 215,
                    "material": 0,
                    "mode": 4
                },
                {
                    "attributes": {
                        "NORMAL": 136,
                        "POSITION": 56
                    },
                    "indices": 216,
                    "material": 0,
                    "mode": 4
                },
                {
                    "attributes": {
                        "NORMAL": 137,
                        "POSITION": 57
                    },
                    "indices": 217,
                    "material": 0,
                    "mode": 4
                },
                {
                    "attributes": {
                        "NORMAL": 138,
                        "POSITION": 58
                    },
                    "indices": 218,
                    "material": 0,
                    "mode": 4
                },
                {
                    "attributes": {
                        "NORMAL": 139,
                        "POSITION": 59
                    },
                    "indices": 219,
                    "material": 0,
                    "mode": 4
                },
                {
                    "attributes": {
                        "NORMAL": 140,
                        "POSITION": 60
                    },
                    "indices": 220,
                    "material": 0,
                    "mode": 4
                },
                {
                    "attributes": {
                        "NORMAL": 141,
                        "POSITION": 61
                    },
                    "indices": 221,
                    "material": 0,
                    "mode": 4
                },
                {
                    "attributes": {
                        "NORMAL": 142,
                        "POSITION": 62
                    },
                    "indices": 222,
                    "material": 0,
                    "mode": 4
                },
                {
                    "attributes": {
                        "NORMAL": 143,
                        "POSITION": 63
                    },
                    "indices": 223,
                    "material": 0,
                    "mode": 4
                },
                {
                    "attributes": {
                        "NORMAL": 144,
                        "POSITION": 64
                    },
                    "indices": 224,
                    "material": 0,
                    "mode": 4
                },
                {
                    "attributes": {
                        "NORMAL": 145,
                        "POSITION": 65
                    },
                    "indices": 225,
                    "material": 0,
                    "mode": 4
                },
                {
                    "attributes": {
                        "NORMAL": 146,
                        "POSITION": 66
                    },
                    "indices": 226,
                    "material": 0,
                    "mode": 4
                },
                {
                    "attributes": {
                        "NORMAL": 147,
                        "POSITION": 67
                    },
                    "indices": 227,
                    "material": 0,
                    "mode": 4
                },
                {
                    "attributes": {
                        "NORMAL": 148,
                        "POSITION": 68
                    },
                    "indices": 228,
                    "material": 0,
                    "mode": 4
                },
                {
                    "attributes": {
                        "NORMAL": 149,
                        "POSITION": 69
                    },
                    "indices": 229,
                    "material": 0,
                    "mode": 4
                },
                {
                    "attributes": {
                        "NORMAL": 150,
                        "POSITION": 70
                    },
                    "indices": 230,
                    "material": 0,
                    "mode": 4
                },
                {
                    "attributes": {
                        "NORMAL": 151,
                        "POSITION": 71
                    },
                    "indices": 231,
                    "material": 0,
                    "mode": 4
                },
                {
                    "attributes": {
                        "NORMAL": 152,
                        "POSITION": 72
                    },
                    "indices": 232,
                    "material": 0,
                    "mode": 4
                },
                {
                    "attributes": {
                        "NORMAL": 153,
                        "POSITION": 73
                    },
                    "indices": 233,
                    "material": 0,
                    "mode": 4
                },
                {
                    "attributes": {
                        "NORMAL": 154,
                        "POSITION": 74
                    },
                    "indices": 234,
                    "material": 0,
                    "mode": 4
                },
                {
                    "attributes": {
                        "NORMAL": 155,
                        "POSITION": 75
                    },
                    "indices": 235,
                    "material": 0,
                    "mode": 4
                },
                {
                    "attributes": {
                        "NORMAL": 156,
                        "POSITION": 76
                    },
                    "indices": 236,
                    "material": 0,
                    "mode": 4
                },
                {
                    "attributes": {
                        "NORMAL": 157,
                        "POSITION": 77
                    },
                    "indices": 237,
                    "material": 0,
                    "mode": 4
                },
                {
                    "attributes": {
                        "NORMAL": 158,
                        "POSITION": 78
                    },
                    "indices": 238,
                    "material": 0,
                    "mode": 4
                },
                {
                    "attributes": {
                        "NORMAL": 159,
                        "POSITION": 79
                    },
                    "indices": 239,
                    "material": 0,
                    "mode": 4
                }
            ]
        }
    ],
    "nodes": [
        {
            "children": [
                1
            ],
            "name": "ExternalPlatePad"
        },
        {
            "translation": [
                0.041,
                0.03,
                -0.126
            ],
            "mesh": 0,
            "name": "FPlate"
        }
    ],
    "scene": 0,
    "scenes": [
        {
            "nodes": [
                0
            ]
        }
    ]
}
