{
    "accessors": [
        {
            "bufferView": 0,
            "byteOffset": 0,
            "componentType": 5126,
            "count": 228,
            "max": [
                0.032,
                -0.001,
                -0.07370115938352344
            ],
            "min": [
                0.00800463731006535,
                -0.005,
                -0.09769884061647658
            ],
            "type": "VEC3"
        },
        {
            "bufferView": 0,
            "byteOffset": 2736,
            "componentType": 5126,
            "count": 286,
            "max": [
                0.032,
                0.0,
                -0.07370115938352344
            ],
            "min": [
                0.00800463731006535,
                -0.001,
                -0.09769884061647658
            ],
            "type": "VEC3"
        },
        {
            "bufferView": 0,
            "byteOffset": 6168,
            "componentType": 5126,
            "count": 226,
            "max": [
                0.032,
                -0.005,
                -0.07370115938352344
            ],
            "min": [
                0.00800463731006535,
                -0.005,
                -0.09769884061647658
            ],
            "type": "VEC3"
        },
        {
            "bufferView": 0,
            "byteOffset": 8880,
            "componentType": 5126,
            "count": 229,
            "max": [
                0.031,
                0.0,
                -0.07470106276822981
            ],
            "min": [
                0.009004250867559905,
                0.0,
                -0.09669893723177019
            ],
            "type": "VEC3"
        },
        {
            "bufferView": 0,
            "byteOffset": 11628,
            "componentType": 5126,
            "count": 228,
            "max": [
                0.028,
                -0.002,
                -0.07770077292234896
            ],
            "min": [
                0.012003091540043568,
                -0.005,
                -0.09369922707765105
            ],
            "type": "VEC3"
        },
        {
            "bufferView": 0,
            "byteOffset": 14364,
            "componentType": 5126,
            "count": 116,
            "max": [
                0.02049999999999127,
                0.0,
                -0.07620018984648634
            ],
            "min": [
                0.01949999999999127,
                -0.0003,
                -0.07669999999999881
            ],
            "type": "VEC3"
        },
        {
            "bufferView": 0,
            "byteOffset": 15756,
            "componentType": 5126,
            "count": 4,
            "max": [
                0.02049999999999127,
                0.0,
                -0.07669999999999881
            ],
            "min": [
                0.02049999999999127,
                -0.0003,
                -0.07969999999999882
            ],
            "type": "VEC3"
        },
        {
            "bufferView": 0,
            "byteOffset": 15804,
            "componentType": 5126,
            "count": 116,
            "max": [
                0.02049999999999127,
                0.0,
                -0.07969999999999882
            ],
            "min": [
                0.01949999999999127,
                -0.0003,
                -0.08019981015351129
            ],
            "type": "VEC3"
        },
        {
            "bufferView": 0,
            "byteOffset": 17196,
            "componentType": 5126,
            "count": 4,
            "max": [
                0.01949999999999127,
                0.0,
                -0.07669999999999881
            ],
            "min": [
                0.01949999999999127,
                -0.0003,
                -0.07969999999999882
            ],
            "type": "VEC3"
        },
        {
            "bufferView": 0,
            "byteOffset": 17244,
            "componentType": 5126,
            "count": 182,
            "max": [
                0.028,
                -0.0019999999999999989,
                -0.07770077292234896
            ],
            "min": [
                0.012003091540043568,
                -0.002,
                -0.09369922707765105
            ],
            "type": "VEC3"
        },
        {
            "bufferView": 0,
            "byteOffset": 19428,
            "componentType": 5126,
            "count": 116,
            "max": [
                0.02049999999999127,
                -0.0003,
                -0.07620018984648634
            ],
            "min": [
                0.01949999999999127,
                -0.0003,
                -0.08019981015351129
            ],
            "type": "VEC3"
        },
        {
            "bufferView": 0,
            "byteOffset": 20820,
            "componentType": 5126,
            "count": 4,
            "max": [
                0.021422485596283994,
                -0.0019999999999999989,
                -0.0852240433545326
            ],
            "min": [
                0.018577514403716013,
                -0.004799999999999999,
                -0.0852240433545326
            ],
            "type": "VEC3"
        },
        {
            "bufferView": 0,
            "byteOffset": 20868,
            "componentType": 5126,
            "count": 138,
            "max": [
                0.021499904343604695,
                -0.0019999999999999989,
                -0.0852240433545326
            ],
            "min": [
                0.018500095656395309,
                -0.004799999999999999,
                -0.0872
            ],
            "type": "VEC3"
        },
        {
            "bufferView": 0,
            "byteOffset": 22524,
            "componentType": 5126,
            "count": 69,
            "max": [
                0.021499904343604695,
                -0.004799999999999999,
                -0.0852240433545326
            ],
            "min": [
                0.018500095656395309,
                -0.004799999999999999,
                -0.0872
            ],
            "type": "VEC3"
        },
        {
            "bufferView": 1,
            "byteOffset": 0,
            "componentType": 5126,
            "count": 228,
            "type": "VEC3"
        },
        {
            "bufferView": 1,
            "byteOffset": 2736,
            "componentType": 5126,
            "count": 286,
            "type": "VEC3"
        },
        {
            "bufferView": 1,
            "byteOffset": 6168,
            "componentType": 5126,
            "count": 226,
            "type": "VEC3"
        },
        {
            "bufferView": 1,
            "byteOffset": 8880,
            "componentType": 5126,
            "count": 229,
            "type": "VEC3"
        },
        {
            "bufferView": 1,
            "byteOffset": 11628,
            "componentType": 5126,
            "count": 228,
            "type": "VEC3"
        },
        {
            "bufferView": 1,
            "byteOffset": 14364,
            "componentType": 5126,
            "count": 116,
            "type": "VEC3"
        },
        {
            "bufferView": 1,
            "byteOffset": 15756,
            "componentType": 5126,
            "count": 4,
            "type": "VEC3"
        },
        {
            "bufferView": 1,
            "byteOffset": 15804,
            "componentType": 5126,
            "count": 116,
            "type": "VEC3"
        },
        {
            "bufferView": 1,
            "byteOffset": 17196,
            "componentType": 5126,
            "count": 4,
            "type": "VEC3"
        },
        {
            "bufferView": 1,
            "byteOffset": 17244,
            "componentType": 5126,
            "count": 182,
            "type": "VEC3"
        },
        {
            "bufferView": 1,
            "byteOffset": 19428,
            "componentType": 5126,
            "count": 116,
            "type": "VEC3"
        },
        {
            "bufferView": 1,
            "byteOffset": 20820,
            "componentType": 5126,
            "count": 4,
            "type": "VEC3"
        },
        {
            "bufferView": 1,
            "byteOffset": 20868,
            "componentType": 5126,
            "count": 138,
            "type": "VEC3"
        },
        {
            "bufferView": 1,
            "byteOffset": 22524,
            "componentType": 5126,
            "count": 69,
            "type": "VEC3"
        },
        {
            "bufferView": 2,
            "byteOffset": 0,
            "componentType": 5123,
            "count": 678,
            "type": "SCALAR"
        },
        {
            "bufferView": 2,
            "byteOffset": 1356,
            "componentType": 5123,
            "count": 1020,
            "type": "SCALAR"
        },
        {
            "bufferView": 2,
            "byteOffset": 3396,
            "componentType": 5123,
            "count": 678,
            "type": "SCALAR"
        },
        {
            "bufferView": 2,
            "byteOffset": 4752,
            "componentType": 5123,
            "count": 687,
            "type": "SCALAR"
        },
        {
            "bufferView": 2,
            "byteOffset": 6128,
            "componentType": 5123,
            "count": 678,
            "type": "SCALAR"
        },
        {
            "bufferView": 2,
            "byteOffset": 7484,
            "componentType": 5123,
            "count": 342,
            "type": "SCALAR"
        },
        {
            "bufferView": 2,
            "byteOffset": 8168,
            "componentType": 5123,
            "count": 6,
            "type": "SCALAR"
        },
        {
            "bufferView": 2,
            "byteOffset": 8180,
            "componentType": 5123,
            "count": 342,
            "type": "SCALAR"
        },
        {
            "bufferView": 2,
            "byteOffset": 8864,
            "componentType": 5123,
            "count": 6,
            "type": "SCALAR"
        },
        {
            "bufferView": 2,
            "byteOffset": 8876,
            "componentType": 5123,
            "count": 546,
            "type": "SCALAR"
        },
        {
            "bufferView": 2,
            "byteOffset": 9968,
            "componentType": 5123,
            "count": 342,
            "type": "SCALAR"
        },
        {
            "bufferView": 2,
            "byteOffset": 10652,
            "componentType": 5123,
            "count": 6,
            "type": "SCALAR"
        },
        {
            "bufferView": 2,
            "byteOffset": 10664,
            "componentType": 5123,
            "count": 408,
            "type": "SCALAR"
        },
        {
            "bufferView": 2,
            "byteOffset": 11480,
            "componentType": 5123,
            "count": 201,
            "type": "SCALAR"
        }
    ],
    "asset": {
        "generator": "Open CASCADE Technology 7.9 [dev.opencascade.org]",
        "version": "2.0"
    },
    "bufferViews": [
        {
            "buffer": 0,
            "byteLength": 23352,
            "byteOffset": 0,
            "byteStride": 12,
            "target": 34962
        },
        {
            "buffer": 0,
            "byteLength": 23352,
            "byteOffset": 23352,
            "byteStride": 12,
            "target": 34962
        },
        {
            "buffer": 0,
            "byteLength": 11884,
            "byteOffset": 46704,
            "target": 34963
        }
    ],
    "buffers": [
        {
            "byteLength": 58588,
            "uri": "Keyboard-WheelPad.bin"
        }
    ],
    "materials": [
        {
            "name": "mat_0",
            "pbrMetallicRoughness": {
                "baseColorFactor": [
                    0.6038273572921753,
                    0.6038273572921753,
                    0.791297972202301,
                    1.0
                ]
            },
            "doubleSided": true
        }
    ],
    "meshes": [
        {
            "name": "Wheel",
            "primitives": [
                {
                    "attributes": {
                        "NORMAL": 14,
                        "POSITION": 0
                    },
                    "indices": 28,
                    "material": 0,
                    "mode": 4
                },
                {
                    "attributes": {
                        "NORMAL": 15,
                        "POSITION": 1
                    },
                    "indices": 29,
                    "material": 0,
                    "mode": 4
                },
                {
                    "attributes": {
                        "NORMAL": 16,
                        "POSITION": 2
                    },
                    "indices": 30,
                    "material": 0,
                    "mode": 4
                },
                {
                    "attributes": {
                        "NORMAL": 17,
                        "POSITION": 3
                    },
                    "indices": 31,
                    "material": 0,
                    "mode": 4
                },
                {
                    "attributes": {
                        "NORMAL": 18,
                        "POSITION": 4
                    },
                    "indices": 32,
                    "material": 0,
                    "mode": 4
                },
                {
                    "attributes": {
                        "NORMAL": 19,
                        "POSITION": 5
                    },
                    "indices": 33,
                    "material": 0,
                    "mode": 4
                },
                {
                    "attributes": {
                        "NORMAL": 20,
                        "POSITION": 6
                    },
                    "indices": 34,
                    "material": 0,
                    "mode": 4
                },
                {
                    "attributes": {
                        "NORMAL": 21,
                        "POSITION": 7
                    },
                    "indices": 35,
                    "material": 0,
                    "mode": 4
                },
                {
                    "attributes": {
                        "NORMAL": 22,
                        "POSITION": 8
                    },
                    "indices": 36,
                    "material": 0,
                    "mode": 4
                },
                {
                    "attributes": {
                        "NORMAL": 23,
                        "POSITION": 9
                    },
                    "indices": 37,
                    "material": 0,
                    "mode": 4
                },
                {
                    "attributes": {
                        "NORMAL": 24,
                        "POSITION": 10
                    },
                    "indices": 38,
                    "material": 0,
                    "mode": 4
                },
                {
                    "attributes": {
                        "NORMAL": 25,
                        "POSITION": 11
                    },
                    "indices": 39,
                    "material": 0,
                    "mode": 4
                },
                {
                    "attributes": {
                        "NORMAL": 26,
                        "POSITION": 12
                    },
                    "indices": 40,
                    "material": 0,
                    "mode": 4
                },
                {
                    "attributes": {
                        "NORMAL": 27,
                        "POSITION": 13
                    },
                    "indices": 41,
                    "material": 0,
                    "mode": 4
                }
            ]
        }
    ],
    "nodes": [
        {
            "children": [
                1
            ],
            "name": "WheelPad"
        },
        {
            "mesh": 0,
            "name": "Wheel"
        }
    ],
    "scene": 0,
    "scenes": [
        {
            "nodes": [
                0
            ]
        }
    ]
}
