{"accessors":[{"bufferView":0,"byteOffset":0,"componentType":5126,"count":360,"max":[-0.0035000000000000475,0.008799999999999907,-0.08315000000000009],"min":[-0.0035000000000001165,0.006199999999999899,-0.0873500000000001],"type":"VEC3"},{"bufferView":0,"byteOffset":4320,"componentType":5126,"count":4,"max":[-0.003200000000000028,0.006199999999999916,-0.08355000000000006],"min":[-0.00350000000000003,0.005899999999999915,-0.08695000000000004],"type":"VEC3"},{"bufferView":0,"byteOffset":4368,"componentType":5126,"count":102,"max":[-0.003200000000000028,0.0065999999999999179,-0.08695000000000004],"min":[-0.0035000000000000289,0.005899999999999915,-0.08765000000000005],"type":"VEC3"},{"bufferView":0,"byteOffset":5592,"componentType":5126,"count":102,"max":[-0.003200000000000028,0.006599999999999918,-0.08285000000000005],"min":[-0.00350000000000003,0.005899999999999917,-0.08355000000000006],"type":"VEC3"},{"bufferView":0,"byteOffset":6816,"componentType":5126,"count":4,"max":[-0.003200000000000029,0.00839999999999991,-0.08735000000000004],"min":[-0.00350000000000003,0.0065999999999999179,-0.08765000000000005],"type":"VEC3"},{"bufferView":0,"byteOffset":6864,"componentType":5126,"count":4,"max":[-0.0032000000000000289,0.008399999999999925,-0.08285000000000005],"min":[-0.0035000000000000306,0.0065999999999999179,-0.08315000000000005],"type":"VEC3"},{"bufferView":0,"byteOffset":6912,"componentType":5126,"count":102,"max":[-0.0032000000000000307,0.009099999999999919,-0.08695000000000004],"min":[-0.003500000000000031,0.008399999999999904,-0.08765000000000004],"type":"VEC3"},{"bufferView":0,"byteOffset":8136,"componentType":5126,"count":102,"max":[-0.0032000000000000298,0.009099999999999924,-0.08285000000000005],"min":[-0.003500000000000031,0.008399999999999924,-0.08355000000000004],"type":"VEC3"},{"bufferView":0,"byteOffset":9360,"componentType":5126,"count":4,"max":[-0.003200000000000031,0.009099999999999924,-0.08355000000000004],"min":[-0.0035000000000000306,0.008799999999999919,-0.08695000000000004],"type":"VEC3"},{"bufferView":0,"byteOffset":9408,"componentType":5126,"count":60,"max":[-0.0035000000000000688,0.006899999999999952,-0.08575000000000008],"min":[-0.0038000000000000917,0.0066999999999999529,-0.08595000000000008],"type":"VEC3"},{"bufferView":0,"byteOffset":10128,"componentType":5126,"count":4,"max":[-0.003500000000000068,0.0066999999999999529,-0.08595000000000008],"min":[-0.0038000000000000695,0.0066999999999999529,-0.08635000000000007],"type":"VEC3"},{"bufferView":0,"byteOffset":10176,"componentType":5126,"count":60,"max":[-0.003500000000000068,0.006899999999999952,-0.08635000000000007],"min":[-0.003800000000000091,0.0066999999999999529,-0.08655000000000007],"type":"VEC3"},{"bufferView":0,"byteOffset":10896,"componentType":5126,"count":4,"max":[-0.003500000000000068,0.008099999999999955,-0.08655000000000007],"min":[-0.00380000000000007,0.006899999999999952,-0.08655000000000007],"type":"VEC3"},{"bufferView":0,"byteOffset":10944,"componentType":5126,"count":60,"max":[-0.003500000000000069,0.008299999999999954,-0.08635000000000007],"min":[-0.0038000000000000925,0.008099999999999955,-0.08655000000000007],"type":"VEC3"},{"bufferView":0,"byteOffset":11664,"componentType":5126,"count":4,"max":[-0.003500000000000069,0.008299999999999955,-0.08595000000000008],"min":[-0.00380000000000007,0.008299999999999954,-0.08635000000000007],"type":"VEC3"},{"bufferView":0,"byteOffset":11712,"componentType":5126,"count":60,"max":[-0.0035000000000000696,0.008299999999999955,-0.08575000000000008],"min":[-0.003800000000000093,0.008099999999999955,-0.08595000000000008],"type":"VEC3"},{"bufferView":0,"byteOffset":12432,"componentType":5126,"count":4,"max":[-0.0035000000000000688,0.008099999999999957,-0.08575000000000008],"min":[-0.00380000000000007,0.006899999999999952,-0.08575000000000008],"type":"VEC3"},{"bufferView":0,"byteOffset":12480,"componentType":5126,"count":60,"max":[-0.0035000000000000679,0.006899999999999954,-0.08395000000000008],"min":[-0.00380000000000009,0.006699999999999953,-0.08415000000000007],"type":"VEC3"},{"bufferView":0,"byteOffset":13200,"componentType":5126,"count":4,"max":[-0.003500000000000068,0.006699999999999953,-0.08415000000000007],"min":[-0.003800000000000068,0.006699999999999953,-0.08455000000000007],"type":"VEC3"},{"bufferView":0,"byteOffset":13248,"componentType":5126,"count":60,"max":[-0.003500000000000068,0.006899999999999953,-0.08455000000000007],"min":[-0.0038000000000000908,0.006699999999999953,-0.08475000000000008],"type":"VEC3"},{"bufferView":0,"byteOffset":13968,"componentType":5126,"count":4,"max":[-0.003500000000000068,0.008099999999999957,-0.08475000000000008],"min":[-0.00380000000000007,0.006899999999999953,-0.08475000000000008],"type":"VEC3"},{"bufferView":0,"byteOffset":14016,"componentType":5126,"count":60,"max":[-0.003500000000000069,0.008299999999999954,-0.08455000000000007],"min":[-0.003800000000000092,0.008099999999999955,-0.08475000000000008],"type":"VEC3"},{"bufferView":0,"byteOffset":14736,"componentType":5126,"count":4,"max":[-0.003500000000000069,0.008299999999999954,-0.08415000000000007],"min":[-0.00380000000000007,0.008299999999999954,-0.08455000000000007],"type":"VEC3"},{"bufferView":0,"byteOffset":14784,"componentType":5126,"count":60,"max":[-0.003500000000000069,0.008299999999999954,-0.08395000000000008],"min":[-0.0038000000000000917,0.008099999999999955,-0.08415000000000007],"type":"VEC3"},{"bufferView":0,"byteOffset":15504,"componentType":5126,"count":4,"max":[-0.0035000000000000679,0.008099999999999955,-0.08395000000000008],"min":[-0.0038000000000000695,0.006899999999999954,-0.08395000000000008],"type":"VEC3"},{"bufferView":0,"byteOffset":15552,"componentType":5126,"count":4,"max":[-0.0010000000000000675,0.005899999999999889,-0.08355000000000014],"min":[-0.003200000000000072,0.005899999999999884,-0.08695000000000014],"type":"VEC3"},{"bufferView":0,"byteOffset":15600,"componentType":5126,"count":60,"max":[-0.001000000000000069,0.006599999999999885,-0.08695000000000014],"min":[-0.003200000000000074,0.005899999999999884,-0.08765000000000013],"type":"VEC3"},{"bufferView":0,"byteOffset":16320,"componentType":5126,"count":60,"max":[-0.0010000000000000675,0.0065999999999998919,-0.08285000000000013],"min":[-0.003200000000000072,0.005899999999999886,-0.08355000000000014],"type":"VEC3"},{"bufferView":0,"byteOffset":17040,"componentType":5126,"count":4,"max":[-0.0010000000000000703,0.00839999999999989,-0.08765000000000012],"min":[-0.0032000000000000758,0.006599999999999884,-0.08765000000000013],"type":"VEC3"},{"bufferView":0,"byteOffset":17088,"componentType":5126,"count":4,"max":[-0.0010000000000000682,0.008399999999999897,-0.08285000000000013],"min":[-0.0032000000000000727,0.006599999999999887,-0.08285000000000013],"type":"VEC3"},{"bufferView":0,"byteOffset":17136,"componentType":5126,"count":60,"max":[-0.0010000000000000727,0.009099999999999888,-0.08695000000000014],"min":[-0.003200000000000077,0.008399999999999875,-0.08765000000000013],"type":"VEC3"},{"bufferView":0,"byteOffset":17856,"componentType":5126,"count":60,"max":[-0.0010000000000000708,0.009099999999999897,-0.08285000000000013],"min":[-0.0032000000000000749,0.008399999999999896,-0.08355000000000014],"type":"VEC3"},{"bufferView":0,"byteOffset":18576,"componentType":5126,"count":4,"max":[-0.001000000000000072,0.009099999999999897,-0.08355000000000013],"min":[-0.003200000000000076,0.009099999999999888,-0.08695000000000014],"type":"VEC3"},{"bufferView":0,"byteOffset":18624,"componentType":5126,"count":498,"max":[-0.003800000000000069,0.006899999999999952,-0.08575000000000008],"min":[-0.004000000000000069,0.0066999999999999529,-0.08595000000000013],"type":"VEC3"},{"bufferView":0,"byteOffset":24600,"componentType":5126,"count":60,"max":[-0.003800000000000069,0.006899999999999952,-0.08595000000000008],"min":[-0.004000000000000069,0.0066999999999999529,-0.08635000000000011],"type":"VEC3"},{"bufferView":0,"byteOffset":25320,"componentType":5126,"count":498,"max":[-0.003800000000000069,0.006899999999999952,-0.08635000000000007],"min":[-0.004000000000000069,0.0066999999999999529,-0.08655000000000007],"type":"VEC3"},{"bufferView":0,"byteOffset":31296,"componentType":5126,"count":60,"max":[-0.003800000000000069,0.008099999999999955,-0.08635000000000007],"min":[-0.0040000000000000699,0.0068999999999999378,-0.08655000000000007],"type":"VEC3"},{"bufferView":0,"byteOffset":32016,"componentType":5126,"count":498,"max":[-0.0038000000000000695,0.008299999999999954,-0.08635000000000007],"min":[-0.0040000000000000699,0.008099999999999939,-0.08655000000000007],"type":"VEC3"},{"bufferView":0,"byteOffset":37992,"componentType":5126,"count":60,"max":[-0.0038000000000000695,0.008299999999999955,-0.08595000000000008],"min":[-0.0040000000000000699,0.008099999999999951,-0.08635000000000011],"type":"VEC3"},{"bufferView":0,"byteOffset":38712,"componentType":5126,"count":498,"max":[-0.00380000000000007,0.008299999999999955,-0.08575000000000008],"min":[-0.0040000000000000699,0.008099999999999939,-0.08595000000000013],"type":"VEC3"},{"bufferView":0,"byteOffset":44688,"componentType":5126,"count":60,"max":[-0.003800000000000069,0.008099999999999957,-0.08575000000000008],"min":[-0.0040000000000000699,0.0068999999999999378,-0.08595000000000008],"type":"VEC3"},{"bufferView":0,"byteOffset":45408,"componentType":5126,"count":498,"max":[-0.003800000000000068,0.006899999999999954,-0.08395000000000008],"min":[-0.004000000000000068,0.006699999999999953,-0.08415000000000013],"type":"VEC3"},{"bufferView":0,"byteOffset":51384,"componentType":5126,"count":60,"max":[-0.003800000000000068,0.006899999999999953,-0.08415000000000007],"min":[-0.004000000000000069,0.006699999999999953,-0.08455000000000011],"type":"VEC3"},{"bufferView":0,"byteOffset":52104,"componentType":5126,"count":498,"max":[-0.003800000000000068,0.006899999999999953,-0.08455000000000007],"min":[-0.004000000000000069,0.006699999999999953,-0.08475000000000008],"type":"VEC3"},{"bufferView":0,"byteOffset":58080,"componentType":5126,"count":60,"max":[-0.003800000000000068,0.008099999999999957,-0.08455000000000007],"min":[-0.0040000000000000699,0.0068999999999999378,-0.08475000000000008],"type":"VEC3"},{"bufferView":0,"byteOffset":58800,"componentType":5126,"count":498,"max":[-0.00380000000000007,0.008299999999999954,-0.08455000000000007],"min":[-0.0040000000000000699,0.008099999999999937,-0.08475000000000008],"type":"VEC3"},{"bufferView":0,"byteOffset":64776,"componentType":5126,"count":60,"max":[-0.0038000000000000695,0.008299999999999954,-0.08415000000000007],"min":[-0.0040000000000000699,0.008099999999999951,-0.08455000000000011],"type":"VEC3"},{"bufferView":0,"byteOffset":65496,"componentType":5126,"count":498,"max":[-0.0038000000000000695,0.008299999999999954,-0.08395000000000008],"min":[-0.0040000000000000699,0.008099999999999937,-0.08415000000000013],"type":"VEC3"},{"bufferView":0,"byteOffset":71472,"componentType":5126,"count":60,"max":[-0.003800000000000068,0.008099999999999955,-0.08395000000000008],"min":[-0.0040000000000000699,0.0068999999999999378,-0.08415000000000007],"type":"VEC3"},{"bufferView":0,"byteOffset":72192,"componentType":5126,"count":240,"max":[-0.001000000000000047,0.009500000000001428,-0.08025000000000032],"min":[-0.001000000000000149,0.005500000000003859,-0.09024999999999972],"type":"VEC3"},{"bufferView":0,"byteOffset":75072,"componentType":5126,"count":4,"max":[-0.004000000000000091,0.008099999999999939,-0.08595000000000014],"min":[-0.004000000000000092,0.0068999999999999369,-0.08635000000000012],"type":"VEC3"},{"bufferView":0,"byteOffset":75120,"componentType":5126,"count":4,"max":[-0.00400000000000009,0.00809999999999994,-0.08415000000000014],"min":[-0.004000000000000091,0.006899999999999938,-0.08455000000000013],"type":"VEC3"},{"bufferView":0,"byteOffset":75168,"componentType":5126,"count":4,"max":[-6.621925230377263e-17,0.00880000000000141,-0.08025000000000034],"min":[-0.001000000000000073,0.0062000000000078749,-0.0802500000000005],"type":"VEC3"},{"bufferView":0,"byteOffset":75216,"componentType":5126,"count":60,"max":[-7.105982469113407e-17,0.009500000000001414,-0.08025000000000034],"min":[-0.0010000000000001579,0.00880000000000141,-0.0809500000000005],"type":"VEC3"},{"bufferView":0,"byteOffset":75936,"componentType":5126,"count":60,"max":[-6.507572258840596e-17,0.0062000000000078749,-0.0802500000000005],"min":[-0.0010000000000001473,0.005500000000003858,-0.0809500000000008],"type":"VEC3"},{"bufferView":0,"byteOffset":76656,"componentType":5126,"count":4,"max":[-7.306932836570556e-17,0.009500000000001414,-0.0809500000000005],"min":[-0.001000000000000081,0.009500000000001398,-0.08954999999999987],"type":"VEC3"},{"bufferView":0,"byteOffset":76704,"componentType":5126,"count":4,"max":[-6.507572258840596e-17,0.005500000000003858,-0.0809500000000008],"min":[-0.0010000000000000729,0.0055000000000038399,-0.08954999999999959],"type":"VEC3"},{"bufferView":0,"byteOffset":76752,"componentType":5126,"count":60,"max":[-7.749911823396016e-17,0.009500000000001398,-0.08954999999999987],"min":[-0.0010000000000001718,0.00880000000000139,-0.09024999999999974],"type":"VEC3"},{"bufferView":0,"byteOffset":77472,"componentType":5126,"count":60,"max":[-7.10931313818747e-17,0.006200000000007855,-0.08954999999999959],"min":[-0.001000000000000163,0.0055000000000038399,-0.0902499999999996],"type":"VEC3"},{"bufferView":0,"byteOffset":78192,"componentType":5126,"count":4,"max":[-7.265854584659884e-17,0.00880000000000139,-0.0902499999999996],"min":[-0.0010000000000000799,0.006200000000007855,-0.09024999999999974],"type":"VEC3"},{"bufferView":0,"byteOffset":78240,"componentType":5126,"count":124,"max":[-7.549516567451065e-18,0.009500000000001454,-0.08025000000000023],"min":[-1.0080825063596422e-16,0.005500000000003893,-0.09024999999999964],"type":"VEC3"},{"bufferView":0,"byteOffset":79728,"componentType":5126,"count":4,"max":[-6.394884621840903e-17,0.008499999999999973,-0.08450000000000002],"min":[-0.0020000000000000644,0.006499999999999974,-0.08450000000000002],"type":"VEC3"},{"bufferView":0,"byteOffset":79776,"componentType":5126,"count":4,"max":[-6.394884621840903e-17,0.006499999999999974,-0.08450000000000002],"min":[-0.002000000000000064,0.006499999999999973,-0.08600000000000002],"type":"VEC3"},{"bufferView":0,"byteOffset":79824,"componentType":5126,"count":4,"max":[-6.394884621840903e-17,0.008499999999999973,-0.08600000000000002],"min":[-0.0020000000000000644,0.006499999999999973,-0.08600000000000002],"type":"VEC3"},{"bufferView":0,"byteOffset":79872,"componentType":5126,"count":4,"max":[-6.483702463810914e-17,0.008499999999999973,-0.08450000000000002],"min":[-0.0020000000000000644,0.008499999999999973,-0.08600000000000002],"type":"VEC3"},{"bufferView":0,"byteOffset":79920,"componentType":5126,"count":4,"max":[-0.0020000000000000856,0.008499999999999958,-0.08450000000000005],"min":[-0.0020000000000000869,0.006499999999999957,-0.08600000000000005],"type":"VEC3"},{"bufferView":1,"byteOffset":0,"componentType":5126,"count":360,"type":"VEC3"},{"bufferView":1,"byteOffset":4320,"componentType":5126,"count":4,"type":"VEC3"},{"bufferView":1,"byteOffset":4368,"componentType":5126,"count":102,"type":"VEC3"},{"bufferView":1,"byteOffset":5592,"componentType":5126,"count":102,"type":"VEC3"},{"bufferView":1,"byteOffset":6816,"componentType":5126,"count":4,"type":"VEC3"},{"bufferView":1,"byteOffset":6864,"componentType":5126,"count":4,"type":"VEC3"},{"bufferView":1,"byteOffset":6912,"componentType":5126,"count":102,"type":"VEC3"},{"bufferView":1,"byteOffset":8136,"componentType":5126,"count":102,"type":"VEC3"},{"bufferView":1,"byteOffset":9360,"componentType":5126,"count":4,"type":"VEC3"},{"bufferView":1,"byteOffset":9408,"componentType":5126,"count":60,"type":"VEC3"},{"bufferView":1,"byteOffset":10128,"componentType":5126,"count":4,"type":"VEC3"},{"bufferView":1,"byteOffset":10176,"componentType":5126,"count":60,"type":"VEC3"},{"bufferView":1,"byteOffset":10896,"componentType":5126,"count":4,"type":"VEC3"},{"bufferView":1,"byteOffset":10944,"componentType":5126,"count":60,"type":"VEC3"},{"bufferView":1,"byteOffset":11664,"componentType":5126,"count":4,"type":"VEC3"},{"bufferView":1,"byteOffset":11712,"componentType":5126,"count":60,"type":"VEC3"},{"bufferView":1,"byteOffset":12432,"componentType":5126,"count":4,"type":"VEC3"},{"bufferView":1,"byteOffset":12480,"componentType":5126,"count":60,"type":"VEC3"},{"bufferView":1,"byteOffset":13200,"componentType":5126,"count":4,"type":"VEC3"},{"bufferView":1,"byteOffset":13248,"componentType":5126,"count":60,"type":"VEC3"},{"bufferView":1,"byteOffset":13968,"componentType":5126,"count":4,"type":"VEC3"},{"bufferView":1,"byteOffset":14016,"componentType":5126,"count":60,"type":"VEC3"},{"bufferView":1,"byteOffset":14736,"componentType":5126,"count":4,"type":"VEC3"},{"bufferView":1,"byteOffset":14784,"componentType":5126,"count":60,"type":"VEC3"},{"bufferView":1,"byteOffset":15504,"componentType":5126,"count":4,"type":"VEC3"},{"bufferView":1,"byteOffset":15552,"componentType":5126,"count":4,"type":"VEC3"},{"bufferView":1,"byteOffset":15600,"componentType":5126,"count":60,"type":"VEC3"},{"bufferView":1,"byteOffset":16320,"componentType":5126,"count":60,"type":"VEC3"},{"bufferView":1,"byteOffset":17040,"componentType":5126,"count":4,"type":"VEC3"},{"bufferView":1,"byteOffset":17088,"componentType":5126,"count":4,"type":"VEC3"},{"bufferView":1,"byteOffset":17136,"componentType":5126,"count":60,"type":"VEC3"},{"bufferView":1,"byteOffset":17856,"componentType":5126,"count":60,"type":"VEC3"},{"bufferView":1,"byteOffset":18576,"componentType":5126,"count":4,"type":"VEC3"},{"bufferView":1,"byteOffset":18624,"componentType":5126,"count":498,"type":"VEC3"},{"bufferView":1,"byteOffset":24600,"componentType":5126,"count":60,"type":"VEC3"},{"bufferView":1,"byteOffset":25320,"componentType":5126,"count":498,"type":"VEC3"},{"bufferView":1,"byteOffset":31296,"componentType":5126,"count":60,"type":"VEC3"},{"bufferView":1,"byteOffset":32016,"componentType":5126,"count":498,"type":"VEC3"},{"bufferView":1,"byteOffset":37992,"componentType":5126,"count":60,"type":"VEC3"},{"bufferView":1,"byteOffset":38712,"componentType":5126,"count":498,"type":"VEC3"},{"bufferView":1,"byteOffset":44688,"componentType":5126,"count":60,"type":"VEC3"},{"bufferView":1,"byteOffset":45408,"componentType":5126,"count":498,"type":"VEC3"},{"bufferView":1,"byteOffset":51384,"componentType":5126,"count":60,"type":"VEC3"},{"bufferView":1,"byteOffset":52104,"componentType":5126,"count":498,"type":"VEC3"},{"bufferView":1,"byteOffset":58080,"componentType":5126,"count":60,"type":"VEC3"},{"bufferView":1,"byteOffset":58800,"componentType":5126,"count":498,"type":"VEC3"},{"bufferView":1,"byteOffset":64776,"componentType":5126,"count":60,"type":"VEC3"},{"bufferView":1,"byteOffset":65496,"componentType":5126,"count":498,"type":"VEC3"},{"bufferView":1,"byteOffset":71472,"componentType":5126,"count":60,"type":"VEC3"},{"bufferView":1,"byteOffset":72192,"componentType":5126,"count":240,"type":"VEC3"},{"bufferView":1,"byteOffset":75072,"componentType":5126,"count":4,"type":"VEC3"},{"bufferView":1,"byteOffset":75120,"componentType":5126,"count":4,"type":"VEC3"},{"bufferView":1,"byteOffset":75168,"componentType":5126,"count":4,"type":"VEC3"},{"bufferView":1,"byteOffset":75216,"componentType":5126,"count":60,"type":"VEC3"},{"bufferView":1,"byteOffset":75936,"componentType":5126,"count":60,"type":"VEC3"},{"bufferView":1,"byteOffset":76656,"componentType":5126,"count":4,"type":"VEC3"},{"bufferView":1,"byteOffset":76704,"componentType":5126,"count":4,"type":"VEC3"},{"bufferView":1,"byteOffset":76752,"componentType":5126,"count":60,"type":"VEC3"},{"bufferView":1,"byteOffset":77472,"componentType":5126,"count":60,"type":"VEC3"},{"bufferView":1,"byteOffset":78192,"componentType":5126,"count":4,"type":"VEC3"},{"bufferView":1,"byteOffset":78240,"componentType":5126,"count":124,"type":"VEC3"},{"bufferView":1,"byteOffset":79728,"componentType":5126,"count":4,"type":"VEC3"},{"bufferView":1,"byteOffset":79776,"componentType":5126,"count":4,"type":"VEC3"},{"bufferView":1,"byteOffset":79824,"componentType":5126,"count":4,"type":"VEC3"},{"bufferView":1,"byteOffset":79872,"componentType":5126,"count":4,"type":"VEC3"},{"bufferView":1,"byteOffset":79920,"componentType":5126,"count":4,"type":"VEC3"},{"bufferView":2,"byteOffset":0,"componentType":5123,"count":1086,"type":"SCALAR"},{"bufferView":2,"byteOffset":2172,"componentType":5123,"count":6,"type":"SCALAR"},{"bufferView":2,"byteOffset":2184,"componentType":5123,"count":426,"type":"SCALAR"},{"bufferView":2,"byteOffset":3036,"componentType":5123,"count":426,"type":"SCALAR"},{"bufferView":2,"byteOffset":3888,"componentType":5123,"count":6,"type":"SCALAR"},{"bufferView":2,"byteOffset":3900,"componentType":5123,"count":6,"type":"SCALAR"},{"bufferView":2,"byteOffset":3912,"componentType":5123,"count":426,"type":"SCALAR"},{"bufferView":2,"byteOffset":4764,"componentType":5123,"count":426,"type":"SCALAR"},{"bufferView":2,"byteOffset":5616,"componentType":5123,"count":6,"type":"SCALAR"},{"bufferView":2,"byteOffset":5628,"componentType":5123,"count":174,"type":"SCALAR"},{"bufferView":2,"byteOffset":5976,"componentType":5123,"count":6,"type":"SCALAR"},{"bufferView":2,"byteOffset":5988,"componentType":5123,"count":174,"type":"SCALAR"},{"bufferView":2,"byteOffset":6336,"componentType":5123,"count":6,"type":"SCALAR"},{"bufferView":2,"byteOffset":6348,"componentType":5123,"count":174,"type":"SCALAR"},{"bufferView":2,"byteOffset":6696,"componentType":5123,"count":6,"type":"SCALAR"},{"bufferView":2,"byteOffset":6708,"componentType":5123,"count":174,"type":"SCALAR"},{"bufferView":2,"byteOffset":7056,"componentType":5123,"count":6,"type":"SCALAR"},{"bufferView":2,"byteOffset":7068,"componentType":5123,"count":174,"type":"SCALAR"},{"bufferView":2,"byteOffset":7416,"componentType":5123,"count":6,"type":"SCALAR"},{"bufferView":2,"byteOffset":7428,"componentType":5123,"count":174,"type":"SCALAR"},{"bufferView":2,"byteOffset":7776,"componentType":5123,"count":6,"type":"SCALAR"},{"bufferView":2,"byteOffset":7788,"componentType":5123,"count":174,"type":"SCALAR"},{"bufferView":2,"byteOffset":8136,"componentType":5123,"count":6,"type":"SCALAR"},{"bufferView":2,"byteOffset":8148,"componentType":5123,"count":174,"type":"SCALAR"},{"bufferView":2,"byteOffset":8496,"componentType":5123,"count":6,"type":"SCALAR"},{"bufferView":2,"byteOffset":8508,"componentType":5123,"count":6,"type":"SCALAR"},{"bufferView":2,"byteOffset":8520,"componentType":5123,"count":174,"type":"SCALAR"},{"bufferView":2,"byteOffset":8868,"componentType":5123,"count":174,"type":"SCALAR"},{"bufferView":2,"byteOffset":9216,"componentType":5123,"count":6,"type":"SCALAR"},{"bufferView":2,"byteOffset":9228,"componentType":5123,"count":6,"type":"SCALAR"},{"bufferView":2,"byteOffset":9240,"componentType":5123,"count":174,"type":"SCALAR"},{"bufferView":2,"byteOffset":9588,"componentType":5123,"count":174,"type":"SCALAR"},{"bufferView":2,"byteOffset":9936,"componentType":5123,"count":6,"type":"SCALAR"},{"bufferView":2,"byteOffset":9948,"componentType":5123,"count":2718,"type":"SCALAR"},{"bufferView":2,"byteOffset":15384,"componentType":5123,"count":174,"type":"SCALAR"},{"bufferView":2,"byteOffset":15732,"componentType":5123,"count":2718,"type":"SCALAR"},{"bufferView":2,"byteOffset":21168,"componentType":5123,"count":174,"type":"SCALAR"},{"bufferView":2,"byteOffset":21516,"componentType":5123,"count":2718,"type":"SCALAR"},{"bufferView":2,"byteOffset":26952,"componentType":5123,"count":174,"type":"SCALAR"},{"bufferView":2,"byteOffset":27300,"componentType":5123,"count":2718,"type":"SCALAR"},{"bufferView":2,"byteOffset":32736,"componentType":5123,"count":174,"type":"SCALAR"},{"bufferView":2,"byteOffset":33084,"componentType":5123,"count":2718,"type":"SCALAR"},{"bufferView":2,"byteOffset":38520,"componentType":5123,"count":174,"type":"SCALAR"},{"bufferView":2,"byteOffset":38868,"componentType":5123,"count":2718,"type":"SCALAR"},{"bufferView":2,"byteOffset":44304,"componentType":5123,"count":174,"type":"SCALAR"},{"bufferView":2,"byteOffset":44652,"componentType":5123,"count":2718,"type":"SCALAR"},{"bufferView":2,"byteOffset":50088,"componentType":5123,"count":174,"type":"SCALAR"},{"bufferView":2,"byteOffset":50436,"componentType":5123,"count":2718,"type":"SCALAR"},{"bufferView":2,"byteOffset":55872,"componentType":5123,"count":174,"type":"SCALAR"},{"bufferView":2,"byteOffset":56220,"componentType":5123,"count":720,"type":"SCALAR"},{"bufferView":2,"byteOffset":57660,"componentType":5123,"count":6,"type":"SCALAR"},{"bufferView":2,"byteOffset":57672,"componentType":5123,"count":6,"type":"SCALAR"},{"bufferView":2,"byteOffset":57684,"componentType":5123,"count":6,"type":"SCALAR"},{"bufferView":2,"byteOffset":57696,"componentType":5123,"count":174,"type":"SCALAR"},{"bufferView":2,"byteOffset":58044,"componentType":5123,"count":174,"type":"SCALAR"},{"bufferView":2,"byteOffset":58392,"componentType":5123,"count":6,"type":"SCALAR"},{"bufferView":2,"byteOffset":58404,"componentType":5123,"count":6,"type":"SCALAR"},{"bufferView":2,"byteOffset":58416,"componentType":5123,"count":174,"type":"SCALAR"},{"bufferView":2,"byteOffset":58764,"componentType":5123,"count":174,"type":"SCALAR"},{"bufferView":2,"byteOffset":59112,"componentType":5123,"count":6,"type":"SCALAR"},{"bufferView":2,"byteOffset":59124,"componentType":5123,"count":372,"type":"SCALAR"},{"bufferView":2,"byteOffset":59868,"componentType":5123,"count":6,"type":"SCALAR"},{"bufferView":2,"byteOffset":59880,"componentType":5123,"count":6,"type":"SCALAR"},{"bufferView":2,"byteOffset":59892,"componentType":5123,"count":6,"type":"SCALAR"},{"bufferView":2,"byteOffset":59904,"componentType":5123,"count":6,"type":"SCALAR"},{"bufferView":2,"byteOffset":59916,"componentType":5123,"count":6,"type":"SCALAR"}],"asset":{"generator":"Open CASCADE Technology 7.9 [dev.opencascade.org]","version":"2.0"},"bufferViews":[{"buffer":0,"byteLength":79968,"byteOffset":0,"byteStride":12,"target":34962},{"buffer":0,"byteLength":79968,"byteOffset":79968,"byteStride":12,"target":34962},{"buffer":0,"byteLength":59928,"byteOffset":159936,"target":34963}],"buffers":[{"byteLength":219864,"uri":"Keyboard-SwitchPad.bin"}],"materials":[{"name":"mat_0","pbrMetallicRoughness":{"baseColorFactor":[0.6038273572921753,0.6038273572921753,0.791297972202301,1.0]},"doubleSided":true}],"meshes":[{"name":"Switch","primitives":[{"attributes":{"NORMAL":66,"POSITION":0},"indices":132,"material":0,"mode":4},{"attributes":{"NORMAL":67,"POSITION":1},"indices":133,"material":0,"mode":4},{"attributes":{"NORMAL":68,"POSITION":2},"indices":134,"material":0,"mode":4},{"attributes":{"NORMAL":69,"POSITION":3},"indices":135,"material":0,"mode":4},{"attributes":{"NORMAL":70,"POSITION":4},"indices":136,"material":0,"mode":4},{"attributes":{"NORMAL":71,"POSITION":5},"indices":137,"material":0,"mode":4},{"attributes":{"NORMAL":72,"POSITION":6},"indices":138,"material":0,"mode":4},{"attributes":{"NORMAL":73,"POSITION":7},"indices":139,"material":0,"mode":4},{"attributes":{"NORMAL":74,"POSITION":8},"indices":140,"material":0,"mode":4},{"attributes":{"NORMAL":75,"POSITION":9},"indices":141,"material":0,"mode":4},{"attributes":{"NORMAL":76,"POSITION":10},"indices":142,"material":0,"mode":4},{"attributes":{"NORMAL":77,"POSITION":11},"indices":143,"material":0,"mode":4},{"attributes":{"NORMAL":78,"POSITION":12},"indices":144,"material":0,"mode":4},{"attributes":{"NORMAL":79,"POSITION":13},"indices":145,"material":0,"mode":4},{"attributes":{"NORMAL":80,"POSITION":14},"indices":146,"material":0,"mode":4},{"attributes":{"NORMAL":81,"POSITION":15},"indices":147,"material":0,"mode":4},{"attributes":{"NORMAL":82,"POSITION":16},"indices":148,"material":0,"mode":4},{"attributes":{"NORMAL":83,"POSITION":17},"indices":149,"material":0,"mode":4},{"attributes":{"NORMAL":84,"POSITION":18},"indices":150,"material":0,"mode":4},{"attributes":{"NORMAL":85,"POSITION":19},"indices":151,"material":0,"mode":4},{"attributes":{"NORMAL":86,"POSITION":20},"indices":152,"material":0,"mode":4},{"attributes":{"NORMAL":87,"POSITION":21},"indices":153,"material":0,"mode":4},{"attributes":{"NORMAL":88,"POSITION":22},"indices":154,"material":0,"mode":4},{"attributes":{"NORMAL":89,"POSITION":23},"indices":155,"material":0,"mode":4},{"attributes":{"NORMAL":90,"POSITION":24},"indices":156,"material":0,"mode":4},{"attributes":{"NORMAL":91,"POSITION":25},"indices":157,"material":0,"mode":4},{"attributes":{"NORMAL":92,"POSITION":26},"indices":158,"material":0,"mode":4},{"attributes":{"NORMAL":93,"POSITION":27},"indices":159,"material":0,"mode":4},{"attributes":{"NORMAL":94,"POSITION":28},"indices":160,"material":0,"mode":4},{"attributes":{"NORMAL":95,"POSITION":29},"indices":161,"material":0,"mode":4},{"attributes":{"NORMAL":96,"POSITION":30},"indices":162,"material":0,"mode":4},{"attributes":{"NORMAL":97,"POSITION":31},"indices":163,"material":0,"mode":4},{"attributes":{"NORMAL":98,"POSITION":32},"indices":164,"material":0,"mode":4},{"attributes":{"NORMAL":99,"POSITION":33},"indices":165,"material":0,"mode":4},{"attributes":{"NORMAL":100,"POSITION":34},"indices":166,"material":0,"mode":4},{"attributes":{"NORMAL":101,"POSITION":35},"indices":167,"material":0,"mode":4},{"attributes":{"NORMAL":102,"POSITION":36},"indices":168,"material":0,"mode":4},{"attributes":{"NORMAL":103,"POSITION":37},"indices":169,"material":0,"mode":4},{"attributes":{"NORMAL":104,"POSITION":38},"indices":170,"material":0,"mode":4},{"attributes":{"NORMAL":105,"POSITION":39},"indices":171,"material":0,"mode":4},{"attributes":{"NORMAL":106,"POSITION":40},"indices":172,"material":0,"mode":4},{"attributes":{"NORMAL":107,"POSITION":41},"indices":173,"material":0,"mode":4},{"attributes":{"NORMAL":108,"POSITION":42},"indices":174,"material":0,"mode":4},{"attributes":{"NORMAL":109,"POSITION":43},"indices":175,"material":0,"mode":4},{"attributes":{"NORMAL":110,"POSITION":44},"indices":176,"material":0,"mode":4},{"attributes":{"NORMAL":111,"POSITION":45},"indices":177,"material":0,"mode":4},{"attributes":{"NORMAL":112,"POSITION":46},"indices":178,"material":0,"mode":4},{"attributes":{"NORMAL":113,"POSITION":47},"indices":179,"material":0,"mode":4},{"attributes":{"NORMAL":114,"POSITION":48},"indices":180,"material":0,"mode":4},{"attributes":{"NORMAL":115,"POSITION":49},"indices":181,"material":0,"mode":4},{"attributes":{"NORMAL":116,"POSITION":50},"indices":182,"material":0,"mode":4},{"attributes":{"NORMAL":117,"POSITION":51},"indices":183,"material":0,"mode":4},{"attributes":{"NORMAL":118,"POSITION":52},"indices":184,"material":0,"mode":4},{"attributes":{"NORMAL":119,"POSITION":53},"indices":185,"material":0,"mode":4},{"attributes":{"NORMAL":120,"POSITION":54},"indices":186,"material":0,"mode":4},{"attributes":{"NORMAL":121,"POSITION":55},"indices":187,"material":0,"mode":4},{"attributes":{"NORMAL":122,"POSITION":56},"indices":188,"material":0,"mode":4},{"attributes":{"NORMAL":123,"POSITION":57},"indices":189,"material":0,"mode":4},{"attributes":{"NORMAL":124,"POSITION":58},"indices":190,"material":0,"mode":4},{"attributes":{"NORMAL":125,"POSITION":59},"indices":191,"material":0,"mode":4},{"attributes":{"NORMAL":126,"POSITION":60},"indices":192,"material":0,"mode":4},{"attributes":{"NORMAL":127,"POSITION":61},"indices":193,"material":0,"mode":4},{"attributes":{"NORMAL":128,"POSITION":62},"indices":194,"material":0,"mode":4},{"attributes":{"NORMAL":129,"POSITION":63},"indices":195,"material":0,"mode":4},{"attributes":{"NORMAL":130,"POSITION":64},"indices":196,"material":0,"mode":4},{"attributes":{"NORMAL":131,"POSITION":65},"indices":197,"material":0,"mode":4}]}],"nodes":[{"children":[1],"name":"SwitchPad"},{"translation":[0.002775,0.0,-0.0004750000000000001],"mesh":0,"name":"Switch"}],"scene":0,"scenes":[{"nodes":[0]}]}