ISO-10303-21;
HEADER;
FILE_DESCRIPTION(('FreeCAD Model'),'2;1');
FILE_NAME('Open CASCADE Shape Model','2026-01-10T02:04:18',(''),(''),
  'Open CASCADE STEP processor 7.9','FreeCAD','Unknown');
FILE_SCHEMA(('AUTOMOTIVE_DESIGN { 1 0 10303 214 1 1 1 1 }'));
ENDSEC;
DATA;
#1 = APPLICATION_PROTOCOL_DEFINITION('international standard',
  'automotive_design',2000,#2);
#2 = APPLICATION_CONTEXT(
  'core data for automotive mechanical design processes');
#3 = SHAPE_DEFINITION_REPRESENTATION(#4,#10);
#4 = PRODUCT_DEFINITION_SHAPE('','',#5);
#5 = PRODUCT_DEFINITION('design','',#6,#9);
#6 = PRODUCT_DEFINITION_FORMATION('','',#7);
#7 = PRODUCT('WheelPad','WheelPad','',(#8));
#8 = PRODUCT_CONTEXT('',#2,'mechanical');
#9 = PRODUCT_DEFINITION_CONTEXT('part definition',#2,'design');
#10 = SHAPE_REPRESENTATION('',(#11,#15),#19);
#11 = AXIS2_PLACEMENT_3D('',#12,#13,#14);
#12 = CARTESIAN_POINT('',(0.,0.,0.));
#13 = DIRECTION('',(0.,0.,1.));
#14 = DIRECTION('',(1.,0.,-0.));
#15 = AXIS2_PLACEMENT_3D('',#16,#17,#18);
#16 = CARTESIAN_POINT('',(0.,0.,0.));
#17 = DIRECTION('',(0.,0.,1.));
#18 = DIRECTION('',(1.,0.,0.));
#19 = ( GEOMETRIC_REPRESENTATION_CONTEXT(3) 
GLOBAL_UNCERTAINTY_ASSIGNED_CONTEXT((#23)) GLOBAL_UNIT_ASSIGNED_CONTEXT(
(#20,#21,#22)) REPRESENTATION_CONTEXT('Context #1',
  '3D Context with UNIT and UNCERTAINTY') );
#20 = ( LENGTH_UNIT() NAMED_UNIT(*) SI_UNIT(.MILLI.,.METRE.) );
#21 = ( NAMED_UNIT(*) PLANE_ANGLE_UNIT() SI_UNIT($,.RADIAN.) );
#22 = ( NAMED_UNIT(*) SI_UNIT($,.STERADIAN.) SOLID_ANGLE_UNIT() );
#23 = UNCERTAINTY_MEASURE_WITH_UNIT(LENGTH_MEASURE(1.E-07),#20,
  'distance_accuracy_value','confusion accuracy');
#24 = PRODUCT_RELATED_PRODUCT_CATEGORY('part',$,(#7));
#25 = SHAPE_DEFINITION_REPRESENTATION(#26,#32);
#26 = PRODUCT_DEFINITION_SHAPE('','',#27);
#27 = PRODUCT_DEFINITION('design','',#28,#31);
#28 = PRODUCT_DEFINITION_FORMATION('','',#29);
#29 = PRODUCT('Wheel','Wheel','',(#30));
#30 = PRODUCT_CONTEXT('',#2,'mechanical');
#31 = PRODUCT_DEFINITION_CONTEXT('part definition',#2,'design');
#32 = ADVANCED_BREP_SHAPE_REPRESENTATION('',(#11,#33),#380);
#33 = MANIFOLD_SOLID_BREP('',#34);
#34 = CLOSED_SHELL('',(#35,#68,#93,#113,#158,#183,#215,#239,#264,#281,
    #309,#321,#352,#370));
#35 = ADVANCED_FACE('',(#36),#63,.T.);
#36 = FACE_BOUND('',#37,.T.);
#37 = EDGE_LOOP('',(#38,#48,#55,#56));
#38 = ORIENTED_EDGE('',*,*,#39,.T.);
#39 = EDGE_CURVE('',#40,#42,#44,.T.);
#40 = VERTEX_POINT('',#41);
#41 = CARTESIAN_POINT('',(32.,85.7,-1.));
#42 = VERTEX_POINT('',#43);
#43 = CARTESIAN_POINT('',(32.,85.7,-5.));
#44 = LINE('',#45,#46);
#45 = CARTESIAN_POINT('',(32.,85.7,0.));
#46 = VECTOR('',#47,1.);
#47 = DIRECTION('',(-0.,-0.,-1.));
#48 = ORIENTED_EDGE('',*,*,#49,.T.);
#49 = EDGE_CURVE('',#42,#42,#50,.T.);
#50 = CIRCLE('',#51,12.);
#51 = AXIS2_PLACEMENT_3D('',#52,#53,#54);
#52 = CARTESIAN_POINT('',(20.,85.7,-5.));
#53 = DIRECTION('',(0.,0.,1.));
#54 = DIRECTION('',(1.,0.,0.));
#55 = ORIENTED_EDGE('',*,*,#39,.F.);
#56 = ORIENTED_EDGE('',*,*,#57,.F.);
#57 = EDGE_CURVE('',#40,#40,#58,.T.);
#58 = CIRCLE('',#59,12.);
#59 = AXIS2_PLACEMENT_3D('',#60,#61,#62);
#60 = CARTESIAN_POINT('',(20.,85.7,-1.));
#61 = DIRECTION('',(0.,0.,1.));
#62 = DIRECTION('',(1.,0.,0.));
#63 = CYLINDRICAL_SURFACE('',#64,12.);
#64 = AXIS2_PLACEMENT_3D('',#65,#66,#67);
#65 = CARTESIAN_POINT('',(20.,85.7,0.));
#66 = DIRECTION('',(0.,0.,1.));
#67 = DIRECTION('',(1.,0.,0.));
#68 = ADVANCED_FACE('',(#69),#88,.T.);
#69 = FACE_BOUND('',#70,.T.);
#70 = EDGE_LOOP('',(#71,#79,#80,#81));
#71 = ORIENTED_EDGE('',*,*,#72,.F.);
#72 = EDGE_CURVE('',#40,#73,#75,.T.);
#73 = VERTEX_POINT('',#74);
#74 = CARTESIAN_POINT('',(31.,85.7,0.));
#75 = LINE('',#76,#77);
#76 = CARTESIAN_POINT('',(32.,85.7,-1.));
#77 = VECTOR('',#78,1.);
#78 = DIRECTION('',(-0.707106781187,0.,0.707106781187));
#79 = ORIENTED_EDGE('',*,*,#57,.T.);
#80 = ORIENTED_EDGE('',*,*,#72,.T.);
#81 = ORIENTED_EDGE('',*,*,#82,.F.);
#82 = EDGE_CURVE('',#73,#73,#83,.T.);
#83 = CIRCLE('',#84,11.);
#84 = AXIS2_PLACEMENT_3D('',#85,#86,#87);
#85 = CARTESIAN_POINT('',(20.,85.7,0.));
#86 = DIRECTION('',(0.,0.,1.));
#87 = DIRECTION('',(1.,0.,0.));
#88 = CONICAL_SURFACE('',#89,12.,0.785398163397);
#89 = AXIS2_PLACEMENT_3D('',#90,#91,#92);
#90 = CARTESIAN_POINT('',(20.,85.7,-1.));
#91 = DIRECTION('',(-0.,-0.,-1.));
#92 = DIRECTION('',(1.,0.,0.));
#93 = ADVANCED_FACE('',(#94,#97),#108,.F.);
#94 = FACE_BOUND('',#95,.F.);
#95 = EDGE_LOOP('',(#96));
#96 = ORIENTED_EDGE('',*,*,#49,.T.);
#97 = FACE_BOUND('',#98,.F.);
#98 = EDGE_LOOP('',(#99));
#99 = ORIENTED_EDGE('',*,*,#100,.T.);
#100 = EDGE_CURVE('',#101,#101,#103,.T.);
#101 = VERTEX_POINT('',#102);
#102 = CARTESIAN_POINT('',(28.,85.7,-5.));
#103 = CIRCLE('',#104,8.);
#104 = AXIS2_PLACEMENT_3D('',#105,#106,#107);
#105 = CARTESIAN_POINT('',(20.,85.7,-5.));
#106 = DIRECTION('',(0.,0.,-1.));
#107 = DIRECTION('',(1.,0.,0.));
#108 = PLANE('',#109);
#109 = AXIS2_PLACEMENT_3D('',#110,#111,#112);
#110 = CARTESIAN_POINT('',(20.,85.7,-5.));
#111 = DIRECTION('',(0.,0.,1.));
#112 = DIRECTION('',(1.,0.,0.));
#113 = ADVANCED_FACE('',(#114,#117),#153,.T.);
#114 = FACE_BOUND('',#115,.T.);
#115 = EDGE_LOOP('',(#116));
#116 = ORIENTED_EDGE('',*,*,#82,.T.);
#117 = FACE_BOUND('',#118,.T.);
#118 = EDGE_LOOP('',(#119,#130,#138,#147));
#119 = ORIENTED_EDGE('',*,*,#120,.F.);
#120 = EDGE_CURVE('',#121,#123,#125,.T.);
#121 = VERTEX_POINT('',#122);
#122 = CARTESIAN_POINT('',(19.499999999991,76.699999999999,0.));
#123 = VERTEX_POINT('',#124);
#124 = CARTESIAN_POINT('',(20.499999999991,76.699999999999,0.));
#125 = CIRCLE('',#126,0.5);
#126 = AXIS2_PLACEMENT_3D('',#127,#128,#129);
#127 = CARTESIAN_POINT('',(19.999999999991,76.699999999999,0.));
#128 = DIRECTION('',(0.,0.,1.));
#129 = DIRECTION('',(1.,0.,0.));
#130 = ORIENTED_EDGE('',*,*,#131,.T.);
#131 = EDGE_CURVE('',#121,#132,#134,.T.);
#132 = VERTEX_POINT('',#133);
#133 = CARTESIAN_POINT('',(19.499999999991,79.699999999999,0.));
#134 = LINE('',#135,#136);
#135 = CARTESIAN_POINT('',(19.499999999991,76.699999999999,0.));
#136 = VECTOR('',#137,1.);
#137 = DIRECTION('',(0.,1.,0.));
#138 = ORIENTED_EDGE('',*,*,#139,.F.);
#139 = EDGE_CURVE('',#140,#132,#142,.T.);
#140 = VERTEX_POINT('',#141);
#141 = CARTESIAN_POINT('',(20.499999999991,79.699999999999,0.));
#142 = CIRCLE('',#143,0.5);
#143 = AXIS2_PLACEMENT_3D('',#144,#145,#146);
#144 = CARTESIAN_POINT('',(19.999999999991,79.699999999999,0.));
#145 = DIRECTION('',(0.,0.,1.));
#146 = DIRECTION('',(1.,0.,0.));
#147 = ORIENTED_EDGE('',*,*,#148,.F.);
#148 = EDGE_CURVE('',#123,#140,#149,.T.);
#149 = LINE('',#150,#151);
#150 = CARTESIAN_POINT('',(20.499999999991,76.699999999999,0.));
#151 = VECTOR('',#152,1.);
#152 = DIRECTION('',(0.,1.,0.));
#153 = PLANE('',#154);
#154 = AXIS2_PLACEMENT_3D('',#155,#156,#157);
#155 = CARTESIAN_POINT('',(20.,85.7,0.));
#156 = DIRECTION('',(0.,0.,1.));
#157 = DIRECTION('',(1.,0.,0.));
#158 = ADVANCED_FACE('',(#159),#178,.F.);
#159 = FACE_BOUND('',#160,.F.);
#160 = EDGE_LOOP('',(#161,#169,#176,#177));
#161 = ORIENTED_EDGE('',*,*,#162,.T.);
#162 = EDGE_CURVE('',#101,#163,#165,.T.);
#163 = VERTEX_POINT('',#164);
#164 = CARTESIAN_POINT('',(28.,85.7,-2.));
#165 = LINE('',#166,#167);
#166 = CARTESIAN_POINT('',(28.,85.7,-5.));
#167 = VECTOR('',#168,1.);
#168 = DIRECTION('',(0.,0.,1.));
#169 = ORIENTED_EDGE('',*,*,#170,.T.);
#170 = EDGE_CURVE('',#163,#163,#171,.T.);
#171 = CIRCLE('',#172,8.);
#172 = AXIS2_PLACEMENT_3D('',#173,#174,#175);
#173 = CARTESIAN_POINT('',(20.,85.7,-2.));
#174 = DIRECTION('',(0.,0.,-1.));
#175 = DIRECTION('',(1.,0.,0.));
#176 = ORIENTED_EDGE('',*,*,#162,.F.);
#177 = ORIENTED_EDGE('',*,*,#100,.F.);
#178 = CYLINDRICAL_SURFACE('',#179,8.);
#179 = AXIS2_PLACEMENT_3D('',#180,#181,#182);
#180 = CARTESIAN_POINT('',(20.,85.7,-5.));
#181 = DIRECTION('',(0.,0.,-1.));
#182 = DIRECTION('',(1.,0.,0.));
#183 = ADVANCED_FACE('',(#184),#210,.F.);
#184 = FACE_BOUND('',#185,.F.);
#185 = EDGE_LOOP('',(#186,#194,#203,#209));
#186 = ORIENTED_EDGE('',*,*,#187,.T.);
#187 = EDGE_CURVE('',#121,#188,#190,.T.);
#188 = VERTEX_POINT('',#189);
#189 = CARTESIAN_POINT('',(19.499999999991,76.699999999999,-0.3));
#190 = LINE('',#191,#192);
#191 = CARTESIAN_POINT('',(19.499999999991,76.699999999999,0.));
#192 = VECTOR('',#193,1.);
#193 = DIRECTION('',(-0.,-0.,-1.));
#194 = ORIENTED_EDGE('',*,*,#195,.T.);
#195 = EDGE_CURVE('',#188,#196,#198,.T.);
#196 = VERTEX_POINT('',#197);
#197 = CARTESIAN_POINT('',(20.499999999991,76.699999999999,-0.3));
#198 = CIRCLE('',#199,0.5);
#199 = AXIS2_PLACEMENT_3D('',#200,#201,#202);
#200 = CARTESIAN_POINT('',(19.999999999991,76.699999999999,-0.3));
#201 = DIRECTION('',(0.,0.,1.));
#202 = DIRECTION('',(1.,0.,0.));
#203 = ORIENTED_EDGE('',*,*,#204,.F.);
#204 = EDGE_CURVE('',#123,#196,#205,.T.);
#205 = LINE('',#206,#207);
#206 = CARTESIAN_POINT('',(20.499999999991,76.699999999999,0.));
#207 = VECTOR('',#208,1.);
#208 = DIRECTION('',(-0.,-0.,-1.));
#209 = ORIENTED_EDGE('',*,*,#120,.F.);
#210 = CYLINDRICAL_SURFACE('',#211,0.5);
#211 = AXIS2_PLACEMENT_3D('',#212,#213,#214);
#212 = CARTESIAN_POINT('',(19.999999999991,76.699999999999,0.));
#213 = DIRECTION('',(0.,0.,1.));
#214 = DIRECTION('',(1.,0.,-0.));
#215 = ADVANCED_FACE('',(#216),#234,.F.);
#216 = FACE_BOUND('',#217,.F.);
#217 = EDGE_LOOP('',(#218,#219,#227,#233));
#218 = ORIENTED_EDGE('',*,*,#204,.T.);
#219 = ORIENTED_EDGE('',*,*,#220,.T.);
#220 = EDGE_CURVE('',#196,#221,#223,.T.);
#221 = VERTEX_POINT('',#222);
#222 = CARTESIAN_POINT('',(20.499999999991,79.699999999999,-0.3));
#223 = LINE('',#224,#225);
#224 = CARTESIAN_POINT('',(20.499999999991,76.699999999999,-0.3));
#225 = VECTOR('',#226,1.);
#226 = DIRECTION('',(0.,1.,0.));
#227 = ORIENTED_EDGE('',*,*,#228,.F.);
#228 = EDGE_CURVE('',#140,#221,#229,.T.);
#229 = LINE('',#230,#231);
#230 = CARTESIAN_POINT('',(20.499999999991,79.699999999999,0.));
#231 = VECTOR('',#232,1.);
#232 = DIRECTION('',(-0.,-0.,-1.));
#233 = ORIENTED_EDGE('',*,*,#148,.F.);
#234 = PLANE('',#235);
#235 = AXIS2_PLACEMENT_3D('',#236,#237,#238);
#236 = CARTESIAN_POINT('',(20.499999999991,76.699999999999,0.));
#237 = DIRECTION('',(1.,0.,0.));
#238 = DIRECTION('',(-0.,1.,0.));
#239 = ADVANCED_FACE('',(#240),#259,.F.);
#240 = FACE_BOUND('',#241,.F.);
#241 = EDGE_LOOP('',(#242,#243,#252,#258));
#242 = ORIENTED_EDGE('',*,*,#228,.T.);
#243 = ORIENTED_EDGE('',*,*,#244,.T.);
#244 = EDGE_CURVE('',#221,#245,#247,.T.);
#245 = VERTEX_POINT('',#246);
#246 = CARTESIAN_POINT('',(19.499999999991,79.699999999999,-0.3));
#247 = CIRCLE('',#248,0.5);
#248 = AXIS2_PLACEMENT_3D('',#249,#250,#251);
#249 = CARTESIAN_POINT('',(19.999999999991,79.699999999999,-0.3));
#250 = DIRECTION('',(0.,0.,1.));
#251 = DIRECTION('',(1.,0.,0.));
#252 = ORIENTED_EDGE('',*,*,#253,.F.);
#253 = EDGE_CURVE('',#132,#245,#254,.T.);
#254 = LINE('',#255,#256);
#255 = CARTESIAN_POINT('',(19.499999999991,79.699999999999,0.));
#256 = VECTOR('',#257,1.);
#257 = DIRECTION('',(-0.,-0.,-1.));
#258 = ORIENTED_EDGE('',*,*,#139,.F.);
#259 = CYLINDRICAL_SURFACE('',#260,0.5);
#260 = AXIS2_PLACEMENT_3D('',#261,#262,#263);
#261 = CARTESIAN_POINT('',(19.999999999991,79.699999999999,0.));
#262 = DIRECTION('',(0.,0.,1.));
#263 = DIRECTION('',(1.,0.,-0.));
#264 = ADVANCED_FACE('',(#265),#276,.T.);
#265 = FACE_BOUND('',#266,.T.);
#266 = EDGE_LOOP('',(#267,#268,#274,#275));
#267 = ORIENTED_EDGE('',*,*,#187,.T.);
#268 = ORIENTED_EDGE('',*,*,#269,.T.);
#269 = EDGE_CURVE('',#188,#245,#270,.T.);
#270 = LINE('',#271,#272);
#271 = CARTESIAN_POINT('',(19.499999999991,76.699999999999,-0.3));
#272 = VECTOR('',#273,1.);
#273 = DIRECTION('',(0.,1.,0.));
#274 = ORIENTED_EDGE('',*,*,#253,.F.);
#275 = ORIENTED_EDGE('',*,*,#131,.F.);
#276 = PLANE('',#277);
#277 = AXIS2_PLACEMENT_3D('',#278,#279,#280);
#278 = CARTESIAN_POINT('',(19.499999999991,76.699999999999,0.));
#279 = DIRECTION('',(1.,0.,0.));
#280 = DIRECTION('',(-0.,1.,0.));
#281 = ADVANCED_FACE('',(#282,#285),#304,.F.);
#282 = FACE_BOUND('',#283,.F.);
#283 = EDGE_LOOP('',(#284));
#284 = ORIENTED_EDGE('',*,*,#170,.F.);
#285 = FACE_BOUND('',#286,.F.);
#286 = EDGE_LOOP('',(#287,#297));
#287 = ORIENTED_EDGE('',*,*,#288,.F.);
#288 = EDGE_CURVE('',#289,#291,#293,.T.);
#289 = VERTEX_POINT('',#290);
#290 = CARTESIAN_POINT('',(18.577514403716,85.224043354533,-2.));
#291 = VERTEX_POINT('',#292);
#292 = CARTESIAN_POINT('',(21.422485596284,85.224043354533,-2.));
#293 = LINE('',#294,#295);
#294 = CARTESIAN_POINT('',(18.577514403716,85.224043354533,-2.));
#295 = VECTOR('',#296,1.);
#296 = DIRECTION('',(1.,0.,0.));
#297 = ORIENTED_EDGE('',*,*,#298,.T.);
#298 = EDGE_CURVE('',#289,#291,#299,.T.);
#299 = CIRCLE('',#300,1.5);
#300 = AXIS2_PLACEMENT_3D('',#301,#302,#303);
#301 = CARTESIAN_POINT('',(20.,85.7,-2.));
#302 = DIRECTION('',(0.,0.,-1.));
#303 = DIRECTION('',(1.,0.,0.));
#304 = PLANE('',#305);
#305 = AXIS2_PLACEMENT_3D('',#306,#307,#308);
#306 = CARTESIAN_POINT('',(20.,85.7,-2.));
#307 = DIRECTION('',(0.,0.,1.));
#308 = DIRECTION('',(1.,0.,0.));
#309 = ADVANCED_FACE('',(#310),#316,.T.);
#310 = FACE_BOUND('',#311,.T.);
#311 = EDGE_LOOP('',(#312,#313,#314,#315));
#312 = ORIENTED_EDGE('',*,*,#195,.T.);
#313 = ORIENTED_EDGE('',*,*,#220,.T.);
#314 = ORIENTED_EDGE('',*,*,#244,.T.);
#315 = ORIENTED_EDGE('',*,*,#269,.F.);
#316 = PLANE('',#317);
#317 = AXIS2_PLACEMENT_3D('',#318,#319,#320);
#318 = CARTESIAN_POINT('',(19.999999999991,78.199999999999,-0.3));
#319 = DIRECTION('',(0.,0.,1.));
#320 = DIRECTION('',(1.,0.,0.));
#321 = ADVANCED_FACE('',(#322),#347,.T.);
#322 = FACE_BOUND('',#323,.T.);
#323 = EDGE_LOOP('',(#324,#332,#340,#346));
#324 = ORIENTED_EDGE('',*,*,#325,.T.);
#325 = EDGE_CURVE('',#289,#326,#328,.T.);
#326 = VERTEX_POINT('',#327);
#327 = CARTESIAN_POINT('',(18.577514403716,85.224043354533,-4.8));
#328 = LINE('',#329,#330);
#329 = CARTESIAN_POINT('',(18.577514403716,85.224043354533,-2.));
#330 = VECTOR('',#331,1.);
#331 = DIRECTION('',(0.,0.,-1.));
#332 = ORIENTED_EDGE('',*,*,#333,.T.);
#333 = EDGE_CURVE('',#326,#334,#336,.T.);
#334 = VERTEX_POINT('',#335);
#335 = CARTESIAN_POINT('',(21.422485596284,85.224043354533,-4.8));
#336 = LINE('',#337,#338);
#337 = CARTESIAN_POINT('',(18.577514403716,85.224043354533,-4.8));
#338 = VECTOR('',#339,1.);
#339 = DIRECTION('',(1.,0.,0.));
#340 = ORIENTED_EDGE('',*,*,#341,.F.);
#341 = EDGE_CURVE('',#291,#334,#342,.T.);
#342 = LINE('',#343,#344);
#343 = CARTESIAN_POINT('',(21.422485596284,85.224043354533,-2.));
#344 = VECTOR('',#345,1.);
#345 = DIRECTION('',(0.,0.,-1.));
#346 = ORIENTED_EDGE('',*,*,#288,.F.);
#347 = PLANE('',#348);
#348 = AXIS2_PLACEMENT_3D('',#349,#350,#351);
#349 = CARTESIAN_POINT('',(18.577514403716,85.224043354533,-2.));
#350 = DIRECTION('',(0.,-1.,0.));
#351 = DIRECTION('',(1.,0.,0.));
#352 = ADVANCED_FACE('',(#353),#365,.T.);
#353 = FACE_BOUND('',#354,.F.);
#354 = EDGE_LOOP('',(#355,#356,#363,#364));
#355 = ORIENTED_EDGE('',*,*,#325,.T.);
#356 = ORIENTED_EDGE('',*,*,#357,.T.);
#357 = EDGE_CURVE('',#326,#334,#358,.T.);
#358 = CIRCLE('',#359,1.5);
#359 = AXIS2_PLACEMENT_3D('',#360,#361,#362);
#360 = CARTESIAN_POINT('',(20.,85.7,-4.8));
#361 = DIRECTION('',(0.,0.,-1.));
#362 = DIRECTION('',(1.,0.,0.));
#363 = ORIENTED_EDGE('',*,*,#341,.F.);
#364 = ORIENTED_EDGE('',*,*,#298,.F.);
#365 = CYLINDRICAL_SURFACE('',#366,1.5);
#366 = AXIS2_PLACEMENT_3D('',#367,#368,#369);
#367 = CARTESIAN_POINT('',(20.,85.7,-2.));
#368 = DIRECTION('',(0.,0.,1.));
#369 = DIRECTION('',(1.,0.,0.));
#370 = ADVANCED_FACE('',(#371),#375,.F.);
#371 = FACE_BOUND('',#372,.T.);
#372 = EDGE_LOOP('',(#373,#374));
#373 = ORIENTED_EDGE('',*,*,#357,.T.);
#374 = ORIENTED_EDGE('',*,*,#333,.F.);
#375 = PLANE('',#376);
#376 = AXIS2_PLACEMENT_3D('',#377,#378,#379);
#377 = CARTESIAN_POINT('',(20.,85.956375811125,-4.8));
#378 = DIRECTION('',(0.,0.,1.));
#379 = DIRECTION('',(1.,0.,0.));
#380 = ( GEOMETRIC_REPRESENTATION_CONTEXT(3) 
GLOBAL_UNCERTAINTY_ASSIGNED_CONTEXT((#384)) GLOBAL_UNIT_ASSIGNED_CONTEXT
((#381,#382,#383)) REPRESENTATION_CONTEXT('Context #1',
  '3D Context with UNIT and UNCERTAINTY') );
#381 = ( LENGTH_UNIT() NAMED_UNIT(*) SI_UNIT(.MILLI.,.METRE.) );
#382 = ( NAMED_UNIT(*) PLANE_ANGLE_UNIT() SI_UNIT($,.RADIAN.) );
#383 = ( NAMED_UNIT(*) SI_UNIT($,.STERADIAN.) SOLID_ANGLE_UNIT() );
#384 = UNCERTAINTY_MEASURE_WITH_UNIT(LENGTH_MEASURE(1.E-07),#381,
  'distance_accuracy_value','confusion accuracy');
#385 = CONTEXT_DEPENDENT_SHAPE_REPRESENTATION(#386,#388);
#386 = ( REPRESENTATION_RELATIONSHIP('','',#32,#10) 
REPRESENTATION_RELATIONSHIP_WITH_TRANSFORMATION(#387) 
SHAPE_REPRESENTATION_RELATIONSHIP() );
#387 = ITEM_DEFINED_TRANSFORMATION('','',#11,#15);
#388 = PRODUCT_DEFINITION_SHAPE('Placement','Placement of an item',#389
  );
#389 = NEXT_ASSEMBLY_USAGE_OCCURRENCE('8','Wheel','',#5,#27,$);
#390 = PRODUCT_RELATED_PRODUCT_CATEGORY('part',$,(#29));
#391 = MECHANICAL_DESIGN_GEOMETRIC_PRESENTATION_REPRESENTATION('',(#392)
  ,#380);
#392 = STYLED_ITEM('color',(#393),#33);
#393 = PRESENTATION_STYLE_ASSIGNMENT((#394,#400));
#394 = SURFACE_STYLE_USAGE(.BOTH.,#395);
#395 = SURFACE_SIDE_STYLE('',(#396));
#396 = SURFACE_STYLE_FILL_AREA(#397);
#397 = FILL_AREA_STYLE('',(#398));
#398 = FILL_AREA_STYLE_COLOUR('',#399);
#399 = COLOUR_RGB('',0.800000010877,0.800000010877,0.901960800373);
#400 = CURVE_STYLE('',#401,POSITIVE_LENGTH_MEASURE(0.1),#402);
#401 = DRAUGHTING_PRE_DEFINED_CURVE_FONT('continuous');
#402 = COLOUR_RGB('',9.803921802644E-02,9.803921802644E-02,
  9.803921802644E-02);
ENDSEC;
END-ISO-10303-21;
