{
    "accessors": [
        {
            "bufferView": 0,
            "byteOffset": 0,
            "componentType": 5126,
            "count": 4,
            "max": [
                0.100125,
                0.001,
                -0.037025
            ],
            "min": [
                0.100125,
                0.0,
                -0.070225
            ],
            "type": "VEC3"
        },
        {
            "bufferView": 0,
            "byteOffset": 48,
            "componentType": 5126,
            "count": 60,
            "max": [
                0.102025,
                0.001,
                -0.035125
            ],
            "min": [
                0.100125,
                0.0,
                -0.037025
            ],
            "type": "VEC3"
        },
        {
            "bufferView": 0,
            "byteOffset": 768,
            "componentType": 5126,
            "count": 4,
            "max": [
                0.23072499999999999,
                0.001,
                -0.035125
            ],
            "min": [
                0.102025,
                0.0,
                -0.035125
            ],
            "type": "VEC3"
        },
        {
            "bufferView": 0,
            "byteOffset": 816,
            "componentType": 5126,
            "count": 60,
            "max": [
                0.232625,
                0.001,
                -0.035125
            ],
            "min": [
                0.23072499999999999,
                0.0,
                -0.037025
            ],
            "type": "VEC3"
        },
        {
            "bufferView": 0,
            "byteOffset": 1536,
            "componentType": 5126,
            "count": 4,
            "max": [
                0.232625,
                0.001,
                -0.037025
            ],
            "min": [
                0.232625,
                0.0,
                -0.070225
            ],
            "type": "VEC3"
        },
        {
            "bufferView": 0,
            "byteOffset": 1584,
            "componentType": 5126,
            "count": 60,
            "max": [
                0.232625,
                0.001,
                -0.070225
            ],
            "min": [
                0.23072499999999999,
                0.0,
                -0.072125
            ],
            "type": "VEC3"
        },
        {
            "bufferView": 0,
            "byteOffset": 2304,
            "componentType": 5126,
            "count": 4,
            "max": [
                0.23072499999999999,
                0.001,
                -0.072125
            ],
            "min": [
                0.102025,
                0.0,
                -0.072125
            ],
            "type": "VEC3"
        },
        {
            "bufferView": 0,
            "byteOffset": 2352,
            "componentType": 5126,
            "count": 60,
            "max": [
                0.102025,
                0.001,
                -0.070225
            ],
            "min": [
                0.100125,
                0.0,
                -0.072125
            ],
            "type": "VEC3"
        },
        {
            "bufferView": 0,
            "byteOffset": 3072,
            "componentType": 5126,
            "count": 120,
            "max": [
                0.232625,
                0.0,
                -0.035125
            ],
            "min": [
                0.100125,
                0.0,
                -0.072125
            ],
            "type": "VEC3"
        },
        {
            "bufferView": 0,
            "byteOffset": 4512,
            "componentType": 5126,
            "count": 120,
            "max": [
                0.232625,
                0.001,
                -0.035125
            ],
            "min": [
                0.100125,
                0.001,
                -0.072125
            ],
            "type": "VEC3"
        },
        {
            "bufferView": 1,
            "byteOffset": 0,
            "componentType": 5126,
            "count": 4,
            "type": "VEC3"
        },
        {
            "bufferView": 1,
            "byteOffset": 48,
            "componentType": 5126,
            "count": 60,
            "type": "VEC3"
        },
        {
            "bufferView": 1,
            "byteOffset": 768,
            "componentType": 5126,
            "count": 4,
            "type": "VEC3"
        },
        {
            "bufferView": 1,
            "byteOffset": 816,
            "componentType": 5126,
            "count": 60,
            "type": "VEC3"
        },
        {
            "bufferView": 1,
            "byteOffset": 1536,
            "componentType": 5126,
            "count": 4,
            "type": "VEC3"
        },
        {
            "bufferView": 1,
            "byteOffset": 1584,
            "componentType": 5126,
            "count": 60,
            "type": "VEC3"
        },
        {
            "bufferView": 1,
            "byteOffset": 2304,
            "componentType": 5126,
            "count": 4,
            "type": "VEC3"
        },
        {
            "bufferView": 1,
            "byteOffset": 2352,
            "componentType": 5126,
            "count": 60,
            "type": "VEC3"
        },
        {
            "bufferView": 1,
            "byteOffset": 3072,
            "componentType": 5126,
            "count": 120,
            "type": "VEC3"
        },
        {
            "bufferView": 1,
            "byteOffset": 4512,
            "componentType": 5126,
            "count": 120,
            "type": "VEC3"
        },
        {
            "bufferView": 2,
            "byteOffset": 0,
            "componentType": 5123,
            "count": 6,
            "type": "SCALAR"
        },
        {
            "bufferView": 2,
            "byteOffset": 12,
            "componentType": 5123,
            "count": 174,
            "type": "SCALAR"
        },
        {
            "bufferView": 2,
            "byteOffset": 360,
            "componentType": 5123,
            "count": 6,
            "type": "SCALAR"
        },
        {
            "bufferView": 2,
            "byteOffset": 372,
            "componentType": 5123,
            "count": 174,
            "type": "SCALAR"
        },
        {
            "bufferView": 2,
            "byteOffset": 720,
            "componentType": 5123,
            "count": 6,
            "type": "SCALAR"
        },
        {
            "bufferView": 2,
            "byteOffset": 732,
            "componentType": 5123,
            "count": 174,
            "type": "SCALAR"
        },
        {
            "bufferView": 2,
            "byteOffset": 1080,
            "componentType": 5123,
            "count": 6,
            "type": "SCALAR"
        },
        {
            "bufferView": 2,
            "byteOffset": 1092,
            "componentType": 5123,
            "count": 174,
            "type": "SCALAR"
        },
        {
            "bufferView": 2,
            "byteOffset": 1440,
            "componentType": 5123,
            "count": 354,
            "type": "SCALAR"
        },
        {
            "bufferView": 2,
            "byteOffset": 2148,
            "componentType": 5123,
            "count": 354,
            "type": "SCALAR"
        }
    ],
    "asset": {
        "generator": "Open CASCADE Technology 7.9 [dev.opencascade.org]",
        "version": "2.0"
    },
    "bufferViews": [
        {
            "buffer": 0,
            "byteLength": 5952,
            "byteOffset": 0,
            "byteStride": 12,
            "target": 34962
        },
        {
            "buffer": 0,
            "byteLength": 5952,
            "byteOffset": 5952,
            "byteStride": 12,
            "target": 34962
        },
        {
            "buffer": 0,
            "byteLength": 2856,
            "byteOffset": 11904,
            "target": 34963
        }
    ],
    "buffers": [
        {
            "byteLength": 14760,
            "uri": "Keyboard-BackCoverPad.bin"
        }
    ],
    "materials": [
        {
            "name": "mat_0",
            "pbrMetallicRoughness": {
                "baseColorFactor": [
                    0.6038273572921753,
                    0.6038273572921753,
                    0.791297972202301,
                    1.0
                ]
            },
            "doubleSided": true
        }
    ],
    "meshes": [
        {
            "name": "BackCover",
            "primitives": [
                {
                    "attributes": {
                        "NORMAL": 10,
                        "POSITION": 0
                    },
                    "indices": 20,
                    "material": 0,
                    "mode": 4
                },
                {
                    "attributes": {
                        "NORMAL": 11,
                        "POSITION": 1
                    },
                    "indices": 21,
                    "material": 0,
                    "mode": 4
                },
                {
                    "attributes": {
                        "NORMAL": 12,
                        "POSITION": 2
                    },
                    "indices": 22,
                    "material": 0,
                    "mode": 4
                },
                {
                    "attributes": {
                        "NORMAL": 13,
                        "POSITION": 3
                    },
                    "indices": 23,
                    "material": 0,
                    "mode": 4
                },
                {
                    "attributes": {
                        "NORMAL": 14,
                        "POSITION": 4
                    },
                    "indices": 24,
                    "material": 0,
                    "mode": 4
                },
                {
                    "attributes": {
                        "NORMAL": 15,
                        "POSITION": 5
                    },
                    "indices": 25,
                    "material": 0,
                    "mode": 4
                },
                {
                    "attributes": {
                        "NORMAL": 16,
                        "POSITION": 6
                    },
                    "indices": 26,
                    "material": 0,
                    "mode": 4
                },
                {
                    "attributes": {
                        "NORMAL": 17,
                        "POSITION": 7
                    },
                    "indices": 27,
                    "material": 0,
                    "mode": 4
                },
                {
                    "attributes": {
                        "NORMAL": 18,
                        "POSITION": 8
                    },
                    "indices": 28,
                    "material": 0,
                    "mode": 4
                },
                {
                    "attributes": {
                        "NORMAL": 19,
                        "POSITION": 9
                    },
                    "indices": 29,
                    "material": 0,
                    "mode": 4
                }
            ]
        }
    ],
    "nodes": [
        {
            "children": [
                1
            ],
            "name": "BackCoverPad"
        },
        {
            "mesh": 0,
            "name": "BackCover"
        }
    ],
    "scene": 0,
    "scenes": [
        {
            "nodes": [
                0
            ]
        }
    ]
}
