ISO-10303-21;
HEADER;
FILE_DESCRIPTION(('FreeCAD Model'),'2;1');
FILE_NAME('Open CASCADE Shape Model','2026-04-03T02:29:19',(''),(''),
  'Open CASCADE STEP processor 7.9','FreeCAD','Unknown');
FILE_SCHEMA(('AUTOMOTIVE_DESIGN { 1 0 10303 214 1 1 1 1 }'));
ENDSEC;
DATA;
#1 = APPLICATION_PROTOCOL_DEFINITION('international standard',
  'automotive_design',2000,#2);
#2 = APPLICATION_CONTEXT(
  'core data for automotive mechanical design processes');
#3 = SHAPE_DEFINITION_REPRESENTATION(#4,#10);
#4 = PRODUCT_DEFINITION_SHAPE('','',#5);
#5 = PRODUCT_DEFINITION('design','',#6,#9);
#6 = PRODUCT_DEFINITION_FORMATION('','',#7);
#7 = PRODUCT('SwitchPad','SwitchPad','',(#8));
#8 = PRODUCT_CONTEXT('',#2,'mechanical');
#9 = PRODUCT_DEFINITION_CONTEXT('part definition',#2,'design');
#10 = SHAPE_REPRESENTATION('',(#11,#15),#19);
#11 = AXIS2_PLACEMENT_3D('',#12,#13,#14);
#12 = CARTESIAN_POINT('',(0.,0.,0.));
#13 = DIRECTION('',(0.,0.,1.));
#14 = DIRECTION('',(1.,0.,-0.));
#15 = AXIS2_PLACEMENT_3D('',#16,#17,#18);
#16 = CARTESIAN_POINT('',(2.775,0.475,0.));
#17 = DIRECTION('',(0.,0.,1.));
#18 = DIRECTION('',(1.,0.,0.));
#19 = ( GEOMETRIC_REPRESENTATION_CONTEXT(3) 
GLOBAL_UNCERTAINTY_ASSIGNED_CONTEXT((#23)) GLOBAL_UNIT_ASSIGNED_CONTEXT(
(#20,#21,#22)) REPRESENTATION_CONTEXT('Context #1',
  '3D Context with UNIT and UNCERTAINTY') );
#20 = ( LENGTH_UNIT() NAMED_UNIT(*) SI_UNIT(.MILLI.,.METRE.) );
#21 = ( NAMED_UNIT(*) PLANE_ANGLE_UNIT() SI_UNIT($,.RADIAN.) );
#22 = ( NAMED_UNIT(*) SI_UNIT($,.STERADIAN.) SOLID_ANGLE_UNIT() );
#23 = UNCERTAINTY_MEASURE_WITH_UNIT(LENGTH_MEASURE(1.E-07),#20,
  'distance_accuracy_value','confusion accuracy');
#24 = PRODUCT_RELATED_PRODUCT_CATEGORY('part',$,(#7));
#25 = SHAPE_DEFINITION_REPRESENTATION(#26,#32);
#26 = PRODUCT_DEFINITION_SHAPE('','',#27);
#27 = PRODUCT_DEFINITION('design','',#28,#31);
#28 = PRODUCT_DEFINITION_FORMATION('','',#29);
#29 = PRODUCT('Switch','Switch','',(#30));
#30 = PRODUCT_CONTEXT('',#2,'mechanical');
#31 = PRODUCT_DEFINITION_CONTEXT('part definition',#2,'design');
#32 = ADVANCED_BREP_SHAPE_REPRESENTATION('',(#11,#33),#1835);
#33 = MANIFOLD_SOLID_BREP('',#34);
#34 = CLOSED_SHELL('',(#35,#251,#282,#307,#332,#356,#380,#405,#430,#447,
    #479,#503,#528,#552,#577,#601,#626,#643,#675,#699,#724,#748,#773,
    #797,#822,#839,#870,#895,#920,#944,#968,#993,#1018,#1035,#1060,#1085
    ,#1102,#1127,#1144,#1169,#1186,#1203,#1228,#1253,#1270,#1295,#1312,
    #1337,#1354,#1371,#1457,#1469,#1481,#1512,#1537,#1562,#1586,#1610,
    #1635,#1660,#1677,#1727,#1758,#1782,#1806,#1823));
#35 = ADVANCED_FACE('',(#36,#106,#176),#246,.F.);
#36 = FACE_BOUND('',#37,.F.);
#37 = EDGE_LOOP('',(#38,#48,#57,#65,#74,#82,#91,#99));
#38 = ORIENTED_EDGE('',*,*,#39,.F.);
#39 = EDGE_CURVE('',#40,#42,#44,.T.);
#40 = VERTEX_POINT('',#41);
#41 = CARTESIAN_POINT('',(-3.5,86.95,6.2));
#42 = VERTEX_POINT('',#43);
#43 = CARTESIAN_POINT('',(-3.5,83.55,6.2));
#44 = LINE('',#45,#46);
#45 = CARTESIAN_POINT('',(-3.5,86.95,6.2));
#46 = VECTOR('',#47,1.);
#47 = DIRECTION('',(-4.067564042546E-31,-1.,9.992007221626E-16));
#48 = ORIENTED_EDGE('',*,*,#49,.F.);
#49 = EDGE_CURVE('',#50,#40,#52,.T.);
#50 = VERTEX_POINT('',#51);
#51 = CARTESIAN_POINT('',(-3.5,87.35,6.6));
#52 = CIRCLE('',#53,0.4);
#53 = AXIS2_PLACEMENT_3D('',#54,#55,#56);
#54 = CARTESIAN_POINT('',(-3.5,86.95,6.6));
#55 = DIRECTION('',(-1.,-5.916456789158E-31,-9.992007221626E-16));
#56 = DIRECTION('',(-3.016336452329E-30,1.,2.426630325252E-15));
#57 = ORIENTED_EDGE('',*,*,#58,.F.);
#58 = EDGE_CURVE('',#59,#50,#61,.T.);
#59 = VERTEX_POINT('',#60);
#60 = CARTESIAN_POINT('',(-3.5,87.35,8.4));
#61 = LINE('',#62,#63);
#62 = CARTESIAN_POINT('',(-3.5,87.35,8.4));
#63 = VECTOR('',#64,1.);
#64 = DIRECTION('',(9.992007221626E-16,-3.330669073875E-16,-1.));
#65 = ORIENTED_EDGE('',*,*,#66,.F.);
#66 = EDGE_CURVE('',#67,#59,#69,.T.);
#67 = VERTEX_POINT('',#68);
#68 = CARTESIAN_POINT('',(-3.5,86.95,8.8));
#69 = CIRCLE('',#70,0.4);
#70 = AXIS2_PLACEMENT_3D('',#71,#72,#73);
#71 = CARTESIAN_POINT('',(-3.5,86.95,8.4));
#72 = DIRECTION('',(-1.,-5.916456789158E-31,-9.992007221626E-16));
#73 = DIRECTION('',(-9.992007221626E-16,2.041224332418E-14,1.));
#74 = ORIENTED_EDGE('',*,*,#75,.F.);
#75 = EDGE_CURVE('',#76,#67,#78,.T.);
#76 = VERTEX_POINT('',#77);
#77 = CARTESIAN_POINT('',(-3.5,83.55,8.8));
#78 = LINE('',#79,#80);
#79 = CARTESIAN_POINT('',(-3.5,83.55,8.8));
#80 = VECTOR('',#81,1.);
#81 = DIRECTION('',(4.067564042546E-31,1.,-9.992007221626E-16));
#82 = ORIENTED_EDGE('',*,*,#83,.F.);
#83 = EDGE_CURVE('',#84,#76,#86,.T.);
#84 = VERTEX_POINT('',#85);
#85 = CARTESIAN_POINT('',(-3.5,83.15,8.4));
#86 = CIRCLE('',#87,0.4);
#87 = AXIS2_PLACEMENT_3D('',#88,#89,#90);
#88 = CARTESIAN_POINT('',(-3.5,83.55,8.4));
#89 = DIRECTION('',(-1.,-5.916456789158E-31,-9.992007221626E-16));
#90 = DIRECTION('',(4.807121141191E-31,-1.,1.110223024625E-16));
#91 = ORIENTED_EDGE('',*,*,#92,.F.);
#92 = EDGE_CURVE('',#93,#84,#95,.T.);
#93 = VERTEX_POINT('',#94);
#94 = CARTESIAN_POINT('',(-3.5,83.15,6.6));
#95 = LINE('',#96,#97);
#96 = CARTESIAN_POINT('',(-3.5,83.15,6.6));
#97 = VECTOR('',#98,1.);
#98 = DIRECTION('',(-9.992007221626E-16,3.330669073875E-16,1.));
#99 = ORIENTED_EDGE('',*,*,#100,.F.);
#100 = EDGE_CURVE('',#42,#93,#101,.T.);
#101 = CIRCLE('',#102,0.4);
#102 = AXIS2_PLACEMENT_3D('',#103,#104,#105);
#103 = CARTESIAN_POINT('',(-3.5,83.55,6.6));
#104 = DIRECTION('',(-1.,-5.916456789158E-31,-9.992007221626E-16));
#105 = DIRECTION('',(9.992007221626E-16,-1.110223024625E-16,-1.));
#106 = FACE_BOUND('',#107,.F.);
#107 = EDGE_LOOP('',(#108,#119,#127,#136,#144,#153,#161,#170));
#108 = ORIENTED_EDGE('',*,*,#109,.T.);
#109 = EDGE_CURVE('',#110,#112,#114,.T.);
#110 = VERTEX_POINT('',#111);
#111 = CARTESIAN_POINT('',(-3.5,85.95,6.7));
#112 = VERTEX_POINT('',#113);
#113 = CARTESIAN_POINT('',(-3.5,85.75,6.9));
#114 = CIRCLE('',#115,0.2);
#115 = AXIS2_PLACEMENT_3D('',#116,#117,#118);
#116 = CARTESIAN_POINT('',(-3.5,85.95,6.9));
#117 = DIRECTION('',(-1.,-4.440892098501E-16,-8.881784197001E-16));
#118 = DIRECTION('',(-4.440892098501E-16,1.,-8.881784197001E-16));
#119 = ORIENTED_EDGE('',*,*,#120,.T.);
#120 = EDGE_CURVE('',#112,#121,#123,.T.);
#121 = VERTEX_POINT('',#122);
#122 = CARTESIAN_POINT('',(-3.5,85.75,8.1));
#123 = LINE('',#124,#125);
#124 = CARTESIAN_POINT('',(-3.5,85.75,6.9));
#125 = VECTOR('',#126,1.);
#126 = DIRECTION('',(-8.881784197001E-16,-4.440892098501E-16,1.));
#127 = ORIENTED_EDGE('',*,*,#128,.T.);
#128 = EDGE_CURVE('',#121,#129,#131,.T.);
#129 = VERTEX_POINT('',#130);
#130 = CARTESIAN_POINT('',(-3.5,85.95,8.3));
#131 = CIRCLE('',#132,0.2);
#132 = AXIS2_PLACEMENT_3D('',#133,#134,#135);
#133 = CARTESIAN_POINT('',(-3.5,85.95,8.1));
#134 = DIRECTION('',(-1.,-4.440892098501E-16,-8.881784197001E-16));
#135 = DIRECTION('',(-4.440892098501E-16,1.,-8.881784197001E-16));
#136 = ORIENTED_EDGE('',*,*,#137,.T.);
#137 = EDGE_CURVE('',#129,#138,#140,.T.);
#138 = VERTEX_POINT('',#139);
#139 = CARTESIAN_POINT('',(-3.5,86.35,8.3));
#140 = LINE('',#141,#142);
#141 = CARTESIAN_POINT('',(-3.5,85.95,8.3));
#142 = VECTOR('',#143,1.);
#143 = DIRECTION('',(-4.440892098501E-16,1.,-8.881784197001E-16));
#144 = ORIENTED_EDGE('',*,*,#145,.T.);
#145 = EDGE_CURVE('',#138,#146,#148,.T.);
#146 = VERTEX_POINT('',#147);
#147 = CARTESIAN_POINT('',(-3.5,86.55,8.1));
#148 = CIRCLE('',#149,0.2);
#149 = AXIS2_PLACEMENT_3D('',#150,#151,#152);
#150 = CARTESIAN_POINT('',(-3.5,86.35,8.1));
#151 = DIRECTION('',(-1.,-4.440892098501E-16,-8.881784197001E-16));
#152 = DIRECTION('',(-4.440892098501E-16,1.,-8.881784197001E-16));
#153 = ORIENTED_EDGE('',*,*,#154,.T.);
#154 = EDGE_CURVE('',#146,#155,#157,.T.);
#155 = VERTEX_POINT('',#156);
#156 = CARTESIAN_POINT('',(-3.5,86.55,6.9));
#157 = LINE('',#158,#159);
#158 = CARTESIAN_POINT('',(-3.5,86.55,8.1));
#159 = VECTOR('',#160,1.);
#160 = DIRECTION('',(8.881784197001E-16,4.440892098501E-16,-1.));
#161 = ORIENTED_EDGE('',*,*,#162,.T.);
#162 = EDGE_CURVE('',#155,#163,#165,.T.);
#163 = VERTEX_POINT('',#164);
#164 = CARTESIAN_POINT('',(-3.5,86.35,6.7));
#165 = CIRCLE('',#166,0.2);
#166 = AXIS2_PLACEMENT_3D('',#167,#168,#169);
#167 = CARTESIAN_POINT('',(-3.5,86.35,6.9));
#168 = DIRECTION('',(-1.,-4.440892098501E-16,-8.881784197001E-16));
#169 = DIRECTION('',(-4.440892098501E-16,1.,-8.881784197001E-16));
#170 = ORIENTED_EDGE('',*,*,#171,.T.);
#171 = EDGE_CURVE('',#163,#110,#172,.T.);
#172 = LINE('',#173,#174);
#173 = CARTESIAN_POINT('',(-3.5,86.35,6.7));
#174 = VECTOR('',#175,1.);
#175 = DIRECTION('',(4.440892098501E-16,-1.,8.881784197001E-16));
#176 = FACE_BOUND('',#177,.F.);
#177 = EDGE_LOOP('',(#178,#189,#197,#206,#214,#223,#231,#240));
#178 = ORIENTED_EDGE('',*,*,#179,.T.);
#179 = EDGE_CURVE('',#180,#182,#184,.T.);
#180 = VERTEX_POINT('',#181);
#181 = CARTESIAN_POINT('',(-3.5,84.15,6.7));
#182 = VERTEX_POINT('',#183);
#183 = CARTESIAN_POINT('',(-3.5,83.95,6.9));
#184 = CIRCLE('',#185,0.2);
#185 = AXIS2_PLACEMENT_3D('',#186,#187,#188);
#186 = CARTESIAN_POINT('',(-3.5,84.15,6.9));
#187 = DIRECTION('',(-1.,-4.440892098501E-16,-8.881784197001E-16));
#188 = DIRECTION('',(-4.440892098501E-16,1.,-8.881784197001E-16));
#189 = ORIENTED_EDGE('',*,*,#190,.T.);
#190 = EDGE_CURVE('',#182,#191,#193,.T.);
#191 = VERTEX_POINT('',#192);
#192 = CARTESIAN_POINT('',(-3.5,83.95,8.1));
#193 = LINE('',#194,#195);
#194 = CARTESIAN_POINT('',(-3.5,83.95,6.9));
#195 = VECTOR('',#196,1.);
#196 = DIRECTION('',(-8.881784197001E-16,-4.440892098501E-16,1.));
#197 = ORIENTED_EDGE('',*,*,#198,.T.);
#198 = EDGE_CURVE('',#191,#199,#201,.T.);
#199 = VERTEX_POINT('',#200);
#200 = CARTESIAN_POINT('',(-3.5,84.15,8.3));
#201 = CIRCLE('',#202,0.2);
#202 = AXIS2_PLACEMENT_3D('',#203,#204,#205);
#203 = CARTESIAN_POINT('',(-3.5,84.15,8.1));
#204 = DIRECTION('',(-1.,-4.440892098501E-16,-8.881784197001E-16));
#205 = DIRECTION('',(-4.440892098501E-16,1.,-8.881784197001E-16));
#206 = ORIENTED_EDGE('',*,*,#207,.T.);
#207 = EDGE_CURVE('',#199,#208,#210,.T.);
#208 = VERTEX_POINT('',#209);
#209 = CARTESIAN_POINT('',(-3.5,84.55,8.3));
#210 = LINE('',#211,#212);
#211 = CARTESIAN_POINT('',(-3.5,84.15,8.3));
#212 = VECTOR('',#213,1.);
#213 = DIRECTION('',(-4.440892098501E-16,1.,-8.881784197001E-16));
#214 = ORIENTED_EDGE('',*,*,#215,.T.);
#215 = EDGE_CURVE('',#208,#216,#218,.T.);
#216 = VERTEX_POINT('',#217);
#217 = CARTESIAN_POINT('',(-3.5,84.75,8.1));
#218 = CIRCLE('',#219,0.2);
#219 = AXIS2_PLACEMENT_3D('',#220,#221,#222);
#220 = CARTESIAN_POINT('',(-3.5,84.55,8.1));
#221 = DIRECTION('',(-1.,-4.440892098501E-16,-8.881784197001E-16));
#222 = DIRECTION('',(-4.440892098501E-16,1.,-8.881784197001E-16));
#223 = ORIENTED_EDGE('',*,*,#224,.T.);
#224 = EDGE_CURVE('',#216,#225,#227,.T.);
#225 = VERTEX_POINT('',#226);
#226 = CARTESIAN_POINT('',(-3.5,84.75,6.9));
#227 = LINE('',#228,#229);
#228 = CARTESIAN_POINT('',(-3.5,84.75,8.1));
#229 = VECTOR('',#230,1.);
#230 = DIRECTION('',(8.881784197001E-16,4.440892098501E-16,-1.));
#231 = ORIENTED_EDGE('',*,*,#232,.T.);
#232 = EDGE_CURVE('',#225,#233,#235,.T.);
#233 = VERTEX_POINT('',#234);
#234 = CARTESIAN_POINT('',(-3.5,84.55,6.7));
#235 = CIRCLE('',#236,0.2);
#236 = AXIS2_PLACEMENT_3D('',#237,#238,#239);
#237 = CARTESIAN_POINT('',(-3.5,84.55,6.9));
#238 = DIRECTION('',(-1.,-4.440892098501E-16,-8.881784197001E-16));
#239 = DIRECTION('',(-4.440892098501E-16,1.,-8.881784197001E-16));
#240 = ORIENTED_EDGE('',*,*,#241,.T.);
#241 = EDGE_CURVE('',#233,#180,#242,.T.);
#242 = LINE('',#243,#244);
#243 = CARTESIAN_POINT('',(-3.5,84.55,6.7));
#244 = VECTOR('',#245,1.);
#245 = DIRECTION('',(4.440892098501E-16,-1.,8.881784197001E-16));
#246 = PLANE('',#247);
#247 = AXIS2_PLACEMENT_3D('',#248,#249,#250);
#248 = CARTESIAN_POINT('',(-3.5,85.25,7.5));
#249 = DIRECTION('',(1.,-1.33226762955E-15,-3.330669073875E-16));
#250 = DIRECTION('',(-1.665334536938E-15,-3.330669073875E-16,1.));
#251 = ADVANCED_FACE('',(#252),#277,.T.);
#252 = FACE_BOUND('',#253,.F.);
#253 = EDGE_LOOP('',(#254,#262,#263,#271));
#254 = ORIENTED_EDGE('',*,*,#255,.F.);
#255 = EDGE_CURVE('',#40,#256,#258,.T.);
#256 = VERTEX_POINT('',#257);
#257 = CARTESIAN_POINT('',(-3.2,86.95,5.9));
#258 = LINE('',#259,#260);
#259 = CARTESIAN_POINT('',(-3.35,86.95,6.05));
#260 = VECTOR('',#261,1.);
#261 = DIRECTION('',(0.707106781187,-7.065416064077E-16,-0.707106781187)
  );
#262 = ORIENTED_EDGE('',*,*,#39,.T.);
#263 = ORIENTED_EDGE('',*,*,#264,.T.);
#264 = EDGE_CURVE('',#42,#265,#267,.T.);
#265 = VERTEX_POINT('',#266);
#266 = CARTESIAN_POINT('',(-3.2,83.55,5.9));
#267 = LINE('',#268,#269);
#268 = CARTESIAN_POINT('',(-3.35,83.55,6.05));
#269 = VECTOR('',#270,1.);
#270 = DIRECTION('',(0.707106781187,-7.065416064077E-16,-0.707106781187)
  );
#271 = ORIENTED_EDGE('',*,*,#272,.F.);
#272 = EDGE_CURVE('',#256,#265,#273,.T.);
#273 = LINE('',#274,#275);
#274 = CARTESIAN_POINT('',(-3.2,86.95,5.9));
#275 = VECTOR('',#276,1.);
#276 = DIRECTION('',(-4.067564042546E-31,-1.,9.992007221626E-16));
#277 = PLANE('',#278);
#278 = AXIS2_PLACEMENT_3D('',#279,#280,#281);
#279 = CARTESIAN_POINT('',(-3.35,86.95,6.05));
#280 = DIRECTION('',(-0.707106781187,7.42883712811E-17,-0.707106781187)
  );
#281 = DIRECTION('',(5.521301721775E-16,1.,-4.470705499851E-16));
#282 = ADVANCED_FACE('',(#283),#302,.T.);
#283 = FACE_BOUND('',#284,.F.);
#284 = EDGE_LOOP('',(#285,#293,#294,#295));
#285 = ORIENTED_EDGE('',*,*,#286,.F.);
#286 = EDGE_CURVE('',#50,#287,#289,.T.);
#287 = VERTEX_POINT('',#288);
#288 = CARTESIAN_POINT('',(-3.2,87.65,6.6));
#289 = LINE('',#290,#291);
#290 = CARTESIAN_POINT('',(-3.35,87.5,6.6));
#291 = VECTOR('',#292,1.);
#292 = DIRECTION('',(0.707106781187,0.707106781187,4.710277376051E-16));
#293 = ORIENTED_EDGE('',*,*,#49,.T.);
#294 = ORIENTED_EDGE('',*,*,#255,.T.);
#295 = ORIENTED_EDGE('',*,*,#296,.F.);
#296 = EDGE_CURVE('',#287,#256,#297,.T.);
#297 = CIRCLE('',#298,0.7);
#298 = AXIS2_PLACEMENT_3D('',#299,#300,#301);
#299 = CARTESIAN_POINT('',(-3.2,86.95,6.6));
#300 = DIRECTION('',(-1.,-5.916456789158E-31,-9.992007221626E-16));
#301 = DIRECTION('',(-3.016336452329E-30,1.,2.426630325252E-15));
#302 = CONICAL_SURFACE('',#303,0.7,0.785398163397);
#303 = AXIS2_PLACEMENT_3D('',#304,#305,#306);
#304 = CARTESIAN_POINT('',(-3.2,86.95,6.6));
#305 = DIRECTION('',(1.,5.916456789158E-31,9.992007221626E-16));
#306 = DIRECTION('',(-3.016336452329E-30,1.,2.426630325252E-15));
#307 = ADVANCED_FACE('',(#308),#327,.T.);
#308 = FACE_BOUND('',#309,.F.);
#309 = EDGE_LOOP('',(#310,#311,#312,#320));
#310 = ORIENTED_EDGE('',*,*,#264,.F.);
#311 = ORIENTED_EDGE('',*,*,#100,.T.);
#312 = ORIENTED_EDGE('',*,*,#313,.T.);
#313 = EDGE_CURVE('',#93,#314,#316,.T.);
#314 = VERTEX_POINT('',#315);
#315 = CARTESIAN_POINT('',(-3.2,82.85,6.6));
#316 = LINE('',#317,#318);
#317 = CARTESIAN_POINT('',(-3.2,82.85,6.6));
#318 = VECTOR('',#319,1.);
#319 = DIRECTION('',(0.707106781187,-0.707106781187,-3.026473474311E-15)
  );
#320 = ORIENTED_EDGE('',*,*,#321,.F.);
#321 = EDGE_CURVE('',#265,#314,#322,.T.);
#322 = CIRCLE('',#323,0.7);
#323 = AXIS2_PLACEMENT_3D('',#324,#325,#326);
#324 = CARTESIAN_POINT('',(-3.2,83.55,6.6));
#325 = DIRECTION('',(-1.,-5.916456789158E-31,-9.992007221626E-16));
#326 = DIRECTION('',(9.992007221626E-16,-1.110223024625E-16,-1.));
#327 = CONICAL_SURFACE('',#328,0.7,0.785398163397);
#328 = AXIS2_PLACEMENT_3D('',#329,#330,#331);
#329 = CARTESIAN_POINT('',(-3.2,83.55,6.6));
#330 = DIRECTION('',(1.,5.916456789158E-31,9.992007221626E-16));
#331 = DIRECTION('',(9.992007221626E-16,-1.110223024625E-16,-1.));
#332 = ADVANCED_FACE('',(#333),#351,.T.);
#333 = FACE_BOUND('',#334,.F.);
#334 = EDGE_LOOP('',(#335,#343,#344,#345));
#335 = ORIENTED_EDGE('',*,*,#336,.F.);
#336 = EDGE_CURVE('',#59,#337,#339,.T.);
#337 = VERTEX_POINT('',#338);
#338 = CARTESIAN_POINT('',(-3.2,87.65,8.4));
#339 = LINE('',#340,#341);
#340 = CARTESIAN_POINT('',(-3.2,87.65,8.4));
#341 = VECTOR('',#342,1.);
#342 = DIRECTION('',(0.707106781187,0.707106781187,-1.305575928106E-14)
  );
#343 = ORIENTED_EDGE('',*,*,#58,.T.);
#344 = ORIENTED_EDGE('',*,*,#286,.T.);
#345 = ORIENTED_EDGE('',*,*,#346,.F.);
#346 = EDGE_CURVE('',#337,#287,#347,.T.);
#347 = LINE('',#348,#349);
#348 = CARTESIAN_POINT('',(-3.2,87.65,8.4));
#349 = VECTOR('',#350,1.);
#350 = DIRECTION('',(9.992007221626E-16,-3.330669073875E-16,-1.));
#351 = PLANE('',#352);
#352 = AXIS2_PLACEMENT_3D('',#353,#354,#355);
#353 = CARTESIAN_POINT('',(-3.35,87.5,8.4));
#354 = DIRECTION('',(-0.707106781187,0.707106781187,-3.098022400837E-16)
  );
#355 = DIRECTION('',(-5.521301721775E-16,-1.140036425976E-16,1.));
#356 = ADVANCED_FACE('',(#357),#375,.T.);
#357 = FACE_BOUND('',#358,.F.);
#358 = EDGE_LOOP('',(#359,#360,#361,#369));
#359 = ORIENTED_EDGE('',*,*,#313,.F.);
#360 = ORIENTED_EDGE('',*,*,#92,.T.);
#361 = ORIENTED_EDGE('',*,*,#362,.T.);
#362 = EDGE_CURVE('',#84,#363,#365,.T.);
#363 = VERTEX_POINT('',#364);
#364 = CARTESIAN_POINT('',(-3.2,82.85,8.4));
#365 = LINE('',#366,#367);
#366 = CARTESIAN_POINT('',(-3.35,83.,8.4));
#367 = VECTOR('',#368,1.);
#368 = DIRECTION('',(0.707106781187,-0.707106781187,9.420554752103E-16)
  );
#369 = ORIENTED_EDGE('',*,*,#370,.F.);
#370 = EDGE_CURVE('',#314,#363,#371,.T.);
#371 = LINE('',#372,#373);
#372 = CARTESIAN_POINT('',(-3.2,82.85,6.6));
#373 = VECTOR('',#374,1.);
#374 = DIRECTION('',(-9.992007221626E-16,3.330669073875E-16,1.));
#375 = PLANE('',#376);
#376 = AXIS2_PLACEMENT_3D('',#377,#378,#379);
#377 = CARTESIAN_POINT('',(-3.35,83.,6.6));
#378 = DIRECTION('',(-0.707106781187,-0.707106781187,-1.59738130316E-16)
  );
#379 = DIRECTION('',(7.790857299356E-16,-5.531818996146E-16,-1.));
#380 = ADVANCED_FACE('',(#381),#400,.T.);
#381 = FACE_BOUND('',#382,.F.);
#382 = EDGE_LOOP('',(#383,#391,#392,#393));
#383 = ORIENTED_EDGE('',*,*,#384,.F.);
#384 = EDGE_CURVE('',#67,#385,#387,.T.);
#385 = VERTEX_POINT('',#386);
#386 = CARTESIAN_POINT('',(-3.2,86.95,9.1));
#387 = LINE('',#388,#389);
#388 = CARTESIAN_POINT('',(-3.35,86.95,8.95));
#389 = VECTOR('',#390,1.);
#390 = DIRECTION('',(0.707106781187,7.065416064077E-16,0.707106781187));
#391 = ORIENTED_EDGE('',*,*,#66,.T.);
#392 = ORIENTED_EDGE('',*,*,#336,.T.);
#393 = ORIENTED_EDGE('',*,*,#394,.F.);
#394 = EDGE_CURVE('',#385,#337,#395,.T.);
#395 = CIRCLE('',#396,0.7);
#396 = AXIS2_PLACEMENT_3D('',#397,#398,#399);
#397 = CARTESIAN_POINT('',(-3.2,86.95,8.4));
#398 = DIRECTION('',(-1.,-5.916456789158E-31,-9.992007221626E-16));
#399 = DIRECTION('',(-9.992007221626E-16,2.041224332418E-14,1.));
#400 = CONICAL_SURFACE('',#401,0.7,0.785398163397);
#401 = AXIS2_PLACEMENT_3D('',#402,#403,#404);
#402 = CARTESIAN_POINT('',(-3.2,86.95,8.4));
#403 = DIRECTION('',(1.,5.916456789158E-31,9.992007221626E-16));
#404 = DIRECTION('',(-9.992007221626E-16,2.041224332418E-14,1.));
#405 = ADVANCED_FACE('',(#406),#425,.T.);
#406 = FACE_BOUND('',#407,.F.);
#407 = EDGE_LOOP('',(#408,#409,#410,#418));
#408 = ORIENTED_EDGE('',*,*,#362,.F.);
#409 = ORIENTED_EDGE('',*,*,#83,.T.);
#410 = ORIENTED_EDGE('',*,*,#411,.T.);
#411 = EDGE_CURVE('',#76,#412,#414,.T.);
#412 = VERTEX_POINT('',#413);
#413 = CARTESIAN_POINT('',(-3.2,83.55,9.1));
#414 = LINE('',#415,#416);
#415 = CARTESIAN_POINT('',(-3.2,83.55,9.1));
#416 = VECTOR('',#417,1.);
#417 = DIRECTION('',(0.707106781187,3.492253118592E-16,0.707106781187));
#418 = ORIENTED_EDGE('',*,*,#419,.F.);
#419 = EDGE_CURVE('',#363,#412,#420,.T.);
#420 = CIRCLE('',#421,0.7);
#421 = AXIS2_PLACEMENT_3D('',#422,#423,#424);
#422 = CARTESIAN_POINT('',(-3.2,83.55,8.4));
#423 = DIRECTION('',(-1.,-5.916456789158E-31,-9.992007221626E-16));
#424 = DIRECTION('',(4.807121141191E-31,-1.,1.110223024625E-16));
#425 = CONICAL_SURFACE('',#426,0.7,0.785398163397);
#426 = AXIS2_PLACEMENT_3D('',#427,#428,#429);
#427 = CARTESIAN_POINT('',(-3.2,83.55,8.4));
#428 = DIRECTION('',(1.,5.916456789158E-31,9.992007221626E-16));
#429 = DIRECTION('',(4.807121141191E-31,-1.,1.110223024625E-16));
#430 = ADVANCED_FACE('',(#431),#442,.T.);
#431 = FACE_BOUND('',#432,.F.);
#432 = EDGE_LOOP('',(#433,#434,#435,#436));
#433 = ORIENTED_EDGE('',*,*,#411,.F.);
#434 = ORIENTED_EDGE('',*,*,#75,.T.);
#435 = ORIENTED_EDGE('',*,*,#384,.T.);
#436 = ORIENTED_EDGE('',*,*,#437,.F.);
#437 = EDGE_CURVE('',#412,#385,#438,.T.);
#438 = LINE('',#439,#440);
#439 = CARTESIAN_POINT('',(-3.2,83.55,9.1));
#440 = VECTOR('',#441,1.);
#441 = DIRECTION('',(4.067564042546E-31,1.,-9.992007221626E-16));
#442 = PLANE('',#443);
#443 = AXIS2_PLACEMENT_3D('',#444,#445,#446);
#444 = CARTESIAN_POINT('',(-3.35,83.55,8.95));
#445 = DIRECTION('',(-0.707106781187,7.973262093561E-16,0.707106781187)
  );
#446 = DIRECTION('',(-6.419440837217E-17,-1.,1.063395130535E-15));
#447 = ADVANCED_FACE('',(#448),#474,.T.);
#448 = FACE_BOUND('',#449,.F.);
#449 = EDGE_LOOP('',(#450,#458,#467,#473));
#450 = ORIENTED_EDGE('',*,*,#451,.T.);
#451 = EDGE_CURVE('',#110,#452,#454,.T.);
#452 = VERTEX_POINT('',#453);
#453 = CARTESIAN_POINT('',(-3.8,85.95,6.7));
#454 = LINE('',#455,#456);
#455 = CARTESIAN_POINT('',(-3.5,85.95,6.7));
#456 = VECTOR('',#457,1.);
#457 = DIRECTION('',(-1.,8.881784197001E-16,2.22044604925E-16));
#458 = ORIENTED_EDGE('',*,*,#459,.T.);
#459 = EDGE_CURVE('',#452,#460,#462,.T.);
#460 = VERTEX_POINT('',#461);
#461 = CARTESIAN_POINT('',(-3.8,85.75,6.9));
#462 = CIRCLE('',#463,0.2);
#463 = AXIS2_PLACEMENT_3D('',#464,#465,#466);
#464 = CARTESIAN_POINT('',(-3.8,85.95,6.9));
#465 = DIRECTION('',(-1.,-2.22044604925E-16,-5.627951238594E-16));
#466 = DIRECTION('',(5.627951238594E-16,-1.725633230171E-31,-1.));
#467 = ORIENTED_EDGE('',*,*,#468,.F.);
#468 = EDGE_CURVE('',#112,#460,#469,.T.);
#469 = LINE('',#470,#471);
#470 = CARTESIAN_POINT('',(-3.5,85.75,6.9));
#471 = VECTOR('',#472,1.);
#472 = DIRECTION('',(-1.,8.881784197001E-16,2.22044604925E-16));
#473 = ORIENTED_EDGE('',*,*,#109,.F.);
#474 = CYLINDRICAL_SURFACE('',#475,0.2);
#475 = AXIS2_PLACEMENT_3D('',#476,#477,#478);
#476 = CARTESIAN_POINT('',(-3.5,85.95,6.9));
#477 = DIRECTION('',(1.,-4.440892098501E-16,2.095411779493E-31));
#478 = DIRECTION('',(-2.22044604925E-16,1.,-6.661338147751E-16));
#479 = ADVANCED_FACE('',(#480),#498,.F.);
#480 = FACE_BOUND('',#481,.F.);
#481 = EDGE_LOOP('',(#482,#490,#496,#497));
#482 = ORIENTED_EDGE('',*,*,#483,.T.);
#483 = EDGE_CURVE('',#163,#484,#486,.T.);
#484 = VERTEX_POINT('',#485);
#485 = CARTESIAN_POINT('',(-3.8,86.35,6.7));
#486 = LINE('',#487,#488);
#487 = CARTESIAN_POINT('',(-3.5,86.35,6.7));
#488 = VECTOR('',#489,1.);
#489 = DIRECTION('',(-1.,8.881784197001E-16,2.22044604925E-16));
#490 = ORIENTED_EDGE('',*,*,#491,.T.);
#491 = EDGE_CURVE('',#484,#452,#492,.T.);
#492 = LINE('',#493,#494);
#493 = CARTESIAN_POINT('',(-3.8,86.35,6.7));
#494 = VECTOR('',#495,1.);
#495 = DIRECTION('',(2.22044604925E-16,-1.,6.661338147751E-16));
#496 = ORIENTED_EDGE('',*,*,#451,.F.);
#497 = ORIENTED_EDGE('',*,*,#171,.F.);
#498 = PLANE('',#499);
#499 = AXIS2_PLACEMENT_3D('',#500,#501,#502);
#500 = CARTESIAN_POINT('',(-3.5,86.35,6.7));
#501 = DIRECTION('',(-4.440892098501E-16,9.860761315263E-32,1.));
#502 = DIRECTION('',(2.22044604925E-16,-1.,6.661338147751E-16));
#503 = ADVANCED_FACE('',(#504),#523,.T.);
#504 = FACE_BOUND('',#505,.F.);
#505 = EDGE_LOOP('',(#506,#514,#521,#522));
#506 = ORIENTED_EDGE('',*,*,#507,.T.);
#507 = EDGE_CURVE('',#155,#508,#510,.T.);
#508 = VERTEX_POINT('',#509);
#509 = CARTESIAN_POINT('',(-3.8,86.55,6.9));
#510 = LINE('',#511,#512);
#511 = CARTESIAN_POINT('',(-3.5,86.55,6.9));
#512 = VECTOR('',#513,1.);
#513 = DIRECTION('',(-1.,8.881784197001E-16,2.22044604925E-16));
#514 = ORIENTED_EDGE('',*,*,#515,.T.);
#515 = EDGE_CURVE('',#508,#484,#516,.T.);
#516 = CIRCLE('',#517,0.2);
#517 = AXIS2_PLACEMENT_3D('',#518,#519,#520);
#518 = CARTESIAN_POINT('',(-3.8,86.35,6.9));
#519 = DIRECTION('',(-1.,-2.22044604925E-16,-5.627951238594E-16));
#520 = DIRECTION('',(-2.22044604925E-16,1.,-7.694725056908E-16));
#521 = ORIENTED_EDGE('',*,*,#483,.F.);
#522 = ORIENTED_EDGE('',*,*,#162,.F.);
#523 = CYLINDRICAL_SURFACE('',#524,0.2);
#524 = AXIS2_PLACEMENT_3D('',#525,#526,#527);
#525 = CARTESIAN_POINT('',(-3.5,86.35,6.9));
#526 = DIRECTION('',(1.,-4.440892098501E-16,2.095411779493E-31));
#527 = DIRECTION('',(-2.22044604925E-16,1.,-6.661338147751E-16));
#528 = ADVANCED_FACE('',(#529),#547,.F.);
#529 = FACE_BOUND('',#530,.F.);
#530 = EDGE_LOOP('',(#531,#539,#545,#546));
#531 = ORIENTED_EDGE('',*,*,#532,.T.);
#532 = EDGE_CURVE('',#146,#533,#535,.T.);
#533 = VERTEX_POINT('',#534);
#534 = CARTESIAN_POINT('',(-3.8,86.55,8.1));
#535 = LINE('',#536,#537);
#536 = CARTESIAN_POINT('',(-3.5,86.55,8.1));
#537 = VECTOR('',#538,1.);
#538 = DIRECTION('',(-1.,8.881784197001E-16,2.22044604925E-16));
#539 = ORIENTED_EDGE('',*,*,#540,.T.);
#540 = EDGE_CURVE('',#533,#508,#541,.T.);
#541 = LINE('',#542,#543);
#542 = CARTESIAN_POINT('',(-3.8,86.55,8.1));
#543 = VECTOR('',#544,1.);
#544 = DIRECTION('',(6.661338147751E-16,2.22044604925E-16,-1.));
#545 = ORIENTED_EDGE('',*,*,#507,.F.);
#546 = ORIENTED_EDGE('',*,*,#154,.F.);
#547 = PLANE('',#548);
#548 = AXIS2_PLACEMENT_3D('',#549,#550,#551);
#549 = CARTESIAN_POINT('',(-3.5,86.55,8.1));
#550 = DIRECTION('',(-2.22044604925E-16,-1.,4.440892098501E-16));
#551 = DIRECTION('',(6.661338147751E-16,2.22044604925E-16,-1.));
#552 = ADVANCED_FACE('',(#553),#572,.T.);
#553 = FACE_BOUND('',#554,.F.);
#554 = EDGE_LOOP('',(#555,#563,#570,#571));
#555 = ORIENTED_EDGE('',*,*,#556,.T.);
#556 = EDGE_CURVE('',#138,#557,#559,.T.);
#557 = VERTEX_POINT('',#558);
#558 = CARTESIAN_POINT('',(-3.8,86.35,8.3));
#559 = LINE('',#560,#561);
#560 = CARTESIAN_POINT('',(-3.5,86.35,8.3));
#561 = VECTOR('',#562,1.);
#562 = DIRECTION('',(-1.,8.881784197001E-16,2.22044604925E-16));
#563 = ORIENTED_EDGE('',*,*,#564,.T.);
#564 = EDGE_CURVE('',#557,#533,#565,.T.);
#565 = CIRCLE('',#566,0.2);
#566 = AXIS2_PLACEMENT_3D('',#567,#568,#569);
#567 = CARTESIAN_POINT('',(-3.8,86.35,8.1));
#568 = DIRECTION('',(-1.,-2.22044604925E-16,-5.627951238594E-16));
#569 = DIRECTION('',(-5.627951238594E-16,1.355854680849E-31,1.));
#570 = ORIENTED_EDGE('',*,*,#532,.F.);
#571 = ORIENTED_EDGE('',*,*,#145,.F.);
#572 = CYLINDRICAL_SURFACE('',#573,0.2);
#573 = AXIS2_PLACEMENT_3D('',#574,#575,#576);
#574 = CARTESIAN_POINT('',(-3.5,86.35,8.1));
#575 = DIRECTION('',(1.,-4.440892098501E-16,2.095411779493E-31));
#576 = DIRECTION('',(-2.22044604925E-16,1.,-6.661338147751E-16));
#577 = ADVANCED_FACE('',(#578),#596,.F.);
#578 = FACE_BOUND('',#579,.F.);
#579 = EDGE_LOOP('',(#580,#588,#594,#595));
#580 = ORIENTED_EDGE('',*,*,#581,.T.);
#581 = EDGE_CURVE('',#129,#582,#584,.T.);
#582 = VERTEX_POINT('',#583);
#583 = CARTESIAN_POINT('',(-3.8,85.95,8.3));
#584 = LINE('',#585,#586);
#585 = CARTESIAN_POINT('',(-3.5,85.95,8.3));
#586 = VECTOR('',#587,1.);
#587 = DIRECTION('',(-1.,8.881784197001E-16,2.22044604925E-16));
#588 = ORIENTED_EDGE('',*,*,#589,.T.);
#589 = EDGE_CURVE('',#582,#557,#590,.T.);
#590 = LINE('',#591,#592);
#591 = CARTESIAN_POINT('',(-3.8,85.95,8.3));
#592 = VECTOR('',#593,1.);
#593 = DIRECTION('',(-2.22044604925E-16,1.,-6.661338147751E-16));
#594 = ORIENTED_EDGE('',*,*,#556,.F.);
#595 = ORIENTED_EDGE('',*,*,#137,.F.);
#596 = PLANE('',#597);
#597 = AXIS2_PLACEMENT_3D('',#598,#599,#600);
#598 = CARTESIAN_POINT('',(-3.5,85.95,8.3));
#599 = DIRECTION('',(4.440892098501E-16,-9.860761315263E-32,-1.));
#600 = DIRECTION('',(-2.22044604925E-16,1.,-6.661338147751E-16));
#601 = ADVANCED_FACE('',(#602),#621,.T.);
#602 = FACE_BOUND('',#603,.F.);
#603 = EDGE_LOOP('',(#604,#612,#619,#620));
#604 = ORIENTED_EDGE('',*,*,#605,.T.);
#605 = EDGE_CURVE('',#121,#606,#608,.T.);
#606 = VERTEX_POINT('',#607);
#607 = CARTESIAN_POINT('',(-3.8,85.75,8.1));
#608 = LINE('',#609,#610);
#609 = CARTESIAN_POINT('',(-3.5,85.75,8.1));
#610 = VECTOR('',#611,1.);
#611 = DIRECTION('',(-1.,8.881784197001E-16,2.22044604925E-16));
#612 = ORIENTED_EDGE('',*,*,#613,.T.);
#613 = EDGE_CURVE('',#606,#582,#614,.T.);
#614 = CIRCLE('',#615,0.2);
#615 = AXIS2_PLACEMENT_3D('',#616,#617,#618);
#616 = CARTESIAN_POINT('',(-3.8,85.95,8.1));
#617 = DIRECTION('',(-1.,-2.22044604925E-16,-5.627951238594E-16));
#618 = DIRECTION('',(2.22044604925E-16,-1.,5.627951238594E-16));
#619 = ORIENTED_EDGE('',*,*,#581,.F.);
#620 = ORIENTED_EDGE('',*,*,#128,.F.);
#621 = CYLINDRICAL_SURFACE('',#622,0.2);
#622 = AXIS2_PLACEMENT_3D('',#623,#624,#625);
#623 = CARTESIAN_POINT('',(-3.5,85.95,8.1));
#624 = DIRECTION('',(1.,-4.440892098501E-16,2.095411779493E-31));
#625 = DIRECTION('',(-2.22044604925E-16,1.,-6.661338147751E-16));
#626 = ADVANCED_FACE('',(#627),#638,.F.);
#627 = FACE_BOUND('',#628,.F.);
#628 = EDGE_LOOP('',(#629,#630,#636,#637));
#629 = ORIENTED_EDGE('',*,*,#468,.T.);
#630 = ORIENTED_EDGE('',*,*,#631,.T.);
#631 = EDGE_CURVE('',#460,#606,#632,.T.);
#632 = LINE('',#633,#634);
#633 = CARTESIAN_POINT('',(-3.8,85.75,6.9));
#634 = VECTOR('',#635,1.);
#635 = DIRECTION('',(-6.661338147751E-16,-2.22044604925E-16,1.));
#636 = ORIENTED_EDGE('',*,*,#605,.F.);
#637 = ORIENTED_EDGE('',*,*,#120,.F.);
#638 = PLANE('',#639);
#639 = AXIS2_PLACEMENT_3D('',#640,#641,#642);
#640 = CARTESIAN_POINT('',(-3.5,85.75,6.9));
#641 = DIRECTION('',(2.22044604925E-16,1.,-4.440892098501E-16));
#642 = DIRECTION('',(-6.661338147751E-16,-2.22044604925E-16,1.));
#643 = ADVANCED_FACE('',(#644),#670,.T.);
#644 = FACE_BOUND('',#645,.F.);
#645 = EDGE_LOOP('',(#646,#654,#663,#669));
#646 = ORIENTED_EDGE('',*,*,#647,.T.);
#647 = EDGE_CURVE('',#180,#648,#650,.T.);
#648 = VERTEX_POINT('',#649);
#649 = CARTESIAN_POINT('',(-3.8,84.15,6.7));
#650 = LINE('',#651,#652);
#651 = CARTESIAN_POINT('',(-3.5,84.15,6.7));
#652 = VECTOR('',#653,1.);
#653 = DIRECTION('',(-1.,8.881784197001E-16,2.22044604925E-16));
#654 = ORIENTED_EDGE('',*,*,#655,.T.);
#655 = EDGE_CURVE('',#648,#656,#658,.T.);
#656 = VERTEX_POINT('',#657);
#657 = CARTESIAN_POINT('',(-3.8,83.95,6.9));
#658 = CIRCLE('',#659,0.2);
#659 = AXIS2_PLACEMENT_3D('',#660,#661,#662);
#660 = CARTESIAN_POINT('',(-3.8,84.15,6.9));
#661 = DIRECTION('',(-1.,-2.22044604925E-16,-5.627951238594E-16));
#662 = DIRECTION('',(5.627951238594E-16,-1.725633230171E-31,-1.));
#663 = ORIENTED_EDGE('',*,*,#664,.F.);
#664 = EDGE_CURVE('',#182,#656,#665,.T.);
#665 = LINE('',#666,#667);
#666 = CARTESIAN_POINT('',(-3.5,83.95,6.9));
#667 = VECTOR('',#668,1.);
#668 = DIRECTION('',(-1.,8.881784197001E-16,2.22044604925E-16));
#669 = ORIENTED_EDGE('',*,*,#179,.F.);
#670 = CYLINDRICAL_SURFACE('',#671,0.2);
#671 = AXIS2_PLACEMENT_3D('',#672,#673,#674);
#672 = CARTESIAN_POINT('',(-3.5,84.15,6.9));
#673 = DIRECTION('',(1.,-4.440892098501E-16,2.095411779493E-31));
#674 = DIRECTION('',(-2.22044604925E-16,1.,-6.661338147751E-16));
#675 = ADVANCED_FACE('',(#676),#694,.F.);
#676 = FACE_BOUND('',#677,.F.);
#677 = EDGE_LOOP('',(#678,#686,#692,#693));
#678 = ORIENTED_EDGE('',*,*,#679,.T.);
#679 = EDGE_CURVE('',#233,#680,#682,.T.);
#680 = VERTEX_POINT('',#681);
#681 = CARTESIAN_POINT('',(-3.8,84.55,6.7));
#682 = LINE('',#683,#684);
#683 = CARTESIAN_POINT('',(-3.5,84.55,6.7));
#684 = VECTOR('',#685,1.);
#685 = DIRECTION('',(-1.,8.881784197001E-16,2.22044604925E-16));
#686 = ORIENTED_EDGE('',*,*,#687,.T.);
#687 = EDGE_CURVE('',#680,#648,#688,.T.);
#688 = LINE('',#689,#690);
#689 = CARTESIAN_POINT('',(-3.8,84.55,6.7));
#690 = VECTOR('',#691,1.);
#691 = DIRECTION('',(2.22044604925E-16,-1.,6.661338147751E-16));
#692 = ORIENTED_EDGE('',*,*,#647,.F.);
#693 = ORIENTED_EDGE('',*,*,#241,.F.);
#694 = PLANE('',#695);
#695 = AXIS2_PLACEMENT_3D('',#696,#697,#698);
#696 = CARTESIAN_POINT('',(-3.5,84.55,6.7));
#697 = DIRECTION('',(-4.440892098501E-16,9.860761315263E-32,1.));
#698 = DIRECTION('',(2.22044604925E-16,-1.,6.661338147751E-16));
#699 = ADVANCED_FACE('',(#700),#719,.T.);
#700 = FACE_BOUND('',#701,.F.);
#701 = EDGE_LOOP('',(#702,#710,#717,#718));
#702 = ORIENTED_EDGE('',*,*,#703,.T.);
#703 = EDGE_CURVE('',#225,#704,#706,.T.);
#704 = VERTEX_POINT('',#705);
#705 = CARTESIAN_POINT('',(-3.8,84.75,6.9));
#706 = LINE('',#707,#708);
#707 = CARTESIAN_POINT('',(-3.5,84.75,6.9));
#708 = VECTOR('',#709,1.);
#709 = DIRECTION('',(-1.,8.881784197001E-16,2.22044604925E-16));
#710 = ORIENTED_EDGE('',*,*,#711,.T.);
#711 = EDGE_CURVE('',#704,#680,#712,.T.);
#712 = CIRCLE('',#713,0.2);
#713 = AXIS2_PLACEMENT_3D('',#714,#715,#716);
#714 = CARTESIAN_POINT('',(-3.8,84.55,6.9));
#715 = DIRECTION('',(-1.,-2.22044604925E-16,-5.627951238594E-16));
#716 = DIRECTION('',(-2.22044604925E-16,1.,-7.694725056908E-16));
#717 = ORIENTED_EDGE('',*,*,#679,.F.);
#718 = ORIENTED_EDGE('',*,*,#232,.F.);
#719 = CYLINDRICAL_SURFACE('',#720,0.2);
#720 = AXIS2_PLACEMENT_3D('',#721,#722,#723);
#721 = CARTESIAN_POINT('',(-3.5,84.55,6.9));
#722 = DIRECTION('',(1.,-4.440892098501E-16,2.095411779493E-31));
#723 = DIRECTION('',(-2.22044604925E-16,1.,-6.661338147751E-16));
#724 = ADVANCED_FACE('',(#725),#743,.F.);
#725 = FACE_BOUND('',#726,.F.);
#726 = EDGE_LOOP('',(#727,#735,#741,#742));
#727 = ORIENTED_EDGE('',*,*,#728,.T.);
#728 = EDGE_CURVE('',#216,#729,#731,.T.);
#729 = VERTEX_POINT('',#730);
#730 = CARTESIAN_POINT('',(-3.8,84.75,8.1));
#731 = LINE('',#732,#733);
#732 = CARTESIAN_POINT('',(-3.5,84.75,8.1));
#733 = VECTOR('',#734,1.);
#734 = DIRECTION('',(-1.,8.881784197001E-16,2.22044604925E-16));
#735 = ORIENTED_EDGE('',*,*,#736,.T.);
#736 = EDGE_CURVE('',#729,#704,#737,.T.);
#737 = LINE('',#738,#739);
#738 = CARTESIAN_POINT('',(-3.8,84.75,8.1));
#739 = VECTOR('',#740,1.);
#740 = DIRECTION('',(6.661338147751E-16,2.22044604925E-16,-1.));
#741 = ORIENTED_EDGE('',*,*,#703,.F.);
#742 = ORIENTED_EDGE('',*,*,#224,.F.);
#743 = PLANE('',#744);
#744 = AXIS2_PLACEMENT_3D('',#745,#746,#747);
#745 = CARTESIAN_POINT('',(-3.5,84.75,8.1));
#746 = DIRECTION('',(-2.22044604925E-16,-1.,4.440892098501E-16));
#747 = DIRECTION('',(6.661338147751E-16,2.22044604925E-16,-1.));
#748 = ADVANCED_FACE('',(#749),#768,.T.);
#749 = FACE_BOUND('',#750,.F.);
#750 = EDGE_LOOP('',(#751,#759,#766,#767));
#751 = ORIENTED_EDGE('',*,*,#752,.T.);
#752 = EDGE_CURVE('',#208,#753,#755,.T.);
#753 = VERTEX_POINT('',#754);
#754 = CARTESIAN_POINT('',(-3.8,84.55,8.3));
#755 = LINE('',#756,#757);
#756 = CARTESIAN_POINT('',(-3.5,84.55,8.3));
#757 = VECTOR('',#758,1.);
#758 = DIRECTION('',(-1.,8.881784197001E-16,2.22044604925E-16));
#759 = ORIENTED_EDGE('',*,*,#760,.T.);
#760 = EDGE_CURVE('',#753,#729,#761,.T.);
#761 = CIRCLE('',#762,0.2);
#762 = AXIS2_PLACEMENT_3D('',#763,#764,#765);
#763 = CARTESIAN_POINT('',(-3.8,84.55,8.1));
#764 = DIRECTION('',(-1.,-2.22044604925E-16,-5.627951238594E-16));
#765 = DIRECTION('',(-5.627951238594E-16,1.355854680849E-31,1.));
#766 = ORIENTED_EDGE('',*,*,#728,.F.);
#767 = ORIENTED_EDGE('',*,*,#215,.F.);
#768 = CYLINDRICAL_SURFACE('',#769,0.2);
#769 = AXIS2_PLACEMENT_3D('',#770,#771,#772);
#770 = CARTESIAN_POINT('',(-3.5,84.55,8.1));
#771 = DIRECTION('',(1.,-4.440892098501E-16,2.095411779493E-31));
#772 = DIRECTION('',(-2.22044604925E-16,1.,-6.661338147751E-16));
#773 = ADVANCED_FACE('',(#774),#792,.F.);
#774 = FACE_BOUND('',#775,.F.);
#775 = EDGE_LOOP('',(#776,#784,#790,#791));
#776 = ORIENTED_EDGE('',*,*,#777,.T.);
#777 = EDGE_CURVE('',#199,#778,#780,.T.);
#778 = VERTEX_POINT('',#779);
#779 = CARTESIAN_POINT('',(-3.8,84.15,8.3));
#780 = LINE('',#781,#782);
#781 = CARTESIAN_POINT('',(-3.5,84.15,8.3));
#782 = VECTOR('',#783,1.);
#783 = DIRECTION('',(-1.,8.881784197001E-16,2.22044604925E-16));
#784 = ORIENTED_EDGE('',*,*,#785,.T.);
#785 = EDGE_CURVE('',#778,#753,#786,.T.);
#786 = LINE('',#787,#788);
#787 = CARTESIAN_POINT('',(-3.8,84.15,8.3));
#788 = VECTOR('',#789,1.);
#789 = DIRECTION('',(-2.22044604925E-16,1.,-6.661338147751E-16));
#790 = ORIENTED_EDGE('',*,*,#752,.F.);
#791 = ORIENTED_EDGE('',*,*,#207,.F.);
#792 = PLANE('',#793);
#793 = AXIS2_PLACEMENT_3D('',#794,#795,#796);
#794 = CARTESIAN_POINT('',(-3.5,84.15,8.3));
#795 = DIRECTION('',(4.440892098501E-16,-9.860761315263E-32,-1.));
#796 = DIRECTION('',(-2.22044604925E-16,1.,-6.661338147751E-16));
#797 = ADVANCED_FACE('',(#798),#817,.T.);
#798 = FACE_BOUND('',#799,.F.);
#799 = EDGE_LOOP('',(#800,#808,#815,#816));
#800 = ORIENTED_EDGE('',*,*,#801,.T.);
#801 = EDGE_CURVE('',#191,#802,#804,.T.);
#802 = VERTEX_POINT('',#803);
#803 = CARTESIAN_POINT('',(-3.8,83.95,8.1));
#804 = LINE('',#805,#806);
#805 = CARTESIAN_POINT('',(-3.5,83.95,8.1));
#806 = VECTOR('',#807,1.);
#807 = DIRECTION('',(-1.,8.881784197001E-16,2.22044604925E-16));
#808 = ORIENTED_EDGE('',*,*,#809,.T.);
#809 = EDGE_CURVE('',#802,#778,#810,.T.);
#810 = CIRCLE('',#811,0.2);
#811 = AXIS2_PLACEMENT_3D('',#812,#813,#814);
#812 = CARTESIAN_POINT('',(-3.8,84.15,8.1));
#813 = DIRECTION('',(-1.,-2.22044604925E-16,-5.627951238594E-16));
#814 = DIRECTION('',(2.22044604925E-16,-1.,5.627951238594E-16));
#815 = ORIENTED_EDGE('',*,*,#777,.F.);
#816 = ORIENTED_EDGE('',*,*,#198,.F.);
#817 = CYLINDRICAL_SURFACE('',#818,0.2);
#818 = AXIS2_PLACEMENT_3D('',#819,#820,#821);
#819 = CARTESIAN_POINT('',(-3.5,84.15,8.1));
#820 = DIRECTION('',(1.,-4.440892098501E-16,2.095411779493E-31));
#821 = DIRECTION('',(-2.22044604925E-16,1.,-6.661338147751E-16));
#822 = ADVANCED_FACE('',(#823),#834,.F.);
#823 = FACE_BOUND('',#824,.F.);
#824 = EDGE_LOOP('',(#825,#826,#832,#833));
#825 = ORIENTED_EDGE('',*,*,#664,.T.);
#826 = ORIENTED_EDGE('',*,*,#827,.T.);
#827 = EDGE_CURVE('',#656,#802,#828,.T.);
#828 = LINE('',#829,#830);
#829 = CARTESIAN_POINT('',(-3.8,83.95,6.9));
#830 = VECTOR('',#831,1.);
#831 = DIRECTION('',(-6.661338147751E-16,-2.22044604925E-16,1.));
#832 = ORIENTED_EDGE('',*,*,#801,.F.);
#833 = ORIENTED_EDGE('',*,*,#190,.F.);
#834 = PLANE('',#835);
#835 = AXIS2_PLACEMENT_3D('',#836,#837,#838);
#836 = CARTESIAN_POINT('',(-3.5,83.95,6.9));
#837 = DIRECTION('',(2.22044604925E-16,1.,-4.440892098501E-16));
#838 = DIRECTION('',(-6.661338147751E-16,-2.22044604925E-16,1.));
#839 = ADVANCED_FACE('',(#840),#865,.F.);
#840 = FACE_BOUND('',#841,.F.);
#841 = EDGE_LOOP('',(#842,#850,#851,#859));
#842 = ORIENTED_EDGE('',*,*,#843,.T.);
#843 = EDGE_CURVE('',#844,#256,#846,.T.);
#844 = VERTEX_POINT('',#845);
#845 = CARTESIAN_POINT('',(-1.,86.95,5.9));
#846 = LINE('',#847,#848);
#847 = CARTESIAN_POINT('',(-1.,86.95,5.9));
#848 = VECTOR('',#849,1.);
#849 = DIRECTION('',(-1.,1.110223024625E-15,1.110223024625E-16));
#850 = ORIENTED_EDGE('',*,*,#272,.T.);
#851 = ORIENTED_EDGE('',*,*,#852,.F.);
#852 = EDGE_CURVE('',#853,#265,#855,.T.);
#853 = VERTEX_POINT('',#854);
#854 = CARTESIAN_POINT('',(-1.,83.55,5.9));
#855 = LINE('',#856,#857);
#856 = CARTESIAN_POINT('',(-1.,83.55,5.9));
#857 = VECTOR('',#858,1.);
#858 = DIRECTION('',(-1.,1.110223024625E-15,1.110223024625E-16));
#859 = ORIENTED_EDGE('',*,*,#860,.F.);
#860 = EDGE_CURVE('',#844,#853,#861,.T.);
#861 = LINE('',#862,#863);
#862 = CARTESIAN_POINT('',(-1.,86.95,5.9));
#863 = VECTOR('',#864,1.);
#864 = DIRECTION('',(6.661338147751E-16,-1.,1.665334536938E-15));
#865 = PLANE('',#866);
#866 = AXIS2_PLACEMENT_3D('',#867,#868,#869);
#867 = CARTESIAN_POINT('',(-1.,86.95,5.9));
#868 = DIRECTION('',(-1.221245327088E-15,1.110223024625E-16,1.));
#869 = DIRECTION('',(4.440892098501E-16,-1.,1.443289932013E-15));
#870 = ADVANCED_FACE('',(#871),#890,.T.);
#871 = FACE_BOUND('',#872,.F.);
#872 = EDGE_LOOP('',(#873,#881,#882,#883));
#873 = ORIENTED_EDGE('',*,*,#874,.T.);
#874 = EDGE_CURVE('',#875,#287,#877,.T.);
#875 = VERTEX_POINT('',#876);
#876 = CARTESIAN_POINT('',(-1.,87.65,6.6));
#877 = LINE('',#878,#879);
#878 = CARTESIAN_POINT('',(-1.,87.65,6.6));
#879 = VECTOR('',#880,1.);
#880 = DIRECTION('',(-1.,1.110223024625E-15,1.110223024625E-16));
#881 = ORIENTED_EDGE('',*,*,#296,.T.);
#882 = ORIENTED_EDGE('',*,*,#843,.F.);
#883 = ORIENTED_EDGE('',*,*,#884,.F.);
#884 = EDGE_CURVE('',#875,#844,#885,.T.);
#885 = CIRCLE('',#886,0.7);
#886 = AXIS2_PLACEMENT_3D('',#887,#888,#889);
#887 = CARTESIAN_POINT('',(-1.,86.95,6.6));
#888 = DIRECTION('',(-1.,-6.661338147751E-16,-1.665334536938E-15));
#889 = DIRECTION('',(-6.661338147751E-16,1.,-1.665334536938E-15));
#890 = CYLINDRICAL_SURFACE('',#891,0.7);
#891 = AXIS2_PLACEMENT_3D('',#892,#893,#894);
#892 = CARTESIAN_POINT('',(-1.,86.95,6.6));
#893 = DIRECTION('',(1.,-8.881784197001E-16,1.110223024625E-16));
#894 = DIRECTION('',(-4.440892098501E-16,1.,-1.443289932013E-15));
#895 = ADVANCED_FACE('',(#896),#915,.T.);
#896 = FACE_BOUND('',#897,.F.);
#897 = EDGE_LOOP('',(#898,#899,#900,#908));
#898 = ORIENTED_EDGE('',*,*,#852,.T.);
#899 = ORIENTED_EDGE('',*,*,#321,.T.);
#900 = ORIENTED_EDGE('',*,*,#901,.F.);
#901 = EDGE_CURVE('',#902,#314,#904,.T.);
#902 = VERTEX_POINT('',#903);
#903 = CARTESIAN_POINT('',(-1.,82.85,6.6));
#904 = LINE('',#905,#906);
#905 = CARTESIAN_POINT('',(-1.,82.85,6.6));
#906 = VECTOR('',#907,1.);
#907 = DIRECTION('',(-1.,1.110223024625E-15,1.110223024625E-16));
#908 = ORIENTED_EDGE('',*,*,#909,.F.);
#909 = EDGE_CURVE('',#853,#902,#910,.T.);
#910 = CIRCLE('',#911,0.7);
#911 = AXIS2_PLACEMENT_3D('',#912,#913,#914);
#912 = CARTESIAN_POINT('',(-1.,83.55,6.6));
#913 = DIRECTION('',(-1.,-6.661338147751E-16,-1.665334536938E-15));
#914 = DIRECTION('',(-6.661338147751E-16,1.,-1.665334536938E-15));
#915 = CYLINDRICAL_SURFACE('',#916,0.7);
#916 = AXIS2_PLACEMENT_3D('',#917,#918,#919);
#917 = CARTESIAN_POINT('',(-1.,83.55,6.6));
#918 = DIRECTION('',(1.,-8.881784197001E-16,1.110223024625E-16));
#919 = DIRECTION('',(-4.440892098501E-16,1.,-1.443289932013E-15));
#920 = ADVANCED_FACE('',(#921),#939,.F.);
#921 = FACE_BOUND('',#922,.F.);
#922 = EDGE_LOOP('',(#923,#931,#932,#933));
#923 = ORIENTED_EDGE('',*,*,#924,.T.);
#924 = EDGE_CURVE('',#925,#337,#927,.T.);
#925 = VERTEX_POINT('',#926);
#926 = CARTESIAN_POINT('',(-1.,87.65,8.4));
#927 = LINE('',#928,#929);
#928 = CARTESIAN_POINT('',(-1.,87.65,8.4));
#929 = VECTOR('',#930,1.);
#930 = DIRECTION('',(-1.,1.110223024625E-15,1.110223024625E-16));
#931 = ORIENTED_EDGE('',*,*,#346,.T.);
#932 = ORIENTED_EDGE('',*,*,#874,.F.);
#933 = ORIENTED_EDGE('',*,*,#934,.F.);
#934 = EDGE_CURVE('',#925,#875,#935,.T.);
#935 = LINE('',#936,#937);
#936 = CARTESIAN_POINT('',(-1.,87.65,8.4));
#937 = VECTOR('',#938,1.);
#938 = DIRECTION('',(1.665334536938E-15,3.330669073875E-16,-1.));
#939 = PLANE('',#940);
#940 = AXIS2_PLACEMENT_3D('',#941,#942,#943);
#941 = CARTESIAN_POINT('',(-1.,87.65,8.4));
#942 = DIRECTION('',(2.22044604925E-16,-1.,1.221245327088E-15));
#943 = DIRECTION('',(1.443289932013E-15,1.110223024625E-16,-1.));
#944 = ADVANCED_FACE('',(#945),#963,.F.);
#945 = FACE_BOUND('',#946,.F.);
#946 = EDGE_LOOP('',(#947,#948,#949,#957));
#947 = ORIENTED_EDGE('',*,*,#901,.T.);
#948 = ORIENTED_EDGE('',*,*,#370,.T.);
#949 = ORIENTED_EDGE('',*,*,#950,.F.);
#950 = EDGE_CURVE('',#951,#363,#953,.T.);
#951 = VERTEX_POINT('',#952);
#952 = CARTESIAN_POINT('',(-1.,82.85,8.4));
#953 = LINE('',#954,#955);
#954 = CARTESIAN_POINT('',(-1.,82.85,8.4));
#955 = VECTOR('',#956,1.);
#956 = DIRECTION('',(-1.,1.110223024625E-15,1.110223024625E-16));
#957 = ORIENTED_EDGE('',*,*,#958,.F.);
#958 = EDGE_CURVE('',#902,#951,#959,.T.);
#959 = LINE('',#960,#961);
#960 = CARTESIAN_POINT('',(-1.,82.85,6.6));
#961 = VECTOR('',#962,1.);
#962 = DIRECTION('',(-1.665334536938E-15,-3.330669073875E-16,1.));
#963 = PLANE('',#964);
#964 = AXIS2_PLACEMENT_3D('',#965,#966,#967);
#965 = CARTESIAN_POINT('',(-1.,82.85,6.6));
#966 = DIRECTION('',(-2.22044604925E-16,1.,-1.221245327088E-15));
#967 = DIRECTION('',(-1.443289932013E-15,-1.110223024625E-16,1.));
#968 = ADVANCED_FACE('',(#969),#988,.T.);
#969 = FACE_BOUND('',#970,.F.);
#970 = EDGE_LOOP('',(#971,#979,#980,#981));
#971 = ORIENTED_EDGE('',*,*,#972,.T.);
#972 = EDGE_CURVE('',#973,#385,#975,.T.);
#973 = VERTEX_POINT('',#974);
#974 = CARTESIAN_POINT('',(-1.,86.95,9.1));
#975 = LINE('',#976,#977);
#976 = CARTESIAN_POINT('',(-1.,86.95,9.1));
#977 = VECTOR('',#978,1.);
#978 = DIRECTION('',(-1.,1.110223024625E-15,1.110223024625E-16));
#979 = ORIENTED_EDGE('',*,*,#394,.T.);
#980 = ORIENTED_EDGE('',*,*,#924,.F.);
#981 = ORIENTED_EDGE('',*,*,#982,.F.);
#982 = EDGE_CURVE('',#973,#925,#983,.T.);
#983 = CIRCLE('',#984,0.7);
#984 = AXIS2_PLACEMENT_3D('',#985,#986,#987);
#985 = CARTESIAN_POINT('',(-1.,86.95,8.4));
#986 = DIRECTION('',(-1.,-6.661338147751E-16,-1.665334536938E-15));
#987 = DIRECTION('',(-6.661338147751E-16,1.,-1.665334536938E-15));
#988 = CYLINDRICAL_SURFACE('',#989,0.7);
#989 = AXIS2_PLACEMENT_3D('',#990,#991,#992);
#990 = CARTESIAN_POINT('',(-1.,86.95,8.4));
#991 = DIRECTION('',(1.,-8.881784197001E-16,1.110223024625E-16));
#992 = DIRECTION('',(-4.440892098501E-16,1.,-1.443289932013E-15));
#993 = ADVANCED_FACE('',(#994),#1013,.T.);
#994 = FACE_BOUND('',#995,.F.);
#995 = EDGE_LOOP('',(#996,#997,#998,#1006));
#996 = ORIENTED_EDGE('',*,*,#950,.T.);
#997 = ORIENTED_EDGE('',*,*,#419,.T.);
#998 = ORIENTED_EDGE('',*,*,#999,.F.);
#999 = EDGE_CURVE('',#1000,#412,#1002,.T.);
#1000 = VERTEX_POINT('',#1001);
#1001 = CARTESIAN_POINT('',(-1.,83.55,9.1));
#1002 = LINE('',#1003,#1004);
#1003 = CARTESIAN_POINT('',(-1.,83.55,9.1));
#1004 = VECTOR('',#1005,1.);
#1005 = DIRECTION('',(-1.,1.110223024625E-15,1.110223024625E-16));
#1006 = ORIENTED_EDGE('',*,*,#1007,.F.);
#1007 = EDGE_CURVE('',#951,#1000,#1008,.T.);
#1008 = CIRCLE('',#1009,0.7);
#1009 = AXIS2_PLACEMENT_3D('',#1010,#1011,#1012);
#1010 = CARTESIAN_POINT('',(-1.,83.55,8.4));
#1011 = DIRECTION('',(-1.,-6.661338147751E-16,-1.665334536938E-15));
#1012 = DIRECTION('',(-6.661338147751E-16,1.,-1.665334536938E-15));
#1013 = CYLINDRICAL_SURFACE('',#1014,0.7);
#1014 = AXIS2_PLACEMENT_3D('',#1015,#1016,#1017);
#1015 = CARTESIAN_POINT('',(-1.,83.55,8.4));
#1016 = DIRECTION('',(1.,-8.881784197001E-16,1.110223024625E-16));
#1017 = DIRECTION('',(-4.440892098501E-16,1.,-1.443289932013E-15));
#1018 = ADVANCED_FACE('',(#1019),#1030,.F.);
#1019 = FACE_BOUND('',#1020,.F.);
#1020 = EDGE_LOOP('',(#1021,#1022,#1023,#1024));
#1021 = ORIENTED_EDGE('',*,*,#999,.T.);
#1022 = ORIENTED_EDGE('',*,*,#437,.T.);
#1023 = ORIENTED_EDGE('',*,*,#972,.F.);
#1024 = ORIENTED_EDGE('',*,*,#1025,.F.);
#1025 = EDGE_CURVE('',#1000,#973,#1026,.T.);
#1026 = LINE('',#1027,#1028);
#1027 = CARTESIAN_POINT('',(-1.,83.55,9.1));
#1028 = VECTOR('',#1029,1.);
#1029 = DIRECTION('',(-6.661338147751E-16,1.,-1.665334536938E-15));
#1030 = PLANE('',#1031);
#1031 = AXIS2_PLACEMENT_3D('',#1032,#1033,#1034);
#1032 = CARTESIAN_POINT('',(-1.,83.55,9.1));
#1033 = DIRECTION('',(1.221245327088E-15,-1.110223024625E-16,-1.));
#1034 = DIRECTION('',(-4.440892098501E-16,1.,-1.443289932013E-15));
#1035 = ADVANCED_FACE('',(#1036),#1055,.T.);
#1036 = FACE_BOUND('',#1037,.T.);
#1037 = EDGE_LOOP('',(#1038,#1047,#1048));
#1038 = ORIENTED_EDGE('',*,*,#1039,.F.);
#1039 = EDGE_CURVE('',#452,#1040,#1042,.T.);
#1040 = VERTEX_POINT('',#1041);
#1041 = CARTESIAN_POINT('',(-4.,85.95,6.9));
#1042 = CIRCLE('',#1043,0.2);
#1043 = AXIS2_PLACEMENT_3D('',#1044,#1045,#1046);
#1044 = CARTESIAN_POINT('',(-3.8,85.95,6.9));
#1045 = DIRECTION('',(4.440892098501E-16,1.,9.860761315263E-32));
#1046 = DIRECTION('',(4.440892098501E-16,-9.860761315263E-32,-1.));
#1047 = ORIENTED_EDGE('',*,*,#459,.T.);
#1048 = ORIENTED_EDGE('',*,*,#1049,.T.);
#1049 = EDGE_CURVE('',#460,#1040,#1050,.T.);
#1050 = CIRCLE('',#1051,0.2);
#1051 = AXIS2_PLACEMENT_3D('',#1052,#1053,#1054);
#1052 = CARTESIAN_POINT('',(-3.8,85.95,6.9));
#1053 = DIRECTION('',(1.232595164408E-32,-4.440892098501E-16,-1.));
#1054 = DIRECTION('',(-2.22044604925E-16,-1.,4.440892098501E-16));
#1055 = SPHERICAL_SURFACE('',#1056,0.2);
#1056 = AXIS2_PLACEMENT_3D('',#1057,#1058,#1059);
#1057 = CARTESIAN_POINT('',(-3.8,85.95,6.9));
#1058 = DIRECTION('',(-1.,4.440892098501E-16,1.033386909157E-16));
#1059 = DIRECTION('',(5.627951238594E-16,-1.725633230171E-31,-1.));
#1060 = ADVANCED_FACE('',(#1061),#1080,.T.);
#1061 = FACE_BOUND('',#1062,.F.);
#1062 = EDGE_LOOP('',(#1063,#1072,#1078,#1079));
#1063 = ORIENTED_EDGE('',*,*,#1064,.T.);
#1064 = EDGE_CURVE('',#484,#1065,#1067,.T.);
#1065 = VERTEX_POINT('',#1066);
#1066 = CARTESIAN_POINT('',(-4.,86.35,6.9));
#1067 = CIRCLE('',#1068,0.2);
#1068 = AXIS2_PLACEMENT_3D('',#1069,#1070,#1071);
#1069 = CARTESIAN_POINT('',(-3.8,86.35,6.9));
#1070 = DIRECTION('',(4.440892098501E-16,1.,2.482688940065E-14));
#1071 = DIRECTION('',(5.627951238593E-16,2.482688940065E-14,-1.));
#1072 = ORIENTED_EDGE('',*,*,#1073,.T.);
#1073 = EDGE_CURVE('',#1065,#1040,#1074,.T.);
#1074 = LINE('',#1075,#1076);
#1075 = CARTESIAN_POINT('',(-4.,86.35,6.9));
#1076 = VECTOR('',#1077,1.);
#1077 = DIRECTION('',(2.22044604925E-16,-1.,6.661338147751E-16));
#1078 = ORIENTED_EDGE('',*,*,#1039,.F.);
#1079 = ORIENTED_EDGE('',*,*,#491,.F.);
#1080 = CYLINDRICAL_SURFACE('',#1081,0.2);
#1081 = AXIS2_PLACEMENT_3D('',#1082,#1083,#1084);
#1082 = CARTESIAN_POINT('',(-3.8,86.35,6.9));
#1083 = DIRECTION('',(2.22044604925E-16,-1.,6.661338147751E-16));
#1084 = DIRECTION('',(4.440892098501E-16,-9.860761315263E-32,-1.));
#1085 = ADVANCED_FACE('',(#1086),#1097,.T.);
#1086 = FACE_BOUND('',#1087,.T.);
#1087 = EDGE_LOOP('',(#1088,#1095,#1096));
#1088 = ORIENTED_EDGE('',*,*,#1089,.F.);
#1089 = EDGE_CURVE('',#508,#1065,#1090,.T.);
#1090 = CIRCLE('',#1091,0.2);
#1091 = AXIS2_PLACEMENT_3D('',#1092,#1093,#1094);
#1092 = CARTESIAN_POINT('',(-3.8,86.35,6.9));
#1093 = DIRECTION('',(-1.232595164408E-32,4.440892098501E-16,1.));
#1094 = DIRECTION('',(2.22044604925E-16,1.,-4.440892098501E-16));
#1095 = ORIENTED_EDGE('',*,*,#515,.T.);
#1096 = ORIENTED_EDGE('',*,*,#1064,.T.);
#1097 = SPHERICAL_SURFACE('',#1098,0.2);
#1098 = AXIS2_PLACEMENT_3D('',#1099,#1100,#1101);
#1099 = CARTESIAN_POINT('',(-3.8,86.35,6.9));
#1100 = DIRECTION('',(-1.,4.440892098501E-16,1.033386909157E-16));
#1101 = DIRECTION('',(-2.22044604925E-16,1.,-7.694725056908E-16));
#1102 = ADVANCED_FACE('',(#1103),#1122,.T.);
#1103 = FACE_BOUND('',#1104,.F.);
#1104 = EDGE_LOOP('',(#1105,#1114,#1120,#1121));
#1105 = ORIENTED_EDGE('',*,*,#1106,.T.);
#1106 = EDGE_CURVE('',#533,#1107,#1109,.T.);
#1107 = VERTEX_POINT('',#1108);
#1108 = CARTESIAN_POINT('',(-4.,86.35,8.1));
#1109 = CIRCLE('',#1110,0.2);
#1110 = AXIS2_PLACEMENT_3D('',#1111,#1112,#1113);
#1111 = CARTESIAN_POINT('',(-3.8,86.35,8.1));
#1112 = DIRECTION('',(1.033386909157E-16,1.493079894518E-15,1.));
#1113 = DIRECTION('',(-2.22044604925E-16,1.,-1.493079894518E-15));
#1114 = ORIENTED_EDGE('',*,*,#1115,.T.);
#1115 = EDGE_CURVE('',#1107,#1065,#1116,.T.);
#1116 = LINE('',#1117,#1118);
#1117 = CARTESIAN_POINT('',(-4.,86.35,8.1));
#1118 = VECTOR('',#1119,1.);
#1119 = DIRECTION('',(6.661338147751E-16,2.22044604925E-16,-1.));
#1120 = ORIENTED_EDGE('',*,*,#1089,.F.);
#1121 = ORIENTED_EDGE('',*,*,#540,.F.);
#1122 = CYLINDRICAL_SURFACE('',#1123,0.2);
#1123 = AXIS2_PLACEMENT_3D('',#1124,#1125,#1126);
#1124 = CARTESIAN_POINT('',(-3.8,86.35,8.1));
#1125 = DIRECTION('',(6.661338147751E-16,2.22044604925E-16,-1.));
#1126 = DIRECTION('',(2.22044604925E-16,1.,-4.440892098501E-16));
#1127 = ADVANCED_FACE('',(#1128),#1139,.T.);
#1128 = FACE_BOUND('',#1129,.T.);
#1129 = EDGE_LOOP('',(#1130,#1137,#1138));
#1130 = ORIENTED_EDGE('',*,*,#1131,.F.);
#1131 = EDGE_CURVE('',#557,#1107,#1132,.T.);
#1132 = CIRCLE('',#1133,0.2);
#1133 = AXIS2_PLACEMENT_3D('',#1134,#1135,#1136);
#1134 = CARTESIAN_POINT('',(-3.8,86.35,8.1));
#1135 = DIRECTION('',(-4.440892098501E-16,-1.,-9.860761315263E-32));
#1136 = DIRECTION('',(-4.440892098501E-16,9.860761315263E-32,1.));
#1137 = ORIENTED_EDGE('',*,*,#564,.T.);
#1138 = ORIENTED_EDGE('',*,*,#1106,.T.);
#1139 = SPHERICAL_SURFACE('',#1140,0.2);
#1140 = AXIS2_PLACEMENT_3D('',#1141,#1142,#1143);
#1141 = CARTESIAN_POINT('',(-3.8,86.35,8.1));
#1142 = DIRECTION('',(-1.,4.440892098501E-16,1.033386909157E-16));
#1143 = DIRECTION('',(-5.627951238594E-16,1.355854680849E-31,1.));
#1144 = ADVANCED_FACE('',(#1145),#1164,.T.);
#1145 = FACE_BOUND('',#1146,.F.);
#1146 = EDGE_LOOP('',(#1147,#1156,#1162,#1163));
#1147 = ORIENTED_EDGE('',*,*,#1148,.T.);
#1148 = EDGE_CURVE('',#582,#1149,#1151,.T.);
#1149 = VERTEX_POINT('',#1150);
#1150 = CARTESIAN_POINT('',(-4.,85.95,8.1));
#1151 = CIRCLE('',#1152,0.2);
#1152 = AXIS2_PLACEMENT_3D('',#1153,#1154,#1155);
#1153 = CARTESIAN_POINT('',(-3.8,85.95,8.1));
#1154 = DIRECTION('',(-4.440892098501E-16,-1.,1.582264052373E-14));
#1155 = DIRECTION('',(-5.627951238594E-16,1.582264052373E-14,1.));
#1156 = ORIENTED_EDGE('',*,*,#1157,.T.);
#1157 = EDGE_CURVE('',#1149,#1107,#1158,.T.);
#1158 = LINE('',#1159,#1160);
#1159 = CARTESIAN_POINT('',(-4.,85.95,8.1));
#1160 = VECTOR('',#1161,1.);
#1161 = DIRECTION('',(-2.22044604925E-16,1.,-6.661338147751E-16));
#1162 = ORIENTED_EDGE('',*,*,#1131,.F.);
#1163 = ORIENTED_EDGE('',*,*,#589,.F.);
#1164 = CYLINDRICAL_SURFACE('',#1165,0.2);
#1165 = AXIS2_PLACEMENT_3D('',#1166,#1167,#1168);
#1166 = CARTESIAN_POINT('',(-3.8,85.95,8.1));
#1167 = DIRECTION('',(-2.22044604925E-16,1.,-6.661338147751E-16));
#1168 = DIRECTION('',(-4.440892098501E-16,9.860761315263E-32,1.));
#1169 = ADVANCED_FACE('',(#1170),#1181,.T.);
#1170 = FACE_BOUND('',#1171,.T.);
#1171 = EDGE_LOOP('',(#1172,#1179,#1180));
#1172 = ORIENTED_EDGE('',*,*,#1173,.F.);
#1173 = EDGE_CURVE('',#606,#1149,#1174,.T.);
#1174 = CIRCLE('',#1175,0.2);
#1175 = AXIS2_PLACEMENT_3D('',#1176,#1177,#1178);
#1176 = CARTESIAN_POINT('',(-3.8,85.95,8.1));
#1177 = DIRECTION('',(1.232595164408E-32,-4.440892098501E-16,-1.));
#1178 = DIRECTION('',(-2.22044604925E-16,-1.,4.440892098501E-16));
#1179 = ORIENTED_EDGE('',*,*,#613,.T.);
#1180 = ORIENTED_EDGE('',*,*,#1148,.T.);
#1181 = SPHERICAL_SURFACE('',#1182,0.2);
#1182 = AXIS2_PLACEMENT_3D('',#1183,#1184,#1185);
#1183 = CARTESIAN_POINT('',(-3.8,85.95,8.1));
#1184 = DIRECTION('',(-1.,4.440892098501E-16,1.033386909157E-16));
#1185 = DIRECTION('',(2.22044604925E-16,-1.,5.627951238594E-16));
#1186 = ADVANCED_FACE('',(#1187),#1198,.T.);
#1187 = FACE_BOUND('',#1188,.F.);
#1188 = EDGE_LOOP('',(#1189,#1190,#1196,#1197));
#1189 = ORIENTED_EDGE('',*,*,#1049,.T.);
#1190 = ORIENTED_EDGE('',*,*,#1191,.T.);
#1191 = EDGE_CURVE('',#1040,#1149,#1192,.T.);
#1192 = LINE('',#1193,#1194);
#1193 = CARTESIAN_POINT('',(-4.,85.95,6.9));
#1194 = VECTOR('',#1195,1.);
#1195 = DIRECTION('',(-6.661338147751E-16,-2.22044604925E-16,1.));
#1196 = ORIENTED_EDGE('',*,*,#1173,.F.);
#1197 = ORIENTED_EDGE('',*,*,#631,.F.);
#1198 = CYLINDRICAL_SURFACE('',#1199,0.2);
#1199 = AXIS2_PLACEMENT_3D('',#1200,#1201,#1202);
#1200 = CARTESIAN_POINT('',(-3.8,85.95,6.9));
#1201 = DIRECTION('',(-6.661338147751E-16,-2.22044604925E-16,1.));
#1202 = DIRECTION('',(-2.22044604925E-16,-1.,4.440892098501E-16));
#1203 = ADVANCED_FACE('',(#1204),#1223,.T.);
#1204 = FACE_BOUND('',#1205,.T.);
#1205 = EDGE_LOOP('',(#1206,#1215,#1216));
#1206 = ORIENTED_EDGE('',*,*,#1207,.F.);
#1207 = EDGE_CURVE('',#648,#1208,#1210,.T.);
#1208 = VERTEX_POINT('',#1209);
#1209 = CARTESIAN_POINT('',(-4.,84.15,6.9));
#1210 = CIRCLE('',#1211,0.2);
#1211 = AXIS2_PLACEMENT_3D('',#1212,#1213,#1214);
#1212 = CARTESIAN_POINT('',(-3.8,84.15,6.9));
#1213 = DIRECTION('',(4.440892098501E-16,1.,9.860761315263E-32));
#1214 = DIRECTION('',(4.440892098501E-16,-9.860761315263E-32,-1.));
#1215 = ORIENTED_EDGE('',*,*,#655,.T.);
#1216 = ORIENTED_EDGE('',*,*,#1217,.T.);
#1217 = EDGE_CURVE('',#656,#1208,#1218,.T.);
#1218 = CIRCLE('',#1219,0.2);
#1219 = AXIS2_PLACEMENT_3D('',#1220,#1221,#1222);
#1220 = CARTESIAN_POINT('',(-3.8,84.15,6.9));
#1221 = DIRECTION('',(1.232595164408E-32,-4.440892098501E-16,-1.));
#1222 = DIRECTION('',(-2.22044604925E-16,-1.,4.440892098501E-16));
#1223 = SPHERICAL_SURFACE('',#1224,0.2);
#1224 = AXIS2_PLACEMENT_3D('',#1225,#1226,#1227);
#1225 = CARTESIAN_POINT('',(-3.8,84.15,6.9));
#1226 = DIRECTION('',(-1.,4.440892098501E-16,1.033386909157E-16));
#1227 = DIRECTION('',(5.627951238594E-16,-1.725633230171E-31,-1.));
#1228 = ADVANCED_FACE('',(#1229),#1248,.T.);
#1229 = FACE_BOUND('',#1230,.F.);
#1230 = EDGE_LOOP('',(#1231,#1240,#1246,#1247));
#1231 = ORIENTED_EDGE('',*,*,#1232,.T.);
#1232 = EDGE_CURVE('',#680,#1233,#1235,.T.);
#1233 = VERTEX_POINT('',#1234);
#1234 = CARTESIAN_POINT('',(-4.,84.55,6.9));
#1235 = CIRCLE('',#1236,0.2);
#1236 = AXIS2_PLACEMENT_3D('',#1237,#1238,#1239);
#1237 = CARTESIAN_POINT('',(-3.8,84.55,6.9));
#1238 = DIRECTION('',(4.440892098501E-16,1.,2.393871098095E-14));
#1239 = DIRECTION('',(5.627951238593E-16,2.393871098095E-14,-1.));
#1240 = ORIENTED_EDGE('',*,*,#1241,.T.);
#1241 = EDGE_CURVE('',#1233,#1208,#1242,.T.);
#1242 = LINE('',#1243,#1244);
#1243 = CARTESIAN_POINT('',(-4.,84.55,6.9));
#1244 = VECTOR('',#1245,1.);
#1245 = DIRECTION('',(2.22044604925E-16,-1.,6.661338147751E-16));
#1246 = ORIENTED_EDGE('',*,*,#1207,.F.);
#1247 = ORIENTED_EDGE('',*,*,#687,.F.);
#1248 = CYLINDRICAL_SURFACE('',#1249,0.2);
#1249 = AXIS2_PLACEMENT_3D('',#1250,#1251,#1252);
#1250 = CARTESIAN_POINT('',(-3.8,84.55,6.9));
#1251 = DIRECTION('',(2.22044604925E-16,-1.,6.661338147751E-16));
#1252 = DIRECTION('',(4.440892098501E-16,-9.860761315263E-32,-1.));
#1253 = ADVANCED_FACE('',(#1254),#1265,.T.);
#1254 = FACE_BOUND('',#1255,.T.);
#1255 = EDGE_LOOP('',(#1256,#1263,#1264));
#1256 = ORIENTED_EDGE('',*,*,#1257,.F.);
#1257 = EDGE_CURVE('',#704,#1233,#1258,.T.);
#1258 = CIRCLE('',#1259,0.2);
#1259 = AXIS2_PLACEMENT_3D('',#1260,#1261,#1262);
#1260 = CARTESIAN_POINT('',(-3.8,84.55,6.9));
#1261 = DIRECTION('',(-1.232595164408E-32,4.440892098501E-16,1.));
#1262 = DIRECTION('',(2.22044604925E-16,1.,-4.440892098501E-16));
#1263 = ORIENTED_EDGE('',*,*,#711,.T.);
#1264 = ORIENTED_EDGE('',*,*,#1232,.T.);
#1265 = SPHERICAL_SURFACE('',#1266,0.2);
#1266 = AXIS2_PLACEMENT_3D('',#1267,#1268,#1269);
#1267 = CARTESIAN_POINT('',(-3.8,84.55,6.9));
#1268 = DIRECTION('',(-1.,4.440892098501E-16,1.033386909157E-16));
#1269 = DIRECTION('',(-2.22044604925E-16,1.,-7.694725056908E-16));
#1270 = ADVANCED_FACE('',(#1271),#1290,.T.);
#1271 = FACE_BOUND('',#1272,.F.);
#1272 = EDGE_LOOP('',(#1273,#1282,#1288,#1289));
#1273 = ORIENTED_EDGE('',*,*,#1274,.T.);
#1274 = EDGE_CURVE('',#729,#1275,#1277,.T.);
#1275 = VERTEX_POINT('',#1276);
#1276 = CARTESIAN_POINT('',(-4.,84.55,8.1));
#1277 = CIRCLE('',#1278,0.2);
#1278 = AXIS2_PLACEMENT_3D('',#1279,#1280,#1281);
#1279 = CARTESIAN_POINT('',(-3.8,84.55,8.1));
#1280 = DIRECTION('',(1.033386909157E-16,-1.005323956158E-14,1.));
#1281 = DIRECTION('',(-2.22044604925E-16,1.,1.005323956158E-14));
#1282 = ORIENTED_EDGE('',*,*,#1283,.T.);
#1283 = EDGE_CURVE('',#1275,#1233,#1284,.T.);
#1284 = LINE('',#1285,#1286);
#1285 = CARTESIAN_POINT('',(-4.,84.55,8.1));
#1286 = VECTOR('',#1287,1.);
#1287 = DIRECTION('',(6.661338147751E-16,2.22044604925E-16,-1.));
#1288 = ORIENTED_EDGE('',*,*,#1257,.F.);
#1289 = ORIENTED_EDGE('',*,*,#736,.F.);
#1290 = CYLINDRICAL_SURFACE('',#1291,0.2);
#1291 = AXIS2_PLACEMENT_3D('',#1292,#1293,#1294);
#1292 = CARTESIAN_POINT('',(-3.8,84.55,8.1));
#1293 = DIRECTION('',(6.661338147751E-16,2.22044604925E-16,-1.));
#1294 = DIRECTION('',(2.22044604925E-16,1.,-4.440892098501E-16));
#1295 = ADVANCED_FACE('',(#1296),#1307,.T.);
#1296 = FACE_BOUND('',#1297,.T.);
#1297 = EDGE_LOOP('',(#1298,#1305,#1306));
#1298 = ORIENTED_EDGE('',*,*,#1299,.F.);
#1299 = EDGE_CURVE('',#753,#1275,#1300,.T.);
#1300 = CIRCLE('',#1301,0.2);
#1301 = AXIS2_PLACEMENT_3D('',#1302,#1303,#1304);
#1302 = CARTESIAN_POINT('',(-3.8,84.55,8.1));
#1303 = DIRECTION('',(-4.440892098501E-16,-1.,-9.860761315263E-32));
#1304 = DIRECTION('',(-4.440892098501E-16,9.860761315263E-32,1.));
#1305 = ORIENTED_EDGE('',*,*,#760,.T.);
#1306 = ORIENTED_EDGE('',*,*,#1274,.T.);
#1307 = SPHERICAL_SURFACE('',#1308,0.2);
#1308 = AXIS2_PLACEMENT_3D('',#1309,#1310,#1311);
#1309 = CARTESIAN_POINT('',(-3.8,84.55,8.1));
#1310 = DIRECTION('',(-1.,4.440892098501E-16,1.033386909157E-16));
#1311 = DIRECTION('',(-5.627951238594E-16,1.355854680849E-31,1.));
#1312 = ADVANCED_FACE('',(#1313),#1332,.T.);
#1313 = FACE_BOUND('',#1314,.F.);
#1314 = EDGE_LOOP('',(#1315,#1324,#1330,#1331));
#1315 = ORIENTED_EDGE('',*,*,#1316,.T.);
#1316 = EDGE_CURVE('',#778,#1317,#1319,.T.);
#1317 = VERTEX_POINT('',#1318);
#1318 = CARTESIAN_POINT('',(-4.,84.15,8.1));
#1319 = CIRCLE('',#1320,0.2);
#1320 = AXIS2_PLACEMENT_3D('',#1321,#1322,#1323);
#1321 = CARTESIAN_POINT('',(-3.8,84.15,8.1));
#1322 = DIRECTION('',(-4.440892098501E-16,-1.,-2.059267468398E-14));
#1323 = DIRECTION('',(-5.627951238593E-16,-2.059267468398E-14,1.));
#1324 = ORIENTED_EDGE('',*,*,#1325,.T.);
#1325 = EDGE_CURVE('',#1317,#1275,#1326,.T.);
#1326 = LINE('',#1327,#1328);
#1327 = CARTESIAN_POINT('',(-4.,84.15,8.1));
#1328 = VECTOR('',#1329,1.);
#1329 = DIRECTION('',(-2.22044604925E-16,1.,-6.661338147751E-16));
#1330 = ORIENTED_EDGE('',*,*,#1299,.F.);
#1331 = ORIENTED_EDGE('',*,*,#785,.F.);
#1332 = CYLINDRICAL_SURFACE('',#1333,0.2);
#1333 = AXIS2_PLACEMENT_3D('',#1334,#1335,#1336);
#1334 = CARTESIAN_POINT('',(-3.8,84.15,8.1));
#1335 = DIRECTION('',(-2.22044604925E-16,1.,-6.661338147751E-16));
#1336 = DIRECTION('',(-4.440892098501E-16,9.860761315263E-32,1.));
#1337 = ADVANCED_FACE('',(#1338),#1349,.T.);
#1338 = FACE_BOUND('',#1339,.T.);
#1339 = EDGE_LOOP('',(#1340,#1347,#1348));
#1340 = ORIENTED_EDGE('',*,*,#1341,.F.);
#1341 = EDGE_CURVE('',#802,#1317,#1342,.T.);
#1342 = CIRCLE('',#1343,0.2);
#1343 = AXIS2_PLACEMENT_3D('',#1344,#1345,#1346);
#1344 = CARTESIAN_POINT('',(-3.8,84.15,8.1));
#1345 = DIRECTION('',(1.232595164408E-32,-4.440892098501E-16,-1.));
#1346 = DIRECTION('',(-2.22044604925E-16,-1.,4.440892098501E-16));
#1347 = ORIENTED_EDGE('',*,*,#809,.T.);
#1348 = ORIENTED_EDGE('',*,*,#1316,.T.);
#1349 = SPHERICAL_SURFACE('',#1350,0.2);
#1350 = AXIS2_PLACEMENT_3D('',#1351,#1352,#1353);
#1351 = CARTESIAN_POINT('',(-3.8,84.15,8.1));
#1352 = DIRECTION('',(-1.,4.440892098501E-16,1.033386909157E-16));
#1353 = DIRECTION('',(2.22044604925E-16,-1.,5.627951238594E-16));
#1354 = ADVANCED_FACE('',(#1355),#1366,.T.);
#1355 = FACE_BOUND('',#1356,.F.);
#1356 = EDGE_LOOP('',(#1357,#1358,#1364,#1365));
#1357 = ORIENTED_EDGE('',*,*,#1217,.T.);
#1358 = ORIENTED_EDGE('',*,*,#1359,.T.);
#1359 = EDGE_CURVE('',#1208,#1317,#1360,.T.);
#1360 = LINE('',#1361,#1362);
#1361 = CARTESIAN_POINT('',(-4.,84.15,6.9));
#1362 = VECTOR('',#1363,1.);
#1363 = DIRECTION('',(-6.661338147751E-16,-2.22044604925E-16,1.));
#1364 = ORIENTED_EDGE('',*,*,#1341,.F.);
#1365 = ORIENTED_EDGE('',*,*,#827,.F.);
#1366 = CYLINDRICAL_SURFACE('',#1367,0.2);
#1367 = AXIS2_PLACEMENT_3D('',#1368,#1369,#1370);
#1368 = CARTESIAN_POINT('',(-3.8,84.15,6.9));
#1369 = DIRECTION('',(-6.661338147751E-16,-2.22044604925E-16,1.));
#1370 = DIRECTION('',(-2.22044604925E-16,-1.,4.440892098501E-16));
#1371 = ADVANCED_FACE('',(#1372,#1442),#1452,.F.);
#1372 = FACE_BOUND('',#1373,.F.);
#1373 = EDGE_LOOP('',(#1374,#1384,#1393,#1401,#1410,#1418,#1427,#1435));
#1374 = ORIENTED_EDGE('',*,*,#1375,.T.);
#1375 = EDGE_CURVE('',#1376,#1378,#1380,.T.);
#1376 = VERTEX_POINT('',#1377);
#1377 = CARTESIAN_POINT('',(-1.,80.25,8.800000000001));
#1378 = VERTEX_POINT('',#1379);
#1379 = CARTESIAN_POINT('',(-1.,80.25,6.200000000008));
#1380 = LINE('',#1381,#1382);
#1381 = CARTESIAN_POINT('',(-1.,80.25,8.800000000001));
#1382 = VECTOR('',#1383,1.);
#1383 = DIRECTION('',(2.22044604925E-15,4.440892098501E-16,-1.));
#1384 = ORIENTED_EDGE('',*,*,#1385,.T.);
#1385 = EDGE_CURVE('',#1378,#1386,#1388,.T.);
#1386 = VERTEX_POINT('',#1387);
#1387 = CARTESIAN_POINT('',(-1.,80.950000000001,5.500000000004));
#1388 = CIRCLE('',#1389,0.7);
#1389 = AXIS2_PLACEMENT_3D('',#1390,#1391,#1392);
#1390 = CARTESIAN_POINT('',(-1.,80.950000000001,6.200000000008));
#1391 = DIRECTION('',(1.,8.881784197001E-16,2.22044604925E-15));
#1392 = DIRECTION('',(-8.881784197001E-16,1.,-2.22044604925E-15));
#1393 = ORIENTED_EDGE('',*,*,#1394,.T.);
#1394 = EDGE_CURVE('',#1386,#1395,#1397,.T.);
#1395 = VERTEX_POINT('',#1396);
#1396 = CARTESIAN_POINT('',(-1.,89.549999999999,5.500000000004));
#1397 = LINE('',#1398,#1399);
#1398 = CARTESIAN_POINT('',(-1.,80.950000000001,5.5));
#1399 = VECTOR('',#1400,1.);
#1400 = DIRECTION('',(-8.881784197001E-16,1.,-2.22044604925E-15));
#1401 = ORIENTED_EDGE('',*,*,#1402,.T.);
#1402 = EDGE_CURVE('',#1395,#1403,#1405,.T.);
#1403 = VERTEX_POINT('',#1404);
#1404 = CARTESIAN_POINT('',(-1.,90.249999999999,6.200000000008));
#1405 = CIRCLE('',#1406,0.7);
#1406 = AXIS2_PLACEMENT_3D('',#1407,#1408,#1409);
#1407 = CARTESIAN_POINT('',(-1.,89.55,6.200000000008));
#1408 = DIRECTION('',(1.,8.881784197001E-16,2.22044604925E-15));
#1409 = DIRECTION('',(-8.881784197001E-16,1.,-2.22044604925E-15));
#1410 = ORIENTED_EDGE('',*,*,#1411,.T.);
#1411 = EDGE_CURVE('',#1403,#1412,#1414,.T.);
#1412 = VERTEX_POINT('',#1413);
#1413 = CARTESIAN_POINT('',(-1.,90.25,8.800000000001));
#1414 = LINE('',#1415,#1416);
#1415 = CARTESIAN_POINT('',(-1.,90.25,6.200000000008));
#1416 = VECTOR('',#1417,1.);
#1417 = DIRECTION('',(-2.22044604925E-15,-4.440892098501E-16,1.));
#1418 = ORIENTED_EDGE('',*,*,#1419,.T.);
#1419 = EDGE_CURVE('',#1412,#1420,#1422,.T.);
#1420 = VERTEX_POINT('',#1421);
#1421 = CARTESIAN_POINT('',(-1.,89.55,9.500000000001));
#1422 = CIRCLE('',#1423,0.7);
#1423 = AXIS2_PLACEMENT_3D('',#1424,#1425,#1426);
#1424 = CARTESIAN_POINT('',(-1.,89.55,8.800000000001));
#1425 = DIRECTION('',(1.,8.881784197001E-16,2.22044604925E-15));
#1426 = DIRECTION('',(-8.881784197001E-16,1.,-2.22044604925E-15));
#1427 = ORIENTED_EDGE('',*,*,#1428,.T.);
#1428 = EDGE_CURVE('',#1420,#1429,#1431,.T.);
#1429 = VERTEX_POINT('',#1430);
#1430 = CARTESIAN_POINT('',(-1.,80.95,9.500000000001));
#1431 = LINE('',#1432,#1433);
#1432 = CARTESIAN_POINT('',(-1.,89.55,9.500000000001));
#1433 = VECTOR('',#1434,1.);
#1434 = DIRECTION('',(8.881784197001E-16,-1.,2.22044604925E-15));
#1435 = ORIENTED_EDGE('',*,*,#1436,.T.);
#1436 = EDGE_CURVE('',#1429,#1376,#1437,.T.);
#1437 = CIRCLE('',#1438,0.7);
#1438 = AXIS2_PLACEMENT_3D('',#1439,#1440,#1441);
#1439 = CARTESIAN_POINT('',(-1.,80.950000000001,8.800000000001));
#1440 = DIRECTION('',(1.,8.881784197001E-16,2.22044604925E-15));
#1441 = DIRECTION('',(-8.881784197001E-16,1.,-2.22044604925E-15));
#1442 = FACE_BOUND('',#1443,.F.);
#1443 = EDGE_LOOP('',(#1444,#1445,#1446,#1447,#1448,#1449,#1450,#1451));
#1444 = ORIENTED_EDGE('',*,*,#909,.T.);
#1445 = ORIENTED_EDGE('',*,*,#958,.T.);
#1446 = ORIENTED_EDGE('',*,*,#1007,.T.);
#1447 = ORIENTED_EDGE('',*,*,#1025,.T.);
#1448 = ORIENTED_EDGE('',*,*,#982,.T.);
#1449 = ORIENTED_EDGE('',*,*,#934,.T.);
#1450 = ORIENTED_EDGE('',*,*,#884,.T.);
#1451 = ORIENTED_EDGE('',*,*,#860,.T.);
#1452 = PLANE('',#1453);
#1453 = AXIS2_PLACEMENT_3D('',#1454,#1455,#1456);
#1454 = CARTESIAN_POINT('',(-1.,85.25,7.500000000002));
#1455 = DIRECTION('',(1.,-1.7763568394E-15,-4.440892098501E-16));
#1456 = DIRECTION('',(-2.22044604925E-15,-4.440892098501E-16,1.));
#1457 = ADVANCED_FACE('',(#1458),#1464,.F.);
#1458 = FACE_BOUND('',#1459,.F.);
#1459 = EDGE_LOOP('',(#1460,#1461,#1462,#1463));
#1460 = ORIENTED_EDGE('',*,*,#1191,.F.);
#1461 = ORIENTED_EDGE('',*,*,#1073,.F.);
#1462 = ORIENTED_EDGE('',*,*,#1115,.F.);
#1463 = ORIENTED_EDGE('',*,*,#1157,.F.);
#1464 = PLANE('',#1465);
#1465 = AXIS2_PLACEMENT_3D('',#1466,#1467,#1468);
#1466 = CARTESIAN_POINT('',(-4.,85.25,7.5));
#1467 = DIRECTION('',(1.,-8.881784197001E-16,-5.474279007658E-16));
#1468 = DIRECTION('',(-7.848397287844E-16,-2.22044604925E-16,1.));
#1469 = ADVANCED_FACE('',(#1470),#1476,.F.);
#1470 = FACE_BOUND('',#1471,.F.);
#1471 = EDGE_LOOP('',(#1472,#1473,#1474,#1475));
#1472 = ORIENTED_EDGE('',*,*,#1359,.F.);
#1473 = ORIENTED_EDGE('',*,*,#1241,.F.);
#1474 = ORIENTED_EDGE('',*,*,#1283,.F.);
#1475 = ORIENTED_EDGE('',*,*,#1325,.F.);
#1476 = PLANE('',#1477);
#1477 = AXIS2_PLACEMENT_3D('',#1478,#1479,#1480);
#1478 = CARTESIAN_POINT('',(-4.,85.25,7.5));
#1479 = DIRECTION('',(1.,-8.881784197001E-16,-5.474279007658E-16));
#1480 = DIRECTION('',(-7.848397287844E-16,-2.22044604925E-16,1.));
#1481 = ADVANCED_FACE('',(#1482),#1507,.T.);
#1482 = FACE_BOUND('',#1483,.T.);
#1483 = EDGE_LOOP('',(#1484,#1492,#1493,#1501));
#1484 = ORIENTED_EDGE('',*,*,#1485,.T.);
#1485 = EDGE_CURVE('',#1486,#1376,#1488,.T.);
#1486 = VERTEX_POINT('',#1487);
#1487 = CARTESIAN_POINT('',(-1.172395514004E-14,80.25,8.800000000001));
#1488 = LINE('',#1489,#1490);
#1489 = CARTESIAN_POINT('',(-7.104317134577E-14,80.25,8.800000000001));
#1490 = VECTOR('',#1491,1.);
#1491 = DIRECTION('',(-1.,1.554312234475E-15,2.22044604925E-16));
#1492 = ORIENTED_EDGE('',*,*,#1375,.T.);
#1493 = ORIENTED_EDGE('',*,*,#1494,.F.);
#1494 = EDGE_CURVE('',#1495,#1378,#1497,.T.);
#1495 = VERTEX_POINT('',#1496);
#1496 = CARTESIAN_POINT('',(-8.260059303222E-15,80.25,6.200000000008));
#1497 = LINE('',#1498,#1499);
#1498 = CARTESIAN_POINT('',(-6.584732759053E-14,80.25,6.200000000008));
#1499 = VECTOR('',#1500,1.);
#1500 = DIRECTION('',(-1.,1.554312234475E-15,2.22044604925E-16));
#1501 = ORIENTED_EDGE('',*,*,#1502,.F.);
#1502 = EDGE_CURVE('',#1486,#1495,#1503,.T.);
#1503 = LINE('',#1504,#1505);
#1504 = CARTESIAN_POINT('',(-9.081624341434E-14,80.25,8.800000000001));
#1505 = VECTOR('',#1506,1.);
#1506 = DIRECTION('',(2.22044604925E-15,4.440892098501E-16,-1.));
#1507 = PLANE('',#1508);
#1508 = AXIS2_PLACEMENT_3D('',#1509,#1510,#1511);
#1509 = CARTESIAN_POINT('',(-7.104317134577E-14,80.25,8.800000000001));
#1510 = DIRECTION('',(4.440892098501E-16,-1.,1.7763568394E-15));
#1511 = DIRECTION('',(1.998401444325E-15,2.22044604925E-16,-1.));
#1512 = ADVANCED_FACE('',(#1513),#1532,.T.);
#1513 = FACE_BOUND('',#1514,.T.);
#1514 = EDGE_LOOP('',(#1515,#1523,#1524,#1525));
#1515 = ORIENTED_EDGE('',*,*,#1516,.T.);
#1516 = EDGE_CURVE('',#1517,#1429,#1519,.T.);
#1517 = VERTEX_POINT('',#1518);
#1518 = CARTESIAN_POINT('',(-1.265654248073E-14,80.95,9.500000000001));
#1519 = LINE('',#1520,#1521);
#1520 = CARTESIAN_POINT('',(-7.290834602714E-14,80.950000000001,
    9.500000000001));
#1521 = VECTOR('',#1522,1.);
#1522 = DIRECTION('',(-1.,1.554312234475E-15,2.22044604925E-16));
#1523 = ORIENTED_EDGE('',*,*,#1436,.T.);
#1524 = ORIENTED_EDGE('',*,*,#1485,.F.);
#1525 = ORIENTED_EDGE('',*,*,#1526,.F.);
#1526 = EDGE_CURVE('',#1517,#1486,#1527,.T.);
#1527 = CIRCLE('',#1528,0.7);
#1528 = AXIS2_PLACEMENT_3D('',#1529,#1530,#1531);
#1529 = CARTESIAN_POINT('',(-9.143796830813E-14,80.950000000001,
    8.800000000001));
#1530 = DIRECTION('',(1.,8.881784197001E-16,2.22044604925E-15));
#1531 = DIRECTION('',(-8.881784197001E-16,1.,-2.22044604925E-15));
#1532 = CYLINDRICAL_SURFACE('',#1533,0.7);
#1533 = AXIS2_PLACEMENT_3D('',#1534,#1535,#1536);
#1534 = CARTESIAN_POINT('',(-7.150946501611E-14,80.950000000001,
    8.800000000001));
#1535 = DIRECTION('',(1.,-1.33226762955E-15,1.084683744679E-30));
#1536 = DIRECTION('',(-6.661338147751E-16,1.,-1.998401444325E-15));
#1537 = ADVANCED_FACE('',(#1538),#1557,.T.);
#1538 = FACE_BOUND('',#1539,.T.);
#1539 = EDGE_LOOP('',(#1540,#1541,#1542,#1550));
#1540 = ORIENTED_EDGE('',*,*,#1494,.T.);
#1541 = ORIENTED_EDGE('',*,*,#1385,.T.);
#1542 = ORIENTED_EDGE('',*,*,#1543,.F.);
#1543 = EDGE_CURVE('',#1544,#1386,#1546,.T.);
#1544 = VERTEX_POINT('',#1545);
#1545 = CARTESIAN_POINT('',(-7.327471962531E-15,80.950000000001,
    5.500000000004));
#1546 = LINE('',#1547,#1548);
#1547 = CARTESIAN_POINT('',(-6.491474024984E-14,80.950000000001,
    5.500000000004));
#1548 = VECTOR('',#1549,1.);
#1549 = DIRECTION('',(-1.,1.554312234475E-15,2.22044604925E-16));
#1550 = ORIENTED_EDGE('',*,*,#1551,.F.);
#1551 = EDGE_CURVE('',#1495,#1544,#1552,.T.);
#1552 = CIRCLE('',#1553,0.7);
#1553 = AXIS2_PLACEMENT_3D('',#1554,#1555,#1556);
#1554 = CARTESIAN_POINT('',(-8.56648085801E-14,80.950000000001,
    6.200000000008));
#1555 = DIRECTION('',(1.,8.881784197001E-16,2.22044604925E-15));
#1556 = DIRECTION('',(-8.881784197001E-16,1.,-2.22044604925E-15));
#1557 = CYLINDRICAL_SURFACE('',#1558,0.7);
#1558 = AXIS2_PLACEMENT_3D('',#1559,#1560,#1561);
#1559 = CARTESIAN_POINT('',(-6.631362126088E-14,80.950000000001,
    6.200000000008));
#1560 = DIRECTION('',(1.,-1.33226762955E-15,1.084683744679E-30));
#1561 = DIRECTION('',(-6.661338147751E-16,1.,-1.998401444325E-15));
#1562 = ADVANCED_FACE('',(#1563),#1581,.T.);
#1563 = FACE_BOUND('',#1564,.T.);
#1564 = EDGE_LOOP('',(#1565,#1573,#1574,#1575));
#1565 = ORIENTED_EDGE('',*,*,#1566,.T.);
#1566 = EDGE_CURVE('',#1567,#1420,#1569,.T.);
#1567 = VERTEX_POINT('',#1568);
#1568 = CARTESIAN_POINT('',(-1.265654248073E-14,89.55,9.500000000001));
#1569 = LINE('',#1570,#1571);
#1570 = CARTESIAN_POINT('',(-7.86370968342E-14,89.55,9.500000000001));
#1571 = VECTOR('',#1572,1.);
#1572 = DIRECTION('',(-1.,1.554312234475E-15,2.22044604925E-16));
#1573 = ORIENTED_EDGE('',*,*,#1428,.T.);
#1574 = ORIENTED_EDGE('',*,*,#1516,.F.);
#1575 = ORIENTED_EDGE('',*,*,#1576,.F.);
#1576 = EDGE_CURVE('',#1567,#1517,#1577,.T.);
#1577 = LINE('',#1578,#1579);
#1578 = CARTESIAN_POINT('',(-1.00630614952E-13,89.55,9.500000000001));
#1579 = VECTOR('',#1580,1.);
#1580 = DIRECTION('',(8.881784197001E-16,-1.,2.22044604925E-15));
#1581 = PLANE('',#1582);
#1582 = AXIS2_PLACEMENT_3D('',#1583,#1584,#1585);
#1583 = CARTESIAN_POINT('',(-7.86370968342E-14,89.55,9.500000000001));
#1584 = DIRECTION('',(-1.7763568394E-15,1.627025617018E-30,1.));
#1585 = DIRECTION('',(6.661338147751E-16,-1.,1.998401444325E-15));
#1586 = ADVANCED_FACE('',(#1587),#1605,.T.);
#1587 = FACE_BOUND('',#1588,.T.);
#1588 = EDGE_LOOP('',(#1589,#1590,#1591,#1599));
#1589 = ORIENTED_EDGE('',*,*,#1543,.T.);
#1590 = ORIENTED_EDGE('',*,*,#1394,.T.);
#1591 = ORIENTED_EDGE('',*,*,#1592,.F.);
#1592 = EDGE_CURVE('',#1593,#1395,#1595,.T.);
#1593 = VERTEX_POINT('',#1594);
#1594 = CARTESIAN_POINT('',(-7.327471962531E-15,89.549999999999,
    5.500000000004));
#1595 = LINE('',#1596,#1597);
#1596 = CARTESIAN_POINT('',(-7.064349105691E-14,89.55,5.500000000004));
#1597 = VECTOR('',#1598,1.);
#1598 = DIRECTION('',(-1.,1.554312234475E-15,2.22044604925E-16));
#1599 = ORIENTED_EDGE('',*,*,#1600,.F.);
#1600 = EDGE_CURVE('',#1544,#1593,#1601,.T.);
#1601 = LINE('',#1602,#1603);
#1602 = CARTESIAN_POINT('',(-8.41104963456E-14,80.950000000001,5.5));
#1603 = VECTOR('',#1604,1.);
#1604 = DIRECTION('',(-8.881784197001E-16,1.,-2.22044604925E-15));
#1605 = PLANE('',#1606);
#1606 = AXIS2_PLACEMENT_3D('',#1607,#1608,#1609);
#1607 = CARTESIAN_POINT('',(-6.491474024983E-14,80.950000000001,5.5));
#1608 = DIRECTION('',(1.7763568394E-15,-1.627025617018E-30,-1.));
#1609 = DIRECTION('',(-6.661338147751E-16,1.,-1.998401444325E-15));
#1610 = ADVANCED_FACE('',(#1611),#1630,.T.);
#1611 = FACE_BOUND('',#1612,.T.);
#1612 = EDGE_LOOP('',(#1613,#1621,#1622,#1623));
#1613 = ORIENTED_EDGE('',*,*,#1614,.T.);
#1614 = EDGE_CURVE('',#1615,#1412,#1617,.T.);
#1615 = VERTEX_POINT('',#1616);
#1616 = CARTESIAN_POINT('',(-1.172395514004E-14,90.25,8.800000000001));
#1617 = LINE('',#1618,#1619);
#1618 = CARTESIAN_POINT('',(-7.770450949352E-14,90.25,8.800000000001));
#1619 = VECTOR('',#1620,1.);
#1620 = DIRECTION('',(-1.,1.554312234475E-15,2.22044604925E-16));
#1621 = ORIENTED_EDGE('',*,*,#1419,.T.);
#1622 = ORIENTED_EDGE('',*,*,#1566,.F.);
#1623 = ORIENTED_EDGE('',*,*,#1624,.F.);
#1624 = EDGE_CURVE('',#1615,#1567,#1625,.T.);
#1625 = CIRCLE('',#1626,0.7);
#1626 = AXIS2_PLACEMENT_3D('',#1627,#1628,#1629);
#1627 = CARTESIAN_POINT('',(-9.907630271755E-14,89.55,8.800000000001));
#1628 = DIRECTION('',(1.,8.881784197001E-16,2.22044604925E-15));
#1629 = DIRECTION('',(-8.881784197001E-16,1.,-2.22044604925E-15));
#1630 = CYLINDRICAL_SURFACE('',#1631,0.7);
#1631 = AXIS2_PLACEMENT_3D('',#1632,#1633,#1634);
#1632 = CARTESIAN_POINT('',(-7.723821582318E-14,89.55,8.800000000001));
#1633 = DIRECTION('',(1.,-1.33226762955E-15,1.084683744679E-30));
#1634 = DIRECTION('',(-6.661338147751E-16,1.,-1.998401444325E-15));
#1635 = ADVANCED_FACE('',(#1636),#1655,.T.);
#1636 = FACE_BOUND('',#1637,.T.);
#1637 = EDGE_LOOP('',(#1638,#1639,#1640,#1648));
#1638 = ORIENTED_EDGE('',*,*,#1592,.T.);
#1639 = ORIENTED_EDGE('',*,*,#1402,.T.);
#1640 = ORIENTED_EDGE('',*,*,#1641,.F.);
#1641 = EDGE_CURVE('',#1642,#1403,#1644,.T.);
#1642 = VERTEX_POINT('',#1643);
#1643 = CARTESIAN_POINT('',(-8.260059303222E-15,90.249999999999,
    6.200000000008));
#1644 = LINE('',#1645,#1646);
#1645 = CARTESIAN_POINT('',(-7.250866573828E-14,90.25,6.200000000008));
#1646 = VECTOR('',#1647,1.);
#1647 = DIRECTION('',(-1.,1.554312234475E-15,2.22044604925E-16));
#1648 = ORIENTED_EDGE('',*,*,#1649,.F.);
#1649 = EDGE_CURVE('',#1593,#1642,#1650,.T.);
#1650 = CIRCLE('',#1651,0.7);
#1651 = AXIS2_PLACEMENT_3D('',#1652,#1653,#1654);
#1652 = CARTESIAN_POINT('',(-9.330314298952E-14,89.55,6.200000000008));
#1653 = DIRECTION('',(1.,8.881784197001E-16,2.22044604925E-15));
#1654 = DIRECTION('',(-8.881784197001E-16,1.,-2.22044604925E-15));
#1655 = CYLINDRICAL_SURFACE('',#1656,0.7);
#1656 = AXIS2_PLACEMENT_3D('',#1657,#1658,#1659);
#1657 = CARTESIAN_POINT('',(-7.204237206794E-14,89.55,6.200000000008));
#1658 = DIRECTION('',(1.,-1.33226762955E-15,1.084683744679E-30));
#1659 = DIRECTION('',(-6.661338147751E-16,1.,-1.998401444325E-15));
#1660 = ADVANCED_FACE('',(#1661),#1672,.T.);
#1661 = FACE_BOUND('',#1662,.T.);
#1662 = EDGE_LOOP('',(#1663,#1664,#1665,#1666));
#1663 = ORIENTED_EDGE('',*,*,#1641,.T.);
#1664 = ORIENTED_EDGE('',*,*,#1411,.T.);
#1665 = ORIENTED_EDGE('',*,*,#1614,.F.);
#1666 = ORIENTED_EDGE('',*,*,#1667,.F.);
#1667 = EDGE_CURVE('',#1642,#1615,#1668,.T.);
#1668 = LINE('',#1669,#1670);
#1669 = CARTESIAN_POINT('',(-9.392486788331E-14,90.25,6.200000000008));
#1670 = VECTOR('',#1671,1.);
#1671 = DIRECTION('',(-2.22044604925E-15,-4.440892098501E-16,1.));
#1672 = PLANE('',#1673);
#1673 = AXIS2_PLACEMENT_3D('',#1674,#1675,#1676);
#1674 = CARTESIAN_POINT('',(-7.250866573828E-14,90.25,6.200000000008));
#1675 = DIRECTION('',(-4.440892098501E-16,1.,-1.7763568394E-15));
#1676 = DIRECTION('',(-1.998401444325E-15,-2.22044604925E-16,1.));
#1677 = ADVANCED_FACE('',(#1678,#1688),#1722,.T.);
#1678 = FACE_BOUND('',#1679,.T.);
#1679 = EDGE_LOOP('',(#1680,#1681,#1682,#1683,#1684,#1685,#1686,#1687));
#1680 = ORIENTED_EDGE('',*,*,#1502,.T.);
#1681 = ORIENTED_EDGE('',*,*,#1551,.T.);
#1682 = ORIENTED_EDGE('',*,*,#1600,.T.);
#1683 = ORIENTED_EDGE('',*,*,#1649,.T.);
#1684 = ORIENTED_EDGE('',*,*,#1667,.T.);
#1685 = ORIENTED_EDGE('',*,*,#1624,.T.);
#1686 = ORIENTED_EDGE('',*,*,#1576,.T.);
#1687 = ORIENTED_EDGE('',*,*,#1526,.T.);
#1688 = FACE_BOUND('',#1689,.T.);
#1689 = EDGE_LOOP('',(#1690,#1700,#1708,#1716));
#1690 = ORIENTED_EDGE('',*,*,#1691,.F.);
#1691 = EDGE_CURVE('',#1692,#1694,#1696,.T.);
#1692 = VERTEX_POINT('',#1693);
#1693 = CARTESIAN_POINT('',(-6.461498003319E-14,84.5,8.5));
#1694 = VERTEX_POINT('',#1695);
#1695 = CARTESIAN_POINT('',(-6.394884621841E-14,84.5,6.5));
#1696 = LINE('',#1697,#1698);
#1697 = CARTESIAN_POINT('',(-8.526512829121E-14,84.5,8.5));
#1698 = VECTOR('',#1699,1.);
#1699 = DIRECTION('',(5.551115123126E-16,1.110223024625E-16,-1.));
#1700 = ORIENTED_EDGE('',*,*,#1701,.F.);
#1701 = EDGE_CURVE('',#1702,#1692,#1704,.T.);
#1702 = VERTEX_POINT('',#1703);
#1703 = CARTESIAN_POINT('',(-6.461498003319E-14,86.,8.5));
#1704 = LINE('',#1705,#1706);
#1705 = CARTESIAN_POINT('',(-8.55981951986E-14,86.,8.5));
#1706 = VECTOR('',#1707,1.);
#1707 = DIRECTION('',(2.22044604925E-16,-1.,5.551115123126E-16));
#1708 = ORIENTED_EDGE('',*,*,#1709,.F.);
#1709 = EDGE_CURVE('',#1710,#1702,#1712,.T.);
#1710 = VERTEX_POINT('',#1711);
#1711 = CARTESIAN_POINT('',(-6.394884621841E-14,86.,6.5));
#1712 = LINE('',#1713,#1714);
#1713 = CARTESIAN_POINT('',(-8.448797217398E-14,86.,6.5));
#1714 = VECTOR('',#1715,1.);
#1715 = DIRECTION('',(-5.551115123126E-16,-1.110223024625E-16,1.));
#1716 = ORIENTED_EDGE('',*,*,#1717,.F.);
#1717 = EDGE_CURVE('',#1694,#1710,#1718,.T.);
#1718 = LINE('',#1719,#1720);
#1719 = CARTESIAN_POINT('',(-8.415490526659E-14,84.5,6.5));
#1720 = VECTOR('',#1721,1.);
#1721 = DIRECTION('',(-2.22044604925E-16,1.,-5.551115123126E-16));
#1722 = PLANE('',#1723);
#1723 = AXIS2_PLACEMENT_3D('',#1724,#1725,#1726);
#1724 = CARTESIAN_POINT('',(-9.237055564882E-14,85.25,7.500000000002));
#1725 = DIRECTION('',(1.,-1.7763568394E-15,-4.440892098501E-16));
#1726 = DIRECTION('',(-2.22044604925E-15,-4.440892098501E-16,1.));
#1727 = ADVANCED_FACE('',(#1728),#1753,.F.);
#1728 = FACE_BOUND('',#1729,.F.);
#1729 = EDGE_LOOP('',(#1730,#1738,#1746,#1752));
#1730 = ORIENTED_EDGE('',*,*,#1731,.T.);
#1731 = EDGE_CURVE('',#1692,#1732,#1734,.T.);
#1732 = VERTEX_POINT('',#1733);
#1733 = CARTESIAN_POINT('',(-2.,84.5,8.5));
#1734 = LINE('',#1735,#1736);
#1735 = CARTESIAN_POINT('',(-6.461498003319E-14,84.5,8.5));
#1736 = VECTOR('',#1737,1.);
#1737 = DIRECTION('',(-1.,2.22044604925E-16,-1.110223024625E-16));
#1738 = ORIENTED_EDGE('',*,*,#1739,.T.);
#1739 = EDGE_CURVE('',#1732,#1740,#1742,.T.);
#1740 = VERTEX_POINT('',#1741);
#1741 = CARTESIAN_POINT('',(-2.,84.5,6.5));
#1742 = LINE('',#1743,#1744);
#1743 = CARTESIAN_POINT('',(-2.,84.5,8.5));
#1744 = VECTOR('',#1745,1.);
#1745 = DIRECTION('',(5.551115123126E-16,1.110223024625E-16,-1.));
#1746 = ORIENTED_EDGE('',*,*,#1747,.F.);
#1747 = EDGE_CURVE('',#1694,#1740,#1748,.T.);
#1748 = LINE('',#1749,#1750);
#1749 = CARTESIAN_POINT('',(-6.394884621841E-14,84.5,6.5));
#1750 = VECTOR('',#1751,1.);
#1751 = DIRECTION('',(-1.,2.22044604925E-16,-1.110223024625E-16));
#1752 = ORIENTED_EDGE('',*,*,#1691,.F.);
#1753 = PLANE('',#1754);
#1754 = AXIS2_PLACEMENT_3D('',#1755,#1756,#1757);
#1755 = CARTESIAN_POINT('',(-6.461498003319E-14,84.5,8.5));
#1756 = DIRECTION('',(-2.22044604925E-16,-1.,1.110223024625E-16));
#1757 = DIRECTION('',(3.330669073875E-16,-1.110223024625E-16,-1.));
#1758 = ADVANCED_FACE('',(#1759),#1777,.F.);
#1759 = FACE_BOUND('',#1760,.F.);
#1760 = EDGE_LOOP('',(#1761,#1762,#1770,#1776));
#1761 = ORIENTED_EDGE('',*,*,#1747,.T.);
#1762 = ORIENTED_EDGE('',*,*,#1763,.T.);
#1763 = EDGE_CURVE('',#1740,#1764,#1766,.T.);
#1764 = VERTEX_POINT('',#1765);
#1765 = CARTESIAN_POINT('',(-2.,86.,6.5));
#1766 = LINE('',#1767,#1768);
#1767 = CARTESIAN_POINT('',(-2.,84.5,6.5));
#1768 = VECTOR('',#1769,1.);
#1769 = DIRECTION('',(-2.22044604925E-16,1.,-5.551115123126E-16));
#1770 = ORIENTED_EDGE('',*,*,#1771,.F.);
#1771 = EDGE_CURVE('',#1710,#1764,#1772,.T.);
#1772 = LINE('',#1773,#1774);
#1773 = CARTESIAN_POINT('',(-6.394884621841E-14,86.,6.5));
#1774 = VECTOR('',#1775,1.);
#1775 = DIRECTION('',(-1.,2.22044604925E-16,-1.110223024625E-16));
#1776 = ORIENTED_EDGE('',*,*,#1717,.F.);
#1777 = PLANE('',#1778);
#1778 = AXIS2_PLACEMENT_3D('',#1779,#1780,#1781);
#1779 = CARTESIAN_POINT('',(-6.394884621841E-14,84.5,6.5));
#1780 = DIRECTION('',(1.110223024625E-16,-3.330669073875E-16,-1.));
#1781 = DIRECTION('',(2.465190328816E-32,1.,-3.330669073875E-16));
#1782 = ADVANCED_FACE('',(#1783),#1801,.F.);
#1783 = FACE_BOUND('',#1784,.F.);
#1784 = EDGE_LOOP('',(#1785,#1786,#1794,#1800));
#1785 = ORIENTED_EDGE('',*,*,#1771,.T.);
#1786 = ORIENTED_EDGE('',*,*,#1787,.T.);
#1787 = EDGE_CURVE('',#1764,#1788,#1790,.T.);
#1788 = VERTEX_POINT('',#1789);
#1789 = CARTESIAN_POINT('',(-2.,86.,8.5));
#1790 = LINE('',#1791,#1792);
#1791 = CARTESIAN_POINT('',(-2.,86.,6.5));
#1792 = VECTOR('',#1793,1.);
#1793 = DIRECTION('',(-5.551115123126E-16,-1.110223024625E-16,1.));
#1794 = ORIENTED_EDGE('',*,*,#1795,.F.);
#1795 = EDGE_CURVE('',#1702,#1788,#1796,.T.);
#1796 = LINE('',#1797,#1798);
#1797 = CARTESIAN_POINT('',(-6.461498003319E-14,86.,8.5));
#1798 = VECTOR('',#1799,1.);
#1799 = DIRECTION('',(-1.,2.22044604925E-16,-1.110223024625E-16));
#1800 = ORIENTED_EDGE('',*,*,#1709,.F.);
#1801 = PLANE('',#1802);
#1802 = AXIS2_PLACEMENT_3D('',#1803,#1804,#1805);
#1803 = CARTESIAN_POINT('',(-6.394884621841E-14,86.,6.5));
#1804 = DIRECTION('',(2.22044604925E-16,1.,-1.110223024625E-16));
#1805 = DIRECTION('',(-3.330669073875E-16,1.110223024625E-16,1.));
#1806 = ADVANCED_FACE('',(#1807),#1818,.F.);
#1807 = FACE_BOUND('',#1808,.F.);
#1808 = EDGE_LOOP('',(#1809,#1810,#1816,#1817));
#1809 = ORIENTED_EDGE('',*,*,#1795,.T.);
#1810 = ORIENTED_EDGE('',*,*,#1811,.T.);
#1811 = EDGE_CURVE('',#1788,#1732,#1812,.T.);
#1812 = LINE('',#1813,#1814);
#1813 = CARTESIAN_POINT('',(-2.,86.,8.5));
#1814 = VECTOR('',#1815,1.);
#1815 = DIRECTION('',(2.22044604925E-16,-1.,5.551115123126E-16));
#1816 = ORIENTED_EDGE('',*,*,#1731,.F.);
#1817 = ORIENTED_EDGE('',*,*,#1701,.F.);
#1818 = PLANE('',#1819);
#1819 = AXIS2_PLACEMENT_3D('',#1820,#1821,#1822);
#1820 = CARTESIAN_POINT('',(-6.461498003319E-14,86.,8.5));
#1821 = DIRECTION('',(-1.110223024625E-16,3.330669073875E-16,1.));
#1822 = DIRECTION('',(-2.465190328816E-32,-1.,3.330669073875E-16));
#1823 = ADVANCED_FACE('',(#1824),#1830,.T.);
#1824 = FACE_BOUND('',#1825,.T.);
#1825 = EDGE_LOOP('',(#1826,#1827,#1828,#1829));
#1826 = ORIENTED_EDGE('',*,*,#1739,.T.);
#1827 = ORIENTED_EDGE('',*,*,#1763,.T.);
#1828 = ORIENTED_EDGE('',*,*,#1787,.T.);
#1829 = ORIENTED_EDGE('',*,*,#1811,.T.);
#1830 = PLANE('',#1831);
#1831 = AXIS2_PLACEMENT_3D('',#1832,#1833,#1834);
#1832 = CARTESIAN_POINT('',(-2.,85.25,7.5));
#1833 = DIRECTION('',(1.,-4.440892098501E-16,-1.110223024625E-16));
#1834 = DIRECTION('',(-5.551115123126E-16,-1.110223024625E-16,1.));
#1835 = ( GEOMETRIC_REPRESENTATION_CONTEXT(3) 
GLOBAL_UNCERTAINTY_ASSIGNED_CONTEXT((#1839)) 
GLOBAL_UNIT_ASSIGNED_CONTEXT((#1836,#1837,#1838)) REPRESENTATION_CONTEXT
('Context #1','3D Context with UNIT and UNCERTAINTY') );
#1836 = ( LENGTH_UNIT() NAMED_UNIT(*) SI_UNIT(.MILLI.,.METRE.) );
#1837 = ( NAMED_UNIT(*) PLANE_ANGLE_UNIT() SI_UNIT($,.RADIAN.) );
#1838 = ( NAMED_UNIT(*) SI_UNIT($,.STERADIAN.) SOLID_ANGLE_UNIT() );
#1839 = UNCERTAINTY_MEASURE_WITH_UNIT(LENGTH_MEASURE(1.E-07),#1836,
  'distance_accuracy_value','confusion accuracy');
#1840 = CONTEXT_DEPENDENT_SHAPE_REPRESENTATION(#1841,#1843);
#1841 = ( REPRESENTATION_RELATIONSHIP('','',#32,#10) 
REPRESENTATION_RELATIONSHIP_WITH_TRANSFORMATION(#1842) 
SHAPE_REPRESENTATION_RELATIONSHIP() );
#1842 = ITEM_DEFINED_TRANSFORMATION('','',#11,#15);
#1843 = PRODUCT_DEFINITION_SHAPE('Placement','Placement of an item',
  #1844);
#1844 = NEXT_ASSEMBLY_USAGE_OCCURRENCE('2','Switch','',#5,#27,$);
#1845 = PRODUCT_RELATED_PRODUCT_CATEGORY('part',$,(#29));
#1846 = MECHANICAL_DESIGN_GEOMETRIC_PRESENTATION_REPRESENTATION('',(
    #1847),#1835);
#1847 = STYLED_ITEM('color',(#1848),#33);
#1848 = PRESENTATION_STYLE_ASSIGNMENT((#1849,#1855));
#1849 = SURFACE_STYLE_USAGE(.BOTH.,#1850);
#1850 = SURFACE_SIDE_STYLE('',(#1851));
#1851 = SURFACE_STYLE_FILL_AREA(#1852);
#1852 = FILL_AREA_STYLE('',(#1853));
#1853 = FILL_AREA_STYLE_COLOUR('',#1854);
#1854 = COLOUR_RGB('',0.800000010877,0.800000010877,0.901960800373);
#1855 = CURVE_STYLE('',#1856,POSITIVE_LENGTH_MEASURE(0.1),#1857);
#1856 = DRAUGHTING_PRE_DEFINED_CURVE_FONT('continuous');
#1857 = COLOUR_RGB('',9.803921802644E-02,9.803921802644E-02,
  9.803921802644E-02);
ENDSEC;
END-ISO-10303-21;
