ISO-10303-21;
HEADER;
FILE_DESCRIPTION(('FreeCAD Model'),'2;1');
FILE_NAME('Open CASCADE Shape Model','2026-06-20T00:21:30',(''),(''),
  'Open CASCADE STEP processor 7.9','FreeCAD','Unknown');
FILE_SCHEMA(('AUTOMOTIVE_DESIGN { 1 0 10303 214 1 1 1 1 }'));
ENDSEC;
DATA;
#1 = APPLICATION_PROTOCOL_DEFINITION('international standard',
  'automotive_design',2000,#2);
#2 = APPLICATION_CONTEXT(
  'core data for automotive mechanical design processes');
#3 = SHAPE_DEFINITION_REPRESENTATION(#4,#10);
#4 = PRODUCT_DEFINITION_SHAPE('','',#5);
#5 = PRODUCT_DEFINITION('design','',#6,#9);
#6 = PRODUCT_DEFINITION_FORMATION('','',#7);
#7 = PRODUCT('Document001','Document001','',(#8));
#8 = PRODUCT_CONTEXT('',#2,'mechanical');
#9 = PRODUCT_DEFINITION_CONTEXT('part definition',#2,'design');
#10 = ADVANCED_BREP_SHAPE_REPRESENTATION('',(#11,#15),#1403);
#11 = AXIS2_PLACEMENT_3D('',#12,#13,#14);
#12 = CARTESIAN_POINT('',(0.,0.,0.));
#13 = DIRECTION('',(0.,0.,1.));
#14 = DIRECTION('',(1.,0.,-0.));
#15 = MANIFOLD_SOLID_BREP('',#16);
#16 = CLOSED_SHELL('',(#17,#53,#81,#131,#167,#195,#215,#257,#299,#363,
    #391,#417,#439,#461,#483,#505,#527,#553,#575,#597,#619,#635,#727,
    #767,#793,#819,#845,#871,#897,#923,#949,#975,#1001,#1027,#1039,#1075
    ,#1103,#1131,#1159,#1189,#1219,#1242,#1275,#1298,#1331,#1355,#1383)
  );
#17 = ADVANCED_FACE('',(#18),#48,.T.);
#18 = FACE_BOUND('',#19,.T.);
#19 = EDGE_LOOP('',(#20,#29,#36,#43));
#20 = ORIENTED_EDGE('',*,*,#21,.T.);
#21 = EDGE_CURVE('',#22,#24,#26,.T.);
#22 = VERTEX_POINT('',#23);
#23 = CARTESIAN_POINT('',(54.125,65.5,8.65));
#24 = VERTEX_POINT('',#25);
#25 = CARTESIAN_POINT('',(56.125,65.5,8.65));
#26 = B_SPLINE_CURVE_WITH_KNOTS('',1,(#27,#28),.UNSPECIFIED.,.F.,.F.,(2,
    2),(0.,2.),.PIECEWISE_BEZIER_KNOTS.);
#27 = CARTESIAN_POINT('',(54.125,65.5,8.65));
#28 = CARTESIAN_POINT('',(56.125,65.5,8.65));
#29 = ORIENTED_EDGE('',*,*,#30,.T.);
#30 = EDGE_CURVE('',#24,#31,#33,.T.);
#31 = VERTEX_POINT('',#32);
#32 = CARTESIAN_POINT('',(56.125,68.3,8.65));
#33 = B_SPLINE_CURVE_WITH_KNOTS('',1,(#34,#35),.UNSPECIFIED.,.F.,.F.,(2,
    2),(0.,3.6),.PIECEWISE_BEZIER_KNOTS.);
#34 = CARTESIAN_POINT('',(56.125,65.5,8.65));
#35 = CARTESIAN_POINT('',(56.125,68.3,8.65));
#36 = ORIENTED_EDGE('',*,*,#37,.F.);
#37 = EDGE_CURVE('',#38,#31,#40,.T.);
#38 = VERTEX_POINT('',#39);
#39 = CARTESIAN_POINT('',(54.125,68.3,8.65));
#40 = B_SPLINE_CURVE_WITH_KNOTS('',1,(#41,#42),.UNSPECIFIED.,.F.,.F.,(2,
    2),(0.,2.),.PIECEWISE_BEZIER_KNOTS.);
#41 = CARTESIAN_POINT('',(54.125,68.3,8.65));
#42 = CARTESIAN_POINT('',(56.125,68.3,8.65));
#43 = ORIENTED_EDGE('',*,*,#44,.F.);
#44 = EDGE_CURVE('',#22,#38,#45,.T.);
#45 = B_SPLINE_CURVE_WITH_KNOTS('',1,(#46,#47),.UNSPECIFIED.,.F.,.F.,(2,
    2),(0.,3.6),.PIECEWISE_BEZIER_KNOTS.);
#46 = CARTESIAN_POINT('',(54.125,65.5,8.65));
#47 = CARTESIAN_POINT('',(54.125,68.3,8.65));
#48 = PLANE('',#49);
#49 = AXIS2_PLACEMENT_3D('',#50,#51,#52);
#50 = CARTESIAN_POINT('',(54.125,65.5,8.65));
#51 = DIRECTION('',(0.,0.,1.));
#52 = DIRECTION('',(1.,0.,-0.));
#53 = ADVANCED_FACE('',(#54),#76,.T.);
#54 = FACE_BOUND('',#55,.T.);
#55 = EDGE_LOOP('',(#56,#57,#64,#71));
#56 = ORIENTED_EDGE('',*,*,#37,.T.);
#57 = ORIENTED_EDGE('',*,*,#58,.T.);
#58 = EDGE_CURVE('',#31,#59,#61,.T.);
#59 = VERTEX_POINT('',#60);
#60 = CARTESIAN_POINT('',(56.125,69.51392580573,7.800000000001));
#61 = B_SPLINE_CURVE_WITH_KNOTS('',1,(#62,#63),.UNSPECIFIED.,.F.,.F.,(2,
    2),(3.6,5.868003970547),.PIECEWISE_BEZIER_KNOTS.);
#62 = CARTESIAN_POINT('',(56.125,68.3,8.65));
#63 = CARTESIAN_POINT('',(56.125,69.51392580573,7.800000000001));
#64 = ORIENTED_EDGE('',*,*,#65,.F.);
#65 = EDGE_CURVE('',#66,#59,#68,.T.);
#66 = VERTEX_POINT('',#67);
#67 = CARTESIAN_POINT('',(54.125,69.51392580573,7.800000000001));
#68 = B_SPLINE_CURVE_WITH_KNOTS('',1,(#69,#70),.UNSPECIFIED.,.F.,.F.,(2,
    2),(0.,2.),.PIECEWISE_BEZIER_KNOTS.);
#69 = CARTESIAN_POINT('',(54.125,69.51392580573,7.800000000001));
#70 = CARTESIAN_POINT('',(56.125,69.51392580573,7.800000000001));
#71 = ORIENTED_EDGE('',*,*,#72,.F.);
#72 = EDGE_CURVE('',#38,#66,#73,.T.);
#73 = B_SPLINE_CURVE_WITH_KNOTS('',1,(#74,#75),.UNSPECIFIED.,.F.,.F.,(2,
    2),(3.6,5.868003970547),.PIECEWISE_BEZIER_KNOTS.);
#74 = CARTESIAN_POINT('',(54.125,68.3,8.65));
#75 = CARTESIAN_POINT('',(54.125,69.51392580573,7.800000000001));
#76 = PLANE('',#77);
#77 = AXIS2_PLACEMENT_3D('',#78,#79,#80);
#78 = CARTESIAN_POINT('',(54.125,68.3,8.65));
#79 = DIRECTION('',(0.,0.573576436351,0.819152044289));
#80 = DIRECTION('',(0.,0.819152044289,-0.573576436351));
#81 = ADVANCED_FACE('',(#82),#126,.T.);
#82 = FACE_BOUND('',#83,.T.);
#83 = EDGE_LOOP('',(#84,#93,#100,#107,#114,#121));
#84 = ORIENTED_EDGE('',*,*,#85,.T.);
#85 = EDGE_CURVE('',#86,#88,#90,.T.);
#86 = VERTEX_POINT('',#87);
#87 = CARTESIAN_POINT('',(54.125,66.,10.5));
#88 = VERTEX_POINT('',#89);
#89 = CARTESIAN_POINT('',(56.125,66.,10.5));
#90 = B_SPLINE_CURVE_WITH_KNOTS('',1,(#91,#92),.UNSPECIFIED.,.F.,.F.,(2,
    2),(0.,2.),.PIECEWISE_BEZIER_KNOTS.);
#91 = CARTESIAN_POINT('',(54.125,66.,10.5));
#92 = CARTESIAN_POINT('',(56.125,66.,10.5));
#93 = ORIENTED_EDGE('',*,*,#94,.F.);
#94 = EDGE_CURVE('',#95,#88,#97,.T.);
#95 = VERTEX_POINT('',#96);
#96 = CARTESIAN_POINT('',(56.125,66.,11.));
#97 = B_SPLINE_CURVE_WITH_KNOTS('',1,(#98,#99),.UNSPECIFIED.,.F.,.F.,(2,
    2),(0.,0.5),.PIECEWISE_BEZIER_KNOTS.);
#98 = CARTESIAN_POINT('',(56.125,66.,11.));
#99 = CARTESIAN_POINT('',(56.125,66.,10.5));
#100 = ORIENTED_EDGE('',*,*,#101,.F.);
#101 = EDGE_CURVE('',#102,#95,#104,.T.);
#102 = VERTEX_POINT('',#103);
#103 = CARTESIAN_POINT('',(55.675,66.,11.));
#104 = B_SPLINE_CURVE_WITH_KNOTS('',1,(#105,#106),.UNSPECIFIED.,.F.,.F.,
  (2,2),(1.55,2.),.PIECEWISE_BEZIER_KNOTS.);
#105 = CARTESIAN_POINT('',(55.675,66.,11.));
#106 = CARTESIAN_POINT('',(56.125,66.,11.));
#107 = ORIENTED_EDGE('',*,*,#108,.T.);
#108 = EDGE_CURVE('',#102,#109,#111,.T.);
#109 = VERTEX_POINT('',#110);
#110 = CARTESIAN_POINT('',(54.575,66.,11.));
#111 = B_SPLINE_CURVE_WITH_KNOTS('',1,(#112,#113),.UNSPECIFIED.,.F.,.F.,
  (2,2),(-10.485,-9.385),.PIECEWISE_BEZIER_KNOTS.);
#112 = CARTESIAN_POINT('',(55.675,66.,11.));
#113 = CARTESIAN_POINT('',(54.575,66.,11.));
#114 = ORIENTED_EDGE('',*,*,#115,.F.);
#115 = EDGE_CURVE('',#116,#109,#118,.T.);
#116 = VERTEX_POINT('',#117);
#117 = CARTESIAN_POINT('',(54.125,66.,11.));
#118 = B_SPLINE_CURVE_WITH_KNOTS('',1,(#119,#120),.UNSPECIFIED.,.F.,.F.,
  (2,2),(0.,0.45),.PIECEWISE_BEZIER_KNOTS.);
#119 = CARTESIAN_POINT('',(54.125,66.,11.));
#120 = CARTESIAN_POINT('',(54.575,66.,11.));
#121 = ORIENTED_EDGE('',*,*,#122,.T.);
#122 = EDGE_CURVE('',#116,#86,#123,.T.);
#123 = B_SPLINE_CURVE_WITH_KNOTS('',1,(#124,#125),.UNSPECIFIED.,.F.,.F.,
  (2,2),(0.,0.5),.PIECEWISE_BEZIER_KNOTS.);
#124 = CARTESIAN_POINT('',(54.125,66.,11.));
#125 = CARTESIAN_POINT('',(54.125,66.,10.5));
#126 = PLANE('',#127);
#127 = AXIS2_PLACEMENT_3D('',#128,#129,#130);
#128 = CARTESIAN_POINT('',(54.125,66.,11.));
#129 = DIRECTION('',(0.,-1.,0.));
#130 = DIRECTION('',(0.,-0.,-1.));
#131 = ADVANCED_FACE('',(#132),#162,.T.);
#132 = FACE_BOUND('',#133,.T.);
#133 = EDGE_LOOP('',(#134,#143,#150,#157));
#134 = ORIENTED_EDGE('',*,*,#135,.T.);
#135 = EDGE_CURVE('',#136,#138,#140,.T.);
#136 = VERTEX_POINT('',#137);
#137 = CARTESIAN_POINT('',(54.125,71.5,9.8));
#138 = VERTEX_POINT('',#139);
#139 = CARTESIAN_POINT('',(56.125,71.5,9.8));
#140 = B_SPLINE_CURVE_WITH_KNOTS('',1,(#141,#142),.UNSPECIFIED.,.F.,.F.,
  (2,2),(0.,2.),.PIECEWISE_BEZIER_KNOTS.);
#141 = CARTESIAN_POINT('',(54.125,71.5,9.8));
#142 = CARTESIAN_POINT('',(56.125,71.5,9.8));
#143 = ORIENTED_EDGE('',*,*,#144,.T.);
#144 = EDGE_CURVE('',#138,#145,#147,.T.);
#145 = VERTEX_POINT('',#146);
#146 = CARTESIAN_POINT('',(56.125,68.3,9.8));
#147 = B_SPLINE_CURVE_WITH_KNOTS('',1,(#148,#149),.UNSPECIFIED.,.F.,.F.,
  (2,2),(0.,2.),.PIECEWISE_BEZIER_KNOTS.);
#148 = CARTESIAN_POINT('',(56.125,71.5,9.8));
#149 = CARTESIAN_POINT('',(56.125,68.3,9.8));
#150 = ORIENTED_EDGE('',*,*,#151,.F.);
#151 = EDGE_CURVE('',#152,#145,#154,.T.);
#152 = VERTEX_POINT('',#153);
#153 = CARTESIAN_POINT('',(54.125,68.3,9.8));
#154 = B_SPLINE_CURVE_WITH_KNOTS('',1,(#155,#156),.UNSPECIFIED.,.F.,.F.,
  (2,2),(0.,2.),.PIECEWISE_BEZIER_KNOTS.);
#155 = CARTESIAN_POINT('',(54.125,68.3,9.8));
#156 = CARTESIAN_POINT('',(56.125,68.3,9.8));
#157 = ORIENTED_EDGE('',*,*,#158,.F.);
#158 = EDGE_CURVE('',#136,#152,#159,.T.);
#159 = B_SPLINE_CURVE_WITH_KNOTS('',1,(#160,#161),.UNSPECIFIED.,.F.,.F.,
  (2,2),(0.,2.),.PIECEWISE_BEZIER_KNOTS.);
#160 = CARTESIAN_POINT('',(54.125,71.5,9.8));
#161 = CARTESIAN_POINT('',(54.125,68.3,9.8));
#162 = PLANE('',#163);
#163 = AXIS2_PLACEMENT_3D('',#164,#165,#166);
#164 = CARTESIAN_POINT('',(54.125,71.5,9.8));
#165 = DIRECTION('',(0.,0.,-1.));
#166 = DIRECTION('',(-1.,0.,-0.));
#167 = ADVANCED_FACE('',(#168),#190,.T.);
#168 = FACE_BOUND('',#169,.T.);
#169 = EDGE_LOOP('',(#170,#171,#178,#185));
#170 = ORIENTED_EDGE('',*,*,#151,.T.);
#171 = ORIENTED_EDGE('',*,*,#172,.T.);
#172 = EDGE_CURVE('',#145,#173,#175,.T.);
#173 = VERTEX_POINT('',#174);
#174 = CARTESIAN_POINT('',(56.125,67.30029639528,10.5));
#175 = B_SPLINE_CURVE_WITH_KNOTS('',1,(#176,#177),.UNSPECIFIED.,.F.,.F.,
  (2,2),(2.,3.220412756936),.PIECEWISE_BEZIER_KNOTS.);
#176 = CARTESIAN_POINT('',(56.125,68.3,9.8));
#177 = CARTESIAN_POINT('',(56.125,67.30029639528,10.5));
#178 = ORIENTED_EDGE('',*,*,#179,.F.);
#179 = EDGE_CURVE('',#180,#173,#182,.T.);
#180 = VERTEX_POINT('',#181);
#181 = CARTESIAN_POINT('',(54.125,67.30029639528,10.5));
#182 = B_SPLINE_CURVE_WITH_KNOTS('',1,(#183,#184),.UNSPECIFIED.,.F.,.F.,
  (2,2),(0.,2.),.PIECEWISE_BEZIER_KNOTS.);
#183 = CARTESIAN_POINT('',(54.125,67.30029639528,10.5));
#184 = CARTESIAN_POINT('',(56.125,67.30029639528,10.5));
#185 = ORIENTED_EDGE('',*,*,#186,.F.);
#186 = EDGE_CURVE('',#152,#180,#187,.T.);
#187 = B_SPLINE_CURVE_WITH_KNOTS('',1,(#188,#189),.UNSPECIFIED.,.F.,.F.,
  (2,2),(2.,3.220412756936),.PIECEWISE_BEZIER_KNOTS.);
#188 = CARTESIAN_POINT('',(54.125,68.3,9.8));
#189 = CARTESIAN_POINT('',(54.125,67.30029639528,10.5));
#190 = PLANE('',#191);
#191 = AXIS2_PLACEMENT_3D('',#192,#193,#194);
#192 = CARTESIAN_POINT('',(54.125,68.3,9.8));
#193 = DIRECTION('',(-3.637765840954E-16,-0.573576436351,-0.819152044289
    ));
#194 = DIRECTION('',(0.,-0.819152044289,0.573576436351));
#195 = ADVANCED_FACE('',(#196),#210,.T.);
#196 = FACE_BOUND('',#197,.T.);
#197 = EDGE_LOOP('',(#198,#203,#204,#209));
#198 = ORIENTED_EDGE('',*,*,#199,.F.);
#199 = EDGE_CURVE('',#180,#86,#200,.T.);
#200 = B_SPLINE_CURVE_WITH_KNOTS('',1,(#201,#202),.UNSPECIFIED.,.F.,.F.,
  (2,2),(3.220412756936,5.098523515979),.PIECEWISE_BEZIER_KNOTS.);
#201 = CARTESIAN_POINT('',(54.125,67.30029639528,10.5));
#202 = CARTESIAN_POINT('',(54.125,66.,10.5));
#203 = ORIENTED_EDGE('',*,*,#179,.T.);
#204 = ORIENTED_EDGE('',*,*,#205,.T.);
#205 = EDGE_CURVE('',#173,#88,#206,.T.);
#206 = B_SPLINE_CURVE_WITH_KNOTS('',1,(#207,#208),.UNSPECIFIED.,.F.,.F.,
  (2,2),(3.220412756936,5.098523515979),.PIECEWISE_BEZIER_KNOTS.);
#207 = CARTESIAN_POINT('',(56.125,67.30029639528,10.5));
#208 = CARTESIAN_POINT('',(56.125,66.,10.5));
#209 = ORIENTED_EDGE('',*,*,#85,.F.);
#210 = PLANE('',#211);
#211 = AXIS2_PLACEMENT_3D('',#212,#213,#214);
#212 = CARTESIAN_POINT('',(54.125,67.30029639528,10.5));
#213 = DIRECTION('',(0.,0.,-1.));
#214 = DIRECTION('',(-1.,0.,-0.));
#215 = ADVANCED_FACE('',(#216),#252,.T.);
#216 = FACE_BOUND('',#217,.T.);
#217 = EDGE_LOOP('',(#218,#225,#226,#233,#240,#247));
#218 = ORIENTED_EDGE('',*,*,#219,.T.);
#219 = EDGE_CURVE('',#220,#102,#222,.T.);
#220 = VERTEX_POINT('',#221);
#221 = CARTESIAN_POINT('',(55.675,67.385,11.));
#222 = B_SPLINE_CURVE_WITH_KNOTS('',1,(#223,#224),.UNSPECIFIED.,.F.,.F.,
  (2,2),(-11.87,-10.485),.PIECEWISE_BEZIER_KNOTS.);
#223 = CARTESIAN_POINT('',(55.675,67.385,11.));
#224 = CARTESIAN_POINT('',(55.675,66.,11.));
#225 = ORIENTED_EDGE('',*,*,#101,.T.);
#226 = ORIENTED_EDGE('',*,*,#227,.T.);
#227 = EDGE_CURVE('',#95,#228,#230,.T.);
#228 = VERTEX_POINT('',#229);
#229 = CARTESIAN_POINT('',(56.125,65.5,11.));
#230 = B_SPLINE_CURVE_WITH_KNOTS('',1,(#231,#232),.UNSPECIFIED.,.F.,.F.,
  (2,2),(4.183333333333,4.2),.PIECEWISE_BEZIER_KNOTS.);
#231 = CARTESIAN_POINT('',(56.125,66.,11.));
#232 = CARTESIAN_POINT('',(56.125,65.5,11.));
#233 = ORIENTED_EDGE('',*,*,#234,.F.);
#234 = EDGE_CURVE('',#235,#228,#237,.T.);
#235 = VERTEX_POINT('',#236);
#236 = CARTESIAN_POINT('',(57.125,65.5,11.));
#237 = B_SPLINE_CURVE_WITH_KNOTS('',1,(#238,#239),.UNSPECIFIED.,.F.,.F.,
  (2,2),(4.2,4.25),.PIECEWISE_BEZIER_KNOTS.);
#238 = CARTESIAN_POINT('',(57.125,65.5,11.));
#239 = CARTESIAN_POINT('',(56.125,65.5,11.));
#240 = ORIENTED_EDGE('',*,*,#241,.F.);
#241 = EDGE_CURVE('',#242,#235,#244,.T.);
#242 = VERTEX_POINT('',#243);
#243 = CARTESIAN_POINT('',(57.125,67.385,11.));
#244 = B_SPLINE_CURVE_WITH_KNOTS('',1,(#245,#246),.UNSPECIFIED.,.F.,.F.,
  (2,2),(4.115,6.),.PIECEWISE_BEZIER_KNOTS.);
#245 = CARTESIAN_POINT('',(57.125,67.385,11.));
#246 = CARTESIAN_POINT('',(57.125,65.5,11.));
#247 = ORIENTED_EDGE('',*,*,#248,.T.);
#248 = EDGE_CURVE('',#242,#220,#249,.T.);
#249 = B_SPLINE_CURVE_WITH_KNOTS('',1,(#250,#251),.UNSPECIFIED.,.F.,.F.,
  (2,2),(-13.32,-11.87),.PIECEWISE_BEZIER_KNOTS.);
#250 = CARTESIAN_POINT('',(57.125,67.385,11.));
#251 = CARTESIAN_POINT('',(55.675,67.385,11.));
#252 = PLANE('',#253);
#253 = AXIS2_PLACEMENT_3D('',#254,#255,#256);
#254 = CARTESIAN_POINT('',(53.125,71.5,11.));
#255 = DIRECTION('',(0.,0.,1.));
#256 = DIRECTION('',(1.,0.,-0.));
#257 = ADVANCED_FACE('',(#258),#294,.T.);
#258 = FACE_BOUND('',#259,.T.);
#259 = EDGE_LOOP('',(#260,#269,#276,#283,#288,#289));
#260 = ORIENTED_EDGE('',*,*,#261,.T.);
#261 = EDGE_CURVE('',#262,#264,#266,.T.);
#262 = VERTEX_POINT('',#263);
#263 = CARTESIAN_POINT('',(54.575,67.385,11.));
#264 = VERTEX_POINT('',#265);
#265 = CARTESIAN_POINT('',(53.125,67.385,11.));
#266 = B_SPLINE_CURVE_WITH_KNOTS('',1,(#267,#268),.UNSPECIFIED.,.F.,.F.,
  (2,2),(-8.,-6.55),.PIECEWISE_BEZIER_KNOTS.);
#267 = CARTESIAN_POINT('',(54.575,67.385,11.));
#268 = CARTESIAN_POINT('',(53.125,67.385,11.));
#269 = ORIENTED_EDGE('',*,*,#270,.F.);
#270 = EDGE_CURVE('',#271,#264,#273,.T.);
#271 = VERTEX_POINT('',#272);
#272 = CARTESIAN_POINT('',(53.125,65.5,11.));
#273 = B_SPLINE_CURVE_WITH_KNOTS('',1,(#274,#275),.UNSPECIFIED.,.F.,.F.,
  (2,2),(0.,1.885),.PIECEWISE_BEZIER_KNOTS.);
#274 = CARTESIAN_POINT('',(53.125,65.5,11.));
#275 = CARTESIAN_POINT('',(53.125,67.385,11.));
#276 = ORIENTED_EDGE('',*,*,#277,.F.);
#277 = EDGE_CURVE('',#278,#271,#280,.T.);
#278 = VERTEX_POINT('',#279);
#279 = CARTESIAN_POINT('',(54.125,65.5,11.));
#280 = B_SPLINE_CURVE_WITH_KNOTS('',1,(#281,#282),.UNSPECIFIED.,.F.,.F.,
  (2,2),(4.35,4.4),.PIECEWISE_BEZIER_KNOTS.);
#281 = CARTESIAN_POINT('',(54.125,65.5,11.));
#282 = CARTESIAN_POINT('',(53.125,65.5,11.));
#283 = ORIENTED_EDGE('',*,*,#284,.F.);
#284 = EDGE_CURVE('',#116,#278,#285,.T.);
#285 = B_SPLINE_CURVE_WITH_KNOTS('',1,(#286,#287),.UNSPECIFIED.,.F.,.F.,
  (2,2),(4.183333333333,4.2),.PIECEWISE_BEZIER_KNOTS.);
#286 = CARTESIAN_POINT('',(54.125,66.,11.));
#287 = CARTESIAN_POINT('',(54.125,65.5,11.));
#288 = ORIENTED_EDGE('',*,*,#115,.T.);
#289 = ORIENTED_EDGE('',*,*,#290,.T.);
#290 = EDGE_CURVE('',#109,#262,#291,.T.);
#291 = B_SPLINE_CURVE_WITH_KNOTS('',1,(#292,#293),.UNSPECIFIED.,.F.,.F.,
  (2,2),(-9.385,-8.),.PIECEWISE_BEZIER_KNOTS.);
#292 = CARTESIAN_POINT('',(54.575,66.,11.));
#293 = CARTESIAN_POINT('',(54.575,67.385,11.));
#294 = PLANE('',#295);
#295 = AXIS2_PLACEMENT_3D('',#296,#297,#298);
#296 = CARTESIAN_POINT('',(53.125,71.5,11.));
#297 = DIRECTION('',(0.,0.,1.));
#298 = DIRECTION('',(1.,0.,-0.));
#299 = ADVANCED_FACE('',(#300),#358,.T.);
#300 = FACE_BOUND('',#301,.T.);
#301 = EDGE_LOOP('',(#302,#311,#318,#325,#332,#339,#346,#353));
#302 = ORIENTED_EDGE('',*,*,#303,.T.);
#303 = EDGE_CURVE('',#304,#306,#308,.T.);
#304 = VERTEX_POINT('',#305);
#305 = CARTESIAN_POINT('',(55.675,68.615,11.));
#306 = VERTEX_POINT('',#307);
#307 = CARTESIAN_POINT('',(57.125,68.615,11.));
#308 = B_SPLINE_CURVE_WITH_KNOTS('',1,(#309,#310),.UNSPECIFIED.,.F.,.F.,
  (2,2),(-16.,-14.55),.PIECEWISE_BEZIER_KNOTS.);
#309 = CARTESIAN_POINT('',(55.675,68.615,11.));
#310 = CARTESIAN_POINT('',(57.125,68.615,11.));
#311 = ORIENTED_EDGE('',*,*,#312,.F.);
#312 = EDGE_CURVE('',#313,#306,#315,.T.);
#313 = VERTEX_POINT('',#314);
#314 = CARTESIAN_POINT('',(57.125,71.5,11.));
#315 = B_SPLINE_CURVE_WITH_KNOTS('',1,(#316,#317),.UNSPECIFIED.,.F.,.F.,
  (2,2),(0.,2.885),.PIECEWISE_BEZIER_KNOTS.);
#316 = CARTESIAN_POINT('',(57.125,71.5,11.));
#317 = CARTESIAN_POINT('',(57.125,68.615,11.));
#318 = ORIENTED_EDGE('',*,*,#319,.F.);
#319 = EDGE_CURVE('',#320,#313,#322,.T.);
#320 = VERTEX_POINT('',#321);
#321 = CARTESIAN_POINT('',(53.125,71.5,11.));
#322 = B_SPLINE_CURVE_WITH_KNOTS('',1,(#323,#324),.UNSPECIFIED.,.F.,.F.,
  (2,2),(0.,4.),.PIECEWISE_BEZIER_KNOTS.);
#323 = CARTESIAN_POINT('',(53.125,71.5,11.));
#324 = CARTESIAN_POINT('',(57.125,71.5,11.));
#325 = ORIENTED_EDGE('',*,*,#326,.F.);
#326 = EDGE_CURVE('',#327,#320,#329,.T.);
#327 = VERTEX_POINT('',#328);
#328 = CARTESIAN_POINT('',(53.125,68.615,11.));
#329 = B_SPLINE_CURVE_WITH_KNOTS('',1,(#330,#331),.UNSPECIFIED.,.F.,.F.,
  (2,2),(3.115,6.),.PIECEWISE_BEZIER_KNOTS.);
#330 = CARTESIAN_POINT('',(53.125,68.615,11.));
#331 = CARTESIAN_POINT('',(53.125,71.5,11.));
#332 = ORIENTED_EDGE('',*,*,#333,.T.);
#333 = EDGE_CURVE('',#327,#334,#336,.T.);
#334 = VERTEX_POINT('',#335);
#335 = CARTESIAN_POINT('',(54.575,68.615,11.));
#336 = B_SPLINE_CURVE_WITH_KNOTS('',1,(#337,#338),.UNSPECIFIED.,.F.,.F.,
  (2,2),(-5.32,-3.87),.PIECEWISE_BEZIER_KNOTS.);
#337 = CARTESIAN_POINT('',(53.125,68.615,11.));
#338 = CARTESIAN_POINT('',(54.575,68.615,11.));
#339 = ORIENTED_EDGE('',*,*,#340,.T.);
#340 = EDGE_CURVE('',#334,#341,#343,.T.);
#341 = VERTEX_POINT('',#342);
#342 = CARTESIAN_POINT('',(54.575,70.,11.));
#343 = B_SPLINE_CURVE_WITH_KNOTS('',1,(#344,#345),.UNSPECIFIED.,.F.,.F.,
  (2,2),(-3.87,-2.485),.PIECEWISE_BEZIER_KNOTS.);
#344 = CARTESIAN_POINT('',(54.575,68.615,11.));
#345 = CARTESIAN_POINT('',(54.575,70.,11.));
#346 = ORIENTED_EDGE('',*,*,#347,.T.);
#347 = EDGE_CURVE('',#341,#348,#350,.T.);
#348 = VERTEX_POINT('',#349);
#349 = CARTESIAN_POINT('',(55.675,70.,11.));
#350 = B_SPLINE_CURVE_WITH_KNOTS('',1,(#351,#352),.UNSPECIFIED.,.F.,.F.,
  (2,2),(-2.485,-1.385),.PIECEWISE_BEZIER_KNOTS.);
#351 = CARTESIAN_POINT('',(54.575,70.,11.));
#352 = CARTESIAN_POINT('',(55.675,70.,11.));
#353 = ORIENTED_EDGE('',*,*,#354,.T.);
#354 = EDGE_CURVE('',#348,#304,#355,.T.);
#355 = B_SPLINE_CURVE_WITH_KNOTS('',1,(#356,#357),.UNSPECIFIED.,.F.,.F.,
  (2,2),(-1.385,0.),.PIECEWISE_BEZIER_KNOTS.);
#356 = CARTESIAN_POINT('',(55.675,70.,11.));
#357 = CARTESIAN_POINT('',(55.675,68.615,11.));
#358 = PLANE('',#359);
#359 = AXIS2_PLACEMENT_3D('',#360,#361,#362);
#360 = CARTESIAN_POINT('',(53.125,71.5,11.));
#361 = DIRECTION('',(0.,0.,1.));
#362 = DIRECTION('',(1.,0.,-0.));
#363 = ADVANCED_FACE('',(#364),#386,.T.);
#364 = FACE_BOUND('',#365,.T.);
#365 = EDGE_LOOP('',(#366,#373,#374,#381));
#366 = ORIENTED_EDGE('',*,*,#367,.T.);
#367 = EDGE_CURVE('',#368,#306,#370,.T.);
#368 = VERTEX_POINT('',#369);
#369 = CARTESIAN_POINT('',(57.125,68.615,13.6));
#370 = B_SPLINE_CURVE_WITH_KNOTS('',1,(#371,#372),.UNSPECIFIED.,.F.,.F.,
  (2,2),(0.2,2.799999999999),.PIECEWISE_BEZIER_KNOTS.);
#371 = CARTESIAN_POINT('',(57.125,68.615,13.6));
#372 = CARTESIAN_POINT('',(57.125,68.615,11.));
#373 = ORIENTED_EDGE('',*,*,#303,.F.);
#374 = ORIENTED_EDGE('',*,*,#375,.F.);
#375 = EDGE_CURVE('',#376,#304,#378,.T.);
#376 = VERTEX_POINT('',#377);
#377 = CARTESIAN_POINT('',(55.675,68.615,13.6));
#378 = B_SPLINE_CURVE_WITH_KNOTS('',1,(#379,#380),.UNSPECIFIED.,.F.,.F.,
  (2,2),(0.2,2.799999999999),.PIECEWISE_BEZIER_KNOTS.);
#379 = CARTESIAN_POINT('',(55.675,68.615,13.6));
#380 = CARTESIAN_POINT('',(55.675,68.615,11.));
#381 = ORIENTED_EDGE('',*,*,#382,.F.);
#382 = EDGE_CURVE('',#368,#376,#383,.T.);
#383 = B_SPLINE_CURVE_WITH_KNOTS('',1,(#384,#385),.UNSPECIFIED.,.F.,.F.,
  (2,2),(0.,1.45),.PIECEWISE_BEZIER_KNOTS.);
#384 = CARTESIAN_POINT('',(57.125,68.615,13.6));
#385 = CARTESIAN_POINT('',(55.675,68.615,13.6));
#386 = PLANE('',#387);
#387 = AXIS2_PLACEMENT_3D('',#388,#389,#390);
#388 = CARTESIAN_POINT('',(55.675,68.615,13.8));
#389 = DIRECTION('',(0.,1.,0.));
#390 = DIRECTION('',(0.,-0.,1.));
#391 = ADVANCED_FACE('',(#392),#412,.T.);
#392 = FACE_BOUND('',#393,.T.);
#393 = EDGE_LOOP('',(#394,#401,#406,#407));
#394 = ORIENTED_EDGE('',*,*,#395,.T.);
#395 = EDGE_CURVE('',#396,#242,#398,.T.);
#396 = VERTEX_POINT('',#397);
#397 = CARTESIAN_POINT('',(57.125,67.385,13.6));
#398 = B_SPLINE_CURVE_WITH_KNOTS('',1,(#399,#400),.UNSPECIFIED.,.F.,.F.,
  (2,2),(0.2,2.799999999999),.PIECEWISE_BEZIER_KNOTS.);
#399 = CARTESIAN_POINT('',(57.125,67.385,13.6));
#400 = CARTESIAN_POINT('',(57.125,67.385,11.));
#401 = ORIENTED_EDGE('',*,*,#402,.F.);
#402 = EDGE_CURVE('',#306,#242,#403,.T.);
#403 = B_SPLINE_CURVE_WITH_KNOTS('',1,(#404,#405),.UNSPECIFIED.,.F.,.F.,
  (2,2),(-14.55,-13.32),.PIECEWISE_BEZIER_KNOTS.);
#404 = CARTESIAN_POINT('',(57.125,68.615,11.));
#405 = CARTESIAN_POINT('',(57.125,67.385,11.));
#406 = ORIENTED_EDGE('',*,*,#367,.F.);
#407 = ORIENTED_EDGE('',*,*,#408,.F.);
#408 = EDGE_CURVE('',#396,#368,#409,.T.);
#409 = B_SPLINE_CURVE_WITH_KNOTS('',1,(#410,#411),.UNSPECIFIED.,.F.,.F.,
  (2,2),(0.,1.23),.PIECEWISE_BEZIER_KNOTS.);
#410 = CARTESIAN_POINT('',(57.125,67.385,13.6));
#411 = CARTESIAN_POINT('',(57.125,68.615,13.6));
#412 = PLANE('',#413);
#413 = AXIS2_PLACEMENT_3D('',#414,#415,#416);
#414 = CARTESIAN_POINT('',(57.125,68.615,13.8));
#415 = DIRECTION('',(1.,0.,0.));
#416 = DIRECTION('',(-0.,0.,1.));
#417 = ADVANCED_FACE('',(#418),#434,.T.);
#418 = FACE_BOUND('',#419,.T.);
#419 = EDGE_LOOP('',(#420,#427,#428,#429));
#420 = ORIENTED_EDGE('',*,*,#421,.T.);
#421 = EDGE_CURVE('',#422,#220,#424,.T.);
#422 = VERTEX_POINT('',#423);
#423 = CARTESIAN_POINT('',(55.675,67.385,13.6));
#424 = B_SPLINE_CURVE_WITH_KNOTS('',1,(#425,#426),.UNSPECIFIED.,.F.,.F.,
  (2,2),(0.2,2.799999999999),.PIECEWISE_BEZIER_KNOTS.);
#425 = CARTESIAN_POINT('',(55.675,67.385,13.6));
#426 = CARTESIAN_POINT('',(55.675,67.385,11.));
#427 = ORIENTED_EDGE('',*,*,#248,.F.);
#428 = ORIENTED_EDGE('',*,*,#395,.F.);
#429 = ORIENTED_EDGE('',*,*,#430,.F.);
#430 = EDGE_CURVE('',#422,#396,#431,.T.);
#431 = B_SPLINE_CURVE_WITH_KNOTS('',1,(#432,#433),.UNSPECIFIED.,.F.,.F.,
  (2,2),(0.,1.45),.PIECEWISE_BEZIER_KNOTS.);
#432 = CARTESIAN_POINT('',(55.675,67.385,13.6));
#433 = CARTESIAN_POINT('',(57.125,67.385,13.6));
#434 = PLANE('',#435);
#435 = AXIS2_PLACEMENT_3D('',#436,#437,#438);
#436 = CARTESIAN_POINT('',(57.125,67.385,13.8));
#437 = DIRECTION('',(0.,-1.,0.));
#438 = DIRECTION('',(0.,-0.,-1.));
#439 = ADVANCED_FACE('',(#440),#456,.T.);
#440 = FACE_BOUND('',#441,.T.);
#441 = EDGE_LOOP('',(#442,#449,#450,#451));
#442 = ORIENTED_EDGE('',*,*,#443,.T.);
#443 = EDGE_CURVE('',#444,#102,#446,.T.);
#444 = VERTEX_POINT('',#445);
#445 = CARTESIAN_POINT('',(55.675,66.,13.6));
#446 = B_SPLINE_CURVE_WITH_KNOTS('',1,(#447,#448),.UNSPECIFIED.,.F.,.F.,
  (2,2),(0.2,2.799999999999),.PIECEWISE_BEZIER_KNOTS.);
#447 = CARTESIAN_POINT('',(55.675,66.,13.6));
#448 = CARTESIAN_POINT('',(55.675,66.,11.));
#449 = ORIENTED_EDGE('',*,*,#219,.F.);
#450 = ORIENTED_EDGE('',*,*,#421,.F.);
#451 = ORIENTED_EDGE('',*,*,#452,.F.);
#452 = EDGE_CURVE('',#444,#422,#453,.T.);
#453 = B_SPLINE_CURVE_WITH_KNOTS('',1,(#454,#455),.UNSPECIFIED.,.F.,.F.,
  (2,2),(0.,1.385),.PIECEWISE_BEZIER_KNOTS.);
#454 = CARTESIAN_POINT('',(55.675,66.,13.6));
#455 = CARTESIAN_POINT('',(55.675,67.385,13.6));
#456 = PLANE('',#457);
#457 = AXIS2_PLACEMENT_3D('',#458,#459,#460);
#458 = CARTESIAN_POINT('',(55.675,67.385,13.8));
#459 = DIRECTION('',(1.,0.,0.));
#460 = DIRECTION('',(-0.,0.,1.));
#461 = ADVANCED_FACE('',(#462),#478,.T.);
#462 = FACE_BOUND('',#463,.T.);
#463 = EDGE_LOOP('',(#464,#471,#472,#473));
#464 = ORIENTED_EDGE('',*,*,#465,.T.);
#465 = EDGE_CURVE('',#466,#109,#468,.T.);
#466 = VERTEX_POINT('',#467);
#467 = CARTESIAN_POINT('',(54.575,66.,13.6));
#468 = B_SPLINE_CURVE_WITH_KNOTS('',1,(#469,#470),.UNSPECIFIED.,.F.,.F.,
  (2,2),(0.2,2.799999999999),.PIECEWISE_BEZIER_KNOTS.);
#469 = CARTESIAN_POINT('',(54.575,66.,13.6));
#470 = CARTESIAN_POINT('',(54.575,66.,11.));
#471 = ORIENTED_EDGE('',*,*,#108,.F.);
#472 = ORIENTED_EDGE('',*,*,#443,.F.);
#473 = ORIENTED_EDGE('',*,*,#474,.F.);
#474 = EDGE_CURVE('',#466,#444,#475,.T.);
#475 = B_SPLINE_CURVE_WITH_KNOTS('',1,(#476,#477),.UNSPECIFIED.,.F.,.F.,
  (2,2),(0.,1.1),.PIECEWISE_BEZIER_KNOTS.);
#476 = CARTESIAN_POINT('',(54.575,66.,13.6));
#477 = CARTESIAN_POINT('',(55.675,66.,13.6));
#478 = PLANE('',#479);
#479 = AXIS2_PLACEMENT_3D('',#480,#481,#482);
#480 = CARTESIAN_POINT('',(55.675,66.,13.8));
#481 = DIRECTION('',(0.,-1.,0.));
#482 = DIRECTION('',(0.,-0.,-1.));
#483 = ADVANCED_FACE('',(#484),#500,.T.);
#484 = FACE_BOUND('',#485,.T.);
#485 = EDGE_LOOP('',(#486,#493,#494,#495));
#486 = ORIENTED_EDGE('',*,*,#487,.T.);
#487 = EDGE_CURVE('',#488,#262,#490,.T.);
#488 = VERTEX_POINT('',#489);
#489 = CARTESIAN_POINT('',(54.575,67.385,13.6));
#490 = B_SPLINE_CURVE_WITH_KNOTS('',1,(#491,#492),.UNSPECIFIED.,.F.,.F.,
  (2,2),(0.2,2.799999999999),.PIECEWISE_BEZIER_KNOTS.);
#491 = CARTESIAN_POINT('',(54.575,67.385,13.6));
#492 = CARTESIAN_POINT('',(54.575,67.385,11.));
#493 = ORIENTED_EDGE('',*,*,#290,.F.);
#494 = ORIENTED_EDGE('',*,*,#465,.F.);
#495 = ORIENTED_EDGE('',*,*,#496,.F.);
#496 = EDGE_CURVE('',#488,#466,#497,.T.);
#497 = B_SPLINE_CURVE_WITH_KNOTS('',1,(#498,#499),.UNSPECIFIED.,.F.,.F.,
  (2,2),(0.,1.385),.PIECEWISE_BEZIER_KNOTS.);
#498 = CARTESIAN_POINT('',(54.575,67.385,13.6));
#499 = CARTESIAN_POINT('',(54.575,66.,13.6));
#500 = PLANE('',#501);
#501 = AXIS2_PLACEMENT_3D('',#502,#503,#504);
#502 = CARTESIAN_POINT('',(54.575,66.,13.8));
#503 = DIRECTION('',(-1.,0.,0.));
#504 = DIRECTION('',(0.,0.,-1.));
#505 = ADVANCED_FACE('',(#506),#522,.T.);
#506 = FACE_BOUND('',#507,.T.);
#507 = EDGE_LOOP('',(#508,#515,#516,#517));
#508 = ORIENTED_EDGE('',*,*,#509,.T.);
#509 = EDGE_CURVE('',#510,#264,#512,.T.);
#510 = VERTEX_POINT('',#511);
#511 = CARTESIAN_POINT('',(53.125,67.385,13.6));
#512 = B_SPLINE_CURVE_WITH_KNOTS('',1,(#513,#514),.UNSPECIFIED.,.F.,.F.,
  (2,2),(0.2,2.799999999999),.PIECEWISE_BEZIER_KNOTS.);
#513 = CARTESIAN_POINT('',(53.125,67.385,13.6));
#514 = CARTESIAN_POINT('',(53.125,67.385,11.));
#515 = ORIENTED_EDGE('',*,*,#261,.F.);
#516 = ORIENTED_EDGE('',*,*,#487,.F.);
#517 = ORIENTED_EDGE('',*,*,#518,.F.);
#518 = EDGE_CURVE('',#510,#488,#519,.T.);
#519 = B_SPLINE_CURVE_WITH_KNOTS('',1,(#520,#521),.UNSPECIFIED.,.F.,.F.,
  (2,2),(0.,1.45),.PIECEWISE_BEZIER_KNOTS.);
#520 = CARTESIAN_POINT('',(53.125,67.385,13.6));
#521 = CARTESIAN_POINT('',(54.575,67.385,13.6));
#522 = PLANE('',#523);
#523 = AXIS2_PLACEMENT_3D('',#524,#525,#526);
#524 = CARTESIAN_POINT('',(54.575,67.385,13.8));
#525 = DIRECTION('',(0.,-1.,0.));
#526 = DIRECTION('',(0.,-0.,-1.));
#527 = ADVANCED_FACE('',(#528),#548,.T.);
#528 = FACE_BOUND('',#529,.T.);
#529 = EDGE_LOOP('',(#530,#537,#542,#543));
#530 = ORIENTED_EDGE('',*,*,#531,.T.);
#531 = EDGE_CURVE('',#532,#327,#534,.T.);
#532 = VERTEX_POINT('',#533);
#533 = CARTESIAN_POINT('',(53.125,68.615,13.6));
#534 = B_SPLINE_CURVE_WITH_KNOTS('',1,(#535,#536),.UNSPECIFIED.,.F.,.F.,
  (2,2),(0.2,2.799999999999),.PIECEWISE_BEZIER_KNOTS.);
#535 = CARTESIAN_POINT('',(53.125,68.615,13.6));
#536 = CARTESIAN_POINT('',(53.125,68.615,11.));
#537 = ORIENTED_EDGE('',*,*,#538,.F.);
#538 = EDGE_CURVE('',#264,#327,#539,.T.);
#539 = B_SPLINE_CURVE_WITH_KNOTS('',1,(#540,#541),.UNSPECIFIED.,.F.,.F.,
  (2,2),(-6.55,-5.32),.PIECEWISE_BEZIER_KNOTS.);
#540 = CARTESIAN_POINT('',(53.125,67.385,11.));
#541 = CARTESIAN_POINT('',(53.125,68.615,11.));
#542 = ORIENTED_EDGE('',*,*,#509,.F.);
#543 = ORIENTED_EDGE('',*,*,#544,.F.);
#544 = EDGE_CURVE('',#532,#510,#545,.T.);
#545 = B_SPLINE_CURVE_WITH_KNOTS('',1,(#546,#547),.UNSPECIFIED.,.F.,.F.,
  (2,2),(0.,1.23),.PIECEWISE_BEZIER_KNOTS.);
#546 = CARTESIAN_POINT('',(53.125,68.615,13.6));
#547 = CARTESIAN_POINT('',(53.125,67.385,13.6));
#548 = PLANE('',#549);
#549 = AXIS2_PLACEMENT_3D('',#550,#551,#552);
#550 = CARTESIAN_POINT('',(53.125,67.385,13.8));
#551 = DIRECTION('',(-1.,0.,0.));
#552 = DIRECTION('',(0.,0.,-1.));
#553 = ADVANCED_FACE('',(#554),#570,.T.);
#554 = FACE_BOUND('',#555,.T.);
#555 = EDGE_LOOP('',(#556,#563,#564,#565));
#556 = ORIENTED_EDGE('',*,*,#557,.T.);
#557 = EDGE_CURVE('',#558,#334,#560,.T.);
#558 = VERTEX_POINT('',#559);
#559 = CARTESIAN_POINT('',(54.575,68.615,13.6));
#560 = B_SPLINE_CURVE_WITH_KNOTS('',1,(#561,#562),.UNSPECIFIED.,.F.,.F.,
  (2,2),(0.2,2.799999999999),.PIECEWISE_BEZIER_KNOTS.);
#561 = CARTESIAN_POINT('',(54.575,68.615,13.6));
#562 = CARTESIAN_POINT('',(54.575,68.615,11.));
#563 = ORIENTED_EDGE('',*,*,#333,.F.);
#564 = ORIENTED_EDGE('',*,*,#531,.F.);
#565 = ORIENTED_EDGE('',*,*,#566,.F.);
#566 = EDGE_CURVE('',#558,#532,#567,.T.);
#567 = B_SPLINE_CURVE_WITH_KNOTS('',1,(#568,#569),.UNSPECIFIED.,.F.,.F.,
  (2,2),(0.,1.45),.PIECEWISE_BEZIER_KNOTS.);
#568 = CARTESIAN_POINT('',(54.575,68.615,13.6));
#569 = CARTESIAN_POINT('',(53.125,68.615,13.6));
#570 = PLANE('',#571);
#571 = AXIS2_PLACEMENT_3D('',#572,#573,#574);
#572 = CARTESIAN_POINT('',(53.125,68.615,13.8));
#573 = DIRECTION('',(0.,1.,0.));
#574 = DIRECTION('',(0.,-0.,1.));
#575 = ADVANCED_FACE('',(#576),#592,.T.);
#576 = FACE_BOUND('',#577,.T.);
#577 = EDGE_LOOP('',(#578,#585,#586,#587));
#578 = ORIENTED_EDGE('',*,*,#579,.T.);
#579 = EDGE_CURVE('',#580,#341,#582,.T.);
#580 = VERTEX_POINT('',#581);
#581 = CARTESIAN_POINT('',(54.575,70.,13.6));
#582 = B_SPLINE_CURVE_WITH_KNOTS('',1,(#583,#584),.UNSPECIFIED.,.F.,.F.,
  (2,2),(0.2,2.799999999999),.PIECEWISE_BEZIER_KNOTS.);
#583 = CARTESIAN_POINT('',(54.575,70.,13.6));
#584 = CARTESIAN_POINT('',(54.575,70.,11.));
#585 = ORIENTED_EDGE('',*,*,#340,.F.);
#586 = ORIENTED_EDGE('',*,*,#557,.F.);
#587 = ORIENTED_EDGE('',*,*,#588,.F.);
#588 = EDGE_CURVE('',#580,#558,#589,.T.);
#589 = B_SPLINE_CURVE_WITH_KNOTS('',1,(#590,#591),.UNSPECIFIED.,.F.,.F.,
  (2,2),(0.,1.385),.PIECEWISE_BEZIER_KNOTS.);
#590 = CARTESIAN_POINT('',(54.575,70.,13.6));
#591 = CARTESIAN_POINT('',(54.575,68.615,13.6));
#592 = PLANE('',#593);
#593 = AXIS2_PLACEMENT_3D('',#594,#595,#596);
#594 = CARTESIAN_POINT('',(54.575,68.615,13.8));
#595 = DIRECTION('',(-1.,0.,0.));
#596 = DIRECTION('',(0.,0.,-1.));
#597 = ADVANCED_FACE('',(#598),#614,.T.);
#598 = FACE_BOUND('',#599,.T.);
#599 = EDGE_LOOP('',(#600,#607,#608,#609));
#600 = ORIENTED_EDGE('',*,*,#601,.T.);
#601 = EDGE_CURVE('',#602,#348,#604,.T.);
#602 = VERTEX_POINT('',#603);
#603 = CARTESIAN_POINT('',(55.675,70.,13.6));
#604 = B_SPLINE_CURVE_WITH_KNOTS('',1,(#605,#606),.UNSPECIFIED.,.F.,.F.,
  (2,2),(0.2,2.799999999999),.PIECEWISE_BEZIER_KNOTS.);
#605 = CARTESIAN_POINT('',(55.675,70.,13.6));
#606 = CARTESIAN_POINT('',(55.675,70.,11.));
#607 = ORIENTED_EDGE('',*,*,#347,.F.);
#608 = ORIENTED_EDGE('',*,*,#579,.F.);
#609 = ORIENTED_EDGE('',*,*,#610,.F.);
#610 = EDGE_CURVE('',#602,#580,#611,.T.);
#611 = B_SPLINE_CURVE_WITH_KNOTS('',1,(#612,#613),.UNSPECIFIED.,.F.,.F.,
  (2,2),(0.,1.1),.PIECEWISE_BEZIER_KNOTS.);
#612 = CARTESIAN_POINT('',(55.675,70.,13.6));
#613 = CARTESIAN_POINT('',(54.575,70.,13.6));
#614 = PLANE('',#615);
#615 = AXIS2_PLACEMENT_3D('',#616,#617,#618);
#616 = CARTESIAN_POINT('',(54.575,70.,13.8));
#617 = DIRECTION('',(0.,1.,0.));
#618 = DIRECTION('',(0.,-0.,1.));
#619 = ADVANCED_FACE('',(#620),#630,.T.);
#620 = FACE_BOUND('',#621,.T.);
#621 = EDGE_LOOP('',(#622,#623,#624,#625));
#622 = ORIENTED_EDGE('',*,*,#375,.T.);
#623 = ORIENTED_EDGE('',*,*,#354,.F.);
#624 = ORIENTED_EDGE('',*,*,#601,.F.);
#625 = ORIENTED_EDGE('',*,*,#626,.F.);
#626 = EDGE_CURVE('',#376,#602,#627,.T.);
#627 = B_SPLINE_CURVE_WITH_KNOTS('',1,(#628,#629),.UNSPECIFIED.,.F.,.F.,
  (2,2),(0.,1.385),.PIECEWISE_BEZIER_KNOTS.);
#628 = CARTESIAN_POINT('',(55.675,68.615,13.6));
#629 = CARTESIAN_POINT('',(55.675,70.,13.6));
#630 = PLANE('',#631);
#631 = AXIS2_PLACEMENT_3D('',#632,#633,#634);
#632 = CARTESIAN_POINT('',(55.675,70.,13.8));
#633 = DIRECTION('',(1.,0.,0.));
#634 = DIRECTION('',(-0.,0.,1.));
#635 = ADVANCED_FACE('',(#636),#722,.T.);
#636 = FACE_BOUND('',#637,.T.);
#637 = EDGE_LOOP('',(#638,#647,#654,#661,#668,#675,#682,#689,#696,#703,
    #710,#717));
#638 = ORIENTED_EDGE('',*,*,#639,.T.);
#639 = EDGE_CURVE('',#640,#642,#644,.T.);
#640 = VERTEX_POINT('',#641);
#641 = CARTESIAN_POINT('',(53.325,67.585,13.8));
#642 = VERTEX_POINT('',#643);
#643 = CARTESIAN_POINT('',(54.775,67.585,13.8));
#644 = B_SPLINE_CURVE_WITH_KNOTS('',1,(#645,#646),.UNSPECIFIED.,.F.,.F.,
  (2,2),(0.2,1.65),.PIECEWISE_BEZIER_KNOTS.);
#645 = CARTESIAN_POINT('',(53.325,67.585,13.8));
#646 = CARTESIAN_POINT('',(54.775,67.585,13.8));
#647 = ORIENTED_EDGE('',*,*,#648,.T.);
#648 = EDGE_CURVE('',#642,#649,#651,.T.);
#649 = VERTEX_POINT('',#650);
#650 = CARTESIAN_POINT('',(54.775,66.2,13.8));
#651 = B_SPLINE_CURVE_WITH_KNOTS('',1,(#652,#653),.UNSPECIFIED.,.F.,.F.,
  (2,2),(-0.2,1.185),.PIECEWISE_BEZIER_KNOTS.);
#652 = CARTESIAN_POINT('',(54.775,67.585,13.8));
#653 = CARTESIAN_POINT('',(54.775,66.2,13.8));
#654 = ORIENTED_EDGE('',*,*,#655,.T.);
#655 = EDGE_CURVE('',#649,#656,#658,.T.);
#656 = VERTEX_POINT('',#657);
#657 = CARTESIAN_POINT('',(55.475,66.2,13.8));
#658 = B_SPLINE_CURVE_WITH_KNOTS('',1,(#659,#660),.UNSPECIFIED.,.F.,.F.,
  (2,2),(0.2,0.9),.PIECEWISE_BEZIER_KNOTS.);
#659 = CARTESIAN_POINT('',(54.775,66.2,13.8));
#660 = CARTESIAN_POINT('',(55.475,66.2,13.8));
#661 = ORIENTED_EDGE('',*,*,#662,.T.);
#662 = EDGE_CURVE('',#656,#663,#665,.T.);
#663 = VERTEX_POINT('',#664);
#664 = CARTESIAN_POINT('',(55.475,67.585,13.8));
#665 = B_SPLINE_CURVE_WITH_KNOTS('',1,(#666,#667),.UNSPECIFIED.,.F.,.F.,
  (2,2),(0.2,1.585),.PIECEWISE_BEZIER_KNOTS.);
#666 = CARTESIAN_POINT('',(55.475,66.2,13.8));
#667 = CARTESIAN_POINT('',(55.475,67.585,13.8));
#668 = ORIENTED_EDGE('',*,*,#669,.T.);
#669 = EDGE_CURVE('',#663,#670,#672,.T.);
#670 = VERTEX_POINT('',#671);
#671 = CARTESIAN_POINT('',(56.925,67.585,13.8));
#672 = B_SPLINE_CURVE_WITH_KNOTS('',1,(#673,#674),.UNSPECIFIED.,.F.,.F.,
  (2,2),(-0.2,1.25),.PIECEWISE_BEZIER_KNOTS.);
#673 = CARTESIAN_POINT('',(55.475,67.585,13.8));
#674 = CARTESIAN_POINT('',(56.925,67.585,13.8));
#675 = ORIENTED_EDGE('',*,*,#676,.T.);
#676 = EDGE_CURVE('',#670,#677,#679,.T.);
#677 = VERTEX_POINT('',#678);
#678 = CARTESIAN_POINT('',(56.925,68.415,13.8));
#679 = B_SPLINE_CURVE_WITH_KNOTS('',1,(#680,#681),.UNSPECIFIED.,.F.,.F.,
  (2,2),(0.2,1.03),.PIECEWISE_BEZIER_KNOTS.);
#680 = CARTESIAN_POINT('',(56.925,67.585,13.8));
#681 = CARTESIAN_POINT('',(56.925,68.415,13.8));
#682 = ORIENTED_EDGE('',*,*,#683,.T.);
#683 = EDGE_CURVE('',#677,#684,#686,.T.);
#684 = VERTEX_POINT('',#685);
#685 = CARTESIAN_POINT('',(55.475,68.415,13.8));
#686 = B_SPLINE_CURVE_WITH_KNOTS('',1,(#687,#688),.UNSPECIFIED.,.F.,.F.,
  (2,2),(0.2,1.65),.PIECEWISE_BEZIER_KNOTS.);
#687 = CARTESIAN_POINT('',(56.925,68.415,13.8));
#688 = CARTESIAN_POINT('',(55.475,68.415,13.8));
#689 = ORIENTED_EDGE('',*,*,#690,.T.);
#690 = EDGE_CURVE('',#684,#691,#693,.T.);
#691 = VERTEX_POINT('',#692);
#692 = CARTESIAN_POINT('',(55.475,69.8,13.8));
#693 = B_SPLINE_CURVE_WITH_KNOTS('',1,(#694,#695),.UNSPECIFIED.,.F.,.F.,
  (2,2),(-0.2,1.185),.PIECEWISE_BEZIER_KNOTS.);
#694 = CARTESIAN_POINT('',(55.475,68.415,13.8));
#695 = CARTESIAN_POINT('',(55.475,69.8,13.8));
#696 = ORIENTED_EDGE('',*,*,#697,.T.);
#697 = EDGE_CURVE('',#691,#698,#700,.T.);
#698 = VERTEX_POINT('',#699);
#699 = CARTESIAN_POINT('',(54.775,69.8,13.8));
#700 = B_SPLINE_CURVE_WITH_KNOTS('',1,(#701,#702),.UNSPECIFIED.,.F.,.F.,
  (2,2),(0.2,0.9),.PIECEWISE_BEZIER_KNOTS.);
#701 = CARTESIAN_POINT('',(55.475,69.8,13.8));
#702 = CARTESIAN_POINT('',(54.775,69.8,13.8));
#703 = ORIENTED_EDGE('',*,*,#704,.T.);
#704 = EDGE_CURVE('',#698,#705,#707,.T.);
#705 = VERTEX_POINT('',#706);
#706 = CARTESIAN_POINT('',(54.775,68.415,13.8));
#707 = B_SPLINE_CURVE_WITH_KNOTS('',1,(#708,#709),.UNSPECIFIED.,.F.,.F.,
  (2,2),(0.2,1.585),.PIECEWISE_BEZIER_KNOTS.);
#708 = CARTESIAN_POINT('',(54.775,69.8,13.8));
#709 = CARTESIAN_POINT('',(54.775,68.415,13.8));
#710 = ORIENTED_EDGE('',*,*,#711,.T.);
#711 = EDGE_CURVE('',#705,#712,#714,.T.);
#712 = VERTEX_POINT('',#713);
#713 = CARTESIAN_POINT('',(53.325,68.415,13.8));
#714 = B_SPLINE_CURVE_WITH_KNOTS('',1,(#715,#716),.UNSPECIFIED.,.F.,.F.,
  (2,2),(-0.2,1.25),.PIECEWISE_BEZIER_KNOTS.);
#715 = CARTESIAN_POINT('',(54.775,68.415,13.8));
#716 = CARTESIAN_POINT('',(53.325,68.415,13.8));
#717 = ORIENTED_EDGE('',*,*,#718,.T.);
#718 = EDGE_CURVE('',#712,#640,#719,.T.);
#719 = B_SPLINE_CURVE_WITH_KNOTS('',1,(#720,#721),.UNSPECIFIED.,.F.,.F.,
  (2,2),(0.2,1.03),.PIECEWISE_BEZIER_KNOTS.);
#720 = CARTESIAN_POINT('',(53.325,68.415,13.8));
#721 = CARTESIAN_POINT('',(53.325,67.585,13.8));
#722 = PLANE('',#723);
#723 = AXIS2_PLACEMENT_3D('',#724,#725,#726);
#724 = CARTESIAN_POINT('',(53.085,65.96,13.8));
#725 = DIRECTION('',(0.,0.,1.));
#726 = DIRECTION('',(1.,0.,-0.));
#727 = ADVANCED_FACE('',(#728),#762,.T.);
#728 = FACE_BOUND('',#729,.T.);
#729 = EDGE_LOOP('',(#730,#731,#746,#747));
#730 = ORIENTED_EDGE('',*,*,#382,.T.);
#731 = ORIENTED_EDGE('',*,*,#732,.F.);
#732 = EDGE_CURVE('',#684,#376,#733,.T.);
#733 = B_SPLINE_CURVE_WITH_KNOTS('',3,(#734,#735,#736,#737,#738,#739,
    #740,#741,#742,#743,#744,#745),.UNSPECIFIED.,.F.,.F.,(4,1,1,1,1,1,1,
    1,1,4),(-0.346410161514,-0.307920143568,-0.269430125622,
    -0.230940107676,-0.19245008973,-0.153960071784,-0.115470053838,
    -7.698003589195E-02,-3.849001794598E-02,0.),.UNSPECIFIED.);
#734 = CARTESIAN_POINT('',(55.475,68.415,13.8));
#735 = CARTESIAN_POINT('',(55.482407407407,68.422407407407,
    13.792592592593));
#736 = CARTESIAN_POINT('',(55.497222222222,68.437222222222,
    13.777777777778));
#737 = CARTESIAN_POINT('',(55.519444444444,68.459444444445,
    13.755555555556));
#738 = CARTESIAN_POINT('',(55.541666666667,68.481666666667,
    13.733333333333));
#739 = CARTESIAN_POINT('',(55.563888888889,68.503888888889,
    13.711111111111));
#740 = CARTESIAN_POINT('',(55.586111111111,68.526111111111,
    13.688888888889));
#741 = CARTESIAN_POINT('',(55.608333333333,68.548333333333,
    13.666666666667));
#742 = CARTESIAN_POINT('',(55.630555555556,68.570555555556,
    13.644444444444));
#743 = CARTESIAN_POINT('',(55.652777777778,68.592777777778,
    13.622222222222));
#744 = CARTESIAN_POINT('',(55.667592592592,68.607592592593,
    13.607407407407));
#745 = CARTESIAN_POINT('',(55.675,68.615,13.6));
#746 = ORIENTED_EDGE('',*,*,#683,.F.);
#747 = ORIENTED_EDGE('',*,*,#748,.F.);
#748 = EDGE_CURVE('',#368,#677,#749,.T.);
#749 = B_SPLINE_CURVE_WITH_KNOTS('',3,(#750,#751,#752,#753,#754,#755,
    #756,#757,#758,#759,#760,#761),.UNSPECIFIED.,.F.,.F.,(4,1,1,1,1,1,1,
    1,1,4),(0.,3.849001794597E-02,7.698003589194E-02,0.115470053838,
    0.153960071784,0.19245008973,0.230940107676,0.269430125622,
    0.307920143568,0.346410161514),.UNSPECIFIED.);
#750 = CARTESIAN_POINT('',(57.125,68.615,13.6));
#751 = CARTESIAN_POINT('',(57.117592592593,68.607592592593,
    13.607407407407));
#752 = CARTESIAN_POINT('',(57.102777777778,68.592777777778,
    13.622222222222));
#753 = CARTESIAN_POINT('',(57.080555555555,68.570555555556,
    13.644444444444));
#754 = CARTESIAN_POINT('',(57.058333333333,68.548333333333,
    13.666666666667));
#755 = CARTESIAN_POINT('',(57.036111111111,68.526111111111,
    13.688888888889));
#756 = CARTESIAN_POINT('',(57.013888888889,68.503888888889,
    13.711111111111));
#757 = CARTESIAN_POINT('',(56.991666666667,68.481666666667,
    13.733333333333));
#758 = CARTESIAN_POINT('',(56.969444444444,68.459444444444,
    13.755555555555));
#759 = CARTESIAN_POINT('',(56.947222222222,68.437222222222,
    13.777777777778));
#760 = CARTESIAN_POINT('',(56.932407407407,68.422407407407,
    13.792592592593));
#761 = CARTESIAN_POINT('',(56.925,68.415,13.8));
#762 = PLANE('',#763);
#763 = AXIS2_PLACEMENT_3D('',#764,#765,#766);
#764 = CARTESIAN_POINT('',(57.325,68.615,13.6));
#765 = DIRECTION('',(1.036261022731E-14,0.707106781187,0.707106781187));
#766 = DIRECTION('',(0.,0.707106781187,-0.707106781187));
#767 = ADVANCED_FACE('',(#768),#788,.T.);
#768 = FACE_BOUND('',#769,.T.);
#769 = EDGE_LOOP('',(#770,#771,#772,#773));
#770 = ORIENTED_EDGE('',*,*,#408,.T.);
#771 = ORIENTED_EDGE('',*,*,#748,.T.);
#772 = ORIENTED_EDGE('',*,*,#676,.F.);
#773 = ORIENTED_EDGE('',*,*,#774,.T.);
#774 = EDGE_CURVE('',#670,#396,#775,.T.);
#775 = B_SPLINE_CURVE_WITH_KNOTS('',3,(#776,#777,#778,#779,#780,#781,
    #782,#783,#784,#785,#786,#787),.UNSPECIFIED.,.F.,.F.,(4,1,1,1,1,1,1,
    1,1,4),(-0.346410161514,-0.307920143568,-0.269430125622,
    -0.230940107676,-0.19245008973,-0.153960071784,-0.115470053838,
    -7.698003589196E-02,-3.849001794597E-02,0.),.UNSPECIFIED.);
#776 = CARTESIAN_POINT('',(56.925,67.585,13.8));
#777 = CARTESIAN_POINT('',(56.932407407407,67.577592592593,
    13.792592592593));
#778 = CARTESIAN_POINT('',(56.947222222222,67.562777777778,
    13.777777777778));
#779 = CARTESIAN_POINT('',(56.969444444444,67.540555555556,
    13.755555555555));
#780 = CARTESIAN_POINT('',(56.991666666667,67.518333333333,
    13.733333333333));
#781 = CARTESIAN_POINT('',(57.013888888889,67.496111111111,
    13.711111111111));
#782 = CARTESIAN_POINT('',(57.036111111111,67.473888888889,
    13.688888888889));
#783 = CARTESIAN_POINT('',(57.058333333333,67.451666666667,
    13.666666666667));
#784 = CARTESIAN_POINT('',(57.080555555555,67.429444444444,
    13.644444444444));
#785 = CARTESIAN_POINT('',(57.102777777778,67.407222222222,
    13.622222222222));
#786 = CARTESIAN_POINT('',(57.117592592593,67.392407407407,
    13.607407407407));
#787 = CARTESIAN_POINT('',(57.125,67.385,13.6));
#788 = PLANE('',#789);
#789 = AXIS2_PLACEMENT_3D('',#790,#791,#792);
#790 = CARTESIAN_POINT('',(57.125,67.185,13.6));
#791 = DIRECTION('',(0.707106781187,0.,0.707106781187));
#792 = DIRECTION('',(-0.707106781187,0.,0.707106781187));
#793 = ADVANCED_FACE('',(#794),#814,.T.);
#794 = FACE_BOUND('',#795,.T.);
#795 = EDGE_LOOP('',(#796,#797,#798,#799));
#796 = ORIENTED_EDGE('',*,*,#430,.T.);
#797 = ORIENTED_EDGE('',*,*,#774,.F.);
#798 = ORIENTED_EDGE('',*,*,#669,.F.);
#799 = ORIENTED_EDGE('',*,*,#800,.F.);
#800 = EDGE_CURVE('',#422,#663,#801,.T.);
#801 = B_SPLINE_CURVE_WITH_KNOTS('',3,(#802,#803,#804,#805,#806,#807,
    #808,#809,#810,#811,#812,#813),.UNSPECIFIED.,.F.,.F.,(4,1,1,1,1,1,1,
    1,1,4),(0.,3.849001794596E-02,7.698003589195E-02,0.115470053838,
    0.153960071784,0.19245008973,0.230940107676,0.269430125622,
    0.307920143568,0.346410161514),.UNSPECIFIED.);
#802 = CARTESIAN_POINT('',(55.675,67.385,13.6));
#803 = CARTESIAN_POINT('',(55.667592592592,67.392407407407,
    13.607407407407));
#804 = CARTESIAN_POINT('',(55.652777777778,67.407222222222,
    13.622222222222));
#805 = CARTESIAN_POINT('',(55.630555555556,67.429444444444,
    13.644444444444));
#806 = CARTESIAN_POINT('',(55.608333333333,67.451666666667,
    13.666666666667));
#807 = CARTESIAN_POINT('',(55.586111111111,67.473888888889,
    13.688888888889));
#808 = CARTESIAN_POINT('',(55.563888888889,67.496111111111,
    13.711111111111));
#809 = CARTESIAN_POINT('',(55.541666666667,67.518333333333,
    13.733333333333));
#810 = CARTESIAN_POINT('',(55.519444444444,67.540555555555,
    13.755555555555));
#811 = CARTESIAN_POINT('',(55.497222222222,67.562777777778,
    13.777777777778));
#812 = CARTESIAN_POINT('',(55.482407407407,67.577592592593,
    13.792592592593));
#813 = CARTESIAN_POINT('',(55.475,67.585,13.8));
#814 = PLANE('',#815);
#815 = AXIS2_PLACEMENT_3D('',#816,#817,#818);
#816 = CARTESIAN_POINT('',(55.275,67.385,13.6));
#817 = DIRECTION('',(2.512147933894E-15,-0.707106781187,0.707106781187)
  );
#818 = DIRECTION('',(0.,0.707106781187,0.707106781187));
#819 = ADVANCED_FACE('',(#820),#840,.T.);
#820 = FACE_BOUND('',#821,.T.);
#821 = EDGE_LOOP('',(#822,#823,#824,#825));
#822 = ORIENTED_EDGE('',*,*,#452,.T.);
#823 = ORIENTED_EDGE('',*,*,#800,.T.);
#824 = ORIENTED_EDGE('',*,*,#662,.F.);
#825 = ORIENTED_EDGE('',*,*,#826,.T.);
#826 = EDGE_CURVE('',#656,#444,#827,.T.);
#827 = B_SPLINE_CURVE_WITH_KNOTS('',3,(#828,#829,#830,#831,#832,#833,
    #834,#835,#836,#837,#838,#839),.UNSPECIFIED.,.F.,.F.,(4,1,1,1,1,1,1,
    1,1,4),(-0.346410161514,-0.307920143568,-0.269430125622,
    -0.230940107676,-0.19245008973,-0.153960071784,-0.115470053838,
    -7.698003589195E-02,-3.849001794598E-02,-2.692147760937E-16),
  .UNSPECIFIED.);
#828 = CARTESIAN_POINT('',(55.475,66.2,13.8));
#829 = CARTESIAN_POINT('',(55.482407407407,66.192592592593,
    13.792592592593));
#830 = CARTESIAN_POINT('',(55.497222222222,66.177777777778,
    13.777777777778));
#831 = CARTESIAN_POINT('',(55.519444444444,66.155555555556,
    13.755555555555));
#832 = CARTESIAN_POINT('',(55.541666666667,66.133333333333,
    13.733333333333));
#833 = CARTESIAN_POINT('',(55.563888888889,66.111111111111,
    13.711111111111));
#834 = CARTESIAN_POINT('',(55.586111111111,66.088888888889,
    13.688888888889));
#835 = CARTESIAN_POINT('',(55.608333333333,66.066666666667,
    13.666666666667));
#836 = CARTESIAN_POINT('',(55.630555555556,66.044444444444,
    13.644444444444));
#837 = CARTESIAN_POINT('',(55.652777777778,66.022222222222,
    13.622222222222));
#838 = CARTESIAN_POINT('',(55.667592592592,66.007407407407,
    13.607407407407));
#839 = CARTESIAN_POINT('',(55.675,66.,13.6));
#840 = PLANE('',#841);
#841 = AXIS2_PLACEMENT_3D('',#842,#843,#844);
#842 = CARTESIAN_POINT('',(55.675,65.8,13.6));
#843 = DIRECTION('',(0.707106781187,-2.512147933894E-15,0.707106781187)
  );
#844 = DIRECTION('',(0.707106781187,-3.944304526105E-31,-0.707106781187)
  );
#845 = ADVANCED_FACE('',(#846),#866,.T.);
#846 = FACE_BOUND('',#847,.T.);
#847 = EDGE_LOOP('',(#848,#849,#850,#851));
#848 = ORIENTED_EDGE('',*,*,#474,.T.);
#849 = ORIENTED_EDGE('',*,*,#826,.F.);
#850 = ORIENTED_EDGE('',*,*,#655,.F.);
#851 = ORIENTED_EDGE('',*,*,#852,.T.);
#852 = EDGE_CURVE('',#649,#466,#853,.T.);
#853 = B_SPLINE_CURVE_WITH_KNOTS('',3,(#854,#855,#856,#857,#858,#859,
    #860,#861,#862,#863,#864,#865),.UNSPECIFIED.,.F.,.F.,(4,1,1,1,1,1,1,
    1,1,4),(-0.346410161514,-0.307920143568,-0.269430125622,
    -0.230940107676,-0.19245008973,-0.153960071784,-0.115470053838,
    -7.698003589195E-02,-3.849001794598E-02,0.),.UNSPECIFIED.);
#854 = CARTESIAN_POINT('',(54.775,66.2,13.8));
#855 = CARTESIAN_POINT('',(54.767592592593,66.192592592593,
    13.792592592593));
#856 = CARTESIAN_POINT('',(54.752777777778,66.177777777778,
    13.777777777778));
#857 = CARTESIAN_POINT('',(54.730555555555,66.155555555556,
    13.755555555555));
#858 = CARTESIAN_POINT('',(54.708333333333,66.133333333333,
    13.733333333333));
#859 = CARTESIAN_POINT('',(54.686111111111,66.111111111111,
    13.711111111111));
#860 = CARTESIAN_POINT('',(54.663888888889,66.088888888889,
    13.688888888889));
#861 = CARTESIAN_POINT('',(54.641666666667,66.066666666667,
    13.666666666667));
#862 = CARTESIAN_POINT('',(54.619444444444,66.044444444444,
    13.644444444444));
#863 = CARTESIAN_POINT('',(54.597222222222,66.022222222222,
    13.622222222222));
#864 = CARTESIAN_POINT('',(54.582407407407,66.007407407407,
    13.607407407407));
#865 = CARTESIAN_POINT('',(54.575,66.,13.6));
#866 = PLANE('',#867);
#867 = AXIS2_PLACEMENT_3D('',#868,#869,#870);
#868 = CARTESIAN_POINT('',(54.375,66.,13.6));
#869 = DIRECTION('',(-1.88411095042E-15,-0.707106781187,0.707106781187)
  );
#870 = DIRECTION('',(0.,-0.707106781187,-0.707106781187));
#871 = ADVANCED_FACE('',(#872),#892,.T.);
#872 = FACE_BOUND('',#873,.T.);
#873 = EDGE_LOOP('',(#874,#875,#876,#877));
#874 = ORIENTED_EDGE('',*,*,#496,.T.);
#875 = ORIENTED_EDGE('',*,*,#852,.F.);
#876 = ORIENTED_EDGE('',*,*,#648,.F.);
#877 = ORIENTED_EDGE('',*,*,#878,.F.);
#878 = EDGE_CURVE('',#488,#642,#879,.T.);
#879 = B_SPLINE_CURVE_WITH_KNOTS('',3,(#880,#881,#882,#883,#884,#885,
    #886,#887,#888,#889,#890,#891),.UNSPECIFIED.,.F.,.F.,(4,1,1,1,1,1,1,
    1,1,4),(0.,3.849001794598E-02,7.698003589194E-02,0.115470053838,
    0.153960071784,0.19245008973,0.230940107676,0.269430125622,
    0.307920143568,0.346410161514),.UNSPECIFIED.);
#880 = CARTESIAN_POINT('',(54.575,67.385,13.6));
#881 = CARTESIAN_POINT('',(54.582407407407,67.392407407407,
    13.607407407407));
#882 = CARTESIAN_POINT('',(54.597222222222,67.407222222222,
    13.622222222222));
#883 = CARTESIAN_POINT('',(54.619444444444,67.429444444444,
    13.644444444444));
#884 = CARTESIAN_POINT('',(54.641666666667,67.451666666667,
    13.666666666667));
#885 = CARTESIAN_POINT('',(54.663888888889,67.473888888889,
    13.688888888889));
#886 = CARTESIAN_POINT('',(54.686111111111,67.496111111111,
    13.711111111111));
#887 = CARTESIAN_POINT('',(54.708333333333,67.518333333333,
    13.733333333333));
#888 = CARTESIAN_POINT('',(54.730555555555,67.540555555556,
    13.755555555555));
#889 = CARTESIAN_POINT('',(54.752777777778,67.562777777778,
    13.777777777778));
#890 = CARTESIAN_POINT('',(54.767592592593,67.577592592593,
    13.792592592593));
#891 = CARTESIAN_POINT('',(54.775,67.585,13.8));
#892 = PLANE('',#893);
#893 = AXIS2_PLACEMENT_3D('',#894,#895,#896);
#894 = CARTESIAN_POINT('',(54.575,67.785,13.6));
#895 = DIRECTION('',(-0.707106781187,0.,0.707106781187));
#896 = DIRECTION('',(-0.707106781187,0.,-0.707106781187));
#897 = ADVANCED_FACE('',(#898),#918,.T.);
#898 = FACE_BOUND('',#899,.T.);
#899 = EDGE_LOOP('',(#900,#901,#902,#903));
#900 = ORIENTED_EDGE('',*,*,#518,.T.);
#901 = ORIENTED_EDGE('',*,*,#878,.T.);
#902 = ORIENTED_EDGE('',*,*,#639,.F.);
#903 = ORIENTED_EDGE('',*,*,#904,.F.);
#904 = EDGE_CURVE('',#510,#640,#905,.T.);
#905 = B_SPLINE_CURVE_WITH_KNOTS('',3,(#906,#907,#908,#909,#910,#911,
    #912,#913,#914,#915,#916,#917),.UNSPECIFIED.,.F.,.F.,(4,1,1,1,1,1,1,
    1,1,4),(0.,3.849001794599E-02,7.698003589195E-02,0.115470053838,
    0.153960071784,0.19245008973,0.230940107676,0.269430125622,
    0.307920143568,0.346410161514),.UNSPECIFIED.);
#906 = CARTESIAN_POINT('',(53.125,67.385,13.6));
#907 = CARTESIAN_POINT('',(53.132407407407,67.392407407407,
    13.607407407407));
#908 = CARTESIAN_POINT('',(53.147222222222,67.407222222222,
    13.622222222222));
#909 = CARTESIAN_POINT('',(53.169444444444,67.429444444444,
    13.644444444444));
#910 = CARTESIAN_POINT('',(53.191666666667,67.451666666667,
    13.666666666667));
#911 = CARTESIAN_POINT('',(53.213888888889,67.473888888889,
    13.688888888889));
#912 = CARTESIAN_POINT('',(53.236111111111,67.496111111111,
    13.711111111111));
#913 = CARTESIAN_POINT('',(53.258333333333,67.518333333333,
    13.733333333333));
#914 = CARTESIAN_POINT('',(53.280555555556,67.540555555556,
    13.755555555555));
#915 = CARTESIAN_POINT('',(53.302777777778,67.562777777778,
    13.777777777778));
#916 = CARTESIAN_POINT('',(53.317592592592,67.577592592593,
    13.792592592593));
#917 = CARTESIAN_POINT('',(53.325,67.585,13.8));
#918 = PLANE('',#919);
#919 = AXIS2_PLACEMENT_3D('',#920,#921,#922);
#920 = CARTESIAN_POINT('',(52.925,67.385,13.6));
#921 = DIRECTION('',(-2.826166425631E-15,-0.707106781187,0.707106781187)
  );
#922 = DIRECTION('',(0.,0.707106781187,0.707106781187));
#923 = ADVANCED_FACE('',(#924),#944,.T.);
#924 = FACE_BOUND('',#925,.T.);
#925 = EDGE_LOOP('',(#926,#927,#928,#929));
#926 = ORIENTED_EDGE('',*,*,#544,.T.);
#927 = ORIENTED_EDGE('',*,*,#904,.T.);
#928 = ORIENTED_EDGE('',*,*,#718,.F.);
#929 = ORIENTED_EDGE('',*,*,#930,.T.);
#930 = EDGE_CURVE('',#712,#532,#931,.T.);
#931 = B_SPLINE_CURVE_WITH_KNOTS('',3,(#932,#933,#934,#935,#936,#937,
    #938,#939,#940,#941,#942,#943),.UNSPECIFIED.,.F.,.F.,(4,1,1,1,1,1,1,
    1,1,4),(-0.346410161514,-0.307920143568,-0.269430125622,
    -0.230940107676,-0.19245008973,-0.153960071784,-0.115470053838,
    -7.698003589194E-02,-3.849001794597E-02,0.),.UNSPECIFIED.);
#932 = CARTESIAN_POINT('',(53.325,68.415,13.8));
#933 = CARTESIAN_POINT('',(53.317592592592,68.422407407407,
    13.792592592593));
#934 = CARTESIAN_POINT('',(53.302777777778,68.437222222222,
    13.777777777778));
#935 = CARTESIAN_POINT('',(53.280555555556,68.459444444445,
    13.755555555556));
#936 = CARTESIAN_POINT('',(53.258333333333,68.481666666667,
    13.733333333333));
#937 = CARTESIAN_POINT('',(53.236111111111,68.503888888889,
    13.711111111111));
#938 = CARTESIAN_POINT('',(53.213888888889,68.526111111111,
    13.688888888889));
#939 = CARTESIAN_POINT('',(53.191666666667,68.548333333333,
    13.666666666667));
#940 = CARTESIAN_POINT('',(53.169444444444,68.570555555556,
    13.644444444444));
#941 = CARTESIAN_POINT('',(53.147222222222,68.592777777778,
    13.622222222222));
#942 = CARTESIAN_POINT('',(53.132407407407,68.607592592593,
    13.607407407407));
#943 = CARTESIAN_POINT('',(53.125,68.615,13.6));
#944 = PLANE('',#945);
#945 = AXIS2_PLACEMENT_3D('',#946,#947,#948);
#946 = CARTESIAN_POINT('',(53.125,68.815,13.6));
#947 = DIRECTION('',(-0.707106781187,-6.280369834735E-16,0.707106781187)
  );
#948 = DIRECTION('',(-0.707106781187,0.,-0.707106781187));
#949 = ADVANCED_FACE('',(#950),#970,.T.);
#950 = FACE_BOUND('',#951,.T.);
#951 = EDGE_LOOP('',(#952,#953,#954,#955));
#952 = ORIENTED_EDGE('',*,*,#566,.T.);
#953 = ORIENTED_EDGE('',*,*,#930,.F.);
#954 = ORIENTED_EDGE('',*,*,#711,.F.);
#955 = ORIENTED_EDGE('',*,*,#956,.T.);
#956 = EDGE_CURVE('',#705,#558,#957,.T.);
#957 = B_SPLINE_CURVE_WITH_KNOTS('',3,(#958,#959,#960,#961,#962,#963,
    #964,#965,#966,#967,#968,#969),.UNSPECIFIED.,.F.,.F.,(4,1,1,1,1,1,1,
    1,1,4),(-0.346410161514,-0.307920143568,-0.269430125622,
    -0.230940107676,-0.19245008973,-0.153960071784,-0.115470053838,
    -7.698003589194E-02,-3.849001794596E-02,0.),.UNSPECIFIED.);
#958 = CARTESIAN_POINT('',(54.775,68.415,13.8));
#959 = CARTESIAN_POINT('',(54.767592592593,68.422407407407,
    13.792592592593));
#960 = CARTESIAN_POINT('',(54.752777777778,68.437222222222,
    13.777777777778));
#961 = CARTESIAN_POINT('',(54.730555555555,68.459444444445,
    13.755555555555));
#962 = CARTESIAN_POINT('',(54.708333333333,68.481666666667,
    13.733333333333));
#963 = CARTESIAN_POINT('',(54.686111111111,68.503888888889,
    13.711111111111));
#964 = CARTESIAN_POINT('',(54.663888888889,68.526111111111,
    13.688888888889));
#965 = CARTESIAN_POINT('',(54.641666666667,68.548333333333,
    13.666666666667));
#966 = CARTESIAN_POINT('',(54.619444444444,68.570555555556,
    13.644444444444));
#967 = CARTESIAN_POINT('',(54.597222222222,68.592777777778,
    13.622222222222));
#968 = CARTESIAN_POINT('',(54.582407407407,68.607592592593,
    13.607407407407));
#969 = CARTESIAN_POINT('',(54.575,68.615,13.6));
#970 = PLANE('',#971);
#971 = AXIS2_PLACEMENT_3D('',#972,#973,#974);
#972 = CARTESIAN_POINT('',(54.975,68.615,13.6));
#973 = DIRECTION('',(2.826166425631E-15,0.707106781187,0.707106781187));
#974 = DIRECTION('',(0.,0.707106781187,-0.707106781187));
#975 = ADVANCED_FACE('',(#976),#996,.T.);
#976 = FACE_BOUND('',#977,.T.);
#977 = EDGE_LOOP('',(#978,#979,#980,#981));
#978 = ORIENTED_EDGE('',*,*,#588,.T.);
#979 = ORIENTED_EDGE('',*,*,#956,.F.);
#980 = ORIENTED_EDGE('',*,*,#704,.F.);
#981 = ORIENTED_EDGE('',*,*,#982,.F.);
#982 = EDGE_CURVE('',#580,#698,#983,.T.);
#983 = B_SPLINE_CURVE_WITH_KNOTS('',3,(#984,#985,#986,#987,#988,#989,
    #990,#991,#992,#993,#994,#995),.UNSPECIFIED.,.F.,.F.,(4,1,1,1,1,1,1,
    1,1,4),(0.,3.849001794595E-02,7.698003589192E-02,0.115470053838,
    0.153960071784,0.19245008973,0.230940107676,0.269430125622,
    0.307920143568,0.346410161514),.UNSPECIFIED.);
#984 = CARTESIAN_POINT('',(54.575,70.,13.6));
#985 = CARTESIAN_POINT('',(54.582407407407,69.992592592593,
    13.607407407407));
#986 = CARTESIAN_POINT('',(54.597222222222,69.977777777778,
    13.622222222222));
#987 = CARTESIAN_POINT('',(54.619444444444,69.955555555556,
    13.644444444444));
#988 = CARTESIAN_POINT('',(54.641666666667,69.933333333333,
    13.666666666667));
#989 = CARTESIAN_POINT('',(54.663888888889,69.911111111111,
    13.688888888889));
#990 = CARTESIAN_POINT('',(54.686111111111,69.888888888889,
    13.711111111111));
#991 = CARTESIAN_POINT('',(54.708333333333,69.866666666667,
    13.733333333333));
#992 = CARTESIAN_POINT('',(54.730555555555,69.844444444445,
    13.755555555555));
#993 = CARTESIAN_POINT('',(54.752777777778,69.822222222222,
    13.777777777778));
#994 = CARTESIAN_POINT('',(54.767592592593,69.807407407407,
    13.792592592593));
#995 = CARTESIAN_POINT('',(54.775,69.8,13.8));
#996 = PLANE('',#997);
#997 = AXIS2_PLACEMENT_3D('',#998,#999,#1000);
#998 = CARTESIAN_POINT('',(54.575,70.2,13.6));
#999 = DIRECTION('',(-0.707106781187,1.256073966947E-15,0.707106781187)
  );
#1000 = DIRECTION('',(-0.707106781187,0.,-0.707106781187));
#1001 = ADVANCED_FACE('',(#1002),#1022,.T.);
#1002 = FACE_BOUND('',#1003,.T.);
#1003 = EDGE_LOOP('',(#1004,#1005,#1006,#1007));
#1004 = ORIENTED_EDGE('',*,*,#610,.T.);
#1005 = ORIENTED_EDGE('',*,*,#982,.T.);
#1006 = ORIENTED_EDGE('',*,*,#697,.F.);
#1007 = ORIENTED_EDGE('',*,*,#1008,.T.);
#1008 = EDGE_CURVE('',#691,#602,#1009,.T.);
#1009 = B_SPLINE_CURVE_WITH_KNOTS('',3,(#1010,#1011,#1012,#1013,#1014,
    #1015,#1016,#1017,#1018,#1019,#1020,#1021),.UNSPECIFIED.,.F.,.F.,(4,
    1,1,1,1,1,1,1,1,4),(-0.346410161514,-0.307920143568,-0.269430125622,
    -0.230940107676,-0.19245008973,-0.153960071784,-0.115470053838,
    -7.698003589195E-02,-3.849001794597E-02,0.),.UNSPECIFIED.);
#1010 = CARTESIAN_POINT('',(55.475,69.8,13.8));
#1011 = CARTESIAN_POINT('',(55.482407407407,69.807407407407,
    13.792592592593));
#1012 = CARTESIAN_POINT('',(55.497222222222,69.822222222222,
    13.777777777778));
#1013 = CARTESIAN_POINT('',(55.519444444444,69.844444444444,
    13.755555555556));
#1014 = CARTESIAN_POINT('',(55.541666666667,69.866666666667,
    13.733333333333));
#1015 = CARTESIAN_POINT('',(55.563888888889,69.888888888889,
    13.711111111111));
#1016 = CARTESIAN_POINT('',(55.586111111111,69.911111111111,
    13.688888888889));
#1017 = CARTESIAN_POINT('',(55.608333333333,69.933333333333,
    13.666666666667));
#1018 = CARTESIAN_POINT('',(55.630555555556,69.955555555556,
    13.644444444444));
#1019 = CARTESIAN_POINT('',(55.652777777778,69.977777777778,
    13.622222222222));
#1020 = CARTESIAN_POINT('',(55.667592592592,69.992592592593,
    13.607407407407));
#1021 = CARTESIAN_POINT('',(55.675,70.,13.6));
#1022 = PLANE('',#1023);
#1023 = AXIS2_PLACEMENT_3D('',#1024,#1025,#1026);
#1024 = CARTESIAN_POINT('',(55.875,70.,13.6));
#1025 = DIRECTION('',(3.140184917368E-15,0.707106781187,0.707106781187)
  );
#1026 = DIRECTION('',(0.,-0.707106781187,0.707106781187));
#1027 = ADVANCED_FACE('',(#1028),#1034,.T.);
#1028 = FACE_BOUND('',#1029,.T.);
#1029 = EDGE_LOOP('',(#1030,#1031,#1032,#1033));
#1030 = ORIENTED_EDGE('',*,*,#626,.T.);
#1031 = ORIENTED_EDGE('',*,*,#1008,.F.);
#1032 = ORIENTED_EDGE('',*,*,#690,.F.);
#1033 = ORIENTED_EDGE('',*,*,#732,.T.);
#1034 = PLANE('',#1035);
#1035 = AXIS2_PLACEMENT_3D('',#1036,#1037,#1038);
#1036 = CARTESIAN_POINT('',(55.675,68.215,13.6));
#1037 = DIRECTION('',(0.707106781187,0.,0.707106781187));
#1038 = DIRECTION('',(0.707106781187,0.,-0.707106781187));
#1039 = ADVANCED_FACE('',(#1040),#1070,.T.);
#1040 = FACE_BOUND('',#1041,.T.);
#1041 = EDGE_LOOP('',(#1042,#1051,#1058,#1065));
#1042 = ORIENTED_EDGE('',*,*,#1043,.T.);
#1043 = EDGE_CURVE('',#1044,#1046,#1048,.T.);
#1044 = VERTEX_POINT('',#1045);
#1045 = CARTESIAN_POINT('',(54.125,65.5,7.65));
#1046 = VERTEX_POINT('',#1047);
#1047 = CARTESIAN_POINT('',(54.125,67.984701211121,7.65));
#1048 = B_SPLINE_CURVE_WITH_KNOTS('',1,(#1049,#1050),.UNSPECIFIED.,.F.,
  .F.,(2,2),(0.,2.484701211121),.PIECEWISE_BEZIER_KNOTS.);
#1049 = CARTESIAN_POINT('',(54.125,65.5,7.65));
#1050 = CARTESIAN_POINT('',(54.125,67.984701211121,7.65));
#1051 = ORIENTED_EDGE('',*,*,#1052,.T.);
#1052 = EDGE_CURVE('',#1046,#1053,#1055,.T.);
#1053 = VERTEX_POINT('',#1054);
#1054 = CARTESIAN_POINT('',(56.125,67.984701211121,7.65));
#1055 = B_SPLINE_CURVE_WITH_KNOTS('',1,(#1056,#1057),.UNSPECIFIED.,.F.,
  .F.,(2,2),(0.,2.),.PIECEWISE_BEZIER_KNOTS.);
#1056 = CARTESIAN_POINT('',(54.125,67.984701211121,7.65));
#1057 = CARTESIAN_POINT('',(56.125,67.984701211121,7.65));
#1058 = ORIENTED_EDGE('',*,*,#1059,.F.);
#1059 = EDGE_CURVE('',#1060,#1053,#1062,.T.);
#1060 = VERTEX_POINT('',#1061);
#1061 = CARTESIAN_POINT('',(56.125,65.5,7.65));
#1062 = B_SPLINE_CURVE_WITH_KNOTS('',1,(#1063,#1064),.UNSPECIFIED.,.F.,
  .F.,(2,2),(0.,2.484701211121),.PIECEWISE_BEZIER_KNOTS.);
#1063 = CARTESIAN_POINT('',(56.125,65.5,7.65));
#1064 = CARTESIAN_POINT('',(56.125,67.984701211121,7.65));
#1065 = ORIENTED_EDGE('',*,*,#1066,.F.);
#1066 = EDGE_CURVE('',#1044,#1060,#1067,.T.);
#1067 = B_SPLINE_CURVE_WITH_KNOTS('',1,(#1068,#1069),.UNSPECIFIED.,.F.,
  .F.,(2,2),(0.,2.),.PIECEWISE_BEZIER_KNOTS.);
#1068 = CARTESIAN_POINT('',(54.125,65.5,7.65));
#1069 = CARTESIAN_POINT('',(56.125,65.5,7.65));
#1070 = PLANE('',#1071);
#1071 = AXIS2_PLACEMENT_3D('',#1072,#1073,#1074);
#1072 = CARTESIAN_POINT('',(54.125,65.5,7.65));
#1073 = DIRECTION('',(0.,0.,-1.));
#1074 = DIRECTION('',(-1.,0.,-0.));
#1075 = ADVANCED_FACE('',(#1076),#1098,.T.);
#1076 = FACE_BOUND('',#1077,.T.);
#1077 = EDGE_LOOP('',(#1078,#1085,#1092,#1097));
#1078 = ORIENTED_EDGE('',*,*,#1079,.T.);
#1079 = EDGE_CURVE('',#1046,#1080,#1082,.T.);
#1080 = VERTEX_POINT('',#1081);
#1081 = CARTESIAN_POINT('',(54.125,68.51392580573,7.279432949449));
#1082 = B_SPLINE_CURVE_WITH_KNOTS('',1,(#1083,#1084),.UNSPECIFIED.,.F.,
  .F.,(2,2),(2.484701211121,3.130765147967),.PIECEWISE_BEZIER_KNOTS.);
#1083 = CARTESIAN_POINT('',(54.125,67.984701211121,7.65));
#1084 = CARTESIAN_POINT('',(54.125,68.51392580573,7.279432949449));
#1085 = ORIENTED_EDGE('',*,*,#1086,.T.);
#1086 = EDGE_CURVE('',#1080,#1087,#1089,.T.);
#1087 = VERTEX_POINT('',#1088);
#1088 = CARTESIAN_POINT('',(56.125,68.51392580573,7.279432949449));
#1089 = B_SPLINE_CURVE_WITH_KNOTS('',1,(#1090,#1091),.UNSPECIFIED.,.F.,
  .F.,(2,2),(0.,2.),.PIECEWISE_BEZIER_KNOTS.);
#1090 = CARTESIAN_POINT('',(54.125,68.51392580573,7.279432949449));
#1091 = CARTESIAN_POINT('',(56.125,68.51392580573,7.279432949449));
#1092 = ORIENTED_EDGE('',*,*,#1093,.F.);
#1093 = EDGE_CURVE('',#1053,#1087,#1094,.T.);
#1094 = B_SPLINE_CURVE_WITH_KNOTS('',1,(#1095,#1096),.UNSPECIFIED.,.F.,
  .F.,(2,2),(2.484701211121,3.130765147967),.PIECEWISE_BEZIER_KNOTS.);
#1095 = CARTESIAN_POINT('',(56.125,67.984701211121,7.65));
#1096 = CARTESIAN_POINT('',(56.125,68.51392580573,7.279432949449));
#1097 = ORIENTED_EDGE('',*,*,#1052,.F.);
#1098 = PLANE('',#1099);
#1099 = AXIS2_PLACEMENT_3D('',#1100,#1101,#1102);
#1100 = CARTESIAN_POINT('',(54.125,67.984701211121,7.65));
#1101 = DIRECTION('',(0.,-0.573576436351,-0.819152044289));
#1102 = DIRECTION('',(0.,-0.819152044289,0.573576436351));
#1103 = ADVANCED_FACE('',(#1104),#1126,.T.);
#1104 = FACE_BOUND('',#1105,.T.);
#1105 = EDGE_LOOP('',(#1106,#1113,#1120,#1125));
#1106 = ORIENTED_EDGE('',*,*,#1107,.T.);
#1107 = EDGE_CURVE('',#1080,#1108,#1110,.T.);
#1108 = VERTEX_POINT('',#1109);
#1109 = CARTESIAN_POINT('',(54.125,68.51392580573,6.300000000001));
#1110 = B_SPLINE_CURVE_WITH_KNOTS('',1,(#1111,#1112),.UNSPECIFIED.,.F.,
  .F.,(2,2),(3.130765147967,4.110198097416),.PIECEWISE_BEZIER_KNOTS.);
#1111 = CARTESIAN_POINT('',(54.125,68.51392580573,7.279432949449));
#1112 = CARTESIAN_POINT('',(54.125,68.51392580573,6.300000000001));
#1113 = ORIENTED_EDGE('',*,*,#1114,.T.);
#1114 = EDGE_CURVE('',#1108,#1115,#1117,.T.);
#1115 = VERTEX_POINT('',#1116);
#1116 = CARTESIAN_POINT('',(56.125,68.51392580573,6.300000000001));
#1117 = B_SPLINE_CURVE_WITH_KNOTS('',1,(#1118,#1119),.UNSPECIFIED.,.F.,
  .F.,(2,2),(0.,2.),.PIECEWISE_BEZIER_KNOTS.);
#1118 = CARTESIAN_POINT('',(54.125,68.51392580573,6.300000000001));
#1119 = CARTESIAN_POINT('',(56.125,68.51392580573,6.300000000001));
#1120 = ORIENTED_EDGE('',*,*,#1121,.F.);
#1121 = EDGE_CURVE('',#1087,#1115,#1122,.T.);
#1122 = B_SPLINE_CURVE_WITH_KNOTS('',1,(#1123,#1124),.UNSPECIFIED.,.F.,
  .F.,(2,2),(3.130765147967,4.110198097416),.PIECEWISE_BEZIER_KNOTS.);
#1123 = CARTESIAN_POINT('',(56.125,68.51392580573,7.279432949449));
#1124 = CARTESIAN_POINT('',(56.125,68.51392580573,6.300000000001));
#1125 = ORIENTED_EDGE('',*,*,#1086,.F.);
#1126 = PLANE('',#1127);
#1127 = AXIS2_PLACEMENT_3D('',#1128,#1129,#1130);
#1128 = CARTESIAN_POINT('',(54.125,68.51392580573,7.279432949449));
#1129 = DIRECTION('',(0.,-1.,0.));
#1130 = DIRECTION('',(0.,-0.,-1.));
#1131 = ADVANCED_FACE('',(#1132),#1154,.T.);
#1132 = FACE_BOUND('',#1133,.T.);
#1133 = EDGE_LOOP('',(#1134,#1135,#1142,#1149));
#1134 = ORIENTED_EDGE('',*,*,#65,.T.);
#1135 = ORIENTED_EDGE('',*,*,#1136,.T.);
#1136 = EDGE_CURVE('',#59,#1137,#1139,.T.);
#1137 = VERTEX_POINT('',#1138);
#1138 = CARTESIAN_POINT('',(56.125,69.51392580573,6.300000000001));
#1139 = B_SPLINE_CURVE_WITH_KNOTS('',1,(#1140,#1141),.UNSPECIFIED.,.F.,
  .F.,(2,2),(4.281929776277,5.781929776277),.PIECEWISE_BEZIER_KNOTS.);
#1140 = CARTESIAN_POINT('',(56.125,69.51392580573,7.800000000001));
#1141 = CARTESIAN_POINT('',(56.125,69.51392580573,6.300000000001));
#1142 = ORIENTED_EDGE('',*,*,#1143,.F.);
#1143 = EDGE_CURVE('',#1144,#1137,#1146,.T.);
#1144 = VERTEX_POINT('',#1145);
#1145 = CARTESIAN_POINT('',(54.125,69.51392580573,6.300000000001));
#1146 = B_SPLINE_CURVE_WITH_KNOTS('',1,(#1147,#1148),.UNSPECIFIED.,.F.,
  .F.,(2,2),(0.,2.),.PIECEWISE_BEZIER_KNOTS.);
#1147 = CARTESIAN_POINT('',(54.125,69.51392580573,6.300000000001));
#1148 = CARTESIAN_POINT('',(56.125,69.51392580573,6.300000000001));
#1149 = ORIENTED_EDGE('',*,*,#1150,.F.);
#1150 = EDGE_CURVE('',#66,#1144,#1151,.T.);
#1151 = B_SPLINE_CURVE_WITH_KNOTS('',1,(#1152,#1153),.UNSPECIFIED.,.F.,
  .F.,(2,2),(4.281929776277,5.781929776277),.PIECEWISE_BEZIER_KNOTS.);
#1152 = CARTESIAN_POINT('',(54.125,69.51392580573,7.800000000001));
#1153 = CARTESIAN_POINT('',(54.125,69.51392580573,6.300000000001));
#1154 = PLANE('',#1155);
#1155 = AXIS2_PLACEMENT_3D('',#1156,#1157,#1158);
#1156 = CARTESIAN_POINT('',(54.125,69.51392580573,7.800000000001));
#1157 = DIRECTION('',(0.,1.,0.));
#1158 = DIRECTION('',(0.,-0.,1.));
#1159 = ADVANCED_FACE('',(#1160),#1184,.T.);
#1160 = FACE_BOUND('',#1161,.T.);
#1161 = EDGE_LOOP('',(#1162,#1169,#1170,#1171,#1172,#1179));
#1162 = ORIENTED_EDGE('',*,*,#1163,.T.);
#1163 = EDGE_CURVE('',#1164,#313,#1166,.T.);
#1164 = VERTEX_POINT('',#1165);
#1165 = CARTESIAN_POINT('',(57.125,71.5,6.300000000001));
#1166 = B_SPLINE_CURVE_WITH_KNOTS('',1,(#1167,#1168),.UNSPECIFIED.,.F.,
  .F.,(2,2),(0.,4.7),.PIECEWISE_BEZIER_KNOTS.);
#1167 = CARTESIAN_POINT('',(57.125,71.5,6.300000000001));
#1168 = CARTESIAN_POINT('',(57.125,71.5,11.));
#1169 = ORIENTED_EDGE('',*,*,#312,.T.);
#1170 = ORIENTED_EDGE('',*,*,#402,.T.);
#1171 = ORIENTED_EDGE('',*,*,#241,.T.);
#1172 = ORIENTED_EDGE('',*,*,#1173,.F.);
#1173 = EDGE_CURVE('',#1174,#235,#1176,.T.);
#1174 = VERTEX_POINT('',#1175);
#1175 = CARTESIAN_POINT('',(57.125,65.5,6.300000000001));
#1176 = B_SPLINE_CURVE_WITH_KNOTS('',1,(#1177,#1178),.UNSPECIFIED.,.F.,
  .F.,(2,2),(0.,4.7),.PIECEWISE_BEZIER_KNOTS.);
#1177 = CARTESIAN_POINT('',(57.125,65.5,6.300000000001));
#1178 = CARTESIAN_POINT('',(57.125,65.5,11.));
#1179 = ORIENTED_EDGE('',*,*,#1180,.F.);
#1180 = EDGE_CURVE('',#1164,#1174,#1181,.T.);
#1181 = B_SPLINE_CURVE_WITH_KNOTS('',1,(#1182,#1183),.UNSPECIFIED.,.F.,
  .F.,(2,2),(4.,4.2),.PIECEWISE_BEZIER_KNOTS.);
#1182 = CARTESIAN_POINT('',(57.125,71.5,6.300000000001));
#1183 = CARTESIAN_POINT('',(57.125,65.5,6.300000000001));
#1184 = PLANE('',#1185);
#1185 = AXIS2_PLACEMENT_3D('',#1186,#1187,#1188);
#1186 = CARTESIAN_POINT('',(57.125,71.5,6.300000000001));
#1187 = DIRECTION('',(1.,0.,0.));
#1188 = DIRECTION('',(-0.,0.,1.));
#1189 = ADVANCED_FACE('',(#1190),#1214,.T.);
#1190 = FACE_BOUND('',#1191,.T.);
#1191 = EDGE_LOOP('',(#1192,#1201,#1206,#1207,#1208,#1209));
#1192 = ORIENTED_EDGE('',*,*,#1193,.T.);
#1193 = EDGE_CURVE('',#1194,#1196,#1198,.T.);
#1194 = VERTEX_POINT('',#1195);
#1195 = CARTESIAN_POINT('',(53.125,71.5,6.300000000001));
#1196 = VERTEX_POINT('',#1197);
#1197 = CARTESIAN_POINT('',(53.125,65.5,6.300000000001));
#1198 = B_SPLINE_CURVE_WITH_KNOTS('',1,(#1199,#1200),.UNSPECIFIED.,.F.,
  .F.,(2,2),(4.,4.2),.PIECEWISE_BEZIER_KNOTS.);
#1199 = CARTESIAN_POINT('',(53.125,71.5,6.300000000001));
#1200 = CARTESIAN_POINT('',(53.125,65.5,6.300000000001));
#1201 = ORIENTED_EDGE('',*,*,#1202,.T.);
#1202 = EDGE_CURVE('',#1196,#271,#1203,.T.);
#1203 = B_SPLINE_CURVE_WITH_KNOTS('',1,(#1204,#1205),.UNSPECIFIED.,.F.,
  .F.,(2,2),(0.,4.7),.PIECEWISE_BEZIER_KNOTS.);
#1204 = CARTESIAN_POINT('',(53.125,65.5,6.300000000001));
#1205 = CARTESIAN_POINT('',(53.125,65.5,11.));
#1206 = ORIENTED_EDGE('',*,*,#270,.T.);
#1207 = ORIENTED_EDGE('',*,*,#538,.T.);
#1208 = ORIENTED_EDGE('',*,*,#326,.T.);
#1209 = ORIENTED_EDGE('',*,*,#1210,.F.);
#1210 = EDGE_CURVE('',#1194,#320,#1211,.T.);
#1211 = B_SPLINE_CURVE_WITH_KNOTS('',1,(#1212,#1213),.UNSPECIFIED.,.F.,
  .F.,(2,2),(0.,4.7),.PIECEWISE_BEZIER_KNOTS.);
#1212 = CARTESIAN_POINT('',(53.125,71.5,6.300000000001));
#1213 = CARTESIAN_POINT('',(53.125,71.5,11.));
#1214 = PLANE('',#1215);
#1215 = AXIS2_PLACEMENT_3D('',#1216,#1217,#1218);
#1216 = CARTESIAN_POINT('',(53.125,71.5,6.300000000001));
#1217 = DIRECTION('',(-1.,0.,0.));
#1218 = DIRECTION('',(0.,0.,-1.));
#1219 = ADVANCED_FACE('',(#1220),#1237,.T.);
#1220 = FACE_BOUND('',#1221,.T.);
#1221 = EDGE_LOOP('',(#1222,#1223,#1224,#1231,#1236));
#1222 = ORIENTED_EDGE('',*,*,#1079,.F.);
#1223 = ORIENTED_EDGE('',*,*,#1043,.F.);
#1224 = ORIENTED_EDGE('',*,*,#1225,.F.);
#1225 = EDGE_CURVE('',#1226,#1044,#1228,.T.);
#1226 = VERTEX_POINT('',#1227);
#1227 = CARTESIAN_POINT('',(54.125,65.5,6.300000000001));
#1228 = B_SPLINE_CURVE_WITH_KNOTS('',1,(#1229,#1230),.UNSPECIFIED.,.F.,
  .F.,(2,2),(0.,1.35),.PIECEWISE_BEZIER_KNOTS.);
#1229 = CARTESIAN_POINT('',(54.125,65.5,6.300000000001));
#1230 = CARTESIAN_POINT('',(54.125,65.5,7.65));
#1231 = ORIENTED_EDGE('',*,*,#1232,.F.);
#1232 = EDGE_CURVE('',#1108,#1226,#1233,.T.);
#1233 = B_SPLINE_CURVE_WITH_KNOTS('',1,(#1234,#1235),.UNSPECIFIED.,.F.,
  .F.,(2,2),(4.099535806476,4.2),.PIECEWISE_BEZIER_KNOTS.);
#1234 = CARTESIAN_POINT('',(54.125,68.51392580573,6.300000000001));
#1235 = CARTESIAN_POINT('',(54.125,65.5,6.300000000001));
#1236 = ORIENTED_EDGE('',*,*,#1107,.F.);
#1237 = PLANE('',#1238);
#1238 = AXIS2_PLACEMENT_3D('',#1239,#1240,#1241);
#1239 = CARTESIAN_POINT('',(54.125,71.5,6.300000000001));
#1240 = DIRECTION('',(1.,0.,0.));
#1241 = DIRECTION('',(-0.,0.,1.));
#1242 = ADVANCED_FACE('',(#1243),#1270,.T.);
#1243 = FACE_BOUND('',#1244,.T.);
#1244 = EDGE_LOOP('',(#1245,#1246,#1247,#1248,#1255,#1260,#1261,#1262,
    #1263,#1264,#1265));
#1245 = ORIENTED_EDGE('',*,*,#44,.T.);
#1246 = ORIENTED_EDGE('',*,*,#72,.T.);
#1247 = ORIENTED_EDGE('',*,*,#1150,.T.);
#1248 = ORIENTED_EDGE('',*,*,#1249,.F.);
#1249 = EDGE_CURVE('',#1250,#1144,#1252,.T.);
#1250 = VERTEX_POINT('',#1251);
#1251 = CARTESIAN_POINT('',(54.125,71.5,6.300000000001));
#1252 = B_SPLINE_CURVE_WITH_KNOTS('',1,(#1253,#1254),.UNSPECIFIED.,.F.,
  .F.,(2,2),(4.,4.066202473142),.PIECEWISE_BEZIER_KNOTS.);
#1253 = CARTESIAN_POINT('',(54.125,71.5,6.300000000001));
#1254 = CARTESIAN_POINT('',(54.125,69.51392580573,6.300000000001));
#1255 = ORIENTED_EDGE('',*,*,#1256,.T.);
#1256 = EDGE_CURVE('',#1250,#136,#1257,.T.);
#1257 = B_SPLINE_CURVE_WITH_KNOTS('',1,(#1258,#1259),.UNSPECIFIED.,.F.,
  .F.,(2,2),(0.,3.499999999999),.PIECEWISE_BEZIER_KNOTS.);
#1258 = CARTESIAN_POINT('',(54.125,71.5,6.300000000001));
#1259 = CARTESIAN_POINT('',(54.125,71.5,9.8));
#1260 = ORIENTED_EDGE('',*,*,#158,.T.);
#1261 = ORIENTED_EDGE('',*,*,#186,.T.);
#1262 = ORIENTED_EDGE('',*,*,#199,.T.);
#1263 = ORIENTED_EDGE('',*,*,#122,.F.);
#1264 = ORIENTED_EDGE('',*,*,#284,.T.);
#1265 = ORIENTED_EDGE('',*,*,#1266,.F.);
#1266 = EDGE_CURVE('',#22,#278,#1267,.T.);
#1267 = B_SPLINE_CURVE_WITH_KNOTS('',1,(#1268,#1269),.UNSPECIFIED.,.F.,
  .F.,(2,2),(2.35,4.7),.PIECEWISE_BEZIER_KNOTS.);
#1268 = CARTESIAN_POINT('',(54.125,65.5,8.65));
#1269 = CARTESIAN_POINT('',(54.125,65.5,11.));
#1270 = PLANE('',#1271);
#1271 = AXIS2_PLACEMENT_3D('',#1272,#1273,#1274);
#1272 = CARTESIAN_POINT('',(54.125,71.5,6.300000000001));
#1273 = DIRECTION('',(1.,0.,0.));
#1274 = DIRECTION('',(-0.,0.,1.));
#1275 = ADVANCED_FACE('',(#1276),#1293,.T.);
#1276 = FACE_BOUND('',#1277,.T.);
#1277 = EDGE_LOOP('',(#1278,#1279,#1286,#1291,#1292));
#1278 = ORIENTED_EDGE('',*,*,#1121,.T.);
#1279 = ORIENTED_EDGE('',*,*,#1280,.T.);
#1280 = EDGE_CURVE('',#1115,#1281,#1283,.T.);
#1281 = VERTEX_POINT('',#1282);
#1282 = CARTESIAN_POINT('',(56.125,65.5,6.300000000001));
#1283 = B_SPLINE_CURVE_WITH_KNOTS('',1,(#1284,#1285),.UNSPECIFIED.,.F.,
  .F.,(2,2),(4.099535806476,4.2),.PIECEWISE_BEZIER_KNOTS.);
#1284 = CARTESIAN_POINT('',(56.125,68.51392580573,6.300000000001));
#1285 = CARTESIAN_POINT('',(56.125,65.5,6.300000000001));
#1286 = ORIENTED_EDGE('',*,*,#1287,.T.);
#1287 = EDGE_CURVE('',#1281,#1060,#1288,.T.);
#1288 = B_SPLINE_CURVE_WITH_KNOTS('',1,(#1289,#1290),.UNSPECIFIED.,.F.,
  .F.,(2,2),(0.,1.35),.PIECEWISE_BEZIER_KNOTS.);
#1289 = CARTESIAN_POINT('',(56.125,65.5,6.300000000001));
#1290 = CARTESIAN_POINT('',(56.125,65.5,7.65));
#1291 = ORIENTED_EDGE('',*,*,#1059,.T.);
#1292 = ORIENTED_EDGE('',*,*,#1093,.T.);
#1293 = PLANE('',#1294);
#1294 = AXIS2_PLACEMENT_3D('',#1295,#1296,#1297);
#1295 = CARTESIAN_POINT('',(56.125,71.5,6.300000000001));
#1296 = DIRECTION('',(-1.,0.,0.));
#1297 = DIRECTION('',(0.,0.,-1.));
#1298 = ADVANCED_FACE('',(#1299),#1326,.T.);
#1299 = FACE_BOUND('',#1300,.T.);
#1300 = EDGE_LOOP('',(#1301,#1306,#1307,#1308,#1309,#1310,#1311,#1318,
    #1323,#1324,#1325));
#1301 = ORIENTED_EDGE('',*,*,#1302,.T.);
#1302 = EDGE_CURVE('',#24,#228,#1303,.T.);
#1303 = B_SPLINE_CURVE_WITH_KNOTS('',1,(#1304,#1305),.UNSPECIFIED.,.F.,
  .F.,(2,2),(2.35,4.7),.PIECEWISE_BEZIER_KNOTS.);
#1304 = CARTESIAN_POINT('',(56.125,65.5,8.65));
#1305 = CARTESIAN_POINT('',(56.125,65.5,11.));
#1306 = ORIENTED_EDGE('',*,*,#227,.F.);
#1307 = ORIENTED_EDGE('',*,*,#94,.T.);
#1308 = ORIENTED_EDGE('',*,*,#205,.F.);
#1309 = ORIENTED_EDGE('',*,*,#172,.F.);
#1310 = ORIENTED_EDGE('',*,*,#144,.F.);
#1311 = ORIENTED_EDGE('',*,*,#1312,.F.);
#1312 = EDGE_CURVE('',#1313,#138,#1315,.T.);
#1313 = VERTEX_POINT('',#1314);
#1314 = CARTESIAN_POINT('',(56.125,71.5,6.300000000001));
#1315 = B_SPLINE_CURVE_WITH_KNOTS('',1,(#1316,#1317),.UNSPECIFIED.,.F.,
  .F.,(2,2),(0.,3.499999999999),.PIECEWISE_BEZIER_KNOTS.);
#1316 = CARTESIAN_POINT('',(56.125,71.5,6.300000000001));
#1317 = CARTESIAN_POINT('',(56.125,71.5,9.8));
#1318 = ORIENTED_EDGE('',*,*,#1319,.T.);
#1319 = EDGE_CURVE('',#1313,#1137,#1320,.T.);
#1320 = B_SPLINE_CURVE_WITH_KNOTS('',1,(#1321,#1322),.UNSPECIFIED.,.F.,
  .F.,(2,2),(4.,4.066202473142),.PIECEWISE_BEZIER_KNOTS.);
#1321 = CARTESIAN_POINT('',(56.125,71.5,6.300000000001));
#1322 = CARTESIAN_POINT('',(56.125,69.51392580573,6.300000000001));
#1323 = ORIENTED_EDGE('',*,*,#1136,.F.);
#1324 = ORIENTED_EDGE('',*,*,#58,.F.);
#1325 = ORIENTED_EDGE('',*,*,#30,.F.);
#1326 = PLANE('',#1327);
#1327 = AXIS2_PLACEMENT_3D('',#1328,#1329,#1330);
#1328 = CARTESIAN_POINT('',(56.125,71.5,6.300000000001));
#1329 = DIRECTION('',(-1.,0.,0.));
#1330 = DIRECTION('',(0.,0.,-1.));
#1331 = ADVANCED_FACE('',(#1332),#1350,.T.);
#1332 = FACE_BOUND('',#1333,.T.);
#1333 = EDGE_LOOP('',(#1334,#1335,#1340,#1341,#1342,#1343,#1348,#1349));
#1334 = ORIENTED_EDGE('',*,*,#1256,.F.);
#1335 = ORIENTED_EDGE('',*,*,#1336,.F.);
#1336 = EDGE_CURVE('',#1194,#1250,#1337,.T.);
#1337 = B_SPLINE_CURVE_WITH_KNOTS('',1,(#1338,#1339),.UNSPECIFIED.,.F.,
  .F.,(2,2),(0.,1.),.PIECEWISE_BEZIER_KNOTS.);
#1338 = CARTESIAN_POINT('',(53.125,71.5,6.300000000001));
#1339 = CARTESIAN_POINT('',(54.125,71.5,6.300000000001));
#1340 = ORIENTED_EDGE('',*,*,#1210,.T.);
#1341 = ORIENTED_EDGE('',*,*,#319,.T.);
#1342 = ORIENTED_EDGE('',*,*,#1163,.F.);
#1343 = ORIENTED_EDGE('',*,*,#1344,.F.);
#1344 = EDGE_CURVE('',#1313,#1164,#1345,.T.);
#1345 = B_SPLINE_CURVE_WITH_KNOTS('',1,(#1346,#1347),.UNSPECIFIED.,.F.,
  .F.,(2,2),(3.,4.),.PIECEWISE_BEZIER_KNOTS.);
#1346 = CARTESIAN_POINT('',(56.125,71.5,6.300000000001));
#1347 = CARTESIAN_POINT('',(57.125,71.5,6.300000000001));
#1348 = ORIENTED_EDGE('',*,*,#1312,.T.);
#1349 = ORIENTED_EDGE('',*,*,#135,.F.);
#1350 = PLANE('',#1351);
#1351 = AXIS2_PLACEMENT_3D('',#1352,#1353,#1354);
#1352 = CARTESIAN_POINT('',(53.125,71.5,11.));
#1353 = DIRECTION('',(0.,1.,0.));
#1354 = DIRECTION('',(0.,-0.,1.));
#1355 = ADVANCED_FACE('',(#1356),#1378,.T.);
#1356 = FACE_BOUND('',#1357,.T.);
#1357 = EDGE_LOOP('',(#1358,#1359,#1360,#1365,#1366,#1367,#1368,#1369,
    #1370,#1371,#1372,#1377));
#1358 = ORIENTED_EDGE('',*,*,#1066,.T.);
#1359 = ORIENTED_EDGE('',*,*,#1287,.F.);
#1360 = ORIENTED_EDGE('',*,*,#1361,.T.);
#1361 = EDGE_CURVE('',#1281,#1174,#1362,.T.);
#1362 = B_SPLINE_CURVE_WITH_KNOTS('',1,(#1363,#1364),.UNSPECIFIED.,.F.,
  .F.,(2,2),(3.,4.),.PIECEWISE_BEZIER_KNOTS.);
#1363 = CARTESIAN_POINT('',(56.125,65.5,6.300000000001));
#1364 = CARTESIAN_POINT('',(57.125,65.5,6.300000000001));
#1365 = ORIENTED_EDGE('',*,*,#1173,.T.);
#1366 = ORIENTED_EDGE('',*,*,#234,.T.);
#1367 = ORIENTED_EDGE('',*,*,#1302,.F.);
#1368 = ORIENTED_EDGE('',*,*,#21,.F.);
#1369 = ORIENTED_EDGE('',*,*,#1266,.T.);
#1370 = ORIENTED_EDGE('',*,*,#277,.T.);
#1371 = ORIENTED_EDGE('',*,*,#1202,.F.);
#1372 = ORIENTED_EDGE('',*,*,#1373,.F.);
#1373 = EDGE_CURVE('',#1226,#1196,#1374,.T.);
#1374 = B_SPLINE_CURVE_WITH_KNOTS('',1,(#1375,#1376),.UNSPECIFIED.,.F.,
  .F.,(2,2),(4.35,4.4),.PIECEWISE_BEZIER_KNOTS.);
#1375 = CARTESIAN_POINT('',(54.125,65.5,6.300000000001));
#1376 = CARTESIAN_POINT('',(53.125,65.5,6.300000000001));
#1377 = ORIENTED_EDGE('',*,*,#1225,.T.);
#1378 = PLANE('',#1379);
#1379 = AXIS2_PLACEMENT_3D('',#1380,#1381,#1382);
#1380 = CARTESIAN_POINT('',(53.125,65.5,11.));
#1381 = DIRECTION('',(0.,-1.,0.));
#1382 = DIRECTION('',(0.,-0.,-1.));
#1383 = ADVANCED_FACE('',(#1384),#1398,.T.);
#1384 = FACE_BOUND('',#1385,.T.);
#1385 = EDGE_LOOP('',(#1386,#1387,#1388,#1389,#1390,#1391,#1392,#1393,
    #1394,#1395,#1396,#1397));
#1386 = ORIENTED_EDGE('',*,*,#1232,.T.);
#1387 = ORIENTED_EDGE('',*,*,#1373,.T.);
#1388 = ORIENTED_EDGE('',*,*,#1193,.F.);
#1389 = ORIENTED_EDGE('',*,*,#1336,.T.);
#1390 = ORIENTED_EDGE('',*,*,#1249,.T.);
#1391 = ORIENTED_EDGE('',*,*,#1143,.T.);
#1392 = ORIENTED_EDGE('',*,*,#1319,.F.);
#1393 = ORIENTED_EDGE('',*,*,#1344,.T.);
#1394 = ORIENTED_EDGE('',*,*,#1180,.T.);
#1395 = ORIENTED_EDGE('',*,*,#1361,.F.);
#1396 = ORIENTED_EDGE('',*,*,#1280,.F.);
#1397 = ORIENTED_EDGE('',*,*,#1114,.F.);
#1398 = PLANE('',#1399);
#1399 = AXIS2_PLACEMENT_3D('',#1400,#1401,#1402);
#1400 = CARTESIAN_POINT('',(53.125,71.5,6.300000000001));
#1401 = DIRECTION('',(0.,0.,-1.));
#1402 = DIRECTION('',(-1.,0.,-0.));
#1403 = ( GEOMETRIC_REPRESENTATION_CONTEXT(3) 
GLOBAL_UNCERTAINTY_ASSIGNED_CONTEXT((#1407)) 
GLOBAL_UNIT_ASSIGNED_CONTEXT((#1404,#1405,#1406)) REPRESENTATION_CONTEXT
('Context #1','3D Context with UNIT and UNCERTAINTY') );
#1404 = ( LENGTH_UNIT() NAMED_UNIT(*) SI_UNIT(.MILLI.,.METRE.) );
#1405 = ( NAMED_UNIT(*) PLANE_ANGLE_UNIT() SI_UNIT($,.RADIAN.) );
#1406 = ( NAMED_UNIT(*) SI_UNIT($,.STERADIAN.) SOLID_ANGLE_UNIT() );
#1407 = UNCERTAINTY_MEASURE_WITH_UNIT(LENGTH_MEASURE(1.E-07),#1404,
  'distance_accuracy_value','confusion accuracy');
#1408 = PRODUCT_RELATED_PRODUCT_CATEGORY('part',$,(#7));
#1409 = MECHANICAL_DESIGN_GEOMETRIC_PRESENTATION_REPRESENTATION('',(
    #1410),#1403);
#1410 = STYLED_ITEM('color',(#1411),#15);
#1411 = PRESENTATION_STYLE_ASSIGNMENT((#1412,#1418));
#1412 = SURFACE_STYLE_USAGE(.BOTH.,#1413);
#1413 = SURFACE_SIDE_STYLE('',(#1414));
#1414 = SURFACE_STYLE_FILL_AREA(#1415);
#1415 = FILL_AREA_STYLE('',(#1416));
#1416 = FILL_AREA_STYLE_COLOUR('',#1417);
#1417 = COLOUR_RGB('',0.800000010877,0.800000010877,0.901960800373);
#1418 = CURVE_STYLE('',#1419,POSITIVE_LENGTH_MEASURE(0.1),#1420);
#1419 = DRAUGHTING_PRE_DEFINED_CURVE_FONT('continuous');
#1420 = COLOUR_RGB('',9.803921802644E-02,9.803921802644E-02,
  9.803921802644E-02);
ENDSEC;
END-ISO-10303-21;
