  0
SECTION
  2
HEADER
  9
$ACADVER
  1
AC1009
  9
$FILLMODE
 70
 0
  9
$SPLFRAME
 70
 1
  9
$EXTMIN
 10
0
 20
0
 30
0.0
  9
$EXTMAX
 10
1058.33
 20
1058.33
 30
0.0
  0
ENDSEC
  0
SECTION
  2
TABLES
  0
TABLE
  2
LAYER
 70
1
  0
LAYER
  2
0
 70
     0
 62
     7
  6
CONTINUOUS
  0
ENDTAB
  0
ENDSEC
  0
SECTION
  2
ENTITIES
  0
LINE
  8
0
 62
     0
 10
284.846
 20
19.3077
 30
0.0
 11
284.924
 21
19.305
 31
0.0
  0
LINE
  8
0
 62
     0
 10
284.924
 20
19.305
 30
0.0
 11
285.003
 21
19.2953
 31
0.0
  0
LINE
  8
0
 62
     0
 10
285.003
 20
19.2953
 30
0.0
 11
285.079
 21
19.2801
 31
0.0
  0
LINE
  8
0
 62
     0
 10
285.079
 20
19.2801
 30
0.0
 11
285.156
 21
19.2595
 31
0.0
  0
LINE
  8
0
 62
     0
 10
285.156
 20
19.2595
 30
0.0
 11
285.229
 21
19.2319
 31
0.0
  0
LINE
  8
0
 62
     0
 10
285.229
 20
19.2319
 30
0.0
 11
285.3
 21
19.1988
 31
0.0
  0
LINE
  8
0
 62
     0
 10
285.3
 20
19.1988
 30
0.0
 11
285.368
 21
19.1602
 31
0.0
  0
LINE
  8
0
 62
     0
 10
285.368
 20
19.1602
 30
0.0
 11
285.433
 21
19.1175
 31
0.0
  0
LINE
  8
0
 62
     0
 10
285.433
 20
19.1175
 30
0.0
 11
285.495
 21
19.0679
 31
0.0
  0
LINE
  8
0
 62
     0
 10
285.495
 20
19.0679
 30
0.0
 11
285.553
 21
19.0155
 31
0.0
  0
LINE
  8
0
 62
     0
 10
285.553
 20
19.0155
 30
0.0
 11
285.607
 21
18.9577
 31
0.0
  0
LINE
  8
0
 62
     0
 10
285.607
 20
18.9577
 30
0.0
 11
285.655
 21
18.8957
 31
0.0
  0
LINE
  8
0
 62
     0
 10
285.655
 20
18.8957
 30
0.0
 11
285.699
 21
18.8309
 31
0.0
  0
LINE
  8
0
 62
     0
 10
285.699
 20
18.8309
 30
0.0
 11
285.738
 21
18.7606
 31
0.0
  0
LINE
  8
0
 62
     0
 10
285.738
 20
18.7606
 30
0.0
 11
285.769
 21
18.6903
 31
0.0
  0
LINE
  8
0
 62
     0
 10
285.769
 20
18.6903
 30
0.0
 11
285.797
 21
18.6173
 31
0.0
  0
LINE
  8
0
 62
     0
 10
285.797
 20
18.6173
 30
0.0
 11
285.819
 21
18.5415
 31
0.0
  0
LINE
  8
0
 62
     0
 10
285.819
 20
18.5415
 30
0.0
 11
285.834
 21
18.4643
 31
0.0
  0
LINE
  8
0
 62
     0
 10
285.834
 20
18.4643
 30
0.0
 11
285.842
 21
18.3858
 31
0.0
  0
LINE
  8
0
 62
     0
 10
285.842
 20
18.3858
 30
0.0
 11
285.846
 21
18.3072
 31
0.0
  0
LINE
  8
0
 62
     0
 10
285.846
 20
18.3072
 30
0.0
 11
285.846
 21
1.25677
 31
0.0
  0
LINE
  8
0
 62
     0
 10
285.846
 20
1.25677
 30
0.0
 11
285.842
 21
1.17822
 31
0.0
  0
LINE
  8
0
 62
     0
 10
285.842
 20
1.17822
 30
0.0
 11
285.834
 21
1.09968
 31
0.0
  0
LINE
  8
0
 62
     0
 10
285.834
 20
1.09968
 30
0.0
 11
285.819
 21
1.02388
 31
0.0
  0
LINE
  8
0
 62
     0
 10
285.819
 20
1.02388
 30
0.0
 11
285.797
 21
0.946711
 31
0.0
  0
LINE
  8
0
 62
     0
 10
285.797
 20
0.946711
 30
0.0
 11
285.769
 21
0.873675
 31
0.0
  0
LINE
  8
0
 62
     0
 10
285.769
 20
0.873675
 30
0.0
 11
285.738
 21
0.803395
 31
0.0
  0
LINE
  8
0
 62
     0
 10
285.738
 20
0.803395
 30
0.0
 11
285.699
 21
0.734494
 31
0.0
  0
LINE
  8
0
 62
     0
 10
285.699
 20
0.734494
 30
0.0
 11
285.655
 21
0.669727
 31
0.0
  0
LINE
  8
0
 62
     0
 10
285.655
 20
0.669727
 30
0.0
 11
285.607
 21
0.607716
 31
0.0
  0
LINE
  8
0
 62
     0
 10
285.607
 20
0.607716
 30
0.0
 11
285.553
 21
0.549836
 31
0.0
  0
LINE
  8
0
 62
     0
 10
285.553
 20
0.549836
 30
0.0
 11
285.495
 21
0.496094
 31
0.0
  0
LINE
  8
0
 62
     0
 10
285.495
 20
0.496094
 30
0.0
 11
285.433
 21
0.447862
 31
0.0
  0
LINE
  8
0
 62
     0
 10
285.433
 20
0.447862
 30
0.0
 11
285.368
 21
0.403765
 31
0.0
  0
LINE
  8
0
 62
     0
 10
285.368
 20
0.403765
 30
0.0
 11
285.3
 21
0.365181
 31
0.0
  0
LINE
  8
0
 62
     0
 10
285.3
 20
0.365181
 30
0.0
 11
285.229
 21
0.333485
 31
0.0
  0
LINE
  8
0
 62
     0
 10
285.229
 20
0.333485
 30
0.0
 11
285.156
 21
0.305925
 31
0.0
  0
LINE
  8
0
 62
     0
 10
285.156
 20
0.305925
 30
0.0
 11
285.079
 21
0.283876
 31
0.0
  0
LINE
  8
0
 62
     0
 10
285.079
 20
0.283876
 30
0.0
 11
285.003
 21
0.268718
 31
0.0
  0
LINE
  8
0
 62
     0
 10
285.003
 20
0.268718
 30
0.0
 11
284.924
 21
0.260449
 31
0.0
  0
LINE
  8
0
 62
     0
 10
284.924
 20
0.260449
 30
0.0
 11
284.846
 21
0.256315
 31
0.0
  0
LINE
  8
0
 62
     0
 10
284.846
 20
0.256315
 30
0.0
 11
1.09554
 21
0.256315
 31
0.0
  0
LINE
  8
0
 62
     0
 10
1.09554
 20
0.256315
 30
0.0
 11
1.01699
 21
0.260449
 31
0.0
  0
LINE
  8
0
 62
     0
 10
1.01699
 20
0.260449
 30
0.0
 11
0.938445
 21
0.268718
 31
0.0
  0
LINE
  8
0
 62
     0
 10
0.938445
 20
0.268718
 30
0.0
 11
0.861275
 21
0.283876
 31
0.0
  0
LINE
  8
0
 62
     0
 10
0.861275
 20
0.283876
 30
0.0
 11
0.785481
 21
0.305925
 31
0.0
  0
LINE
  8
0
 62
     0
 10
0.785481
 20
0.305925
 30
0.0
 11
0.712445
 21
0.333485
 31
0.0
  0
LINE
  8
0
 62
     0
 10
0.712445
 20
0.333485
 30
0.0
 11
0.642165
 21
0.365181
 31
0.0
  0
LINE
  8
0
 62
     0
 10
0.642165
 20
0.365181
 30
0.0
 11
0.571885
 21
0.403765
 31
0.0
  0
LINE
  8
0
 62
     0
 10
0.571885
 20
0.403765
 30
0.0
 11
0.507118
 21
0.447862
 31
0.0
  0
LINE
  8
0
 62
     0
 10
0.507118
 20
0.447862
 30
0.0
 11
0.445107
 21
0.496094
 31
0.0
  0
LINE
  8
0
 62
     0
 10
0.445107
 20
0.496094
 30
0.0
 11
0.38723
 21
0.549836
 31
0.0
  0
LINE
  8
0
 62
     0
 10
0.38723
 20
0.549836
 30
0.0
 11
0.334863
 21
0.607716
 31
0.0
  0
LINE
  8
0
 62
     0
 10
0.334863
 20
0.607716
 30
0.0
 11
0.285254
 21
0.669727
 31
0.0
  0
LINE
  8
0
 62
     0
 10
0.285254
 20
0.669727
 30
0.0
 11
0.242535
 21
0.734494
 31
0.0
  0
LINE
  8
0
 62
     0
 10
0.242535
 20
0.734494
 30
0.0
 11
0.20395
 21
0.803395
 31
0.0
  0
LINE
  8
0
 62
     0
 10
0.20395
 20
0.803395
 30
0.0
 11
0.170877
 21
0.873675
 31
0.0
  0
LINE
  8
0
 62
     0
 10
0.170877
 20
0.873675
 30
0.0
 11
0.143316
 21
0.946711
 31
0.0
  0
LINE
  8
0
 62
     0
 10
0.143316
 20
0.946711
 30
0.0
 11
0.122645
 21
1.02388
 31
0.0
  0
LINE
  8
0
 62
     0
 10
0.122645
 20
1.02388
 30
0.0
 11
0.107487
 21
1.09968
 31
0.0
  0
LINE
  8
0
 62
     0
 10
0.107487
 20
1.09968
 30
0.0
 11
0.0978408
 21
1.17822
 31
0.0
  0
LINE
  8
0
 62
     0
 10
0.0978408
 20
1.17822
 30
0.0
 11
0.0950846
 21
1.25677
 31
0.0
  0
LINE
  8
0
 62
     0
 10
0.0950846
 20
1.25677
 30
0.0
 11
0.0950846
 21
18.3072
 31
0.0
  0
LINE
  8
0
 62
     0
 10
0.0950846
 20
18.3072
 30
0.0
 11
0.0978408
 21
18.3858
 31
0.0
  0
LINE
  8
0
 62
     0
 10
0.0978408
 20
18.3858
 30
0.0
 11
0.107487
 21
18.4643
 31
0.0
  0
LINE
  8
0
 62
     0
 10
0.107487
 20
18.4643
 30
0.0
 11
0.122645
 21
18.5415
 31
0.0
  0
LINE
  8
0
 62
     0
 10
0.122645
 20
18.5415
 30
0.0
 11
0.143316
 21
18.6173
 31
0.0
  0
LINE
  8
0
 62
     0
 10
0.143316
 20
18.6173
 30
0.0
 11
0.170877
 21
18.6903
 31
0.0
  0
LINE
  8
0
 62
     0
 10
0.170877
 20
18.6903
 30
0.0
 11
0.20395
 21
18.7606
 31
0.0
  0
LINE
  8
0
 62
     0
 10
0.20395
 20
18.7606
 30
0.0
 11
0.242535
 21
18.8309
 31
0.0
  0
LINE
  8
0
 62
     0
 10
0.242535
 20
18.8309
 30
0.0
 11
0.285254
 21
18.8957
 31
0.0
  0
LINE
  8
0
 62
     0
 10
0.285254
 20
18.8957
 30
0.0
 11
0.334863
 21
18.9577
 31
0.0
  0
LINE
  8
0
 62
     0
 10
0.334863
 20
18.9577
 30
0.0
 11
0.38723
 21
19.0155
 31
0.0
  0
LINE
  8
0
 62
     0
 10
0.38723
 20
19.0155
 30
0.0
 11
0.445107
 21
19.0679
 31
0.0
  0
LINE
  8
0
 62
     0
 10
0.445107
 20
19.0679
 30
0.0
 11
0.507118
 21
19.1175
 31
0.0
  0
LINE
  8
0
 62
     0
 10
0.507118
 20
19.1175
 30
0.0
 11
0.571885
 21
19.1602
 31
0.0
  0
LINE
  8
0
 62
     0
 10
0.571885
 20
19.1602
 30
0.0
 11
0.642165
 21
19.1988
 31
0.0
  0
LINE
  8
0
 62
     0
 10
0.642165
 20
19.1988
 30
0.0
 11
0.712445
 21
19.2319
 31
0.0
  0
LINE
  8
0
 62
     0
 10
0.712445
 20
19.2319
 30
0.0
 11
0.785481
 21
19.2595
 31
0.0
  0
LINE
  8
0
 62
     0
 10
0.785481
 20
19.2595
 30
0.0
 11
0.861275
 21
19.2801
 31
0.0
  0
LINE
  8
0
 62
     0
 10
0.861275
 20
19.2801
 30
0.0
 11
0.938445
 21
19.2953
 31
0.0
  0
LINE
  8
0
 62
     0
 10
0.938445
 20
19.2953
 30
0.0
 11
1.01699
 21
19.305
 31
0.0
  0
LINE
  8
0
 62
     0
 10
1.01699
 20
19.305
 30
0.0
 11
1.09554
 21
19.3077
 31
0.0
  0
LINE
  8
0
 62
     0
 10
1.09554
 20
19.3077
 30
0.0
 11
284.846
 21
19.3077
 31
0.0
  0
LINE
  8
0
 62
     0
 10
2.62103
 20
16.7817
 30
0.0
 11
16.6205
 21
16.7817
 31
0.0
  0
LINE
  8
0
 62
     0
 10
16.6205
 20
16.7817
 30
0.0
 11
16.6205
 21
2.78226
 31
0.0
  0
LINE
  8
0
 62
     0
 10
16.6205
 20
2.78226
 30
0.0
 11
2.62103
 21
2.78226
 31
0.0
  0
LINE
  8
0
 62
     0
 10
2.62103
 20
2.78226
 30
0.0
 11
2.62103
 21
16.7817
 31
0.0
  0
LINE
  8
0
 62
     0
 10
26.4322
 20
16.7817
 30
0.0
 11
40.4329
 21
16.7817
 31
0.0
  0
LINE
  8
0
 62
     0
 10
40.4329
 20
16.7817
 30
0.0
 11
40.4329
 21
2.78226
 31
0.0
  0
LINE
  8
0
 62
     0
 10
40.4329
 20
2.78226
 30
0.0
 11
26.4322
 21
2.78226
 31
0.0
  0
LINE
  8
0
 62
     0
 10
26.4322
 20
2.78226
 30
0.0
 11
26.4322
 21
16.7817
 31
0.0
  0
LINE
  8
0
 62
     0
 10
45.4822
 20
16.7817
 30
0.0
 11
59.4829
 21
16.7817
 31
0.0
  0
LINE
  8
0
 62
     0
 10
59.4829
 20
16.7817
 30
0.0
 11
59.4829
 21
2.78226
 31
0.0
  0
LINE
  8
0
 62
     0
 10
59.4829
 20
2.78226
 30
0.0
 11
45.4822
 21
2.78226
 31
0.0
  0
LINE
  8
0
 62
     0
 10
45.4822
 20
2.78226
 30
0.0
 11
45.4822
 21
16.7817
 31
0.0
  0
LINE
  8
0
 62
     0
 10
64.5322
 20
16.7817
 30
0.0
 11
78.5329
 21
16.7817
 31
0.0
  0
LINE
  8
0
 62
     0
 10
78.5329
 20
16.7817
 30
0.0
 11
78.5329
 21
2.78226
 31
0.0
  0
LINE
  8
0
 62
     0
 10
78.5329
 20
2.78226
 30
0.0
 11
64.5322
 21
2.78226
 31
0.0
  0
LINE
  8
0
 62
     0
 10
64.5322
 20
2.78226
 30
0.0
 11
64.5322
 21
16.7817
 31
0.0
  0
LINE
  8
0
 62
     0
 10
83.5822
 20
16.7817
 30
0.0
 11
97.5829
 21
16.7817
 31
0.0
  0
LINE
  8
0
 62
     0
 10
97.5829
 20
16.7817
 30
0.0
 11
97.5829
 21
2.78226
 31
0.0
  0
LINE
  8
0
 62
     0
 10
97.5829
 20
2.78226
 30
0.0
 11
83.5822
 21
2.78226
 31
0.0
  0
LINE
  8
0
 62
     0
 10
83.5822
 20
2.78226
 30
0.0
 11
83.5822
 21
16.7817
 31
0.0
  0
LINE
  8
0
 62
     0
 10
107.396
 20
16.7817
 30
0.0
 11
121.395
 21
16.7817
 31
0.0
  0
LINE
  8
0
 62
     0
 10
121.395
 20
16.7817
 30
0.0
 11
121.395
 21
2.78226
 31
0.0
  0
LINE
  8
0
 62
     0
 10
121.395
 20
2.78226
 30
0.0
 11
107.396
 21
2.78226
 31
0.0
  0
LINE
  8
0
 62
     0
 10
107.396
 20
2.78226
 30
0.0
 11
107.396
 21
16.7817
 31
0.0
  0
LINE
  8
0
 62
     0
 10
126.446
 20
16.7817
 30
0.0
 11
140.445
 21
16.7817
 31
0.0
  0
LINE
  8
0
 62
     0
 10
140.445
 20
16.7817
 30
0.0
 11
140.445
 21
2.78226
 31
0.0
  0
LINE
  8
0
 62
     0
 10
140.445
 20
2.78226
 30
0.0
 11
126.446
 21
2.78226
 31
0.0
  0
LINE
  8
0
 62
     0
 10
126.446
 20
2.78226
 30
0.0
 11
126.446
 21
16.7817
 31
0.0
  0
LINE
  8
0
 62
     0
 10
145.496
 20
16.7817
 30
0.0
 11
159.495
 21
16.7817
 31
0.0
  0
LINE
  8
0
 62
     0
 10
159.495
 20
16.7817
 30
0.0
 11
159.495
 21
2.78226
 31
0.0
  0
LINE
  8
0
 62
     0
 10
159.495
 20
2.78226
 30
0.0
 11
145.496
 21
2.78226
 31
0.0
  0
LINE
  8
0
 62
     0
 10
145.496
 20
2.78226
 30
0.0
 11
145.496
 21
16.7817
 31
0.0
  0
LINE
  8
0
 62
     0
 10
164.546
 20
16.7817
 30
0.0
 11
178.545
 21
16.7817
 31
0.0
  0
LINE
  8
0
 62
     0
 10
178.545
 20
16.7817
 30
0.0
 11
178.545
 21
2.78226
 31
0.0
  0
LINE
  8
0
 62
     0
 10
178.545
 20
2.78226
 30
0.0
 11
164.546
 21
2.78226
 31
0.0
  0
LINE
  8
0
 62
     0
 10
164.546
 20
2.78226
 30
0.0
 11
164.546
 21
16.7817
 31
0.0
  0
LINE
  8
0
 62
     0
 10
188.357
 20
16.7817
 30
0.0
 11
202.358
 21
16.7817
 31
0.0
  0
LINE
  8
0
 62
     0
 10
202.358
 20
16.7817
 30
0.0
 11
202.358
 21
2.78226
 31
0.0
  0
LINE
  8
0
 62
     0
 10
202.358
 20
2.78226
 30
0.0
 11
188.357
 21
2.78226
 31
0.0
  0
LINE
  8
0
 62
     0
 10
188.357
 20
2.78226
 30
0.0
 11
188.357
 21
16.7817
 31
0.0
  0
LINE
  8
0
 62
     0
 10
207.407
 20
16.7817
 30
0.0
 11
221.408
 21
16.7817
 31
0.0
  0
LINE
  8
0
 62
     0
 10
221.408
 20
16.7817
 30
0.0
 11
221.408
 21
2.78226
 31
0.0
  0
LINE
  8
0
 62
     0
 10
221.408
 20
2.78226
 30
0.0
 11
207.407
 21
2.78226
 31
0.0
  0
LINE
  8
0
 62
     0
 10
207.407
 20
2.78226
 30
0.0
 11
207.407
 21
16.7817
 31
0.0
  0
LINE
  8
0
 62
     0
 10
226.457
 20
16.7817
 30
0.0
 11
240.458
 21
16.7817
 31
0.0
  0
LINE
  8
0
 62
     0
 10
240.458
 20
16.7817
 30
0.0
 11
240.458
 21
2.78226
 31
0.0
  0
LINE
  8
0
 62
     0
 10
240.458
 20
2.78226
 30
0.0
 11
226.457
 21
2.78226
 31
0.0
  0
LINE
  8
0
 62
     0
 10
226.457
 20
2.78226
 30
0.0
 11
226.457
 21
16.7817
 31
0.0
  0
LINE
  8
0
 62
     0
 10
245.507
 20
16.7817
 30
0.0
 11
259.508
 21
16.7817
 31
0.0
  0
LINE
  8
0
 62
     0
 10
259.508
 20
16.7817
 30
0.0
 11
259.508
 21
2.78226
 31
0.0
  0
LINE
  8
0
 62
     0
 10
259.508
 20
2.78226
 30
0.0
 11
245.507
 21
2.78226
 31
0.0
  0
LINE
  8
0
 62
     0
 10
245.507
 20
2.78226
 30
0.0
 11
245.507
 21
16.7817
 31
0.0
  0
LINE
  8
0
 62
     0
 10
269.321
 20
16.7817
 30
0.0
 11
283.32
 21
16.7817
 31
0.0
  0
LINE
  8
0
 62
     0
 10
283.32
 20
16.7817
 30
0.0
 11
283.32
 21
2.78226
 31
0.0
  0
LINE
  8
0
 62
     0
 10
283.32
 20
2.78226
 30
0.0
 11
269.321
 21
2.78226
 31
0.0
  0
LINE
  8
0
 62
     0
 10
269.321
 20
2.78226
 30
0.0
 11
269.321
 21
16.7817
 31
0.0
  0
ENDSEC
  0
EOF
