999
dxflib 3.26.4.0
  0
SECTION
  2
HEADER
  9
$ACADVER
  1
AC1015
  9
$HANDSEED
  5
FFFF
  9
$DIMADEC
 70
0
  9
$DIMASZ
 40
2.5
  9
$DIMATFIT
 70
0
  9
$DIMAUNIT
 70
0
  9
$DIMAZIN
 70
2
  9
$DIMBLK
  1

  9
$DIMDEC
 70
4
  9
$DIMDLI
 40
5.0
  9
$DIMDSEP
 70
46
  9
$DIMEXE
 40
1.25
  9
$DIMEXO
 40
0.625
  9
$DIMGAP
 40
0.625
  9
$DIMLFAC
 40
1.0
  9
$DIMLUNIT
 70
2
  9
$DIMSCALE
 40
1.0
  9
$DIMTAD
 70
1
  9
$DIMTIH
 70
0
  9
$DIMTSZ
 40
0.0
  9
$DIMTXT
 40
2.5
  9
$DIMZIN
 70
8
  9
$DWGCODEPAGE
  3
ANSI_1252
  9
$INSUNITS
 70
4
  9
$LTSCALE
 40
1.0
  9
$MAXACTVP
 70
64
  9
$MEASUREMENT
 70
1
  9
$MIRRTEXT
 70
0
  9
$PDMODE
 70
0
  9
$PDSIZE
 40
0.0
  0
ENDSEC
  0
SECTION
  2
TABLES
  0
TABLE
  2
VPORT
  5
8
100
AcDbSymbolTable
 70
1
  0
VPORT
  5
30
100
AcDbSymbolTableRecord
100
AcDbViewportTableRecord
  2
*Active
 70
0
 10
0.0
 20
0.0
 11
1.0
 21
1.0
 12
286.3055555555554861
 22
148.5
 13
0.0
 23
0.0
 14
10.0
 24
10.0
 15
10.0
 25
10.0
 16
0.0
 26
0.0
 36
1.0
 17
0.0
 27
0.0
 37
0.0
 40
297.0
 41
1.92798353909465
 42
50.0
 43
0.0
 44
0.0
 50
0.0
 51
0.0
 71
0
 72
100
 73
1
 74
3
 75
1
 76
1
 77
0
 78
0
281
0
 65
1
110
0.0
120
0.0
130
0.0
111
1.0
121
0.0
131
0.0
112
0.0
122
1.0
132
0.0
 79
0
146
0.0
  0
ENDTAB
  0
TABLE
  2
LTYPE
  5
5
100
AcDbSymbolTable
 70
41
  0
LTYPE
  5
16
100
AcDbSymbolTableRecord
100
AcDbLinetypeTableRecord
  2
Continuous
 70
0
  3
Solid line
 72
65
 73
0
 40
0.0
  0
LTYPE
  5
31
100
AcDbSymbolTableRecord
100
AcDbLinetypeTableRecord
  2
PHANTOM2
 70
0
  3
Phantom (.5x) ___ _ _ ___ _ _ ___ _ _ ___ _ _
 72
65
 73
6
 40
31.7500000000000036
 49
15.875
 74
0
 49
-3.1749999999999998
 74
0
 49
3.1749999999999998
 74
0
 49
-3.1749999999999998
 74
0
 49
3.1749999999999998
 74
0
 49
-3.1749999999999998
 74
0
  0
LTYPE
  5
32
100
AcDbSymbolTableRecord
100
AcDbLinetypeTableRecord
  2
BORDERX2
 70
0
  3
Border (2x) ____  ____  .  ____  ____  .  ___
 72
65
 73
6
 40
88.8999999999999915
 49
25.3999999999999986
 74
0
 49
-12.6999999999999993
 74
0
 49
25.3999999999999986
 74
0
 49
-12.6999999999999993
 74
0
 49
0.0
 74
0
 49
-12.6999999999999993
 74
0
  0
LTYPE
  5
33
100
AcDbSymbolTableRecord
100
AcDbLinetypeTableRecord
  2
DASHDOTX2
 70
0
  3
Dash dot (2x) ____  .  ____  .  ____  .  ___
 72
65
 73
4
 40
50.7999999999999972
 49
25.3999999999999986
 74
0
 49
-12.6999999999999993
 74
0
 49
0.0
 74
0
 49
-12.6999999999999993
 74
0
  0
LTYPE
  5
34
100
AcDbSymbolTableRecord
100
AcDbLinetypeTableRecord
  2
ACAD_ISO08W100
 70
0
  3
ISO long-dash short-dash ____ __ ____ __ ____ _
 72
65
 73
4
 40
36.0
 49
24.0
 74
0
 49
-3.0
 74
0
 49
6.0
 74
0
 49
-3.0
 74
0
  0
LTYPE
  5
35
100
AcDbSymbolTableRecord
100
AcDbLinetypeTableRecord
  2
CENTER2
 70
0
  3
Center (.5x) ___ _ ___ _ ___ _ ___ _ ___ _ ___
 72
65
 73
4
 40
28.5750000000000028
 49
19.0500000000000007
 74
0
 49
-3.1749999999999998
 74
0
 49
3.1749999999999998
 74
0
 49
-3.1749999999999998
 74
0
  0
LTYPE
  5
36
100
AcDbSymbolTableRecord
100
AcDbLinetypeTableRecord
  2
BORDER
 70
0
  3
Border __ __ . __ __ . __ __ . __ __ . __ __ .
 72
65
 73
6
 40
44.4499999999999957
 49
12.6999999999999993
 74
0
 49
-6.3499999999999996
 74
0
 49
12.6999999999999993
 74
0
 49
-6.3499999999999996
 74
0
 49
0.0
 74
0
 49
-6.3499999999999996
 74
0
  0
LTYPE
  5
37
100
AcDbSymbolTableRecord
100
AcDbLinetypeTableRecord
  2
DASHDOT
 70
0
  3
Dash dot __ . __ . __ . __ . __ . __ . __ . __
 72
65
 73
4
 40
25.3999999999999986
 49
12.6999999999999993
 74
0
 49
-6.3499999999999996
 74
0
 49
0.0
 74
0
 49
-6.3499999999999996
 74
0
  0
LTYPE
  5
38
100
AcDbSymbolTableRecord
100
AcDbLinetypeTableRecord
  2
DIVIDEX2
 70
0
  3
Divide (2x) ________  .  .  ________  .  .  _
 72
65
 73
6
 40
63.5
 49
25.3999999999999986
 74
0
 49
-12.6999999999999993
 74
0
 49
0.0
 74
0
 49
-12.6999999999999993
 74
0
 49
0.0
 74
0
 49
-12.6999999999999993
 74
0
  0
LTYPE
  5
39
100
AcDbSymbolTableRecord
100
AcDbLinetypeTableRecord
  2
ACAD_ISO02W100
 70
0
  3
ISO dash __ __ __ __ __ __ __ __ __ __ __ __ __
 72
65
 73
2
 40
15.0
 49
12.0
 74
0
 49
-3.0
 74
0
  0
LTYPE
  5
3A
100
AcDbSymbolTableRecord
100
AcDbLinetypeTableRecord
  2
DASHDOT2
 70
0
  3
Dash dot (.5x) _._._._._._._._._._._._._._._.
 72
65
 73
4
 40
12.6999999999999993
 49
6.3499999999999996
 74
0
 49
-3.1749999999999998
 74
0
 49
0.0
 74
0
 49
-3.1749999999999998
 74
0
  0
LTYPE
  5
3B
100
AcDbSymbolTableRecord
100
AcDbLinetypeTableRecord
  2
DOT
 70
0
  3
Dot . . . . . . . . . . . . . . . . . . . . . . . .
 72
65
 73
2
 40
6.3499999999999996
 49
0.0
 74
0
 49
-6.3499999999999996
 74
0
  0
LTYPE
  5
3C
100
AcDbSymbolTableRecord
100
AcDbLinetypeTableRecord
  2
DIVIDE
 70
0
  3
Divide ____ . . ____ . . ____ . . ____ . . ____
 72
65
 73
6
 40
31.75
 49
12.6999999999999993
 74
0
 49
-6.3499999999999996
 74
0
 49
0.0
 74
0
 49
-6.3499999999999996
 74
0
 49
0.0
 74
0
 49
-6.3499999999999996
 74
0
  0
LTYPE
  5
3D
100
AcDbSymbolTableRecord
100
AcDbLinetypeTableRecord
  2
DOT2
 70
0
  3
Dot (.5x) ........................................
 72
65
 73
2
 40
3.1749999999999998
 49
0.0
 74
0
 49
-3.1749999999999998
 74
0
  0
LTYPE
  5
3E
100
AcDbSymbolTableRecord
100
AcDbLinetypeTableRecord
  2
ACAD_ISO09W100
 70
0
  3
ISO long-dash double-short-dash ____ __ __ ____
 72
65
 73
6
 40
45.0
 49
24.0
 74
0
 49
-3.0
 74
0
 49
6.0
 74
0
 49
-3.0
 74
0
 49
6.0
 74
0
 49
-3.0
 74
0
  0
LTYPE
  5
3F
100
AcDbSymbolTableRecord
100
AcDbLinetypeTableRecord
  2
HIDDENX2
 70
0
  3
Hidden (2x) ____ ____ ____ ____ ____ ____ ____ 
 72
65
 73
2
 40
19.0499999999999972
 49
12.6999999999999993
 74
0
 49
-6.3499999999999996
 74
0
  0
LTYPE
  5
40
100
AcDbSymbolTableRecord
100
AcDbLinetypeTableRecord
  2
DASHED
 70
0
  3
Dashed __ __ __ __ __ __ __ __ __ __ __ __ __ _
 72
65
 73
2
 40
19.0499999999999972
 49
12.6999999999999993
 74
0
 49
-6.3499999999999996
 74
0
  0
LTYPE
  5
41
100
AcDbSymbolTableRecord
100
AcDbLinetypeTableRecord
  2
HIDDEN2
 70
0
  3
Hidden (.5x) _ _ _ _ _ _ _ _ _ _ _ _ _ _ _ _ _ 
 72
65
 73
2
 40
4.7624999999999993
 49
3.1749999999999998
 74
0
 49
-1.5874999999999999
 74
0
  0
LTYPE
  5
14
100
AcDbSymbolTableRecord
100
AcDbLinetypeTableRecord
  2
BYBLOCK
 70
0
  3

 72
65
 73
0
 40
0.0
  0
LTYPE
  5
42
100
AcDbSymbolTableRecord
100
AcDbLinetypeTableRecord
  2
CENTER
 70
0
  3
Center ____ _ ____ _ ____ _ ____ _ ____ _ ____
 72
65
 73
4
 40
50.8000000000000043
 49
31.75
 74
0
 49
-6.3499999999999996
 74
0
 49
6.3499999999999996
 74
0
 49
-6.3499999999999996
 74
0
  0
LTYPE
  5
43
100
AcDbSymbolTableRecord
100
AcDbLinetypeTableRecord
  2
CENTERX2
 70
0
  3
Center (2x) ________  __  ________  __  _____
 72
65
 73
4
 40
101.6000000000000085
 49
63.5
 74
0
 49
-12.6999999999999993
 74
0
 49
12.6999999999999993
 74
0
 49
-12.6999999999999993
 74
0
  0
LTYPE
  5
44
100
AcDbSymbolTableRecord
100
AcDbLinetypeTableRecord
  2
ACAD_ISO06W100
 70
0
  3
ISO long-dash triple-dot ____ ... ____ ... ____
 72
65
 73
8
 40
36.0
 49
24.0
 74
0
 49
-3.0
 74
0
 49
0.0
 74
0
 49
-3.0
 74
0
 49
0.0
 74
0
 49
-3.0
 74
0
 49
0.0
 74
0
 49
-3.0
 74
0
  0
LTYPE
  5
45
100
AcDbSymbolTableRecord
100
AcDbLinetypeTableRecord
  2
DASHED2
 70
0
  3
Dashed (.5x) _ _ _ _ _ _ _ _ _ _ _ _ _ _ _ _ _ 
 72
65
 73
2
 40
9.5249999999999986
 49
6.3499999999999996
 74
0
 49
-3.1749999999999998
 74
0
  0
LTYPE
  5
46
100
AcDbSymbolTableRecord
100
AcDbLinetypeTableRecord
  2
ACAD_ISO11W100
 70
0
  3
ISO double-dash dot __ __ . __ __ . __ __ . __ _
 72
65
 73
6
 40
33.0
 49
12.0
 74
0
 49
-3.0
 74
0
 49
12.0
 74
0
 49
-3.0
 74
0
 49
0.0
 74
0
 49
-3.0
 74
0
  0
LTYPE
  5
47
100
AcDbSymbolTableRecord
100
AcDbLinetypeTableRecord
  2
ACAD_ISO12W100
 70
0
  3
ISO dash double-dot __ . . __ . . __ . . __ . . 
 72
65
 73
6
 40
21.0
 49
12.0
 74
0
 49
-3.0
 74
0
 49
0.0
 74
0
 49
-3.0
 74
0
 49
0.0
 74
0
 49
-3.0
 74
0
  0
LTYPE
  5
48
100
AcDbSymbolTableRecord
100
AcDbLinetypeTableRecord
  2
ACAD_ISO03W100
 70
0
  3
ISO dash space __    __    __    __    __    __
 72
65
 73
2
 40
30.0
 49
12.0
 74
0
 49
-18.0
 74
0
  0
LTYPE
  5
49
100
AcDbSymbolTableRecord
100
AcDbLinetypeTableRecord
  2
PHANTOM
 70
0
  3
Phantom ______  __  __  ______  __  __  ______ 
 72
65
 73
6
 40
63.5000000000000071
 49
31.75
 74
0
 49
-6.3499999999999996
 74
0
 49
6.3499999999999996
 74
0
 49
-6.3499999999999996
 74
0
 49
6.3499999999999996
 74
0
 49
-6.3499999999999996
 74
0
  0
LTYPE
  5
4A
100
AcDbSymbolTableRecord
100
AcDbLinetypeTableRecord
  2
ACAD_ISO05W100
 70
0
  3
ISO long-dash double-dot ____ .. ____ .. ____ . 
 72
65
 73
6
 40
33.0
 49
24.0
 74
0
 49
-3.0
 74
0
 49
0.0
 74
0
 49
-3.0
 74
0
 49
0.0
 74
0
 49
-3.0
 74
0
  0
LTYPE
  5
4B
100
AcDbSymbolTableRecord
100
AcDbLinetypeTableRecord
  2
DASHEDX2
 70
0
  3
Dashed (2x) ____  ____  ____  ____  ____  ___
 72
65
 73
2
 40
38.0999999999999943
 49
25.3999999999999986
 74
0
 49
-12.6999999999999993
 74
0
  0
LTYPE
  5
4C
100
AcDbSymbolTableRecord
100
AcDbLinetypeTableRecord
  2
ACAD_ISO07W100
 70
0
  3
ISO dot . . . . . . . . . . . . . . . . . . . . 
 72
65
 73
2
 40
3.0
 49
0.0
 74
0
 49
-3.0
 74
0
  0
LTYPE
  5
4D
100
AcDbSymbolTableRecord
100
AcDbLinetypeTableRecord
  2
PHANTOMX2
 70
0
  3
Phantom (2x) ____________    ____    ____   _
 72
65
 73
6
 40
127.0000000000000142
 49
63.5
 74
0
 49
-12.6999999999999993
 74
0
 49
12.6999999999999993
 74
0
 49
-12.6999999999999993
 74
0
 49
12.6999999999999993
 74
0
 49
-12.6999999999999993
 74
0
  0
LTYPE
  5
4E
100
AcDbSymbolTableRecord
100
AcDbLinetypeTableRecord
  2
ACAD_ISO14W100
 70
0
  3
ISO dash triple-dot __ . . . __ . . . __ . . . _
 72
65
 73
8
 40
24.0
 49
12.0
 74
0
 49
-3.0
 74
0
 49
0.0
 74
0
 49
-3.0
 74
0
 49
0.0
 74
0
 49
-3.0
 74
0
 49
0.0
 74
0
 49
-3.0
 74
0
  0
LTYPE
  5
4F
100
AcDbSymbolTableRecord
100
AcDbLinetypeTableRecord
  2
ACAD_ISO10W100
 70
0
  3
ISO dash dot __ . __ . __ . __ . __ . __ . __ . 
 72
65
 73
4
 40
18.0
 49
12.0
 74
0
 49
-3.0
 74
0
 49
0.0
 74
0
 49
-3.0
 74
0
  0
LTYPE
  5
50
100
AcDbSymbolTableRecord
100
AcDbLinetypeTableRecord
  2
BORDER2
 70
0
  3
Border (.5x) __.__.__.__.__.__.__.__.__.__.__.
 72
65
 73
6
 40
22.2249999999999979
 49
6.3499999999999996
 74
0
 49
-3.1749999999999998
 74
0
 49
6.3499999999999996
 74
0
 49
-3.1749999999999998
 74
0
 49
0.0
 74
0
 49
-3.1749999999999998
 74
0
  0
LTYPE
  5
15
100
AcDbSymbolTableRecord
100
AcDbLinetypeTableRecord
  2
BYLAYER
 70
0
  3

 72
65
 73
0
 40
0.0
  0
LTYPE
  5
51
100
AcDbSymbolTableRecord
100
AcDbLinetypeTableRecord
  2
ACAD_ISO15W100
 70
0
  3
ISO double-dash triple-dot __ __ . . . __ __ . .
 72
65
 73
10
 40
39.0
 49
12.0
 74
0
 49
-3.0
 74
0
 49
12.0
 74
0
 49
-3.0
 74
0
 49
0.0
 74
0
 49
-3.0
 74
0
 49
0.0
 74
0
 49
-3.0
 74
0
 49
0.0
 74
0
 49
-3.0
 74
0
  0
LTYPE
  5
52
100
AcDbSymbolTableRecord
100
AcDbLinetypeTableRecord
  2
ACAD_ISO13W100
 70
0
  3
ISO double-dash double-dot __ __ . . __ __ . . _
 72
65
 73
8
 40
36.0
 49
12.0
 74
0
 49
-3.0
 74
0
 49
12.0
 74
0
 49
-3.0
 74
0
 49
0.0
 74
0
 49
-3.0
 74
0
 49
0.0
 74
0
 49
-3.0
 74
0
  0
LTYPE
  5
53
100
AcDbSymbolTableRecord
100
AcDbLinetypeTableRecord
  2
HIDDEN
 70
0
  3
Hidden __ __ __ __ __ __ __ __ __ __ __ __ __ __
 72
65
 73
2
 40
9.5249999999999986
 49
6.3499999999999996
 74
0
 49
-3.1749999999999998
 74
0
  0
LTYPE
  5
54
100
AcDbSymbolTableRecord
100
AcDbLinetypeTableRecord
  2
DOTX2
 70
0
  3
Dot (2x) .  .  .  .  .  .  .  .  .  .  .  .  .  .
 72
65
 73
2
 40
12.6999999999999993
 49
0.0
 74
0
 49
-12.6999999999999993
 74
0
  0
LTYPE
  5
55
100
AcDbSymbolTableRecord
100
AcDbLinetypeTableRecord
  2
DIVIDE2
 70
0
  3
Divide (.5x) __..__..__..__..__..__..__..__.._
 72
65
 73
6
 40
15.875
 49
6.3499999999999996
 74
0
 49
-3.1749999999999998
 74
0
 49
0.0
 74
0
 49
-3.1749999999999998
 74
0
 49
0.0
 74
0
 49
-3.1749999999999998
 74
0
  0
LTYPE
  5
56
100
AcDbSymbolTableRecord
100
AcDbLinetypeTableRecord
  2
ACAD_ISO04W100
 70
0
  3
ISO long-dash dot ____ . ____ . ____ . ____ . _
 72
65
 73
4
 40
30.0
 49
24.0
 74
0
 49
-3.0
 74
0
 49
0.0
 74
0
 49
-3.0
 74
0
  0
ENDTAB
  0
TABLE
  2
LAYER
  5
2
100
AcDbSymbolTable
 70
1
  0
LAYER
  5
10
100
AcDbSymbolTableRecord
100
AcDbLayerTableRecord
  2
0
 70
0
 62
7
420
16777215
  6
Continuous
370
25
390
F
  0
ENDTAB
  0
TABLE
  2
STYLE
  5
3
100
AcDbSymbolTable
 70
1
  0
STYLE
  5
57
100
AcDbSymbolTableRecord
100
AcDbTextStyleTableRecord
  2
Standard
 70
0
 40
0.0
 41
1.0
 50
0.0
 71
0
 42
2.5
  3

  4

1001
ACAD
1000
txt
1071
0
  0
ENDTAB
  0
TABLE
  2
VIEW
  5
6
100
AcDbSymbolTable
 70
0
  0
ENDTAB
  0
TABLE
  2
UCS
  5
7
100
AcDbSymbolTable
 70
0
  0
ENDTAB
  0
TABLE
  2
APPID
  5
9
100
AcDbSymbolTable
 70
1
  0
APPID
  5
12
100
AcDbSymbolTableRecord
100
AcDbRegAppTableRecord
  2
ACAD
 70
0
  0
APPID
  5
58
100
AcDbSymbolTableRecord
100
AcDbRegAppTableRecord
  2
QCAD
 70
0
  0
ENDTAB
  0
TABLE
  2
DIMSTYLE
  5
A
100
AcDbSymbolTable
 70
1
100
AcDbDimStyleTable
 71
0
  0
DIMSTYLE
105
27
100
AcDbSymbolTableRecord
100
AcDbDimStyleTableRecord
  2
Standard
 41
2.5
 42
0.625
 43
3.75
 44
1.25
 70
0
 73
0
 74
0
 77
1
 78
8
140
2.5
141
2.5
143
0.03937007874016
147
0.625
171
3
172
1
271
2
272
2
274
3
278
44
283
0
284
8
340
57
  0
ENDTAB
  0
TABLE
  2
BLOCK_RECORD
  5
1
100
AcDbSymbolTable
 70
1
  0
BLOCK_RECORD
  5
1F
100
AcDbSymbolTableRecord
100
AcDbBlockTableRecord
  2
*Model_Space
340
22
  0
BLOCK_RECORD
  5
1B
100
AcDbSymbolTableRecord
100
AcDbBlockTableRecord
  2
*Paper_Space
340
1E
  0
BLOCK_RECORD
  5
23
100
AcDbSymbolTableRecord
100
AcDbBlockTableRecord
  2
*Paper_Space0
340
26
  0
ENDTAB
  0
ENDSEC
  0
SECTION
  2
BLOCKS
  0
BLOCK
  5
20
100
AcDbEntity
  8
0
100
AcDbBlockBegin
  2
*Model_Space
 70
0
 10
0.0
 20
0.0
 30
0.0
  3
*Model_Space
  1

  0
ENDBLK
  5
21
100
AcDbEntity
  8
0
100
AcDbBlockEnd
  0
BLOCK
  5
1C
100
AcDbEntity
 67
1
  8
0
100
AcDbBlockBegin
  2
*Paper_Space
 70
0
 10
0.0
 20
0.0
 30
0.0
  3
*Paper_Space
  1

  0
ENDBLK
  5
1D
100
AcDbEntity
 67
1
  8
0
100
AcDbBlockEnd
  0
BLOCK
  5
24
100
AcDbEntity
  8
0
100
AcDbBlockBegin
  2
*Paper_Space0
 70
0
 10
0.0
 20
0.0
 30
0.0
  3
*Paper_Space0
  1

  0
ENDBLK
  5
25
100
AcDbEntity
  8
0
100
AcDbBlockEnd
  0
ENDSEC
  0
SECTION
  2
ENTITIES
  0
LINE
  5
59
100
AcDbEntity
  8
0
 62
256
370
-1
 48
1.0
  6
BYLAYER
100
AcDbLine
 10
0.0
 20
0.0
 30
0.0
 11
285.75
 21
0.0
 31
0.0
  0
LINE
  5
5A
100
AcDbEntity
  8
0
 62
256
370
-1
 48
1.0
  6
BYLAYER
100
AcDbLine
 10
285.75
 20
0.0
 30
0.0
 11
285.75
 21
95.25
 31
0.0
  0
LINE
  5
5B
100
AcDbEntity
  8
0
 62
256
370
-1
 48
1.0
  6
BYLAYER
100
AcDbLine
 10
285.75
 20
95.25
 30
0.0
 11
0.0
 21
95.25
 31
0.0
  0
LINE
  5
5C
100
AcDbEntity
  8
0
 62
256
370
-1
 48
1.0
  6
BYLAYER
100
AcDbLine
 10
0.0
 20
95.25
 30
0.0
 11
0.0
 21
0.0
 31
0.0
  0
LINE
  5
5D
100
AcDbEntity
  8
0
 62
256
370
-1
 48
1.0
  6
BYLAYER
100
AcDbLine
 10
2.5249999999999999
 20
92.7249999999999943
 30
0.0
 11
16.5249999999999986
 21
92.7249999999999943
 31
0.0
  0
LINE
  5
5E
100
AcDbEntity
  8
0
 62
256
370
-1
 48
1.0
  6
BYLAYER
100
AcDbLine
 10
21.5750000000000028
 20
92.7249999999999943
 30
0.0
 11
35.5750000000000028
 21
92.7249999999999943
 31
0.0
  0
LINE
  5
5F
100
AcDbEntity
  8
0
 62
256
370
-1
 48
1.0
  6
BYLAYER
100
AcDbLine
 10
40.625
 20
92.7249999999999943
 30
0.0
 11
54.625
 21
92.7249999999999943
 31
0.0
  0
LINE
  5
60
100
AcDbEntity
  8
0
 62
256
370
-1
 48
1.0
  6
BYLAYER
100
AcDbLine
 10
59.6749999999999972
 20
92.7249999999999943
 30
0.0
 11
73.6749999999999972
 21
92.7249999999999943
 31
0.0
  0
LINE
  5
61
100
AcDbEntity
  8
0
 62
256
370
-1
 48
1.0
  6
BYLAYER
100
AcDbLine
 10
78.7249999999999943
 20
92.7249999999999943
 30
0.0
 11
92.7249999999999943
 21
92.7249999999999943
 31
0.0
  0
LINE
  5
62
100
AcDbEntity
  8
0
 62
256
370
-1
 48
1.0
  6
BYLAYER
100
AcDbLine
 10
97.7750000000000057
 20
92.7249999999999943
 30
0.0
 11
111.7750000000000057
 21
92.7249999999999943
 31
0.0
  0
LINE
  5
63
100
AcDbEntity
  8
0
 62
256
370
-1
 48
1.0
  6
BYLAYER
100
AcDbLine
 10
116.8249999999999886
 20
92.7249999999999943
 30
0.0
 11
130.8249999999999886
 21
92.7249999999999943
 31
0.0
  0
LINE
  5
64
100
AcDbEntity
  8
0
 62
256
370
-1
 48
1.0
  6
BYLAYER
100
AcDbLine
 10
135.875
 20
92.7249999999999943
 30
0.0
 11
149.875
 21
92.7249999999999943
 31
0.0
  0
LINE
  5
65
100
AcDbEntity
  8
0
 62
256
370
-1
 48
1.0
  6
BYLAYER
100
AcDbLine
 10
154.9250000000000114
 20
92.7249999999999943
 30
0.0
 11
168.9249999999999829
 21
92.7249999999999943
 31
0.0
  0
LINE
  5
66
100
AcDbEntity
  8
0
 62
256
370
-1
 48
1.0
  6
BYLAYER
100
AcDbLine
 10
173.9749999999999943
 20
92.7249999999999943
 30
0.0
 11
187.9749999999999943
 21
92.7249999999999943
 31
0.0
  0
LINE
  5
67
100
AcDbEntity
  8
0
 62
256
370
-1
 48
1.0
  6
BYLAYER
100
AcDbLine
 10
193.0249999999999773
 20
92.7249999999999943
 30
0.0
 11
207.0249999999999773
 21
92.7249999999999943
 31
0.0
  0
LINE
  5
68
100
AcDbEntity
  8
0
 62
256
370
-1
 48
1.0
  6
BYLAYER
100
AcDbLine
 10
212.0749999999999886
 20
92.7249999999999943
 30
0.0
 11
226.0749999999999886
 21
92.7249999999999943
 31
0.0
  0
LINE
  5
69
100
AcDbEntity
  8
0
 62
256
370
-1
 48
1.0
  6
BYLAYER
100
AcDbLine
 10
231.125
 20
92.7249999999999943
 30
0.0
 11
245.125
 21
92.7249999999999943
 31
0.0
  0
LINE
  5
6A
100
AcDbEntity
  8
0
 62
256
370
-1
 48
1.0
  6
BYLAYER
100
AcDbLine
 10
7.2874999999999996
 20
73.6749999999999829
 30
0.0
 11
21.2875000000000014
 21
73.6749999999999829
 31
0.0
  0
LINE
  5
6B
100
AcDbEntity
  8
0
 62
256
370
-1
 48
1.0
  6
BYLAYER
100
AcDbLine
 10
31.1000000000000014
 20
73.6749999999999829
 30
0.0
 11
45.1000000000000014
 21
73.6749999999999829
 31
0.0
  0
LINE
  5
6C
100
AcDbEntity
  8
0
 62
256
370
-1
 48
1.0
  6
BYLAYER
100
AcDbLine
 10
50.1499999999999986
 20
73.6749999999999829
 30
0.0
 11
64.1500000000000057
 21
73.6749999999999829
 31
0.0
  0
LINE
  5
6D
100
AcDbEntity
  8
0
 62
256
370
-1
 48
1.0
  6
BYLAYER
100
AcDbLine
 10
69.1999999999999886
 20
73.6749999999999829
 30
0.0
 11
83.1999999999999886
 21
73.6749999999999829
 31
0.0
  0
LINE
  5
6E
100
AcDbEntity
  8
0
 62
256
370
-1
 48
1.0
  6
BYLAYER
100
AcDbLine
 10
88.25
 20
73.6749999999999829
 30
0.0
 11
102.25
 21
73.6749999999999829
 31
0.0
  0
LINE
  5
6F
100
AcDbEntity
  8
0
 62
256
370
-1
 48
1.0
  6
BYLAYER
100
AcDbLine
 10
107.3000000000000114
 20
73.6749999999999829
 30
0.0
 11
121.3000000000000114
 21
73.6749999999999829
 31
0.0
  0
LINE
  5
70
100
AcDbEntity
  8
0
 62
256
370
-1
 48
1.0
  6
BYLAYER
100
AcDbLine
 10
126.3499999999999943
 20
73.6749999999999829
 30
0.0
 11
140.3499999999999943
 21
73.6749999999999829
 31
0.0
  0
LINE
  5
71
100
AcDbEntity
  8
0
 62
256
370
-1
 48
1.0
  6
BYLAYER
100
AcDbLine
 10
145.4000000000000057
 20
73.6749999999999829
 30
0.0
 11
159.4000000000000057
 21
73.6749999999999829
 31
0.0
  0
LINE
  5
72
100
AcDbEntity
  8
0
 62
256
370
-1
 48
1.0
  6
BYLAYER
100
AcDbLine
 10
164.4500000000000171
 20
73.6749999999999829
 30
0.0
 11
178.4499999999999886
 21
73.6749999999999829
 31
0.0
  0
LINE
  5
73
100
AcDbEntity
  8
0
 62
256
370
-1
 48
1.0
  6
BYLAYER
100
AcDbLine
 10
183.5
 20
73.6749999999999829
 30
0.0
 11
197.5
 21
73.6749999999999829
 31
0.0
  0
LINE
  5
74
100
AcDbEntity
  8
0
 62
256
370
-1
 48
1.0
  6
BYLAYER
100
AcDbLine
 10
202.5499999999999829
 20
73.6749999999999829
 30
0.0
 11
216.5499999999999829
 21
73.6749999999999829
 31
0.0
  0
LINE
  5
75
100
AcDbEntity
  8
0
 62
256
370
-1
 48
1.0
  6
BYLAYER
100
AcDbLine
 10
221.5999999999999943
 20
73.6749999999999829
 30
0.0
 11
235.5999999999999943
 21
73.6749999999999829
 31
0.0
  0
LINE
  5
76
100
AcDbEntity
  8
0
 62
256
370
-1
 48
1.0
  6
BYLAYER
100
AcDbLine
 10
240.6500000000000057
 20
73.6749999999999829
 30
0.0
 11
254.6500000000000057
 21
73.6749999999999829
 31
0.0
  0
LINE
  5
77
100
AcDbEntity
  8
0
 62
256
370
-1
 48
1.0
  6
BYLAYER
100
AcDbLine
 10
264.4624999999999773
 20
73.6749999999999829
 30
0.0
 11
278.4624999999999773
 21
73.6749999999999829
 31
0.0
  0
LINE
  5
78
100
AcDbEntity
  8
0
 62
256
370
-1
 48
1.0
  6
BYLAYER
100
AcDbLine
 10
9.6687499999999993
 20
54.625
 30
0.0
 11
23.6687499999999993
 21
54.625
 31
0.0
  0
LINE
  5
79
100
AcDbEntity
  8
0
 62
256
370
-1
 48
1.0
  6
BYLAYER
100
AcDbLine
 10
35.8624999999999901
 20
54.625
 30
0.0
 11
49.8624999999999901
 21
54.625
 31
0.0
  0
LINE
  5
7A
100
AcDbEntity
  8
0
 62
256
370
-1
 48
1.0
  6
BYLAYER
100
AcDbLine
 10
54.9124999999999872
 20
54.625
 30
0.0
 11
68.9124999999999943
 21
54.625
 31
0.0
  0
LINE
  5
7B
100
AcDbEntity
  8
0
 62
256
370
-1
 48
1.0
  6
BYLAYER
100
AcDbLine
 10
73.9624999999999773
 20
54.625
 30
0.0
 11
87.9624999999999773
 21
54.625
 31
0.0
  0
LINE
  5
7C
100
AcDbEntity
  8
0
 62
256
370
-1
 48
1.0
  6
BYLAYER
100
AcDbLine
 10
93.0124999999999886
 20
54.625
 30
0.0
 11
107.0124999999999886
 21
54.625
 31
0.0
  0
LINE
  5
7D
100
AcDbEntity
  8
0
 62
256
370
-1
 48
1.0
  6
BYLAYER
100
AcDbLine
 10
112.0624999999999716
 20
54.625
 30
0.0
 11
126.0624999999999716
 21
54.625
 31
0.0
  0
LINE
  5
7E
100
AcDbEntity
  8
0
 62
256
370
-1
 48
1.0
  6
BYLAYER
100
AcDbLine
 10
131.1124999999999829
 20
54.625
 30
0.0
 11
145.1124999999999829
 21
54.625
 31
0.0
  0
LINE
  5
7F
100
AcDbEntity
  8
0
 62
256
370
-1
 48
1.0
  6
BYLAYER
100
AcDbLine
 10
150.1624999999999943
 20
54.625
 30
0.0
 11
164.1624999999999659
 21
54.625
 31
0.0
  0
LINE
  5
80
100
AcDbEntity
  8
0
 62
256
370
-1
 48
1.0
  6
BYLAYER
100
AcDbLine
 10
169.2124999999999773
 20
54.625
 30
0.0
 11
183.2124999999999773
 21
54.625
 31
0.0
  0
LINE
  5
81
100
AcDbEntity
  8
0
 62
256
370
-1
 48
1.0
  6
BYLAYER
100
AcDbLine
 10
188.2624999999999602
 20
54.625
 30
0.0
 11
202.2624999999999602
 21
54.625
 31
0.0
  0
LINE
  5
82
100
AcDbEntity
  8
0
 62
256
370
-1
 48
1.0
  6
BYLAYER
100
AcDbLine
 10
207.3124999999999716
 20
54.625
 30
0.0
 11
221.3124999999999716
 21
54.625
 31
0.0
  0
LINE
  5
83
100
AcDbEntity
  8
0
 62
256
370
-1
 48
1.0
  6
BYLAYER
100
AcDbLine
 10
226.3624999999999829
 20
54.625
 30
0.0
 11
240.3624999999999829
 21
54.625
 31
0.0
  0
LINE
  5
84
100
AcDbEntity
  8
0
 62
256
370
-1
 48
1.0
  6
BYLAYER
100
AcDbLine
 10
40.6250000000000284
 20
35.5750000000000028
 30
0.0
 11
54.6250000000000284
 21
35.5750000000000028
 31
0.0
  0
LINE
  5
85
100
AcDbEntity
  8
0
 62
256
370
-1
 48
1.0
  6
BYLAYER
100
AcDbLine
 10
59.6750000000000256
 20
35.5750000000000028
 30
0.0
 11
73.6750000000000256
 21
35.5750000000000028
 31
0.0
  0
LINE
  5
86
100
AcDbEntity
  8
0
 62
256
370
-1
 48
1.0
  6
BYLAYER
100
AcDbLine
 10
78.7250000000000227
 20
35.5750000000000028
 30
0.0
 11
92.7250000000000227
 21
35.5750000000000028
 31
0.0
  0
LINE
  5
87
100
AcDbEntity
  8
0
 62
256
370
-1
 48
1.0
  6
BYLAYER
100
AcDbLine
 10
97.7750000000000341
 20
35.5750000000000028
 30
0.0
 11
111.7750000000000341
 21
35.5750000000000028
 31
0.0
  0
LINE
  5
88
100
AcDbEntity
  8
0
 62
256
370
-1
 48
1.0
  6
BYLAYER
100
AcDbLine
 10
116.8250000000000171
 20
35.5750000000000028
 30
0.0
 11
130.8250000000000171
 21
35.5750000000000028
 31
0.0
  0
LINE
  5
89
100
AcDbEntity
  8
0
 62
256
370
-1
 48
1.0
  6
BYLAYER
100
AcDbLine
 10
135.8750000000000284
 20
35.5750000000000028
 30
0.0
 11
149.8750000000000284
 21
35.5750000000000028
 31
0.0
  0
LINE
  5
8A
100
AcDbEntity
  8
0
 62
256
370
-1
 48
1.0
  6
BYLAYER
100
AcDbLine
 10
154.9250000000000398
 20
35.5750000000000028
 30
0.0
 11
168.9250000000000114
 21
35.5750000000000028
 31
0.0
  0
LINE
  5
8B
100
AcDbEntity
  8
0
 62
256
370
-1
 48
1.0
  6
BYLAYER
100
AcDbLine
 10
173.9750000000000227
 20
35.5750000000000028
 30
0.0
 11
187.9750000000000227
 21
35.5750000000000028
 31
0.0
  0
LINE
  5
8C
100
AcDbEntity
  8
0
 62
256
370
-1
 48
1.0
  6
BYLAYER
100
AcDbLine
 10
193.0250000000000057
 20
35.5750000000000028
 30
0.0
 11
207.0250000000000057
 21
35.5750000000000028
 31
0.0
  0
LINE
  5
8D
100
AcDbEntity
  8
0
 62
256
370
-1
 48
1.0
  6
BYLAYER
100
AcDbLine
 10
212.0750000000000171
 20
35.5750000000000028
 30
0.0
 11
226.0750000000000171
 21
35.5750000000000028
 31
0.0
  0
LINE
  5
8E
100
AcDbEntity
  8
0
 62
256
370
-1
 48
1.0
  6
BYLAYER
100
AcDbLine
 10
231.1250000000000284
 20
35.5750000000000028
 30
0.0
 11
245.1250000000000284
 21
35.5750000000000028
 31
0.0
  0
LINE
  5
8F
100
AcDbEntity
  8
0
 62
256
370
-1
 48
1.0
  6
BYLAYER
100
AcDbLine
 10
250.1750000000000398
 20
35.5750000000000028
 30
0.0
 11
264.1750000000000682
 21
35.5750000000000028
 31
0.0
  0
LINE
  5
90
100
AcDbEntity
  8
0
 62
256
370
-1
 48
1.0
  6
BYLAYER
100
AcDbLine
 10
269.2250000000000227
 20
35.5750000000000028
 30
0.0
 11
283.2250000000000227
 21
35.5750000000000028
 31
0.0
  0
LINE
  5
91
100
AcDbEntity
  8
0
 62
256
370
-1
 48
1.0
  6
BYLAYER
100
AcDbLine
 10
4.90625
 20
16.5249999999999986
 30
0.0
 11
18.90625
 21
16.5249999999999986
 31
0.0
  0
LINE
  5
92
100
AcDbEntity
  8
0
 62
256
370
-1
 48
1.0
  6
BYLAYER
100
AcDbLine
 10
28.7187499999999964
 20
16.5249999999999986
 30
0.0
 11
42.71875
 21
16.5249999999999986
 31
0.0
  0
LINE
  5
93
100
AcDbEntity
  8
0
 62
256
370
-1
 48
1.0
  6
BYLAYER
100
AcDbLine
 10
52.53125
 20
16.5249999999999986
 30
0.0
 11
66.53125
 21
16.5249999999999986
 31
0.0
  0
LINE
  5
94
100
AcDbEntity
  8
0
 62
256
370
-1
 48
1.0
  6
BYLAYER
100
AcDbLine
 10
193.0250000000000057
 20
16.5249999999999986
 30
0.0
 11
207.0250000000000057
 21
16.5249999999999986
 31
0.0
  0
LINE
  5
95
100
AcDbEntity
  8
0
 62
256
370
-1
 48
1.0
  6
BYLAYER
100
AcDbLine
 10
212.0750000000000171
 20
16.5249999999999986
 30
0.0
 11
226.0750000000000171
 21
16.5249999999999986
 31
0.0
  0
LINE
  5
96
100
AcDbEntity
  8
0
 62
256
370
-1
 48
1.0
  6
BYLAYER
100
AcDbLine
 10
231.1250000000000284
 20
16.5249999999999986
 30
0.0
 11
245.1250000000000284
 21
16.5249999999999986
 31
0.0
  0
LINE
  5
97
100
AcDbEntity
  8
0
 62
256
370
-1
 48
1.0
  6
BYLAYER
100
AcDbLine
 10
250.1750000000000398
 20
16.5249999999999986
 30
0.0
 11
264.1750000000000682
 21
16.5249999999999986
 31
0.0
  0
LINE
  5
98
100
AcDbEntity
  8
0
 62
256
370
-1
 48
1.0
  6
BYLAYER
100
AcDbLine
 10
269.2250000000000227
 20
16.5249999999999986
 30
0.0
 11
283.2250000000000227
 21
16.5249999999999986
 31
0.0
  0
LINE
  5
99
100
AcDbEntity
  8
0
 62
256
370
-1
 48
1.0
  6
BYLAYER
100
AcDbLine
 10
16.5249999999999986
 20
92.7249999999999943
 30
0.0
 11
16.5249999999999986
 21
78.7249999999999943
 31
0.0
  0
LINE
  5
9A
100
AcDbEntity
  8
0
 62
256
370
-1
 48
1.0
  6
BYLAYER
100
AcDbLine
 10
35.5750000000000028
 20
92.7249999999999943
 30
0.0
 11
35.5750000000000028
 21
78.7249999999999943
 31
0.0
  0
LINE
  5
9B
100
AcDbEntity
  8
0
 62
256
370
-1
 48
1.0
  6
BYLAYER
100
AcDbLine
 10
54.625
 20
92.7249999999999943
 30
0.0
 11
54.625
 21
78.7249999999999943
 31
0.0
  0
LINE
  5
9C
100
AcDbEntity
  8
0
 62
256
370
-1
 48
1.0
  6
BYLAYER
100
AcDbLine
 10
73.6749999999999972
 20
92.7249999999999943
 30
0.0
 11
73.6749999999999972
 21
78.7249999999999943
 31
0.0
  0
LINE
  5
9D
100
AcDbEntity
  8
0
 62
256
370
-1
 48
1.0
  6
BYLAYER
100
AcDbLine
 10
92.7249999999999943
 20
92.7249999999999943
 30
0.0
 11
92.7249999999999943
 21
78.7249999999999943
 31
0.0
  0
LINE
  5
9E
100
AcDbEntity
  8
0
 62
256
370
-1
 48
1.0
  6
BYLAYER
100
AcDbLine
 10
111.7750000000000057
 20
92.7249999999999943
 30
0.0
 11
111.7750000000000057
 21
78.7249999999999943
 31
0.0
  0
LINE
  5
9F
100
AcDbEntity
  8
0
 62
256
370
-1
 48
1.0
  6
BYLAYER
100
AcDbLine
 10
130.8249999999999886
 20
92.7249999999999943
 30
0.0
 11
130.8249999999999886
 21
78.7249999999999943
 31
0.0
  0
LINE
  5
A0
100
AcDbEntity
  8
0
 62
256
370
-1
 48
1.0
  6
BYLAYER
100
AcDbLine
 10
149.875
 20
92.7249999999999943
 30
0.0
 11
149.875
 21
78.7249999999999943
 31
0.0
  0
LINE
  5
A1
100
AcDbEntity
  8
0
 62
256
370
-1
 48
1.0
  6
BYLAYER
100
AcDbLine
 10
168.9249999999999829
 20
92.7249999999999943
 30
0.0
 11
168.9249999999999829
 21
78.7249999999999943
 31
0.0
  0
LINE
  5
A2
100
AcDbEntity
  8
0
 62
256
370
-1
 48
1.0
  6
BYLAYER
100
AcDbLine
 10
187.9749999999999943
 20
92.7249999999999943
 30
0.0
 11
187.9749999999999943
 21
78.7249999999999943
 31
0.0
  0
LINE
  5
A3
100
AcDbEntity
  8
0
 62
256
370
-1
 48
1.0
  6
BYLAYER
100
AcDbLine
 10
207.0249999999999773
 20
92.7249999999999943
 30
0.0
 11
207.0249999999999773
 21
78.7249999999999943
 31
0.0
  0
LINE
  5
A4
100
AcDbEntity
  8
0
 62
256
370
-1
 48
1.0
  6
BYLAYER
100
AcDbLine
 10
226.0749999999999886
 20
92.7249999999999943
 30
0.0
 11
226.0749999999999886
 21
78.7249999999999943
 31
0.0
  0
LINE
  5
A5
100
AcDbEntity
  8
0
 62
256
370
-1
 48
1.0
  6
BYLAYER
100
AcDbLine
 10
245.125
 20
92.7249999999999943
 30
0.0
 11
245.125
 21
78.7249999999999943
 31
0.0
  0
LINE
  5
A6
100
AcDbEntity
  8
0
 62
256
370
-1
 48
1.0
  6
BYLAYER
100
AcDbLine
 10
21.2875000000000014
 20
73.6749999999999829
 30
0.0
 11
21.2875000000000014
 21
59.6749999999999829
 31
0.0
  0
LINE
  5
A7
100
AcDbEntity
  8
0
 62
256
370
-1
 48
1.0
  6
BYLAYER
100
AcDbLine
 10
45.1000000000000014
 20
73.6749999999999829
 30
0.0
 11
45.1000000000000014
 21
59.6749999999999829
 31
0.0
  0
LINE
  5
A8
100
AcDbEntity
  8
0
 62
256
370
-1
 48
1.0
  6
BYLAYER
100
AcDbLine
 10
64.1500000000000057
 20
73.6749999999999829
 30
0.0
 11
64.1500000000000057
 21
59.6749999999999829
 31
0.0
  0
LINE
  5
A9
100
AcDbEntity
  8
0
 62
256
370
-1
 48
1.0
  6
BYLAYER
100
AcDbLine
 10
83.1999999999999886
 20
73.6749999999999829
 30
0.0
 11
83.1999999999999886
 21
59.6749999999999829
 31
0.0
  0
LINE
  5
AA
100
AcDbEntity
  8
0
 62
256
370
-1
 48
1.0
  6
BYLAYER
100
AcDbLine
 10
102.25
 20
73.6749999999999829
 30
0.0
 11
102.25
 21
59.6749999999999829
 31
0.0
  0
LINE
  5
AB
100
AcDbEntity
  8
0
 62
256
370
-1
 48
1.0
  6
BYLAYER
100
AcDbLine
 10
121.3000000000000114
 20
73.6749999999999829
 30
0.0
 11
121.3000000000000114
 21
59.6749999999999829
 31
0.0
  0
LINE
  5
AC
100
AcDbEntity
  8
0
 62
256
370
-1
 48
1.0
  6
BYLAYER
100
AcDbLine
 10
140.3499999999999943
 20
73.6749999999999829
 30
0.0
 11
140.3499999999999943
 21
59.6749999999999829
 31
0.0
  0
LINE
  5
AD
100
AcDbEntity
  8
0
 62
256
370
-1
 48
1.0
  6
BYLAYER
100
AcDbLine
 10
159.4000000000000057
 20
73.6749999999999829
 30
0.0
 11
159.4000000000000057
 21
59.6749999999999829
 31
0.0
  0
LINE
  5
AE
100
AcDbEntity
  8
0
 62
256
370
-1
 48
1.0
  6
BYLAYER
100
AcDbLine
 10
178.4499999999999886
 20
73.6749999999999829
 30
0.0
 11
178.4499999999999886
 21
59.6749999999999829
 31
0.0
  0
LINE
  5
AF
100
AcDbEntity
  8
0
 62
256
370
-1
 48
1.0
  6
BYLAYER
100
AcDbLine
 10
197.5
 20
73.6749999999999829
 30
0.0
 11
197.5
 21
59.6749999999999829
 31
0.0
  0
LINE
  5
B0
100
AcDbEntity
  8
0
 62
256
370
-1
 48
1.0
  6
BYLAYER
100
AcDbLine
 10
216.5499999999999829
 20
73.6749999999999829
 30
0.0
 11
216.5499999999999829
 21
59.6749999999999829
 31
0.0
  0
LINE
  5
B1
100
AcDbEntity
  8
0
 62
256
370
-1
 48
1.0
  6
BYLAYER
100
AcDbLine
 10
235.5999999999999943
 20
73.6749999999999829
 30
0.0
 11
235.5999999999999943
 21
59.6749999999999829
 31
0.0
  0
LINE
  5
B2
100
AcDbEntity
  8
0
 62
256
370
-1
 48
1.0
  6
BYLAYER
100
AcDbLine
 10
254.6500000000000057
 20
73.6749999999999829
 30
0.0
 11
254.6500000000000057
 21
59.6749999999999829
 31
0.0
  0
LINE
  5
B3
100
AcDbEntity
  8
0
 62
256
370
-1
 48
1.0
  6
BYLAYER
100
AcDbLine
 10
278.4624999999999773
 20
73.6749999999999829
 30
0.0
 11
278.4624999999999773
 21
59.6749999999999829
 31
0.0
  0
LINE
  5
B4
100
AcDbEntity
  8
0
 62
256
370
-1
 48
1.0
  6
BYLAYER
100
AcDbLine
 10
23.6687499999999993
 20
54.625
 30
0.0
 11
23.6687499999999993
 21
40.625
 31
0.0
  0
LINE
  5
B5
100
AcDbEntity
  8
0
 62
256
370
-1
 48
1.0
  6
BYLAYER
100
AcDbLine
 10
49.8624999999999901
 20
54.625
 30
0.0
 11
49.8624999999999901
 21
40.625
 31
0.0
  0
LINE
  5
B6
100
AcDbEntity
  8
0
 62
256
370
-1
 48
1.0
  6
BYLAYER
100
AcDbLine
 10
68.9124999999999943
 20
54.625
 30
0.0
 11
68.9124999999999943
 21
40.625
 31
0.0
  0
LINE
  5
B7
100
AcDbEntity
  8
0
 62
256
370
-1
 48
1.0
  6
BYLAYER
100
AcDbLine
 10
87.9624999999999773
 20
54.625
 30
0.0
 11
87.9624999999999773
 21
40.625
 31
0.0
  0
LINE
  5
B8
100
AcDbEntity
  8
0
 62
256
370
-1
 48
1.0
  6
BYLAYER
100
AcDbLine
 10
107.0124999999999886
 20
54.625
 30
0.0
 11
107.0124999999999886
 21
40.625
 31
0.0
  0
LINE
  5
B9
100
AcDbEntity
  8
0
 62
256
370
-1
 48
1.0
  6
BYLAYER
100
AcDbLine
 10
126.0624999999999716
 20
54.625
 30
0.0
 11
126.0624999999999716
 21
40.625
 31
0.0
  0
LINE
  5
BA
100
AcDbEntity
  8
0
 62
256
370
-1
 48
1.0
  6
BYLAYER
100
AcDbLine
 10
145.1124999999999829
 20
54.625
 30
0.0
 11
145.1124999999999829
 21
40.625
 31
0.0
  0
LINE
  5
BB
100
AcDbEntity
  8
0
 62
256
370
-1
 48
1.0
  6
BYLAYER
100
AcDbLine
 10
164.1624999999999659
 20
54.625
 30
0.0
 11
164.1624999999999659
 21
40.625
 31
0.0
  0
LINE
  5
BC
100
AcDbEntity
  8
0
 62
256
370
-1
 48
1.0
  6
BYLAYER
100
AcDbLine
 10
183.2124999999999773
 20
54.625
 30
0.0
 11
183.2124999999999773
 21
40.625
 31
0.0
  0
LINE
  5
BD
100
AcDbEntity
  8
0
 62
256
370
-1
 48
1.0
  6
BYLAYER
100
AcDbLine
 10
202.2624999999999602
 20
54.625
 30
0.0
 11
202.2624999999999602
 21
40.625
 31
0.0
  0
LINE
  5
BE
100
AcDbEntity
  8
0
 62
256
370
-1
 48
1.0
  6
BYLAYER
100
AcDbLine
 10
221.3124999999999716
 20
54.625
 30
0.0
 11
221.3124999999999716
 21
40.625
 31
0.0
  0
LINE
  5
BF
100
AcDbEntity
  8
0
 62
256
370
-1
 48
1.0
  6
BYLAYER
100
AcDbLine
 10
240.3624999999999829
 20
54.625
 30
0.0
 11
240.3624999999999829
 21
40.625
 31
0.0
  0
LINE
  5
C0
100
AcDbEntity
  8
0
 62
256
370
-1
 48
1.0
  6
BYLAYER
100
AcDbLine
 10
54.6250000000000284
 20
35.5750000000000028
 30
0.0
 11
54.6250000000000284
 21
21.5749999999999993
 31
0.0
  0
LINE
  5
C1
100
AcDbEntity
  8
0
 62
256
370
-1
 48
1.0
  6
BYLAYER
100
AcDbLine
 10
73.6750000000000256
 20
35.5750000000000028
 30
0.0
 11
73.6750000000000256
 21
21.5749999999999993
 31
0.0
  0
LINE
  5
C2
100
AcDbEntity
  8
0
 62
256
370
-1
 48
1.0
  6
BYLAYER
100
AcDbLine
 10
92.7250000000000227
 20
35.5750000000000028
 30
0.0
 11
92.7250000000000227
 21
21.5749999999999993
 31
0.0
  0
LINE
  5
C3
100
AcDbEntity
  8
0
 62
256
370
-1
 48
1.0
  6
BYLAYER
100
AcDbLine
 10
111.7750000000000341
 20
35.5750000000000028
 30
0.0
 11
111.7750000000000341
 21
21.5749999999999993
 31
0.0
  0
LINE
  5
C4
100
AcDbEntity
  8
0
 62
256
370
-1
 48
1.0
  6
BYLAYER
100
AcDbLine
 10
130.8250000000000171
 20
35.5750000000000028
 30
0.0
 11
130.8250000000000171
 21
21.5749999999999993
 31
0.0
  0
LINE
  5
C5
100
AcDbEntity
  8
0
 62
256
370
-1
 48
1.0
  6
BYLAYER
100
AcDbLine
 10
149.8750000000000284
 20
35.5750000000000028
 30
0.0
 11
149.8750000000000284
 21
21.5749999999999993
 31
0.0
  0
LINE
  5
C6
100
AcDbEntity
  8
0
 62
256
370
-1
 48
1.0
  6
BYLAYER
100
AcDbLine
 10
168.9250000000000114
 20
35.5750000000000028
 30
0.0
 11
168.9250000000000114
 21
21.5749999999999993
 31
0.0
  0
LINE
  5
C7
100
AcDbEntity
  8
0
 62
256
370
-1
 48
1.0
  6
BYLAYER
100
AcDbLine
 10
187.9750000000000227
 20
35.5750000000000028
 30
0.0
 11
187.9750000000000227
 21
21.5749999999999993
 31
0.0
  0
LINE
  5
C8
100
AcDbEntity
  8
0
 62
256
370
-1
 48
1.0
  6
BYLAYER
100
AcDbLine
 10
207.0250000000000057
 20
35.5750000000000028
 30
0.0
 11
207.0250000000000057
 21
21.5749999999999993
 31
0.0
  0
LINE
  5
C9
100
AcDbEntity
  8
0
 62
256
370
-1
 48
1.0
  6
BYLAYER
100
AcDbLine
 10
226.0750000000000171
 20
35.5750000000000028
 30
0.0
 11
226.0750000000000171
 21
21.5749999999999993
 31
0.0
  0
LINE
  5
CA
100
AcDbEntity
  8
0
 62
256
370
-1
 48
1.0
  6
BYLAYER
100
AcDbLine
 10
245.1250000000000284
 20
35.5750000000000028
 30
0.0
 11
245.1250000000000284
 21
21.5749999999999993
 31
0.0
  0
LINE
  5
CB
100
AcDbEntity
  8
0
 62
256
370
-1
 48
1.0
  6
BYLAYER
100
AcDbLine
 10
264.1750000000000682
 20
35.5750000000000028
 30
0.0
 11
264.1750000000000682
 21
21.5749999999999993
 31
0.0
  0
LINE
  5
CC
100
AcDbEntity
  8
0
 62
256
370
-1
 48
1.0
  6
BYLAYER
100
AcDbLine
 10
283.2250000000000227
 20
35.5750000000000028
 30
0.0
 11
283.2250000000000227
 21
21.5749999999999993
 31
0.0
  0
LINE
  5
CD
100
AcDbEntity
  8
0
 62
256
370
-1
 48
1.0
  6
BYLAYER
100
AcDbLine
 10
18.90625
 20
16.5249999999999986
 30
0.0
 11
18.90625
 21
2.5250000000000004
 31
0.0
  0
LINE
  5
CE
100
AcDbEntity
  8
0
 62
256
370
-1
 48
1.0
  6
BYLAYER
100
AcDbLine
 10
42.71875
 20
16.5249999999999986
 30
0.0
 11
42.71875
 21
2.5250000000000004
 31
0.0
  0
LINE
  5
CF
100
AcDbEntity
  8
0
 62
256
370
-1
 48
1.0
  6
BYLAYER
100
AcDbLine
 10
66.53125
 20
16.5249999999999986
 30
0.0
 11
66.53125
 21
2.5250000000000004
 31
0.0
  0
LINE
  5
D0
100
AcDbEntity
  8
0
 62
256
370
-1
 48
1.0
  6
BYLAYER
100
AcDbLine
 10
207.0250000000000057
 20
16.5249999999999986
 30
0.0
 11
207.0250000000000057
 21
2.5250000000000004
 31
0.0
  0
LINE
  5
D1
100
AcDbEntity
  8
0
 62
256
370
-1
 48
1.0
  6
BYLAYER
100
AcDbLine
 10
226.0750000000000171
 20
16.5249999999999986
 30
0.0
 11
226.0750000000000171
 21
2.5250000000000004
 31
0.0
  0
LINE
  5
D2
100
AcDbEntity
  8
0
 62
256
370
-1
 48
1.0
  6
BYLAYER
100
AcDbLine
 10
245.1250000000000284
 20
16.5249999999999986
 30
0.0
 11
245.1250000000000284
 21
2.5250000000000004
 31
0.0
  0
LINE
  5
D3
100
AcDbEntity
  8
0
 62
256
370
-1
 48
1.0
  6
BYLAYER
100
AcDbLine
 10
264.1750000000000682
 20
16.5249999999999986
 30
0.0
 11
264.1750000000000682
 21
2.5250000000000004
 31
0.0
  0
LINE
  5
D4
100
AcDbEntity
  8
0
 62
256
370
-1
 48
1.0
  6
BYLAYER
100
AcDbLine
 10
283.2250000000000227
 20
16.5249999999999986
 30
0.0
 11
283.2250000000000227
 21
2.5250000000000004
 31
0.0
  0
LINE
  5
D5
100
AcDbEntity
  8
0
 62
256
370
-1
 48
1.0
  6
BYLAYER
100
AcDbLine
 10
16.5249999999999986
 20
78.7249999999999943
 30
0.0
 11
2.5249999999999999
 21
78.7249999999999943
 31
0.0
  0
LINE
  5
D6
100
AcDbEntity
  8
0
 62
256
370
-1
 48
1.0
  6
BYLAYER
100
AcDbLine
 10
35.5750000000000028
 20
78.7249999999999943
 30
0.0
 11
21.5750000000000028
 21
78.7249999999999943
 31
0.0
  0
LINE
  5
D7
100
AcDbEntity
  8
0
 62
256
370
-1
 48
1.0
  6
BYLAYER
100
AcDbLine
 10
54.625
 20
78.7249999999999943
 30
0.0
 11
40.625
 21
78.7249999999999943
 31
0.0
  0
LINE
  5
D8
100
AcDbEntity
  8
0
 62
256
370
-1
 48
1.0
  6
BYLAYER
100
AcDbLine
 10
73.6749999999999972
 20
78.7249999999999943
 30
0.0
 11
59.6749999999999972
 21
78.7249999999999943
 31
0.0
  0
LINE
  5
D9
100
AcDbEntity
  8
0
 62
256
370
-1
 48
1.0
  6
BYLAYER
100
AcDbLine
 10
92.7249999999999943
 20
78.7249999999999943
 30
0.0
 11
78.7249999999999943
 21
78.7249999999999943
 31
0.0
  0
LINE
  5
DA
100
AcDbEntity
  8
0
 62
256
370
-1
 48
1.0
  6
BYLAYER
100
AcDbLine
 10
111.7750000000000057
 20
78.7249999999999943
 30
0.0
 11
97.7750000000000057
 21
78.7249999999999943
 31
0.0
  0
LINE
  5
DB
100
AcDbEntity
  8
0
 62
256
370
-1
 48
1.0
  6
BYLAYER
100
AcDbLine
 10
130.8249999999999886
 20
78.7249999999999943
 30
0.0
 11
116.8249999999999886
 21
78.7249999999999943
 31
0.0
  0
LINE
  5
DC
100
AcDbEntity
  8
0
 62
256
370
-1
 48
1.0
  6
BYLAYER
100
AcDbLine
 10
149.875
 20
78.7249999999999943
 30
0.0
 11
135.875
 21
78.7249999999999943
 31
0.0
  0
LINE
  5
DD
100
AcDbEntity
  8
0
 62
256
370
-1
 48
1.0
  6
BYLAYER
100
AcDbLine
 10
168.9249999999999829
 20
78.7249999999999943
 30
0.0
 11
154.9250000000000114
 21
78.7249999999999943
 31
0.0
  0
LINE
  5
DE
100
AcDbEntity
  8
0
 62
256
370
-1
 48
1.0
  6
BYLAYER
100
AcDbLine
 10
187.9749999999999943
 20
78.7249999999999943
 30
0.0
 11
173.9749999999999943
 21
78.7249999999999943
 31
0.0
  0
LINE
  5
DF
100
AcDbEntity
  8
0
 62
256
370
-1
 48
1.0
  6
BYLAYER
100
AcDbLine
 10
207.0249999999999773
 20
78.7249999999999943
 30
0.0
 11
193.0249999999999773
 21
78.7249999999999943
 31
0.0
  0
LINE
  5
E0
100
AcDbEntity
  8
0
 62
256
370
-1
 48
1.0
  6
BYLAYER
100
AcDbLine
 10
226.0749999999999886
 20
78.7249999999999943
 30
0.0
 11
212.0749999999999886
 21
78.7249999999999943
 31
0.0
  0
LINE
  5
E1
100
AcDbEntity
  8
0
 62
256
370
-1
 48
1.0
  6
BYLAYER
100
AcDbLine
 10
245.125
 20
78.7249999999999943
 30
0.0
 11
231.125
 21
78.7249999999999943
 31
0.0
  0
LINE
  5
E2
100
AcDbEntity
  8
0
 62
256
370
-1
 48
1.0
  6
BYLAYER
100
AcDbLine
 10
21.2875000000000014
 20
59.6749999999999829
 30
0.0
 11
7.2874999999999996
 21
59.6749999999999829
 31
0.0
  0
LINE
  5
E3
100
AcDbEntity
  8
0
 62
256
370
-1
 48
1.0
  6
BYLAYER
100
AcDbLine
 10
45.1000000000000014
 20
59.6749999999999829
 30
0.0
 11
31.1000000000000014
 21
59.6749999999999829
 31
0.0
  0
LINE
  5
E4
100
AcDbEntity
  8
0
 62
256
370
-1
 48
1.0
  6
BYLAYER
100
AcDbLine
 10
64.1500000000000057
 20
59.6749999999999829
 30
0.0
 11
50.1499999999999986
 21
59.6749999999999829
 31
0.0
  0
LINE
  5
E5
100
AcDbEntity
  8
0
 62
256
370
-1
 48
1.0
  6
BYLAYER
100
AcDbLine
 10
83.1999999999999886
 20
59.6749999999999829
 30
0.0
 11
69.1999999999999886
 21
59.6749999999999829
 31
0.0
  0
LINE
  5
E6
100
AcDbEntity
  8
0
 62
256
370
-1
 48
1.0
  6
BYLAYER
100
AcDbLine
 10
102.25
 20
59.6749999999999829
 30
0.0
 11
88.25
 21
59.6749999999999829
 31
0.0
  0
LINE
  5
E7
100
AcDbEntity
  8
0
 62
256
370
-1
 48
1.0
  6
BYLAYER
100
AcDbLine
 10
121.3000000000000114
 20
59.6749999999999829
 30
0.0
 11
107.3000000000000114
 21
59.6749999999999829
 31
0.0
  0
LINE
  5
E8
100
AcDbEntity
  8
0
 62
256
370
-1
 48
1.0
  6
BYLAYER
100
AcDbLine
 10
140.3499999999999943
 20
59.6749999999999829
 30
0.0
 11
126.3499999999999943
 21
59.6749999999999829
 31
0.0
  0
LINE
  5
E9
100
AcDbEntity
  8
0
 62
256
370
-1
 48
1.0
  6
BYLAYER
100
AcDbLine
 10
159.4000000000000057
 20
59.6749999999999829
 30
0.0
 11
145.4000000000000057
 21
59.6749999999999829
 31
0.0
  0
LINE
  5
EA
100
AcDbEntity
  8
0
 62
256
370
-1
 48
1.0
  6
BYLAYER
100
AcDbLine
 10
178.4499999999999886
 20
59.6749999999999829
 30
0.0
 11
164.4500000000000171
 21
59.6749999999999829
 31
0.0
  0
LINE
  5
EB
100
AcDbEntity
  8
0
 62
256
370
-1
 48
1.0
  6
BYLAYER
100
AcDbLine
 10
197.5
 20
59.6749999999999829
 30
0.0
 11
183.5
 21
59.6749999999999829
 31
0.0
  0
LINE
  5
EC
100
AcDbEntity
  8
0
 62
256
370
-1
 48
1.0
  6
BYLAYER
100
AcDbLine
 10
216.5499999999999829
 20
59.6749999999999829
 30
0.0
 11
202.5499999999999829
 21
59.6749999999999829
 31
0.0
  0
LINE
  5
ED
100
AcDbEntity
  8
0
 62
256
370
-1
 48
1.0
  6
BYLAYER
100
AcDbLine
 10
235.5999999999999943
 20
59.6749999999999829
 30
0.0
 11
221.5999999999999943
 21
59.6749999999999829
 31
0.0
  0
LINE
  5
EE
100
AcDbEntity
  8
0
 62
256
370
-1
 48
1.0
  6
BYLAYER
100
AcDbLine
 10
254.6500000000000057
 20
59.6749999999999829
 30
0.0
 11
240.6500000000000057
 21
59.6749999999999829
 31
0.0
  0
LINE
  5
EF
100
AcDbEntity
  8
0
 62
256
370
-1
 48
1.0
  6
BYLAYER
100
AcDbLine
 10
278.4624999999999773
 20
59.6749999999999829
 30
0.0
 11
264.4624999999999773
 21
59.6749999999999829
 31
0.0
  0
LINE
  5
F0
100
AcDbEntity
  8
0
 62
256
370
-1
 48
1.0
  6
BYLAYER
100
AcDbLine
 10
23.6687499999999993
 20
40.625
 30
0.0
 11
9.6687499999999993
 21
40.625
 31
0.0
  0
LINE
  5
F1
100
AcDbEntity
  8
0
 62
256
370
-1
 48
1.0
  6
BYLAYER
100
AcDbLine
 10
49.8624999999999901
 20
40.625
 30
0.0
 11
35.8624999999999901
 21
40.625
 31
0.0
  0
LINE
  5
F2
100
AcDbEntity
  8
0
 62
256
370
-1
 48
1.0
  6
BYLAYER
100
AcDbLine
 10
68.9124999999999943
 20
40.625
 30
0.0
 11
54.9124999999999872
 21
40.625
 31
0.0
  0
LINE
  5
F3
100
AcDbEntity
  8
0
 62
256
370
-1
 48
1.0
  6
BYLAYER
100
AcDbLine
 10
87.9624999999999773
 20
40.625
 30
0.0
 11
73.9624999999999773
 21
40.625
 31
0.0
  0
LINE
  5
F4
100
AcDbEntity
  8
0
 62
256
370
-1
 48
1.0
  6
BYLAYER
100
AcDbLine
 10
107.0124999999999886
 20
40.625
 30
0.0
 11
93.0124999999999886
 21
40.625
 31
0.0
  0
LINE
  5
F5
100
AcDbEntity
  8
0
 62
256
370
-1
 48
1.0
  6
BYLAYER
100
AcDbLine
 10
126.0624999999999716
 20
40.625
 30
0.0
 11
112.0624999999999716
 21
40.625
 31
0.0
  0
LINE
  5
F6
100
AcDbEntity
  8
0
 62
256
370
-1
 48
1.0
  6
BYLAYER
100
AcDbLine
 10
145.1124999999999829
 20
40.625
 30
0.0
 11
131.1124999999999829
 21
40.625
 31
0.0
  0
LINE
  5
F7
100
AcDbEntity
  8
0
 62
256
370
-1
 48
1.0
  6
BYLAYER
100
AcDbLine
 10
164.1624999999999659
 20
40.625
 30
0.0
 11
150.1624999999999943
 21
40.625
 31
0.0
  0
LINE
  5
F8
100
AcDbEntity
  8
0
 62
256
370
-1
 48
1.0
  6
BYLAYER
100
AcDbLine
 10
183.2124999999999773
 20
40.625
 30
0.0
 11
169.2124999999999773
 21
40.625
 31
0.0
  0
LINE
  5
F9
100
AcDbEntity
  8
0
 62
256
370
-1
 48
1.0
  6
BYLAYER
100
AcDbLine
 10
202.2624999999999602
 20
40.625
 30
0.0
 11
188.2624999999999602
 21
40.625
 31
0.0
  0
LINE
  5
FA
100
AcDbEntity
  8
0
 62
256
370
-1
 48
1.0
  6
BYLAYER
100
AcDbLine
 10
221.3124999999999716
 20
40.625
 30
0.0
 11
207.3124999999999716
 21
40.625
 31
0.0
  0
LINE
  5
FB
100
AcDbEntity
  8
0
 62
256
370
-1
 48
1.0
  6
BYLAYER
100
AcDbLine
 10
240.3624999999999829
 20
40.625
 30
0.0
 11
226.3624999999999829
 21
40.625
 31
0.0
  0
LINE
  5
FC
100
AcDbEntity
  8
0
 62
256
370
-1
 48
1.0
  6
BYLAYER
100
AcDbLine
 10
54.6250000000000284
 20
21.5749999999999993
 30
0.0
 11
40.6250000000000284
 21
21.5749999999999993
 31
0.0
  0
LINE
  5
FD
100
AcDbEntity
  8
0
 62
256
370
-1
 48
1.0
  6
BYLAYER
100
AcDbLine
 10
73.6750000000000256
 20
21.5749999999999993
 30
0.0
 11
59.6750000000000256
 21
21.5749999999999993
 31
0.0
  0
LINE
  5
FE
100
AcDbEntity
  8
0
 62
256
370
-1
 48
1.0
  6
BYLAYER
100
AcDbLine
 10
92.7250000000000227
 20
21.5749999999999993
 30
0.0
 11
78.7250000000000227
 21
21.5749999999999993
 31
0.0
  0
LINE
  5
FF
100
AcDbEntity
  8
0
 62
256
370
-1
 48
1.0
  6
BYLAYER
100
AcDbLine
 10
111.7750000000000341
 20
21.5749999999999993
 30
0.0
 11
97.7750000000000341
 21
21.5749999999999993
 31
0.0
  0
LINE
  5
100
100
AcDbEntity
  8
0
 62
256
370
-1
 48
1.0
  6
BYLAYER
100
AcDbLine
 10
130.8250000000000171
 20
21.5749999999999993
 30
0.0
 11
116.8250000000000171
 21
21.5749999999999993
 31
0.0
  0
LINE
  5
101
100
AcDbEntity
  8
0
 62
256
370
-1
 48
1.0
  6
BYLAYER
100
AcDbLine
 10
149.8750000000000284
 20
21.5749999999999993
 30
0.0
 11
135.8750000000000284
 21
21.5749999999999993
 31
0.0
  0
LINE
  5
102
100
AcDbEntity
  8
0
 62
256
370
-1
 48
1.0
  6
BYLAYER
100
AcDbLine
 10
168.9250000000000114
 20
21.5749999999999993
 30
0.0
 11
154.9250000000000398
 21
21.5749999999999993
 31
0.0
  0
LINE
  5
103
100
AcDbEntity
  8
0
 62
256
370
-1
 48
1.0
  6
BYLAYER
100
AcDbLine
 10
187.9750000000000227
 20
21.5749999999999993
 30
0.0
 11
173.9750000000000227
 21
21.5749999999999993
 31
0.0
  0
LINE
  5
104
100
AcDbEntity
  8
0
 62
256
370
-1
 48
1.0
  6
BYLAYER
100
AcDbLine
 10
207.0250000000000057
 20
21.5749999999999993
 30
0.0
 11
193.0250000000000057
 21
21.5749999999999993
 31
0.0
  0
LINE
  5
105
100
AcDbEntity
  8
0
 62
256
370
-1
 48
1.0
  6
BYLAYER
100
AcDbLine
 10
226.0750000000000171
 20
21.5749999999999993
 30
0.0
 11
212.0750000000000171
 21
21.5749999999999993
 31
0.0
  0
LINE
  5
106
100
AcDbEntity
  8
0
 62
256
370
-1
 48
1.0
  6
BYLAYER
100
AcDbLine
 10
245.1250000000000284
 20
21.5749999999999993
 30
0.0
 11
231.1250000000000284
 21
21.5749999999999993
 31
0.0
  0
LINE
  5
107
100
AcDbEntity
  8
0
 62
256
370
-1
 48
1.0
  6
BYLAYER
100
AcDbLine
 10
264.1750000000000682
 20
21.5749999999999993
 30
0.0
 11
250.1750000000000398
 21
21.5749999999999993
 31
0.0
  0
LINE
  5
108
100
AcDbEntity
  8
0
 62
256
370
-1
 48
1.0
  6
BYLAYER
100
AcDbLine
 10
283.2250000000000227
 20
21.5749999999999993
 30
0.0
 11
269.2250000000000227
 21
21.5749999999999993
 31
0.0
  0
LINE
  5
109
100
AcDbEntity
  8
0
 62
256
370
-1
 48
1.0
  6
BYLAYER
100
AcDbLine
 10
18.90625
 20
2.5250000000000004
 30
0.0
 11
4.90625
 21
2.5250000000000004
 31
0.0
  0
LINE
  5
10A
100
AcDbEntity
  8
0
 62
256
370
-1
 48
1.0
  6
BYLAYER
100
AcDbLine
 10
42.71875
 20
2.5250000000000004
 30
0.0
 11
28.7187499999999964
 21
2.5250000000000004
 31
0.0
  0
LINE
  5
10B
100
AcDbEntity
  8
0
 62
256
370
-1
 48
1.0
  6
BYLAYER
100
AcDbLine
 10
66.53125
 20
2.5250000000000004
 30
0.0
 11
52.53125
 21
2.5250000000000004
 31
0.0
  0
LINE
  5
10C
100
AcDbEntity
  8
0
 62
256
370
-1
 48
1.0
  6
BYLAYER
100
AcDbLine
 10
207.0250000000000057
 20
2.5250000000000004
 30
0.0
 11
193.0250000000000057
 21
2.5250000000000004
 31
0.0
  0
LINE
  5
10D
100
AcDbEntity
  8
0
 62
256
370
-1
 48
1.0
  6
BYLAYER
100
AcDbLine
 10
226.0750000000000171
 20
2.5250000000000004
 30
0.0
 11
212.0750000000000171
 21
2.5250000000000004
 31
0.0
  0
LINE
  5
10E
100
AcDbEntity
  8
0
 62
256
370
-1
 48
1.0
  6
BYLAYER
100
AcDbLine
 10
245.1250000000000284
 20
2.5250000000000004
 30
0.0
 11
231.1250000000000284
 21
2.5250000000000004
 31
0.0
  0
LINE
  5
10F
100
AcDbEntity
  8
0
 62
256
370
-1
 48
1.0
  6
BYLAYER
100
AcDbLine
 10
264.1750000000000682
 20
2.5250000000000004
 30
0.0
 11
250.1750000000000398
 21
2.5250000000000004
 31
0.0
  0
LINE
  5
110
100
AcDbEntity
  8
0
 62
256
370
-1
 48
1.0
  6
BYLAYER
100
AcDbLine
 10
283.2250000000000227
 20
2.5250000000000004
 30
0.0
 11
269.2250000000000227
 21
2.5250000000000004
 31
0.0
  0
LINE
  5
111
100
AcDbEntity
  8
0
 62
256
370
-1
 48
1.0
  6
BYLAYER
100
AcDbLine
 10
2.5249999999999999
 20
78.7249999999999943
 30
0.0
 11
2.5249999999999999
 21
92.7249999999999943
 31
0.0
  0
LINE
  5
112
100
AcDbEntity
  8
0
 62
256
370
-1
 48
1.0
  6
BYLAYER
100
AcDbLine
 10
21.5750000000000028
 20
78.7249999999999943
 30
0.0
 11
21.5750000000000028
 21
92.7249999999999943
 31
0.0
  0
LINE
  5
113
100
AcDbEntity
  8
0
 62
256
370
-1
 48
1.0
  6
BYLAYER
100
AcDbLine
 10
40.625
 20
78.7249999999999943
 30
0.0
 11
40.625
 21
92.7249999999999943
 31
0.0
  0
LINE
  5
114
100
AcDbEntity
  8
0
 62
256
370
-1
 48
1.0
  6
BYLAYER
100
AcDbLine
 10
59.6749999999999972
 20
78.7249999999999943
 30
0.0
 11
59.6749999999999972
 21
92.7249999999999943
 31
0.0
  0
LINE
  5
115
100
AcDbEntity
  8
0
 62
256
370
-1
 48
1.0
  6
BYLAYER
100
AcDbLine
 10
78.7249999999999943
 20
78.7249999999999943
 30
0.0
 11
78.7249999999999943
 21
92.7249999999999943
 31
0.0
  0
LINE
  5
116
100
AcDbEntity
  8
0
 62
256
370
-1
 48
1.0
  6
BYLAYER
100
AcDbLine
 10
97.7750000000000057
 20
78.7249999999999943
 30
0.0
 11
97.7750000000000057
 21
92.7249999999999943
 31
0.0
  0
LINE
  5
117
100
AcDbEntity
  8
0
 62
256
370
-1
 48
1.0
  6
BYLAYER
100
AcDbLine
 10
116.8249999999999886
 20
78.7249999999999943
 30
0.0
 11
116.8249999999999886
 21
92.7249999999999943
 31
0.0
  0
LINE
  5
118
100
AcDbEntity
  8
0
 62
256
370
-1
 48
1.0
  6
BYLAYER
100
AcDbLine
 10
135.875
 20
78.7249999999999943
 30
0.0
 11
135.875
 21
92.7249999999999943
 31
0.0
  0
LINE
  5
119
100
AcDbEntity
  8
0
 62
256
370
-1
 48
1.0
  6
BYLAYER
100
AcDbLine
 10
154.9250000000000114
 20
78.7249999999999943
 30
0.0
 11
154.9250000000000114
 21
92.7249999999999943
 31
0.0
  0
LINE
  5
11A
100
AcDbEntity
  8
0
 62
256
370
-1
 48
1.0
  6
BYLAYER
100
AcDbLine
 10
173.9749999999999943
 20
78.7249999999999943
 30
0.0
 11
173.9749999999999943
 21
92.7249999999999943
 31
0.0
  0
LINE
  5
11B
100
AcDbEntity
  8
0
 62
256
370
-1
 48
1.0
  6
BYLAYER
100
AcDbLine
 10
193.0249999999999773
 20
78.7249999999999943
 30
0.0
 11
193.0249999999999773
 21
92.7249999999999943
 31
0.0
  0
LINE
  5
11C
100
AcDbEntity
  8
0
 62
256
370
-1
 48
1.0
  6
BYLAYER
100
AcDbLine
 10
212.0749999999999886
 20
78.7249999999999943
 30
0.0
 11
212.0749999999999886
 21
92.7249999999999943
 31
0.0
  0
LINE
  5
11D
100
AcDbEntity
  8
0
 62
256
370
-1
 48
1.0
  6
BYLAYER
100
AcDbLine
 10
231.125
 20
78.7249999999999943
 30
0.0
 11
231.125
 21
92.7249999999999943
 31
0.0
  0
LINE
  5
11E
100
AcDbEntity
  8
0
 62
256
370
-1
 48
1.0
  6
BYLAYER
100
AcDbLine
 10
7.2874999999999996
 20
59.6749999999999829
 30
0.0
 11
7.2874999999999996
 21
73.6749999999999829
 31
0.0
  0
LINE
  5
11F
100
AcDbEntity
  8
0
 62
256
370
-1
 48
1.0
  6
BYLAYER
100
AcDbLine
 10
31.1000000000000014
 20
59.6749999999999829
 30
0.0
 11
31.1000000000000014
 21
73.6749999999999829
 31
0.0
  0
LINE
  5
120
100
AcDbEntity
  8
0
 62
256
370
-1
 48
1.0
  6
BYLAYER
100
AcDbLine
 10
50.1499999999999986
 20
59.6749999999999829
 30
0.0
 11
50.1499999999999986
 21
73.6749999999999829
 31
0.0
  0
LINE
  5
121
100
AcDbEntity
  8
0
 62
256
370
-1
 48
1.0
  6
BYLAYER
100
AcDbLine
 10
69.1999999999999886
 20
59.6749999999999829
 30
0.0
 11
69.1999999999999886
 21
73.6749999999999829
 31
0.0
  0
LINE
  5
122
100
AcDbEntity
  8
0
 62
256
370
-1
 48
1.0
  6
BYLAYER
100
AcDbLine
 10
88.25
 20
59.6749999999999829
 30
0.0
 11
88.25
 21
73.6749999999999829
 31
0.0
  0
LINE
  5
123
100
AcDbEntity
  8
0
 62
256
370
-1
 48
1.0
  6
BYLAYER
100
AcDbLine
 10
107.3000000000000114
 20
59.6749999999999829
 30
0.0
 11
107.3000000000000114
 21
73.6749999999999829
 31
0.0
  0
LINE
  5
124
100
AcDbEntity
  8
0
 62
256
370
-1
 48
1.0
  6
BYLAYER
100
AcDbLine
 10
126.3499999999999943
 20
59.6749999999999829
 30
0.0
 11
126.3499999999999943
 21
73.6749999999999829
 31
0.0
  0
LINE
  5
125
100
AcDbEntity
  8
0
 62
256
370
-1
 48
1.0
  6
BYLAYER
100
AcDbLine
 10
145.4000000000000057
 20
59.6749999999999829
 30
0.0
 11
145.4000000000000057
 21
73.6749999999999829
 31
0.0
  0
LINE
  5
126
100
AcDbEntity
  8
0
 62
256
370
-1
 48
1.0
  6
BYLAYER
100
AcDbLine
 10
164.4500000000000171
 20
59.6749999999999829
 30
0.0
 11
164.4500000000000171
 21
73.6749999999999829
 31
0.0
  0
LINE
  5
127
100
AcDbEntity
  8
0
 62
256
370
-1
 48
1.0
  6
BYLAYER
100
AcDbLine
 10
183.5
 20
59.6749999999999829
 30
0.0
 11
183.5
 21
73.6749999999999829
 31
0.0
  0
LINE
  5
128
100
AcDbEntity
  8
0
 62
256
370
-1
 48
1.0
  6
BYLAYER
100
AcDbLine
 10
202.5499999999999829
 20
59.6749999999999829
 30
0.0
 11
202.5499999999999829
 21
73.6749999999999829
 31
0.0
  0
LINE
  5
129
100
AcDbEntity
  8
0
 62
256
370
-1
 48
1.0
  6
BYLAYER
100
AcDbLine
 10
221.5999999999999943
 20
59.6749999999999829
 30
0.0
 11
221.5999999999999943
 21
73.6749999999999829
 31
0.0
  0
LINE
  5
12A
100
AcDbEntity
  8
0
 62
256
370
-1
 48
1.0
  6
BYLAYER
100
AcDbLine
 10
240.6500000000000057
 20
59.6749999999999829
 30
0.0
 11
240.6500000000000057
 21
73.6749999999999829
 31
0.0
  0
LINE
  5
12B
100
AcDbEntity
  8
0
 62
256
370
-1
 48
1.0
  6
BYLAYER
100
AcDbLine
 10
264.4624999999999773
 20
59.6749999999999829
 30
0.0
 11
264.4624999999999773
 21
73.6749999999999829
 31
0.0
  0
LINE
  5
12C
100
AcDbEntity
  8
0
 62
256
370
-1
 48
1.0
  6
BYLAYER
100
AcDbLine
 10
9.6687499999999993
 20
40.625
 30
0.0
 11
9.6687499999999993
 21
54.625
 31
0.0
  0
LINE
  5
12D
100
AcDbEntity
  8
0
 62
256
370
-1
 48
1.0
  6
BYLAYER
100
AcDbLine
 10
35.8624999999999901
 20
40.625
 30
0.0
 11
35.8624999999999901
 21
54.625
 31
0.0
  0
LINE
  5
12E
100
AcDbEntity
  8
0
 62
256
370
-1
 48
1.0
  6
BYLAYER
100
AcDbLine
 10
54.9124999999999872
 20
40.625
 30
0.0
 11
54.9124999999999872
 21
54.625
 31
0.0
  0
LINE
  5
12F
100
AcDbEntity
  8
0
 62
256
370
-1
 48
1.0
  6
BYLAYER
100
AcDbLine
 10
73.9624999999999773
 20
40.625
 30
0.0
 11
73.9624999999999773
 21
54.625
 31
0.0
  0
LINE
  5
130
100
AcDbEntity
  8
0
 62
256
370
-1
 48
1.0
  6
BYLAYER
100
AcDbLine
 10
93.0124999999999886
 20
40.625
 30
0.0
 11
93.0124999999999886
 21
54.625
 31
0.0
  0
LINE
  5
131
100
AcDbEntity
  8
0
 62
256
370
-1
 48
1.0
  6
BYLAYER
100
AcDbLine
 10
112.0624999999999716
 20
40.625
 30
0.0
 11
112.0624999999999716
 21
54.625
 31
0.0
  0
LINE
  5
132
100
AcDbEntity
  8
0
 62
256
370
-1
 48
1.0
  6
BYLAYER
100
AcDbLine
 10
131.1124999999999829
 20
40.625
 30
0.0
 11
131.1124999999999829
 21
54.625
 31
0.0
  0
LINE
  5
133
100
AcDbEntity
  8
0
 62
256
370
-1
 48
1.0
  6
BYLAYER
100
AcDbLine
 10
150.1624999999999943
 20
40.625
 30
0.0
 11
150.1624999999999943
 21
54.625
 31
0.0
  0
LINE
  5
134
100
AcDbEntity
  8
0
 62
256
370
-1
 48
1.0
  6
BYLAYER
100
AcDbLine
 10
169.2124999999999773
 20
40.625
 30
0.0
 11
169.2124999999999773
 21
54.625
 31
0.0
  0
LINE
  5
135
100
AcDbEntity
  8
0
 62
256
370
-1
 48
1.0
  6
BYLAYER
100
AcDbLine
 10
188.2624999999999602
 20
40.625
 30
0.0
 11
188.2624999999999602
 21
54.625
 31
0.0
  0
LINE
  5
136
100
AcDbEntity
  8
0
 62
256
370
-1
 48
1.0
  6
BYLAYER
100
AcDbLine
 10
207.3124999999999716
 20
40.625
 30
0.0
 11
207.3124999999999716
 21
54.625
 31
0.0
  0
LINE
  5
137
100
AcDbEntity
  8
0
 62
256
370
-1
 48
1.0
  6
BYLAYER
100
AcDbLine
 10
226.3624999999999829
 20
40.625
 30
0.0
 11
226.3624999999999829
 21
54.625
 31
0.0
  0
LINE
  5
138
100
AcDbEntity
  8
0
 62
256
370
-1
 48
1.0
  6
BYLAYER
100
AcDbLine
 10
40.6250000000000284
 20
21.5749999999999993
 30
0.0
 11
40.6250000000000284
 21
35.5750000000000028
 31
0.0
  0
LINE
  5
139
100
AcDbEntity
  8
0
 62
256
370
-1
 48
1.0
  6
BYLAYER
100
AcDbLine
 10
59.6750000000000256
 20
21.5749999999999993
 30
0.0
 11
59.6750000000000256
 21
35.5750000000000028
 31
0.0
  0
LINE
  5
13A
100
AcDbEntity
  8
0
 62
256
370
-1
 48
1.0
  6
BYLAYER
100
AcDbLine
 10
78.7250000000000227
 20
21.5749999999999993
 30
0.0
 11
78.7250000000000227
 21
35.5750000000000028
 31
0.0
  0
LINE
  5
13B
100
AcDbEntity
  8
0
 62
256
370
-1
 48
1.0
  6
BYLAYER
100
AcDbLine
 10
97.7750000000000341
 20
21.5749999999999993
 30
0.0
 11
97.7750000000000341
 21
35.5750000000000028
 31
0.0
  0
LINE
  5
13C
100
AcDbEntity
  8
0
 62
256
370
-1
 48
1.0
  6
BYLAYER
100
AcDbLine
 10
116.8250000000000171
 20
21.5749999999999993
 30
0.0
 11
116.8250000000000171
 21
35.5750000000000028
 31
0.0
  0
LINE
  5
13D
100
AcDbEntity
  8
0
 62
256
370
-1
 48
1.0
  6
BYLAYER
100
AcDbLine
 10
135.8750000000000284
 20
21.5749999999999993
 30
0.0
 11
135.8750000000000284
 21
35.5750000000000028
 31
0.0
  0
LINE
  5
13E
100
AcDbEntity
  8
0
 62
256
370
-1
 48
1.0
  6
BYLAYER
100
AcDbLine
 10
154.9250000000000398
 20
21.5749999999999993
 30
0.0
 11
154.9250000000000398
 21
35.5750000000000028
 31
0.0
  0
LINE
  5
13F
100
AcDbEntity
  8
0
 62
256
370
-1
 48
1.0
  6
BYLAYER
100
AcDbLine
 10
173.9750000000000227
 20
21.5749999999999993
 30
0.0
 11
173.9750000000000227
 21
35.5750000000000028
 31
0.0
  0
LINE
  5
140
100
AcDbEntity
  8
0
 62
256
370
-1
 48
1.0
  6
BYLAYER
100
AcDbLine
 10
193.0250000000000057
 20
21.5749999999999993
 30
0.0
 11
193.0250000000000057
 21
35.5750000000000028
 31
0.0
  0
LINE
  5
141
100
AcDbEntity
  8
0
 62
256
370
-1
 48
1.0
  6
BYLAYER
100
AcDbLine
 10
212.0750000000000171
 20
21.5749999999999993
 30
0.0
 11
212.0750000000000171
 21
35.5750000000000028
 31
0.0
  0
LINE
  5
142
100
AcDbEntity
  8
0
 62
256
370
-1
 48
1.0
  6
BYLAYER
100
AcDbLine
 10
231.1250000000000284
 20
21.5749999999999993
 30
0.0
 11
231.1250000000000284
 21
35.5750000000000028
 31
0.0
  0
LINE
  5
143
100
AcDbEntity
  8
0
 62
256
370
-1
 48
1.0
  6
BYLAYER
100
AcDbLine
 10
250.1750000000000398
 20
21.5749999999999993
 30
0.0
 11
250.1750000000000398
 21
35.5750000000000028
 31
0.0
  0
LINE
  5
144
100
AcDbEntity
  8
0
 62
256
370
-1
 48
1.0
  6
BYLAYER
100
AcDbLine
 10
269.2250000000000227
 20
21.5749999999999993
 30
0.0
 11
269.2250000000000227
 21
35.5750000000000028
 31
0.0
  0
LINE
  5
145
100
AcDbEntity
  8
0
 62
256
370
-1
 48
1.0
  6
BYLAYER
100
AcDbLine
 10
4.90625
 20
2.5250000000000004
 30
0.0
 11
4.90625
 21
16.5249999999999986
 31
0.0
  0
LINE
  5
146
100
AcDbEntity
  8
0
 62
256
370
-1
 48
1.0
  6
BYLAYER
100
AcDbLine
 10
28.7187499999999964
 20
2.5250000000000004
 30
0.0
 11
28.7187499999999964
 21
16.5249999999999986
 31
0.0
  0
LINE
  5
147
100
AcDbEntity
  8
0
 62
256
370
-1
 48
1.0
  6
BYLAYER
100
AcDbLine
 10
52.53125
 20
2.5250000000000004
 30
0.0
 11
52.53125
 21
16.5249999999999986
 31
0.0
  0
LINE
  5
148
100
AcDbEntity
  8
0
 62
256
370
-1
 48
1.0
  6
BYLAYER
100
AcDbLine
 10
193.0250000000000057
 20
2.5250000000000004
 30
0.0
 11
193.0250000000000057
 21
16.5249999999999986
 31
0.0
  0
LINE
  5
149
100
AcDbEntity
  8
0
 62
256
370
-1
 48
1.0
  6
BYLAYER
100
AcDbLine
 10
212.0750000000000171
 20
2.5250000000000004
 30
0.0
 11
212.0750000000000171
 21
16.5249999999999986
 31
0.0
  0
LINE
  5
14A
100
AcDbEntity
  8
0
 62
256
370
-1
 48
1.0
  6
BYLAYER
100
AcDbLine
 10
231.1250000000000284
 20
2.5250000000000004
 30
0.0
 11
231.1250000000000284
 21
16.5249999999999986
 31
0.0
  0
LINE
  5
14B
100
AcDbEntity
  8
0
 62
256
370
-1
 48
1.0
  6
BYLAYER
100
AcDbLine
 10
250.1750000000000398
 20
2.5250000000000004
 30
0.0
 11
250.1750000000000398
 21
16.5249999999999986
 31
0.0
  0
LINE
  5
14C
100
AcDbEntity
  8
0
 62
256
370
-1
 48
1.0
  6
BYLAYER
100
AcDbLine
 10
269.2250000000000227
 20
2.5250000000000004
 30
0.0
 11
269.2250000000000227
 21
16.5249999999999986
 31
0.0
  0
LINE
  5
14D
100
AcDbEntity
  8
0
 62
256
370
-1
 48
1.0
  6
BYLAYER
100
AcDbLine
 10
259.6999999999999886
 20
92.7249999999999943
 30
0.0
 11
273.6999999999999886
 21
92.7249999999999943
 31
0.0
  0
LINE
  5
14E
100
AcDbEntity
  8
0
 62
256
370
-1
 48
1.0
  6
BYLAYER
100
AcDbLine
 10
257.3187500000000227
 20
54.6250000000000071
 30
0.0
 11
271.3187500000000227
 21
54.6250000000000071
 31
0.0
  0
LINE
  5
14F
100
AcDbEntity
  8
0
 62
256
370
-1
 48
1.0
  6
BYLAYER
100
AcDbLine
 10
12.0500000000000007
 20
35.5749999999999957
 30
0.0
 11
26.0500000000000007
 21
35.5749999999999957
 31
0.0
  0
LINE
  5
150
100
AcDbEntity
  8
0
 62
256
370
-1
 48
1.0
  6
BYLAYER
100
AcDbLine
 10
123.9687500000000142
 20
16.5249999999999986
 30
0.0
 11
137.96875
 21
16.5249999999999986
 31
0.0
  0
LINE
  5
151
100
AcDbEntity
  8
0
 62
256
370
-1
 48
1.0
  6
BYLAYER
100
AcDbLine
 10
273.6999999999999886
 20
92.7249999999999943
 30
0.0
 11
273.6999999999999886
 21
88.0250000000000057
 31
0.0
  0
LINE
  5
152
100
AcDbEntity
  8
0
 62
256
370
-1
 48
1.0
  6
BYLAYER
100
AcDbLine
 10
271.3187500000000227
 20
54.6250000000000071
 30
0.0
 11
271.3187500000000227
 21
49.9250000000000185
 31
0.0
  0
LINE
  5
153
100
AcDbEntity
  8
0
 62
256
370
-1
 48
1.0
  6
BYLAYER
100
AcDbLine
 10
26.0500000000000007
 20
35.5749999999999957
 30
0.0
 11
26.0500000000000007
 21
30.8750000000000071
 31
0.0
  0
LINE
  5
154
100
AcDbEntity
  8
0
 62
256
370
-1
 48
1.0
  6
BYLAYER
100
AcDbLine
 10
137.96875
 20
16.5249999999999986
 30
0.0
 11
137.96875
 21
11.8250000000000099
 31
0.0
  0
LINE
  5
155
100
AcDbEntity
  8
0
 62
256
370
-1
 48
1.0
  6
BYLAYER
100
AcDbLine
 10
273.6999999999999886
 20
88.0250000000000057
 30
0.0
 11
275.2250000000000227
 21
88.0250000000000057
 31
0.0
  0
LINE
  5
156
100
AcDbEntity
  8
0
 62
256
370
-1
 48
1.0
  6
BYLAYER
100
AcDbLine
 10
259.6999999999999886
 20
88.0250000000000057
 30
0.0
 11
258.1749999999998977
 21
88.0250000000000057
 31
0.0
  0
LINE
  5
157
100
AcDbEntity
  8
0
 62
256
370
-1
 48
1.0
  6
BYLAYER
100
AcDbLine
 10
271.3187500000000227
 20
49.9250000000000185
 30
0.0
 11
272.8437500000000568
 21
49.9250000000000185
 31
0.0
  0
LINE
  5
158
100
AcDbEntity
  8
0
 62
256
370
-1
 48
1.0
  6
BYLAYER
100
AcDbLine
 10
257.3187500000000227
 20
49.9250000000000185
 30
0.0
 11
255.7937499999999318
 21
49.9250000000000185
 31
0.0
  0
LINE
  5
159
100
AcDbEntity
  8
0
 62
256
370
-1
 48
1.0
  6
BYLAYER
100
AcDbLine
 10
26.0500000000000007
 20
30.8750000000000071
 30
0.0
 11
27.5750000000000348
 21
30.8750000000000071
 31
0.0
  0
LINE
  5
15A
100
AcDbEntity
  8
0
 62
256
370
-1
 48
1.0
  6
BYLAYER
100
AcDbLine
 10
12.0500000000000007
 20
30.8750000000000071
 30
0.0
 11
10.5249999999999098
 21
30.8750000000000071
 31
0.0
  0
LINE
  5
15B
100
AcDbEntity
  8
0
 62
256
370
-1
 48
1.0
  6
BYLAYER
100
AcDbLine
 10
275.2250000000000227
 20
88.0250000000000057
 30
0.0
 11
275.2250000000000227
 21
91.2549999999999955
 31
0.0
  0
LINE
  5
15C
100
AcDbEntity
  8
0
 62
256
370
-1
 48
1.0
  6
BYLAYER
100
AcDbLine
 10
258.1749999999998977
 20
88.0250000000000057
 30
0.0
 11
258.1749999999999545
 21
91.2549999999999955
 31
0.0
  0
LINE
  5
15D
100
AcDbEntity
  8
0
 62
256
370
-1
 48
1.0
  6
BYLAYER
100
AcDbLine
 10
272.8437500000000568
 20
49.9250000000000185
 30
0.0
 11
272.8437500000000568
 21
53.1550000000000082
 31
0.0
  0
LINE
  5
15E
100
AcDbEntity
  8
0
 62
256
370
-1
 48
1.0
  6
BYLAYER
100
AcDbLine
 10
255.7937499999999318
 20
49.9250000000000185
 30
0.0
 11
255.7937499999999886
 21
53.1550000000000082
 31
0.0
  0
LINE
  5
15F
100
AcDbEntity
  8
0
 62
256
370
-1
 48
1.0
  6
BYLAYER
100
AcDbLine
 10
27.5750000000000348
 20
30.8750000000000071
 30
0.0
 11
27.5750000000000348
 21
34.1049999999999969
 31
0.0
  0
LINE
  5
160
100
AcDbEntity
  8
0
 62
256
370
-1
 48
1.0
  6
BYLAYER
100
AcDbLine
 10
10.5249999999999098
 20
30.8750000000000071
 30
0.0
 11
10.5249999999999666
 21
34.1049999999999969
 31
0.0
  0
LINE
  5
161
100
AcDbEntity
  8
0
 62
256
370
-1
 48
1.0
  6
BYLAYER
100
AcDbLine
 10
84.3437500000000142
 20
11.8250000000000206
 30
0.0
 11
84.3437500000000711
 21
15.0550000000000104
 31
0.0
  0
LINE
  5
162
100
AcDbEntity
  8
0
 62
256
370
-1
 48
1.0
  6
BYLAYER
100
AcDbLine
 10
177.59375
 20
11.8249999999999993
 30
0.0
 11
177.59375
 21
15.0549999999999891
 31
0.0
  0
LINE
  5
163
100
AcDbEntity
  8
0
 62
256
370
-1
 48
1.0
  6
BYLAYER
100
AcDbLine
 10
281.9750000000000227
 20
91.2549999999999955
 30
0.0
 11
281.9750000000000227
 21
88.0250000000000057
 31
0.0
  0
LINE
  5
164
100
AcDbEntity
  8
0
 62
256
370
-1
 48
1.0
  6
BYLAYER
100
AcDbLine
 10
251.4249999999998977
 20
91.2549999999999955
 30
0.0
 11
251.4249999999998977
 21
88.0250000000000057
 31
0.0
  0
LINE
  5
165
100
AcDbEntity
  8
0
 62
256
370
-1
 48
1.0
  6
BYLAYER
100
AcDbLine
 10
279.5937500000000568
 20
53.1550000000000082
 30
0.0
 11
279.5937500000000568
 21
49.9250000000000185
 31
0.0
  0
LINE
  5
166
100
AcDbEntity
  8
0
 62
256
370
-1
 48
1.0
  6
BYLAYER
100
AcDbLine
 10
249.0437499999999318
 20
53.1550000000000082
 30
0.0
 11
249.0437499999999318
 21
49.9250000000000185
 31
0.0
  0
LINE
  5
167
100
AcDbEntity
  8
0
 62
256
370
-1
 48
1.0
  6
BYLAYER
100
AcDbLine
 10
34.3250000000000313
 20
34.1049999999999969
 30
0.0
 11
34.3250000000000313
 21
30.8750000000000071
 31
0.0
  0
LINE
  5
168
100
AcDbEntity
  8
0
 62
256
370
-1
 48
1.0
  6
BYLAYER
100
AcDbLine
 10
3.7749999999999098
 20
34.1049999999999969
 30
0.0
 11
3.7749999999999098
 21
30.8750000000000071
 31
0.0
  0
LINE
  5
169
100
AcDbEntity
  8
0
 62
256
370
-1
 48
1.0
  6
BYLAYER
100
AcDbLine
 10
77.5937500000000142
 20
15.0550000000000104
 30
0.0
 11
77.5937500000000142
 21
11.8250000000000206
 31
0.0
  0
LINE
  5
16A
100
AcDbEntity
  8
0
 62
256
370
-1
 48
1.0
  6
BYLAYER
100
AcDbLine
 10
184.34375
 20
15.0549999999999891
 30
0.0
 11
184.34375
 21
11.8249999999999993
 31
0.0
  0
LINE
  5
16B
100
AcDbEntity
  8
0
 62
256
370
-1
 48
1.0
  6
BYLAYER
100
AcDbLine
 10
281.9750000000000227
 20
88.0250000000000057
 30
0.0
 11
282.8000000000000114
 21
88.0250000000000057
 31
0.0
  0
LINE
  5
16C
100
AcDbEntity
  8
0
 62
256
370
-1
 48
1.0
  6
BYLAYER
100
AcDbLine
 10
251.4249999999998977
 20
88.0250000000000057
 30
0.0
 11
250.5999999999999659
 21
88.0250000000000057
 31
0.0
  0
LINE
  5
16D
100
AcDbEntity
  8
0
 62
256
370
-1
 48
1.0
  6
BYLAYER
100
AcDbLine
 10
279.5937500000000568
 20
49.9250000000000185
 30
0.0
 11
280.4187500000000455
 21
49.9250000000000185
 31
0.0
  0
LINE
  5
16E
100
AcDbEntity
  8
0
 62
256
370
-1
 48
1.0
  6
BYLAYER
100
AcDbLine
 10
249.0437499999999318
 20
49.9250000000000185
 30
0.0
 11
248.21875
 21
49.9250000000000185
 31
0.0
  0
LINE
  5
16F
100
AcDbEntity
  8
0
 62
256
370
-1
 48
1.0
  6
BYLAYER
100
AcDbLine
 10
34.3250000000000313
 20
30.8750000000000071
 30
0.0
 11
35.1500000000000199
 21
30.8750000000000071
 31
0.0
  0
LINE
  5
170
100
AcDbEntity
  8
0
 62
256
370
-1
 48
1.0
  6
BYLAYER
100
AcDbLine
 10
3.7749999999999098
 20
30.8750000000000071
 30
0.0
 11
2.949999999999978
 21
30.8750000000000071
 31
0.0
  0
LINE
  5
171
100
AcDbEntity
  8
0
 62
256
370
-1
 48
1.0
  6
BYLAYER
100
AcDbLine
 10
77.5937500000000142
 20
11.8250000000000206
 30
0.0
 11
76.7687500000000824
 21
11.8250000000000206
 31
0.0
  0
LINE
  5
172
100
AcDbEntity
  8
0
 62
256
370
-1
 48
1.0
  6
BYLAYER
100
AcDbLine
 10
184.34375
 20
11.8249999999999993
 30
0.0
 11
185.1687499999999886
 21
11.8249999999999993
 31
0.0
  0
LINE
  5
173
100
AcDbEntity
  8
0
 62
256
370
-1
 48
1.0
  6
BYLAYER
100
AcDbLine
 10
282.8000000000000114
 20
88.0250000000000057
 30
0.0
 11
282.8000000000000114
 21
85.2249999999999943
 31
0.0
  0
LINE
  5
174
100
AcDbEntity
  8
0
 62
256
370
-1
 48
1.0
  6
BYLAYER
100
AcDbLine
 10
250.5999999999999659
 20
88.0250000000000057
 30
0.0
 11
250.5999999999999659
 21
85.2249999999999943
 31
0.0
  0
LINE
  5
175
100
AcDbEntity
  8
0
 62
256
370
-1
 48
1.0
  6
BYLAYER
100
AcDbLine
 10
280.4187500000000455
 20
49.9250000000000185
 30
0.0
 11
280.4187500000000455
 21
47.1250000000000071
 31
0.0
  0
LINE
  5
176
100
AcDbEntity
  8
0
 62
256
370
-1
 48
1.0
  6
BYLAYER
100
AcDbLine
 10
248.21875
 20
49.9250000000000185
 30
0.0
 11
248.21875
 21
47.1250000000000071
 31
0.0
  0
LINE
  5
177
100
AcDbEntity
  8
0
 62
256
370
-1
 48
1.0
  6
BYLAYER
100
AcDbLine
 10
35.1500000000000199
 20
30.8750000000000071
 30
0.0
 11
35.1500000000000199
 21
28.0749999999999957
 31
0.0
  0
LINE
  5
178
100
AcDbEntity
  8
0
 62
256
370
-1
 48
1.0
  6
BYLAYER
100
AcDbLine
 10
2.949999999999978
 20
30.8750000000000071
 30
0.0
 11
2.949999999999978
 21
28.0749999999999957
 31
0.0
  0
LINE
  5
179
100
AcDbEntity
  8
0
 62
256
370
-1
 48
1.0
  6
BYLAYER
100
AcDbLine
 10
76.7687500000000824
 20
11.8250000000000206
 30
0.0
 11
76.7687500000000824
 21
9.0250000000000092
 31
0.0
  0
LINE
  5
17A
100
AcDbEntity
  8
0
 62
256
370
-1
 48
1.0
  6
BYLAYER
100
AcDbLine
 10
185.1687499999999886
 20
11.8249999999999993
 30
0.0
 11
185.1687499999999886
 21
9.0249999999999879
 31
0.0
  0
LINE
  5
17B
100
AcDbEntity
  8
0
 62
256
370
-1
 48
1.0
  6
BYLAYER
100
AcDbLine
 10
282.8000000000000114
 20
85.2249999999999943
 30
0.0
 11
281.9750000000000227
 21
85.2249999999999943
 31
0.0
  0
LINE
  5
17C
100
AcDbEntity
  8
0
 62
256
370
-1
 48
1.0
  6
BYLAYER
100
AcDbLine
 10
250.5999999999999659
 20
85.2249999999999943
 30
0.0
 11
251.4249999999998977
 21
85.2249999999999943
 31
0.0
  0
LINE
  5
17D
100
AcDbEntity
  8
0
 62
256
370
-1
 48
1.0
  6
BYLAYER
100
AcDbLine
 10
280.4187500000000455
 20
47.1250000000000071
 30
0.0
 11
279.5937500000000568
 21
47.1250000000000071
 31
0.0
  0
LINE
  5
17E
100
AcDbEntity
  8
0
 62
256
370
-1
 48
1.0
  6
BYLAYER
100
AcDbLine
 10
248.21875
 20
47.1250000000000071
 30
0.0
 11
249.0437499999999318
 21
47.1250000000000071
 31
0.0
  0
LINE
  5
17F
100
AcDbEntity
  8
0
 62
256
370
-1
 48
1.0
  6
BYLAYER
100
AcDbLine
 10
35.1500000000000199
 20
28.0749999999999957
 30
0.0
 11
34.3250000000000313
 21
28.0749999999999957
 31
0.0
  0
LINE
  5
180
100
AcDbEntity
  8
0
 62
256
370
-1
 48
1.0
  6
BYLAYER
100
AcDbLine
 10
2.949999999999978
 20
28.0749999999999957
 30
0.0
 11
3.7749999999999098
 21
28.0749999999999957
 31
0.0
  0
LINE
  5
181
100
AcDbEntity
  8
0
 62
256
370
-1
 48
1.0
  6
BYLAYER
100
AcDbLine
 10
76.7687500000000824
 20
9.0250000000000092
 30
0.0
 11
77.5937500000000142
 21
9.0250000000000092
 31
0.0
  0
LINE
  5
182
100
AcDbEntity
  8
0
 62
256
370
-1
 48
1.0
  6
BYLAYER
100
AcDbLine
 10
185.1687499999999886
 20
9.0249999999999879
 30
0.0
 11
184.34375
 21
9.0249999999999879
 31
0.0
  0
LINE
  5
183
100
AcDbEntity
  8
0
 62
256
370
-1
 48
1.0
  6
BYLAYER
100
AcDbLine
 10
281.9750000000000227
 20
85.2249999999999943
 30
0.0
 11
281.9750000000000227
 21
78.9549999999999983
 31
0.0
  0
LINE
  5
184
100
AcDbEntity
  8
0
 62
256
370
-1
 48
1.0
  6
BYLAYER
100
AcDbLine
 10
251.4249999999998977
 20
85.2249999999999943
 30
0.0
 11
251.4249999999998977
 21
78.9549999999999983
 31
0.0
  0
LINE
  5
185
100
AcDbEntity
  8
0
 62
256
370
-1
 48
1.0
  6
BYLAYER
100
AcDbLine
 10
279.5937500000000568
 20
47.1250000000000071
 30
0.0
 11
279.5937500000000568
 21
40.8550000000000111
 31
0.0
  0
LINE
  5
186
100
AcDbEntity
  8
0
 62
256
370
-1
 48
1.0
  6
BYLAYER
100
AcDbLine
 10
249.0437499999999318
 20
47.1250000000000071
 30
0.0
 11
249.0437499999999318
 21
40.8550000000000111
 31
0.0
  0
LINE
  5
187
100
AcDbEntity
  8
0
 62
256
370
-1
 48
1.0
  6
BYLAYER
100
AcDbLine
 10
34.3250000000000313
 20
28.0749999999999957
 30
0.0
 11
34.3250000000000313
 21
21.8049999999999997
 31
0.0
  0
LINE
  5
188
100
AcDbEntity
  8
0
 62
256
370
-1
 48
1.0
  6
BYLAYER
100
AcDbLine
 10
3.7749999999999098
 20
28.0749999999999957
 30
0.0
 11
3.7749999999999098
 21
21.8049999999999997
 31
0.0
  0
LINE
  5
189
100
AcDbEntity
  8
0
 62
256
370
-1
 48
1.0
  6
BYLAYER
100
AcDbLine
 10
77.5937500000000142
 20
9.0250000000000092
 30
0.0
 11
77.5937500000000142
 21
2.7550000000000132
 31
0.0
  0
LINE
  5
18A
100
AcDbEntity
  8
0
 62
256
370
-1
 48
1.0
  6
BYLAYER
100
AcDbLine
 10
184.34375
 20
9.0249999999999879
 30
0.0
 11
184.34375
 21
2.7549999999999919
 31
0.0
  0
LINE
  5
18B
100
AcDbEntity
  8
0
 62
256
370
-1
 48
1.0
  6
BYLAYER
100
AcDbLine
 10
281.9750000000000227
 20
78.9549999999999983
 30
0.0
 11
280.25
 21
78.9549999999999983
 31
0.0
  0
LINE
  5
18C
100
AcDbEntity
  8
0
 62
256
370
-1
 48
1.0
  6
BYLAYER
100
AcDbLine
 10
251.4249999999998977
 20
78.9549999999999983
 30
0.0
 11
253.1499999999999204
 21
78.9549999999999983
 31
0.0
  0
LINE
  5
18D
100
AcDbEntity
  8
0
 62
256
370
-1
 48
1.0
  6
BYLAYER
100
AcDbLine
 10
279.5937500000000568
 20
40.8550000000000111
 30
0.0
 11
277.8687500000000341
 21
40.8550000000000111
 31
0.0
  0
LINE
  5
18E
100
AcDbEntity
  8
0
 62
256
370
-1
 48
1.0
  6
BYLAYER
100
AcDbLine
 10
249.0437499999999318
 20
40.8550000000000111
 30
0.0
 11
250.7687499999999545
 21
40.8550000000000111
 31
0.0
  0
LINE
  5
18F
100
AcDbEntity
  8
0
 62
256
370
-1
 48
1.0
  6
BYLAYER
100
AcDbLine
 10
34.3250000000000313
 20
21.8049999999999997
 30
0.0
 11
32.6000000000000085
 21
21.8049999999999997
 31
0.0
  0
LINE
  5
190
100
AcDbEntity
  8
0
 62
256
370
-1
 48
1.0
  6
BYLAYER
100
AcDbLine
 10
3.7749999999999098
 20
21.8049999999999997
 30
0.0
 11
5.4999999999999325
 21
21.8049999999999997
 31
0.0
  0
LINE
  5
191
100
AcDbEntity
  8
0
 62
256
370
-1
 48
1.0
  6
BYLAYER
100
AcDbLine
 10
77.5937500000000142
 20
2.7550000000000132
 30
0.0
 11
79.3187500000000369
 21
2.7550000000000132
 31
0.0
  0
LINE
  5
192
100
AcDbEntity
  8
0
 62
256
370
-1
 48
1.0
  6
BYLAYER
100
AcDbLine
 10
184.34375
 20
2.7549999999999919
 30
0.0
 11
182.6187499999999773
 21
2.7549999999999919
 31
0.0
  0
LINE
  5
193
100
AcDbEntity
  8
0
 62
256
370
-1
 48
1.0
  6
BYLAYER
100
AcDbLine
 10
280.25
 20
78.9549999999999983
 30
0.0
 11
280.25
 21
77.7549999999999955
 31
0.0
  0
LINE
  5
194
100
AcDbEntity
  8
0
 62
256
370
-1
 48
1.0
  6
BYLAYER
100
AcDbLine
 10
253.1499999999999204
 20
78.9549999999999983
 30
0.0
 11
253.1499999999999204
 21
77.7549999999999955
 31
0.0
  0
LINE
  5
195
100
AcDbEntity
  8
0
 62
256
370
-1
 48
1.0
  6
BYLAYER
100
AcDbLine
 10
277.8687500000000341
 20
40.8550000000000111
 30
0.0
 11
277.8687500000000341
 21
39.6550000000000082
 31
0.0
  0
LINE
  5
196
100
AcDbEntity
  8
0
 62
256
370
-1
 48
1.0
  6
BYLAYER
100
AcDbLine
 10
250.7687499999999545
 20
40.8550000000000111
 30
0.0
 11
250.7687499999999545
 21
39.6550000000000082
 31
0.0
  0
LINE
  5
197
100
AcDbEntity
  8
0
 62
256
370
-1
 48
1.0
  6
BYLAYER
100
AcDbLine
 10
32.6000000000000085
 20
21.8049999999999997
 30
0.0
 11
32.6000000000000085
 21
20.6049999999999969
 31
0.0
  0
LINE
  5
198
100
AcDbEntity
  8
0
 62
256
370
-1
 48
1.0
  6
BYLAYER
100
AcDbLine
 10
5.4999999999999325
 20
21.8049999999999997
 30
0.0
 11
5.4999999999999325
 21
20.6049999999999969
 31
0.0
  0
LINE
  5
199
100
AcDbEntity
  8
0
 62
256
370
-1
 48
1.0
  6
BYLAYER
100
AcDbLine
 10
79.3187500000000369
 20
2.7550000000000132
 30
0.0
 11
79.3187500000000369
 21
1.5550000000000104
 31
0.0
  0
LINE
  5
19A
100
AcDbEntity
  8
0
 62
256
370
-1
 48
1.0
  6
BYLAYER
100
AcDbLine
 10
182.6187499999999773
 20
2.7549999999999919
 30
0.0
 11
182.6187499999999773
 21
1.5549999999999891
 31
0.0
  0
LINE
  5
19B
100
AcDbEntity
  8
0
 62
256
370
-1
 48
1.0
  6
BYLAYER
100
AcDbLine
 10
280.25
 20
77.7549999999999955
 30
0.0
 11
276.9499999999999886
 21
77.7549999999999955
 31
0.0
  0
LINE
  5
19C
100
AcDbEntity
  8
0
 62
256
370
-1
 48
1.0
  6
BYLAYER
100
AcDbLine
 10
253.1499999999999204
 20
77.7549999999999955
 30
0.0
 11
256.4499999999999886
 21
77.7549999999999955
 31
0.0
  0
LINE
  5
19D
100
AcDbEntity
  8
0
 62
256
370
-1
 48
1.0
  6
BYLAYER
100
AcDbLine
 10
277.8687500000000341
 20
39.6550000000000082
 30
0.0
 11
274.5687500000000227
 21
39.6550000000000082
 31
0.0
  0
LINE
  5
19E
100
AcDbEntity
  8
0
 62
256
370
-1
 48
1.0
  6
BYLAYER
100
AcDbLine
 10
250.7687499999999545
 20
39.6550000000000082
 30
0.0
 11
254.0687500000000227
 21
39.6550000000000082
 31
0.0
  0
LINE
  5
19F
100
AcDbEntity
  8
0
 62
256
370
-1
 48
1.0
  6
BYLAYER
100
AcDbLine
 10
32.6000000000000085
 20
20.6049999999999969
 30
0.0
 11
29.3000000000000007
 21
20.6049999999999969
 31
0.0
  0
LINE
  5
1A0
100
AcDbEntity
  8
0
 62
256
370
-1
 48
1.0
  6
BYLAYER
100
AcDbLine
 10
5.4999999999999325
 20
20.6049999999999969
 30
0.0
 11
8.8000000000000007
 21
20.6049999999999969
 31
0.0
  0
LINE
  5
1A1
100
AcDbEntity
  8
0
 62
256
370
-1
 48
1.0
  6
BYLAYER
100
AcDbLine
 10
79.3187500000000369
 20
1.5550000000000104
 30
0.0
 11
82.6187500000001052
 21
1.5550000000000104
 31
0.0
  0
LINE
  5
1A2
100
AcDbEntity
  8
0
 62
256
370
-1
 48
1.0
  6
BYLAYER
100
AcDbLine
 10
182.6187499999999773
 20
1.5549999999999891
 30
0.0
 11
179.3187499999999659
 21
1.5549999999999891
 31
0.0
  0
LINE
  5
1A3
100
AcDbEntity
  8
0
 62
256
370
-1
 48
1.0
  6
BYLAYER
100
AcDbLine
 10
276.9499999999999886
 20
77.7549999999999955
 30
0.0
 11
276.9499999999999886
 21
78.9549999999999983
 31
0.0
  0
LINE
  5
1A4
100
AcDbEntity
  8
0
 62
256
370
-1
 48
1.0
  6
BYLAYER
100
AcDbLine
 10
256.4499999999999886
 20
77.7549999999999955
 30
0.0
 11
256.4499999999999886
 21
78.9549999999999983
 31
0.0
  0
LINE
  5
1A5
100
AcDbEntity
  8
0
 62
256
370
-1
 48
1.0
  6
BYLAYER
100
AcDbLine
 10
274.5687500000000227
 20
39.6550000000000082
 30
0.0
 11
274.5687500000000227
 21
40.8550000000000111
 31
0.0
  0
LINE
  5
1A6
100
AcDbEntity
  8
0
 62
256
370
-1
 48
1.0
  6
BYLAYER
100
AcDbLine
 10
254.0687500000000227
 20
39.6550000000000082
 30
0.0
 11
254.0687500000000227
 21
40.8550000000000111
 31
0.0
  0
LINE
  5
1A7
100
AcDbEntity
  8
0
 62
256
370
-1
 48
1.0
  6
BYLAYER
100
AcDbLine
 10
29.3000000000000007
 20
20.6049999999999969
 30
0.0
 11
29.3000000000000007
 21
21.8049999999999997
 31
0.0
  0
LINE
  5
1A8
100
AcDbEntity
  8
0
 62
256
370
-1
 48
1.0
  6
BYLAYER
100
AcDbLine
 10
8.8000000000000007
 20
20.6049999999999969
 30
0.0
 11
8.8000000000000007
 21
21.8049999999999997
 31
0.0
  0
LINE
  5
1A9
100
AcDbEntity
  8
0
 62
256
370
-1
 48
1.0
  6
BYLAYER
100
AcDbLine
 10
82.6187500000001052
 20
1.5550000000000104
 30
0.0
 11
82.6187500000001052
 21
2.7550000000000132
 31
0.0
  0
LINE
  5
1AA
100
AcDbEntity
  8
0
 62
256
370
-1
 48
1.0
  6
BYLAYER
100
AcDbLine
 10
179.3187499999999659
 20
1.5549999999999891
 30
0.0
 11
179.3187499999999659
 21
2.7549999999999919
 31
0.0
  0
LINE
  5
1AB
100
AcDbEntity
  8
0
 62
256
370
-1
 48
1.0
  6
BYLAYER
100
AcDbLine
 10
276.9499999999999886
 20
78.9549999999999983
 30
0.0
 11
275.2250000000000227
 21
78.9549999999999983
 31
0.0
  0
LINE
  5
1AC
100
AcDbEntity
  8
0
 62
256
370
-1
 48
1.0
  6
BYLAYER
100
AcDbLine
 10
256.4499999999999886
 20
78.9549999999999983
 30
0.0
 11
258.1749999999999545
 21
78.9549999999999983
 31
0.0
  0
LINE
  5
1AD
100
AcDbEntity
  8
0
 62
256
370
-1
 48
1.0
  6
BYLAYER
100
AcDbLine
 10
274.5687500000000227
 20
40.8550000000000111
 30
0.0
 11
272.8437500000000568
 21
40.8550000000000111
 31
0.0
  0
LINE
  5
1AE
100
AcDbEntity
  8
0
 62
256
370
-1
 48
1.0
  6
BYLAYER
100
AcDbLine
 10
254.0687500000000227
 20
40.8550000000000111
 30
0.0
 11
255.7937499999999886
 21
40.8550000000000111
 31
0.0
  0
LINE
  5
1AF
100
AcDbEntity
  8
0
 62
256
370
-1
 48
1.0
  6
BYLAYER
100
AcDbLine
 10
29.3000000000000007
 20
21.8049999999999997
 30
0.0
 11
27.5750000000000348
 21
21.8049999999999997
 31
0.0
  0
LINE
  5
1B0
100
AcDbEntity
  8
0
 62
256
370
-1
 48
1.0
  6
BYLAYER
100
AcDbLine
 10
8.8000000000000007
 20
21.8049999999999997
 30
0.0
 11
10.5249999999999666
 21
21.8049999999999997
 31
0.0
  0
LINE
  5
1B1
100
AcDbEntity
  8
0
 62
256
370
-1
 48
1.0
  6
BYLAYER
100
AcDbLine
 10
82.6187500000001052
 20
2.7550000000000132
 30
0.0
 11
84.3437500000000711
 21
2.7550000000000132
 31
0.0
  0
LINE
  5
1B2
100
AcDbEntity
  8
0
 62
256
370
-1
 48
1.0
  6
BYLAYER
100
AcDbLine
 10
179.3187499999999659
 20
2.7549999999999919
 30
0.0
 11
177.59375
 21
2.7549999999999919
 31
0.0
  0
LINE
  5
1B3
100
AcDbEntity
  8
0
 62
256
370
-1
 48
1.0
  6
BYLAYER
100
AcDbLine
 10
275.2250000000000227
 20
78.9549999999999983
 30
0.0
 11
275.2250000000000227
 21
83.4249999999999972
 31
0.0
  0
LINE
  5
1B4
100
AcDbEntity
  8
0
 62
256
370
-1
 48
1.0
  6
BYLAYER
100
AcDbLine
 10
258.1749999999999545
 20
78.9549999999999983
 30
0.0
 11
258.1749999999999545
 21
83.4249999999999972
 31
0.0
  0
LINE
  5
1B5
100
AcDbEntity
  8
0
 62
256
370
-1
 48
1.0
  6
BYLAYER
100
AcDbLine
 10
272.8437500000000568
 20
40.8550000000000111
 30
0.0
 11
272.8437500000000568
 21
45.3250000000000099
 31
0.0
  0
LINE
  5
1B6
100
AcDbEntity
  8
0
 62
256
370
-1
 48
1.0
  6
BYLAYER
100
AcDbLine
 10
255.7937499999999886
 20
40.8550000000000111
 30
0.0
 11
255.7937499999999886
 21
45.3250000000000099
 31
0.0
  0
LINE
  5
1B7
100
AcDbEntity
  8
0
 62
256
370
-1
 48
1.0
  6
BYLAYER
100
AcDbLine
 10
27.5750000000000348
 20
21.8049999999999997
 30
0.0
 11
27.5750000000000348
 21
26.2749999999999986
 31
0.0
  0
LINE
  5
1B8
100
AcDbEntity
  8
0
 62
256
370
-1
 48
1.0
  6
BYLAYER
100
AcDbLine
 10
10.5249999999999666
 20
21.8049999999999997
 30
0.0
 11
10.5249999999999666
 21
26.2749999999999986
 31
0.0
  0
LINE
  5
1B9
100
AcDbEntity
  8
0
 62
256
370
-1
 48
1.0
  6
BYLAYER
100
AcDbLine
 10
84.3437500000000711
 20
2.7550000000000132
 30
0.0
 11
84.3437500000000711
 21
7.2250000000000121
 31
0.0
  0
LINE
  5
1BA
100
AcDbEntity
  8
0
 62
256
370
-1
 48
1.0
  6
BYLAYER
100
AcDbLine
 10
177.59375
 20
2.7549999999999919
 30
0.0
 11
177.59375
 21
7.2249999999999908
 31
0.0
  0
LINE
  5
1BB
100
AcDbEntity
  8
0
 62
256
370
-1
 48
1.0
  6
BYLAYER
100
AcDbLine
 10
275.2250000000000227
 20
83.4249999999999972
 30
0.0
 11
273.6999999999999886
 21
83.4249999999999972
 31
0.0
  0
LINE
  5
1BC
100
AcDbEntity
  8
0
 62
256
370
-1
 48
1.0
  6
BYLAYER
100
AcDbLine
 10
258.1749999999999545
 20
83.4249999999999972
 30
0.0
 11
259.6999999999999886
 21
83.4249999999999972
 31
0.0
  0
LINE
  5
1BD
100
AcDbEntity
  8
0
 62
256
370
-1
 48
1.0
  6
BYLAYER
100
AcDbLine
 10
272.8437500000000568
 20
45.3250000000000099
 30
0.0
 11
271.3187500000000227
 21
45.3250000000000099
 31
0.0
  0
LINE
  5
1BE
100
AcDbEntity
  8
0
 62
256
370
-1
 48
1.0
  6
BYLAYER
100
AcDbLine
 10
255.7937499999999886
 20
45.3250000000000099
 30
0.0
 11
257.3187500000000227
 21
45.3250000000000099
 31
0.0
  0
LINE
  5
1BF
100
AcDbEntity
  8
0
 62
256
370
-1
 48
1.0
  6
BYLAYER
100
AcDbLine
 10
27.5750000000000348
 20
26.2749999999999986
 30
0.0
 11
26.0500000000000007
 21
26.2749999999999986
 31
0.0
  0
LINE
  5
1C0
100
AcDbEntity
  8
0
 62
256
370
-1
 48
1.0
  6
BYLAYER
100
AcDbLine
 10
10.5249999999999666
 20
26.2749999999999986
 30
0.0
 11
12.0500000000000007
 21
26.2749999999999986
 31
0.0
  0
LINE
  5
1C1
100
AcDbEntity
  8
0
 62
256
370
-1
 48
1.0
  6
BYLAYER
100
AcDbLine
 10
273.6999999999999886
 20
83.4249999999999972
 30
0.0
 11
273.6999999999999886
 21
78.7249999999999943
 31
0.0
  0
LINE
  5
1C2
100
AcDbEntity
  8
0
 62
256
370
-1
 48
1.0
  6
BYLAYER
100
AcDbLine
 10
271.3187500000000227
 20
45.3250000000000099
 30
0.0
 11
271.3187500000000227
 21
40.6250000000000071
 31
0.0
  0
LINE
  5
1C3
100
AcDbEntity
  8
0
 62
256
370
-1
 48
1.0
  6
BYLAYER
100
AcDbLine
 10
26.0500000000000007
 20
26.2749999999999986
 30
0.0
 11
26.0500000000000007
 21
21.5749999999999957
 31
0.0
  0
LINE
  5
1C4
100
AcDbEntity
  8
0
 62
256
370
-1
 48
1.0
  6
BYLAYER
100
AcDbLine
 10
137.96875
 20
7.2250000000000014
 30
0.0
 11
137.96875
 21
2.5249999999999986
 31
0.0
  0
LINE
  5
1C5
100
AcDbEntity
  8
0
 62
256
370
-1
 48
1.0
  6
BYLAYER
100
AcDbLine
 10
273.6999999999999886
 20
78.7249999999999943
 30
0.0
 11
259.6999999999999886
 21
78.7249999999999943
 31
0.0
  0
LINE
  5
1C6
100
AcDbEntity
  8
0
 62
256
370
-1
 48
1.0
  6
BYLAYER
100
AcDbLine
 10
271.3187500000000227
 20
40.6250000000000071
 30
0.0
 11
257.3187500000000227
 21
40.6250000000000071
 31
0.0
  0
LINE
  5
1C7
100
AcDbEntity
  8
0
 62
256
370
-1
 48
1.0
  6
BYLAYER
100
AcDbLine
 10
26.0500000000000007
 20
21.5749999999999957
 30
0.0
 11
12.0500000000000007
 21
21.5749999999999957
 31
0.0
  0
LINE
  5
1C8
100
AcDbEntity
  8
0
 62
256
370
-1
 48
1.0
  6
BYLAYER
100
AcDbLine
 10
137.96875
 20
2.5249999999999986
 30
0.0
 11
123.9687500000000142
 21
2.5249999999999986
 31
0.0
  0
LINE
  5
1C9
100
AcDbEntity
  8
0
 62
256
370
-1
 48
1.0
  6
BYLAYER
100
AcDbLine
 10
259.6999999999999886
 20
78.7249999999999943
 30
0.0
 11
259.6999999999999886
 21
83.4249999999999972
 31
0.0
  0
LINE
  5
1CA
100
AcDbEntity
  8
0
 62
256
370
-1
 48
1.0
  6
BYLAYER
100
AcDbLine
 10
257.3187500000000227
 20
40.6250000000000071
 30
0.0
 11
257.3187500000000227
 21
45.3250000000000099
 31
0.0
  0
LINE
  5
1CB
100
AcDbEntity
  8
0
 62
256
370
-1
 48
1.0
  6
BYLAYER
100
AcDbLine
 10
12.0500000000000007
 20
21.5749999999999957
 30
0.0
 11
12.0500000000000007
 21
26.2749999999999986
 31
0.0
  0
LINE
  5
1CC
100
AcDbEntity
  8
0
 62
256
370
-1
 48
1.0
  6
BYLAYER
100
AcDbLine
 10
123.9687500000000142
 20
2.5249999999999986
 30
0.0
 11
123.9687500000000142
 21
7.2250000000000014
 31
0.0
  0
LINE
  5
1CD
100
AcDbEntity
  8
0
 62
256
370
-1
 48
1.0
  6
BYLAYER
100
AcDbLine
 10
251.4249999999998977
 20
91.2549999999999955
 30
0.0
 11
258.1749999999999545
 21
91.2549999999999955
 31
0.0
  0
LINE
  5
1CE
100
AcDbEntity
  8
0
 62
256
370
-1
 48
1.0
  6
BYLAYER
100
AcDbLine
 10
249.0437499999999318
 20
53.1550000000000082
 30
0.0
 11
255.7937499999999886
 21
53.1550000000000082
 31
0.0
  0
LINE
  5
1CF
100
AcDbEntity
  8
0
 62
256
370
-1
 48
1.0
  6
BYLAYER
100
AcDbLine
 10
3.7749999999999098
 20
34.1049999999999969
 30
0.0
 11
10.5249999999999666
 21
34.1049999999999969
 31
0.0
  0
LINE
  5
1D0
100
AcDbEntity
  8
0
 62
256
370
-1
 48
1.0
  6
BYLAYER
100
AcDbLine
 10
77.5937500000000142
 20
15.0550000000000104
 30
0.0
 11
84.3437500000000711
 21
15.0550000000000104
 31
0.0
  0
LINE
  5
1D1
100
AcDbEntity
  8
0
 62
256
370
-1
 48
1.0
  6
BYLAYER
100
AcDbLine
 10
275.2250000000000227
 20
91.2549999999999955
 30
0.0
 11
281.9750000000000227
 21
91.2549999999999955
 31
0.0
  0
LINE
  5
1D2
100
AcDbEntity
  8
0
 62
256
370
-1
 48
1.0
  6
BYLAYER
100
AcDbLine
 10
272.8437500000000568
 20
53.1550000000000082
 30
0.0
 11
279.5937500000000568
 21
53.1550000000000082
 31
0.0
  0
LINE
  5
1D3
100
AcDbEntity
  8
0
 62
256
370
-1
 48
1.0
  6
BYLAYER
100
AcDbLine
 10
27.5750000000000348
 20
34.1049999999999969
 30
0.0
 11
34.3250000000000313
 21
34.1049999999999969
 31
0.0
  0
LINE
  5
1D4
100
AcDbEntity
  8
0
 62
256
370
-1
 48
1.0
  6
BYLAYER
100
AcDbLine
 10
177.59375
 20
15.0549999999999891
 30
0.0
 11
184.34375
 21
15.0549999999999891
 31
0.0
  0
LINE
  5
1D5
100
AcDbEntity
  8
0
 62
256
370
-1
 48
1.0
  6
BYLAYER
100
AcDbLine
 10
259.6999999999999886
 20
92.7249999999999943
 30
0.0
 11
259.6999999999999886
 21
88.0250000000000057
 31
0.0
  0
LINE
  5
1D6
100
AcDbEntity
  8
0
 62
256
370
-1
 48
1.0
  6
BYLAYER
100
AcDbLine
 10
257.3187500000000227
 20
54.6250000000000071
 30
0.0
 11
257.3187500000000227
 21
49.9250000000000185
 31
0.0
  0
LINE
  5
1D7
100
AcDbEntity
  8
0
 62
256
370
-1
 48
1.0
  6
BYLAYER
100
AcDbLine
 10
12.0500000000000007
 20
35.5749999999999957
 30
0.0
 11
12.0500000000000007
 21
30.8750000000000071
 31
0.0
  0
LINE
  5
1D8
100
AcDbEntity
  8
0
 62
256
370
-1
 48
1.0
  6
BYLAYER
100
AcDbLine
 10
123.9687500000000142
 20
16.5249999999999986
 30
0.0
 11
123.9687500000000142
 21
11.8250000000000099
 31
0.0
  0
LINE
  5
1D9
100
AcDbEntity
  8
0
 62
256
370
-1
 48
1.0
  6
BYLAYER
100
AcDbLine
 10
137.96875
 20
11.8250000000000099
 30
0.0
 11
177.59375
 21
11.8249999999999993
 31
0.0
  0
LINE
  5
1DA
100
AcDbEntity
  8
0
 62
256
370
-1
 48
1.0
  6
BYLAYER
100
AcDbLine
 10
137.96875
 20
7.2250000000000014
 30
0.0
 11
177.59375
 21
7.2249999999999908
 31
0.0
  0
LINE
  5
1DB
100
AcDbEntity
  8
0
 62
256
370
-1
 48
1.0
  6
BYLAYER
100
AcDbLine
 10
84.3437500000000142
 20
11.8250000000000206
 30
0.0
 11
123.9687500000000142
 21
11.8250000000000099
 31
0.0
  0
LINE
  5
1DC
100
AcDbEntity
  8
0
 62
256
370
-1
 48
1.0
  6
BYLAYER
100
AcDbLine
 10
84.3437500000000142
 20
7.2250000000000121
 30
0.0
 11
123.9687500000000142
 21
7.2250000000000014
 31
0.0
  0
ENDSEC
  0
SECTION
  2
OBJECTS
  0
DICTIONARY
  5
C
100
AcDbDictionary
280
0
281
1
  3
ACAD_GROUP
350
D
  3
ACAD_LAYOUT
350
1A
  3
ACAD_MLINESTYLE
350
17
  3
ACAD_PLOTSETTINGS
350
19
  3
ACAD_PLOTSTYLENAME
350
E
  3
AcDbVariableDictionary
350
1DD
  3
QCAD_OBJECTS
350
1DE
  0
DICTIONARY
  5
D
100
AcDbDictionary
280
0
281
1
  0
ACDBDICTIONARYWDFLT
  5
E
100
AcDbDictionary
281
1
  3
Normal
350
F
100
AcDbDictionaryWithDefault
340
F
  0
ACDBPLACEHOLDER
  5
F
  0
DICTIONARY
  5
17
100
AcDbDictionary
280
0
281
1
  3
Standard
350
18
  0
MLINESTYLE
  5
18
100
AcDbMlineStyle
  2
STANDARD
 70
0
  3

 62
256
 51
90.0
 52
90.0
 71
2
 49
0.5
 62
256
  6
BYLAYER
 49
-0.5
 62
256
  6
BYLAYER
  0
DICTIONARY
  5
19
100
AcDbDictionary
280
0
281
1
  0
DICTIONARY
  5
1A
100
AcDbDictionary
281
1
  3
Layout1
350
1E
  3
Layout2
350
26
  3
Model
350
22
  0
LAYOUT
  5
1E
100
AcDbPlotSettings
  1

  2
none_device
  4

  6

 40
0.0
 41
0.0
 42
0.0
 43
0.0
 44
0.0
 45
0.0
 46
0.0
 47
0.0
 48
0.0
 49
0.0
140
0.0
141
0.0
142
1.0
143
1.0
 70
688
 72
0
 73
0
 74
5
  7

 75
16
147
1.0
148
0.0
149
0.0
100
AcDbLayout
  1
Layout1
 70
1
 71
1
 10
0.0
 20
0.0
 11
420.0
 21
297.0
 12
0.0
 22
0.0
 32
0.0
 14
100000000000000000000.0
 24
100000000000000000000.0
 34
100000000000000000000.0
 15
-100000000000000000000.0
 25
-100000000000000000000.0
 35
-100000000000000000000.0
146
0.0
 13
0.0
 23
0.0
 33
0.0
 16
1.0
 26
0.0
 36
0.0
 17
0.0
 27
1.0
 37
0.0
 76
0
330
1B
  0
LAYOUT
  5
22
100
AcDbPlotSettings
  1

  2
none_device
  4

  6

 40
0.0
 41
0.0
 42
0.0
 43
0.0
 44
0.0
 45
0.0
 46
0.0
 47
0.0
 48
0.0
 49
0.0
140
0.0
141
0.0
142
1.0
143
1.0
 70
1712
 72
0
 73
0
 74
0
  7

 75
0
147
1.0
148
0.0
149
0.0
100
AcDbLayout
  1
Model
 70
1
 71
0
 10
0.0
 20
0.0
 11
12.0
 21
9.0
 12
0.0
 22
0.0
 32
0.0
 14
0.0
 24
0.0
 34
0.0
 15
0.0
 25
0.0
 35
0.0
146
0.0
 13
0.0
 23
0.0
 33
0.0
 16
1.0
 26
0.0
 36
0.0
 17
0.0
 27
1.0
 37
0.0
 76
0
330
1F
  0
LAYOUT
  5
26
100
AcDbPlotSettings
  1

  2
none_device
  4

  6

 40
0.0
 41
0.0
 42
0.0
 43
0.0
 44
0.0
 45
0.0
 46
0.0
 47
0.0
 48
0.0
 49
0.0
140
0.0
141
0.0
142
1.0
143
1.0
 70
688
 72
0
 73
0
 74
5
  7

 75
16
147
1.0
148
0.0
149
0.0
100
AcDbLayout
  1
Layout2
 70
1
 71
2
 10
0.0
 20
0.0
 11
12.0
 21
9.0
 12
0.0
 22
0.0
 32
0.0
 14
0.0
 24
0.0
 34
0.0
 15
0.0
 25
0.0
 35
0.0
146
0.0
 13
0.0
 23
0.0
 33
0.0
 16
1.0
 26
0.0
 36
0.0
 17
0.0
 27
1.0
 37
0.0
 76
0
330
23
  0
DICTIONARY
  5
1DD
100
AcDbDictionary
281
1
  3
DIMASSOC
350
1E0
  3
HIDETEXT
350
1DF
  0
DICTIONARYVAR
  5
1DF
100
DictionaryVariables
280
0
  1
2
  0
DICTIONARYVAR
  5
1E0
100
DictionaryVariables
280
0
  1
1
  0
DICTIONARY
  5
1DE
100
AcDbDictionary
281
1
  3
ColorSettings/BackgroundColor
350
1E1
  3
ColorSettings/ColorMode
350
1E2
  3
Grid/DisplayGrid00
350
1E3
  3
Grid/DisplayGrid01
350
1E4
  3
Grid/DisplayGrid02
350
1E5
  3
Grid/DisplayGrid03
350
1E6
  3
Grid/GridSpacingX00
350
1E7
  3
Grid/GridSpacingX01
350
1E8
  3
Grid/GridSpacingX02
350
1E9
  3
Grid/GridSpacingX03
350
1EA
  3
Grid/GridSpacingY00
350
1EB
  3
Grid/GridSpacingY01
350
1EC
  3
Grid/GridSpacingY02
350
1ED
  3
Grid/GridSpacingY03
350
1EE
  3
Grid/IsometricGrid00
350
1EF
  3
Grid/IsometricGrid01
350
1F0
  3
Grid/IsometricGrid02
350
1F1
  3
Grid/IsometricGrid03
350
1F2
  3
Grid/IsometricProjection00
350
1F3
  3
Grid/IsometricProjection01
350
1F4
  3
Grid/IsometricProjection02
350
1F5
  3
Grid/IsometricProjection03
350
1F6
  3
Grid/MetaGridSpacingX00
350
1F7
  3
Grid/MetaGridSpacingX01
350
1F8
  3
Grid/MetaGridSpacingX02
350
1F9
  3
Grid/MetaGridSpacingX03
350
1FA
  3
Grid/MetaGridSpacingY00
350
1FB
  3
Grid/MetaGridSpacingY01
350
1FC
  3
Grid/MetaGridSpacingY02
350
1FD
  3
Grid/MetaGridSpacingY03
350
1FE
  3
MultiPageSettings/Columns
350
1FF
  3
MultiPageSettings/GlueMarginsBottom
350
200
  3
MultiPageSettings/GlueMarginsLeft
350
201
  3
MultiPageSettings/GlueMarginsRight
350
202
  3
MultiPageSettings/GlueMarginsTop
350
203
  3
MultiPageSettings/PrintCropMarks
350
204
  3
MultiPageSettings/Rows
350
205
  3
PageSettings/OffsetX
350
206
  3
PageSettings/OffsetY
350
207
  3
PageSettings/PageOrientation
350
208
  3
PageSettings/PaperHeight
350
209
  3
PageSettings/PaperWidth
350
20A
  3
PageSettings/Scale
350
20B
  3
PageSettings/ShowPaperBorders
350
20C
  3
PageTagSettings/EnablePageTags
350
20D
  3
PageTagSettings/TagAlignment
350
20E
  3
PageTagSettings/TagFont
350
20F
  3
PageTagSettings/TagPosition
350
210
  3
QCADVersion
350
211
  3
UnitSettings/PaperUnit
350
212
  3
ViewportCenter
350
213
  3
ViewportHeight
350
214
  3
ViewportWidth
350
215
  0
XRECORD
  5
1E2
330
1DE
100
AcDbXrecord
280
1
1000
FullColor
  0
XRECORD
  5
1E3
330
1DE
100
AcDbXrecord
280
1
290
1
  0
XRECORD
  5
1E4
330
1DE
100
AcDbXrecord
280
1
290
1
  0
XRECORD
  5
1E5
330
1DE
100
AcDbXrecord
280
1
290
1
  0
XRECORD
  5
1E6
330
1DE
100
AcDbXrecord
280
1
290
1
  0
XRECORD
  5
1E7
330
1DE
100
AcDbXrecord
280
1
1000
auto
  0
XRECORD
  5
1E8
330
1DE
100
AcDbXrecord
280
1
1000
auto
  0
XRECORD
  5
1E9
330
1DE
100
AcDbXrecord
280
1
1000
auto
  0
XRECORD
  5
1EA
330
1DE
100
AcDbXrecord
280
1
1000
auto
  0
XRECORD
  5
1EB
330
1DE
100
AcDbXrecord
280
1
1000
auto
  0
XRECORD
  5
1EC
330
1DE
100
AcDbXrecord
280
1
1000
auto
  0
XRECORD
  5
1ED
330
1DE
100
AcDbXrecord
280
1
1000
auto
  0
XRECORD
  5
1EE
330
1DE
100
AcDbXrecord
280
1
1000
auto
  0
XRECORD
  5
1EF
330
1DE
100
AcDbXrecord
280
1
290
0
  0
XRECORD
  5
1F0
330
1DE
100
AcDbXrecord
280
1
290
0
  0
XRECORD
  5
1F1
330
1DE
100
AcDbXrecord
280
1
290
0
  0
XRECORD
  5
1F2
330
1DE
100
AcDbXrecord
280
1
290
0
  0
XRECORD
  5
1F3
330
1DE
100
AcDbXrecord
280
1
 90
65537
  0
XRECORD
  5
1F4
330
1DE
100
AcDbXrecord
280
1
 90
65537
  0
XRECORD
  5
1F5
330
1DE
100
AcDbXrecord
280
1
 90
65537
  0
XRECORD
  5
1F6
330
1DE
100
AcDbXrecord
280
1
 90
65537
  0
XRECORD
  5
1F7
330
1DE
100
AcDbXrecord
280
1
1000
auto
  0
XRECORD
  5
1F8
330
1DE
100
AcDbXrecord
280
1
1000
auto
  0
XRECORD
  5
1F9
330
1DE
100
AcDbXrecord
280
1
1000
auto
  0
XRECORD
  5
1FA
330
1DE
100
AcDbXrecord
280
1
1000
auto
  0
XRECORD
  5
1FB
330
1DE
100
AcDbXrecord
280
1
1000
auto
  0
XRECORD
  5
1FC
330
1DE
100
AcDbXrecord
280
1
1000
auto
  0
XRECORD
  5
1FD
330
1DE
100
AcDbXrecord
280
1
1000
auto
  0
XRECORD
  5
1FE
330
1DE
100
AcDbXrecord
280
1
1000
auto
  0
XRECORD
  5
1FF
330
1DE
100
AcDbXrecord
280
1
 90
1
  0
XRECORD
  5
200
330
1DE
100
AcDbXrecord
280
1
 40
10.0
  0
XRECORD
  5
201
330
1DE
100
AcDbXrecord
280
1
 40
10.0
  0
XRECORD
  5
202
330
1DE
100
AcDbXrecord
280
1
 40
10.0
  0
XRECORD
  5
203
330
1DE
100
AcDbXrecord
280
1
 40
10.0
  0
XRECORD
  5
204
330
1DE
100
AcDbXrecord
280
1
290
0
  0
XRECORD
  5
205
330
1DE
100
AcDbXrecord
280
1
 90
1
  0
XRECORD
  5
206
330
1DE
100
AcDbXrecord
280
1
 40
0.0
  0
XRECORD
  5
207
330
1DE
100
AcDbXrecord
280
1
 40
0.0
  0
XRECORD
  5
208
330
1DE
100
AcDbXrecord
280
1
1000
Portrait
  0
XRECORD
  5
209
330
1DE
100
AcDbXrecord
280
1
 40
297.0
  0
XRECORD
  5
20A
330
1DE
100
AcDbXrecord
280
1
 40
210.0
  0
XRECORD
  5
20B
330
1DE
100
AcDbXrecord
280
1
1000
1:1
  0
XRECORD
  5
20C
330
1DE
100
AcDbXrecord
280
1
290
1
  0
XRECORD
  5
20D
330
1DE
100
AcDbXrecord
280
1
290
0
  0
XRECORD
  5
20E
330
1DE
100
AcDbXrecord
280
1
1000
Inside
  0
XRECORD
  5
20F
330
1DE
100
AcDbXrecord
280
1
1000
Arial,10,-1,5,400,0,0,0,0,0,0,0,0,0,0,1
  0
XRECORD
  5
210
330
1DE
100
AcDbXrecord
280
1
1000
TopLeft
  0
XRECORD
  5
211
330
1DE
100
AcDbXrecord
280
1
1000
3.32.4
  0
XRECORD
  5
212
330
1DE
100
AcDbXrecord
280
1
 90
4
  0
XRECORD
  5
214
330
1DE
100
AcDbXrecord
280
1
 40
179.6567039999999338
  0
XRECORD
  5
215
330
1DE
100
AcDbXrecord
280
1
 40
337.1673599999998601
  0
ENDSEC
  0
EOF
