  0
SECTION
  2
HEADER
  9
$ACADVER
  1
AC1009
  9
$FILLMODE
 70
 0
  9
$SPLFRAME
 70
 1
  9
$EXTMIN
 10
0
 20
0
 30
0.0
  9
$EXTMAX
 10
1058.33
 20
1058.33
 30
0.0
  0
ENDSEC
  0
SECTION
  2
TABLES
  0
TABLE
  2
LAYER
 70
1
  0
LAYER
  2
0
 70
     0
 62
     7
  6
CONTINUOUS
  0
ENDTAB
  0
ENDSEC
  0
SECTION
  2
ENTITIES
  0
LINE
  8
0
 62
     0
 10
284.846
 20
95.5075
 30
0.0
 11
284.924
 21
95.5051
 31
0.0
  0
LINE
  8
0
 62
     0
 10
284.924
 20
95.5051
 30
0.0
 11
285.003
 21
95.4952
 31
0.0
  0
LINE
  8
0
 62
     0
 10
285.003
 20
95.4952
 30
0.0
 11
285.079
 21
95.48
 31
0.0
  0
LINE
  8
0
 62
     0
 10
285.079
 20
95.48
 30
0.0
 11
285.156
 21
95.4595
 31
0.0
  0
LINE
  8
0
 62
     0
 10
285.156
 20
95.4595
 30
0.0
 11
285.229
 21
95.432
 31
0.0
  0
LINE
  8
0
 62
     0
 10
285.229
 20
95.432
 30
0.0
 11
285.3
 21
95.3989
 31
0.0
  0
LINE
  8
0
 62
     0
 10
285.3
 20
95.3989
 30
0.0
 11
285.368
 21
95.3604
 31
0.0
  0
LINE
  8
0
 62
     0
 10
285.368
 20
95.3604
 30
0.0
 11
285.433
 21
95.3174
 31
0.0
  0
LINE
  8
0
 62
     0
 10
285.433
 20
95.3174
 30
0.0
 11
285.495
 21
95.268
 31
0.0
  0
LINE
  8
0
 62
     0
 10
285.495
 20
95.268
 30
0.0
 11
285.553
 21
95.2154
 31
0.0
  0
LINE
  8
0
 62
     0
 10
285.553
 20
95.2154
 30
0.0
 11
285.607
 21
95.1576
 31
0.0
  0
LINE
  8
0
 62
     0
 10
285.607
 20
95.1576
 30
0.0
 11
285.655
 21
95.0958
 31
0.0
  0
LINE
  8
0
 62
     0
 10
285.655
 20
95.0958
 30
0.0
 11
285.699
 21
95.0309
 31
0.0
  0
LINE
  8
0
 62
     0
 10
285.699
 20
95.0309
 30
0.0
 11
285.738
 21
94.9607
 31
0.0
  0
LINE
  8
0
 62
     0
 10
285.738
 20
94.9607
 30
0.0
 11
285.769
 21
94.8902
 31
0.0
  0
LINE
  8
0
 62
     0
 10
285.769
 20
94.8902
 30
0.0
 11
285.797
 21
94.8171
 31
0.0
  0
LINE
  8
0
 62
     0
 10
285.797
 20
94.8171
 30
0.0
 11
285.819
 21
94.7416
 31
0.0
  0
LINE
  8
0
 62
     0
 10
285.819
 20
94.7416
 30
0.0
 11
285.834
 21
94.6644
 31
0.0
  0
LINE
  8
0
 62
     0
 10
285.834
 20
94.6644
 30
0.0
 11
285.842
 21
94.5857
 31
0.0
  0
LINE
  8
0
 62
     0
 10
285.842
 20
94.5857
 30
0.0
 11
285.846
 21
94.5074
 31
0.0
  0
LINE
  8
0
 62
     0
 10
285.846
 20
94.5074
 30
0.0
 11
285.846
 21
1.25677
 31
0.0
  0
LINE
  8
0
 62
     0
 10
285.846
 20
1.25677
 30
0.0
 11
285.842
 21
1.17822
 31
0.0
  0
LINE
  8
0
 62
     0
 10
285.842
 20
1.17822
 30
0.0
 11
285.834
 21
1.09968
 31
0.0
  0
LINE
  8
0
 62
     0
 10
285.834
 20
1.09968
 30
0.0
 11
285.819
 21
1.02388
 31
0.0
  0
LINE
  8
0
 62
     0
 10
285.819
 20
1.02388
 30
0.0
 11
285.797
 21
0.946711
 31
0.0
  0
LINE
  8
0
 62
     0
 10
285.797
 20
0.946711
 30
0.0
 11
285.769
 21
0.873675
 31
0.0
  0
LINE
  8
0
 62
     0
 10
285.769
 20
0.873675
 30
0.0
 11
285.738
 21
0.803395
 31
0.0
  0
LINE
  8
0
 62
     0
 10
285.738
 20
0.803395
 30
0.0
 11
285.699
 21
0.734494
 31
0.0
  0
LINE
  8
0
 62
     0
 10
285.699
 20
0.734494
 30
0.0
 11
285.655
 21
0.669727
 31
0.0
  0
LINE
  8
0
 62
     0
 10
285.655
 20
0.669727
 30
0.0
 11
285.607
 21
0.607716
 31
0.0
  0
LINE
  8
0
 62
     0
 10
285.607
 20
0.607716
 30
0.0
 11
285.553
 21
0.549836
 31
0.0
  0
LINE
  8
0
 62
     0
 10
285.553
 20
0.549836
 30
0.0
 11
285.495
 21
0.496094
 31
0.0
  0
LINE
  8
0
 62
     0
 10
285.495
 20
0.496094
 30
0.0
 11
285.433
 21
0.447862
 31
0.0
  0
LINE
  8
0
 62
     0
 10
285.433
 20
0.447862
 30
0.0
 11
285.368
 21
0.403765
 31
0.0
  0
LINE
  8
0
 62
     0
 10
285.368
 20
0.403765
 30
0.0
 11
285.3
 21
0.365181
 31
0.0
  0
LINE
  8
0
 62
     0
 10
285.3
 20
0.365181
 30
0.0
 11
285.229
 21
0.333485
 31
0.0
  0
LINE
  8
0
 62
     0
 10
285.229
 20
0.333485
 30
0.0
 11
285.156
 21
0.305925
 31
0.0
  0
LINE
  8
0
 62
     0
 10
285.156
 20
0.305925
 30
0.0
 11
285.079
 21
0.283876
 31
0.0
  0
LINE
  8
0
 62
     0
 10
285.079
 20
0.283876
 30
0.0
 11
285.003
 21
0.268718
 31
0.0
  0
LINE
  8
0
 62
     0
 10
285.003
 20
0.268718
 30
0.0
 11
284.924
 21
0.260449
 31
0.0
  0
LINE
  8
0
 62
     0
 10
284.924
 20
0.260449
 30
0.0
 11
284.846
 21
0.256315
 31
0.0
  0
LINE
  8
0
 62
     0
 10
284.846
 20
0.256315
 30
0.0
 11
1.09554
 21
0.257693
 31
0.0
  0
LINE
  8
0
 62
     0
 10
1.09554
 20
0.257693
 30
0.0
 11
1.01699
 21
0.260449
 31
0.0
  0
LINE
  8
0
 62
     0
 10
1.01699
 20
0.260449
 30
0.0
 11
0.938445
 21
0.268718
 31
0.0
  0
LINE
  8
0
 62
     0
 10
0.938445
 20
0.268718
 30
0.0
 11
0.861275
 21
0.283876
 31
0.0
  0
LINE
  8
0
 62
     0
 10
0.861275
 20
0.283876
 30
0.0
 11
0.785481
 21
0.305925
 31
0.0
  0
LINE
  8
0
 62
     0
 10
0.785481
 20
0.305925
 30
0.0
 11
0.712445
 21
0.333485
 31
0.0
  0
LINE
  8
0
 62
     0
 10
0.712445
 20
0.333485
 30
0.0
 11
0.642165
 21
0.365181
 31
0.0
  0
LINE
  8
0
 62
     0
 10
0.642165
 20
0.365181
 30
0.0
 11
0.571885
 21
0.403765
 31
0.0
  0
LINE
  8
0
 62
     0
 10
0.571885
 20
0.403765
 30
0.0
 11
0.507118
 21
0.447862
 31
0.0
  0
LINE
  8
0
 62
     0
 10
0.507118
 20
0.447862
 30
0.0
 11
0.445107
 21
0.496094
 31
0.0
  0
LINE
  8
0
 62
     0
 10
0.445107
 20
0.496094
 30
0.0
 11
0.38723
 21
0.549836
 31
0.0
  0
LINE
  8
0
 62
     0
 10
0.38723
 20
0.549836
 30
0.0
 11
0.334863
 21
0.607716
 31
0.0
  0
LINE
  8
0
 62
     0
 10
0.334863
 20
0.607716
 30
0.0
 11
0.285254
 21
0.669727
 31
0.0
  0
LINE
  8
0
 62
     0
 10
0.285254
 20
0.669727
 30
0.0
 11
0.242535
 21
0.734494
 31
0.0
  0
LINE
  8
0
 62
     0
 10
0.242535
 20
0.734494
 30
0.0
 11
0.20395
 21
0.803395
 31
0.0
  0
LINE
  8
0
 62
     0
 10
0.20395
 20
0.803395
 30
0.0
 11
0.170877
 21
0.873675
 31
0.0
  0
LINE
  8
0
 62
     0
 10
0.170877
 20
0.873675
 30
0.0
 11
0.143316
 21
0.946711
 31
0.0
  0
LINE
  8
0
 62
     0
 10
0.143316
 20
0.946711
 30
0.0
 11
0.122645
 21
1.02388
 31
0.0
  0
LINE
  8
0
 62
     0
 10
0.122645
 20
1.02388
 30
0.0
 11
0.107487
 21
1.09968
 31
0.0
  0
LINE
  8
0
 62
     0
 10
0.107487
 20
1.09968
 30
0.0
 11
0.0978408
 21
1.17822
 31
0.0
  0
LINE
  8
0
 62
     0
 10
0.0978408
 20
1.17822
 30
0.0
 11
0.0950846
 21
1.25677
 31
0.0
  0
LINE
  8
0
 62
     0
 10
0.0950846
 20
1.25677
 30
0.0
 11
0.0950846
 21
94.5074
 31
0.0
  0
LINE
  8
0
 62
     0
 10
0.0950846
 20
94.5074
 30
0.0
 11
0.0978408
 21
94.5857
 31
0.0
  0
LINE
  8
0
 62
     0
 10
0.0978408
 20
94.5857
 30
0.0
 11
0.107487
 21
94.6644
 31
0.0
  0
LINE
  8
0
 62
     0
 10
0.107487
 20
94.6644
 30
0.0
 11
0.122645
 21
94.7416
 31
0.0
  0
LINE
  8
0
 62
     0
 10
0.122645
 20
94.7416
 30
0.0
 11
0.143316
 21
94.8171
 31
0.0
  0
LINE
  8
0
 62
     0
 10
0.143316
 20
94.8171
 30
0.0
 11
0.170877
 21
94.8902
 31
0.0
  0
LINE
  8
0
 62
     0
 10
0.170877
 20
94.8902
 30
0.0
 11
0.20395
 21
94.9607
 31
0.0
  0
LINE
  8
0
 62
     0
 10
0.20395
 20
94.9607
 30
0.0
 11
0.242535
 21
95.0309
 31
0.0
  0
LINE
  8
0
 62
     0
 10
0.242535
 20
95.0309
 30
0.0
 11
0.285254
 21
95.0958
 31
0.0
  0
LINE
  8
0
 62
     0
 10
0.285254
 20
95.0958
 30
0.0
 11
0.334863
 21
95.1576
 31
0.0
  0
LINE
  8
0
 62
     0
 10
0.334863
 20
95.1576
 30
0.0
 11
0.38723
 21
95.2154
 31
0.0
  0
LINE
  8
0
 62
     0
 10
0.38723
 20
95.2154
 30
0.0
 11
0.445107
 21
95.268
 31
0.0
  0
LINE
  8
0
 62
     0
 10
0.445107
 20
95.268
 30
0.0
 11
0.507118
 21
95.3174
 31
0.0
  0
LINE
  8
0
 62
     0
 10
0.507118
 20
95.3174
 30
0.0
 11
0.571885
 21
95.3604
 31
0.0
  0
LINE
  8
0
 62
     0
 10
0.571885
 20
95.3604
 30
0.0
 11
0.642165
 21
95.3989
 31
0.0
  0
LINE
  8
0
 62
     0
 10
0.642165
 20
95.3989
 30
0.0
 11
0.712445
 21
95.432
 31
0.0
  0
LINE
  8
0
 62
     0
 10
0.712445
 20
95.432
 30
0.0
 11
0.785481
 21
95.4595
 31
0.0
  0
LINE
  8
0
 62
     0
 10
0.785481
 20
95.4595
 30
0.0
 11
0.861275
 21
95.48
 31
0.0
  0
LINE
  8
0
 62
     0
 10
0.861275
 20
95.48
 30
0.0
 11
0.938445
 21
95.4952
 31
0.0
  0
LINE
  8
0
 62
     0
 10
0.938445
 20
95.4952
 30
0.0
 11
1.01699
 21
95.5051
 31
0.0
  0
LINE
  8
0
 62
     0
 10
1.01699
 20
95.5051
 30
0.0
 11
1.09554
 21
95.5075
 31
0.0
  0
LINE
  8
0
 62
     0
 10
1.09554
 20
95.5075
 30
0.0
 11
284.846
 21
95.5075
 31
0.0
  0
LINE
  8
0
 62
     0
 10
124.062
 20
16.7817
 30
0.0
 11
124.062
 21
12.0826
 31
0.0
  0
LINE
  8
0
 62
     0
 10
124.062
 20
12.0826
 30
0.0
 11
84.4381
 21
12.0826
 31
0.0
  0
LINE
  8
0
 62
     0
 10
84.4381
 20
12.0826
 30
0.0
 11
84.4381
 21
15.3128
 31
0.0
  0
LINE
  8
0
 62
     0
 10
84.4381
 20
15.3128
 30
0.0
 11
77.6884
 21
15.3128
 31
0.0
  0
LINE
  8
0
 62
     0
 10
77.6884
 20
15.3128
 30
0.0
 11
77.6884
 21
12.0826
 31
0.0
  0
LINE
  8
0
 62
     0
 10
77.6884
 20
12.0826
 30
0.0
 11
76.8629
 21
12.0826
 31
0.0
  0
LINE
  8
0
 62
     0
 10
76.8629
 20
12.0826
 30
0.0
 11
76.8629
 21
9.28247
 31
0.0
  0
LINE
  8
0
 62
     0
 10
76.8629
 20
9.28247
 30
0.0
 11
77.6884
 21
9.28247
 31
0.0
  0
LINE
  8
0
 62
     0
 10
77.6884
 20
9.28247
 30
0.0
 11
77.6884
 21
3.01377
 31
0.0
  0
LINE
  8
0
 62
     0
 10
77.6884
 20
3.01377
 30
0.0
 11
79.4135
 21
3.01377
 31
0.0
  0
LINE
  8
0
 62
     0
 10
79.4135
 20
3.01377
 30
0.0
 11
79.4135
 21
1.81212
 31
0.0
  0
LINE
  8
0
 62
     0
 10
79.4135
 20
1.81212
 30
0.0
 11
82.714
 21
1.81212
 31
0.0
  0
LINE
  8
0
 62
     0
 10
82.714
 20
1.81212
 30
0.0
 11
82.714
 21
3.01377
 31
0.0
  0
LINE
  8
0
 62
     0
 10
82.714
 20
3.01377
 30
0.0
 11
84.4381
 21
3.01377
 31
0.0
  0
LINE
  8
0
 62
     0
 10
84.4381
 20
3.01377
 30
0.0
 11
84.4381
 21
7.48273
 31
0.0
  0
LINE
  8
0
 62
     0
 10
84.4381
 20
7.48273
 30
0.0
 11
124.062
 21
7.48273
 31
0.0
  0
LINE
  8
0
 62
     0
 10
124.062
 20
7.48273
 30
0.0
 11
124.062
 21
2.78226
 31
0.0
  0
LINE
  8
0
 62
     0
 10
124.062
 20
2.78226
 30
0.0
 11
138.063
 21
2.78226
 31
0.0
  0
LINE
  8
0
 62
     0
 10
138.063
 20
2.78226
 30
0.0
 11
138.063
 21
7.48273
 31
0.0
  0
LINE
  8
0
 62
     0
 10
138.063
 20
7.48273
 30
0.0
 11
177.689
 21
7.48273
 31
0.0
  0
LINE
  8
0
 62
     0
 10
177.689
 20
7.48273
 30
0.0
 11
177.689
 21
3.01377
 31
0.0
  0
LINE
  8
0
 62
     0
 10
177.689
 20
3.01377
 30
0.0
 11
179.414
 21
3.01377
 31
0.0
  0
LINE
  8
0
 62
     0
 10
179.414
 20
3.01377
 30
0.0
 11
179.414
 21
1.81212
 31
0.0
  0
LINE
  8
0
 62
     0
 10
179.414
 20
1.81212
 30
0.0
 11
182.714
 21
1.81212
 31
0.0
  0
LINE
  8
0
 62
     0
 10
182.714
 20
1.81212
 30
0.0
 11
182.714
 21
3.01377
 31
0.0
  0
LINE
  8
0
 62
     0
 10
182.714
 20
3.01377
 30
0.0
 11
184.438
 21
3.01377
 31
0.0
  0
LINE
  8
0
 62
     0
 10
184.438
 20
3.01377
 30
0.0
 11
184.438
 21
9.28247
 31
0.0
  0
LINE
  8
0
 62
     0
 10
184.438
 20
9.28247
 30
0.0
 11
185.263
 21
9.28247
 31
0.0
  0
LINE
  8
0
 62
     0
 10
185.263
 20
9.28247
 30
0.0
 11
185.263
 21
12.0826
 31
0.0
  0
LINE
  8
0
 62
     0
 10
185.263
 20
12.0826
 30
0.0
 11
184.438
 21
12.0826
 31
0.0
  0
LINE
  8
0
 62
     0
 10
184.438
 20
12.0826
 30
0.0
 11
184.438
 21
15.3128
 31
0.0
  0
LINE
  8
0
 62
     0
 10
184.438
 20
15.3128
 30
0.0
 11
177.689
 21
15.3128
 31
0.0
  0
LINE
  8
0
 62
     0
 10
177.689
 20
15.3128
 30
0.0
 11
177.689
 21
12.0826
 31
0.0
  0
LINE
  8
0
 62
     0
 10
177.689
 20
12.0826
 30
0.0
 11
138.063
 21
12.0826
 31
0.0
  0
LINE
  8
0
 62
     0
 10
138.063
 20
12.0826
 30
0.0
 11
138.063
 21
16.7817
 31
0.0
  0
LINE
  8
0
 62
     0
 10
138.063
 20
16.7817
 30
0.0
 11
124.062
 21
16.7817
 31
0.0
  0
LINE
  8
0
 62
     0
 10
5.00091
 20
16.7817
 30
0.0
 11
19.0018
 21
16.7817
 31
0.0
  0
LINE
  8
0
 62
     0
 10
19.0018
 20
16.7817
 30
0.0
 11
19.0018
 21
2.78226
 31
0.0
  0
LINE
  8
0
 62
     0
 10
19.0018
 20
2.78226
 30
0.0
 11
5.00091
 21
2.78226
 31
0.0
  0
LINE
  8
0
 62
     0
 10
5.00091
 20
2.78226
 30
0.0
 11
5.00091
 21
16.7817
 31
0.0
  0
LINE
  8
0
 62
     0
 10
28.8134
 20
16.7817
 30
0.0
 11
42.8128
 21
16.7817
 31
0.0
  0
LINE
  8
0
 62
     0
 10
42.8128
 20
16.7817
 30
0.0
 11
42.8128
 21
2.78226
 31
0.0
  0
LINE
  8
0
 62
     0
 10
42.8128
 20
2.78226
 30
0.0
 11
28.8134
 21
2.78226
 31
0.0
  0
LINE
  8
0
 62
     0
 10
28.8134
 20
2.78226
 30
0.0
 11
28.8134
 21
16.7817
 31
0.0
  0
LINE
  8
0
 62
     0
 10
52.626
 20
16.7817
 30
0.0
 11
66.6267
 21
16.7817
 31
0.0
  0
LINE
  8
0
 62
     0
 10
66.6267
 20
16.7817
 30
0.0
 11
66.6267
 21
2.78226
 31
0.0
  0
LINE
  8
0
 62
     0
 10
66.6267
 20
2.78226
 30
0.0
 11
52.626
 21
2.78226
 31
0.0
  0
LINE
  8
0
 62
     0
 10
52.626
 20
2.78226
 30
0.0
 11
52.626
 21
16.7817
 31
0.0
  0
LINE
  8
0
 62
     0
 10
193.121
 20
16.7817
 30
0.0
 11
207.12
 21
16.7817
 31
0.0
  0
LINE
  8
0
 62
     0
 10
207.12
 20
16.7817
 30
0.0
 11
207.12
 21
2.78226
 31
0.0
  0
LINE
  8
0
 62
     0
 10
207.12
 20
2.78226
 30
0.0
 11
193.121
 21
2.78226
 31
0.0
  0
LINE
  8
0
 62
     0
 10
193.121
 20
2.78226
 30
0.0
 11
193.121
 21
16.7817
 31
0.0
  0
LINE
  8
0
 62
     0
 10
212.171
 20
16.7817
 30
0.0
 11
226.17
 21
16.7817
 31
0.0
  0
LINE
  8
0
 62
     0
 10
226.17
 20
16.7817
 30
0.0
 11
226.17
 21
2.78226
 31
0.0
  0
LINE
  8
0
 62
     0
 10
226.17
 20
2.78226
 30
0.0
 11
212.171
 21
2.78226
 31
0.0
  0
LINE
  8
0
 62
     0
 10
212.171
 20
2.78226
 30
0.0
 11
212.171
 21
16.7817
 31
0.0
  0
LINE
  8
0
 62
     0
 10
231.221
 20
16.7817
 30
0.0
 11
245.22
 21
16.7817
 31
0.0
  0
LINE
  8
0
 62
     0
 10
245.22
 20
16.7817
 30
0.0
 11
245.22
 21
2.78226
 31
0.0
  0
LINE
  8
0
 62
     0
 10
245.22
 20
2.78226
 30
0.0
 11
231.221
 21
2.78226
 31
0.0
  0
LINE
  8
0
 62
     0
 10
231.221
 20
2.78226
 30
0.0
 11
231.221
 21
16.7817
 31
0.0
  0
LINE
  8
0
 62
     0
 10
250.271
 20
16.7817
 30
0.0
 11
264.27
 21
16.7817
 31
0.0
  0
LINE
  8
0
 62
     0
 10
264.27
 20
16.7817
 30
0.0
 11
264.27
 21
2.78226
 31
0.0
  0
LINE
  8
0
 62
     0
 10
264.27
 20
2.78226
 30
0.0
 11
250.271
 21
2.78226
 31
0.0
  0
LINE
  8
0
 62
     0
 10
250.271
 20
2.78226
 30
0.0
 11
250.271
 21
16.7817
 31
0.0
  0
LINE
  8
0
 62
     0
 10
269.321
 20
16.7817
 30
0.0
 11
283.32
 21
16.7817
 31
0.0
  0
LINE
  8
0
 62
     0
 10
283.32
 20
16.7817
 30
0.0
 11
283.32
 21
2.78226
 31
0.0
  0
LINE
  8
0
 62
     0
 10
283.32
 20
2.78226
 30
0.0
 11
269.321
 21
2.78226
 31
0.0
  0
LINE
  8
0
 62
     0
 10
269.321
 20
2.78226
 30
0.0
 11
269.321
 21
16.7817
 31
0.0
  0
LINE
  8
0
 62
     0
 10
12.146
 20
35.8316
 30
0.0
 11
12.146
 21
31.1326
 31
0.0
  0
LINE
  8
0
 62
     0
 10
12.146
 20
31.1326
 30
0.0
 11
10.6206
 21
31.1326
 31
0.0
  0
LINE
  8
0
 62
     0
 10
10.6206
 20
31.1326
 30
0.0
 11
10.6206
 21
34.3628
 31
0.0
  0
LINE
  8
0
 62
     0
 10
10.6206
 20
34.3628
 30
0.0
 11
3.87092
 21
34.3628
 31
0.0
  0
LINE
  8
0
 62
     0
 10
3.87092
 20
34.3628
 30
0.0
 11
3.87092
 21
31.1326
 31
0.0
  0
LINE
  8
0
 62
     0
 10
3.87092
 20
31.1326
 30
0.0
 11
3.04409
 21
31.1326
 31
0.0
  0
LINE
  8
0
 62
     0
 10
3.04409
 20
31.1326
 30
0.0
 11
3.04409
 21
28.3325
 31
0.0
  0
LINE
  8
0
 62
     0
 10
3.04409
 20
28.3325
 30
0.0
 11
3.87092
 21
28.3325
 31
0.0
  0
LINE
  8
0
 62
     0
 10
3.87092
 20
28.3325
 30
0.0
 11
3.87092
 21
22.0624
 31
0.0
  0
LINE
  8
0
 62
     0
 10
3.87092
 20
22.0624
 30
0.0
 11
5.59484
 21
22.0624
 31
0.0
  0
LINE
  8
0
 62
     0
 10
5.59484
 20
22.0624
 30
0.0
 11
5.59484
 21
20.8621
 31
0.0
  0
LINE
  8
0
 62
     0
 10
5.59484
 20
20.8621
 30
0.0
 11
8.89522
 21
20.8621
 31
0.0
  0
LINE
  8
0
 62
     0
 10
8.89522
 20
20.8621
 30
0.0
 11
8.89522
 21
22.0624
 31
0.0
  0
LINE
  8
0
 62
     0
 10
8.89522
 20
22.0624
 30
0.0
 11
10.6206
 21
22.0624
 31
0.0
  0
LINE
  8
0
 62
     0
 10
10.6206
 20
22.0624
 30
0.0
 11
10.6206
 21
26.5327
 31
0.0
  0
LINE
  8
0
 62
     0
 10
10.6206
 20
26.5327
 30
0.0
 11
12.146
 21
26.5327
 31
0.0
  0
LINE
  8
0
 62
     0
 10
12.146
 20
26.5327
 30
0.0
 11
12.146
 21
21.8323
 31
0.0
  0
LINE
  8
0
 62
     0
 10
12.146
 20
21.8323
 30
0.0
 11
26.1455
 21
21.8323
 31
0.0
  0
LINE
  8
0
 62
     0
 10
26.1455
 20
21.8323
 30
0.0
 11
26.1455
 21
26.5327
 31
0.0
  0
LINE
  8
0
 62
     0
 10
26.1455
 20
26.5327
 30
0.0
 11
27.671
 21
26.5327
 31
0.0
  0
LINE
  8
0
 62
     0
 10
27.671
 20
26.5327
 30
0.0
 11
27.671
 21
22.0624
 31
0.0
  0
LINE
  8
0
 62
     0
 10
27.671
 20
22.0624
 30
0.0
 11
29.3949
 21
22.0624
 31
0.0
  0
LINE
  8
0
 62
     0
 10
29.3949
 20
22.0624
 30
0.0
 11
29.3949
 21
20.8621
 31
0.0
  0
LINE
  8
0
 62
     0
 10
29.3949
 20
20.8621
 30
0.0
 11
32.6953
 21
20.8621
 31
0.0
  0
LINE
  8
0
 62
     0
 10
32.6953
 20
20.8621
 30
0.0
 11
32.6953
 21
22.0624
 31
0.0
  0
LINE
  8
0
 62
     0
 10
32.6953
 20
22.0624
 30
0.0
 11
34.4206
 21
22.0624
 31
0.0
  0
LINE
  8
0
 62
     0
 10
34.4206
 20
22.0624
 30
0.0
 11
34.4206
 21
28.3325
 31
0.0
  0
LINE
  8
0
 62
     0
 10
34.4206
 20
28.3325
 30
0.0
 11
35.2461
 21
28.3325
 31
0.0
  0
LINE
  8
0
 62
     0
 10
35.2461
 20
28.3325
 30
0.0
 11
35.2461
 21
31.1326
 31
0.0
  0
LINE
  8
0
 62
     0
 10
35.2461
 20
31.1326
 30
0.0
 11
34.4206
 21
31.1326
 31
0.0
  0
LINE
  8
0
 62
     0
 10
34.4206
 20
31.1326
 30
0.0
 11
34.4206
 21
34.3628
 31
0.0
  0
LINE
  8
0
 62
     0
 10
34.4206
 20
34.3628
 30
0.0
 11
27.671
 21
34.3628
 31
0.0
  0
LINE
  8
0
 62
     0
 10
27.671
 20
34.3628
 30
0.0
 11
27.671
 21
31.1326
 31
0.0
  0
LINE
  8
0
 62
     0
 10
27.671
 20
31.1326
 30
0.0
 11
26.1455
 21
31.1326
 31
0.0
  0
LINE
  8
0
 62
     0
 10
26.1455
 20
31.1326
 30
0.0
 11
26.1455
 21
35.8316
 31
0.0
  0
LINE
  8
0
 62
     0
 10
26.1455
 20
35.8316
 30
0.0
 11
12.146
 21
35.8316
 31
0.0
  0
LINE
  8
0
 62
     0
 10
40.7211
 20
35.8316
 30
0.0
 11
54.7204
 21
35.8316
 31
0.0
  0
LINE
  8
0
 62
     0
 10
54.7204
 20
35.8316
 30
0.0
 11
54.7204
 21
21.8323
 31
0.0
  0
LINE
  8
0
 62
     0
 10
54.7204
 20
21.8323
 30
0.0
 11
40.7211
 21
21.8323
 31
0.0
  0
LINE
  8
0
 62
     0
 10
40.7211
 20
21.8323
 30
0.0
 11
40.7211
 21
35.8316
 31
0.0
  0
LINE
  8
0
 62
     0
 10
59.7711
 20
35.8316
 30
0.0
 11
73.7704
 21
35.8316
 31
0.0
  0
LINE
  8
0
 62
     0
 10
73.7704
 20
35.8316
 30
0.0
 11
73.7704
 21
21.8323
 31
0.0
  0
LINE
  8
0
 62
     0
 10
73.7704
 20
21.8323
 30
0.0
 11
59.7711
 21
21.8323
 31
0.0
  0
LINE
  8
0
 62
     0
 10
59.7711
 20
21.8323
 30
0.0
 11
59.7711
 21
35.8316
 31
0.0
  0
LINE
  8
0
 62
     0
 10
78.8211
 20
35.8316
 30
0.0
 11
92.8204
 21
35.8316
 31
0.0
  0
LINE
  8
0
 62
     0
 10
92.8204
 20
35.8316
 30
0.0
 11
92.8204
 21
21.8323
 31
0.0
  0
LINE
  8
0
 62
     0
 10
92.8204
 20
21.8323
 30
0.0
 11
78.8211
 21
21.8323
 31
0.0
  0
LINE
  8
0
 62
     0
 10
78.8211
 20
21.8323
 30
0.0
 11
78.8211
 21
35.8316
 31
0.0
  0
LINE
  8
0
 62
     0
 10
97.8697
 20
35.8316
 30
0.0
 11
111.869
 21
35.8316
 31
0.0
  0
LINE
  8
0
 62
     0
 10
111.869
 20
35.8316
 30
0.0
 11
111.869
 21
21.8323
 31
0.0
  0
LINE
  8
0
 62
     0
 10
111.869
 20
21.8323
 30
0.0
 11
97.8697
 21
21.8323
 31
0.0
  0
LINE
  8
0
 62
     0
 10
97.8697
 20
21.8323
 30
0.0
 11
97.8697
 21
35.8316
 31
0.0
  0
LINE
  8
0
 62
     0
 10
116.92
 20
35.8316
 30
0.0
 11
130.92
 21
35.8316
 31
0.0
  0
LINE
  8
0
 62
     0
 10
130.92
 20
35.8316
 30
0.0
 11
130.92
 21
21.8323
 31
0.0
  0
LINE
  8
0
 62
     0
 10
130.92
 20
21.8323
 30
0.0
 11
116.92
 21
21.8323
 31
0.0
  0
LINE
  8
0
 62
     0
 10
116.92
 20
21.8323
 30
0.0
 11
116.92
 21
35.8316
 31
0.0
  0
LINE
  8
0
 62
     0
 10
135.971
 20
35.8316
 30
0.0
 11
149.97
 21
35.8316
 31
0.0
  0
LINE
  8
0
 62
     0
 10
149.97
 20
35.8316
 30
0.0
 11
149.97
 21
21.8323
 31
0.0
  0
LINE
  8
0
 62
     0
 10
149.97
 20
21.8323
 30
0.0
 11
135.971
 21
21.8323
 31
0.0
  0
LINE
  8
0
 62
     0
 10
135.971
 20
21.8323
 30
0.0
 11
135.971
 21
35.8316
 31
0.0
  0
LINE
  8
0
 62
     0
 10
155.021
 20
35.8316
 30
0.0
 11
169.02
 21
35.8316
 31
0.0
  0
LINE
  8
0
 62
     0
 10
169.02
 20
35.8316
 30
0.0
 11
169.02
 21
21.8323
 31
0.0
  0
LINE
  8
0
 62
     0
 10
169.02
 20
21.8323
 30
0.0
 11
155.021
 21
21.8323
 31
0.0
  0
LINE
  8
0
 62
     0
 10
155.021
 20
21.8323
 30
0.0
 11
155.021
 21
35.8316
 31
0.0
  0
LINE
  8
0
 62
     0
 10
174.071
 20
35.8316
 30
0.0
 11
188.07
 21
35.8316
 31
0.0
  0
LINE
  8
0
 62
     0
 10
188.07
 20
35.8316
 30
0.0
 11
188.07
 21
21.8323
 31
0.0
  0
LINE
  8
0
 62
     0
 10
188.07
 20
21.8323
 30
0.0
 11
174.071
 21
21.8323
 31
0.0
  0
LINE
  8
0
 62
     0
 10
174.071
 20
21.8323
 30
0.0
 11
174.071
 21
35.8316
 31
0.0
  0
LINE
  8
0
 62
     0
 10
193.121
 20
35.8316
 30
0.0
 11
207.12
 21
35.8316
 31
0.0
  0
LINE
  8
0
 62
     0
 10
207.12
 20
35.8316
 30
0.0
 11
207.12
 21
21.8323
 31
0.0
  0
LINE
  8
0
 62
     0
 10
207.12
 20
21.8323
 30
0.0
 11
193.121
 21
21.8323
 31
0.0
  0
LINE
  8
0
 62
     0
 10
193.121
 20
21.8323
 30
0.0
 11
193.121
 21
35.8316
 31
0.0
  0
LINE
  8
0
 62
     0
 10
212.171
 20
35.8316
 30
0.0
 11
226.17
 21
35.8316
 31
0.0
  0
LINE
  8
0
 62
     0
 10
226.17
 20
35.8316
 30
0.0
 11
226.17
 21
21.8323
 31
0.0
  0
LINE
  8
0
 62
     0
 10
226.17
 20
21.8323
 30
0.0
 11
212.171
 21
21.8323
 31
0.0
  0
LINE
  8
0
 62
     0
 10
212.171
 20
21.8323
 30
0.0
 11
212.171
 21
35.8316
 31
0.0
  0
LINE
  8
0
 62
     0
 10
231.221
 20
35.8316
 30
0.0
 11
245.22
 21
35.8316
 31
0.0
  0
LINE
  8
0
 62
     0
 10
245.22
 20
35.8316
 30
0.0
 11
245.22
 21
21.8323
 31
0.0
  0
LINE
  8
0
 62
     0
 10
245.22
 20
21.8323
 30
0.0
 11
231.221
 21
21.8323
 31
0.0
  0
LINE
  8
0
 62
     0
 10
231.221
 20
21.8323
 30
0.0
 11
231.221
 21
35.8316
 31
0.0
  0
LINE
  8
0
 62
     0
 10
250.271
 20
35.8316
 30
0.0
 11
264.27
 21
35.8316
 31
0.0
  0
LINE
  8
0
 62
     0
 10
264.27
 20
35.8316
 30
0.0
 11
264.27
 21
21.8323
 31
0.0
  0
LINE
  8
0
 62
     0
 10
264.27
 20
21.8323
 30
0.0
 11
250.271
 21
21.8323
 31
0.0
  0
LINE
  8
0
 62
     0
 10
250.271
 20
21.8323
 30
0.0
 11
250.271
 21
35.8316
 31
0.0
  0
LINE
  8
0
 62
     0
 10
269.321
 20
35.8316
 30
0.0
 11
283.32
 21
35.8316
 31
0.0
  0
LINE
  8
0
 62
     0
 10
283.32
 20
35.8316
 30
0.0
 11
283.32
 21
21.8323
 31
0.0
  0
LINE
  8
0
 62
     0
 10
283.32
 20
21.8323
 30
0.0
 11
269.321
 21
21.8323
 31
0.0
  0
LINE
  8
0
 62
     0
 10
269.321
 20
21.8323
 30
0.0
 11
269.321
 21
35.8316
 31
0.0
  0
LINE
  8
0
 62
     0
 10
257.413
 20
54.8816
 30
0.0
 11
257.413
 21
50.1826
 31
0.0
  0
LINE
  8
0
 62
     0
 10
257.413
 20
50.1826
 30
0.0
 11
255.888
 21
50.1826
 31
0.0
  0
LINE
  8
0
 62
     0
 10
255.888
 20
50.1826
 30
0.0
 11
255.888
 21
53.4127
 31
0.0
  0
LINE
  8
0
 62
     0
 10
255.888
 20
53.4127
 30
0.0
 11
249.138
 21
53.4127
 31
0.0
  0
LINE
  8
0
 62
     0
 10
249.138
 20
53.4127
 30
0.0
 11
249.138
 21
50.1826
 31
0.0
  0
LINE
  8
0
 62
     0
 10
249.138
 20
50.1826
 30
0.0
 11
248.313
 21
50.1826
 31
0.0
  0
LINE
  8
0
 62
     0
 10
248.313
 20
50.1826
 30
0.0
 11
248.313
 21
47.3826
 31
0.0
  0
LINE
  8
0
 62
     0
 10
248.313
 20
47.3826
 30
0.0
 11
249.138
 21
47.3826
 31
0.0
  0
LINE
  8
0
 62
     0
 10
249.138
 20
47.3826
 30
0.0
 11
249.138
 21
41.1138
 31
0.0
  0
LINE
  8
0
 62
     0
 10
249.138
 20
41.1138
 30
0.0
 11
250.863
 21
41.1138
 31
0.0
  0
LINE
  8
0
 62
     0
 10
250.863
 20
41.1138
 30
0.0
 11
250.863
 21
39.9122
 31
0.0
  0
LINE
  8
0
 62
     0
 10
250.863
 20
39.9122
 30
0.0
 11
254.163
 21
39.9122
 31
0.0
  0
LINE
  8
0
 62
     0
 10
254.163
 20
39.9122
 30
0.0
 11
254.163
 21
41.1138
 31
0.0
  0
LINE
  8
0
 62
     0
 10
254.163
 20
41.1138
 30
0.0
 11
255.888
 21
41.1138
 31
0.0
  0
LINE
  8
0
 62
     0
 10
255.888
 20
41.1138
 30
0.0
 11
255.888
 21
45.5828
 31
0.0
  0
LINE
  8
0
 62
     0
 10
255.888
 20
45.5828
 30
0.0
 11
257.413
 21
45.5828
 31
0.0
  0
LINE
  8
0
 62
     0
 10
257.413
 20
45.5828
 30
0.0
 11
257.413
 21
40.8824
 31
0.0
  0
LINE
  8
0
 62
     0
 10
257.413
 20
40.8824
 30
0.0
 11
271.413
 21
40.8824
 31
0.0
  0
LINE
  8
0
 62
     0
 10
271.413
 20
40.8824
 30
0.0
 11
271.413
 21
45.5828
 31
0.0
  0
LINE
  8
0
 62
     0
 10
271.413
 20
45.5828
 30
0.0
 11
272.939
 21
45.5828
 31
0.0
  0
LINE
  8
0
 62
     0
 10
272.939
 20
45.5828
 30
0.0
 11
272.939
 21
41.1138
 31
0.0
  0
LINE
  8
0
 62
     0
 10
272.939
 20
41.1138
 30
0.0
 11
274.664
 21
41.1138
 31
0.0
  0
LINE
  8
0
 62
     0
 10
274.664
 20
41.1138
 30
0.0
 11
274.664
 21
39.9122
 31
0.0
  0
LINE
  8
0
 62
     0
 10
274.664
 20
39.9122
 30
0.0
 11
277.964
 21
39.9122
 31
0.0
  0
LINE
  8
0
 62
     0
 10
277.964
 20
39.9122
 30
0.0
 11
277.964
 21
41.1138
 31
0.0
  0
LINE
  8
0
 62
     0
 10
277.964
 20
41.1138
 30
0.0
 11
279.688
 21
41.1138
 31
0.0
  0
LINE
  8
0
 62
     0
 10
279.688
 20
41.1138
 30
0.0
 11
279.688
 21
47.3826
 31
0.0
  0
LINE
  8
0
 62
     0
 10
279.688
 20
47.3826
 30
0.0
 11
280.513
 21
47.3826
 31
0.0
  0
LINE
  8
0
 62
     0
 10
280.513
 20
47.3826
 30
0.0
 11
280.513
 21
50.1826
 31
0.0
  0
LINE
  8
0
 62
     0
 10
280.513
 20
50.1826
 30
0.0
 11
279.688
 21
50.1826
 31
0.0
  0
LINE
  8
0
 62
     0
 10
279.688
 20
50.1826
 30
0.0
 11
279.688
 21
53.4127
 31
0.0
  0
LINE
  8
0
 62
     0
 10
279.688
 20
53.4127
 30
0.0
 11
272.939
 21
53.4127
 31
0.0
  0
LINE
  8
0
 62
     0
 10
272.939
 20
53.4127
 30
0.0
 11
272.939
 21
50.1826
 31
0.0
  0
LINE
  8
0
 62
     0
 10
272.939
 20
50.1826
 30
0.0
 11
271.413
 21
50.1826
 31
0.0
  0
LINE
  8
0
 62
     0
 10
271.413
 20
50.1826
 30
0.0
 11
271.413
 21
54.8816
 31
0.0
  0
LINE
  8
0
 62
     0
 10
271.413
 20
54.8816
 30
0.0
 11
257.413
 21
54.8816
 31
0.0
  0
LINE
  8
0
 62
     0
 10
9.76341
 20
54.8816
 30
0.0
 11
23.7629
 21
54.8816
 31
0.0
  0
LINE
  8
0
 62
     0
 10
23.7629
 20
54.8816
 30
0.0
 11
23.7629
 21
40.8824
 31
0.0
  0
LINE
  8
0
 62
     0
 10
23.7629
 20
40.8824
 30
0.0
 11
9.76341
 21
40.8824
 31
0.0
  0
LINE
  8
0
 62
     0
 10
9.76341
 20
40.8824
 30
0.0
 11
9.76341
 21
54.8816
 31
0.0
  0
LINE
  8
0
 62
     0
 10
35.9572
 20
54.8816
 30
0.0
 11
49.9579
 21
54.8816
 31
0.0
  0
LINE
  8
0
 62
     0
 10
49.9579
 20
54.8816
 30
0.0
 11
49.9579
 21
40.8824
 31
0.0
  0
LINE
  8
0
 62
     0
 10
49.9579
 20
40.8824
 30
0.0
 11
35.9572
 21
40.8824
 31
0.0
  0
LINE
  8
0
 62
     0
 10
35.9572
 20
40.8824
 30
0.0
 11
35.9572
 21
54.8816
 31
0.0
  0
LINE
  8
0
 62
     0
 10
55.0072
 20
54.8816
 30
0.0
 11
69.0079
 21
54.8816
 31
0.0
  0
LINE
  8
0
 62
     0
 10
69.0079
 20
54.8816
 30
0.0
 11
69.0079
 21
40.8824
 31
0.0
  0
LINE
  8
0
 62
     0
 10
69.0079
 20
40.8824
 30
0.0
 11
55.0072
 21
40.8824
 31
0.0
  0
LINE
  8
0
 62
     0
 10
55.0072
 20
40.8824
 30
0.0
 11
55.0072
 21
54.8816
 31
0.0
  0
LINE
  8
0
 62
     0
 10
74.0572
 20
54.8816
 30
0.0
 11
88.0579
 21
54.8816
 31
0.0
  0
LINE
  8
0
 62
     0
 10
88.0579
 20
54.8816
 30
0.0
 11
88.0579
 21
40.8824
 31
0.0
  0
LINE
  8
0
 62
     0
 10
88.0579
 20
40.8824
 30
0.0
 11
74.0572
 21
40.8824
 31
0.0
  0
LINE
  8
0
 62
     0
 10
74.0572
 20
40.8824
 30
0.0
 11
74.0572
 21
54.8816
 31
0.0
  0
LINE
  8
0
 62
     0
 10
93.1072
 20
54.8816
 30
0.0
 11
107.108
 21
54.8816
 31
0.0
  0
LINE
  8
0
 62
     0
 10
107.108
 20
54.8816
 30
0.0
 11
107.108
 21
40.8824
 31
0.0
  0
LINE
  8
0
 62
     0
 10
107.108
 20
40.8824
 30
0.0
 11
93.1072
 21
40.8824
 31
0.0
  0
LINE
  8
0
 62
     0
 10
93.1072
 20
40.8824
 30
0.0
 11
93.1072
 21
54.8816
 31
0.0
  0
LINE
  8
0
 62
     0
 10
112.157
 20
54.8816
 30
0.0
 11
126.158
 21
54.8816
 31
0.0
  0
LINE
  8
0
 62
     0
 10
126.158
 20
54.8816
 30
0.0
 11
126.158
 21
40.8824
 31
0.0
  0
LINE
  8
0
 62
     0
 10
126.158
 20
40.8824
 30
0.0
 11
112.157
 21
40.8824
 31
0.0
  0
LINE
  8
0
 62
     0
 10
112.157
 20
40.8824
 30
0.0
 11
112.157
 21
54.8816
 31
0.0
  0
LINE
  8
0
 62
     0
 10
131.207
 20
54.8816
 30
0.0
 11
145.208
 21
54.8816
 31
0.0
  0
LINE
  8
0
 62
     0
 10
145.208
 20
54.8816
 30
0.0
 11
145.208
 21
40.8824
 31
0.0
  0
LINE
  8
0
 62
     0
 10
145.208
 20
40.8824
 30
0.0
 11
131.207
 21
40.8824
 31
0.0
  0
LINE
  8
0
 62
     0
 10
131.207
 20
40.8824
 30
0.0
 11
131.207
 21
54.8816
 31
0.0
  0
LINE
  8
0
 62
     0
 10
150.257
 20
54.8816
 30
0.0
 11
164.258
 21
54.8816
 31
0.0
  0
LINE
  8
0
 62
     0
 10
164.258
 20
54.8816
 30
0.0
 11
164.258
 21
40.8824
 31
0.0
  0
LINE
  8
0
 62
     0
 10
164.258
 20
40.8824
 30
0.0
 11
150.257
 21
40.8824
 31
0.0
  0
LINE
  8
0
 62
     0
 10
150.257
 20
40.8824
 30
0.0
 11
150.257
 21
54.8816
 31
0.0
  0
LINE
  8
0
 62
     0
 10
169.307
 20
54.8816
 30
0.0
 11
183.308
 21
54.8816
 31
0.0
  0
LINE
  8
0
 62
     0
 10
183.308
 20
54.8816
 30
0.0
 11
183.308
 21
40.8824
 31
0.0
  0
LINE
  8
0
 62
     0
 10
183.308
 20
40.8824
 30
0.0
 11
169.307
 21
40.8824
 31
0.0
  0
LINE
  8
0
 62
     0
 10
169.307
 20
40.8824
 30
0.0
 11
169.307
 21
54.8816
 31
0.0
  0
LINE
  8
0
 62
     0
 10
188.357
 20
54.8816
 30
0.0
 11
202.358
 21
54.8816
 31
0.0
  0
LINE
  8
0
 62
     0
 10
202.358
 20
54.8816
 30
0.0
 11
202.358
 21
40.8824
 31
0.0
  0
LINE
  8
0
 62
     0
 10
202.358
 20
40.8824
 30
0.0
 11
188.357
 21
40.8824
 31
0.0
  0
LINE
  8
0
 62
     0
 10
188.357
 20
40.8824
 30
0.0
 11
188.357
 21
54.8816
 31
0.0
  0
LINE
  8
0
 62
     0
 10
207.407
 20
54.8816
 30
0.0
 11
221.408
 21
54.8816
 31
0.0
  0
LINE
  8
0
 62
     0
 10
221.408
 20
54.8816
 30
0.0
 11
221.408
 21
40.8824
 31
0.0
  0
LINE
  8
0
 62
     0
 10
221.408
 20
40.8824
 30
0.0
 11
207.407
 21
40.8824
 31
0.0
  0
LINE
  8
0
 62
     0
 10
207.407
 20
40.8824
 30
0.0
 11
207.407
 21
54.8816
 31
0.0
  0
LINE
  8
0
 62
     0
 10
226.457
 20
54.8816
 30
0.0
 11
240.458
 21
54.8816
 31
0.0
  0
LINE
  8
0
 62
     0
 10
240.458
 20
54.8816
 30
0.0
 11
240.458
 21
40.8824
 31
0.0
  0
LINE
  8
0
 62
     0
 10
240.458
 20
40.8824
 30
0.0
 11
226.457
 21
40.8824
 31
0.0
  0
LINE
  8
0
 62
     0
 10
226.457
 20
40.8824
 30
0.0
 11
226.457
 21
54.8816
 31
0.0
  0
LINE
  8
0
 62
     0
 10
7.38216
 20
73.9316
 30
0.0
 11
21.383
 21
73.9316
 31
0.0
  0
LINE
  8
0
 62
     0
 10
21.383
 20
73.9316
 30
0.0
 11
21.383
 21
59.9324
 31
0.0
  0
LINE
  8
0
 62
     0
 10
21.383
 20
59.9324
 30
0.0
 11
7.38216
 21
59.9324
 31
0.0
  0
LINE
  8
0
 62
     0
 10
7.38216
 20
59.9324
 30
0.0
 11
7.38216
 21
73.9316
 31
0.0
  0
LINE
  8
0
 62
     0
 10
31.196
 20
73.9316
 30
0.0
 11
45.1954
 21
73.9316
 31
0.0
  0
LINE
  8
0
 62
     0
 10
45.1954
 20
73.9316
 30
0.0
 11
45.1954
 21
59.9324
 31
0.0
  0
LINE
  8
0
 62
     0
 10
45.1954
 20
59.9324
 30
0.0
 11
31.196
 21
59.9324
 31
0.0
  0
LINE
  8
0
 62
     0
 10
31.196
 20
59.9324
 30
0.0
 11
31.196
 21
73.9316
 31
0.0
  0
LINE
  8
0
 62
     0
 10
50.2461
 20
73.9316
 30
0.0
 11
64.2454
 21
73.9316
 31
0.0
  0
LINE
  8
0
 62
     0
 10
64.2454
 20
73.9316
 30
0.0
 11
64.2454
 21
59.9324
 31
0.0
  0
LINE
  8
0
 62
     0
 10
64.2454
 20
59.9324
 30
0.0
 11
50.2461
 21
59.9324
 31
0.0
  0
LINE
  8
0
 62
     0
 10
50.2461
 20
59.9324
 30
0.0
 11
50.2461
 21
73.9316
 31
0.0
  0
LINE
  8
0
 62
     0
 10
69.2961
 20
73.9316
 30
0.0
 11
83.2954
 21
73.9316
 31
0.0
  0
LINE
  8
0
 62
     0
 10
83.2954
 20
73.9316
 30
0.0
 11
83.2954
 21
59.9324
 31
0.0
  0
LINE
  8
0
 62
     0
 10
83.2954
 20
59.9324
 30
0.0
 11
69.2961
 21
59.9324
 31
0.0
  0
LINE
  8
0
 62
     0
 10
69.2961
 20
59.9324
 30
0.0
 11
69.2961
 21
73.9316
 31
0.0
  0
LINE
  8
0
 62
     0
 10
88.3461
 20
73.9316
 30
0.0
 11
102.345
 21
73.9316
 31
0.0
  0
LINE
  8
0
 62
     0
 10
102.345
 20
73.9316
 30
0.0
 11
102.345
 21
59.9324
 31
0.0
  0
LINE
  8
0
 62
     0
 10
102.345
 20
59.9324
 30
0.0
 11
88.3461
 21
59.9324
 31
0.0
  0
LINE
  8
0
 62
     0
 10
88.3461
 20
59.9324
 30
0.0
 11
88.3461
 21
73.9316
 31
0.0
  0
LINE
  8
0
 62
     0
 10
107.396
 20
73.9316
 30
0.0
 11
121.395
 21
73.9316
 31
0.0
  0
LINE
  8
0
 62
     0
 10
121.395
 20
73.9316
 30
0.0
 11
121.395
 21
59.9324
 31
0.0
  0
LINE
  8
0
 62
     0
 10
121.395
 20
59.9324
 30
0.0
 11
107.396
 21
59.9324
 31
0.0
  0
LINE
  8
0
 62
     0
 10
107.396
 20
59.9324
 30
0.0
 11
107.396
 21
73.9316
 31
0.0
  0
LINE
  8
0
 62
     0
 10
126.446
 20
73.9316
 30
0.0
 11
140.445
 21
73.9316
 31
0.0
  0
LINE
  8
0
 62
     0
 10
140.445
 20
73.9316
 30
0.0
 11
140.445
 21
59.9324
 31
0.0
  0
LINE
  8
0
 62
     0
 10
140.445
 20
59.9324
 30
0.0
 11
126.446
 21
59.9324
 31
0.0
  0
LINE
  8
0
 62
     0
 10
126.446
 20
59.9324
 30
0.0
 11
126.446
 21
73.9316
 31
0.0
  0
LINE
  8
0
 62
     0
 10
145.496
 20
73.9316
 30
0.0
 11
159.495
 21
73.9316
 31
0.0
  0
LINE
  8
0
 62
     0
 10
159.495
 20
73.9316
 30
0.0
 11
159.495
 21
59.9324
 31
0.0
  0
LINE
  8
0
 62
     0
 10
159.495
 20
59.9324
 30
0.0
 11
145.496
 21
59.9324
 31
0.0
  0
LINE
  8
0
 62
     0
 10
145.496
 20
59.9324
 30
0.0
 11
145.496
 21
73.9316
 31
0.0
  0
LINE
  8
0
 62
     0
 10
164.546
 20
73.9316
 30
0.0
 11
178.545
 21
73.9316
 31
0.0
  0
LINE
  8
0
 62
     0
 10
178.545
 20
73.9316
 30
0.0
 11
178.545
 21
59.9324
 31
0.0
  0
LINE
  8
0
 62
     0
 10
178.545
 20
59.9324
 30
0.0
 11
164.546
 21
59.9324
 31
0.0
  0
LINE
  8
0
 62
     0
 10
164.546
 20
59.9324
 30
0.0
 11
164.546
 21
73.9316
 31
0.0
  0
LINE
  8
0
 62
     0
 10
183.596
 20
73.9316
 30
0.0
 11
197.595
 21
73.9316
 31
0.0
  0
LINE
  8
0
 62
     0
 10
197.595
 20
73.9316
 30
0.0
 11
197.595
 21
59.9324
 31
0.0
  0
LINE
  8
0
 62
     0
 10
197.595
 20
59.9324
 30
0.0
 11
183.596
 21
59.9324
 31
0.0
  0
LINE
  8
0
 62
     0
 10
183.596
 20
59.9324
 30
0.0
 11
183.596
 21
73.9316
 31
0.0
  0
LINE
  8
0
 62
     0
 10
202.646
 20
73.9316
 30
0.0
 11
216.645
 21
73.9316
 31
0.0
  0
LINE
  8
0
 62
     0
 10
216.645
 20
73.9316
 30
0.0
 11
216.645
 21
59.9324
 31
0.0
  0
LINE
  8
0
 62
     0
 10
216.645
 20
59.9324
 30
0.0
 11
202.646
 21
59.9324
 31
0.0
  0
LINE
  8
0
 62
     0
 10
202.646
 20
59.9324
 30
0.0
 11
202.646
 21
73.9316
 31
0.0
  0
LINE
  8
0
 62
     0
 10
221.696
 20
73.9316
 30
0.0
 11
235.695
 21
73.9316
 31
0.0
  0
LINE
  8
0
 62
     0
 10
235.695
 20
73.9316
 30
0.0
 11
235.695
 21
59.9324
 31
0.0
  0
LINE
  8
0
 62
     0
 10
235.695
 20
59.9324
 30
0.0
 11
221.696
 21
59.9324
 31
0.0
  0
LINE
  8
0
 62
     0
 10
221.696
 20
59.9324
 30
0.0
 11
221.696
 21
73.9316
 31
0.0
  0
LINE
  8
0
 62
     0
 10
240.746
 20
73.9316
 30
0.0
 11
254.744
 21
73.9316
 31
0.0
  0
LINE
  8
0
 62
     0
 10
254.744
 20
73.9316
 30
0.0
 11
254.744
 21
59.9324
 31
0.0
  0
LINE
  8
0
 62
     0
 10
254.744
 20
59.9324
 30
0.0
 11
240.746
 21
59.9324
 31
0.0
  0
LINE
  8
0
 62
     0
 10
240.746
 20
59.9324
 30
0.0
 11
240.746
 21
73.9316
 31
0.0
  0
LINE
  8
0
 62
     0
 10
264.557
 20
73.9316
 30
0.0
 11
278.558
 21
73.9316
 31
0.0
  0
LINE
  8
0
 62
     0
 10
278.558
 20
73.9316
 30
0.0
 11
278.558
 21
59.9324
 31
0.0
  0
LINE
  8
0
 62
     0
 10
278.558
 20
59.9324
 30
0.0
 11
264.557
 21
59.9324
 31
0.0
  0
LINE
  8
0
 62
     0
 10
264.557
 20
59.9324
 30
0.0
 11
264.557
 21
73.9316
 31
0.0
  0
LINE
  8
0
 62
     0
 10
259.796
 20
92.9816
 30
0.0
 11
259.796
 21
88.2826
 31
0.0
  0
LINE
  8
0
 62
     0
 10
259.796
 20
88.2826
 30
0.0
 11
258.27
 21
88.2826
 31
0.0
  0
LINE
  8
0
 62
     0
 10
258.27
 20
88.2826
 30
0.0
 11
258.27
 21
91.5127
 31
0.0
  0
LINE
  8
0
 62
     0
 10
258.27
 20
91.5127
 30
0.0
 11
251.521
 21
91.5127
 31
0.0
  0
LINE
  8
0
 62
     0
 10
251.521
 20
91.5127
 30
0.0
 11
251.521
 21
88.2826
 31
0.0
  0
LINE
  8
0
 62
     0
 10
251.521
 20
88.2826
 30
0.0
 11
250.696
 21
88.2826
 31
0.0
  0
LINE
  8
0
 62
     0
 10
250.696
 20
88.2826
 30
0.0
 11
250.696
 21
85.4826
 31
0.0
  0
LINE
  8
0
 62
     0
 10
250.696
 20
85.4826
 30
0.0
 11
251.521
 21
85.4826
 31
0.0
  0
LINE
  8
0
 62
     0
 10
251.521
 20
85.4826
 30
0.0
 11
251.521
 21
79.2124
 31
0.0
  0
LINE
  8
0
 62
     0
 10
251.521
 20
79.2124
 30
0.0
 11
253.245
 21
79.2124
 31
0.0
  0
LINE
  8
0
 62
     0
 10
253.245
 20
79.2124
 30
0.0
 11
253.245
 21
78.0122
 31
0.0
  0
LINE
  8
0
 62
     0
 10
253.245
 20
78.0122
 30
0.0
 11
256.545
 21
78.0122
 31
0.0
  0
LINE
  8
0
 62
     0
 10
256.545
 20
78.0122
 30
0.0
 11
256.545
 21
79.2124
 31
0.0
  0
LINE
  8
0
 62
     0
 10
256.545
 20
79.2124
 30
0.0
 11
258.27
 21
79.2124
 31
0.0
  0
LINE
  8
0
 62
     0
 10
258.27
 20
79.2124
 30
0.0
 11
258.27
 21
83.6828
 31
0.0
  0
LINE
  8
0
 62
     0
 10
258.27
 20
83.6828
 30
0.0
 11
259.796
 21
83.6828
 31
0.0
  0
LINE
  8
0
 62
     0
 10
259.796
 20
83.6828
 30
0.0
 11
259.796
 21
78.9824
 31
0.0
  0
LINE
  8
0
 62
     0
 10
259.796
 20
78.9824
 30
0.0
 11
273.795
 21
78.9824
 31
0.0
  0
LINE
  8
0
 62
     0
 10
273.795
 20
78.9824
 30
0.0
 11
273.795
 21
83.6828
 31
0.0
  0
LINE
  8
0
 62
     0
 10
273.795
 20
83.6828
 30
0.0
 11
275.321
 21
83.6828
 31
0.0
  0
LINE
  8
0
 62
     0
 10
275.321
 20
83.6828
 30
0.0
 11
275.321
 21
79.2124
 31
0.0
  0
LINE
  8
0
 62
     0
 10
275.321
 20
79.2124
 30
0.0
 11
277.045
 21
79.2124
 31
0.0
  0
LINE
  8
0
 62
     0
 10
277.045
 20
79.2124
 30
0.0
 11
277.045
 21
78.0122
 31
0.0
  0
LINE
  8
0
 62
     0
 10
277.045
 20
78.0122
 30
0.0
 11
280.345
 21
78.0122
 31
0.0
  0
LINE
  8
0
 62
     0
 10
280.345
 20
78.0122
 30
0.0
 11
280.345
 21
79.2124
 31
0.0
  0
LINE
  8
0
 62
     0
 10
280.345
 20
79.2124
 30
0.0
 11
282.071
 21
79.2124
 31
0.0
  0
LINE
  8
0
 62
     0
 10
282.071
 20
79.2124
 30
0.0
 11
282.071
 21
85.4826
 31
0.0
  0
LINE
  8
0
 62
     0
 10
282.071
 20
85.4826
 30
0.0
 11
282.896
 21
85.4826
 31
0.0
  0
LINE
  8
0
 62
     0
 10
282.896
 20
85.4826
 30
0.0
 11
282.896
 21
88.2826
 31
0.0
  0
LINE
  8
0
 62
     0
 10
282.896
 20
88.2826
 30
0.0
 11
282.071
 21
88.2826
 31
0.0
  0
LINE
  8
0
 62
     0
 10
282.071
 20
88.2826
 30
0.0
 11
282.071
 21
91.5127
 31
0.0
  0
LINE
  8
0
 62
     0
 10
282.071
 20
91.5127
 30
0.0
 11
275.321
 21
91.5127
 31
0.0
  0
LINE
  8
0
 62
     0
 10
275.321
 20
91.5127
 30
0.0
 11
275.321
 21
88.2826
 31
0.0
  0
LINE
  8
0
 62
     0
 10
275.321
 20
88.2826
 30
0.0
 11
273.795
 21
88.2826
 31
0.0
  0
LINE
  8
0
 62
     0
 10
273.795
 20
88.2826
 30
0.0
 11
273.795
 21
92.9816
 31
0.0
  0
LINE
  8
0
 62
     0
 10
273.795
 20
92.9816
 30
0.0
 11
259.796
 21
92.9816
 31
0.0
  0
LINE
  8
0
 62
     0
 10
2.62103
 20
92.9816
 30
0.0
 11
16.6205
 21
92.9816
 31
0.0
  0
LINE
  8
0
 62
     0
 10
16.6205
 20
92.9816
 30
0.0
 11
16.6205
 21
78.9824
 31
0.0
  0
LINE
  8
0
 62
     0
 10
16.6205
 20
78.9824
 30
0.0
 11
2.62103
 21
78.9824
 31
0.0
  0
LINE
  8
0
 62
     0
 10
2.62103
 20
78.9824
 30
0.0
 11
2.62103
 21
92.9816
 31
0.0
  0
LINE
  8
0
 62
     0
 10
21.671
 20
92.9816
 30
0.0
 11
35.6704
 21
92.9816
 31
0.0
  0
LINE
  8
0
 62
     0
 10
35.6704
 20
92.9816
 30
0.0
 11
35.6704
 21
78.9824
 31
0.0
  0
LINE
  8
0
 62
     0
 10
35.6704
 20
78.9824
 30
0.0
 11
21.671
 21
78.9824
 31
0.0
  0
LINE
  8
0
 62
     0
 10
21.671
 20
78.9824
 30
0.0
 11
21.671
 21
92.9816
 31
0.0
  0
LINE
  8
0
 62
     0
 10
40.7211
 20
92.9816
 30
0.0
 11
54.7204
 21
92.9816
 31
0.0
  0
LINE
  8
0
 62
     0
 10
54.7204
 20
92.9816
 30
0.0
 11
54.7204
 21
78.9824
 31
0.0
  0
LINE
  8
0
 62
     0
 10
54.7204
 20
78.9824
 30
0.0
 11
40.7211
 21
78.9824
 31
0.0
  0
LINE
  8
0
 62
     0
 10
40.7211
 20
78.9824
 30
0.0
 11
40.7211
 21
92.9816
 31
0.0
  0
LINE
  8
0
 62
     0
 10
59.7711
 20
92.9816
 30
0.0
 11
73.7704
 21
92.9816
 31
0.0
  0
LINE
  8
0
 62
     0
 10
73.7704
 20
92.9816
 30
0.0
 11
73.7704
 21
78.9824
 31
0.0
  0
LINE
  8
0
 62
     0
 10
73.7704
 20
78.9824
 30
0.0
 11
59.7711
 21
78.9824
 31
0.0
  0
LINE
  8
0
 62
     0
 10
59.7711
 20
78.9824
 30
0.0
 11
59.7711
 21
92.9816
 31
0.0
  0
LINE
  8
0
 62
     0
 10
78.8211
 20
92.9816
 30
0.0
 11
92.8204
 21
92.9816
 31
0.0
  0
LINE
  8
0
 62
     0
 10
92.8204
 20
92.9816
 30
0.0
 11
92.8204
 21
78.9824
 31
0.0
  0
LINE
  8
0
 62
     0
 10
92.8204
 20
78.9824
 30
0.0
 11
78.8211
 21
78.9824
 31
0.0
  0
LINE
  8
0
 62
     0
 10
78.8211
 20
78.9824
 30
0.0
 11
78.8211
 21
92.9816
 31
0.0
  0
LINE
  8
0
 62
     0
 10
97.8697
 20
92.9816
 30
0.0
 11
111.869
 21
92.9816
 31
0.0
  0
LINE
  8
0
 62
     0
 10
111.869
 20
92.9816
 30
0.0
 11
111.869
 21
78.9824
 31
0.0
  0
LINE
  8
0
 62
     0
 10
111.869
 20
78.9824
 30
0.0
 11
97.8697
 21
78.9824
 31
0.0
  0
LINE
  8
0
 62
     0
 10
97.8697
 20
78.9824
 30
0.0
 11
97.8697
 21
92.9816
 31
0.0
  0
LINE
  8
0
 62
     0
 10
116.92
 20
92.9816
 30
0.0
 11
130.92
 21
92.9816
 31
0.0
  0
LINE
  8
0
 62
     0
 10
130.92
 20
92.9816
 30
0.0
 11
130.92
 21
78.9824
 31
0.0
  0
LINE
  8
0
 62
     0
 10
130.92
 20
78.9824
 30
0.0
 11
116.92
 21
78.9824
 31
0.0
  0
LINE
  8
0
 62
     0
 10
116.92
 20
78.9824
 30
0.0
 11
116.92
 21
92.9816
 31
0.0
  0
LINE
  8
0
 62
     0
 10
135.971
 20
92.9816
 30
0.0
 11
149.97
 21
92.9816
 31
0.0
  0
LINE
  8
0
 62
     0
 10
149.97
 20
92.9816
 30
0.0
 11
149.97
 21
78.9824
 31
0.0
  0
LINE
  8
0
 62
     0
 10
149.97
 20
78.9824
 30
0.0
 11
135.971
 21
78.9824
 31
0.0
  0
LINE
  8
0
 62
     0
 10
135.971
 20
78.9824
 30
0.0
 11
135.971
 21
92.9816
 31
0.0
  0
LINE
  8
0
 62
     0
 10
155.021
 20
92.9816
 30
0.0
 11
169.02
 21
92.9816
 31
0.0
  0
LINE
  8
0
 62
     0
 10
169.02
 20
92.9816
 30
0.0
 11
169.02
 21
78.9824
 31
0.0
  0
LINE
  8
0
 62
     0
 10
169.02
 20
78.9824
 30
0.0
 11
155.021
 21
78.9824
 31
0.0
  0
LINE
  8
0
 62
     0
 10
155.021
 20
78.9824
 30
0.0
 11
155.021
 21
92.9816
 31
0.0
  0
LINE
  8
0
 62
     0
 10
174.071
 20
92.9816
 30
0.0
 11
188.07
 21
92.9816
 31
0.0
  0
LINE
  8
0
 62
     0
 10
188.07
 20
92.9816
 30
0.0
 11
188.07
 21
78.9824
 31
0.0
  0
LINE
  8
0
 62
     0
 10
188.07
 20
78.9824
 30
0.0
 11
174.071
 21
78.9824
 31
0.0
  0
LINE
  8
0
 62
     0
 10
174.071
 20
78.9824
 30
0.0
 11
174.071
 21
92.9816
 31
0.0
  0
LINE
  8
0
 62
     0
 10
193.121
 20
92.9816
 30
0.0
 11
207.12
 21
92.9816
 31
0.0
  0
LINE
  8
0
 62
     0
 10
207.12
 20
92.9816
 30
0.0
 11
207.12
 21
78.9824
 31
0.0
  0
LINE
  8
0
 62
     0
 10
207.12
 20
78.9824
 30
0.0
 11
193.121
 21
78.9824
 31
0.0
  0
LINE
  8
0
 62
     0
 10
193.121
 20
78.9824
 30
0.0
 11
193.121
 21
92.9816
 31
0.0
  0
LINE
  8
0
 62
     0
 10
212.171
 20
92.9816
 30
0.0
 11
226.17
 21
92.9816
 31
0.0
  0
LINE
  8
0
 62
     0
 10
226.17
 20
92.9816
 30
0.0
 11
226.17
 21
78.9824
 31
0.0
  0
LINE
  8
0
 62
     0
 10
226.17
 20
78.9824
 30
0.0
 11
212.171
 21
78.9824
 31
0.0
  0
LINE
  8
0
 62
     0
 10
212.171
 20
78.9824
 30
0.0
 11
212.171
 21
92.9816
 31
0.0
  0
LINE
  8
0
 62
     0
 10
231.221
 20
92.9816
 30
0.0
 11
245.22
 21
92.9816
 31
0.0
  0
LINE
  8
0
 62
     0
 10
245.22
 20
92.9816
 30
0.0
 11
245.22
 21
78.9824
 31
0.0
  0
LINE
  8
0
 62
     0
 10
245.22
 20
78.9824
 30
0.0
 11
231.221
 21
78.9824
 31
0.0
  0
LINE
  8
0
 62
     0
 10
231.221
 20
78.9824
 30
0.0
 11
231.221
 21
92.9816
 31
0.0
  0
ENDSEC
  0
EOF
