999
dxflib 3.26.4.0
  0
SECTION
  2
HEADER
  9
$ACADVER
  1
AC1015
  9
$HANDSEED
  5
FFFF
  9
$DIMADEC
 70
0
  9
$DIMASZ
 40
2.5
  9
$DIMATFIT
 70
0
  9
$DIMAUNIT
 70
0
  9
$DIMAZIN
 70
2
  9
$DIMBLK
  1
0
  9
$DIMBLK1
  1
0
  9
$DIMBLK2
  1
0
  9
$DIMDEC
 70
4
  9
$DIMDLI
 40
5.0
  9
$DIMDSEP
 70
46
  9
$DIMEXE
 40
1.25
  9
$DIMEXO
 40
0.625
  9
$DIMGAP
 40
0.625
  9
$DIMLFAC
 40
1.0
  9
$DIMLUNIT
 70
2
  9
$DIMSCALE
 40
1.0
  9
$DIMTAD
 70
1
  9
$DIMTIH
 70
0
  9
$DIMTSZ
 40
0.0
  9
$DIMTXT
 40
2.5
  9
$DIMZIN
 70
8
  9
$DWGCODEPAGE
  3
ANSI_1252
  9
$INSUNITS
 70
4
  9
$LTSCALE
 40
1.0
  9
$MAXACTVP
 70
64
  9
$MEASUREMENT
 70
1
  9
$MIRRTEXT
 70
0
  9
$PDMODE
 70
0
  9
$PDSIZE
 40
0.0
  0
ENDSEC
  0
SECTION
  2
TABLES
  0
TABLE
  2
VPORT
  5
8
100
AcDbSymbolTable
 70
1
  0
VPORT
  5
30
100
AcDbSymbolTableRecord
100
AcDbViewportTableRecord
  2
*Active
 70
0
 10
0.0
 20
0.0
 11
1.0
 21
1.0
 12
286.3055555555554861
 22
148.5
 13
0.0
 23
0.0
 14
10.0
 24
10.0
 15
10.0
 25
10.0
 16
0.0
 26
0.0
 36
1.0
 17
0.0
 27
0.0
 37
0.0
 40
297.0
 41
1.92798353909465
 42
50.0
 43
0.0
 44
0.0
 50
0.0
 51
0.0
 71
0
 72
100
 73
1
 74
3
 75
1
 76
1
 77
0
 78
0
281
0
 65
1
110
0.0
120
0.0
130
0.0
111
1.0
121
0.0
131
0.0
112
0.0
122
1.0
132
0.0
 79
0
146
0.0
  0
ENDTAB
  0
TABLE
  2
LTYPE
  5
5
100
AcDbSymbolTable
 70
41
  0
LTYPE
  5
16
100
AcDbSymbolTableRecord
100
AcDbLinetypeTableRecord
  2
Continuous
 70
0
  3
Solid line
 72
65
 73
0
 40
0.0
  0
LTYPE
  5
31
100
AcDbSymbolTableRecord
100
AcDbLinetypeTableRecord
  2
CENTER2
 70
0
  3
Center (.5x) ___ _ ___ _ ___ _ ___ _ ___ _ ___
 72
65
 73
4
 40
28.5750000000000028
 49
19.0500000000000007
 74
0
 49
-3.1749999999999998
 74
0
 49
3.1749999999999998
 74
0
 49
-3.1749999999999998
 74
0
  0
LTYPE
  5
32
100
AcDbSymbolTableRecord
100
AcDbLinetypeTableRecord
  2
PHANTOMX2
 70
0
  3
Phantom (2x) ____________    ____    ____   _
 72
65
 73
6
 40
127.0000000000000142
 49
63.5
 74
0
 49
-12.6999999999999993
 74
0
 49
12.6999999999999993
 74
0
 49
-12.6999999999999993
 74
0
 49
12.6999999999999993
 74
0
 49
-12.6999999999999993
 74
0
  0
LTYPE
  5
33
100
AcDbSymbolTableRecord
100
AcDbLinetypeTableRecord
  2
DIVIDE2
 70
0
  3
Divide (.5x) __..__..__..__..__..__..__..__.._
 72
65
 73
6
 40
15.8749999999999982
 49
6.3499999999999996
 74
0
 49
-3.125
 74
0
 49
0.1
 74
0
 49
-3.0750000000000002
 74
0
 49
0.1
 74
0
 49
-3.125
 74
0
  0
LTYPE
  5
34
100
AcDbSymbolTableRecord
100
AcDbLinetypeTableRecord
  2
ACAD_ISO14W100
 70
0
  3
ISO dash triple-dot __ . . . __ . . . __ . . . _
 72
65
 73
8
 40
24.0000000000000036
 49
12.0
 74
0
 49
-2.9500000000000002
 74
0
 49
0.1
 74
0
 49
-2.9000000000000004
 74
0
 49
0.1
 74
0
 49
-2.9000000000000004
 74
0
 49
0.1
 74
0
 49
-2.9500000000000002
 74
0
  0
LTYPE
  5
35
100
AcDbSymbolTableRecord
100
AcDbLinetypeTableRecord
  2
HIDDENX2
 70
0
  3
Hidden (2x) ____ ____ ____ ____ ____ ____ ____ 
 72
65
 73
2
 40
19.0499999999999972
 49
12.6999999999999993
 74
0
 49
-6.3499999999999996
 74
0
  0
LTYPE
  5
36
100
AcDbSymbolTableRecord
100
AcDbLinetypeTableRecord
  2
CENTER
 70
0
  3
Center ____ _ ____ _ ____ _ ____ _ ____ _ ____
 72
65
 73
4
 40
50.8000000000000043
 49
31.75
 74
0
 49
-6.3499999999999996
 74
0
 49
6.3499999999999996
 74
0
 49
-6.3499999999999996
 74
0
  0
LTYPE
  5
37
100
AcDbSymbolTableRecord
100
AcDbLinetypeTableRecord
  2
DASHDOT
 70
0
  3
Dash dot __ . __ . __ . __ . __ . __ . __ . __
 72
65
 73
4
 40
25.4000000000000021
 49
12.6999999999999993
 74
0
 49
-6.2999999999999998
 74
0
 49
0.1
 74
0
 49
-6.2999999999999998
 74
0
  0
LTYPE
  5
38
100
AcDbSymbolTableRecord
100
AcDbLinetypeTableRecord
  2
DIVIDE
 70
0
  3
Divide ____ . . ____ . . ____ . . ____ . . ____
 72
65
 73
6
 40
31.7500000000000036
 49
12.6999999999999993
 74
0
 49
-6.2999999999999998
 74
0
 49
0.1
 74
0
 49
-6.25
 74
0
 49
0.1
 74
0
 49
-6.2999999999999998
 74
0
  0
LTYPE
  5
39
100
AcDbSymbolTableRecord
100
AcDbLinetypeTableRecord
  2
CENTERX2
 70
0
  3
Center (2x) ________  __  ________  __  _____
 72
65
 73
4
 40
101.6000000000000085
 49
63.5
 74
0
 49
-12.6999999999999993
 74
0
 49
12.6999999999999993
 74
0
 49
-12.6999999999999993
 74
0
  0
LTYPE
  5
3A
100
AcDbSymbolTableRecord
100
AcDbLinetypeTableRecord
  2
DASHDOTX2
 70
0
  3
Dash dot (2x) ____  .  ____  .  ____  .  ___
 72
65
 73
4
 40
50.7999999999999972
 49
25.3999999999999986
 74
0
 49
-12.6499999999999986
 74
0
 49
0.1
 74
0
 49
-12.6499999999999986
 74
0
  0
LTYPE
  5
3B
100
AcDbSymbolTableRecord
100
AcDbLinetypeTableRecord
  2
ACAD_ISO08W100
 70
0
  3
ISO long-dash short-dash ____ __ ____ __ ____ _
 72
65
 73
4
 40
36.0
 49
24.0
 74
0
 49
-3.0
 74
0
 49
6.0
 74
0
 49
-3.0
 74
0
  0
LTYPE
  5
3C
100
AcDbSymbolTableRecord
100
AcDbLinetypeTableRecord
  2
ACAD_ISO11W100
 70
0
  3
ISO double-dash dot __ __ . __ __ . __ __ . __ _
 72
65
 73
6
 40
33.0
 49
12.0
 74
0
 49
-3.0
 74
0
 49
12.0
 74
0
 49
-2.9500000000000002
 74
0
 49
0.1
 74
0
 49
-2.9500000000000002
 74
0
  0
LTYPE
  5
3D
100
AcDbSymbolTableRecord
100
AcDbLinetypeTableRecord
  2
ACAD_ISO03W100
 70
0
  3
ISO dash space __    __    __    __    __    __
 72
65
 73
2
 40
30.0
 49
12.0
 74
0
 49
-18.0
 74
0
  0
LTYPE
  5
3E
100
AcDbSymbolTableRecord
100
AcDbLinetypeTableRecord
  2
ACAD_ISO06W100
 70
0
  3
ISO long-dash triple-dot ____ ... ____ ... ____
 72
65
 73
8
 40
36.0000000000000071
 49
24.0
 74
0
 49
-2.9500000000000002
 74
0
 49
0.1
 74
0
 49
-2.9000000000000004
 74
0
 49
0.1
 74
0
 49
-2.9000000000000004
 74
0
 49
0.1
 74
0
 49
-2.9500000000000002
 74
0
  0
LTYPE
  5
3F
100
AcDbSymbolTableRecord
100
AcDbLinetypeTableRecord
  2
DIVIDEX2
 70
0
  3
Divide (2x) ________  .  .  ________  .  .  _
 72
65
 73
6
 40
63.5
 49
25.3999999999999986
 74
0
 49
-12.6499999999999986
 74
0
 49
0.1
 74
0
 49
-12.5999999999999979
 74
0
 49
0.1
 74
0
 49
-12.6499999999999986
 74
0
  0
LTYPE
  5
40
100
AcDbSymbolTableRecord
100
AcDbLinetypeTableRecord
  2
ACAD_ISO04W100
 70
0
  3
ISO long-dash dot ____ . ____ . ____ . ____ . _
 72
65
 73
4
 40
30.0
 49
24.0
 74
0
 49
-2.9500000000000002
 74
0
 49
0.1
 74
0
 49
-2.9500000000000002
 74
0
  0
LTYPE
  5
41
100
AcDbSymbolTableRecord
100
AcDbLinetypeTableRecord
  2
HIDDEN
 70
0
  3
Hidden __ __ __ __ __ __ __ __ __ __ __ __ __ __
 72
65
 73
2
 40
9.5249999999999986
 49
6.3499999999999996
 74
0
 49
-3.1749999999999998
 74
0
  0
LTYPE
  5
42
100
AcDbSymbolTableRecord
100
AcDbLinetypeTableRecord
  2
ACAD_ISO13W100
 70
0
  3
ISO double-dash double-dot __ __ . . __ __ . . _
 72
65
 73
8
 40
36.0000000000000071
 49
12.0
 74
0
 49
-3.0
 74
0
 49
12.0
 74
0
 49
-2.9500000000000002
 74
0
 49
0.1
 74
0
 49
-2.9000000000000004
 74
0
 49
0.1
 74
0
 49
-2.9500000000000002
 74
0
  0
LTYPE
  5
43
100
AcDbSymbolTableRecord
100
AcDbLinetypeTableRecord
  2
BORDER2
 70
0
  3
Border (.5x) __.__.__.__.__.__.__.__.__.__.__.
 72
65
 73
6
 40
22.2250000000000014
 49
6.3499999999999996
 74
0
 49
-3.1749999999999998
 74
0
 49
6.3499999999999996
 74
0
 49
-3.125
 74
0
 49
0.1
 74
0
 49
-3.125
 74
0
  0
LTYPE
  5
44
100
AcDbSymbolTableRecord
100
AcDbLinetypeTableRecord
  2
DOT
 70
0
  3
Dot . . . . . . . . . . . . . . . . . . . . . . . .
 72
65
 73
2
 40
6.3499999999999996
 49
0.1
 74
0
 49
-6.25
 74
0
  0
LTYPE
  5
45
100
AcDbSymbolTableRecord
100
AcDbLinetypeTableRecord
  2
DASHED2
 70
0
  3
Dashed (.5x) _ _ _ _ _ _ _ _ _ _ _ _ _ _ _ _ _ 
 72
65
 73
2
 40
9.5249999999999986
 49
6.3499999999999996
 74
0
 49
-3.1749999999999998
 74
0
  0
LTYPE
  5
46
100
AcDbSymbolTableRecord
100
AcDbLinetypeTableRecord
  2
HIDDEN2
 70
0
  3
Hidden (.5x) _ _ _ _ _ _ _ _ _ _ _ _ _ _ _ _ _ 
 72
65
 73
2
 40
4.7624999999999993
 49
3.1749999999999998
 74
0
 49
-1.5874999999999999
 74
0
  0
LTYPE
  5
47
100
AcDbSymbolTableRecord
100
AcDbLinetypeTableRecord
  2
DASHDOT2
 70
0
  3
Dash dot (.5x) _._._._._._._._._._._._._._._.
 72
65
 73
4
 40
12.6999999999999993
 49
6.3499999999999996
 74
0
 49
-3.125
 74
0
 49
0.1
 74
0
 49
-3.125
 74
0
  0
LTYPE
  5
48
100
AcDbSymbolTableRecord
100
AcDbLinetypeTableRecord
  2
ACAD_ISO12W100
 70
0
  3
ISO dash double-dot __ . . __ . . __ . . __ . . 
 72
65
 73
6
 40
21.0
 49
12.0
 74
0
 49
-2.9500000000000002
 74
0
 49
0.1
 74
0
 49
-2.9000000000000004
 74
0
 49
0.1
 74
0
 49
-2.9500000000000002
 74
0
  0
LTYPE
  5
49
100
AcDbSymbolTableRecord
100
AcDbLinetypeTableRecord
  2
ACAD_ISO07W100
 70
0
  3
ISO dot . . . . . . . . . . . . . . . . . . . . 
 72
65
 73
2
 40
3.0
 49
0.1
 74
0
 49
-2.8999999999999999
 74
0
  0
LTYPE
  5
4A
100
AcDbSymbolTableRecord
100
AcDbLinetypeTableRecord
  2
ACAD_ISO09W100
 70
0
  3
ISO long-dash double-short-dash ____ __ __ ____
 72
65
 73
6
 40
45.0
 49
24.0
 74
0
 49
-3.0
 74
0
 49
6.0
 74
0
 49
-3.0
 74
0
 49
6.0
 74
0
 49
-3.0
 74
0
  0
LTYPE
  5
15
100
AcDbSymbolTableRecord
100
AcDbLinetypeTableRecord
  2
BYLAYER
 70
0
  3

 72
65
 73
0
 40
0.0
  0
LTYPE
  5
4B
100
AcDbSymbolTableRecord
100
AcDbLinetypeTableRecord
  2
DOT2
 70
0
  3
Dot (.5x) ........................................
 72
65
 73
2
 40
3.1749999999999998
 49
0.1
 74
0
 49
-3.0749999999999997
 74
0
  0
LTYPE
  5
4C
100
AcDbSymbolTableRecord
100
AcDbLinetypeTableRecord
  2
ACAD_ISO15W100
 70
0
  3
ISO double-dash triple-dot __ __ . . . __ __ . .
 72
65
 73
10
 40
39.0000000000000071
 49
12.0
 74
0
 49
-3.0
 74
0
 49
12.0
 74
0
 49
-2.9500000000000002
 74
0
 49
0.1
 74
0
 49
-2.9000000000000004
 74
0
 49
0.1
 74
0
 49
-2.9000000000000004
 74
0
 49
0.1
 74
0
 49
-2.9500000000000002
 74
0
  0
LTYPE
  5
4D
100
AcDbSymbolTableRecord
100
AcDbLinetypeTableRecord
  2
BORDER
 70
0
  3
Border __ __ . __ __ . __ __ . __ __ . __ __ .
 72
65
 73
6
 40
44.4499999999999957
 49
12.6999999999999993
 74
0
 49
-6.3499999999999996
 74
0
 49
12.6999999999999993
 74
0
 49
-6.2999999999999998
 74
0
 49
0.1
 74
0
 49
-6.2999999999999998
 74
0
  0
LTYPE
  5
4E
100
AcDbSymbolTableRecord
100
AcDbLinetypeTableRecord
  2
PHANTOM
 70
0
  3
Phantom ______  __  __  ______  __  __  ______ 
 72
65
 73
6
 40
63.5000000000000071
 49
31.75
 74
0
 49
-6.3499999999999996
 74
0
 49
6.3499999999999996
 74
0
 49
-6.3499999999999996
 74
0
 49
6.3499999999999996
 74
0
 49
-6.3499999999999996
 74
0
  0
LTYPE
  5
14
100
AcDbSymbolTableRecord
100
AcDbLinetypeTableRecord
  2
BYBLOCK
 70
0
  3

 72
65
 73
0
 40
0.0
  0
LTYPE
  5
4F
100
AcDbSymbolTableRecord
100
AcDbLinetypeTableRecord
  2
ACAD_ISO10W100
 70
0
  3
ISO dash dot __ . __ . __ . __ . __ . __ . __ . 
 72
65
 73
4
 40
18.0
 49
12.0
 74
0
 49
-2.9500000000000002
 74
0
 49
0.1
 74
0
 49
-2.9500000000000002
 74
0
  0
LTYPE
  5
50
100
AcDbSymbolTableRecord
100
AcDbLinetypeTableRecord
  2
PHANTOM2
 70
0
  3
Phantom (.5x) ___ _ _ ___ _ _ ___ _ _ ___ _ _
 72
65
 73
6
 40
31.7500000000000036
 49
15.875
 74
0
 49
-3.1749999999999998
 74
0
 49
3.1749999999999998
 74
0
 49
-3.1749999999999998
 74
0
 49
3.1749999999999998
 74
0
 49
-3.1749999999999998
 74
0
  0
LTYPE
  5
51
100
AcDbSymbolTableRecord
100
AcDbLinetypeTableRecord
  2
DASHED
 70
0
  3
Dashed __ __ __ __ __ __ __ __ __ __ __ __ __ _
 72
65
 73
2
 40
19.0499999999999972
 49
12.6999999999999993
 74
0
 49
-6.3499999999999996
 74
0
  0
LTYPE
  5
52
100
AcDbSymbolTableRecord
100
AcDbLinetypeTableRecord
  2
ACAD_ISO02W100
 70
0
  3
ISO dash __ __ __ __ __ __ __ __ __ __ __ __ __
 72
65
 73
2
 40
15.0
 49
12.0
 74
0
 49
-3.0
 74
0
  0
LTYPE
  5
53
100
AcDbSymbolTableRecord
100
AcDbLinetypeTableRecord
  2
DASHEDX2
 70
0
  3
Dashed (2x) ____  ____  ____  ____  ____  ___
 72
65
 73
2
 40
38.0999999999999943
 49
25.3999999999999986
 74
0
 49
-12.6999999999999993
 74
0
  0
LTYPE
  5
54
100
AcDbSymbolTableRecord
100
AcDbLinetypeTableRecord
  2
ACAD_ISO05W100
 70
0
  3
ISO long-dash double-dot ____ .. ____ .. ____ . 
 72
65
 73
6
 40
33.0000000000000071
 49
24.0
 74
0
 49
-2.9500000000000002
 74
0
 49
0.1
 74
0
 49
-2.9000000000000004
 74
0
 49
0.1
 74
0
 49
-2.9500000000000002
 74
0
  0
LTYPE
  5
55
100
AcDbSymbolTableRecord
100
AcDbLinetypeTableRecord
  2
BORDERX2
 70
0
  3
Border (2x) ____  ____  .  ____  ____  .  ___
 72
65
 73
6
 40
88.8999999999999773
 49
25.3999999999999986
 74
0
 49
-12.6999999999999993
 74
0
 49
25.3999999999999986
 74
0
 49
-12.6499999999999986
 74
0
 49
0.1
 74
0
 49
-12.6499999999999986
 74
0
  0
LTYPE
  5
56
100
AcDbSymbolTableRecord
100
AcDbLinetypeTableRecord
  2
DOTX2
 70
0
  3
Dot (2x) .  .  .  .  .  .  .  .  .  .  .  .  .  .
 72
65
 73
2
 40
12.6999999999999993
 49
0.1
 74
0
 49
-12.5999999999999996
 74
0
  0
ENDTAB
  0
TABLE
  2
LAYER
  5
2
100
AcDbSymbolTable
 70
1
  0
LAYER
  5
10
100
AcDbSymbolTableRecord
100
AcDbLayerTableRecord
  2
0
 70
0
 62
7
420
16777215
  6
Continuous
370
25
390
F
  0
ENDTAB
  0
TABLE
  2
STYLE
  5
3
100
AcDbSymbolTable
 70
1
  0
STYLE
  5
57
100
AcDbSymbolTableRecord
100
AcDbTextStyleTableRecord
  2
Standard
 70
0
 40
0.0
 41
1.0
 50
0.0
 71
0
 42
2.5
  3

  4

1001
ACAD
1000
txt
1071
0
  0
ENDTAB
  0
TABLE
  2
VIEW
  5
6
100
AcDbSymbolTable
 70
0
  0
ENDTAB
  0
TABLE
  2
UCS
  5
7
100
AcDbSymbolTable
 70
0
  0
ENDTAB
  0
TABLE
  2
APPID
  5
9
100
AcDbSymbolTable
 70
1
  0
APPID
  5
12
100
AcDbSymbolTableRecord
100
AcDbRegAppTableRecord
  2
ACAD
 70
0
  0
APPID
  5
58
100
AcDbSymbolTableRecord
100
AcDbRegAppTableRecord
  2
QCAD
 70
0
  0
ENDTAB
  0
TABLE
  2
DIMSTYLE
  5
A
100
AcDbSymbolTable
 70
1
100
AcDbDimStyleTable
 71
0
  0
DIMSTYLE
105
27
100
AcDbSymbolTableRecord
100
AcDbDimStyleTableRecord
  2
Standard
 41
2.5
 42
0.625
 43
3.75
 44
1.25
 70
0
 73
0
 74
0
 77
1
 78
8
140
2.5
141
2.5
143
0.03937007874016
147
0.625
171
3
172
1
271
2
272
2
274
3
278
44
283
0
284
8
340
57
  0
ENDTAB
  0
TABLE
  2
BLOCK_RECORD
  5
1
100
AcDbSymbolTable
 70
1
  0
BLOCK_RECORD
  5
1F
100
AcDbSymbolTableRecord
100
AcDbBlockTableRecord
  2
*Model_Space
340
22
  0
BLOCK_RECORD
  5
1B
100
AcDbSymbolTableRecord
100
AcDbBlockTableRecord
  2
*Paper_Space
340
1E
  0
BLOCK_RECORD
  5
23
100
AcDbSymbolTableRecord
100
AcDbBlockTableRecord
  2
*Paper_Space0
340
26
  0
ENDTAB
  0
ENDSEC
  0
SECTION
  2
BLOCKS
  0
BLOCK
  5
20
100
AcDbEntity
  8
0
100
AcDbBlockBegin
  2
*Model_Space
 70
0
 10
0.0
 20
0.0
 30
0.0
  3
*Model_Space
  1

  0
ENDBLK
  5
21
100
AcDbEntity
  8
0
100
AcDbBlockEnd
  0
BLOCK
  5
1C
100
AcDbEntity
 67
1
  8
0
100
AcDbBlockBegin
  2
*Paper_Space
 70
0
 10
0.0
 20
0.0
 30
0.0
  3
*Paper_Space
  1

  0
ENDBLK
  5
1D
100
AcDbEntity
 67
1
  8
0
100
AcDbBlockEnd
  0
BLOCK
  5
24
100
AcDbEntity
  8
0
100
AcDbBlockBegin
  2
*Paper_Space0
 70
0
 10
0.0
 20
0.0
 30
0.0
  3
*Paper_Space0
  1

  0
ENDBLK
  5
25
100
AcDbEntity
  8
0
100
AcDbBlockEnd
  0
ENDSEC
  0
SECTION
  2
ENTITIES
  0
LINE
  5
59
100
AcDbEntity
  8
0
 62
256
370
-1
 48
1.0
  6
BYLAYER
100
AcDbLine
 10
1.0
 20
0.0
 30
0.0
 11
28.75
 21
0.0
 31
0.0
  0
LINE
  5
5A
100
AcDbEntity
  8
0
 62
256
370
-1
 48
1.0
  6
BYLAYER
100
AcDbLine
 10
29.75
 20
1.0
 30
0.0
 11
29.75
 21
96.0
 31
0.0
  0
LINE
  5
5B
100
AcDbEntity
  8
0
 62
256
370
-1
 48
1.0
  6
BYLAYER
100
AcDbLine
 10
28.75
 20
97.0
 30
0.0
 11
1.0
 21
97.0
 31
0.0
  0
LINE
  5
5C
100
AcDbEntity
  8
0
 62
256
370
-1
 48
1.0
  6
BYLAYER
100
AcDbLine
 10
0.0
 20
96.0
 30
0.0
 11
0.0
 21
1.0
 31
0.0
  0
ARC
  5
5D
100
AcDbEntity
  8
0
 62
256
370
-1
 48
1.0
  6
BYLAYER
100
AcDbCircle
 10
1.0
 20
96.0
 30
0.0
 40
1.0
100
AcDbArc
 50
90.0
 51
180.0
  0
ARC
  5
5E
100
AcDbEntity
  8
0
 62
256
370
-1
 48
1.0
  6
BYLAYER
100
AcDbCircle
 10
28.75
 20
96.0
 30
0.0
 40
1.0
100
AcDbArc
 50
0.0
 51
90.0
  0
ARC
  5
5F
100
AcDbEntity
  8
0
 62
256
370
-1
 48
1.0
  6
BYLAYER
100
AcDbCircle
 10
1.0
 20
1.0
 30
0.0
 40
1.0
100
AcDbArc
 50
180.0
 51
270.0
  0
ARC
  5
60
100
AcDbEntity
  8
0
 62
256
370
-1
 48
1.0
  6
BYLAYER
100
AcDbCircle
 10
28.75
 20
1.0
 30
0.0
 40
1.0
100
AcDbArc
 50
270.0
 51
0.0
  0
LINE
  5
61
100
AcDbEntity
  8
0
 62
256
370
-1
 48
1.0
  6
BYLAYER
100
AcDbLine
 10
3.0249999999999999
 20
62.375
 30
0.0
 11
26.7250000000000014
 21
62.375
 31
0.0
  0
LINE
  5
62
100
AcDbEntity
  8
0
 62
256
370
-1
 48
1.0
  6
BYLAYER
100
AcDbLine
 10
26.7250000000000014
 20
62.375
 30
0.0
 11
26.7250000000000014
 21
13.8249999999999993
 31
0.0
  0
LINE
  5
63
100
AcDbEntity
  8
0
 62
256
370
-1
 48
1.0
  6
BYLAYER
100
AcDbLine
 10
26.7250000000000014
 20
13.8249999999999993
 30
0.0
 11
3.0249999999999999
 21
13.8249999999999993
 31
0.0
  0
LINE
  5
64
100
AcDbEntity
  8
0
 62
256
370
-1
 48
1.0
  6
BYLAYER
100
AcDbLine
 10
3.0249999999999999
 20
13.8249999999999993
 30
0.0
 11
3.0249999999999999
 21
62.375
 31
0.0
  0
CIRCLE
  5
65
100
AcDbEntity
  8
0
 62
256
370
-1
 48
1.0
  6
BYLAYER
100
AcDbCircle
 10
2.375
 20
2.375
 30
0.0
 40
1.1000000000000001
  0
CIRCLE
  5
66
100
AcDbEntity
  8
0
 62
256
370
-1
 48
1.0
  6
BYLAYER
100
AcDbCircle
 10
27.375
 20
2.375
 30
0.0
 40
1.1000000000000014
  0
CIRCLE
  5
67
100
AcDbEntity
  8
0
 62
256
370
-1
 48
1.0
  6
BYLAYER
100
AcDbCircle
 10
2.375
 20
94.625
 30
0.0
 40
1.0999999999999943
  0
CIRCLE
  5
68
100
AcDbEntity
  8
0
 62
256
370
-1
 48
1.0
  6
BYLAYER
100
AcDbCircle
 10
27.375
 20
94.625
 30
0.0
 40
1.0999999999999943
  0
LINE
  5
69
100
AcDbEntity
  8
0
 62
256
370
5
 48
1.0
  6
BYLAYER
100
AcDbLine
 10
3.0249999999999999
 20
6.25
 30
0.0
 11
26.7250000000000014
 21
6.25
 31
0.0
  0
LINE
  5
6A
100
AcDbEntity
  8
0
 62
256
370
5
 48
1.0
  6
BYLAYER
100
AcDbLine
 10
26.7250000000000014
 20
6.25
 30
0.0
 11
26.7250000000000014
 21
5.75
 31
0.0
  0
LINE
  5
6B
100
AcDbEntity
  8
0
 62
256
370
5
 48
1.0
  6
BYLAYER
100
AcDbLine
 10
26.7250000000000014
 20
5.75
 30
0.0
 11
3.0249999999999999
 21
5.75
 31
0.0
  0
LINE
  5
6C
100
AcDbEntity
  8
0
 62
256
370
5
 48
1.0
  6
BYLAYER
100
AcDbLine
 10
3.0249999999999999
 20
5.75
 30
0.0
 11
3.0249999999999999
 21
6.25
 31
0.0
  0
LWPOLYLINE
  5
6D
100
AcDbEntity
  8
0
 62
256
370
5
 48
1.0
  6
BYLAYER
100
AcDbPolyline
 90
8
 70
129
 10
9.2820766075439032
 20
74.192135549872134
 10
9.2820766075439032
 20
78.1349104859335029
 10
10.4085152264697349
 20
78.1349104859335029
 10
10.4085152264697349
 20
77.8491048593350428
 10
9.6004909297945424
 20
77.8491048593350428
 10
9.6004909297945424
 20
74.4779411764705941
 10
10.4085152264697349
 20
74.4779411764705941
 10
10.4085152264697349
 20
74.192135549872134
  0
LWPOLYLINE
  5
6E
100
AcDbEntity
  8
0
 62
256
370
5
 48
1.0
  6
BYLAYER
100
AcDbPolyline
 90
12
 70
129
 10
12.2940650985924975
 20
74.7757352941176521
 10
11.6529205973137255
 20
76.1184462915601046
 10
11.4611047405362321
 20
75.8043478260869676
 10
11.4611047405362321
 20
74.7757352941176521
 10
11.1470062750630863
 20
74.7757352941176521
 10
11.1470062750630863
 20
77.7757352941176521
 10
11.4611047405362321
 20
77.7757352941176521
 10
11.4611047405362321
 20
76.3553388746803137
 10
12.2815970679019593
 20
77.7757352941176521
 10
12.6369359425822676
 20
77.7757352941176521
 10
11.8284321062651312
 20
76.4167199488491065
 10
12.6369359425822676
 20
74.7757352941176521
  0
LWPOLYLINE
  5
6F
100
AcDbEntity
  8
0
 62
256
370
5
 48
1.0
  6
BYLAYER
100
AcDbPolyline
 90
12
 70
129
 10
13.1548387558814994
 20
74.7757352941176521
 10
13.1548387558814994
 20
77.7757352941176521
 10
14.6404525666231891
 20
77.7757352941176521
 10
14.6404525666231891
 20
77.489929667519192
 10
13.4732530781321387
 20
77.489929667519192
 10
13.4732530781321387
 20
76.4776214833759695
 10
14.4117121574160265
 20
76.4776214833759695
 10
14.4117121574160265
 20
76.1922953964194392
 10
13.4732530781321387
 20
76.1922953964194392
 10
13.4732530781321387
 20
75.0615409207161122
 10
14.6404525666231891
 20
75.0615409207161122
 10
14.6404525666231891
 20
74.7757352941176521
  0
LWPOLYLINE
  5
70
100
AcDbEntity
  8
0
 62
256
370
5
 48
1.0
  6
BYLAYER
100
AcDbPolyline
 90
9
 70
129
 10
15.7625753287715256
 20
74.7757352941176521
 10
15.7625753287715256
 20
75.9836956521739211
 10
15.0849858147050302
 20
77.7757352941176521
 10
15.4240203415592489
 20
77.7757352941176521
 10
15.9217824898968452
 20
76.4042519181585789
 10
16.4195446382344414
 20
77.7757352941176521
 10
16.758579165088662
 20
77.7757352941176521
 10
16.0809896510221648
 20
75.9836956521739211
 10
16.0809896510221648
 20
74.7757352941176521
  0
LWPOLYLINE
  5
71
100
AcDbEntity
  8
0
 62
256
370
5
 48
1.0
  6
BYLAYER
100
AcDbPolyline
 90
66
 70
129
 10
17.9579078095899405
 20
74.74312659846548
 42
-0.0396528575409605
 10
17.7541034617638545
 20
74.7594309462915589
 42
-0.0701775361869531
 10
17.5601296765976151
 20
74.8186540920716112
 42
-0.073693480147242
 10
17.3908521829914733
 20
74.9308663682864449
 42
-0.0791027959573332
 10
17.2623355589505536
 20
75.0879156010230275
 42
-0.0735179285619448
 10
17.1868080653444153
 20
75.2778132992327471
 42
-0.0590162831854263
 10
17.1623515436052863
 20
75.4820971867007984
 10
17.1623515436052863
 20
75.5103900255754468
 10
17.4807658658559255
 20
75.5103900255754468
 10
17.4807658658559255
 20
75.4902493606138165
 42
0.0878615485307605
 10
17.5133745615080976
 20
75.3063459079283888
 42
0.1154178294801545
 10
17.6133585768533685
 20
75.151214833759596
 42
0.1191357876699207
 10
17.7725657379786881
 20
75.057464833759596
 42
0.0758756243574904
 10
17.9579078095899405
 20
75.0289322250639401
 42
0.0741931003612307
 10
18.1458873492318844
 20
75.057464833759596
 42
0.128917280558217
 10
18.3072524387459517
 20
75.1552909207161122
 42
0.1092282404125639
 10
18.407236454091219
 20
75.316416240409211
 42
0.0861165776341006
 10
18.4398451497433946
 20
75.502237851662386
 42
0.1027658469144775
 10
18.3969263517894284
 20
75.7082001278772481
 42
0.0889369143847663
 10
18.2825561471858471
 20
75.8837116368286502
 42
0.0724482626013137
 10
18.1192728991040077
 20
76.0124680306905418
 42
0.0111075338343342
 10
17.9336910576717834
 20
76.1146099744245532
 42
-0.0066639664420432
 10
17.7481092162395555
 20
76.2145939897698241
 42
-0.0415367426230306
 10
17.5745158658559255
 20
76.3308823529411882
 42
-0.0454292416020327
 10
17.4234608786436489
 20
76.4757033248081939
 42
-0.0523709773704072
 10
17.3030964285157722
 20
76.6471387468030798
 42
-0.0696178949354414
 10
17.2275689349096339
 20
76.8430306905370912
 42
-0.0579433584348738
 10
17.2031124131705049
 20
77.0492327365729039
 42
-0.0550787316595841
 10
17.2254110065208863
 20
77.2513586956521863
 42
-0.0662017575956232
 10
17.2947044847817573
 20
77.4410166240409268
 42
-0.072450966915157
 10
17.4131507763418583
 20
77.6042998721227661
 42
-0.0803433942380526
 10
17.5745158658559255
 20
77.7249040920716112
 42
-0.0759103918686824
 10
17.7644135640656451
 20
77.7901214833759695
 42
-0.0451913384131
 10
17.9660599835029835
 20
77.8083439897698241
 42
-0.041275750935399
 10
18.1662677840144937
 20
77.7920396419437452
 42
-0.0752841536244614
 10
18.3540075538354657
 20
77.7308983375959173
 42
-0.0773189334423455
 10
18.517290801917305
 20
77.6146099744245532
 42
-0.077758737635026
 10
18.6378950218661572
 20
77.4554028132992443
 42
-0.0674217352433981
 10
18.7071885001270246
 20
77.2695812020460409
 42
-0.056128343966231
 10
18.7294870934774096
 20
77.0698529411764497
 10
18.7294870934774096
 20
77.0410805626598574
 10
18.4110727712267703
 20
77.0410805626598574
 10
18.4110727712267703
 20
77.0617007672634315
 42
0.0792300990860382
 10
18.382540162531118
 20
77.2391304347826093
 42
0.1072397824385498
 10
18.2928662494876377
 20
77.3942615089514163
 42
0.1276262943401071
 10
18.1439691906641087
 20
77.4920875959079325
 42
0.0842692600521267
 10
17.9660599835029835
 20
77.522538363171364
 42
0.0880223605203778
 10
17.7867121574160265
 20
77.489929667519192
 42
0.1231422264071514
 10
17.6356571702037499
 20
77.3899456521739211
 42
0.1093817559286389
 10
17.5457434873393012
 20
77.2328964194373384
 42
0.0776280326008125
 10
17.5172108786436489
 20
77.0492327365729039
 42
0.0997741629477109
 10
17.5579717482088675
 20
76.8451886189258317
 42
0.0925563568678113
 10
17.6723419528124488
 20
76.6696771099744296
 42
0.0692047533754517
 10
17.8356252008942882
 20
76.5390025575447623
 42
0.0185290627517765
 10
18.0192888837587404
 20
76.4390185421994914
 42
-0.0159314025989752
 10
18.2051104950119367
 20
76.3390345268542205
 42
-0.0342343502519289
 10
18.3806220039633423
 20
76.220588235294116
 42
-0.0448315795070938
 10
18.5335951497433946
 20
76.077925191815865
 42
-0.0623284704148791
 10
18.6520414413034956
 20
75.9064897698209791
 42
-0.0575390653361988
 10
18.7275689349096339
 20
75.7103580562659886
 42
-0.0635121381467957
 10
18.7539436152165386
 20
75.5022378516624002
 42
-0.0591526476466148
 10
18.7294870934774096
 20
75.2981937340153564
 42
-0.0638099905211848
 10
18.6561175282600153
 20
75.1044597186700855
 42
-0.0816412576715786
 10
18.531676991175619
 20
74.9411764705882462
 42
-0.0787825575584158
 10
18.3621597277485087
 20
74.8248881074168821
 42
-0.0677880514780494
 10
18.1641098556257461
 20
74.7615888746803137
 42
-0.0440015293900081
  0
LWPOLYLINE
  5
72
100
AcDbEntity
  8
0
 62
256
370
5
 48
1.0
  6
BYLAYER
100
AcDbPolyline
 90
8
 70
129
 10
19.3946085768533685
 20
74.192135549872134
 10
19.3946085768533685
 20
74.4779411764705941
 10
20.202632873528561
 20
74.4779411764705941
 10
20.202632873528561
 20
77.8491048593350428
 10
19.3946085768533685
 20
77.8491048593350428
 10
19.3946085768533685
 20
78.1349104859335029
 10
20.5210471957792002
 20
78.1349104859335029
 10
20.5210471957792002
 20
74.192135549872134
  0
LWPOLYLINE
  5
73
100
AcDbEntity
  8
0
 62
256
370
5
 48
1.0
  6
BYLAYER
100
AcDbPolyline
 90
8
 70
129
 10
9.1617121574160265
 20
69.3430306905370912
 10
9.1617121574160265
 20
73.2858056265984743
 10
10.2881507763418583
 20
73.2858056265984743
 10
10.2881507763418583
 20
73.0
 10
9.4801264796666658
 20
73.0
 10
9.4801264796666658
 20
69.6288363171355513
 10
10.2881507763418583
 20
69.6288363171355513
 10
10.2881507763418583
 20
69.3430306905370912
  0
LWPOLYLINE
  5
74
100
AcDbEntity
  8
0
 62
256
370
5
 48
1.0
  6
BYLAYER
100
AcDbPolyline
 90
63
 70
129
 10
12.3367441267254918
 20
69.6125319693094724
 10
11.720535686827791
 20
69.6125319693094724
 42
-0.0519116497034051
 10
11.50833939526769
 20
69.6348305626598574
 42
-0.0802673729773632
 10
11.3102895231449274
 20
69.7103580562659886
 42
-0.0860827020323318
 10
11.1491642034518321
 20
69.8451086956521721
 42
-0.0735117476321697
 10
11.0369519272369985
 20
70.0246962915601046
 42
-0.0653404938657064
 10
10.977728781456948
 20
70.2287404092071625
 42
-0.038235624392899
 10
10.9614244336308602
 20
70.4406969309468423
 10
10.9614244336308602
 20
72.1876598465473194
 42
-0.0382362380950235
 10
10.977728781456948
 20
72.4000959079283888
 42
-0.0653404938657059
 10
11.0369519272369985
 20
72.6041400255754468
 42
-0.073511747632167
 10
11.1491642034518321
 20
72.7837276214833793
 42
-0.086082702032331
 10
11.3102895231449274
 20
72.9184782608695627
 42
-0.0802673729772997
 10
11.50833939526769
 20
72.9940057544757082
 42
-0.0519116497034064
 10
11.720535686827791
 20
73.0163043478260931
 42
-0.0519116497034072
 10
11.9327319783878956
 20
72.9940057544757082
 42
-0.0802673729773024
 10
12.1307818505106564
 20
72.9184782608695627
 42
-0.0860827020323536
 10
12.2919071702037517
 20
72.7837276214833793
 42
-0.073511747632181
 10
12.4041194464185853
 20
72.6041400255754468
 42
-0.0653404938657218
 10
12.4633425921986358
 20
72.4000959079283888
 42
-0.0382362380950213
 10
12.4796469400247236
 20
72.1876598465465378
 10
12.4796469400247236
 20
70.8411125319693156
 42
-0.0301358660263386
 10
12.4714947661116788
 20
70.7042039641943774
 42
-0.0598659867293863
 10
12.438886070459505
 20
70.5716112531969344
 42
-0.0595073617629217
 10
12.375586837722933
 20
70.4490888746803137
 42
-0.0921033430675833
 10
12.281597067901961
 20
70.3531809462915589
 42
-0.0960075607416884
 10
12.1571565308175629
 20
70.2982736572890019
 42
-0.0579469431874966
 10
12.0226456612523442
 20
70.281969309462923
 42
-0.0596374334034748
 10
11.8857370934774096
 20
70.2982736572890019
 42
-0.0902948781910202
 10
11.7612965563930096
 20
70.3531809462915589
 42
-0.0962501490103661
 10
11.665388628004262
 20
70.4490888746803137
 42
-0.0669547606813579
 10
11.6042473236564376
 20
70.5716112531969344
 42
-0.0445170867612559
 10
11.571638628004262
 20
70.7042039641943774
 42
-0.038032002863322
 10
11.5613285257024714
 20
70.8411125319693298
 10
11.5613285257024714
 20
71.6203644501278802
 42
-0.0369932189937131
 10
11.571638628004262
 20
71.7591911764705941
 42
-0.0526584738943033
 10
11.6064052520451835
 20
71.8939418158567776
 42
-0.0716262168974465
 10
11.6735408019173068
 20
72.0164641943734125
 42
-0.0907432969478726
 10
11.7735248172625759
 20
72.1102141943734125
 42
-0.085368180464009
 10
11.90012328273572
 20
72.1632033248081939
 42
-0.0580250865136904
 10
12.038950009078432
 20
72.1795076726342728
 10
12.1981571702037517
 20
72.1795076726342728
 10
12.1981571702037517
 20
72.1876598465473194
 42
0.0380320028633626
 10
12.187847067901961
 20
72.3245684143222576
 42
0.0610361139081109
 10
12.1511622852932657
 20
72.4552429667519249
 42
0.0670310930924963
 10
12.0818688070323965
 20
72.5736892583120294
 42
0.0853289320875202
 10
11.9818847916871274
 20
72.6655210997442538
 42
0.0912320149611972
 10
11.8574442546027292
 20
72.7165920716112595
 42
0.0527849829165705
 10
11.720535686827791
 20
72.7309782608695627
 42
0.0527849829165715
 10
11.5836271190528564
 20
72.7165920716112595
 42
0.0912320149611876
 10
11.4591865819684564
 20
72.6655210997442538
 42
0.0853289320875398
 10
11.3592025666231891
 20
72.5736892583120294
 42
0.0670310930924813
 10
11.2899090883623181
 20
72.4552429667519249
 42
0.0610361139081164
 10
11.2532243057536228
 20
72.3245684143222576
 42
0.0380320028633214
 10
11.2429142034518321
 20
72.1876598465472767
 10
11.2429142034518321
 20
70.4406969309463022
 42
0.0380336377622531
 10
11.2532243057536228
 20
70.304267902813308
 42
0.0610361139080993
 10
11.2899090883623181
 20
70.1735933503836407
 42
0.0670310930925865
 10
11.3592025666231891
 20
70.0551470588235361
 42
0.0923244144285742
 10
11.4591865819684564
 20
69.9654731457800523
 42
0.0763969962492233
 10
11.5836271190528564
 20
69.9144021739130466
 42
0.0604893758443518
 10
11.720535686827791
 20
69.8978580562659886
 10
12.3367441267254918
 20
69.8978580562659886
  0
LWPOLYLINE
  5
75
100
AcDbEntity
  8
0
 62
256
370
5
 48
1.0
  6
BYLAYER
100
AcDbPolyline
 90
15
 70
129
 10
12.0226456612523442
 20
70.5346867007672671
 42
0.1909233768213457
 10
12.1104014157280488
 20
70.5694533248081939
 42
0.1155480445062326
 10
12.1674666331193535
 20
70.6490569053708555
 42
0.0651758447165479
 10
12.1919231548584825
 20
70.7428069053708555
 42
0.0317343755849892
 10
12.1981571702037517
 20
70.8411125319690171
 10
12.1981571702037517
 20
71.9267902813299287
 10
12.038950009078432
 20
71.9267902813299287
 42
0.1601926814666221
 10
11.9471181676462059
 20
71.8960997442455323
 42
0.128421169875762
 10
11.8816610065208863
 20
71.8184143222506464
 42
0.0832017934496768
 10
11.853128397825234
 20
71.720588235294116
 42
0.0293723414279228
 10
11.8471341523009386
 20
71.6203644501279086
 10
11.8471341523009386
 20
70.8411125319693156
 42
0.0305230506335557
 10
11.853128397825234
 20
70.7428069053708555
 42
0.0675701120563486
 10
11.8775849195643648
 20
70.6490569053708555
 42
0.1143496634617396
 10
11.9348899067766414
 20
70.5694533248081939
 42
0.1909233768213263
  0
LWPOLYLINE
  5
76
100
AcDbEntity
  8
0
 62
256
370
5
 48
1.0
  6
BYLAYER
100
AcDbPolyline
 90
8
 70
129
 10
13.1529205973137255
 20
69.3430306905370912
 10
13.1529205973137255
 20
69.6288363171355513
 10
13.960944893988918
 20
69.6288363171355513
 10
13.960944893988918
 20
73.0
 10
13.1529205973137255
 20
73.0
 10
13.1529205973137255
 20
73.2858056265984743
 10
14.2793592162395555
 20
73.2858056265984743
 10
14.2793592162395555
 20
69.3430306905370912
  0
LWPOLYLINE
  5
77
100
AcDbEntity
  8
0
 62
256
370
5
 48
1.0
  6
BYLAYER
100
AcDbPolyline
 90
46
 70
129
 10
15.6546789093341872
 20
69.4897698209718726
 10
15.6546789093341872
 20
70.0489130434782652
 42
-0.0782299419956102
 10
15.3952479630426282
 20
70.1225223785166349
 42
-0.1005855639126923
 10
15.1787358147050302
 20
70.2798113810741683
 42
-0.1071705292293576
 10
15.0442249451398133
 20
70.5083120204603659
 42
-0.0808511515641433
 10
15.0015459170068208
 20
70.7715792838874052
 10
15.0015459170068208
 20
70.8123401534526948
 10
15.3199602392574619
 20
70.8123401534526948
 10
15.3199602392574619
 20
70.7878836317135551
 42
0.0705302872427714
 10
15.3422588326078433
 20
70.6327525575447623
 42
0.0943365151136135
 10
15.4115523108687142
 20
70.4939258312020485
 42
0.1037116545161233
 10
15.5278406740400676
 20
70.3939418158567776
 42
0.0732308012432746
 10
15.6709832571602732
 20
70.3390345268542205
 10
15.6709832571602732
 20
71.3144181585677757
 42
-0.0344777700825216
 10
15.4340906740400676
 20
71.445092710997443
 42
-0.0722521126547195
 10
15.2322044847817573
 20
71.6206042199488593
 42
-0.083936767738541
 10
15.0933777584390469
 20
71.8510230179028184
 42
-0.0956946008986193
 10
15.0423067865720377
 20
72.1142902813300424
 42
-0.0809821280213738
 10
15.0830676561372563
 20
72.3634111253197005
 42
-0.1033062362789808
 10
15.2094263517894284
 20
72.5818414322250618
 42
-0.1053581974140498
 10
15.4115523108687142
 20
72.7307384910485979
 42
-0.075235014525564
 10
15.6546789093341872
 20
72.8000319693094724
 10
15.6546789093341872
 20
73.3673273657289116
 10
15.9481571702037535
 20
73.3673273657289116
 10
15.9481571702037535
 20
72.8000319693094724
 42
-0.0925105500210157
 10
16.1994359425822694
 20
72.7288203324808222
 42
-0.1084427019469987
 10
16.4034800602293274
 20
72.5674552429667585
 42
-0.0946892531778382
 10
16.5279205973137273
 20
72.3389546035805608
 42
-0.0786467710008976
 10
16.5686814668789424
 20
72.0816815856772024
 10
16.5686814668789424
 20
72.040920716112538
 10
16.2502671446283031
 20
72.040920716112538
 10
16.2502671446283031
 20
72.0653772378516635
 42
0.0609564384549885
 10
16.2320446382344414
 20
72.2123561381074239
 42
0.0837955396533087
 10
16.1728214924543892
 20
72.3492647058823621
 42
0.1071429977369888
 10
16.0687613901526021
 20
72.4533248081841492
 42
0.0900900676847615
 10
15.9318528223776639
 20
72.5103900255754468
 10
15.9318528223776639
 20
71.5551470588235361
 42
-0.032822571129093
 10
16.1768975794109124
 20
71.4247122762148337
 42
-0.0714882785115849
 10
16.3890938709710134
 20
71.247042838874691
 42
-0.0838153484512593
 10
16.537990929794546
 20
71.0123081841432224
 42
-0.1013536080017481
 10
16.593137988618075
 20
70.7389705882353041
 42
-0.087327437159296
 10
16.5483010320963366
 20
70.4836157289002614
 42
-0.1062208371687175
 10
16.413550392710146
 20
70.265425191815865
 42
-0.100229506288894
 10
16.201354101150045
 20
70.1184462915601046
 42
-0.0804908609558861
 10
15.9481571702037535
 20
70.0532289002557604
 10
15.9481571702037535
 20
69.4897698209718726
  0
LWPOLYLINE
  5
78
100
AcDbEntity
  8
0
 62
256
370
5
 48
1.0
  6
BYLAYER
100
AcDbPolyline
 90
9
 70
129
 10
15.6709832571602732
 20
71.6735933503836407
 10
15.6709832571602732
 20
72.5103900255754468
 42
0.0890736867962573
 10
15.5441450218661554
 20
72.4612372122762167
 42
0.0947060122685942
 10
15.4422428479531124
 20
72.3715632992327471
 42
0.0839370533223951
 10
15.3789436152165386
 20
72.2511988491048669
 42
0.0814054866750187
 10
15.3564052520451853
 20
72.1142902813299855
 42
0.0879309721800989
 10
15.3808617737843143
 20
71.9735453964194392
 42
0.0807794651892472
 10
15.4503950218661554
 20
71.8491048593350428
 42
0.0647010665520204
 10
15.5525369656001722
 20
71.7491208439897719
 42
0.0392022898041253
  0
LWPOLYLINE
  5
79
100
AcDbEntity
  8
0
 62
256
370
5
 48
1.0
  6
BYLAYER
100
AcDbPolyline
 90
9
 70
129
 10
15.9318528223776639
 20
70.3390345268542205
 42
0.0585927827691044
 10
16.0666034617638545
 20
70.3879475703324857
 42
0.0959386780276346
 10
16.1809736663674357
 20
70.4757033248081939
 42
0.0984160694614774
 10
16.2545830014057984
 20
70.6001438618925903
 42
0.0856463258177489
 10
16.2790395231449274
 20
70.7428069053708128
 42
0.0937268984080762
 10
16.2505069144492751
 20
70.8900255754475808
 42
0.0858353631605709
 10
16.1728214924543892
 20
71.020460358056269
 42
0.0663638308208632
 10
16.0603694464185871
 20
71.1204443734015399
 42
0.0201720464662796
 10
15.9318528223776639
 20
71.2002877237851663
  0
LWPOLYLINE
  5
7A
100
AcDbEntity
  8
0
 62
256
370
5
 48
1.0
  6
BYLAYER
100
AcDbPolyline
 90
4
 70
129
 10
20.6414116459070769
 20
69.6408248081841492
 10
19.1231891395132152
 20
69.6408248081841492
 10
19.1231891395132152
 20
69.9266304347826093
 10
20.6414116459070769
 20
69.9266304347826093
  0
LINE
  5
7B
100
AcDbEntity
  8
0
 62
256
370
-1
 48
1.0
  6
BYLAYER
100
AcDbLine
 10
6.0250000000000004
 20
85.0
 30
0.0
 11
23.7250000000000014
 21
85.0
 31
0.0
  0
LINE
  5
7C
100
AcDbEntity
  8
0
 62
256
370
-1
 48
1.0
  6
BYLAYER
100
AcDbLine
 10
23.7250000000000014
 20
85.0
 30
0.0
 11
23.7250000000000014
 21
91.0
 31
0.0
  0
LINE
  5
7D
100
AcDbEntity
  8
0
 62
256
370
-1
 48
1.0
  6
BYLAYER
100
AcDbLine
 10
23.7250000000000014
 20
91.0
 30
0.0
 11
6.0250000000000004
 21
91.0
 31
0.0
  0
LINE
  5
7E
100
AcDbEntity
  8
0
 62
256
370
-1
 48
1.0
  6
BYLAYER
100
AcDbLine
 10
6.0250000000000004
 20
91.0
 30
0.0
 11
6.0250000000000004
 21
85.0
 31
0.0
  0
LINE
  5
7F
100
AcDbEntity
  8
0
 62
256
370
5
 48
1.0
  6
BYLAYER
100
AcDbLine
 10
3.0249999999999999
 20
91.0
 30
0.0
 11
4.0250000000000004
 21
91.0
 31
0.0
  0
LINE
  5
80
100
AcDbEntity
  8
0
 62
256
370
5
 48
1.0
  6
BYLAYER
100
AcDbLine
 10
4.0250000000000004
 20
91.0
 30
0.0
 11
4.0250000000000004
 21
85.0
 31
0.0
  0
LINE
  5
81
100
AcDbEntity
  8
0
 62
256
370
5
 48
1.0
  6
BYLAYER
100
AcDbLine
 10
4.0250000000000004
 20
85.0
 30
0.0
 11
3.0249999999999999
 21
85.0
 31
0.0
  0
LINE
  5
82
100
AcDbEntity
  8
0
 62
256
370
5
 48
1.0
  6
BYLAYER
100
AcDbLine
 10
3.0249999999999999
 20
85.0
 30
0.0
 11
3.0249999999999999
 21
91.0
 31
0.0
  0
LINE
  5
83
100
AcDbEntity
  8
0
 62
256
370
5
 48
1.0
  6
BYLAYER
100
AcDbLine
 10
26.7250000000000014
 20
91.0
 30
0.0
 11
25.7250000000000014
 21
91.0
 31
0.0
  0
LINE
  5
84
100
AcDbEntity
  8
0
 62
256
370
5
 48
1.0
  6
BYLAYER
100
AcDbLine
 10
25.7250000000000014
 20
91.0
 30
0.0
 11
25.7250000000000014
 21
85.0
 31
0.0
  0
LINE
  5
85
100
AcDbEntity
  8
0
 62
256
370
5
 48
1.0
  6
BYLAYER
100
AcDbLine
 10
25.7250000000000014
 20
85.0
 30
0.0
 11
26.7250000000000014
 21
85.0
 31
0.0
  0
LINE
  5
86
100
AcDbEntity
  8
0
 62
256
370
5
 48
1.0
  6
BYLAYER
100
AcDbLine
 10
26.7250000000000014
 20
85.0
 30
0.0
 11
26.7250000000000014
 21
91.0
 31
0.0
  0
LWPOLYLINE
  5
87
100
AcDbEntity
  8
0
 62
256
370
5
 48
1.0
  6
BYLAYER
100
AcDbPolyline
 90
41
 70
129
 10
6.7009997186528718
 20
11.1121620784725064
 10
6.7259654519600964
 20
11.1498554405245915
 10
6.7636588140121816
 20
11.1748211738318179
 10
6.8096740871666768
 20
11.1831430849342262
 10
6.9594684870100281
 20
11.1748211738318179
 10
6.9971618490621132
 20
11.1498554405245915
 10
7.0221275823693396
 20
11.1121620784725064
 10
7.0304494934717479
 20
11.0666363295005077
 10
7.0304494934717479
 20
10.0538107959191478
 10
8.1304103315371492
 20
11.1498554405245915
 10
8.1681036935892344
 20
11.1748211738318179
 10
8.2097132491012754
 20
11.1831430849342262
 10
8.3178980934325857
 20
11.1831430849342262
 10
8.3639133665870791
 20
11.1748211738318179
 10
8.4011172044566713
 20
11.1498554405245915
 10
8.4260829377638959
 20
11.1121620784725064
 10
8.4344048488663041
 20
11.0666363295005077
 10
8.4260829377638959
 20
11.0206210563460143
 10
8.4011172044566713
 20
10.9829276942939273
 10
7.501371757031567
 20
10.0831822468688266
 10
8.4138448332015301
 20
8.8706308468296626
 10
8.4304886554063465
 20
8.8290212913176216
 10
8.4344048488663041
 20
8.7830060181631282
 10
8.4177610266614877
 20
8.7413964626510854
 10
8.3888790998943055
 20
8.7081088182414508
 10
8.3472695443822627
 20
8.6875488025766785
 10
8.2097132491012754
 20
8.6831430849342262
 10
8.1597817824868244
 20
8.6958707136790849
 10
8.1176827027922887
 20
8.7291583580887195
 10
7.2722744396240877
 20
9.8540849294613455
 10
7.0304494934717479
 20
9.616665700951458
 10
7.0304494934717479
 20
8.7996498403679446
 10
7.0221275823693396
 20
8.7541240913959442
 10
6.988839937959705
 20
8.7125145358839031
 10
6.9139427380380294
 20
8.6831430849342262
 10
6.8096740871666768
 20
8.6831430849342262
 10
6.7636588140121816
 20
8.6914649960366344
 10
6.7259654519600964
 20
8.716430729343859
 10
6.7009997186528718
 20
8.7541240913959442
 10
6.6926778075504636
 20
8.7996498403679446
 10
6.6926778075504636
 20
11.0666363295005077
  0
LWPOLYLINE
  5
88
100
AcDbEntity
  8
0
 62
256
370
5
 48
1.0
  6
BYLAYER
100
AcDbPolyline
 90
40
 70
129
 10
10.3680253697200335
 20
9.1663034530564111
 10
10.3763472808224435
 20
9.1246938975443683
 10
10.3680253697200335
 20
9.0791681485723696
 10
10.3430596364128089
 20
9.0414747865202845
 10
10.1262004235676937
 20
8.8246155736751692
 10
9.880459283955398
 20
8.6958707136790849
 10
9.8305278173409469
 20
8.6831430849342262
 10
9.5054837601645232
 20
8.6831430849342262
 10
9.4555522935500704
 20
8.6958707136790849
 10
9.238693080704957
 20
8.8040555580103952
 10
8.9929519410926595
 20
9.0414747865202845
 10
8.9635804901429825
 20
9.0874900596747779
 10
8.8553956458116723
 20
9.4125341168512033
 10
8.8553956458116723
 20
9.6998848119755419
 10
8.9635804901429825
 20
10.0249288691519673
 10
8.9929519410926595
 20
10.070454618123966
 10
9.2054054362953224
 20
10.2873138309690795
 10
9.4555522935500704
 20
10.4165482151476585
 10
9.5054837601645232
 20
10.4287863197100243
 10
9.8305278173409469
 20
10.4287863197100243
 10
9.880459283955398
 20
10.4165482151476585
 10
10.0973184968005114
 20
10.3083633708163482
 10
10.259840525388725
 20
10.1458413422281364
 10
10.363619652077583
 20
9.9333878470254735
 10
10.3763472808224435
 20
9.8790506627685701
 10
10.3763472808224435
 20
9.5540066055921464
 10
10.3680253697200335
 20
9.5123970500801036
 10
10.3430596364128089
 20
9.4747036880280184
 10
10.3053662743607237
 20
9.4458217612608362
 10
10.259840525388725
 20
9.437499850158428
 10
9.2014892428353665
 20
9.437499850158428
 10
9.2847083538594504
 20
9.1873529929036799
 10
9.359605553781126
 20
9.1124557929820043
 10
9.5348552111141984
 20
9.0248309643154681
 10
9.80115636639127
 20
9.0248309643154681
 10
9.9597622015195242
 20
9.104133881879596
 10
10.0468975060035675
 20
9.2832997326726243
 10
10.1139623190053278
 20
9.3415531103894835
 10
10.2010976234893711
 20
9.337147392747033
 10
10.3430596364128089
 20
9.207913008568454
  0
LWPOLYLINE
  5
89
100
AcDbEntity
  8
0
 62
256
370
5
 48
1.0
  6
BYLAYER
100
AcDbPolyline
 90
8
 70
129
 10
10.0385755949011575
 20
9.7791877295396699
 10
10.0385755949011575
 20
9.8496792118188949
 10
9.9597622015195242
 20
10.0082850469471492
 10
9.80115636639127
 20
10.0870984403287824
 10
9.5348552111141984
 20
10.0870984403287824
 10
9.359605553781126
 20
9.9999631358447409
 10
9.2847083538594504
 20
9.9245764117405706
 10
9.2347768872450011
 20
9.7791877295396699
  0
LWPOLYLINE
  5
8A
100
AcDbEntity
  8
0
 62
256
370
5
 48
1.0
  6
BYLAYER
100
AcDbPolyline
 90
28
 70
129
 10
10.6886637092540084
 20
10.3538891197883487
 10
10.7136294425612313
 20
10.3915824818404339
 10
10.7508332804308235
 20
10.4204644086076144
 10
10.9011172044566713
 20
10.4287863197100243
 10
10.9471324776111629
 20
10.4204644086076144
 10
10.9843363154807534
 20
10.3915824818404339
 10
11.0093020487879798
 20
10.3538891197883487
 10
11.4425309502957138
 20
9.3205035705422148
 10
11.8762493759859424
 20
10.3538891197883487
 10
11.9012151092931688
 20
10.3915824818404339
 10
11.9384189471627593
 20
10.4204644086076144
 10
11.9844342203172545
 20
10.4287863197100243
 10
12.1342286201606058
 20
10.4204644086076144
 10
12.1719219822126909
 20
10.3915824818404339
 10
12.1968877155199174
 20
10.3538891197883487
 10
12.2052096266223256
 20
10.3122795642763059
 10
12.1968877155199174
 20
10.2662642911218107
 10
11.226161261633095
 20
7.9997673261717432
 10
11.2011955283258686
 20
7.9620739641196581
 10
11.1635021662737834
 20
7.9371082308124326
 10
11.1179764173017848
 20
7.9287863197100243
 10
10.9637762998159811
 20
7.9371082308124326
 10
10.9050333979166272
 20
7.9997673261717432
 10
10.8927952933542613
 20
8.0457825993262375
 10
10.9050333979166272
 20
8.0913083482982362
 10
11.2677708171451378
 20
8.9122404023417054
 10
10.6886637092540084
 20
10.2662642911218107
 10
10.6803417981515985
 20
10.3083633708163482
  0
LWPOLYLINE
  5
8B
100
AcDbEntity
  8
0
 62
256
370
5
 48
1.0
  6
BYLAYER
100
AcDbPolyline
 90
48
 70
129
 10
12.5219317726963411
 20
9.1663034530564111
 10
12.5757794327707479
 20
9.2289625484157209
 10
12.6173889882827908
 20
9.2416901771605815
 10
12.7343852678990039
 20
9.2416901771605815
 10
12.8131986612806372
 20
9.207913008568454
 10
12.8841796677423552
 20
9.0914062531347355
 10
13.0799893407402017
 20
9.0248309643154681
 10
13.3634238424045861
 20
9.0248309643154681
 10
13.5592335154024308
 20
9.0914062531347355
 10
13.5925211598120654
 20
9.1496596308515947
 10
13.5925211598120654
 20
9.2039968151084963
 10
13.5465058866575703
 20
9.2872159261325802
 10
12.9091454010495816
 20
9.5540066055921464
 10
12.6550823503348759
 20
9.6871571832306813
 10
12.5219317726963411
 20
9.9333878470254735
 10
12.5092041439514823
 20
9.9872355070998804
 10
12.5219317726963411
 20
10.0371669737143314
 10
12.6589985437948336
 20
10.2917195486115318
 10
13.0217359630233425
 20
10.4204644086076144
 10
13.3844733822518531
 20
10.4287863197100243
 10
13.7428050838379114
 20
10.3122795642763059
 10
13.7844146393499543
 20
10.2917195486115318
 10
13.9175652169884891
 20
10.0371669737143314
 10
13.9302928457333479
 20
9.9955574182022886
 10
13.9258871280908973
 20
9.9500316692302899
 10
13.9053271124261233
 20
9.9123383071782047
 10
13.8593118392716299
 20
9.8790506627685701
 10
13.8132965661171365
 20
9.8707287516661619
 10
13.6635021662737834
 20
9.8790506627685701
 10
13.6008430709144736
 20
9.9333878470254735
 10
13.5592335154024308
 20
10.020523151509515
 10
13.3634238424045861
 20
10.0870984403287824
 10
13.0799893407402017
 20
10.0870984403287824
 10
12.8841796677423552
 20
10.020523151509515
 10
12.8675358455375388
 20
9.9872355070998804
 10
12.8969072964872176
 20
9.9289821293830212
 10
13.0006864231760737
 20
9.8790506627685701
 10
13.5342677820952062
 20
9.6621914499234567
 10
13.7883308328099119
 20
9.5290408722849218
 10
13.9175652169884891
 20
9.2832997326726243
 10
13.9302928457333479
 20
9.1246938975443683
 10
13.9175652169884891
 20
9.0708462374699614
 10
13.7844146393499543
 20
8.8206993802152134
 10
13.4216772201214454
 20
8.6875488025766785
 10
13.0217359630233425
 20
8.6875488025766785
 10
12.6589985437948336
 20
8.8206993802152134
 10
12.5219317726963411
 20
9.0708462374699614
 10
12.5136098615939328
 20
9.1207777040844125
  0
LWPOLYLINE
  5
8C
100
AcDbEntity
  8
0
 62
256
370
5
 48
1.0
  6
BYLAYER
100
AcDbPolyline
 90
22
 70
129
 10
15.5339740675857083
 20
11.1121620784725064
 10
15.5589398008929329
 20
11.1498554405245915
 10
15.5966331629450199
 20
11.1748211738318179
 10
15.6426484360995133
 20
11.1831430849342262
 10
16.4342090391933056
 20
11.1792268914742685
 10
16.7548473787272769
 20
11.0705525229604653
 10
16.8008626518817721
 20
11.0416705961932813
 10
17.0382818803916614
 20
10.7954399323984909
 10
17.1547886358253798
 20
10.5624264215310539
 10
17.2634630043391866
 20
10.2412985578145861
 10
17.2673791977991407
 20
9.6621914499234567
 10
17.1547886358253798
 20
9.3038597483373984
 10
17.0382818803916614
 20
9.0708462374699614
 10
16.8008626518817721
 20
8.8246155736751692
 10
16.7548473787272769
 20
8.795733646907987
 10
16.3965156771412204
 20
8.6831430849342262
 10
15.6426484360995133
 20
8.6831430849342262
 10
15.5966331629450199
 20
8.6914649960366344
 10
15.5589398008929329
 20
8.716430729343859
 10
15.5339740675857083
 20
8.7541240913959442
 10
15.5256521564833001
 20
8.7996498403679446
 10
15.5256521564833001
 20
11.0666363295005077
  0
LWPOLYLINE
  5
8D
100
AcDbEntity
  8
0
 62
256
370
5
 48
1.0
  6
BYLAYER
100
AcDbPolyline
 90
12
 70
129
 10
15.8634238424045844
 20
9.0248309643154681
 10
16.3759556614764463
 20
9.0248309643154681
 10
16.6549844454983784
 20
9.1163719864419601
 10
16.7342873630625064
 20
9.1912691863636358
 10
16.8258283851889985
 20
9.3831626659015264
 10
16.9256913184179005
 20
9.6832409897707254
 10
16.9256913184179005
 20
10.1830451800977269
 10
16.8258283851889985
 20
10.4831235039669259
 10
16.7342873630625064
 20
10.6750169835048148
 10
16.6549844454983784
 20
10.7499141834264904
 10
16.3759556614764463
 20
10.8414552055529843
 10
15.8634238424045844
 20
10.8414552055529843
  0
LWPOLYLINE
  5
8E
100
AcDbEntity
  8
0
 62
256
370
5
 48
1.0
  6
BYLAYER
100
AcDbPolyline
 90
23
 70
129
 10
18.3301361979949498
 20
10.4287863197100243
 10
18.6635021662737834
 20
10.4287863197100243
 10
18.7134336328882327
 20
10.4165482151476585
 10
18.959174772500532
 20
10.2873138309690795
 10
19.1760339853456472
 20
10.070454618123966
 10
19.2049159121128312
 20
10.0249288691519673
 10
19.3135902806266344
 20
9.6998848119755419
 10
19.3175064740865885
 20
9.4458217612608362
 10
19.2049159121128312
 20
9.0874900596747779
 10
19.1760339853456472
 20
9.0414747865202845
 10
18.959174772500532
 20
8.8246155736751692
 10
18.7134336328882327
 20
8.6958707136790849
 10
18.6635021662737834
 20
8.6831430849342262
 10
18.3384581090973597
 20
8.6831430849342262
 10
18.2885266424829069
 20
8.6958707136790849
 10
18.0383797852281589
 20
8.8246155736751692
 10
17.825926290025496
 20
9.0414747865202845
 10
17.7965548390758173
 20
9.0874900596747779
 10
17.6883699947445088
 20
9.4125341168512033
 10
17.6883699947445088
 20
9.6998848119755419
 10
17.7965548390758173
 20
10.0249288691519673
 10
17.825926290025496
 20
10.070454618123966
 10
18.0716674296377917
 20
10.3083633708163482
  0
LWPOLYLINE
  5
8F
100
AcDbEntity
  8
0
 62
256
370
5
 48
1.0
  6
BYLAYER
100
AcDbPolyline
 90
16
 70
129
 10
18.1925799027139661
 20
9.9999631358447409
 10
18.1176827027922869
 20
9.9245764117405706
 10
18.0217359630233425
 20
9.6455476277186385
 10
18.0217359630233425
 20
9.4663817769256102
 10
18.1176827027922869
 20
9.1873529929036799
 10
18.1925799027139661
 20
9.1124557929820043
 10
18.3678295600470349
 20
9.0248309643154681
 10
18.6341307153241083
 20
9.0248309643154681
 10
18.8093803726571807
 20
9.1124557929820043
 10
18.8842775725788528
 20
9.1873529929036799
 10
18.9758185947053484
 20
9.4663817769256102
 10
18.9758185947053484
 20
9.6455476277186385
 10
18.8842775725788528
 20
9.9245764117405706
 10
18.8093803726571807
 20
9.9999631358447409
 10
18.6341307153241083
 20
10.0870984403287824
 10
18.3678295600470349
 20
10.0870984403287824
  0
LWPOLYLINE
  5
90
100
AcDbEntity
  8
0
 62
256
370
5
 48
1.0
  6
BYLAYER
100
AcDbPolyline
 90
43
 70
129
 10
21.2506374707578232
 20
10.0332507802543738
 10
21.2589593818602332
 20
9.9872355070998804
 10
21.2506374707578232
 20
9.9417097581278817
 10
21.1169973689367936
 20
9.7958315517444863
 10
21.0381839755551638
 20
9.7625439073348517
 10
20.9588810579910358
 20
9.7914258341020357
 10
20.8423743025573174
 20
10.0082850469471492
 10
20.6837684674290614
 20
10.0870984403287824
 10
20.4174673121519916
 20
10.0870984403287824
 10
20.2422176548189192
 20
9.9999631358447409
 10
20.16732045489724
 20
9.9245764117405706
 10
20.0713737151282956
 20
9.6455476277186385
 10
20.0713737151282956
 20
9.4663817769256102
 10
20.16732045489724
 20
9.1873529929036799
 10
20.2422176548189192
 20
9.1124557929820043
 10
20.4174673121519916
 20
9.0248309643154681
 10
20.6837684674290614
 20
9.0248309643154681
 10
20.8423743025573174
 20
9.104133881879596
 10
20.9588810579910358
 20
9.3205035705422148
 10
21.0381839755551638
 20
9.3498750214918918
 10
21.1169973689367936
 20
9.3121816594398066
 10
21.2506374707578232
 20
9.1663034530564111
 10
21.2589593818602332
 20
9.1246938975443683
 10
21.2506374707578232
 20
9.0791681485723696
 10
21.0088125246054851
 20
8.8246155736751692
 10
20.7630713849931894
 20
8.6958707136790849
 10
20.7131399183787366
 20
8.6831430849342262
 10
20.3880958612023129
 20
8.6831430849342262
 10
20.3381643945878636
 20
8.6958707136790849
 10
20.1213051817427484
 20
8.8040555580103952
 10
19.8755640421304491
 20
9.0414747865202845
 10
19.8461925911807739
 20
9.0874900596747779
 10
19.7380077468494619
 20
9.4125341168512033
 10
19.7380077468494619
 20
9.6998848119755419
 10
19.8461925911807739
 20
10.0249288691519673
 10
19.8755640421304491
 20
10.070454618123966
 10
20.088017537333112
 20
10.2873138309690795
 10
20.3381643945878636
 20
10.4165482151476585
 10
20.3880958612023129
 20
10.4287863197100243
 10
20.7131399183787366
 20
10.4287863197100243
 10
20.7630713849931894
 20
10.4165482151476585
 10
20.9799305978383046
 20
10.3083633708163482
 10
21.2256717374505968
 20
10.070454618123966
  0
LWPOLYLINE
  5
91
100
AcDbEntity
  8
0
 62
256
370
5
 48
1.0
  6
BYLAYER
100
AcDbPolyline
 90
41
 70
129
 10
21.7876454989544186
 20
11.1121620784725064
 10
21.812611232261645
 20
11.1498554405245915
 10
21.8503045943137266
 20
11.1748211738318179
 10
21.8963198674682218
 20
11.1831430849342262
 10
22.0461142673115731
 20
11.1748211738318179
 10
22.0838076293636618
 20
11.1498554405245915
 10
22.1087733626708847
 20
11.1121620784725064
 10
22.1170952737732947
 20
11.0666363295005077
 10
22.1170952737732947
 20
9.5123970500801036
 10
23.000196898993579
 20
10.3915824818404339
 10
23.0378902610456642
 20
10.4204644086076144
 10
23.0839055342001593
 20
10.4287863197100243
 10
23.187684660889019
 20
10.4287863197100243
 10
23.258665667350737
 20
10.4038205864027979
 10
23.2963590294028222
 20
10.3538891197883487
 10
23.3046809405052322
 20
10.3122795642763059
 10
23.2963590294028222
 20
10.2662642911218107
 10
23.2713932960955958
 20
10.2290604532522202
 10
22.6462709150499713
 20
9.6000218787466398
 10
23.2797152071980058
 20
8.875036564472115
 10
23.3002752228627799
 20
8.8373432024200298
 10
23.3046809405052322
 20
8.7913279292655364
 10
23.2963590294028222
 20
8.7497183737534936
 10
23.266987578453147
 20
8.7125145358839031
 10
23.187684660889019
 20
8.6831430849342262
 10
22.9752311656863561
 20
8.6831430849342262
 10
22.9252996990719033
 20
8.6958707136790849
 10
22.8836901435598605
 20
8.724752640446269
 10
22.3711583244880003
 20
9.3249092881846671
 10
22.1170952737732947
 20
9.0747624309299173
 10
22.1170952737732947
 20
8.7996498403679446
 10
22.1087733626708847
 20
8.7541240913959442
 10
22.0838076293636618
 20
8.716430729343859
 10
22.0461142673115731
 20
8.6914649960366344
 10
22.0005885183395762
 20
8.6831430849342262
 10
21.8963198674682218
 20
8.6831430849342262
 10
21.8503045943137266
 20
8.6914649960366344
 10
21.812611232261645
 20
8.716430729343859
 10
21.7876454989544186
 20
8.7541240913959442
 10
21.7793235878520122
 20
8.7996498403679446
 10
21.7793235878520122
 20
11.0666363295005077
  0
ENDSEC
  0
SECTION
  2
OBJECTS
  0
DICTIONARY
  5
C
100
AcDbDictionary
280
0
281
1
  3
ACAD_GROUP
350
D
  3
ACAD_LAYOUT
350
1A
  3
ACAD_MLINESTYLE
350
17
  3
ACAD_PLOTSETTINGS
350
19
  3
ACAD_PLOTSTYLENAME
350
E
  3
AcDbVariableDictionary
350
92
  3
QCAD_OBJECTS
350
93
  0
DICTIONARY
  5
D
100
AcDbDictionary
280
0
281
1
  0
ACDBDICTIONARYWDFLT
  5
E
100
AcDbDictionary
281
1
  3
Normal
350
F
100
AcDbDictionaryWithDefault
340
F
  0
ACDBPLACEHOLDER
  5
F
  0
DICTIONARY
  5
17
100
AcDbDictionary
280
0
281
1
  3
Standard
350
18
  0
MLINESTYLE
  5
18
100
AcDbMlineStyle
  2
STANDARD
 70
0
  3

 62
256
 51
90.0
 52
90.0
 71
2
 49
0.5
 62
256
  6
BYLAYER
 49
-0.5
 62
256
  6
BYLAYER
  0
DICTIONARY
  5
19
100
AcDbDictionary
280
0
281
1
  0
DICTIONARY
  5
1A
100
AcDbDictionary
281
1
  3
Layout1
350
1E
  3
Layout2
350
26
  3
Model
350
22
  0
LAYOUT
  5
1E
100
AcDbPlotSettings
  1

  2
none_device
  4

  6

 40
0.0
 41
0.0
 42
0.0
 43
0.0
 44
0.0
 45
0.0
 46
0.0
 47
0.0
 48
0.0
 49
0.0
140
0.0
141
0.0
142
1.0
143
1.0
 70
688
 72
0
 73
0
 74
5
  7

 75
16
147
1.0
148
0.0
149
0.0
100
AcDbLayout
  1
Layout1
 70
1
 71
1
 10
0.0
 20
0.0
 11
420.0
 21
297.0
 12
0.0
 22
0.0
 32
0.0
 14
100000000000000000000.0
 24
100000000000000000000.0
 34
100000000000000000000.0
 15
-100000000000000000000.0
 25
-100000000000000000000.0
 35
-100000000000000000000.0
146
0.0
 13
0.0
 23
0.0
 33
0.0
 16
1.0
 26
0.0
 36
0.0
 17
0.0
 27
1.0
 37
0.0
 76
0
330
1B
  0
LAYOUT
  5
22
100
AcDbPlotSettings
  1

  2
none_device
  4

  6

 40
0.0
 41
0.0
 42
0.0
 43
0.0
 44
0.0
 45
0.0
 46
0.0
 47
0.0
 48
0.0
 49
0.0
140
0.0
141
0.0
142
1.0
143
1.0
 70
1712
 72
0
 73
0
 74
0
  7

 75
0
147
1.0
148
0.0
149
0.0
100
AcDbLayout
  1
Model
 70
1
 71
0
 10
0.0
 20
0.0
 11
12.0
 21
9.0
 12
0.0
 22
0.0
 32
0.0
 14
0.0
 24
0.0
 34
0.0
 15
0.0
 25
0.0
 35
0.0
146
0.0
 13
0.0
 23
0.0
 33
0.0
 16
1.0
 26
0.0
 36
0.0
 17
0.0
 27
1.0
 37
0.0
 76
0
330
1F
  0
LAYOUT
  5
26
100
AcDbPlotSettings
  1

  2
none_device
  4

  6

 40
0.0
 41
0.0
 42
0.0
 43
0.0
 44
0.0
 45
0.0
 46
0.0
 47
0.0
 48
0.0
 49
0.0
140
0.0
141
0.0
142
1.0
143
1.0
 70
688
 72
0
 73
0
 74
5
  7

 75
16
147
1.0
148
0.0
149
0.0
100
AcDbLayout
  1
Layout2
 70
1
 71
2
 10
0.0
 20
0.0
 11
12.0
 21
9.0
 12
0.0
 22
0.0
 32
0.0
 14
0.0
 24
0.0
 34
0.0
 15
0.0
 25
0.0
 35
0.0
146
0.0
 13
0.0
 23
0.0
 33
0.0
 16
1.0
 26
0.0
 36
0.0
 17
0.0
 27
1.0
 37
0.0
 76
0
330
23
  0
DICTIONARY
  5
92
100
AcDbDictionary
281
1
  3
DIMASSOC
350
95
  3
HIDETEXT
350
94
  0
DICTIONARYVAR
  5
94
100
DictionaryVariables
280
0
  1
2
  0
DICTIONARYVAR
  5
95
100
DictionaryVariables
280
0
  1
1
  0
DICTIONARY
  5
93
100
AcDbDictionary
281
1
  3
ColorSettings/BackgroundColor
350
96
  3
ColorSettings/ColorMode
350
97
  3
Grid/DisplayGrid00
350
98
  3
Grid/DisplayGrid01
350
99
  3
Grid/DisplayGrid02
350
9A
  3
Grid/DisplayGrid03
350
9B
  3
Grid/GridSpacingX00
350
9C
  3
Grid/GridSpacingX01
350
9D
  3
Grid/GridSpacingX02
350
9E
  3
Grid/GridSpacingX03
350
9F
  3
Grid/GridSpacingY00
350
A0
  3
Grid/GridSpacingY01
350
A1
  3
Grid/GridSpacingY02
350
A2
  3
Grid/GridSpacingY03
350
A3
  3
Grid/IsometricGrid00
350
A4
  3
Grid/IsometricGrid01
350
A5
  3
Grid/IsometricGrid02
350
A6
  3
Grid/IsometricGrid03
350
A7
  3
Grid/IsometricProjection00
350
A8
  3
Grid/IsometricProjection01
350
A9
  3
Grid/IsometricProjection02
350
AA
  3
Grid/IsometricProjection03
350
AB
  3
Grid/MetaGridSpacingX00
350
AC
  3
Grid/MetaGridSpacingX01
350
AD
  3
Grid/MetaGridSpacingX02
350
AE
  3
Grid/MetaGridSpacingX03
350
AF
  3
Grid/MetaGridSpacingY00
350
B0
  3
Grid/MetaGridSpacingY01
350
B1
  3
Grid/MetaGridSpacingY02
350
B2
  3
Grid/MetaGridSpacingY03
350
B3
  3
MultiPageSettings/Columns
350
B4
  3
MultiPageSettings/GlueMarginsBottom
350
B5
  3
MultiPageSettings/GlueMarginsLeft
350
B6
  3
MultiPageSettings/GlueMarginsRight
350
B7
  3
MultiPageSettings/GlueMarginsTop
350
B8
  3
MultiPageSettings/PrintCropMarks
350
B9
  3
MultiPageSettings/Rows
350
BA
  3
PageSettings/OffsetX
350
BB
  3
PageSettings/OffsetY
350
BC
  3
PageSettings/PageOrientation
350
BD
  3
PageSettings/PaperHeight
350
BE
  3
PageSettings/PaperWidth
350
BF
  3
PageSettings/Scale
350
C0
  3
PageSettings/ShowPaperBorders
350
C1
  3
PageTagSettings/EnablePageTags
350
C2
  3
PageTagSettings/TagAlignment
350
C3
  3
PageTagSettings/TagFont
350
C4
  3
PageTagSettings/TagPosition
350
C5
  3
QCADVersion
350
C6
  3
UnitSettings/PaperUnit
350
C7
  3
ViewportCenter
350
C8
  3
ViewportHeight
350
C9
  3
ViewportWidth
350
CA
  0
XRECORD
  5
97
330
93
100
AcDbXrecord
280
1
1000
FullColor
  0
XRECORD
  5
98
330
93
100
AcDbXrecord
280
1
290
1
  0
XRECORD
  5
99
330
93
100
AcDbXrecord
280
1
290
1
  0
XRECORD
  5
9A
330
93
100
AcDbXrecord
280
1
290
1
  0
XRECORD
  5
9B
330
93
100
AcDbXrecord
280
1
290
1
  0
XRECORD
  5
9C
330
93
100
AcDbXrecord
280
1
1000
auto
  0
XRECORD
  5
9D
330
93
100
AcDbXrecord
280
1
1000
auto
  0
XRECORD
  5
9E
330
93
100
AcDbXrecord
280
1
1000
auto
  0
XRECORD
  5
9F
330
93
100
AcDbXrecord
280
1
1000
auto
  0
XRECORD
  5
A0
330
93
100
AcDbXrecord
280
1
1000
auto
  0
XRECORD
  5
A1
330
93
100
AcDbXrecord
280
1
1000
auto
  0
XRECORD
  5
A2
330
93
100
AcDbXrecord
280
1
1000
auto
  0
XRECORD
  5
A3
330
93
100
AcDbXrecord
280
1
1000
auto
  0
XRECORD
  5
A4
330
93
100
AcDbXrecord
280
1
290
0
  0
XRECORD
  5
A5
330
93
100
AcDbXrecord
280
1
290
0
  0
XRECORD
  5
A6
330
93
100
AcDbXrecord
280
1
290
0
  0
XRECORD
  5
A7
330
93
100
AcDbXrecord
280
1
290
0
  0
XRECORD
  5
A8
330
93
100
AcDbXrecord
280
1
 90
65537
  0
XRECORD
  5
A9
330
93
100
AcDbXrecord
280
1
 90
65537
  0
XRECORD
  5
AA
330
93
100
AcDbXrecord
280
1
 90
65537
  0
XRECORD
  5
AB
330
93
100
AcDbXrecord
280
1
 90
65537
  0
XRECORD
  5
AC
330
93
100
AcDbXrecord
280
1
1000
auto
  0
XRECORD
  5
AD
330
93
100
AcDbXrecord
280
1
1000
auto
  0
XRECORD
  5
AE
330
93
100
AcDbXrecord
280
1
1000
auto
  0
XRECORD
  5
AF
330
93
100
AcDbXrecord
280
1
1000
auto
  0
XRECORD
  5
B0
330
93
100
AcDbXrecord
280
1
1000
auto
  0
XRECORD
  5
B1
330
93
100
AcDbXrecord
280
1
1000
auto
  0
XRECORD
  5
B2
330
93
100
AcDbXrecord
280
1
1000
auto
  0
XRECORD
  5
B3
330
93
100
AcDbXrecord
280
1
1000
auto
  0
XRECORD
  5
B4
330
93
100
AcDbXrecord
280
1
 90
1
  0
XRECORD
  5
B5
330
93
100
AcDbXrecord
280
1
 40
10.0
  0
XRECORD
  5
B6
330
93
100
AcDbXrecord
280
1
 40
10.0
  0
XRECORD
  5
B7
330
93
100
AcDbXrecord
280
1
 40
10.0
  0
XRECORD
  5
B8
330
93
100
AcDbXrecord
280
1
 40
10.0
  0
XRECORD
  5
B9
330
93
100
AcDbXrecord
280
1
290
0
  0
XRECORD
  5
BA
330
93
100
AcDbXrecord
280
1
 90
1
  0
XRECORD
  5
BB
330
93
100
AcDbXrecord
280
1
 40
0.0
  0
XRECORD
  5
BC
330
93
100
AcDbXrecord
280
1
 40
0.0
  0
XRECORD
  5
BD
330
93
100
AcDbXrecord
280
1
1000
Portrait
  0
XRECORD
  5
BE
330
93
100
AcDbXrecord
280
1
 40
297.0
  0
XRECORD
  5
BF
330
93
100
AcDbXrecord
280
1
 40
210.0
  0
XRECORD
  5
C0
330
93
100
AcDbXrecord
280
1
1000
1:1
  0
XRECORD
  5
C1
330
93
100
AcDbXrecord
280
1
290
1
  0
XRECORD
  5
C2
330
93
100
AcDbXrecord
280
1
290
0
  0
XRECORD
  5
C3
330
93
100
AcDbXrecord
280
1
1000
Inside
  0
XRECORD
  5
C4
330
93
100
AcDbXrecord
280
1
1000
Arial,10,-1,5,400,0,0,0,0,0,0,0,0,0,0,1
  0
XRECORD
  5
C5
330
93
100
AcDbXrecord
280
1
1000
TopLeft
  0
XRECORD
  5
C6
330
93
100
AcDbXrecord
280
1
1000
3.32.5
  0
XRECORD
  5
C7
330
93
100
AcDbXrecord
280
1
 90
4
  0
XRECORD
  5
C9
330
93
100
AcDbXrecord
280
1
 40
148.8586397984886105
  0
XRECORD
  5
CA
330
93
100
AcDbXrecord
280
1
 40
317.647405541561568
  0
ENDSEC
  0
EOF
