  0
SECTION
  2
HEADER
  9
$ACADVER
  1
AC1009
  9
$FILLMODE
 70
 0
  9
$SPLFRAME
 70
 1
  9
$EXTMIN
 10
0
 20
0
 30
0.0
  9
$EXTMAX
 10
1058.33
 20
1058.33
 30
0.0
  0
ENDSEC
  0
SECTION
  2
TABLES
  0
TABLE
  2
LAYER
 70
1
  0
LAYER
  2
0
 70
     0
 62
     7
  6
CONTINUOUS
  0
ENDTAB
  0
ENDSEC
  0
SECTION
  2
ENTITIES
  0
LINE
  8
0
 62
     0
 10
303.896
 20
95.5075
 30
0.0
 11
303.974
 21
95.5051
 31
0.0
  0
LINE
  8
0
 62
     0
 10
303.974
 20
95.5051
 30
0.0
 11
304.053
 21
95.4952
 31
0.0
  0
LINE
  8
0
 62
     0
 10
304.053
 20
95.4952
 30
0.0
 11
304.129
 21
95.48
 31
0.0
  0
LINE
  8
0
 62
     0
 10
304.129
 20
95.48
 30
0.0
 11
304.206
 21
95.4595
 31
0.0
  0
LINE
  8
0
 62
     0
 10
304.206
 20
95.4595
 30
0.0
 11
304.279
 21
95.432
 31
0.0
  0
LINE
  8
0
 62
     0
 10
304.279
 20
95.432
 30
0.0
 11
304.35
 21
95.3989
 31
0.0
  0
LINE
  8
0
 62
     0
 10
304.35
 20
95.3989
 30
0.0
 11
304.418
 21
95.3604
 31
0.0
  0
LINE
  8
0
 62
     0
 10
304.418
 20
95.3604
 30
0.0
 11
304.483
 21
95.3174
 31
0.0
  0
LINE
  8
0
 62
     0
 10
304.483
 20
95.3174
 30
0.0
 11
304.545
 21
95.268
 31
0.0
  0
LINE
  8
0
 62
     0
 10
304.545
 20
95.268
 30
0.0
 11
304.603
 21
95.2154
 31
0.0
  0
LINE
  8
0
 62
     0
 10
304.603
 20
95.2154
 30
0.0
 11
304.657
 21
95.1576
 31
0.0
  0
LINE
  8
0
 62
     0
 10
304.657
 20
95.1576
 30
0.0
 11
304.705
 21
95.0958
 31
0.0
  0
LINE
  8
0
 62
     0
 10
304.705
 20
95.0958
 30
0.0
 11
304.749
 21
95.0309
 31
0.0
  0
LINE
  8
0
 62
     0
 10
304.749
 20
95.0309
 30
0.0
 11
304.788
 21
94.9607
 31
0.0
  0
LINE
  8
0
 62
     0
 10
304.788
 20
94.9607
 30
0.0
 11
304.819
 21
94.8902
 31
0.0
  0
LINE
  8
0
 62
     0
 10
304.819
 20
94.8902
 30
0.0
 11
304.847
 21
94.8171
 31
0.0
  0
LINE
  8
0
 62
     0
 10
304.847
 20
94.8171
 30
0.0
 11
304.869
 21
94.7416
 31
0.0
  0
LINE
  8
0
 62
     0
 10
304.869
 20
94.7416
 30
0.0
 11
304.884
 21
94.6644
 31
0.0
  0
LINE
  8
0
 62
     0
 10
304.884
 20
94.6644
 30
0.0
 11
304.892
 21
94.5857
 31
0.0
  0
LINE
  8
0
 62
     0
 10
304.892
 20
94.5857
 30
0.0
 11
304.896
 21
94.5074
 31
0.0
  0
LINE
  8
0
 62
     0
 10
304.896
 20
94.5074
 30
0.0
 11
304.896
 21
1.25677
 31
0.0
  0
LINE
  8
0
 62
     0
 10
304.896
 20
1.25677
 30
0.0
 11
304.892
 21
1.17822
 31
0.0
  0
LINE
  8
0
 62
     0
 10
304.892
 20
1.17822
 30
0.0
 11
304.884
 21
1.09968
 31
0.0
  0
LINE
  8
0
 62
     0
 10
304.884
 20
1.09968
 30
0.0
 11
304.869
 21
1.02388
 31
0.0
  0
LINE
  8
0
 62
     0
 10
304.869
 20
1.02388
 30
0.0
 11
304.847
 21
0.946711
 31
0.0
  0
LINE
  8
0
 62
     0
 10
304.847
 20
0.946711
 30
0.0
 11
304.819
 21
0.873675
 31
0.0
  0
LINE
  8
0
 62
     0
 10
304.819
 20
0.873675
 30
0.0
 11
304.788
 21
0.803395
 31
0.0
  0
LINE
  8
0
 62
     0
 10
304.788
 20
0.803395
 30
0.0
 11
304.749
 21
0.734494
 31
0.0
  0
LINE
  8
0
 62
     0
 10
304.749
 20
0.734494
 30
0.0
 11
304.705
 21
0.669727
 31
0.0
  0
LINE
  8
0
 62
     0
 10
304.705
 20
0.669727
 30
0.0
 11
304.657
 21
0.607716
 31
0.0
  0
LINE
  8
0
 62
     0
 10
304.657
 20
0.607716
 30
0.0
 11
304.603
 21
0.549836
 31
0.0
  0
LINE
  8
0
 62
     0
 10
304.603
 20
0.549836
 30
0.0
 11
304.545
 21
0.496094
 31
0.0
  0
LINE
  8
0
 62
     0
 10
304.545
 20
0.496094
 30
0.0
 11
304.483
 21
0.447862
 31
0.0
  0
LINE
  8
0
 62
     0
 10
304.483
 20
0.447862
 30
0.0
 11
304.418
 21
0.403765
 31
0.0
  0
LINE
  8
0
 62
     0
 10
304.418
 20
0.403765
 30
0.0
 11
304.35
 21
0.365181
 31
0.0
  0
LINE
  8
0
 62
     0
 10
304.35
 20
0.365181
 30
0.0
 11
304.279
 21
0.333485
 31
0.0
  0
LINE
  8
0
 62
     0
 10
304.279
 20
0.333485
 30
0.0
 11
304.206
 21
0.305925
 31
0.0
  0
LINE
  8
0
 62
     0
 10
304.206
 20
0.305925
 30
0.0
 11
304.129
 21
0.283876
 31
0.0
  0
LINE
  8
0
 62
     0
 10
304.129
 20
0.283876
 30
0.0
 11
304.053
 21
0.268718
 31
0.0
  0
LINE
  8
0
 62
     0
 10
304.053
 20
0.268718
 30
0.0
 11
303.974
 21
0.260449
 31
0.0
  0
LINE
  8
0
 62
     0
 10
303.974
 20
0.260449
 30
0.0
 11
303.896
 21
0.256315
 31
0.0
  0
LINE
  8
0
 62
     0
 10
303.896
 20
0.256315
 30
0.0
 11
1.09554
 21
0.257693
 31
0.0
  0
LINE
  8
0
 62
     0
 10
1.09554
 20
0.257693
 30
0.0
 11
1.01699
 21
0.260449
 31
0.0
  0
LINE
  8
0
 62
     0
 10
1.01699
 20
0.260449
 30
0.0
 11
0.938445
 21
0.268718
 31
0.0
  0
LINE
  8
0
 62
     0
 10
0.938445
 20
0.268718
 30
0.0
 11
0.861275
 21
0.283876
 31
0.0
  0
LINE
  8
0
 62
     0
 10
0.861275
 20
0.283876
 30
0.0
 11
0.785481
 21
0.305925
 31
0.0
  0
LINE
  8
0
 62
     0
 10
0.785481
 20
0.305925
 30
0.0
 11
0.712445
 21
0.333485
 31
0.0
  0
LINE
  8
0
 62
     0
 10
0.712445
 20
0.333485
 30
0.0
 11
0.642165
 21
0.365181
 31
0.0
  0
LINE
  8
0
 62
     0
 10
0.642165
 20
0.365181
 30
0.0
 11
0.571885
 21
0.403765
 31
0.0
  0
LINE
  8
0
 62
     0
 10
0.571885
 20
0.403765
 30
0.0
 11
0.507118
 21
0.447862
 31
0.0
  0
LINE
  8
0
 62
     0
 10
0.507118
 20
0.447862
 30
0.0
 11
0.445107
 21
0.496094
 31
0.0
  0
LINE
  8
0
 62
     0
 10
0.445107
 20
0.496094
 30
0.0
 11
0.38723
 21
0.549836
 31
0.0
  0
LINE
  8
0
 62
     0
 10
0.38723
 20
0.549836
 30
0.0
 11
0.334863
 21
0.607716
 31
0.0
  0
LINE
  8
0
 62
     0
 10
0.334863
 20
0.607716
 30
0.0
 11
0.285254
 21
0.669727
 31
0.0
  0
LINE
  8
0
 62
     0
 10
0.285254
 20
0.669727
 30
0.0
 11
0.242535
 21
0.734494
 31
0.0
  0
LINE
  8
0
 62
     0
 10
0.242535
 20
0.734494
 30
0.0
 11
0.20395
 21
0.803395
 31
0.0
  0
LINE
  8
0
 62
     0
 10
0.20395
 20
0.803395
 30
0.0
 11
0.170877
 21
0.873675
 31
0.0
  0
LINE
  8
0
 62
     0
 10
0.170877
 20
0.873675
 30
0.0
 11
0.143316
 21
0.946711
 31
0.0
  0
LINE
  8
0
 62
     0
 10
0.143316
 20
0.946711
 30
0.0
 11
0.122645
 21
1.02388
 31
0.0
  0
LINE
  8
0
 62
     0
 10
0.122645
 20
1.02388
 30
0.0
 11
0.107487
 21
1.09968
 31
0.0
  0
LINE
  8
0
 62
     0
 10
0.107487
 20
1.09968
 30
0.0
 11
0.0978408
 21
1.17822
 31
0.0
  0
LINE
  8
0
 62
     0
 10
0.0978408
 20
1.17822
 30
0.0
 11
0.0950846
 21
1.25677
 31
0.0
  0
LINE
  8
0
 62
     0
 10
0.0950846
 20
1.25677
 30
0.0
 11
0.0950846
 21
94.5074
 31
0.0
  0
LINE
  8
0
 62
     0
 10
0.0950846
 20
94.5074
 30
0.0
 11
0.0978408
 21
94.5857
 31
0.0
  0
LINE
  8
0
 62
     0
 10
0.0978408
 20
94.5857
 30
0.0
 11
0.107487
 21
94.6644
 31
0.0
  0
LINE
  8
0
 62
     0
 10
0.107487
 20
94.6644
 30
0.0
 11
0.122645
 21
94.7416
 31
0.0
  0
LINE
  8
0
 62
     0
 10
0.122645
 20
94.7416
 30
0.0
 11
0.143316
 21
94.8171
 31
0.0
  0
LINE
  8
0
 62
     0
 10
0.143316
 20
94.8171
 30
0.0
 11
0.170877
 21
94.8902
 31
0.0
  0
LINE
  8
0
 62
     0
 10
0.170877
 20
94.8902
 30
0.0
 11
0.20395
 21
94.9607
 31
0.0
  0
LINE
  8
0
 62
     0
 10
0.20395
 20
94.9607
 30
0.0
 11
0.242535
 21
95.0309
 31
0.0
  0
LINE
  8
0
 62
     0
 10
0.242535
 20
95.0309
 30
0.0
 11
0.285254
 21
95.0958
 31
0.0
  0
LINE
  8
0
 62
     0
 10
0.285254
 20
95.0958
 30
0.0
 11
0.334863
 21
95.1576
 31
0.0
  0
LINE
  8
0
 62
     0
 10
0.334863
 20
95.1576
 30
0.0
 11
0.38723
 21
95.2154
 31
0.0
  0
LINE
  8
0
 62
     0
 10
0.38723
 20
95.2154
 30
0.0
 11
0.445107
 21
95.268
 31
0.0
  0
LINE
  8
0
 62
     0
 10
0.445107
 20
95.268
 30
0.0
 11
0.507118
 21
95.3174
 31
0.0
  0
LINE
  8
0
 62
     0
 10
0.507118
 20
95.3174
 30
0.0
 11
0.571885
 21
95.3604
 31
0.0
  0
LINE
  8
0
 62
     0
 10
0.571885
 20
95.3604
 30
0.0
 11
0.642165
 21
95.3989
 31
0.0
  0
LINE
  8
0
 62
     0
 10
0.642165
 20
95.3989
 30
0.0
 11
0.712445
 21
95.432
 31
0.0
  0
LINE
  8
0
 62
     0
 10
0.712445
 20
95.432
 30
0.0
 11
0.785481
 21
95.4595
 31
0.0
  0
LINE
  8
0
 62
     0
 10
0.785481
 20
95.4595
 30
0.0
 11
0.861275
 21
95.48
 31
0.0
  0
LINE
  8
0
 62
     0
 10
0.861275
 20
95.48
 30
0.0
 11
0.938445
 21
95.4952
 31
0.0
  0
LINE
  8
0
 62
     0
 10
0.938445
 20
95.4952
 30
0.0
 11
1.01699
 21
95.5051
 31
0.0
  0
LINE
  8
0
 62
     0
 10
1.01699
 20
95.5051
 30
0.0
 11
1.09554
 21
95.5075
 31
0.0
  0
LINE
  8
0
 62
     0
 10
1.09554
 20
95.5075
 30
0.0
 11
303.896
 21
95.5075
 31
0.0
  0
LINE
  8
0
 62
     0
 10
124.062
 20
16.7817
 30
0.0
 11
124.062
 21
15.7827
 31
0.0
  0
LINE
  8
0
 62
     0
 10
124.062
 20
15.7827
 30
0.0
 11
123.264
 21
15.7827
 31
0.0
  0
LINE
  8
0
 62
     0
 10
123.264
 20
15.7827
 30
0.0
 11
123.264
 21
12.6835
 31
0.0
  0
LINE
  8
0
 62
     0
 10
123.264
 20
12.6835
 30
0.0
 11
124.062
 21
12.6835
 31
0.0
  0
LINE
  8
0
 62
     0
 10
124.062
 20
12.6835
 30
0.0
 11
124.062
 21
12.0826
 31
0.0
  0
LINE
  8
0
 62
     0
 10
124.062
 20
12.0826
 30
0.0
 11
84.4381
 21
12.0826
 31
0.0
  0
LINE
  8
0
 62
     0
 10
84.4381
 20
12.0826
 30
0.0
 11
84.4381
 21
15.3128
 31
0.0
  0
LINE
  8
0
 62
     0
 10
84.4381
 20
15.3128
 30
0.0
 11
77.6884
 21
15.3128
 31
0.0
  0
LINE
  8
0
 62
     0
 10
77.6884
 20
15.3128
 30
0.0
 11
77.6884
 21
12.0826
 31
0.0
  0
LINE
  8
0
 62
     0
 10
77.6884
 20
12.0826
 30
0.0
 11
76.8629
 21
12.0826
 31
0.0
  0
LINE
  8
0
 62
     0
 10
76.8629
 20
12.0826
 30
0.0
 11
76.8629
 21
9.28247
 31
0.0
  0
LINE
  8
0
 62
     0
 10
76.8629
 20
9.28247
 30
0.0
 11
77.6884
 21
9.28247
 31
0.0
  0
LINE
  8
0
 62
     0
 10
77.6884
 20
9.28247
 30
0.0
 11
77.6884
 21
3.01377
 31
0.0
  0
LINE
  8
0
 62
     0
 10
77.6884
 20
3.01377
 30
0.0
 11
79.4135
 21
3.01377
 31
0.0
  0
LINE
  8
0
 62
     0
 10
79.4135
 20
3.01377
 30
0.0
 11
79.4135
 21
1.81212
 31
0.0
  0
LINE
  8
0
 62
     0
 10
79.4135
 20
1.81212
 30
0.0
 11
82.714
 21
1.81212
 31
0.0
  0
LINE
  8
0
 62
     0
 10
82.714
 20
1.81212
 30
0.0
 11
82.714
 21
3.01377
 31
0.0
  0
LINE
  8
0
 62
     0
 10
82.714
 20
3.01377
 30
0.0
 11
84.4381
 21
3.01377
 31
0.0
  0
LINE
  8
0
 62
     0
 10
84.4381
 20
3.01377
 30
0.0
 11
84.4381
 21
7.48273
 31
0.0
  0
LINE
  8
0
 62
     0
 10
84.4381
 20
7.48273
 30
0.0
 11
124.062
 21
7.48273
 31
0.0
  0
LINE
  8
0
 62
     0
 10
124.062
 20
7.48273
 30
0.0
 11
124.062
 21
6.88192
 31
0.0
  0
LINE
  8
0
 62
     0
 10
124.062
 20
6.88192
 30
0.0
 11
123.264
 21
6.88192
 31
0.0
  0
LINE
  8
0
 62
     0
 10
123.264
 20
6.88192
 30
0.0
 11
123.264
 21
3.78273
 31
0.0
  0
LINE
  8
0
 62
     0
 10
123.264
 20
3.78273
 30
0.0
 11
124.062
 21
3.78273
 31
0.0
  0
LINE
  8
0
 62
     0
 10
124.062
 20
3.78273
 30
0.0
 11
124.062
 21
2.78226
 31
0.0
  0
LINE
  8
0
 62
     0
 10
124.062
 20
2.78226
 30
0.0
 11
138.063
 21
2.78226
 31
0.0
  0
LINE
  8
0
 62
     0
 10
138.063
 20
2.78226
 30
0.0
 11
138.063
 21
3.78273
 31
0.0
  0
LINE
  8
0
 62
     0
 10
138.063
 20
3.78273
 30
0.0
 11
138.864
 21
3.78273
 31
0.0
  0
LINE
  8
0
 62
     0
 10
138.864
 20
3.78273
 30
0.0
 11
138.864
 21
6.88192
 31
0.0
  0
LINE
  8
0
 62
     0
 10
138.864
 20
6.88192
 30
0.0
 11
138.063
 21
6.88192
 31
0.0
  0
LINE
  8
0
 62
     0
 10
138.063
 20
6.88192
 30
0.0
 11
138.063
 21
7.48273
 31
0.0
  0
LINE
  8
0
 62
     0
 10
138.063
 20
7.48273
 30
0.0
 11
177.689
 21
7.48273
 31
0.0
  0
LINE
  8
0
 62
     0
 10
177.689
 20
7.48273
 30
0.0
 11
177.689
 21
3.01377
 31
0.0
  0
LINE
  8
0
 62
     0
 10
177.689
 20
3.01377
 30
0.0
 11
179.414
 21
3.01377
 31
0.0
  0
LINE
  8
0
 62
     0
 10
179.414
 20
3.01377
 30
0.0
 11
179.414
 21
1.81212
 31
0.0
  0
LINE
  8
0
 62
     0
 10
179.414
 20
1.81212
 30
0.0
 11
182.714
 21
1.81212
 31
0.0
  0
LINE
  8
0
 62
     0
 10
182.714
 20
1.81212
 30
0.0
 11
182.714
 21
3.01377
 31
0.0
  0
LINE
  8
0
 62
     0
 10
182.714
 20
3.01377
 30
0.0
 11
184.438
 21
3.01377
 31
0.0
  0
LINE
  8
0
 62
     0
 10
184.438
 20
3.01377
 30
0.0
 11
184.438
 21
9.28247
 31
0.0
  0
LINE
  8
0
 62
     0
 10
184.438
 20
9.28247
 30
0.0
 11
185.263
 21
9.28247
 31
0.0
  0
LINE
  8
0
 62
     0
 10
185.263
 20
9.28247
 30
0.0
 11
185.263
 21
12.0826
 31
0.0
  0
LINE
  8
0
 62
     0
 10
185.263
 20
12.0826
 30
0.0
 11
184.438
 21
12.0826
 31
0.0
  0
LINE
  8
0
 62
     0
 10
184.438
 20
12.0826
 30
0.0
 11
184.438
 21
15.3128
 31
0.0
  0
LINE
  8
0
 62
     0
 10
184.438
 20
15.3128
 30
0.0
 11
177.689
 21
15.3128
 31
0.0
  0
LINE
  8
0
 62
     0
 10
177.689
 20
15.3128
 30
0.0
 11
177.689
 21
12.0826
 31
0.0
  0
LINE
  8
0
 62
     0
 10
177.689
 20
12.0826
 30
0.0
 11
138.063
 21
12.0826
 31
0.0
  0
LINE
  8
0
 62
     0
 10
138.063
 20
12.0826
 30
0.0
 11
138.063
 21
12.6835
 31
0.0
  0
LINE
  8
0
 62
     0
 10
138.063
 20
12.6835
 30
0.0
 11
138.864
 21
12.6835
 31
0.0
  0
LINE
  8
0
 62
     0
 10
138.864
 20
12.6835
 30
0.0
 11
138.864
 21
15.7827
 31
0.0
  0
LINE
  8
0
 62
     0
 10
138.864
 20
15.7827
 30
0.0
 11
138.063
 21
15.7827
 31
0.0
  0
LINE
  8
0
 62
     0
 10
138.063
 20
15.7827
 30
0.0
 11
138.063
 21
16.7817
 31
0.0
  0
LINE
  8
0
 62
     0
 10
138.063
 20
16.7817
 30
0.0
 11
124.062
 21
16.7817
 31
0.0
  0
LINE
  8
0
 62
     0
 10
5.00091
 20
16.7817
 30
0.0
 11
5.00091
 21
15.7827
 31
0.0
  0
LINE
  8
0
 62
     0
 10
5.00091
 20
15.7827
 30
0.0
 11
4.20165
 21
15.7827
 31
0.0
  0
LINE
  8
0
 62
     0
 10
4.20165
 20
15.7827
 30
0.0
 11
4.20165
 21
12.6835
 31
0.0
  0
LINE
  8
0
 62
     0
 10
4.20165
 20
12.6835
 30
0.0
 11
5.00091
 21
12.6835
 31
0.0
  0
LINE
  8
0
 62
     0
 10
5.00091
 20
12.6835
 30
0.0
 11
5.00091
 21
6.88192
 31
0.0
  0
LINE
  8
0
 62
     0
 10
5.00091
 20
6.88192
 30
0.0
 11
4.20165
 21
6.88192
 31
0.0
  0
LINE
  8
0
 62
     0
 10
4.20165
 20
6.88192
 30
0.0
 11
4.20165
 21
3.78273
 31
0.0
  0
LINE
  8
0
 62
     0
 10
4.20165
 20
3.78273
 30
0.0
 11
5.00091
 21
3.78273
 31
0.0
  0
LINE
  8
0
 62
     0
 10
5.00091
 20
3.78273
 30
0.0
 11
5.00091
 21
2.78226
 31
0.0
  0
LINE
  8
0
 62
     0
 10
5.00091
 20
2.78226
 30
0.0
 11
19.0018
 21
2.78226
 31
0.0
  0
LINE
  8
0
 62
     0
 10
19.0018
 20
2.78226
 30
0.0
 11
19.0018
 21
3.78273
 31
0.0
  0
LINE
  8
0
 62
     0
 10
19.0018
 20
3.78273
 30
0.0
 11
19.801
 21
3.78273
 31
0.0
  0
LINE
  8
0
 62
     0
 10
19.801
 20
3.78273
 30
0.0
 11
19.801
 21
6.88192
 31
0.0
  0
LINE
  8
0
 62
     0
 10
19.801
 20
6.88192
 30
0.0
 11
19.0018
 21
6.88192
 31
0.0
  0
LINE
  8
0
 62
     0
 10
19.0018
 20
6.88192
 30
0.0
 11
19.0018
 21
12.6835
 31
0.0
  0
LINE
  8
0
 62
     0
 10
19.0018
 20
12.6835
 30
0.0
 11
19.801
 21
12.6835
 31
0.0
  0
LINE
  8
0
 62
     0
 10
19.801
 20
12.6835
 30
0.0
 11
19.801
 21
15.7827
 31
0.0
  0
LINE
  8
0
 62
     0
 10
19.801
 20
15.7827
 30
0.0
 11
19.0018
 21
15.7827
 31
0.0
  0
LINE
  8
0
 62
     0
 10
19.0018
 20
15.7827
 30
0.0
 11
19.0018
 21
16.7817
 31
0.0
  0
LINE
  8
0
 62
     0
 10
19.0018
 20
16.7817
 30
0.0
 11
5.00091
 21
16.7817
 31
0.0
  0
LINE
  8
0
 62
     0
 10
28.8134
 20
16.7817
 30
0.0
 11
28.8134
 21
15.7827
 31
0.0
  0
LINE
  8
0
 62
     0
 10
28.8134
 20
15.7827
 30
0.0
 11
28.0142
 21
15.7827
 31
0.0
  0
LINE
  8
0
 62
     0
 10
28.0142
 20
15.7827
 30
0.0
 11
28.0142
 21
12.6835
 31
0.0
  0
LINE
  8
0
 62
     0
 10
28.0142
 20
12.6835
 30
0.0
 11
28.8134
 21
12.6835
 31
0.0
  0
LINE
  8
0
 62
     0
 10
28.8134
 20
12.6835
 30
0.0
 11
28.8134
 21
6.88192
 31
0.0
  0
LINE
  8
0
 62
     0
 10
28.8134
 20
6.88192
 30
0.0
 11
28.0142
 21
6.88192
 31
0.0
  0
LINE
  8
0
 62
     0
 10
28.0142
 20
6.88192
 30
0.0
 11
28.0142
 21
3.78273
 31
0.0
  0
LINE
  8
0
 62
     0
 10
28.0142
 20
3.78273
 30
0.0
 11
28.8134
 21
3.78273
 31
0.0
  0
LINE
  8
0
 62
     0
 10
28.8134
 20
3.78273
 30
0.0
 11
28.8134
 21
2.78226
 31
0.0
  0
LINE
  8
0
 62
     0
 10
28.8134
 20
2.78226
 30
0.0
 11
42.8128
 21
2.78226
 31
0.0
  0
LINE
  8
0
 62
     0
 10
42.8128
 20
2.78226
 30
0.0
 11
42.8128
 21
3.78273
 31
0.0
  0
LINE
  8
0
 62
     0
 10
42.8128
 20
3.78273
 30
0.0
 11
43.6136
 21
3.78273
 31
0.0
  0
LINE
  8
0
 62
     0
 10
43.6136
 20
3.78273
 30
0.0
 11
43.6136
 21
6.88192
 31
0.0
  0
LINE
  8
0
 62
     0
 10
43.6136
 20
6.88192
 30
0.0
 11
42.8128
 21
6.88192
 31
0.0
  0
LINE
  8
0
 62
     0
 10
42.8128
 20
6.88192
 30
0.0
 11
42.8128
 21
12.6835
 31
0.0
  0
LINE
  8
0
 62
     0
 10
42.8128
 20
12.6835
 30
0.0
 11
43.6136
 21
12.6835
 31
0.0
  0
LINE
  8
0
 62
     0
 10
43.6136
 20
12.6835
 30
0.0
 11
43.6136
 21
15.7827
 31
0.0
  0
LINE
  8
0
 62
     0
 10
43.6136
 20
15.7827
 30
0.0
 11
42.8128
 21
15.7827
 31
0.0
  0
LINE
  8
0
 62
     0
 10
42.8128
 20
15.7827
 30
0.0
 11
42.8128
 21
16.7817
 31
0.0
  0
LINE
  8
0
 62
     0
 10
42.8128
 20
16.7817
 30
0.0
 11
28.8134
 21
16.7817
 31
0.0
  0
LINE
  8
0
 62
     0
 10
52.626
 20
16.7817
 30
0.0
 11
52.626
 21
15.7827
 31
0.0
  0
LINE
  8
0
 62
     0
 10
52.626
 20
15.7827
 30
0.0
 11
51.8266
 21
15.7827
 31
0.0
  0
LINE
  8
0
 62
     0
 10
51.8266
 20
15.7827
 30
0.0
 11
51.8266
 21
12.6835
 31
0.0
  0
LINE
  8
0
 62
     0
 10
51.8266
 20
12.6835
 30
0.0
 11
52.626
 21
12.6835
 31
0.0
  0
LINE
  8
0
 62
     0
 10
52.626
 20
12.6835
 30
0.0
 11
52.626
 21
6.88192
 31
0.0
  0
LINE
  8
0
 62
     0
 10
52.626
 20
6.88192
 30
0.0
 11
51.8266
 21
6.88192
 31
0.0
  0
LINE
  8
0
 62
     0
 10
51.8266
 20
6.88192
 30
0.0
 11
51.8266
 21
3.78273
 31
0.0
  0
LINE
  8
0
 62
     0
 10
51.8266
 20
3.78273
 30
0.0
 11
52.626
 21
3.78273
 31
0.0
  0
LINE
  8
0
 62
     0
 10
52.626
 20
3.78273
 30
0.0
 11
52.626
 21
2.78226
 31
0.0
  0
LINE
  8
0
 62
     0
 10
52.626
 20
2.78226
 30
0.0
 11
66.6267
 21
2.78226
 31
0.0
  0
LINE
  8
0
 62
     0
 10
66.6267
 20
2.78226
 30
0.0
 11
66.6267
 21
3.78273
 31
0.0
  0
LINE
  8
0
 62
     0
 10
66.6267
 20
3.78273
 30
0.0
 11
67.4261
 21
3.78273
 31
0.0
  0
LINE
  8
0
 62
     0
 10
67.4261
 20
3.78273
 30
0.0
 11
67.4261
 21
6.88192
 31
0.0
  0
LINE
  8
0
 62
     0
 10
67.4261
 20
6.88192
 30
0.0
 11
66.6267
 21
6.88192
 31
0.0
  0
LINE
  8
0
 62
     0
 10
66.6267
 20
6.88192
 30
0.0
 11
66.6267
 21
12.6835
 31
0.0
  0
LINE
  8
0
 62
     0
 10
66.6267
 20
12.6835
 30
0.0
 11
67.4261
 21
12.6835
 31
0.0
  0
LINE
  8
0
 62
     0
 10
67.4261
 20
12.6835
 30
0.0
 11
67.4261
 21
15.7827
 31
0.0
  0
LINE
  8
0
 62
     0
 10
67.4261
 20
15.7827
 30
0.0
 11
66.6267
 21
15.7827
 31
0.0
  0
LINE
  8
0
 62
     0
 10
66.6267
 20
15.7827
 30
0.0
 11
66.6267
 21
16.7817
 31
0.0
  0
LINE
  8
0
 62
     0
 10
66.6267
 20
16.7817
 30
0.0
 11
52.626
 21
16.7817
 31
0.0
  0
LINE
  8
0
 62
     0
 10
193.121
 20
16.7817
 30
0.0
 11
193.121
 21
15.7827
 31
0.0
  0
LINE
  8
0
 62
     0
 10
193.121
 20
15.7827
 30
0.0
 11
192.32
 21
15.7827
 31
0.0
  0
LINE
  8
0
 62
     0
 10
192.32
 20
15.7827
 30
0.0
 11
192.32
 21
12.6835
 31
0.0
  0
LINE
  8
0
 62
     0
 10
192.32
 20
12.6835
 30
0.0
 11
193.121
 21
12.6835
 31
0.0
  0
LINE
  8
0
 62
     0
 10
193.121
 20
12.6835
 30
0.0
 11
193.121
 21
6.88192
 31
0.0
  0
LINE
  8
0
 62
     0
 10
193.121
 20
6.88192
 30
0.0
 11
192.32
 21
6.88192
 31
0.0
  0
LINE
  8
0
 62
     0
 10
192.32
 20
6.88192
 30
0.0
 11
192.32
 21
3.78273
 31
0.0
  0
LINE
  8
0
 62
     0
 10
192.32
 20
3.78273
 30
0.0
 11
193.121
 21
3.78273
 31
0.0
  0
LINE
  8
0
 62
     0
 10
193.121
 20
3.78273
 30
0.0
 11
193.121
 21
2.78226
 31
0.0
  0
LINE
  8
0
 62
     0
 10
193.121
 20
2.78226
 30
0.0
 11
207.12
 21
2.78226
 31
0.0
  0
LINE
  8
0
 62
     0
 10
207.12
 20
2.78226
 30
0.0
 11
207.12
 21
3.78273
 31
0.0
  0
LINE
  8
0
 62
     0
 10
207.12
 20
3.78273
 30
0.0
 11
207.921
 21
3.78273
 31
0.0
  0
LINE
  8
0
 62
     0
 10
207.921
 20
3.78273
 30
0.0
 11
207.921
 21
6.88192
 31
0.0
  0
LINE
  8
0
 62
     0
 10
207.921
 20
6.88192
 30
0.0
 11
207.12
 21
6.88192
 31
0.0
  0
LINE
  8
0
 62
     0
 10
207.12
 20
6.88192
 30
0.0
 11
207.12
 21
12.6835
 31
0.0
  0
LINE
  8
0
 62
     0
 10
207.12
 20
12.6835
 30
0.0
 11
207.921
 21
12.6835
 31
0.0
  0
LINE
  8
0
 62
     0
 10
207.921
 20
12.6835
 30
0.0
 11
207.921
 21
15.7827
 31
0.0
  0
LINE
  8
0
 62
     0
 10
207.921
 20
15.7827
 30
0.0
 11
207.12
 21
15.7827
 31
0.0
  0
LINE
  8
0
 62
     0
 10
207.12
 20
15.7827
 30
0.0
 11
207.12
 21
16.7817
 31
0.0
  0
LINE
  8
0
 62
     0
 10
207.12
 20
16.7817
 30
0.0
 11
193.121
 21
16.7817
 31
0.0
  0
LINE
  8
0
 62
     0
 10
212.171
 20
16.7817
 30
0.0
 11
212.171
 21
15.7827
 31
0.0
  0
LINE
  8
0
 62
     0
 10
212.171
 20
15.7827
 30
0.0
 11
211.37
 21
15.7827
 31
0.0
  0
LINE
  8
0
 62
     0
 10
211.37
 20
15.7827
 30
0.0
 11
211.37
 21
12.6835
 31
0.0
  0
LINE
  8
0
 62
     0
 10
211.37
 20
12.6835
 30
0.0
 11
212.171
 21
12.6835
 31
0.0
  0
LINE
  8
0
 62
     0
 10
212.171
 20
12.6835
 30
0.0
 11
212.171
 21
6.88192
 31
0.0
  0
LINE
  8
0
 62
     0
 10
212.171
 20
6.88192
 30
0.0
 11
211.37
 21
6.88192
 31
0.0
  0
LINE
  8
0
 62
     0
 10
211.37
 20
6.88192
 30
0.0
 11
211.37
 21
3.78273
 31
0.0
  0
LINE
  8
0
 62
     0
 10
211.37
 20
3.78273
 30
0.0
 11
212.171
 21
3.78273
 31
0.0
  0
LINE
  8
0
 62
     0
 10
212.171
 20
3.78273
 30
0.0
 11
212.171
 21
2.78226
 31
0.0
  0
LINE
  8
0
 62
     0
 10
212.171
 20
2.78226
 30
0.0
 11
226.17
 21
2.78226
 31
0.0
  0
LINE
  8
0
 62
     0
 10
226.17
 20
2.78226
 30
0.0
 11
226.17
 21
3.78273
 31
0.0
  0
LINE
  8
0
 62
     0
 10
226.17
 20
3.78273
 30
0.0
 11
226.971
 21
3.78273
 31
0.0
  0
LINE
  8
0
 62
     0
 10
226.971
 20
3.78273
 30
0.0
 11
226.971
 21
6.88192
 31
0.0
  0
LINE
  8
0
 62
     0
 10
226.971
 20
6.88192
 30
0.0
 11
226.17
 21
6.88192
 31
0.0
  0
LINE
  8
0
 62
     0
 10
226.17
 20
6.88192
 30
0.0
 11
226.17
 21
12.6835
 31
0.0
  0
LINE
  8
0
 62
     0
 10
226.17
 20
12.6835
 30
0.0
 11
226.971
 21
12.6835
 31
0.0
  0
LINE
  8
0
 62
     0
 10
226.971
 20
12.6835
 30
0.0
 11
226.971
 21
15.7827
 31
0.0
  0
LINE
  8
0
 62
     0
 10
226.971
 20
15.7827
 30
0.0
 11
226.17
 21
15.7827
 31
0.0
  0
LINE
  8
0
 62
     0
 10
226.17
 20
15.7827
 30
0.0
 11
226.17
 21
16.7817
 31
0.0
  0
LINE
  8
0
 62
     0
 10
226.17
 20
16.7817
 30
0.0
 11
212.171
 21
16.7817
 31
0.0
  0
LINE
  8
0
 62
     0
 10
231.221
 20
16.7817
 30
0.0
 11
231.221
 21
15.7827
 31
0.0
  0
LINE
  8
0
 62
     0
 10
231.221
 20
15.7827
 30
0.0
 11
230.42
 21
15.7827
 31
0.0
  0
LINE
  8
0
 62
     0
 10
230.42
 20
15.7827
 30
0.0
 11
230.42
 21
12.6835
 31
0.0
  0
LINE
  8
0
 62
     0
 10
230.42
 20
12.6835
 30
0.0
 11
231.221
 21
12.6835
 31
0.0
  0
LINE
  8
0
 62
     0
 10
231.221
 20
12.6835
 30
0.0
 11
231.221
 21
6.88192
 31
0.0
  0
LINE
  8
0
 62
     0
 10
231.221
 20
6.88192
 30
0.0
 11
230.42
 21
6.88192
 31
0.0
  0
LINE
  8
0
 62
     0
 10
230.42
 20
6.88192
 30
0.0
 11
230.42
 21
3.78273
 31
0.0
  0
LINE
  8
0
 62
     0
 10
230.42
 20
3.78273
 30
0.0
 11
231.221
 21
3.78273
 31
0.0
  0
LINE
  8
0
 62
     0
 10
231.221
 20
3.78273
 30
0.0
 11
231.221
 21
2.78226
 31
0.0
  0
LINE
  8
0
 62
     0
 10
231.221
 20
2.78226
 30
0.0
 11
245.22
 21
2.78226
 31
0.0
  0
LINE
  8
0
 62
     0
 10
245.22
 20
2.78226
 30
0.0
 11
245.22
 21
3.78273
 31
0.0
  0
LINE
  8
0
 62
     0
 10
245.22
 20
3.78273
 30
0.0
 11
246.021
 21
3.78273
 31
0.0
  0
LINE
  8
0
 62
     0
 10
246.021
 20
3.78273
 30
0.0
 11
246.021
 21
6.88192
 31
0.0
  0
LINE
  8
0
 62
     0
 10
246.021
 20
6.88192
 30
0.0
 11
245.22
 21
6.88192
 31
0.0
  0
LINE
  8
0
 62
     0
 10
245.22
 20
6.88192
 30
0.0
 11
245.22
 21
12.6835
 31
0.0
  0
LINE
  8
0
 62
     0
 10
245.22
 20
12.6835
 30
0.0
 11
246.021
 21
12.6835
 31
0.0
  0
LINE
  8
0
 62
     0
 10
246.021
 20
12.6835
 30
0.0
 11
246.021
 21
15.7827
 31
0.0
  0
LINE
  8
0
 62
     0
 10
246.021
 20
15.7827
 30
0.0
 11
245.22
 21
15.7827
 31
0.0
  0
LINE
  8
0
 62
     0
 10
245.22
 20
15.7827
 30
0.0
 11
245.22
 21
16.7817
 31
0.0
  0
LINE
  8
0
 62
     0
 10
245.22
 20
16.7817
 30
0.0
 11
231.221
 21
16.7817
 31
0.0
  0
LINE
  8
0
 62
     0
 10
250.271
 20
16.7817
 30
0.0
 11
250.271
 21
15.7827
 31
0.0
  0
LINE
  8
0
 62
     0
 10
250.271
 20
15.7827
 30
0.0
 11
249.47
 21
15.7827
 31
0.0
  0
LINE
  8
0
 62
     0
 10
249.47
 20
15.7827
 30
0.0
 11
249.47
 21
12.6835
 31
0.0
  0
LINE
  8
0
 62
     0
 10
249.47
 20
12.6835
 30
0.0
 11
250.271
 21
12.6835
 31
0.0
  0
LINE
  8
0
 62
     0
 10
250.271
 20
12.6835
 30
0.0
 11
250.271
 21
6.88192
 31
0.0
  0
LINE
  8
0
 62
     0
 10
250.271
 20
6.88192
 30
0.0
 11
249.47
 21
6.88192
 31
0.0
  0
LINE
  8
0
 62
     0
 10
249.47
 20
6.88192
 30
0.0
 11
249.47
 21
3.78273
 31
0.0
  0
LINE
  8
0
 62
     0
 10
249.47
 20
3.78273
 30
0.0
 11
250.271
 21
3.78273
 31
0.0
  0
LINE
  8
0
 62
     0
 10
250.271
 20
3.78273
 30
0.0
 11
250.271
 21
2.78226
 31
0.0
  0
LINE
  8
0
 62
     0
 10
250.271
 20
2.78226
 30
0.0
 11
264.27
 21
2.78226
 31
0.0
  0
LINE
  8
0
 62
     0
 10
264.27
 20
2.78226
 30
0.0
 11
264.27
 21
3.78273
 31
0.0
  0
LINE
  8
0
 62
     0
 10
264.27
 20
3.78273
 30
0.0
 11
265.071
 21
3.78273
 31
0.0
  0
LINE
  8
0
 62
     0
 10
265.071
 20
3.78273
 30
0.0
 11
265.071
 21
6.88192
 31
0.0
  0
LINE
  8
0
 62
     0
 10
265.071
 20
6.88192
 30
0.0
 11
264.27
 21
6.88192
 31
0.0
  0
LINE
  8
0
 62
     0
 10
264.27
 20
6.88192
 30
0.0
 11
264.27
 21
12.6835
 31
0.0
  0
LINE
  8
0
 62
     0
 10
264.27
 20
12.6835
 30
0.0
 11
265.071
 21
12.6835
 31
0.0
  0
LINE
  8
0
 62
     0
 10
265.071
 20
12.6835
 30
0.0
 11
265.071
 21
15.7827
 31
0.0
  0
LINE
  8
0
 62
     0
 10
265.071
 20
15.7827
 30
0.0
 11
264.27
 21
15.7827
 31
0.0
  0
LINE
  8
0
 62
     0
 10
264.27
 20
15.7827
 30
0.0
 11
264.27
 21
16.7817
 31
0.0
  0
LINE
  8
0
 62
     0
 10
264.27
 20
16.7817
 30
0.0
 11
250.271
 21
16.7817
 31
0.0
  0
LINE
  8
0
 62
     0
 10
269.321
 20
16.7817
 30
0.0
 11
269.321
 21
15.7827
 31
0.0
  0
LINE
  8
0
 62
     0
 10
269.321
 20
15.7827
 30
0.0
 11
268.52
 21
15.7827
 31
0.0
  0
LINE
  8
0
 62
     0
 10
268.52
 20
15.7827
 30
0.0
 11
268.52
 21
12.6835
 31
0.0
  0
LINE
  8
0
 62
     0
 10
268.52
 20
12.6835
 30
0.0
 11
269.321
 21
12.6835
 31
0.0
  0
LINE
  8
0
 62
     0
 10
269.321
 20
12.6835
 30
0.0
 11
269.321
 21
6.88192
 31
0.0
  0
LINE
  8
0
 62
     0
 10
269.321
 20
6.88192
 30
0.0
 11
268.52
 21
6.88192
 31
0.0
  0
LINE
  8
0
 62
     0
 10
268.52
 20
6.88192
 30
0.0
 11
268.52
 21
3.78273
 31
0.0
  0
LINE
  8
0
 62
     0
 10
268.52
 20
3.78273
 30
0.0
 11
269.321
 21
3.78273
 31
0.0
  0
LINE
  8
0
 62
     0
 10
269.321
 20
3.78273
 30
0.0
 11
269.321
 21
2.78226
 31
0.0
  0
LINE
  8
0
 62
     0
 10
269.321
 20
2.78226
 30
0.0
 11
283.32
 21
2.78226
 31
0.0
  0
LINE
  8
0
 62
     0
 10
283.32
 20
2.78226
 30
0.0
 11
283.32
 21
3.78273
 31
0.0
  0
LINE
  8
0
 62
     0
 10
283.32
 20
3.78273
 30
0.0
 11
284.121
 21
3.78273
 31
0.0
  0
LINE
  8
0
 62
     0
 10
284.121
 20
3.78273
 30
0.0
 11
284.121
 21
6.88192
 31
0.0
  0
LINE
  8
0
 62
     0
 10
284.121
 20
6.88192
 30
0.0
 11
283.32
 21
6.88192
 31
0.0
  0
LINE
  8
0
 62
     0
 10
283.32
 20
6.88192
 30
0.0
 11
283.32
 21
12.6835
 31
0.0
  0
LINE
  8
0
 62
     0
 10
283.32
 20
12.6835
 30
0.0
 11
284.121
 21
12.6835
 31
0.0
  0
LINE
  8
0
 62
     0
 10
284.121
 20
12.6835
 30
0.0
 11
284.121
 21
15.7827
 31
0.0
  0
LINE
  8
0
 62
     0
 10
284.121
 20
15.7827
 30
0.0
 11
283.32
 21
15.7827
 31
0.0
  0
LINE
  8
0
 62
     0
 10
283.32
 20
15.7827
 30
0.0
 11
283.32
 21
16.7817
 31
0.0
  0
LINE
  8
0
 62
     0
 10
283.32
 20
16.7817
 30
0.0
 11
269.321
 21
16.7817
 31
0.0
  0
LINE
  8
0
 62
     0
 10
288.371
 20
16.7817
 30
0.0
 11
288.371
 21
15.7827
 31
0.0
  0
LINE
  8
0
 62
     0
 10
288.371
 20
15.7827
 30
0.0
 11
287.57
 21
15.7827
 31
0.0
  0
LINE
  8
0
 62
     0
 10
287.57
 20
15.7827
 30
0.0
 11
287.57
 21
12.6835
 31
0.0
  0
LINE
  8
0
 62
     0
 10
287.57
 20
12.6835
 30
0.0
 11
288.371
 21
12.6835
 31
0.0
  0
LINE
  8
0
 62
     0
 10
288.371
 20
12.6835
 30
0.0
 11
288.371
 21
6.88192
 31
0.0
  0
LINE
  8
0
 62
     0
 10
288.371
 20
6.88192
 30
0.0
 11
287.57
 21
6.88192
 31
0.0
  0
LINE
  8
0
 62
     0
 10
287.57
 20
6.88192
 30
0.0
 11
287.57
 21
3.78273
 31
0.0
  0
LINE
  8
0
 62
     0
 10
287.57
 20
3.78273
 30
0.0
 11
288.371
 21
3.78273
 31
0.0
  0
LINE
  8
0
 62
     0
 10
288.371
 20
3.78273
 30
0.0
 11
288.371
 21
2.78226
 31
0.0
  0
LINE
  8
0
 62
     0
 10
288.371
 20
2.78226
 30
0.0
 11
302.37
 21
2.78226
 31
0.0
  0
LINE
  8
0
 62
     0
 10
302.37
 20
2.78226
 30
0.0
 11
302.37
 21
3.78273
 31
0.0
  0
LINE
  8
0
 62
     0
 10
302.37
 20
3.78273
 30
0.0
 11
303.171
 21
3.78273
 31
0.0
  0
LINE
  8
0
 62
     0
 10
303.171
 20
3.78273
 30
0.0
 11
303.171
 21
6.88192
 31
0.0
  0
LINE
  8
0
 62
     0
 10
303.171
 20
6.88192
 30
0.0
 11
302.37
 21
6.88192
 31
0.0
  0
LINE
  8
0
 62
     0
 10
302.37
 20
6.88192
 30
0.0
 11
302.37
 21
12.6835
 31
0.0
  0
LINE
  8
0
 62
     0
 10
302.37
 20
12.6835
 30
0.0
 11
303.171
 21
12.6835
 31
0.0
  0
LINE
  8
0
 62
     0
 10
303.171
 20
12.6835
 30
0.0
 11
303.171
 21
15.7827
 31
0.0
  0
LINE
  8
0
 62
     0
 10
303.171
 20
15.7827
 30
0.0
 11
302.37
 21
15.7827
 31
0.0
  0
LINE
  8
0
 62
     0
 10
302.37
 20
15.7827
 30
0.0
 11
302.37
 21
16.7817
 31
0.0
  0
LINE
  8
0
 62
     0
 10
302.37
 20
16.7817
 30
0.0
 11
288.371
 21
16.7817
 31
0.0
  0
LINE
  8
0
 62
     0
 10
14.5259
 20
35.8316
 30
0.0
 11
14.5259
 21
34.8327
 31
0.0
  0
LINE
  8
0
 62
     0
 10
14.5259
 20
34.8327
 30
0.0
 11
13.7267
 21
34.8327
 31
0.0
  0
LINE
  8
0
 62
     0
 10
13.7267
 20
34.8327
 30
0.0
 11
13.7267
 21
31.7335
 31
0.0
  0
LINE
  8
0
 62
     0
 10
13.7267
 20
31.7335
 30
0.0
 11
14.5259
 21
31.7335
 31
0.0
  0
LINE
  8
0
 62
     0
 10
14.5259
 20
31.7335
 30
0.0
 11
14.5259
 21
31.1326
 31
0.0
  0
LINE
  8
0
 62
     0
 10
14.5259
 20
31.1326
 30
0.0
 11
13.0018
 21
31.1326
 31
0.0
  0
LINE
  8
0
 62
     0
 10
13.0018
 20
31.1326
 30
0.0
 11
13.0018
 21
34.3628
 31
0.0
  0
LINE
  8
0
 62
     0
 10
13.0018
 20
34.3628
 30
0.0
 11
6.25217
 21
34.3628
 31
0.0
  0
LINE
  8
0
 62
     0
 10
6.25217
 20
34.3628
 30
0.0
 11
6.25217
 21
31.1326
 31
0.0
  0
LINE
  8
0
 62
     0
 10
6.25217
 20
31.1326
 30
0.0
 11
5.42671
 21
31.1326
 31
0.0
  0
LINE
  8
0
 62
     0
 10
5.42671
 20
31.1326
 30
0.0
 11
5.42671
 21
28.3325
 31
0.0
  0
LINE
  8
0
 62
     0
 10
5.42671
 20
28.3325
 30
0.0
 11
6.25217
 21
28.3325
 31
0.0
  0
LINE
  8
0
 62
     0
 10
6.25217
 20
28.3325
 30
0.0
 11
6.25217
 21
22.0624
 31
0.0
  0
LINE
  8
0
 62
     0
 10
6.25217
 20
22.0624
 30
0.0
 11
7.97609
 21
22.0624
 31
0.0
  0
LINE
  8
0
 62
     0
 10
7.97609
 20
22.0624
 30
0.0
 11
7.97609
 21
20.8621
 31
0.0
  0
LINE
  8
0
 62
     0
 10
7.97609
 20
20.8621
 30
0.0
 11
11.2765
 21
20.8621
 31
0.0
  0
LINE
  8
0
 62
     0
 10
11.2765
 20
20.8621
 30
0.0
 11
11.2765
 21
22.0624
 31
0.0
  0
LINE
  8
0
 62
     0
 10
11.2765
 20
22.0624
 30
0.0
 11
13.0018
 21
22.0624
 31
0.0
  0
LINE
  8
0
 62
     0
 10
13.0018
 20
22.0624
 30
0.0
 11
13.0018
 21
26.5327
 31
0.0
  0
LINE
  8
0
 62
     0
 10
13.0018
 20
26.5327
 30
0.0
 11
14.5259
 21
26.5327
 31
0.0
  0
LINE
  8
0
 62
     0
 10
14.5259
 20
26.5327
 30
0.0
 11
14.5259
 21
25.9319
 31
0.0
  0
LINE
  8
0
 62
     0
 10
14.5259
 20
25.9319
 30
0.0
 11
13.7267
 21
25.9319
 31
0.0
  0
LINE
  8
0
 62
     0
 10
13.7267
 20
25.9319
 30
0.0
 11
13.7267
 21
22.8327
 31
0.0
  0
LINE
  8
0
 62
     0
 10
13.7267
 20
22.8327
 30
0.0
 11
14.5259
 21
22.8327
 31
0.0
  0
LINE
  8
0
 62
     0
 10
14.5259
 20
22.8327
 30
0.0
 11
14.5259
 21
21.8323
 31
0.0
  0
LINE
  8
0
 62
     0
 10
14.5259
 20
21.8323
 30
0.0
 11
28.5268
 21
21.8323
 31
0.0
  0
LINE
  8
0
 62
     0
 10
28.5268
 20
21.8323
 30
0.0
 11
28.5268
 21
22.8327
 31
0.0
  0
LINE
  8
0
 62
     0
 10
28.5268
 20
22.8327
 30
0.0
 11
29.326
 21
22.8327
 31
0.0
  0
LINE
  8
0
 62
     0
 10
29.326
 20
22.8327
 30
0.0
 11
29.326
 21
25.9319
 31
0.0
  0
LINE
  8
0
 62
     0
 10
29.326
 20
25.9319
 30
0.0
 11
28.5268
 21
25.9319
 31
0.0
  0
LINE
  8
0
 62
     0
 10
28.5268
 20
25.9319
 30
0.0
 11
28.5268
 21
26.5327
 31
0.0
  0
LINE
  8
0
 62
     0
 10
28.5268
 20
26.5327
 30
0.0
 11
30.0509
 21
26.5327
 31
0.0
  0
LINE
  8
0
 62
     0
 10
30.0509
 20
26.5327
 30
0.0
 11
30.0509
 21
22.0624
 31
0.0
  0
LINE
  8
0
 62
     0
 10
30.0509
 20
22.0624
 30
0.0
 11
31.7762
 21
22.0624
 31
0.0
  0
LINE
  8
0
 62
     0
 10
31.7762
 20
22.0624
 30
0.0
 11
31.7762
 21
20.8621
 31
0.0
  0
LINE
  8
0
 62
     0
 10
31.7762
 20
20.8621
 30
0.0
 11
35.0766
 21
20.8621
 31
0.0
  0
LINE
  8
0
 62
     0
 10
35.0766
 20
20.8621
 30
0.0
 11
35.0766
 21
22.0624
 31
0.0
  0
LINE
  8
0
 62
     0
 10
35.0766
 20
22.0624
 30
0.0
 11
36.8018
 21
22.0624
 31
0.0
  0
LINE
  8
0
 62
     0
 10
36.8018
 20
22.0624
 30
0.0
 11
36.8018
 21
28.3325
 31
0.0
  0
LINE
  8
0
 62
     0
 10
36.8018
 20
28.3325
 30
0.0
 11
37.6259
 21
28.3325
 31
0.0
  0
LINE
  8
0
 62
     0
 10
37.6259
 20
28.3325
 30
0.0
 11
37.6259
 21
31.1326
 31
0.0
  0
LINE
  8
0
 62
     0
 10
37.6259
 20
31.1326
 30
0.0
 11
36.8018
 21
31.1326
 31
0.0
  0
LINE
  8
0
 62
     0
 10
36.8018
 20
31.1326
 30
0.0
 11
36.8018
 21
34.3628
 31
0.0
  0
LINE
  8
0
 62
     0
 10
36.8018
 20
34.3628
 30
0.0
 11
30.0509
 21
34.3628
 31
0.0
  0
LINE
  8
0
 62
     0
 10
30.0509
 20
34.3628
 30
0.0
 11
30.0509
 21
31.1326
 31
0.0
  0
LINE
  8
0
 62
     0
 10
30.0509
 20
31.1326
 30
0.0
 11
28.5268
 21
31.1326
 31
0.0
  0
LINE
  8
0
 62
     0
 10
28.5268
 20
31.1326
 30
0.0
 11
28.5268
 21
31.7335
 31
0.0
  0
LINE
  8
0
 62
     0
 10
28.5268
 20
31.7335
 30
0.0
 11
29.326
 21
31.7335
 31
0.0
  0
LINE
  8
0
 62
     0
 10
29.326
 20
31.7335
 30
0.0
 11
29.326
 21
34.8327
 31
0.0
  0
LINE
  8
0
 62
     0
 10
29.326
 20
34.8327
 30
0.0
 11
28.5268
 21
34.8327
 31
0.0
  0
LINE
  8
0
 62
     0
 10
28.5268
 20
34.8327
 30
0.0
 11
28.5268
 21
35.8316
 31
0.0
  0
LINE
  8
0
 62
     0
 10
28.5268
 20
35.8316
 30
0.0
 11
14.5259
 21
35.8316
 31
0.0
  0
LINE
  8
0
 62
     0
 10
45.4822
 20
35.8316
 30
0.0
 11
45.4822
 21
34.8327
 31
0.0
  0
LINE
  8
0
 62
     0
 10
45.4822
 20
34.8327
 30
0.0
 11
44.6828
 21
34.8327
 31
0.0
  0
LINE
  8
0
 62
     0
 10
44.6828
 20
34.8327
 30
0.0
 11
44.6828
 21
31.7335
 31
0.0
  0
LINE
  8
0
 62
     0
 10
44.6828
 20
31.7335
 30
0.0
 11
45.4822
 21
31.7335
 31
0.0
  0
LINE
  8
0
 62
     0
 10
45.4822
 20
31.7335
 30
0.0
 11
45.4822
 21
25.9319
 31
0.0
  0
LINE
  8
0
 62
     0
 10
45.4822
 20
25.9319
 30
0.0
 11
44.6828
 21
25.9319
 31
0.0
  0
LINE
  8
0
 62
     0
 10
44.6828
 20
25.9319
 30
0.0
 11
44.6828
 21
22.8327
 31
0.0
  0
LINE
  8
0
 62
     0
 10
44.6828
 20
22.8327
 30
0.0
 11
45.4822
 21
22.8327
 31
0.0
  0
LINE
  8
0
 62
     0
 10
45.4822
 20
22.8327
 30
0.0
 11
45.4822
 21
21.8323
 31
0.0
  0
LINE
  8
0
 62
     0
 10
45.4822
 20
21.8323
 30
0.0
 11
59.4829
 21
21.8323
 31
0.0
  0
LINE
  8
0
 62
     0
 10
59.4829
 20
21.8323
 30
0.0
 11
59.4829
 21
22.8327
 31
0.0
  0
LINE
  8
0
 62
     0
 10
59.4829
 20
22.8327
 30
0.0
 11
60.2823
 21
22.8327
 31
0.0
  0
LINE
  8
0
 62
     0
 10
60.2823
 20
22.8327
 30
0.0
 11
60.2823
 21
25.9319
 31
0.0
  0
LINE
  8
0
 62
     0
 10
60.2823
 20
25.9319
 30
0.0
 11
59.4829
 21
25.9319
 31
0.0
  0
LINE
  8
0
 62
     0
 10
59.4829
 20
25.9319
 30
0.0
 11
59.4829
 21
31.7335
 31
0.0
  0
LINE
  8
0
 62
     0
 10
59.4829
 20
31.7335
 30
0.0
 11
60.2823
 21
31.7335
 31
0.0
  0
LINE
  8
0
 62
     0
 10
60.2823
 20
31.7335
 30
0.0
 11
60.2823
 21
34.8327
 31
0.0
  0
LINE
  8
0
 62
     0
 10
60.2823
 20
34.8327
 30
0.0
 11
59.4829
 21
34.8327
 31
0.0
  0
LINE
  8
0
 62
     0
 10
59.4829
 20
34.8327
 30
0.0
 11
59.4829
 21
35.8316
 31
0.0
  0
LINE
  8
0
 62
     0
 10
59.4829
 20
35.8316
 30
0.0
 11
45.4822
 21
35.8316
 31
0.0
  0
LINE
  8
0
 62
     0
 10
64.5322
 20
35.8316
 30
0.0
 11
64.5322
 21
34.8327
 31
0.0
  0
LINE
  8
0
 62
     0
 10
64.5322
 20
34.8327
 30
0.0
 11
63.7328
 21
34.8327
 31
0.0
  0
LINE
  8
0
 62
     0
 10
63.7328
 20
34.8327
 30
0.0
 11
63.7328
 21
31.7335
 31
0.0
  0
LINE
  8
0
 62
     0
 10
63.7328
 20
31.7335
 30
0.0
 11
64.5322
 21
31.7335
 31
0.0
  0
LINE
  8
0
 62
     0
 10
64.5322
 20
31.7335
 30
0.0
 11
64.5322
 21
25.9319
 31
0.0
  0
LINE
  8
0
 62
     0
 10
64.5322
 20
25.9319
 30
0.0
 11
63.7328
 21
25.9319
 31
0.0
  0
LINE
  8
0
 62
     0
 10
63.7328
 20
25.9319
 30
0.0
 11
63.7328
 21
22.8327
 31
0.0
  0
LINE
  8
0
 62
     0
 10
63.7328
 20
22.8327
 30
0.0
 11
64.5322
 21
22.8327
 31
0.0
  0
LINE
  8
0
 62
     0
 10
64.5322
 20
22.8327
 30
0.0
 11
64.5322
 21
21.8323
 31
0.0
  0
LINE
  8
0
 62
     0
 10
64.5322
 20
21.8323
 30
0.0
 11
78.5329
 21
21.8323
 31
0.0
  0
LINE
  8
0
 62
     0
 10
78.5329
 20
21.8323
 30
0.0
 11
78.5329
 21
22.8327
 31
0.0
  0
LINE
  8
0
 62
     0
 10
78.5329
 20
22.8327
 30
0.0
 11
79.3323
 21
22.8327
 31
0.0
  0
LINE
  8
0
 62
     0
 10
79.3323
 20
22.8327
 30
0.0
 11
79.3323
 21
25.9319
 31
0.0
  0
LINE
  8
0
 62
     0
 10
79.3323
 20
25.9319
 30
0.0
 11
78.5329
 21
25.9319
 31
0.0
  0
LINE
  8
0
 62
     0
 10
78.5329
 20
25.9319
 30
0.0
 11
78.5329
 21
31.7335
 31
0.0
  0
LINE
  8
0
 62
     0
 10
78.5329
 20
31.7335
 30
0.0
 11
79.3323
 21
31.7335
 31
0.0
  0
LINE
  8
0
 62
     0
 10
79.3323
 20
31.7335
 30
0.0
 11
79.3323
 21
34.8327
 31
0.0
  0
LINE
  8
0
 62
     0
 10
79.3323
 20
34.8327
 30
0.0
 11
78.5329
 21
34.8327
 31
0.0
  0
LINE
  8
0
 62
     0
 10
78.5329
 20
34.8327
 30
0.0
 11
78.5329
 21
35.8316
 31
0.0
  0
LINE
  8
0
 62
     0
 10
78.5329
 20
35.8316
 30
0.0
 11
64.5322
 21
35.8316
 31
0.0
  0
LINE
  8
0
 62
     0
 10
83.5822
 20
35.8316
 30
0.0
 11
83.5822
 21
34.8327
 31
0.0
  0
LINE
  8
0
 62
     0
 10
83.5822
 20
34.8327
 30
0.0
 11
82.7828
 21
34.8327
 31
0.0
  0
LINE
  8
0
 62
     0
 10
82.7828
 20
34.8327
 30
0.0
 11
82.7828
 21
31.7335
 31
0.0
  0
LINE
  8
0
 62
     0
 10
82.7828
 20
31.7335
 30
0.0
 11
83.5822
 21
31.7335
 31
0.0
  0
LINE
  8
0
 62
     0
 10
83.5822
 20
31.7335
 30
0.0
 11
83.5822
 21
25.9319
 31
0.0
  0
LINE
  8
0
 62
     0
 10
83.5822
 20
25.9319
 30
0.0
 11
82.7828
 21
25.9319
 31
0.0
  0
LINE
  8
0
 62
     0
 10
82.7828
 20
25.9319
 30
0.0
 11
82.7828
 21
22.8327
 31
0.0
  0
LINE
  8
0
 62
     0
 10
82.7828
 20
22.8327
 30
0.0
 11
83.5822
 21
22.8327
 31
0.0
  0
LINE
  8
0
 62
     0
 10
83.5822
 20
22.8327
 30
0.0
 11
83.5822
 21
21.8323
 31
0.0
  0
LINE
  8
0
 62
     0
 10
83.5822
 20
21.8323
 30
0.0
 11
97.5829
 21
21.8323
 31
0.0
  0
LINE
  8
0
 62
     0
 10
97.5829
 20
21.8323
 30
0.0
 11
97.5829
 21
22.8327
 31
0.0
  0
LINE
  8
0
 62
     0
 10
97.5829
 20
22.8327
 30
0.0
 11
98.3823
 21
22.8327
 31
0.0
  0
LINE
  8
0
 62
     0
 10
98.3823
 20
22.8327
 30
0.0
 11
98.3823
 21
25.9319
 31
0.0
  0
LINE
  8
0
 62
     0
 10
98.3823
 20
25.9319
 30
0.0
 11
97.5829
 21
25.9319
 31
0.0
  0
LINE
  8
0
 62
     0
 10
97.5829
 20
25.9319
 30
0.0
 11
97.5829
 21
31.7335
 31
0.0
  0
LINE
  8
0
 62
     0
 10
97.5829
 20
31.7335
 30
0.0
 11
98.3823
 21
31.7335
 31
0.0
  0
LINE
  8
0
 62
     0
 10
98.3823
 20
31.7335
 30
0.0
 11
98.3823
 21
34.8327
 31
0.0
  0
LINE
  8
0
 62
     0
 10
98.3823
 20
34.8327
 30
0.0
 11
97.5829
 21
34.8327
 31
0.0
  0
LINE
  8
0
 62
     0
 10
97.5829
 20
34.8327
 30
0.0
 11
97.5829
 21
35.8316
 31
0.0
  0
LINE
  8
0
 62
     0
 10
97.5829
 20
35.8316
 30
0.0
 11
83.5822
 21
35.8316
 31
0.0
  0
LINE
  8
0
 62
     0
 10
102.632
 20
35.8316
 30
0.0
 11
102.632
 21
34.8327
 31
0.0
  0
LINE
  8
0
 62
     0
 10
102.632
 20
34.8327
 30
0.0
 11
101.833
 21
34.8327
 31
0.0
  0
LINE
  8
0
 62
     0
 10
101.833
 20
34.8327
 30
0.0
 11
101.833
 21
31.7335
 31
0.0
  0
LINE
  8
0
 62
     0
 10
101.833
 20
31.7335
 30
0.0
 11
102.632
 21
31.7335
 31
0.0
  0
LINE
  8
0
 62
     0
 10
102.632
 20
31.7335
 30
0.0
 11
102.632
 21
25.9319
 31
0.0
  0
LINE
  8
0
 62
     0
 10
102.632
 20
25.9319
 30
0.0
 11
101.833
 21
25.9319
 31
0.0
  0
LINE
  8
0
 62
     0
 10
101.833
 20
25.9319
 30
0.0
 11
101.833
 21
22.8327
 31
0.0
  0
LINE
  8
0
 62
     0
 10
101.833
 20
22.8327
 30
0.0
 11
102.632
 21
22.8327
 31
0.0
  0
LINE
  8
0
 62
     0
 10
102.632
 20
22.8327
 30
0.0
 11
102.632
 21
21.8323
 31
0.0
  0
LINE
  8
0
 62
     0
 10
102.632
 20
21.8323
 30
0.0
 11
116.633
 21
21.8323
 31
0.0
  0
LINE
  8
0
 62
     0
 10
116.633
 20
21.8323
 30
0.0
 11
116.633
 21
22.8327
 31
0.0
  0
LINE
  8
0
 62
     0
 10
116.633
 20
22.8327
 30
0.0
 11
117.432
 21
22.8327
 31
0.0
  0
LINE
  8
0
 62
     0
 10
117.432
 20
22.8327
 30
0.0
 11
117.432
 21
25.9319
 31
0.0
  0
LINE
  8
0
 62
     0
 10
117.432
 20
25.9319
 30
0.0
 11
116.633
 21
25.9319
 31
0.0
  0
LINE
  8
0
 62
     0
 10
116.633
 20
25.9319
 30
0.0
 11
116.633
 21
31.7335
 31
0.0
  0
LINE
  8
0
 62
     0
 10
116.633
 20
31.7335
 30
0.0
 11
117.432
 21
31.7335
 31
0.0
  0
LINE
  8
0
 62
     0
 10
117.432
 20
31.7335
 30
0.0
 11
117.432
 21
34.8327
 31
0.0
  0
LINE
  8
0
 62
     0
 10
117.432
 20
34.8327
 30
0.0
 11
116.633
 21
34.8327
 31
0.0
  0
LINE
  8
0
 62
     0
 10
116.633
 20
34.8327
 30
0.0
 11
116.633
 21
35.8316
 31
0.0
  0
LINE
  8
0
 62
     0
 10
116.633
 20
35.8316
 30
0.0
 11
102.632
 21
35.8316
 31
0.0
  0
LINE
  8
0
 62
     0
 10
121.682
 20
35.8316
 30
0.0
 11
121.682
 21
34.8327
 31
0.0
  0
LINE
  8
0
 62
     0
 10
121.682
 20
34.8327
 30
0.0
 11
120.883
 21
34.8327
 31
0.0
  0
LINE
  8
0
 62
     0
 10
120.883
 20
34.8327
 30
0.0
 11
120.883
 21
31.7335
 31
0.0
  0
LINE
  8
0
 62
     0
 10
120.883
 20
31.7335
 30
0.0
 11
121.682
 21
31.7335
 31
0.0
  0
LINE
  8
0
 62
     0
 10
121.682
 20
31.7335
 30
0.0
 11
121.682
 21
25.9319
 31
0.0
  0
LINE
  8
0
 62
     0
 10
121.682
 20
25.9319
 30
0.0
 11
120.883
 21
25.9319
 31
0.0
  0
LINE
  8
0
 62
     0
 10
120.883
 20
25.9319
 30
0.0
 11
120.883
 21
22.8327
 31
0.0
  0
LINE
  8
0
 62
     0
 10
120.883
 20
22.8327
 30
0.0
 11
121.682
 21
22.8327
 31
0.0
  0
LINE
  8
0
 62
     0
 10
121.682
 20
22.8327
 30
0.0
 11
121.682
 21
21.8323
 31
0.0
  0
LINE
  8
0
 62
     0
 10
121.682
 20
21.8323
 30
0.0
 11
135.683
 21
21.8323
 31
0.0
  0
LINE
  8
0
 62
     0
 10
135.683
 20
21.8323
 30
0.0
 11
135.683
 21
22.8327
 31
0.0
  0
LINE
  8
0
 62
     0
 10
135.683
 20
22.8327
 30
0.0
 11
136.482
 21
22.8327
 31
0.0
  0
LINE
  8
0
 62
     0
 10
136.482
 20
22.8327
 30
0.0
 11
136.482
 21
25.9319
 31
0.0
  0
LINE
  8
0
 62
     0
 10
136.482
 20
25.9319
 30
0.0
 11
135.683
 21
25.9319
 31
0.0
  0
LINE
  8
0
 62
     0
 10
135.683
 20
25.9319
 30
0.0
 11
135.683
 21
31.7335
 31
0.0
  0
LINE
  8
0
 62
     0
 10
135.683
 20
31.7335
 30
0.0
 11
136.482
 21
31.7335
 31
0.0
  0
LINE
  8
0
 62
     0
 10
136.482
 20
31.7335
 30
0.0
 11
136.482
 21
34.8327
 31
0.0
  0
LINE
  8
0
 62
     0
 10
136.482
 20
34.8327
 30
0.0
 11
135.683
 21
34.8327
 31
0.0
  0
LINE
  8
0
 62
     0
 10
135.683
 20
34.8327
 30
0.0
 11
135.683
 21
35.8316
 31
0.0
  0
LINE
  8
0
 62
     0
 10
135.683
 20
35.8316
 30
0.0
 11
121.682
 21
35.8316
 31
0.0
  0
LINE
  8
0
 62
     0
 10
140.732
 20
35.8316
 30
0.0
 11
140.732
 21
34.8327
 31
0.0
  0
LINE
  8
0
 62
     0
 10
140.732
 20
34.8327
 30
0.0
 11
139.933
 21
34.8327
 31
0.0
  0
LINE
  8
0
 62
     0
 10
139.933
 20
34.8327
 30
0.0
 11
139.933
 21
31.7335
 31
0.0
  0
LINE
  8
0
 62
     0
 10
139.933
 20
31.7335
 30
0.0
 11
140.732
 21
31.7335
 31
0.0
  0
LINE
  8
0
 62
     0
 10
140.732
 20
31.7335
 30
0.0
 11
140.732
 21
25.9319
 31
0.0
  0
LINE
  8
0
 62
     0
 10
140.732
 20
25.9319
 30
0.0
 11
139.933
 21
25.9319
 31
0.0
  0
LINE
  8
0
 62
     0
 10
139.933
 20
25.9319
 30
0.0
 11
139.933
 21
22.8327
 31
0.0
  0
LINE
  8
0
 62
     0
 10
139.933
 20
22.8327
 30
0.0
 11
140.732
 21
22.8327
 31
0.0
  0
LINE
  8
0
 62
     0
 10
140.732
 20
22.8327
 30
0.0
 11
140.732
 21
21.8323
 31
0.0
  0
LINE
  8
0
 62
     0
 10
140.732
 20
21.8323
 30
0.0
 11
154.733
 21
21.8323
 31
0.0
  0
LINE
  8
0
 62
     0
 10
154.733
 20
21.8323
 30
0.0
 11
154.733
 21
22.8327
 31
0.0
  0
LINE
  8
0
 62
     0
 10
154.733
 20
22.8327
 30
0.0
 11
155.532
 21
22.8327
 31
0.0
  0
LINE
  8
0
 62
     0
 10
155.532
 20
22.8327
 30
0.0
 11
155.532
 21
25.9319
 31
0.0
  0
LINE
  8
0
 62
     0
 10
155.532
 20
25.9319
 30
0.0
 11
154.733
 21
25.9319
 31
0.0
  0
LINE
  8
0
 62
     0
 10
154.733
 20
25.9319
 30
0.0
 11
154.733
 21
31.7335
 31
0.0
  0
LINE
  8
0
 62
     0
 10
154.733
 20
31.7335
 30
0.0
 11
155.532
 21
31.7335
 31
0.0
  0
LINE
  8
0
 62
     0
 10
155.532
 20
31.7335
 30
0.0
 11
155.532
 21
34.8327
 31
0.0
  0
LINE
  8
0
 62
     0
 10
155.532
 20
34.8327
 30
0.0
 11
154.733
 21
34.8327
 31
0.0
  0
LINE
  8
0
 62
     0
 10
154.733
 20
34.8327
 30
0.0
 11
154.733
 21
35.8316
 31
0.0
  0
LINE
  8
0
 62
     0
 10
154.733
 20
35.8316
 30
0.0
 11
140.732
 21
35.8316
 31
0.0
  0
LINE
  8
0
 62
     0
 10
159.782
 20
35.8316
 30
0.0
 11
159.782
 21
34.8327
 31
0.0
  0
LINE
  8
0
 62
     0
 10
159.782
 20
34.8327
 30
0.0
 11
158.983
 21
34.8327
 31
0.0
  0
LINE
  8
0
 62
     0
 10
158.983
 20
34.8327
 30
0.0
 11
158.983
 21
31.7335
 31
0.0
  0
LINE
  8
0
 62
     0
 10
158.983
 20
31.7335
 30
0.0
 11
159.782
 21
31.7335
 31
0.0
  0
LINE
  8
0
 62
     0
 10
159.782
 20
31.7335
 30
0.0
 11
159.782
 21
25.9319
 31
0.0
  0
LINE
  8
0
 62
     0
 10
159.782
 20
25.9319
 30
0.0
 11
158.983
 21
25.9319
 31
0.0
  0
LINE
  8
0
 62
     0
 10
158.983
 20
25.9319
 30
0.0
 11
158.983
 21
22.8327
 31
0.0
  0
LINE
  8
0
 62
     0
 10
158.983
 20
22.8327
 30
0.0
 11
159.782
 21
22.8327
 31
0.0
  0
LINE
  8
0
 62
     0
 10
159.782
 20
22.8327
 30
0.0
 11
159.782
 21
21.8323
 31
0.0
  0
LINE
  8
0
 62
     0
 10
159.782
 20
21.8323
 30
0.0
 11
173.783
 21
21.8323
 31
0.0
  0
LINE
  8
0
 62
     0
 10
173.783
 20
21.8323
 30
0.0
 11
173.783
 21
22.8327
 31
0.0
  0
LINE
  8
0
 62
     0
 10
173.783
 20
22.8327
 30
0.0
 11
174.582
 21
22.8327
 31
0.0
  0
LINE
  8
0
 62
     0
 10
174.582
 20
22.8327
 30
0.0
 11
174.582
 21
25.9319
 31
0.0
  0
LINE
  8
0
 62
     0
 10
174.582
 20
25.9319
 30
0.0
 11
173.783
 21
25.9319
 31
0.0
  0
LINE
  8
0
 62
     0
 10
173.783
 20
25.9319
 30
0.0
 11
173.783
 21
31.7335
 31
0.0
  0
LINE
  8
0
 62
     0
 10
173.783
 20
31.7335
 30
0.0
 11
174.582
 21
31.7335
 31
0.0
  0
LINE
  8
0
 62
     0
 10
174.582
 20
31.7335
 30
0.0
 11
174.582
 21
34.8327
 31
0.0
  0
LINE
  8
0
 62
     0
 10
174.582
 20
34.8327
 30
0.0
 11
173.783
 21
34.8327
 31
0.0
  0
LINE
  8
0
 62
     0
 10
173.783
 20
34.8327
 30
0.0
 11
173.783
 21
35.8316
 31
0.0
  0
LINE
  8
0
 62
     0
 10
173.783
 20
35.8316
 30
0.0
 11
159.782
 21
35.8316
 31
0.0
  0
LINE
  8
0
 62
     0
 10
178.832
 20
35.8316
 30
0.0
 11
178.832
 21
34.8327
 31
0.0
  0
LINE
  8
0
 62
     0
 10
178.832
 20
34.8327
 30
0.0
 11
178.033
 21
34.8327
 31
0.0
  0
LINE
  8
0
 62
     0
 10
178.033
 20
34.8327
 30
0.0
 11
178.033
 21
31.7335
 31
0.0
  0
LINE
  8
0
 62
     0
 10
178.033
 20
31.7335
 30
0.0
 11
178.832
 21
31.7335
 31
0.0
  0
LINE
  8
0
 62
     0
 10
178.832
 20
31.7335
 30
0.0
 11
178.832
 21
25.9319
 31
0.0
  0
LINE
  8
0
 62
     0
 10
178.832
 20
25.9319
 30
0.0
 11
178.033
 21
25.9319
 31
0.0
  0
LINE
  8
0
 62
     0
 10
178.033
 20
25.9319
 30
0.0
 11
178.033
 21
22.8327
 31
0.0
  0
LINE
  8
0
 62
     0
 10
178.033
 20
22.8327
 30
0.0
 11
178.832
 21
22.8327
 31
0.0
  0
LINE
  8
0
 62
     0
 10
178.832
 20
22.8327
 30
0.0
 11
178.832
 21
21.8323
 31
0.0
  0
LINE
  8
0
 62
     0
 10
178.832
 20
21.8323
 30
0.0
 11
192.833
 21
21.8323
 31
0.0
  0
LINE
  8
0
 62
     0
 10
192.833
 20
21.8323
 30
0.0
 11
192.833
 21
22.8327
 31
0.0
  0
LINE
  8
0
 62
     0
 10
192.833
 20
22.8327
 30
0.0
 11
193.632
 21
22.8327
 31
0.0
  0
LINE
  8
0
 62
     0
 10
193.632
 20
22.8327
 30
0.0
 11
193.632
 21
25.9319
 31
0.0
  0
LINE
  8
0
 62
     0
 10
193.632
 20
25.9319
 30
0.0
 11
192.833
 21
25.9319
 31
0.0
  0
LINE
  8
0
 62
     0
 10
192.833
 20
25.9319
 30
0.0
 11
192.833
 21
31.7335
 31
0.0
  0
LINE
  8
0
 62
     0
 10
192.833
 20
31.7335
 30
0.0
 11
193.632
 21
31.7335
 31
0.0
  0
LINE
  8
0
 62
     0
 10
193.632
 20
31.7335
 30
0.0
 11
193.632
 21
34.8327
 31
0.0
  0
LINE
  8
0
 62
     0
 10
193.632
 20
34.8327
 30
0.0
 11
192.833
 21
34.8327
 31
0.0
  0
LINE
  8
0
 62
     0
 10
192.833
 20
34.8327
 30
0.0
 11
192.833
 21
35.8316
 31
0.0
  0
LINE
  8
0
 62
     0
 10
192.833
 20
35.8316
 30
0.0
 11
178.832
 21
35.8316
 31
0.0
  0
LINE
  8
0
 62
     0
 10
197.882
 20
35.8316
 30
0.0
 11
197.882
 21
34.8327
 31
0.0
  0
LINE
  8
0
 62
     0
 10
197.882
 20
34.8327
 30
0.0
 11
197.083
 21
34.8327
 31
0.0
  0
LINE
  8
0
 62
     0
 10
197.083
 20
34.8327
 30
0.0
 11
197.083
 21
31.7335
 31
0.0
  0
LINE
  8
0
 62
     0
 10
197.083
 20
31.7335
 30
0.0
 11
197.882
 21
31.7335
 31
0.0
  0
LINE
  8
0
 62
     0
 10
197.882
 20
31.7335
 30
0.0
 11
197.882
 21
25.9319
 31
0.0
  0
LINE
  8
0
 62
     0
 10
197.882
 20
25.9319
 30
0.0
 11
197.083
 21
25.9319
 31
0.0
  0
LINE
  8
0
 62
     0
 10
197.083
 20
25.9319
 30
0.0
 11
197.083
 21
22.8327
 31
0.0
  0
LINE
  8
0
 62
     0
 10
197.083
 20
22.8327
 30
0.0
 11
197.882
 21
22.8327
 31
0.0
  0
LINE
  8
0
 62
     0
 10
197.882
 20
22.8327
 30
0.0
 11
197.882
 21
21.8323
 31
0.0
  0
LINE
  8
0
 62
     0
 10
197.882
 20
21.8323
 30
0.0
 11
211.883
 21
21.8323
 31
0.0
  0
LINE
  8
0
 62
     0
 10
211.883
 20
21.8323
 30
0.0
 11
211.883
 21
22.8327
 31
0.0
  0
LINE
  8
0
 62
     0
 10
211.883
 20
22.8327
 30
0.0
 11
212.682
 21
22.8327
 31
0.0
  0
LINE
  8
0
 62
     0
 10
212.682
 20
22.8327
 30
0.0
 11
212.682
 21
25.9319
 31
0.0
  0
LINE
  8
0
 62
     0
 10
212.682
 20
25.9319
 30
0.0
 11
211.883
 21
25.9319
 31
0.0
  0
LINE
  8
0
 62
     0
 10
211.883
 20
25.9319
 30
0.0
 11
211.883
 21
31.7335
 31
0.0
  0
LINE
  8
0
 62
     0
 10
211.883
 20
31.7335
 30
0.0
 11
212.682
 21
31.7335
 31
0.0
  0
LINE
  8
0
 62
     0
 10
212.682
 20
31.7335
 30
0.0
 11
212.682
 21
34.8327
 31
0.0
  0
LINE
  8
0
 62
     0
 10
212.682
 20
34.8327
 30
0.0
 11
211.883
 21
34.8327
 31
0.0
  0
LINE
  8
0
 62
     0
 10
211.883
 20
34.8327
 30
0.0
 11
211.883
 21
35.8316
 31
0.0
  0
LINE
  8
0
 62
     0
 10
211.883
 20
35.8316
 30
0.0
 11
197.882
 21
35.8316
 31
0.0
  0
LINE
  8
0
 62
     0
 10
216.932
 20
35.8316
 30
0.0
 11
216.932
 21
34.8327
 31
0.0
  0
LINE
  8
0
 62
     0
 10
216.932
 20
34.8327
 30
0.0
 11
216.133
 21
34.8327
 31
0.0
  0
LINE
  8
0
 62
     0
 10
216.133
 20
34.8327
 30
0.0
 11
216.133
 21
31.7335
 31
0.0
  0
LINE
  8
0
 62
     0
 10
216.133
 20
31.7335
 30
0.0
 11
216.932
 21
31.7335
 31
0.0
  0
LINE
  8
0
 62
     0
 10
216.932
 20
31.7335
 30
0.0
 11
216.932
 21
25.9319
 31
0.0
  0
LINE
  8
0
 62
     0
 10
216.932
 20
25.9319
 30
0.0
 11
216.133
 21
25.9319
 31
0.0
  0
LINE
  8
0
 62
     0
 10
216.133
 20
25.9319
 30
0.0
 11
216.133
 21
22.8327
 31
0.0
  0
LINE
  8
0
 62
     0
 10
216.133
 20
22.8327
 30
0.0
 11
216.932
 21
22.8327
 31
0.0
  0
LINE
  8
0
 62
     0
 10
216.932
 20
22.8327
 30
0.0
 11
216.932
 21
21.8323
 31
0.0
  0
LINE
  8
0
 62
     0
 10
216.932
 20
21.8323
 30
0.0
 11
230.933
 21
21.8323
 31
0.0
  0
LINE
  8
0
 62
     0
 10
230.933
 20
21.8323
 30
0.0
 11
230.933
 21
22.8327
 31
0.0
  0
LINE
  8
0
 62
     0
 10
230.933
 20
22.8327
 30
0.0
 11
231.732
 21
22.8327
 31
0.0
  0
LINE
  8
0
 62
     0
 10
231.732
 20
22.8327
 30
0.0
 11
231.732
 21
25.9319
 31
0.0
  0
LINE
  8
0
 62
     0
 10
231.732
 20
25.9319
 30
0.0
 11
230.933
 21
25.9319
 31
0.0
  0
LINE
  8
0
 62
     0
 10
230.933
 20
25.9319
 30
0.0
 11
230.933
 21
31.7335
 31
0.0
  0
LINE
  8
0
 62
     0
 10
230.933
 20
31.7335
 30
0.0
 11
231.732
 21
31.7335
 31
0.0
  0
LINE
  8
0
 62
     0
 10
231.732
 20
31.7335
 30
0.0
 11
231.732
 21
34.8327
 31
0.0
  0
LINE
  8
0
 62
     0
 10
231.732
 20
34.8327
 30
0.0
 11
230.933
 21
34.8327
 31
0.0
  0
LINE
  8
0
 62
     0
 10
230.933
 20
34.8327
 30
0.0
 11
230.933
 21
35.8316
 31
0.0
  0
LINE
  8
0
 62
     0
 10
230.933
 20
35.8316
 30
0.0
 11
216.932
 21
35.8316
 31
0.0
  0
LINE
  8
0
 62
     0
 10
243.126
 20
35.8316
 30
0.0
 11
243.126
 21
34.8327
 31
0.0
  0
LINE
  8
0
 62
     0
 10
243.126
 20
34.8327
 30
0.0
 11
242.327
 21
34.8327
 31
0.0
  0
LINE
  8
0
 62
     0
 10
242.327
 20
34.8327
 30
0.0
 11
242.327
 21
31.7335
 31
0.0
  0
LINE
  8
0
 62
     0
 10
242.327
 20
31.7335
 30
0.0
 11
243.126
 21
31.7335
 31
0.0
  0
LINE
  8
0
 62
     0
 10
243.126
 20
31.7335
 30
0.0
 11
243.126
 21
25.9319
 31
0.0
  0
LINE
  8
0
 62
     0
 10
243.126
 20
25.9319
 30
0.0
 11
242.327
 21
25.9319
 31
0.0
  0
LINE
  8
0
 62
     0
 10
242.327
 20
25.9319
 30
0.0
 11
242.327
 21
22.8327
 31
0.0
  0
LINE
  8
0
 62
     0
 10
242.327
 20
22.8327
 30
0.0
 11
243.126
 21
22.8327
 31
0.0
  0
LINE
  8
0
 62
     0
 10
243.126
 20
22.8327
 30
0.0
 11
243.126
 21
21.8323
 31
0.0
  0
LINE
  8
0
 62
     0
 10
243.126
 20
21.8323
 30
0.0
 11
257.127
 21
21.8323
 31
0.0
  0
LINE
  8
0
 62
     0
 10
257.127
 20
21.8323
 30
0.0
 11
257.127
 21
22.8327
 31
0.0
  0
LINE
  8
0
 62
     0
 10
257.127
 20
22.8327
 30
0.0
 11
257.926
 21
22.8327
 31
0.0
  0
LINE
  8
0
 62
     0
 10
257.926
 20
22.8327
 30
0.0
 11
257.926
 21
25.9319
 31
0.0
  0
LINE
  8
0
 62
     0
 10
257.926
 20
25.9319
 30
0.0
 11
257.127
 21
25.9319
 31
0.0
  0
LINE
  8
0
 62
     0
 10
257.127
 20
25.9319
 30
0.0
 11
257.127
 21
31.7335
 31
0.0
  0
LINE
  8
0
 62
     0
 10
257.127
 20
31.7335
 30
0.0
 11
257.926
 21
31.7335
 31
0.0
  0
LINE
  8
0
 62
     0
 10
257.926
 20
31.7335
 30
0.0
 11
257.926
 21
34.8327
 31
0.0
  0
LINE
  8
0
 62
     0
 10
257.926
 20
34.8327
 30
0.0
 11
257.127
 21
34.8327
 31
0.0
  0
LINE
  8
0
 62
     0
 10
257.127
 20
34.8327
 30
0.0
 11
257.127
 21
35.8316
 31
0.0
  0
LINE
  8
0
 62
     0
 10
257.127
 20
35.8316
 30
0.0
 11
243.126
 21
35.8316
 31
0.0
  0
LINE
  8
0
 62
     0
 10
269.321
 20
35.8316
 30
0.0
 11
269.321
 21
34.8327
 31
0.0
  0
LINE
  8
0
 62
     0
 10
269.321
 20
34.8327
 30
0.0
 11
268.52
 21
34.8327
 31
0.0
  0
LINE
  8
0
 62
     0
 10
268.52
 20
34.8327
 30
0.0
 11
268.52
 21
31.7335
 31
0.0
  0
LINE
  8
0
 62
     0
 10
268.52
 20
31.7335
 30
0.0
 11
269.321
 21
31.7335
 31
0.0
  0
LINE
  8
0
 62
     0
 10
269.321
 20
31.7335
 30
0.0
 11
269.321
 21
25.9319
 31
0.0
  0
LINE
  8
0
 62
     0
 10
269.321
 20
25.9319
 30
0.0
 11
268.52
 21
25.9319
 31
0.0
  0
LINE
  8
0
 62
     0
 10
268.52
 20
25.9319
 30
0.0
 11
268.52
 21
22.8327
 31
0.0
  0
LINE
  8
0
 62
     0
 10
268.52
 20
22.8327
 30
0.0
 11
269.321
 21
22.8327
 31
0.0
  0
LINE
  8
0
 62
     0
 10
269.321
 20
22.8327
 30
0.0
 11
269.321
 21
21.8323
 31
0.0
  0
LINE
  8
0
 62
     0
 10
269.321
 20
21.8323
 30
0.0
 11
283.32
 21
21.8323
 31
0.0
  0
LINE
  8
0
 62
     0
 10
283.32
 20
21.8323
 30
0.0
 11
283.32
 21
22.8327
 31
0.0
  0
LINE
  8
0
 62
     0
 10
283.32
 20
22.8327
 30
0.0
 11
284.121
 21
22.8327
 31
0.0
  0
LINE
  8
0
 62
     0
 10
284.121
 20
22.8327
 30
0.0
 11
284.121
 21
25.9319
 31
0.0
  0
LINE
  8
0
 62
     0
 10
284.121
 20
25.9319
 30
0.0
 11
283.32
 21
25.9319
 31
0.0
  0
LINE
  8
0
 62
     0
 10
283.32
 20
25.9319
 30
0.0
 11
283.32
 21
31.7335
 31
0.0
  0
LINE
  8
0
 62
     0
 10
283.32
 20
31.7335
 30
0.0
 11
284.121
 21
31.7335
 31
0.0
  0
LINE
  8
0
 62
     0
 10
284.121
 20
31.7335
 30
0.0
 11
284.121
 21
34.8327
 31
0.0
  0
LINE
  8
0
 62
     0
 10
284.121
 20
34.8327
 30
0.0
 11
283.32
 21
34.8327
 31
0.0
  0
LINE
  8
0
 62
     0
 10
283.32
 20
34.8327
 30
0.0
 11
283.32
 21
35.8316
 31
0.0
  0
LINE
  8
0
 62
     0
 10
283.32
 20
35.8316
 30
0.0
 11
269.321
 21
35.8316
 31
0.0
  0
LINE
  8
0
 62
     0
 10
288.371
 20
35.8316
 30
0.0
 11
288.371
 21
34.8327
 31
0.0
  0
LINE
  8
0
 62
     0
 10
288.371
 20
34.8327
 30
0.0
 11
287.57
 21
34.8327
 31
0.0
  0
LINE
  8
0
 62
     0
 10
287.57
 20
34.8327
 30
0.0
 11
287.57
 21
31.7335
 31
0.0
  0
LINE
  8
0
 62
     0
 10
287.57
 20
31.7335
 30
0.0
 11
288.371
 21
31.7335
 31
0.0
  0
LINE
  8
0
 62
     0
 10
288.371
 20
31.7335
 30
0.0
 11
288.371
 21
25.9319
 31
0.0
  0
LINE
  8
0
 62
     0
 10
288.371
 20
25.9319
 30
0.0
 11
287.57
 21
25.9319
 31
0.0
  0
LINE
  8
0
 62
     0
 10
287.57
 20
25.9319
 30
0.0
 11
287.57
 21
22.8327
 31
0.0
  0
LINE
  8
0
 62
     0
 10
287.57
 20
22.8327
 30
0.0
 11
288.371
 21
22.8327
 31
0.0
  0
LINE
  8
0
 62
     0
 10
288.371
 20
22.8327
 30
0.0
 11
288.371
 21
21.8323
 31
0.0
  0
LINE
  8
0
 62
     0
 10
288.371
 20
21.8323
 30
0.0
 11
302.37
 21
21.8323
 31
0.0
  0
LINE
  8
0
 62
     0
 10
302.37
 20
21.8323
 30
0.0
 11
302.37
 21
22.8327
 31
0.0
  0
LINE
  8
0
 62
     0
 10
302.37
 20
22.8327
 30
0.0
 11
303.171
 21
22.8327
 31
0.0
  0
LINE
  8
0
 62
     0
 10
303.171
 20
22.8327
 30
0.0
 11
303.171
 21
25.9319
 31
0.0
  0
LINE
  8
0
 62
     0
 10
303.171
 20
25.9319
 30
0.0
 11
302.37
 21
25.9319
 31
0.0
  0
LINE
  8
0
 62
     0
 10
302.37
 20
25.9319
 30
0.0
 11
302.37
 21
31.7335
 31
0.0
  0
LINE
  8
0
 62
     0
 10
302.37
 20
31.7335
 30
0.0
 11
303.171
 21
31.7335
 31
0.0
  0
LINE
  8
0
 62
     0
 10
303.171
 20
31.7335
 30
0.0
 11
303.171
 21
34.8327
 31
0.0
  0
LINE
  8
0
 62
     0
 10
303.171
 20
34.8327
 30
0.0
 11
302.37
 21
34.8327
 31
0.0
  0
LINE
  8
0
 62
     0
 10
302.37
 20
34.8327
 30
0.0
 11
302.37
 21
35.8316
 31
0.0
  0
LINE
  8
0
 62
     0
 10
302.37
 20
35.8316
 30
0.0
 11
288.371
 21
35.8316
 31
0.0
  0
LINE
  8
0
 62
     0
 10
257.413
 20
54.8816
 30
0.0
 11
257.413
 21
53.8826
 31
0.0
  0
LINE
  8
0
 62
     0
 10
257.413
 20
53.8826
 30
0.0
 11
256.613
 21
53.8826
 31
0.0
  0
LINE
  8
0
 62
     0
 10
256.613
 20
53.8826
 30
0.0
 11
256.613
 21
50.782
 31
0.0
  0
LINE
  8
0
 62
     0
 10
256.613
 20
50.782
 30
0.0
 11
257.413
 21
50.782
 31
0.0
  0
LINE
  8
0
 62
     0
 10
257.413
 20
50.782
 30
0.0
 11
257.413
 21
50.1826
 31
0.0
  0
LINE
  8
0
 62
     0
 10
257.413
 20
50.1826
 30
0.0
 11
255.888
 21
50.1826
 31
0.0
  0
LINE
  8
0
 62
     0
 10
255.888
 20
50.1826
 30
0.0
 11
255.888
 21
53.4127
 31
0.0
  0
LINE
  8
0
 62
     0
 10
255.888
 20
53.4127
 30
0.0
 11
249.138
 21
53.4127
 31
0.0
  0
LINE
  8
0
 62
     0
 10
249.138
 20
53.4127
 30
0.0
 11
249.138
 21
50.1826
 31
0.0
  0
LINE
  8
0
 62
     0
 10
249.138
 20
50.1826
 30
0.0
 11
248.313
 21
50.1826
 31
0.0
  0
LINE
  8
0
 62
     0
 10
248.313
 20
50.1826
 30
0.0
 11
248.313
 21
47.3826
 31
0.0
  0
LINE
  8
0
 62
     0
 10
248.313
 20
47.3826
 30
0.0
 11
249.138
 21
47.3826
 31
0.0
  0
LINE
  8
0
 62
     0
 10
249.138
 20
47.3826
 30
0.0
 11
249.138
 21
41.1138
 31
0.0
  0
LINE
  8
0
 62
     0
 10
249.138
 20
41.1138
 30
0.0
 11
250.863
 21
41.1138
 31
0.0
  0
LINE
  8
0
 62
     0
 10
250.863
 20
41.1138
 30
0.0
 11
250.863
 21
39.9122
 31
0.0
  0
LINE
  8
0
 62
     0
 10
250.863
 20
39.9122
 30
0.0
 11
254.163
 21
39.9122
 31
0.0
  0
LINE
  8
0
 62
     0
 10
254.163
 20
39.9122
 30
0.0
 11
254.163
 21
41.1138
 31
0.0
  0
LINE
  8
0
 62
     0
 10
254.163
 20
41.1138
 30
0.0
 11
255.888
 21
41.1138
 31
0.0
  0
LINE
  8
0
 62
     0
 10
255.888
 20
41.1138
 30
0.0
 11
255.888
 21
45.5828
 31
0.0
  0
LINE
  8
0
 62
     0
 10
255.888
 20
45.5828
 30
0.0
 11
257.413
 21
45.5828
 31
0.0
  0
LINE
  8
0
 62
     0
 10
257.413
 20
45.5828
 30
0.0
 11
257.413
 21
44.982
 31
0.0
  0
LINE
  8
0
 62
     0
 10
257.413
 20
44.982
 30
0.0
 11
256.613
 21
44.982
 31
0.0
  0
LINE
  8
0
 62
     0
 10
256.613
 20
44.982
 30
0.0
 11
256.613
 21
41.8828
 31
0.0
  0
LINE
  8
0
 62
     0
 10
256.613
 20
41.8828
 30
0.0
 11
257.413
 21
41.8828
 31
0.0
  0
LINE
  8
0
 62
     0
 10
257.413
 20
41.8828
 30
0.0
 11
257.413
 21
40.8824
 31
0.0
  0
LINE
  8
0
 62
     0
 10
257.413
 20
40.8824
 30
0.0
 11
271.413
 21
40.8824
 31
0.0
  0
LINE
  8
0
 62
     0
 10
271.413
 20
40.8824
 30
0.0
 11
271.413
 21
41.8828
 31
0.0
  0
LINE
  8
0
 62
     0
 10
271.413
 20
41.8828
 30
0.0
 11
272.214
 21
41.8828
 31
0.0
  0
LINE
  8
0
 62
     0
 10
272.214
 20
41.8828
 30
0.0
 11
272.214
 21
44.982
 31
0.0
  0
LINE
  8
0
 62
     0
 10
272.214
 20
44.982
 30
0.0
 11
271.413
 21
44.982
 31
0.0
  0
LINE
  8
0
 62
     0
 10
271.413
 20
44.982
 30
0.0
 11
271.413
 21
45.5828
 31
0.0
  0
LINE
  8
0
 62
     0
 10
271.413
 20
45.5828
 30
0.0
 11
272.939
 21
45.5828
 31
0.0
  0
LINE
  8
0
 62
     0
 10
272.939
 20
45.5828
 30
0.0
 11
272.939
 21
41.1138
 31
0.0
  0
LINE
  8
0
 62
     0
 10
272.939
 20
41.1138
 30
0.0
 11
274.664
 21
41.1138
 31
0.0
  0
LINE
  8
0
 62
     0
 10
274.664
 20
41.1138
 30
0.0
 11
274.664
 21
39.9122
 31
0.0
  0
LINE
  8
0
 62
     0
 10
274.664
 20
39.9122
 30
0.0
 11
277.964
 21
39.9122
 31
0.0
  0
LINE
  8
0
 62
     0
 10
277.964
 20
39.9122
 30
0.0
 11
277.964
 21
41.1138
 31
0.0
  0
LINE
  8
0
 62
     0
 10
277.964
 20
41.1138
 30
0.0
 11
279.688
 21
41.1138
 31
0.0
  0
LINE
  8
0
 62
     0
 10
279.688
 20
41.1138
 30
0.0
 11
279.688
 21
47.3826
 31
0.0
  0
LINE
  8
0
 62
     0
 10
279.688
 20
47.3826
 30
0.0
 11
280.513
 21
47.3826
 31
0.0
  0
LINE
  8
0
 62
     0
 10
280.513
 20
47.3826
 30
0.0
 11
280.513
 21
50.1826
 31
0.0
  0
LINE
  8
0
 62
     0
 10
280.513
 20
50.1826
 30
0.0
 11
279.688
 21
50.1826
 31
0.0
  0
LINE
  8
0
 62
     0
 10
279.688
 20
50.1826
 30
0.0
 11
279.688
 21
53.4127
 31
0.0
  0
LINE
  8
0
 62
     0
 10
279.688
 20
53.4127
 30
0.0
 11
272.939
 21
53.4127
 31
0.0
  0
LINE
  8
0
 62
     0
 10
272.939
 20
53.4127
 30
0.0
 11
272.939
 21
50.1826
 31
0.0
  0
LINE
  8
0
 62
     0
 10
272.939
 20
50.1826
 30
0.0
 11
271.413
 21
50.1826
 31
0.0
  0
LINE
  8
0
 62
     0
 10
271.413
 20
50.1826
 30
0.0
 11
271.413
 21
50.782
 31
0.0
  0
LINE
  8
0
 62
     0
 10
271.413
 20
50.782
 30
0.0
 11
272.214
 21
50.782
 31
0.0
  0
LINE
  8
0
 62
     0
 10
272.214
 20
50.782
 30
0.0
 11
272.214
 21
53.8826
 31
0.0
  0
LINE
  8
0
 62
     0
 10
272.214
 20
53.8826
 30
0.0
 11
271.413
 21
53.8826
 31
0.0
  0
LINE
  8
0
 62
     0
 10
271.413
 20
53.8826
 30
0.0
 11
271.413
 21
54.8816
 31
0.0
  0
LINE
  8
0
 62
     0
 10
271.413
 20
54.8816
 30
0.0
 11
257.413
 21
54.8816
 31
0.0
  0
LINE
  8
0
 62
     0
 10
9.76341
 20
54.8816
 30
0.0
 11
9.76341
 21
53.8826
 31
0.0
  0
LINE
  8
0
 62
     0
 10
9.76341
 20
53.8826
 30
0.0
 11
8.96415
 21
53.8826
 31
0.0
  0
LINE
  8
0
 62
     0
 10
8.96415
 20
53.8826
 30
0.0
 11
8.96415
 21
50.782
 31
0.0
  0
LINE
  8
0
 62
     0
 10
8.96415
 20
50.782
 30
0.0
 11
9.76341
 21
50.782
 31
0.0
  0
LINE
  8
0
 62
     0
 10
9.76341
 20
50.782
 30
0.0
 11
9.76341
 21
44.982
 31
0.0
  0
LINE
  8
0
 62
     0
 10
9.76341
 20
44.982
 30
0.0
 11
8.96415
 21
44.982
 31
0.0
  0
LINE
  8
0
 62
     0
 10
8.96415
 20
44.982
 30
0.0
 11
8.96415
 21
41.8828
 31
0.0
  0
LINE
  8
0
 62
     0
 10
8.96415
 20
41.8828
 30
0.0
 11
9.76341
 21
41.8828
 31
0.0
  0
LINE
  8
0
 62
     0
 10
9.76341
 20
41.8828
 30
0.0
 11
9.76341
 21
40.8824
 31
0.0
  0
LINE
  8
0
 62
     0
 10
9.76341
 20
40.8824
 30
0.0
 11
23.7629
 21
40.8824
 31
0.0
  0
LINE
  8
0
 62
     0
 10
23.7629
 20
40.8824
 30
0.0
 11
23.7629
 21
41.8828
 31
0.0
  0
LINE
  8
0
 62
     0
 10
23.7629
 20
41.8828
 30
0.0
 11
24.5635
 21
41.8828
 31
0.0
  0
LINE
  8
0
 62
     0
 10
24.5635
 20
41.8828
 30
0.0
 11
24.5635
 21
44.982
 31
0.0
  0
LINE
  8
0
 62
     0
 10
24.5635
 20
44.982
 30
0.0
 11
23.7629
 21
44.982
 31
0.0
  0
LINE
  8
0
 62
     0
 10
23.7629
 20
44.982
 30
0.0
 11
23.7629
 21
50.782
 31
0.0
  0
LINE
  8
0
 62
     0
 10
23.7629
 20
50.782
 30
0.0
 11
24.5635
 21
50.782
 31
0.0
  0
LINE
  8
0
 62
     0
 10
24.5635
 20
50.782
 30
0.0
 11
24.5635
 21
53.8826
 31
0.0
  0
LINE
  8
0
 62
     0
 10
24.5635
 20
53.8826
 30
0.0
 11
23.7629
 21
53.8826
 31
0.0
  0
LINE
  8
0
 62
     0
 10
23.7629
 20
53.8826
 30
0.0
 11
23.7629
 21
54.8816
 31
0.0
  0
LINE
  8
0
 62
     0
 10
23.7629
 20
54.8816
 30
0.0
 11
9.76341
 21
54.8816
 31
0.0
  0
LINE
  8
0
 62
     0
 10
35.9572
 20
54.8816
 30
0.0
 11
35.9572
 21
53.8826
 31
0.0
  0
LINE
  8
0
 62
     0
 10
35.9572
 20
53.8826
 30
0.0
 11
35.1579
 21
53.8826
 31
0.0
  0
LINE
  8
0
 62
     0
 10
35.1579
 20
53.8826
 30
0.0
 11
35.1579
 21
50.782
 31
0.0
  0
LINE
  8
0
 62
     0
 10
35.1579
 20
50.782
 30
0.0
 11
35.9572
 21
50.782
 31
0.0
  0
LINE
  8
0
 62
     0
 10
35.9572
 20
50.782
 30
0.0
 11
35.9572
 21
44.982
 31
0.0
  0
LINE
  8
0
 62
     0
 10
35.9572
 20
44.982
 30
0.0
 11
35.1579
 21
44.982
 31
0.0
  0
LINE
  8
0
 62
     0
 10
35.1579
 20
44.982
 30
0.0
 11
35.1579
 21
41.8828
 31
0.0
  0
LINE
  8
0
 62
     0
 10
35.1579
 20
41.8828
 30
0.0
 11
35.9572
 21
41.8828
 31
0.0
  0
LINE
  8
0
 62
     0
 10
35.9572
 20
41.8828
 30
0.0
 11
35.9572
 21
40.8824
 31
0.0
  0
LINE
  8
0
 62
     0
 10
35.9572
 20
40.8824
 30
0.0
 11
49.9579
 21
40.8824
 31
0.0
  0
LINE
  8
0
 62
     0
 10
49.9579
 20
40.8824
 30
0.0
 11
49.9579
 21
41.8828
 31
0.0
  0
LINE
  8
0
 62
     0
 10
49.9579
 20
41.8828
 30
0.0
 11
50.7573
 21
41.8828
 31
0.0
  0
LINE
  8
0
 62
     0
 10
50.7573
 20
41.8828
 30
0.0
 11
50.7573
 21
44.982
 31
0.0
  0
LINE
  8
0
 62
     0
 10
50.7573
 20
44.982
 30
0.0
 11
49.9579
 21
44.982
 31
0.0
  0
LINE
  8
0
 62
     0
 10
49.9579
 20
44.982
 30
0.0
 11
49.9579
 21
50.782
 31
0.0
  0
LINE
  8
0
 62
     0
 10
49.9579
 20
50.782
 30
0.0
 11
50.7573
 21
50.782
 31
0.0
  0
LINE
  8
0
 62
     0
 10
50.7573
 20
50.782
 30
0.0
 11
50.7573
 21
53.8826
 31
0.0
  0
LINE
  8
0
 62
     0
 10
50.7573
 20
53.8826
 30
0.0
 11
49.9579
 21
53.8826
 31
0.0
  0
LINE
  8
0
 62
     0
 10
49.9579
 20
53.8826
 30
0.0
 11
49.9579
 21
54.8816
 31
0.0
  0
LINE
  8
0
 62
     0
 10
49.9579
 20
54.8816
 30
0.0
 11
35.9572
 21
54.8816
 31
0.0
  0
LINE
  8
0
 62
     0
 10
55.0072
 20
54.8816
 30
0.0
 11
55.0072
 21
53.8826
 31
0.0
  0
LINE
  8
0
 62
     0
 10
55.0072
 20
53.8826
 30
0.0
 11
54.2078
 21
53.8826
 31
0.0
  0
LINE
  8
0
 62
     0
 10
54.2078
 20
53.8826
 30
0.0
 11
54.2078
 21
50.782
 31
0.0
  0
LINE
  8
0
 62
     0
 10
54.2078
 20
50.782
 30
0.0
 11
55.0072
 21
50.782
 31
0.0
  0
LINE
  8
0
 62
     0
 10
55.0072
 20
50.782
 30
0.0
 11
55.0072
 21
44.982
 31
0.0
  0
LINE
  8
0
 62
     0
 10
55.0072
 20
44.982
 30
0.0
 11
54.2078
 21
44.982
 31
0.0
  0
LINE
  8
0
 62
     0
 10
54.2078
 20
44.982
 30
0.0
 11
54.2078
 21
41.8828
 31
0.0
  0
LINE
  8
0
 62
     0
 10
54.2078
 20
41.8828
 30
0.0
 11
55.0072
 21
41.8828
 31
0.0
  0
LINE
  8
0
 62
     0
 10
55.0072
 20
41.8828
 30
0.0
 11
55.0072
 21
40.8824
 31
0.0
  0
LINE
  8
0
 62
     0
 10
55.0072
 20
40.8824
 30
0.0
 11
69.0079
 21
40.8824
 31
0.0
  0
LINE
  8
0
 62
     0
 10
69.0079
 20
40.8824
 30
0.0
 11
69.0079
 21
41.8828
 31
0.0
  0
LINE
  8
0
 62
     0
 10
69.0079
 20
41.8828
 30
0.0
 11
69.8073
 21
41.8828
 31
0.0
  0
LINE
  8
0
 62
     0
 10
69.8073
 20
41.8828
 30
0.0
 11
69.8073
 21
44.982
 31
0.0
  0
LINE
  8
0
 62
     0
 10
69.8073
 20
44.982
 30
0.0
 11
69.0079
 21
44.982
 31
0.0
  0
LINE
  8
0
 62
     0
 10
69.0079
 20
44.982
 30
0.0
 11
69.0079
 21
50.782
 31
0.0
  0
LINE
  8
0
 62
     0
 10
69.0079
 20
50.782
 30
0.0
 11
69.8073
 21
50.782
 31
0.0
  0
LINE
  8
0
 62
     0
 10
69.8073
 20
50.782
 30
0.0
 11
69.8073
 21
53.8826
 31
0.0
  0
LINE
  8
0
 62
     0
 10
69.8073
 20
53.8826
 30
0.0
 11
69.0079
 21
53.8826
 31
0.0
  0
LINE
  8
0
 62
     0
 10
69.0079
 20
53.8826
 30
0.0
 11
69.0079
 21
54.8816
 31
0.0
  0
LINE
  8
0
 62
     0
 10
69.0079
 20
54.8816
 30
0.0
 11
55.0072
 21
54.8816
 31
0.0
  0
LINE
  8
0
 62
     0
 10
74.0572
 20
54.8816
 30
0.0
 11
74.0572
 21
53.8826
 31
0.0
  0
LINE
  8
0
 62
     0
 10
74.0572
 20
53.8826
 30
0.0
 11
73.2578
 21
53.8826
 31
0.0
  0
LINE
  8
0
 62
     0
 10
73.2578
 20
53.8826
 30
0.0
 11
73.2578
 21
50.782
 31
0.0
  0
LINE
  8
0
 62
     0
 10
73.2578
 20
50.782
 30
0.0
 11
74.0572
 21
50.782
 31
0.0
  0
LINE
  8
0
 62
     0
 10
74.0572
 20
50.782
 30
0.0
 11
74.0572
 21
44.982
 31
0.0
  0
LINE
  8
0
 62
     0
 10
74.0572
 20
44.982
 30
0.0
 11
73.2578
 21
44.982
 31
0.0
  0
LINE
  8
0
 62
     0
 10
73.2578
 20
44.982
 30
0.0
 11
73.2578
 21
41.8828
 31
0.0
  0
LINE
  8
0
 62
     0
 10
73.2578
 20
41.8828
 30
0.0
 11
74.0572
 21
41.8828
 31
0.0
  0
LINE
  8
0
 62
     0
 10
74.0572
 20
41.8828
 30
0.0
 11
74.0572
 21
40.8824
 31
0.0
  0
LINE
  8
0
 62
     0
 10
74.0572
 20
40.8824
 30
0.0
 11
88.0579
 21
40.8824
 31
0.0
  0
LINE
  8
0
 62
     0
 10
88.0579
 20
40.8824
 30
0.0
 11
88.0579
 21
41.8828
 31
0.0
  0
LINE
  8
0
 62
     0
 10
88.0579
 20
41.8828
 30
0.0
 11
88.8573
 21
41.8828
 31
0.0
  0
LINE
  8
0
 62
     0
 10
88.8573
 20
41.8828
 30
0.0
 11
88.8573
 21
44.982
 31
0.0
  0
LINE
  8
0
 62
     0
 10
88.8573
 20
44.982
 30
0.0
 11
88.0579
 21
44.982
 31
0.0
  0
LINE
  8
0
 62
     0
 10
88.0579
 20
44.982
 30
0.0
 11
88.0579
 21
50.782
 31
0.0
  0
LINE
  8
0
 62
     0
 10
88.0579
 20
50.782
 30
0.0
 11
88.8573
 21
50.782
 31
0.0
  0
LINE
  8
0
 62
     0
 10
88.8573
 20
50.782
 30
0.0
 11
88.8573
 21
53.8826
 31
0.0
  0
LINE
  8
0
 62
     0
 10
88.8573
 20
53.8826
 30
0.0
 11
88.0579
 21
53.8826
 31
0.0
  0
LINE
  8
0
 62
     0
 10
88.0579
 20
53.8826
 30
0.0
 11
88.0579
 21
54.8816
 31
0.0
  0
LINE
  8
0
 62
     0
 10
88.0579
 20
54.8816
 30
0.0
 11
74.0572
 21
54.8816
 31
0.0
  0
LINE
  8
0
 62
     0
 10
93.1072
 20
54.8816
 30
0.0
 11
93.1072
 21
53.8826
 31
0.0
  0
LINE
  8
0
 62
     0
 10
93.1072
 20
53.8826
 30
0.0
 11
92.3078
 21
53.8826
 31
0.0
  0
LINE
  8
0
 62
     0
 10
92.3078
 20
53.8826
 30
0.0
 11
92.3078
 21
50.782
 31
0.0
  0
LINE
  8
0
 62
     0
 10
92.3078
 20
50.782
 30
0.0
 11
93.1072
 21
50.782
 31
0.0
  0
LINE
  8
0
 62
     0
 10
93.1072
 20
50.782
 30
0.0
 11
93.1072
 21
44.982
 31
0.0
  0
LINE
  8
0
 62
     0
 10
93.1072
 20
44.982
 30
0.0
 11
92.3078
 21
44.982
 31
0.0
  0
LINE
  8
0
 62
     0
 10
92.3078
 20
44.982
 30
0.0
 11
92.3078
 21
41.8828
 31
0.0
  0
LINE
  8
0
 62
     0
 10
92.3078
 20
41.8828
 30
0.0
 11
93.1072
 21
41.8828
 31
0.0
  0
LINE
  8
0
 62
     0
 10
93.1072
 20
41.8828
 30
0.0
 11
93.1072
 21
40.8824
 31
0.0
  0
LINE
  8
0
 62
     0
 10
93.1072
 20
40.8824
 30
0.0
 11
107.108
 21
40.8824
 31
0.0
  0
LINE
  8
0
 62
     0
 10
107.108
 20
40.8824
 30
0.0
 11
107.108
 21
41.8828
 31
0.0
  0
LINE
  8
0
 62
     0
 10
107.108
 20
41.8828
 30
0.0
 11
107.907
 21
41.8828
 31
0.0
  0
LINE
  8
0
 62
     0
 10
107.907
 20
41.8828
 30
0.0
 11
107.907
 21
44.982
 31
0.0
  0
LINE
  8
0
 62
     0
 10
107.907
 20
44.982
 30
0.0
 11
107.108
 21
44.982
 31
0.0
  0
LINE
  8
0
 62
     0
 10
107.108
 20
44.982
 30
0.0
 11
107.108
 21
50.782
 31
0.0
  0
LINE
  8
0
 62
     0
 10
107.108
 20
50.782
 30
0.0
 11
107.907
 21
50.782
 31
0.0
  0
LINE
  8
0
 62
     0
 10
107.907
 20
50.782
 30
0.0
 11
107.907
 21
53.8826
 31
0.0
  0
LINE
  8
0
 62
     0
 10
107.907
 20
53.8826
 30
0.0
 11
107.108
 21
53.8826
 31
0.0
  0
LINE
  8
0
 62
     0
 10
107.108
 20
53.8826
 30
0.0
 11
107.108
 21
54.8816
 31
0.0
  0
LINE
  8
0
 62
     0
 10
107.108
 20
54.8816
 30
0.0
 11
93.1072
 21
54.8816
 31
0.0
  0
LINE
  8
0
 62
     0
 10
112.157
 20
54.8816
 30
0.0
 11
112.157
 21
53.8826
 31
0.0
  0
LINE
  8
0
 62
     0
 10
112.157
 20
53.8826
 30
0.0
 11
111.358
 21
53.8826
 31
0.0
  0
LINE
  8
0
 62
     0
 10
111.358
 20
53.8826
 30
0.0
 11
111.358
 21
50.782
 31
0.0
  0
LINE
  8
0
 62
     0
 10
111.358
 20
50.782
 30
0.0
 11
112.157
 21
50.782
 31
0.0
  0
LINE
  8
0
 62
     0
 10
112.157
 20
50.782
 30
0.0
 11
112.157
 21
44.982
 31
0.0
  0
LINE
  8
0
 62
     0
 10
112.157
 20
44.982
 30
0.0
 11
111.358
 21
44.982
 31
0.0
  0
LINE
  8
0
 62
     0
 10
111.358
 20
44.982
 30
0.0
 11
111.358
 21
41.8828
 31
0.0
  0
LINE
  8
0
 62
     0
 10
111.358
 20
41.8828
 30
0.0
 11
112.157
 21
41.8828
 31
0.0
  0
LINE
  8
0
 62
     0
 10
112.157
 20
41.8828
 30
0.0
 11
112.157
 21
40.8824
 31
0.0
  0
LINE
  8
0
 62
     0
 10
112.157
 20
40.8824
 30
0.0
 11
126.158
 21
40.8824
 31
0.0
  0
LINE
  8
0
 62
     0
 10
126.158
 20
40.8824
 30
0.0
 11
126.158
 21
41.8828
 31
0.0
  0
LINE
  8
0
 62
     0
 10
126.158
 20
41.8828
 30
0.0
 11
126.957
 21
41.8828
 31
0.0
  0
LINE
  8
0
 62
     0
 10
126.957
 20
41.8828
 30
0.0
 11
126.957
 21
44.982
 31
0.0
  0
LINE
  8
0
 62
     0
 10
126.957
 20
44.982
 30
0.0
 11
126.158
 21
44.982
 31
0.0
  0
LINE
  8
0
 62
     0
 10
126.158
 20
44.982
 30
0.0
 11
126.158
 21
50.782
 31
0.0
  0
LINE
  8
0
 62
     0
 10
126.158
 20
50.782
 30
0.0
 11
126.957
 21
50.782
 31
0.0
  0
LINE
  8
0
 62
     0
 10
126.957
 20
50.782
 30
0.0
 11
126.957
 21
53.8826
 31
0.0
  0
LINE
  8
0
 62
     0
 10
126.957
 20
53.8826
 30
0.0
 11
126.158
 21
53.8826
 31
0.0
  0
LINE
  8
0
 62
     0
 10
126.158
 20
53.8826
 30
0.0
 11
126.158
 21
54.8816
 31
0.0
  0
LINE
  8
0
 62
     0
 10
126.158
 20
54.8816
 30
0.0
 11
112.157
 21
54.8816
 31
0.0
  0
LINE
  8
0
 62
     0
 10
131.207
 20
54.8816
 30
0.0
 11
131.207
 21
53.8826
 31
0.0
  0
LINE
  8
0
 62
     0
 10
131.207
 20
53.8826
 30
0.0
 11
130.408
 21
53.8826
 31
0.0
  0
LINE
  8
0
 62
     0
 10
130.408
 20
53.8826
 30
0.0
 11
130.408
 21
50.782
 31
0.0
  0
LINE
  8
0
 62
     0
 10
130.408
 20
50.782
 30
0.0
 11
131.207
 21
50.782
 31
0.0
  0
LINE
  8
0
 62
     0
 10
131.207
 20
50.782
 30
0.0
 11
131.207
 21
44.982
 31
0.0
  0
LINE
  8
0
 62
     0
 10
131.207
 20
44.982
 30
0.0
 11
130.408
 21
44.982
 31
0.0
  0
LINE
  8
0
 62
     0
 10
130.408
 20
44.982
 30
0.0
 11
130.408
 21
41.8828
 31
0.0
  0
LINE
  8
0
 62
     0
 10
130.408
 20
41.8828
 30
0.0
 11
131.207
 21
41.8828
 31
0.0
  0
LINE
  8
0
 62
     0
 10
131.207
 20
41.8828
 30
0.0
 11
131.207
 21
40.8824
 31
0.0
  0
LINE
  8
0
 62
     0
 10
131.207
 20
40.8824
 30
0.0
 11
145.208
 21
40.8824
 31
0.0
  0
LINE
  8
0
 62
     0
 10
145.208
 20
40.8824
 30
0.0
 11
145.208
 21
41.8828
 31
0.0
  0
LINE
  8
0
 62
     0
 10
145.208
 20
41.8828
 30
0.0
 11
146.007
 21
41.8828
 31
0.0
  0
LINE
  8
0
 62
     0
 10
146.007
 20
41.8828
 30
0.0
 11
146.007
 21
44.982
 31
0.0
  0
LINE
  8
0
 62
     0
 10
146.007
 20
44.982
 30
0.0
 11
145.208
 21
44.982
 31
0.0
  0
LINE
  8
0
 62
     0
 10
145.208
 20
44.982
 30
0.0
 11
145.208
 21
50.782
 31
0.0
  0
LINE
  8
0
 62
     0
 10
145.208
 20
50.782
 30
0.0
 11
146.007
 21
50.782
 31
0.0
  0
LINE
  8
0
 62
     0
 10
146.007
 20
50.782
 30
0.0
 11
146.007
 21
53.8826
 31
0.0
  0
LINE
  8
0
 62
     0
 10
146.007
 20
53.8826
 30
0.0
 11
145.208
 21
53.8826
 31
0.0
  0
LINE
  8
0
 62
     0
 10
145.208
 20
53.8826
 30
0.0
 11
145.208
 21
54.8816
 31
0.0
  0
LINE
  8
0
 62
     0
 10
145.208
 20
54.8816
 30
0.0
 11
131.207
 21
54.8816
 31
0.0
  0
LINE
  8
0
 62
     0
 10
150.257
 20
54.8816
 30
0.0
 11
150.257
 21
53.8826
 31
0.0
  0
LINE
  8
0
 62
     0
 10
150.257
 20
53.8826
 30
0.0
 11
149.458
 21
53.8826
 31
0.0
  0
LINE
  8
0
 62
     0
 10
149.458
 20
53.8826
 30
0.0
 11
149.458
 21
50.782
 31
0.0
  0
LINE
  8
0
 62
     0
 10
149.458
 20
50.782
 30
0.0
 11
150.257
 21
50.782
 31
0.0
  0
LINE
  8
0
 62
     0
 10
150.257
 20
50.782
 30
0.0
 11
150.257
 21
44.982
 31
0.0
  0
LINE
  8
0
 62
     0
 10
150.257
 20
44.982
 30
0.0
 11
149.458
 21
44.982
 31
0.0
  0
LINE
  8
0
 62
     0
 10
149.458
 20
44.982
 30
0.0
 11
149.458
 21
41.8828
 31
0.0
  0
LINE
  8
0
 62
     0
 10
149.458
 20
41.8828
 30
0.0
 11
150.257
 21
41.8828
 31
0.0
  0
LINE
  8
0
 62
     0
 10
150.257
 20
41.8828
 30
0.0
 11
150.257
 21
40.8824
 31
0.0
  0
LINE
  8
0
 62
     0
 10
150.257
 20
40.8824
 30
0.0
 11
164.258
 21
40.8824
 31
0.0
  0
LINE
  8
0
 62
     0
 10
164.258
 20
40.8824
 30
0.0
 11
164.258
 21
41.8828
 31
0.0
  0
LINE
  8
0
 62
     0
 10
164.258
 20
41.8828
 30
0.0
 11
165.057
 21
41.8828
 31
0.0
  0
LINE
  8
0
 62
     0
 10
165.057
 20
41.8828
 30
0.0
 11
165.057
 21
44.982
 31
0.0
  0
LINE
  8
0
 62
     0
 10
165.057
 20
44.982
 30
0.0
 11
164.258
 21
44.982
 31
0.0
  0
LINE
  8
0
 62
     0
 10
164.258
 20
44.982
 30
0.0
 11
164.258
 21
50.782
 31
0.0
  0
LINE
  8
0
 62
     0
 10
164.258
 20
50.782
 30
0.0
 11
165.057
 21
50.782
 31
0.0
  0
LINE
  8
0
 62
     0
 10
165.057
 20
50.782
 30
0.0
 11
165.057
 21
53.8826
 31
0.0
  0
LINE
  8
0
 62
     0
 10
165.057
 20
53.8826
 30
0.0
 11
164.258
 21
53.8826
 31
0.0
  0
LINE
  8
0
 62
     0
 10
164.258
 20
53.8826
 30
0.0
 11
164.258
 21
54.8816
 31
0.0
  0
LINE
  8
0
 62
     0
 10
164.258
 20
54.8816
 30
0.0
 11
150.257
 21
54.8816
 31
0.0
  0
LINE
  8
0
 62
     0
 10
169.307
 20
54.8816
 30
0.0
 11
169.307
 21
53.8826
 31
0.0
  0
LINE
  8
0
 62
     0
 10
169.307
 20
53.8826
 30
0.0
 11
168.508
 21
53.8826
 31
0.0
  0
LINE
  8
0
 62
     0
 10
168.508
 20
53.8826
 30
0.0
 11
168.508
 21
50.782
 31
0.0
  0
LINE
  8
0
 62
     0
 10
168.508
 20
50.782
 30
0.0
 11
169.307
 21
50.782
 31
0.0
  0
LINE
  8
0
 62
     0
 10
169.307
 20
50.782
 30
0.0
 11
169.307
 21
44.982
 31
0.0
  0
LINE
  8
0
 62
     0
 10
169.307
 20
44.982
 30
0.0
 11
168.508
 21
44.982
 31
0.0
  0
LINE
  8
0
 62
     0
 10
168.508
 20
44.982
 30
0.0
 11
168.508
 21
41.8828
 31
0.0
  0
LINE
  8
0
 62
     0
 10
168.508
 20
41.8828
 30
0.0
 11
169.307
 21
41.8828
 31
0.0
  0
LINE
  8
0
 62
     0
 10
169.307
 20
41.8828
 30
0.0
 11
169.307
 21
40.8824
 31
0.0
  0
LINE
  8
0
 62
     0
 10
169.307
 20
40.8824
 30
0.0
 11
183.308
 21
40.8824
 31
0.0
  0
LINE
  8
0
 62
     0
 10
183.308
 20
40.8824
 30
0.0
 11
183.308
 21
41.8828
 31
0.0
  0
LINE
  8
0
 62
     0
 10
183.308
 20
41.8828
 30
0.0
 11
184.107
 21
41.8828
 31
0.0
  0
LINE
  8
0
 62
     0
 10
184.107
 20
41.8828
 30
0.0
 11
184.107
 21
44.982
 31
0.0
  0
LINE
  8
0
 62
     0
 10
184.107
 20
44.982
 30
0.0
 11
183.308
 21
44.982
 31
0.0
  0
LINE
  8
0
 62
     0
 10
183.308
 20
44.982
 30
0.0
 11
183.308
 21
50.782
 31
0.0
  0
LINE
  8
0
 62
     0
 10
183.308
 20
50.782
 30
0.0
 11
184.107
 21
50.782
 31
0.0
  0
LINE
  8
0
 62
     0
 10
184.107
 20
50.782
 30
0.0
 11
184.107
 21
53.8826
 31
0.0
  0
LINE
  8
0
 62
     0
 10
184.107
 20
53.8826
 30
0.0
 11
183.308
 21
53.8826
 31
0.0
  0
LINE
  8
0
 62
     0
 10
183.308
 20
53.8826
 30
0.0
 11
183.308
 21
54.8816
 31
0.0
  0
LINE
  8
0
 62
     0
 10
183.308
 20
54.8816
 30
0.0
 11
169.307
 21
54.8816
 31
0.0
  0
LINE
  8
0
 62
     0
 10
188.357
 20
54.8816
 30
0.0
 11
188.357
 21
53.8826
 31
0.0
  0
LINE
  8
0
 62
     0
 10
188.357
 20
53.8826
 30
0.0
 11
187.558
 21
53.8826
 31
0.0
  0
LINE
  8
0
 62
     0
 10
187.558
 20
53.8826
 30
0.0
 11
187.558
 21
50.782
 31
0.0
  0
LINE
  8
0
 62
     0
 10
187.558
 20
50.782
 30
0.0
 11
188.357
 21
50.782
 31
0.0
  0
LINE
  8
0
 62
     0
 10
188.357
 20
50.782
 30
0.0
 11
188.357
 21
44.982
 31
0.0
  0
LINE
  8
0
 62
     0
 10
188.357
 20
44.982
 30
0.0
 11
187.558
 21
44.982
 31
0.0
  0
LINE
  8
0
 62
     0
 10
187.558
 20
44.982
 30
0.0
 11
187.558
 21
41.8828
 31
0.0
  0
LINE
  8
0
 62
     0
 10
187.558
 20
41.8828
 30
0.0
 11
188.357
 21
41.8828
 31
0.0
  0
LINE
  8
0
 62
     0
 10
188.357
 20
41.8828
 30
0.0
 11
188.357
 21
40.8824
 31
0.0
  0
LINE
  8
0
 62
     0
 10
188.357
 20
40.8824
 30
0.0
 11
202.358
 21
40.8824
 31
0.0
  0
LINE
  8
0
 62
     0
 10
202.358
 20
40.8824
 30
0.0
 11
202.358
 21
41.8828
 31
0.0
  0
LINE
  8
0
 62
     0
 10
202.358
 20
41.8828
 30
0.0
 11
203.157
 21
41.8828
 31
0.0
  0
LINE
  8
0
 62
     0
 10
203.157
 20
41.8828
 30
0.0
 11
203.157
 21
44.982
 31
0.0
  0
LINE
  8
0
 62
     0
 10
203.157
 20
44.982
 30
0.0
 11
202.358
 21
44.982
 31
0.0
  0
LINE
  8
0
 62
     0
 10
202.358
 20
44.982
 30
0.0
 11
202.358
 21
50.782
 31
0.0
  0
LINE
  8
0
 62
     0
 10
202.358
 20
50.782
 30
0.0
 11
203.157
 21
50.782
 31
0.0
  0
LINE
  8
0
 62
     0
 10
203.157
 20
50.782
 30
0.0
 11
203.157
 21
53.8826
 31
0.0
  0
LINE
  8
0
 62
     0
 10
203.157
 20
53.8826
 30
0.0
 11
202.358
 21
53.8826
 31
0.0
  0
LINE
  8
0
 62
     0
 10
202.358
 20
53.8826
 30
0.0
 11
202.358
 21
54.8816
 31
0.0
  0
LINE
  8
0
 62
     0
 10
202.358
 20
54.8816
 30
0.0
 11
188.357
 21
54.8816
 31
0.0
  0
LINE
  8
0
 62
     0
 10
207.407
 20
54.8816
 30
0.0
 11
207.407
 21
53.8826
 31
0.0
  0
LINE
  8
0
 62
     0
 10
207.407
 20
53.8826
 30
0.0
 11
206.608
 21
53.8826
 31
0.0
  0
LINE
  8
0
 62
     0
 10
206.608
 20
53.8826
 30
0.0
 11
206.608
 21
50.782
 31
0.0
  0
LINE
  8
0
 62
     0
 10
206.608
 20
50.782
 30
0.0
 11
207.407
 21
50.782
 31
0.0
  0
LINE
  8
0
 62
     0
 10
207.407
 20
50.782
 30
0.0
 11
207.407
 21
44.982
 31
0.0
  0
LINE
  8
0
 62
     0
 10
207.407
 20
44.982
 30
0.0
 11
206.608
 21
44.982
 31
0.0
  0
LINE
  8
0
 62
     0
 10
206.608
 20
44.982
 30
0.0
 11
206.608
 21
41.8828
 31
0.0
  0
LINE
  8
0
 62
     0
 10
206.608
 20
41.8828
 30
0.0
 11
207.407
 21
41.8828
 31
0.0
  0
LINE
  8
0
 62
     0
 10
207.407
 20
41.8828
 30
0.0
 11
207.407
 21
40.8824
 31
0.0
  0
LINE
  8
0
 62
     0
 10
207.407
 20
40.8824
 30
0.0
 11
221.408
 21
40.8824
 31
0.0
  0
LINE
  8
0
 62
     0
 10
221.408
 20
40.8824
 30
0.0
 11
221.408
 21
41.8828
 31
0.0
  0
LINE
  8
0
 62
     0
 10
221.408
 20
41.8828
 30
0.0
 11
222.207
 21
41.8828
 31
0.0
  0
LINE
  8
0
 62
     0
 10
222.207
 20
41.8828
 30
0.0
 11
222.207
 21
44.982
 31
0.0
  0
LINE
  8
0
 62
     0
 10
222.207
 20
44.982
 30
0.0
 11
221.408
 21
44.982
 31
0.0
  0
LINE
  8
0
 62
     0
 10
221.408
 20
44.982
 30
0.0
 11
221.408
 21
50.782
 31
0.0
  0
LINE
  8
0
 62
     0
 10
221.408
 20
50.782
 30
0.0
 11
222.207
 21
50.782
 31
0.0
  0
LINE
  8
0
 62
     0
 10
222.207
 20
50.782
 30
0.0
 11
222.207
 21
53.8826
 31
0.0
  0
LINE
  8
0
 62
     0
 10
222.207
 20
53.8826
 30
0.0
 11
221.408
 21
53.8826
 31
0.0
  0
LINE
  8
0
 62
     0
 10
221.408
 20
53.8826
 30
0.0
 11
221.408
 21
54.8816
 31
0.0
  0
LINE
  8
0
 62
     0
 10
221.408
 20
54.8816
 30
0.0
 11
207.407
 21
54.8816
 31
0.0
  0
LINE
  8
0
 62
     0
 10
226.457
 20
54.8816
 30
0.0
 11
226.457
 21
53.8826
 31
0.0
  0
LINE
  8
0
 62
     0
 10
226.457
 20
53.8826
 30
0.0
 11
225.658
 21
53.8826
 31
0.0
  0
LINE
  8
0
 62
     0
 10
225.658
 20
53.8826
 30
0.0
 11
225.658
 21
50.782
 31
0.0
  0
LINE
  8
0
 62
     0
 10
225.658
 20
50.782
 30
0.0
 11
226.457
 21
50.782
 31
0.0
  0
LINE
  8
0
 62
     0
 10
226.457
 20
50.782
 30
0.0
 11
226.457
 21
44.982
 31
0.0
  0
LINE
  8
0
 62
     0
 10
226.457
 20
44.982
 30
0.0
 11
225.658
 21
44.982
 31
0.0
  0
LINE
  8
0
 62
     0
 10
225.658
 20
44.982
 30
0.0
 11
225.658
 21
41.8828
 31
0.0
  0
LINE
  8
0
 62
     0
 10
225.658
 20
41.8828
 30
0.0
 11
226.457
 21
41.8828
 31
0.0
  0
LINE
  8
0
 62
     0
 10
226.457
 20
41.8828
 30
0.0
 11
226.457
 21
40.8824
 31
0.0
  0
LINE
  8
0
 62
     0
 10
226.457
 20
40.8824
 30
0.0
 11
240.458
 21
40.8824
 31
0.0
  0
LINE
  8
0
 62
     0
 10
240.458
 20
40.8824
 30
0.0
 11
240.458
 21
41.8828
 31
0.0
  0
LINE
  8
0
 62
     0
 10
240.458
 20
41.8828
 30
0.0
 11
241.257
 21
41.8828
 31
0.0
  0
LINE
  8
0
 62
     0
 10
241.257
 20
41.8828
 30
0.0
 11
241.257
 21
44.982
 31
0.0
  0
LINE
  8
0
 62
     0
 10
241.257
 20
44.982
 30
0.0
 11
240.458
 21
44.982
 31
0.0
  0
LINE
  8
0
 62
     0
 10
240.458
 20
44.982
 30
0.0
 11
240.458
 21
50.782
 31
0.0
  0
LINE
  8
0
 62
     0
 10
240.458
 20
50.782
 30
0.0
 11
241.257
 21
50.782
 31
0.0
  0
LINE
  8
0
 62
     0
 10
241.257
 20
50.782
 30
0.0
 11
241.257
 21
53.8826
 31
0.0
  0
LINE
  8
0
 62
     0
 10
241.257
 20
53.8826
 30
0.0
 11
240.458
 21
53.8826
 31
0.0
  0
LINE
  8
0
 62
     0
 10
240.458
 20
53.8826
 30
0.0
 11
240.458
 21
54.8816
 31
0.0
  0
LINE
  8
0
 62
     0
 10
240.458
 20
54.8816
 30
0.0
 11
226.457
 21
54.8816
 31
0.0
  0
LINE
  8
0
 62
     0
 10
288.371
 20
54.8816
 30
0.0
 11
288.371
 21
53.8826
 31
0.0
  0
LINE
  8
0
 62
     0
 10
288.371
 20
53.8826
 30
0.0
 11
287.57
 21
53.8826
 31
0.0
  0
LINE
  8
0
 62
     0
 10
287.57
 20
53.8826
 30
0.0
 11
287.57
 21
50.782
 31
0.0
  0
LINE
  8
0
 62
     0
 10
287.57
 20
50.782
 30
0.0
 11
288.371
 21
50.782
 31
0.0
  0
LINE
  8
0
 62
     0
 10
288.371
 20
50.782
 30
0.0
 11
288.371
 21
44.982
 31
0.0
  0
LINE
  8
0
 62
     0
 10
288.371
 20
44.982
 30
0.0
 11
287.57
 21
44.982
 31
0.0
  0
LINE
  8
0
 62
     0
 10
287.57
 20
44.982
 30
0.0
 11
287.57
 21
41.8828
 31
0.0
  0
LINE
  8
0
 62
     0
 10
287.57
 20
41.8828
 30
0.0
 11
288.371
 21
41.8828
 31
0.0
  0
LINE
  8
0
 62
     0
 10
288.371
 20
41.8828
 30
0.0
 11
288.371
 21
40.8824
 31
0.0
  0
LINE
  8
0
 62
     0
 10
288.371
 20
40.8824
 30
0.0
 11
302.37
 21
40.8824
 31
0.0
  0
LINE
  8
0
 62
     0
 10
302.37
 20
40.8824
 30
0.0
 11
302.37
 21
41.8828
 31
0.0
  0
LINE
  8
0
 62
     0
 10
302.37
 20
41.8828
 30
0.0
 11
303.171
 21
41.8828
 31
0.0
  0
LINE
  8
0
 62
     0
 10
303.171
 20
41.8828
 30
0.0
 11
303.171
 21
44.982
 31
0.0
  0
LINE
  8
0
 62
     0
 10
303.171
 20
44.982
 30
0.0
 11
302.37
 21
44.982
 31
0.0
  0
LINE
  8
0
 62
     0
 10
302.37
 20
44.982
 30
0.0
 11
302.37
 21
50.782
 31
0.0
  0
LINE
  8
0
 62
     0
 10
302.37
 20
50.782
 30
0.0
 11
303.171
 21
50.782
 31
0.0
  0
LINE
  8
0
 62
     0
 10
303.171
 20
50.782
 30
0.0
 11
303.171
 21
53.8826
 31
0.0
  0
LINE
  8
0
 62
     0
 10
303.171
 20
53.8826
 30
0.0
 11
302.37
 21
53.8826
 31
0.0
  0
LINE
  8
0
 62
     0
 10
302.37
 20
53.8826
 30
0.0
 11
302.37
 21
54.8816
 31
0.0
  0
LINE
  8
0
 62
     0
 10
302.37
 20
54.8816
 30
0.0
 11
288.371
 21
54.8816
 31
0.0
  0
LINE
  8
0
 62
     0
 10
7.38216
 20
73.9316
 30
0.0
 11
7.38216
 21
72.9326
 31
0.0
  0
LINE
  8
0
 62
     0
 10
7.38216
 20
72.9326
 30
0.0
 11
6.5829
 21
72.9326
 31
0.0
  0
LINE
  8
0
 62
     0
 10
6.5829
 20
72.9326
 30
0.0
 11
6.5829
 21
69.832
 31
0.0
  0
LINE
  8
0
 62
     0
 10
6.5829
 20
69.832
 30
0.0
 11
7.38216
 21
69.832
 31
0.0
  0
LINE
  8
0
 62
     0
 10
7.38216
 20
69.832
 30
0.0
 11
7.38216
 21
64.032
 31
0.0
  0
LINE
  8
0
 62
     0
 10
7.38216
 20
64.032
 30
0.0
 11
6.5829
 21
64.032
 31
0.0
  0
LINE
  8
0
 62
     0
 10
6.5829
 20
64.032
 30
0.0
 11
6.5829
 21
60.9328
 31
0.0
  0
LINE
  8
0
 62
     0
 10
6.5829
 20
60.9328
 30
0.0
 11
7.38216
 21
60.9328
 31
0.0
  0
LINE
  8
0
 62
     0
 10
7.38216
 20
60.9328
 30
0.0
 11
7.38216
 21
59.9324
 31
0.0
  0
LINE
  8
0
 62
     0
 10
7.38216
 20
59.9324
 30
0.0
 11
21.383
 21
59.9324
 31
0.0
  0
LINE
  8
0
 62
     0
 10
21.383
 20
59.9324
 30
0.0
 11
21.383
 21
60.9328
 31
0.0
  0
LINE
  8
0
 62
     0
 10
21.383
 20
60.9328
 30
0.0
 11
22.1823
 21
60.9328
 31
0.0
  0
LINE
  8
0
 62
     0
 10
22.1823
 20
60.9328
 30
0.0
 11
22.1823
 21
64.032
 31
0.0
  0
LINE
  8
0
 62
     0
 10
22.1823
 20
64.032
 30
0.0
 11
21.383
 21
64.032
 31
0.0
  0
LINE
  8
0
 62
     0
 10
21.383
 20
64.032
 30
0.0
 11
21.383
 21
69.832
 31
0.0
  0
LINE
  8
0
 62
     0
 10
21.383
 20
69.832
 30
0.0
 11
22.1823
 21
69.832
 31
0.0
  0
LINE
  8
0
 62
     0
 10
22.1823
 20
69.832
 30
0.0
 11
22.1823
 21
72.9326
 31
0.0
  0
LINE
  8
0
 62
     0
 10
22.1823
 20
72.9326
 30
0.0
 11
21.383
 21
72.9326
 31
0.0
  0
LINE
  8
0
 62
     0
 10
21.383
 20
72.9326
 30
0.0
 11
21.383
 21
73.9316
 31
0.0
  0
LINE
  8
0
 62
     0
 10
21.383
 20
73.9316
 30
0.0
 11
7.38216
 21
73.9316
 31
0.0
  0
LINE
  8
0
 62
     0
 10
31.196
 20
73.9316
 30
0.0
 11
31.196
 21
72.9326
 31
0.0
  0
LINE
  8
0
 62
     0
 10
31.196
 20
72.9326
 30
0.0
 11
30.3954
 21
72.9326
 31
0.0
  0
LINE
  8
0
 62
     0
 10
30.3954
 20
72.9326
 30
0.0
 11
30.3954
 21
69.832
 31
0.0
  0
LINE
  8
0
 62
     0
 10
30.3954
 20
69.832
 30
0.0
 11
31.196
 21
69.832
 31
0.0
  0
LINE
  8
0
 62
     0
 10
31.196
 20
69.832
 30
0.0
 11
31.196
 21
64.032
 31
0.0
  0
LINE
  8
0
 62
     0
 10
31.196
 20
64.032
 30
0.0
 11
30.3954
 21
64.032
 31
0.0
  0
LINE
  8
0
 62
     0
 10
30.3954
 20
64.032
 30
0.0
 11
30.3954
 21
60.9328
 31
0.0
  0
LINE
  8
0
 62
     0
 10
30.3954
 20
60.9328
 30
0.0
 11
31.196
 21
60.9328
 31
0.0
  0
LINE
  8
0
 62
     0
 10
31.196
 20
60.9328
 30
0.0
 11
31.196
 21
59.9324
 31
0.0
  0
LINE
  8
0
 62
     0
 10
31.196
 20
59.9324
 30
0.0
 11
45.1954
 21
59.9324
 31
0.0
  0
LINE
  8
0
 62
     0
 10
45.1954
 20
59.9324
 30
0.0
 11
45.1954
 21
60.9328
 31
0.0
  0
LINE
  8
0
 62
     0
 10
45.1954
 20
60.9328
 30
0.0
 11
45.9962
 21
60.9328
 31
0.0
  0
LINE
  8
0
 62
     0
 10
45.9962
 20
60.9328
 30
0.0
 11
45.9962
 21
64.032
 31
0.0
  0
LINE
  8
0
 62
     0
 10
45.9962
 20
64.032
 30
0.0
 11
45.1954
 21
64.032
 31
0.0
  0
LINE
  8
0
 62
     0
 10
45.1954
 20
64.032
 30
0.0
 11
45.1954
 21
69.832
 31
0.0
  0
LINE
  8
0
 62
     0
 10
45.1954
 20
69.832
 30
0.0
 11
45.9962
 21
69.832
 31
0.0
  0
LINE
  8
0
 62
     0
 10
45.9962
 20
69.832
 30
0.0
 11
45.9962
 21
72.9326
 31
0.0
  0
LINE
  8
0
 62
     0
 10
45.9962
 20
72.9326
 30
0.0
 11
45.1954
 21
72.9326
 31
0.0
  0
LINE
  8
0
 62
     0
 10
45.1954
 20
72.9326
 30
0.0
 11
45.1954
 21
73.9316
 31
0.0
  0
LINE
  8
0
 62
     0
 10
45.1954
 20
73.9316
 30
0.0
 11
31.196
 21
73.9316
 31
0.0
  0
LINE
  8
0
 62
     0
 10
50.2461
 20
73.9316
 30
0.0
 11
50.2461
 21
72.9326
 31
0.0
  0
LINE
  8
0
 62
     0
 10
50.2461
 20
72.9326
 30
0.0
 11
49.4453
 21
72.9326
 31
0.0
  0
LINE
  8
0
 62
     0
 10
49.4453
 20
72.9326
 30
0.0
 11
49.4453
 21
69.832
 31
0.0
  0
LINE
  8
0
 62
     0
 10
49.4453
 20
69.832
 30
0.0
 11
50.2461
 21
69.832
 31
0.0
  0
LINE
  8
0
 62
     0
 10
50.2461
 20
69.832
 30
0.0
 11
50.2461
 21
64.032
 31
0.0
  0
LINE
  8
0
 62
     0
 10
50.2461
 20
64.032
 30
0.0
 11
49.4453
 21
64.032
 31
0.0
  0
LINE
  8
0
 62
     0
 10
49.4453
 20
64.032
 30
0.0
 11
49.4453
 21
60.9328
 31
0.0
  0
LINE
  8
0
 62
     0
 10
49.4453
 20
60.9328
 30
0.0
 11
50.2461
 21
60.9328
 31
0.0
  0
LINE
  8
0
 62
     0
 10
50.2461
 20
60.9328
 30
0.0
 11
50.2461
 21
59.9324
 31
0.0
  0
LINE
  8
0
 62
     0
 10
50.2461
 20
59.9324
 30
0.0
 11
64.2454
 21
59.9324
 31
0.0
  0
LINE
  8
0
 62
     0
 10
64.2454
 20
59.9324
 30
0.0
 11
64.2454
 21
60.9328
 31
0.0
  0
LINE
  8
0
 62
     0
 10
64.2454
 20
60.9328
 30
0.0
 11
65.0462
 21
60.9328
 31
0.0
  0
LINE
  8
0
 62
     0
 10
65.0462
 20
60.9328
 30
0.0
 11
65.0462
 21
64.032
 31
0.0
  0
LINE
  8
0
 62
     0
 10
65.0462
 20
64.032
 30
0.0
 11
64.2454
 21
64.032
 31
0.0
  0
LINE
  8
0
 62
     0
 10
64.2454
 20
64.032
 30
0.0
 11
64.2454
 21
69.832
 31
0.0
  0
LINE
  8
0
 62
     0
 10
64.2454
 20
69.832
 30
0.0
 11
65.0462
 21
69.832
 31
0.0
  0
LINE
  8
0
 62
     0
 10
65.0462
 20
69.832
 30
0.0
 11
65.0462
 21
72.9326
 31
0.0
  0
LINE
  8
0
 62
     0
 10
65.0462
 20
72.9326
 30
0.0
 11
64.2454
 21
72.9326
 31
0.0
  0
LINE
  8
0
 62
     0
 10
64.2454
 20
72.9326
 30
0.0
 11
64.2454
 21
73.9316
 31
0.0
  0
LINE
  8
0
 62
     0
 10
64.2454
 20
73.9316
 30
0.0
 11
50.2461
 21
73.9316
 31
0.0
  0
LINE
  8
0
 62
     0
 10
69.2961
 20
73.9316
 30
0.0
 11
69.2961
 21
72.9326
 31
0.0
  0
LINE
  8
0
 62
     0
 10
69.2961
 20
72.9326
 30
0.0
 11
68.4953
 21
72.9326
 31
0.0
  0
LINE
  8
0
 62
     0
 10
68.4953
 20
72.9326
 30
0.0
 11
68.4953
 21
69.832
 31
0.0
  0
LINE
  8
0
 62
     0
 10
68.4953
 20
69.832
 30
0.0
 11
69.2961
 21
69.832
 31
0.0
  0
LINE
  8
0
 62
     0
 10
69.2961
 20
69.832
 30
0.0
 11
69.2961
 21
64.032
 31
0.0
  0
LINE
  8
0
 62
     0
 10
69.2961
 20
64.032
 30
0.0
 11
68.4953
 21
64.032
 31
0.0
  0
LINE
  8
0
 62
     0
 10
68.4953
 20
64.032
 30
0.0
 11
68.4953
 21
60.9328
 31
0.0
  0
LINE
  8
0
 62
     0
 10
68.4953
 20
60.9328
 30
0.0
 11
69.2961
 21
60.9328
 31
0.0
  0
LINE
  8
0
 62
     0
 10
69.2961
 20
60.9328
 30
0.0
 11
69.2961
 21
59.9324
 31
0.0
  0
LINE
  8
0
 62
     0
 10
69.2961
 20
59.9324
 30
0.0
 11
83.2954
 21
59.9324
 31
0.0
  0
LINE
  8
0
 62
     0
 10
83.2954
 20
59.9324
 30
0.0
 11
83.2954
 21
60.9328
 31
0.0
  0
LINE
  8
0
 62
     0
 10
83.2954
 20
60.9328
 30
0.0
 11
84.0962
 21
60.9328
 31
0.0
  0
LINE
  8
0
 62
     0
 10
84.0962
 20
60.9328
 30
0.0
 11
84.0962
 21
64.032
 31
0.0
  0
LINE
  8
0
 62
     0
 10
84.0962
 20
64.032
 30
0.0
 11
83.2954
 21
64.032
 31
0.0
  0
LINE
  8
0
 62
     0
 10
83.2954
 20
64.032
 30
0.0
 11
83.2954
 21
69.832
 31
0.0
  0
LINE
  8
0
 62
     0
 10
83.2954
 20
69.832
 30
0.0
 11
84.0962
 21
69.832
 31
0.0
  0
LINE
  8
0
 62
     0
 10
84.0962
 20
69.832
 30
0.0
 11
84.0962
 21
72.9326
 31
0.0
  0
LINE
  8
0
 62
     0
 10
84.0962
 20
72.9326
 30
0.0
 11
83.2954
 21
72.9326
 31
0.0
  0
LINE
  8
0
 62
     0
 10
83.2954
 20
72.9326
 30
0.0
 11
83.2954
 21
73.9316
 31
0.0
  0
LINE
  8
0
 62
     0
 10
83.2954
 20
73.9316
 30
0.0
 11
69.2961
 21
73.9316
 31
0.0
  0
LINE
  8
0
 62
     0
 10
88.3461
 20
73.9316
 30
0.0
 11
88.3461
 21
72.9326
 31
0.0
  0
LINE
  8
0
 62
     0
 10
88.3461
 20
72.9326
 30
0.0
 11
87.5453
 21
72.9326
 31
0.0
  0
LINE
  8
0
 62
     0
 10
87.5453
 20
72.9326
 30
0.0
 11
87.5453
 21
69.832
 31
0.0
  0
LINE
  8
0
 62
     0
 10
87.5453
 20
69.832
 30
0.0
 11
88.3461
 21
69.832
 31
0.0
  0
LINE
  8
0
 62
     0
 10
88.3461
 20
69.832
 30
0.0
 11
88.3461
 21
64.032
 31
0.0
  0
LINE
  8
0
 62
     0
 10
88.3461
 20
64.032
 30
0.0
 11
87.5453
 21
64.032
 31
0.0
  0
LINE
  8
0
 62
     0
 10
87.5453
 20
64.032
 30
0.0
 11
87.5453
 21
60.9328
 31
0.0
  0
LINE
  8
0
 62
     0
 10
87.5453
 20
60.9328
 30
0.0
 11
88.3461
 21
60.9328
 31
0.0
  0
LINE
  8
0
 62
     0
 10
88.3461
 20
60.9328
 30
0.0
 11
88.3461
 21
59.9324
 31
0.0
  0
LINE
  8
0
 62
     0
 10
88.3461
 20
59.9324
 30
0.0
 11
102.345
 21
59.9324
 31
0.0
  0
LINE
  8
0
 62
     0
 10
102.345
 20
59.9324
 30
0.0
 11
102.345
 21
60.9328
 31
0.0
  0
LINE
  8
0
 62
     0
 10
102.345
 20
60.9328
 30
0.0
 11
103.146
 21
60.9328
 31
0.0
  0
LINE
  8
0
 62
     0
 10
103.146
 20
60.9328
 30
0.0
 11
103.146
 21
64.032
 31
0.0
  0
LINE
  8
0
 62
     0
 10
103.146
 20
64.032
 30
0.0
 11
102.345
 21
64.032
 31
0.0
  0
LINE
  8
0
 62
     0
 10
102.345
 20
64.032
 30
0.0
 11
102.345
 21
69.832
 31
0.0
  0
LINE
  8
0
 62
     0
 10
102.345
 20
69.832
 30
0.0
 11
103.146
 21
69.832
 31
0.0
  0
LINE
  8
0
 62
     0
 10
103.146
 20
69.832
 30
0.0
 11
103.146
 21
72.9326
 31
0.0
  0
LINE
  8
0
 62
     0
 10
103.146
 20
72.9326
 30
0.0
 11
102.345
 21
72.9326
 31
0.0
  0
LINE
  8
0
 62
     0
 10
102.345
 20
72.9326
 30
0.0
 11
102.345
 21
73.9316
 31
0.0
  0
LINE
  8
0
 62
     0
 10
102.345
 20
73.9316
 30
0.0
 11
88.3461
 21
73.9316
 31
0.0
  0
LINE
  8
0
 62
     0
 10
107.396
 20
73.9316
 30
0.0
 11
107.396
 21
72.9326
 31
0.0
  0
LINE
  8
0
 62
     0
 10
107.396
 20
72.9326
 30
0.0
 11
106.595
 21
72.9326
 31
0.0
  0
LINE
  8
0
 62
     0
 10
106.595
 20
72.9326
 30
0.0
 11
106.595
 21
69.832
 31
0.0
  0
LINE
  8
0
 62
     0
 10
106.595
 20
69.832
 30
0.0
 11
107.396
 21
69.832
 31
0.0
  0
LINE
  8
0
 62
     0
 10
107.396
 20
69.832
 30
0.0
 11
107.396
 21
64.032
 31
0.0
  0
LINE
  8
0
 62
     0
 10
107.396
 20
64.032
 30
0.0
 11
106.595
 21
64.032
 31
0.0
  0
LINE
  8
0
 62
     0
 10
106.595
 20
64.032
 30
0.0
 11
106.595
 21
60.9328
 31
0.0
  0
LINE
  8
0
 62
     0
 10
106.595
 20
60.9328
 30
0.0
 11
107.396
 21
60.9328
 31
0.0
  0
LINE
  8
0
 62
     0
 10
107.396
 20
60.9328
 30
0.0
 11
107.396
 21
59.9324
 31
0.0
  0
LINE
  8
0
 62
     0
 10
107.396
 20
59.9324
 30
0.0
 11
121.395
 21
59.9324
 31
0.0
  0
LINE
  8
0
 62
     0
 10
121.395
 20
59.9324
 30
0.0
 11
121.395
 21
60.9328
 31
0.0
  0
LINE
  8
0
 62
     0
 10
121.395
 20
60.9328
 30
0.0
 11
122.196
 21
60.9328
 31
0.0
  0
LINE
  8
0
 62
     0
 10
122.196
 20
60.9328
 30
0.0
 11
122.196
 21
64.032
 31
0.0
  0
LINE
  8
0
 62
     0
 10
122.196
 20
64.032
 30
0.0
 11
121.395
 21
64.032
 31
0.0
  0
LINE
  8
0
 62
     0
 10
121.395
 20
64.032
 30
0.0
 11
121.395
 21
69.832
 31
0.0
  0
LINE
  8
0
 62
     0
 10
121.395
 20
69.832
 30
0.0
 11
122.196
 21
69.832
 31
0.0
  0
LINE
  8
0
 62
     0
 10
122.196
 20
69.832
 30
0.0
 11
122.196
 21
72.9326
 31
0.0
  0
LINE
  8
0
 62
     0
 10
122.196
 20
72.9326
 30
0.0
 11
121.395
 21
72.9326
 31
0.0
  0
LINE
  8
0
 62
     0
 10
121.395
 20
72.9326
 30
0.0
 11
121.395
 21
73.9316
 31
0.0
  0
LINE
  8
0
 62
     0
 10
121.395
 20
73.9316
 30
0.0
 11
107.396
 21
73.9316
 31
0.0
  0
LINE
  8
0
 62
     0
 10
126.446
 20
73.9316
 30
0.0
 11
126.446
 21
72.9326
 31
0.0
  0
LINE
  8
0
 62
     0
 10
126.446
 20
72.9326
 30
0.0
 11
125.644
 21
72.9326
 31
0.0
  0
LINE
  8
0
 62
     0
 10
125.644
 20
72.9326
 30
0.0
 11
125.644
 21
69.832
 31
0.0
  0
LINE
  8
0
 62
     0
 10
125.644
 20
69.832
 30
0.0
 11
126.446
 21
69.832
 31
0.0
  0
LINE
  8
0
 62
     0
 10
126.446
 20
69.832
 30
0.0
 11
126.446
 21
64.032
 31
0.0
  0
LINE
  8
0
 62
     0
 10
126.446
 20
64.032
 30
0.0
 11
125.644
 21
64.032
 31
0.0
  0
LINE
  8
0
 62
     0
 10
125.644
 20
64.032
 30
0.0
 11
125.644
 21
60.9328
 31
0.0
  0
LINE
  8
0
 62
     0
 10
125.644
 20
60.9328
 30
0.0
 11
126.446
 21
60.9328
 31
0.0
  0
LINE
  8
0
 62
     0
 10
126.446
 20
60.9328
 30
0.0
 11
126.446
 21
59.9324
 31
0.0
  0
LINE
  8
0
 62
     0
 10
126.446
 20
59.9324
 30
0.0
 11
140.445
 21
59.9324
 31
0.0
  0
LINE
  8
0
 62
     0
 10
140.445
 20
59.9324
 30
0.0
 11
140.445
 21
60.9328
 31
0.0
  0
LINE
  8
0
 62
     0
 10
140.445
 20
60.9328
 30
0.0
 11
141.246
 21
60.9328
 31
0.0
  0
LINE
  8
0
 62
     0
 10
141.246
 20
60.9328
 30
0.0
 11
141.246
 21
64.032
 31
0.0
  0
LINE
  8
0
 62
     0
 10
141.246
 20
64.032
 30
0.0
 11
140.445
 21
64.032
 31
0.0
  0
LINE
  8
0
 62
     0
 10
140.445
 20
64.032
 30
0.0
 11
140.445
 21
69.832
 31
0.0
  0
LINE
  8
0
 62
     0
 10
140.445
 20
69.832
 30
0.0
 11
141.246
 21
69.832
 31
0.0
  0
LINE
  8
0
 62
     0
 10
141.246
 20
69.832
 30
0.0
 11
141.246
 21
72.9326
 31
0.0
  0
LINE
  8
0
 62
     0
 10
141.246
 20
72.9326
 30
0.0
 11
140.445
 21
72.9326
 31
0.0
  0
LINE
  8
0
 62
     0
 10
140.445
 20
72.9326
 30
0.0
 11
140.445
 21
73.9316
 31
0.0
  0
LINE
  8
0
 62
     0
 10
140.445
 20
73.9316
 30
0.0
 11
126.446
 21
73.9316
 31
0.0
  0
LINE
  8
0
 62
     0
 10
145.496
 20
73.9316
 30
0.0
 11
145.496
 21
72.9326
 31
0.0
  0
LINE
  8
0
 62
     0
 10
145.496
 20
72.9326
 30
0.0
 11
144.695
 21
72.9326
 31
0.0
  0
LINE
  8
0
 62
     0
 10
144.695
 20
72.9326
 30
0.0
 11
144.695
 21
69.832
 31
0.0
  0
LINE
  8
0
 62
     0
 10
144.695
 20
69.832
 30
0.0
 11
145.496
 21
69.832
 31
0.0
  0
LINE
  8
0
 62
     0
 10
145.496
 20
69.832
 30
0.0
 11
145.496
 21
64.032
 31
0.0
  0
LINE
  8
0
 62
     0
 10
145.496
 20
64.032
 30
0.0
 11
144.695
 21
64.032
 31
0.0
  0
LINE
  8
0
 62
     0
 10
144.695
 20
64.032
 30
0.0
 11
144.695
 21
60.9328
 31
0.0
  0
LINE
  8
0
 62
     0
 10
144.695
 20
60.9328
 30
0.0
 11
145.496
 21
60.9328
 31
0.0
  0
LINE
  8
0
 62
     0
 10
145.496
 20
60.9328
 30
0.0
 11
145.496
 21
59.9324
 31
0.0
  0
LINE
  8
0
 62
     0
 10
145.496
 20
59.9324
 30
0.0
 11
159.495
 21
59.9324
 31
0.0
  0
LINE
  8
0
 62
     0
 10
159.495
 20
59.9324
 30
0.0
 11
159.495
 21
60.9328
 31
0.0
  0
LINE
  8
0
 62
     0
 10
159.495
 20
60.9328
 30
0.0
 11
160.296
 21
60.9328
 31
0.0
  0
LINE
  8
0
 62
     0
 10
160.296
 20
60.9328
 30
0.0
 11
160.296
 21
64.032
 31
0.0
  0
LINE
  8
0
 62
     0
 10
160.296
 20
64.032
 30
0.0
 11
159.495
 21
64.032
 31
0.0
  0
LINE
  8
0
 62
     0
 10
159.495
 20
64.032
 30
0.0
 11
159.495
 21
69.832
 31
0.0
  0
LINE
  8
0
 62
     0
 10
159.495
 20
69.832
 30
0.0
 11
160.296
 21
69.832
 31
0.0
  0
LINE
  8
0
 62
     0
 10
160.296
 20
69.832
 30
0.0
 11
160.296
 21
72.9326
 31
0.0
  0
LINE
  8
0
 62
     0
 10
160.296
 20
72.9326
 30
0.0
 11
159.495
 21
72.9326
 31
0.0
  0
LINE
  8
0
 62
     0
 10
159.495
 20
72.9326
 30
0.0
 11
159.495
 21
73.9316
 31
0.0
  0
LINE
  8
0
 62
     0
 10
159.495
 20
73.9316
 30
0.0
 11
145.496
 21
73.9316
 31
0.0
  0
LINE
  8
0
 62
     0
 10
164.546
 20
73.9316
 30
0.0
 11
164.546
 21
72.9326
 31
0.0
  0
LINE
  8
0
 62
     0
 10
164.546
 20
72.9326
 30
0.0
 11
163.745
 21
72.9326
 31
0.0
  0
LINE
  8
0
 62
     0
 10
163.745
 20
72.9326
 30
0.0
 11
163.745
 21
69.832
 31
0.0
  0
LINE
  8
0
 62
     0
 10
163.745
 20
69.832
 30
0.0
 11
164.546
 21
69.832
 31
0.0
  0
LINE
  8
0
 62
     0
 10
164.546
 20
69.832
 30
0.0
 11
164.546
 21
64.032
 31
0.0
  0
LINE
  8
0
 62
     0
 10
164.546
 20
64.032
 30
0.0
 11
163.745
 21
64.032
 31
0.0
  0
LINE
  8
0
 62
     0
 10
163.745
 20
64.032
 30
0.0
 11
163.745
 21
60.9328
 31
0.0
  0
LINE
  8
0
 62
     0
 10
163.745
 20
60.9328
 30
0.0
 11
164.546
 21
60.9328
 31
0.0
  0
LINE
  8
0
 62
     0
 10
164.546
 20
60.9328
 30
0.0
 11
164.546
 21
59.9324
 31
0.0
  0
LINE
  8
0
 62
     0
 10
164.546
 20
59.9324
 30
0.0
 11
178.545
 21
59.9324
 31
0.0
  0
LINE
  8
0
 62
     0
 10
178.545
 20
59.9324
 30
0.0
 11
178.545
 21
60.9328
 31
0.0
  0
LINE
  8
0
 62
     0
 10
178.545
 20
60.9328
 30
0.0
 11
179.346
 21
60.9328
 31
0.0
  0
LINE
  8
0
 62
     0
 10
179.346
 20
60.9328
 30
0.0
 11
179.346
 21
64.032
 31
0.0
  0
LINE
  8
0
 62
     0
 10
179.346
 20
64.032
 30
0.0
 11
178.545
 21
64.032
 31
0.0
  0
LINE
  8
0
 62
     0
 10
178.545
 20
64.032
 30
0.0
 11
178.545
 21
69.832
 31
0.0
  0
LINE
  8
0
 62
     0
 10
178.545
 20
69.832
 30
0.0
 11
179.346
 21
69.832
 31
0.0
  0
LINE
  8
0
 62
     0
 10
179.346
 20
69.832
 30
0.0
 11
179.346
 21
72.9326
 31
0.0
  0
LINE
  8
0
 62
     0
 10
179.346
 20
72.9326
 30
0.0
 11
178.545
 21
72.9326
 31
0.0
  0
LINE
  8
0
 62
     0
 10
178.545
 20
72.9326
 30
0.0
 11
178.545
 21
73.9316
 31
0.0
  0
LINE
  8
0
 62
     0
 10
178.545
 20
73.9316
 30
0.0
 11
164.546
 21
73.9316
 31
0.0
  0
LINE
  8
0
 62
     0
 10
183.596
 20
73.9316
 30
0.0
 11
183.596
 21
72.9326
 31
0.0
  0
LINE
  8
0
 62
     0
 10
183.596
 20
72.9326
 30
0.0
 11
182.795
 21
72.9326
 31
0.0
  0
LINE
  8
0
 62
     0
 10
182.795
 20
72.9326
 30
0.0
 11
182.795
 21
69.832
 31
0.0
  0
LINE
  8
0
 62
     0
 10
182.795
 20
69.832
 30
0.0
 11
183.596
 21
69.832
 31
0.0
  0
LINE
  8
0
 62
     0
 10
183.596
 20
69.832
 30
0.0
 11
183.596
 21
64.032
 31
0.0
  0
LINE
  8
0
 62
     0
 10
183.596
 20
64.032
 30
0.0
 11
182.795
 21
64.032
 31
0.0
  0
LINE
  8
0
 62
     0
 10
182.795
 20
64.032
 30
0.0
 11
182.795
 21
60.9328
 31
0.0
  0
LINE
  8
0
 62
     0
 10
182.795
 20
60.9328
 30
0.0
 11
183.596
 21
60.9328
 31
0.0
  0
LINE
  8
0
 62
     0
 10
183.596
 20
60.9328
 30
0.0
 11
183.596
 21
59.9324
 31
0.0
  0
LINE
  8
0
 62
     0
 10
183.596
 20
59.9324
 30
0.0
 11
197.595
 21
59.9324
 31
0.0
  0
LINE
  8
0
 62
     0
 10
197.595
 20
59.9324
 30
0.0
 11
197.595
 21
60.9328
 31
0.0
  0
LINE
  8
0
 62
     0
 10
197.595
 20
60.9328
 30
0.0
 11
198.396
 21
60.9328
 31
0.0
  0
LINE
  8
0
 62
     0
 10
198.396
 20
60.9328
 30
0.0
 11
198.396
 21
64.032
 31
0.0
  0
LINE
  8
0
 62
     0
 10
198.396
 20
64.032
 30
0.0
 11
197.595
 21
64.032
 31
0.0
  0
LINE
  8
0
 62
     0
 10
197.595
 20
64.032
 30
0.0
 11
197.595
 21
69.832
 31
0.0
  0
LINE
  8
0
 62
     0
 10
197.595
 20
69.832
 30
0.0
 11
198.396
 21
69.832
 31
0.0
  0
LINE
  8
0
 62
     0
 10
198.396
 20
69.832
 30
0.0
 11
198.396
 21
72.9326
 31
0.0
  0
LINE
  8
0
 62
     0
 10
198.396
 20
72.9326
 30
0.0
 11
197.595
 21
72.9326
 31
0.0
  0
LINE
  8
0
 62
     0
 10
197.595
 20
72.9326
 30
0.0
 11
197.595
 21
73.9316
 31
0.0
  0
LINE
  8
0
 62
     0
 10
197.595
 20
73.9316
 30
0.0
 11
183.596
 21
73.9316
 31
0.0
  0
LINE
  8
0
 62
     0
 10
202.646
 20
73.9316
 30
0.0
 11
202.646
 21
72.9326
 31
0.0
  0
LINE
  8
0
 62
     0
 10
202.646
 20
72.9326
 30
0.0
 11
201.845
 21
72.9326
 31
0.0
  0
LINE
  8
0
 62
     0
 10
201.845
 20
72.9326
 30
0.0
 11
201.845
 21
69.832
 31
0.0
  0
LINE
  8
0
 62
     0
 10
201.845
 20
69.832
 30
0.0
 11
202.646
 21
69.832
 31
0.0
  0
LINE
  8
0
 62
     0
 10
202.646
 20
69.832
 30
0.0
 11
202.646
 21
64.032
 31
0.0
  0
LINE
  8
0
 62
     0
 10
202.646
 20
64.032
 30
0.0
 11
201.845
 21
64.032
 31
0.0
  0
LINE
  8
0
 62
     0
 10
201.845
 20
64.032
 30
0.0
 11
201.845
 21
60.9328
 31
0.0
  0
LINE
  8
0
 62
     0
 10
201.845
 20
60.9328
 30
0.0
 11
202.646
 21
60.9328
 31
0.0
  0
LINE
  8
0
 62
     0
 10
202.646
 20
60.9328
 30
0.0
 11
202.646
 21
59.9324
 31
0.0
  0
LINE
  8
0
 62
     0
 10
202.646
 20
59.9324
 30
0.0
 11
216.645
 21
59.9324
 31
0.0
  0
LINE
  8
0
 62
     0
 10
216.645
 20
59.9324
 30
0.0
 11
216.645
 21
60.9328
 31
0.0
  0
LINE
  8
0
 62
     0
 10
216.645
 20
60.9328
 30
0.0
 11
217.446
 21
60.9328
 31
0.0
  0
LINE
  8
0
 62
     0
 10
217.446
 20
60.9328
 30
0.0
 11
217.446
 21
64.032
 31
0.0
  0
LINE
  8
0
 62
     0
 10
217.446
 20
64.032
 30
0.0
 11
216.645
 21
64.032
 31
0.0
  0
LINE
  8
0
 62
     0
 10
216.645
 20
64.032
 30
0.0
 11
216.645
 21
69.832
 31
0.0
  0
LINE
  8
0
 62
     0
 10
216.645
 20
69.832
 30
0.0
 11
217.446
 21
69.832
 31
0.0
  0
LINE
  8
0
 62
     0
 10
217.446
 20
69.832
 30
0.0
 11
217.446
 21
72.9326
 31
0.0
  0
LINE
  8
0
 62
     0
 10
217.446
 20
72.9326
 30
0.0
 11
216.645
 21
72.9326
 31
0.0
  0
LINE
  8
0
 62
     0
 10
216.645
 20
72.9326
 30
0.0
 11
216.645
 21
73.9316
 31
0.0
  0
LINE
  8
0
 62
     0
 10
216.645
 20
73.9316
 30
0.0
 11
202.646
 21
73.9316
 31
0.0
  0
LINE
  8
0
 62
     0
 10
221.696
 20
73.9316
 30
0.0
 11
221.696
 21
72.9326
 31
0.0
  0
LINE
  8
0
 62
     0
 10
221.696
 20
72.9326
 30
0.0
 11
220.895
 21
72.9326
 31
0.0
  0
LINE
  8
0
 62
     0
 10
220.895
 20
72.9326
 30
0.0
 11
220.895
 21
69.832
 31
0.0
  0
LINE
  8
0
 62
     0
 10
220.895
 20
69.832
 30
0.0
 11
221.696
 21
69.832
 31
0.0
  0
LINE
  8
0
 62
     0
 10
221.696
 20
69.832
 30
0.0
 11
221.696
 21
64.032
 31
0.0
  0
LINE
  8
0
 62
     0
 10
221.696
 20
64.032
 30
0.0
 11
220.895
 21
64.032
 31
0.0
  0
LINE
  8
0
 62
     0
 10
220.895
 20
64.032
 30
0.0
 11
220.895
 21
60.9328
 31
0.0
  0
LINE
  8
0
 62
     0
 10
220.895
 20
60.9328
 30
0.0
 11
221.696
 21
60.9328
 31
0.0
  0
LINE
  8
0
 62
     0
 10
221.696
 20
60.9328
 30
0.0
 11
221.696
 21
59.9324
 31
0.0
  0
LINE
  8
0
 62
     0
 10
221.696
 20
59.9324
 30
0.0
 11
235.695
 21
59.9324
 31
0.0
  0
LINE
  8
0
 62
     0
 10
235.695
 20
59.9324
 30
0.0
 11
235.695
 21
60.9328
 31
0.0
  0
LINE
  8
0
 62
     0
 10
235.695
 20
60.9328
 30
0.0
 11
236.496
 21
60.9328
 31
0.0
  0
LINE
  8
0
 62
     0
 10
236.496
 20
60.9328
 30
0.0
 11
236.496
 21
64.032
 31
0.0
  0
LINE
  8
0
 62
     0
 10
236.496
 20
64.032
 30
0.0
 11
235.695
 21
64.032
 31
0.0
  0
LINE
  8
0
 62
     0
 10
235.695
 20
64.032
 30
0.0
 11
235.695
 21
69.832
 31
0.0
  0
LINE
  8
0
 62
     0
 10
235.695
 20
69.832
 30
0.0
 11
236.496
 21
69.832
 31
0.0
  0
LINE
  8
0
 62
     0
 10
236.496
 20
69.832
 30
0.0
 11
236.496
 21
72.9326
 31
0.0
  0
LINE
  8
0
 62
     0
 10
236.496
 20
72.9326
 30
0.0
 11
235.695
 21
72.9326
 31
0.0
  0
LINE
  8
0
 62
     0
 10
235.695
 20
72.9326
 30
0.0
 11
235.695
 21
73.9316
 31
0.0
  0
LINE
  8
0
 62
     0
 10
235.695
 20
73.9316
 30
0.0
 11
221.696
 21
73.9316
 31
0.0
  0
LINE
  8
0
 62
     0
 10
240.746
 20
73.9316
 30
0.0
 11
240.746
 21
72.9326
 31
0.0
  0
LINE
  8
0
 62
     0
 10
240.746
 20
72.9326
 30
0.0
 11
239.945
 21
72.9326
 31
0.0
  0
LINE
  8
0
 62
     0
 10
239.945
 20
72.9326
 30
0.0
 11
239.945
 21
69.832
 31
0.0
  0
LINE
  8
0
 62
     0
 10
239.945
 20
69.832
 30
0.0
 11
240.746
 21
69.832
 31
0.0
  0
LINE
  8
0
 62
     0
 10
240.746
 20
69.832
 30
0.0
 11
240.746
 21
64.032
 31
0.0
  0
LINE
  8
0
 62
     0
 10
240.746
 20
64.032
 30
0.0
 11
239.945
 21
64.032
 31
0.0
  0
LINE
  8
0
 62
     0
 10
239.945
 20
64.032
 30
0.0
 11
239.945
 21
60.9328
 31
0.0
  0
LINE
  8
0
 62
     0
 10
239.945
 20
60.9328
 30
0.0
 11
240.746
 21
60.9328
 31
0.0
  0
LINE
  8
0
 62
     0
 10
240.746
 20
60.9328
 30
0.0
 11
240.746
 21
59.9324
 31
0.0
  0
LINE
  8
0
 62
     0
 10
240.746
 20
59.9324
 30
0.0
 11
254.744
 21
59.9324
 31
0.0
  0
LINE
  8
0
 62
     0
 10
254.744
 20
59.9324
 30
0.0
 11
254.744
 21
60.9328
 31
0.0
  0
LINE
  8
0
 62
     0
 10
254.744
 20
60.9328
 30
0.0
 11
255.546
 21
60.9328
 31
0.0
  0
LINE
  8
0
 62
     0
 10
255.546
 20
60.9328
 30
0.0
 11
255.546
 21
64.032
 31
0.0
  0
LINE
  8
0
 62
     0
 10
255.546
 20
64.032
 30
0.0
 11
254.744
 21
64.032
 31
0.0
  0
LINE
  8
0
 62
     0
 10
254.744
 20
64.032
 30
0.0
 11
254.744
 21
69.832
 31
0.0
  0
LINE
  8
0
 62
     0
 10
254.744
 20
69.832
 30
0.0
 11
255.546
 21
69.832
 31
0.0
  0
LINE
  8
0
 62
     0
 10
255.546
 20
69.832
 30
0.0
 11
255.546
 21
72.9326
 31
0.0
  0
LINE
  8
0
 62
     0
 10
255.546
 20
72.9326
 30
0.0
 11
254.744
 21
72.9326
 31
0.0
  0
LINE
  8
0
 62
     0
 10
254.744
 20
72.9326
 30
0.0
 11
254.744
 21
73.9316
 31
0.0
  0
LINE
  8
0
 62
     0
 10
254.744
 20
73.9316
 30
0.0
 11
240.746
 21
73.9316
 31
0.0
  0
LINE
  8
0
 62
     0
 10
264.557
 20
73.9316
 30
0.0
 11
264.557
 21
72.9326
 31
0.0
  0
LINE
  8
0
 62
     0
 10
264.557
 20
72.9326
 30
0.0
 11
263.758
 21
72.9326
 31
0.0
  0
LINE
  8
0
 62
     0
 10
263.758
 20
72.9326
 30
0.0
 11
263.758
 21
69.832
 31
0.0
  0
LINE
  8
0
 62
     0
 10
263.758
 20
69.832
 30
0.0
 11
264.557
 21
69.832
 31
0.0
  0
LINE
  8
0
 62
     0
 10
264.557
 20
69.832
 30
0.0
 11
264.557
 21
64.032
 31
0.0
  0
LINE
  8
0
 62
     0
 10
264.557
 20
64.032
 30
0.0
 11
263.758
 21
64.032
 31
0.0
  0
LINE
  8
0
 62
     0
 10
263.758
 20
64.032
 30
0.0
 11
263.758
 21
60.9328
 31
0.0
  0
LINE
  8
0
 62
     0
 10
263.758
 20
60.9328
 30
0.0
 11
264.557
 21
60.9328
 31
0.0
  0
LINE
  8
0
 62
     0
 10
264.557
 20
60.9328
 30
0.0
 11
264.557
 21
59.9324
 31
0.0
  0
LINE
  8
0
 62
     0
 10
264.557
 20
59.9324
 30
0.0
 11
278.558
 21
59.9324
 31
0.0
  0
LINE
  8
0
 62
     0
 10
278.558
 20
59.9324
 30
0.0
 11
278.558
 21
60.9328
 31
0.0
  0
LINE
  8
0
 62
     0
 10
278.558
 20
60.9328
 30
0.0
 11
279.357
 21
60.9328
 31
0.0
  0
LINE
  8
0
 62
     0
 10
279.357
 20
60.9328
 30
0.0
 11
279.357
 21
64.032
 31
0.0
  0
LINE
  8
0
 62
     0
 10
279.357
 20
64.032
 30
0.0
 11
278.558
 21
64.032
 31
0.0
  0
LINE
  8
0
 62
     0
 10
278.558
 20
64.032
 30
0.0
 11
278.558
 21
69.832
 31
0.0
  0
LINE
  8
0
 62
     0
 10
278.558
 20
69.832
 30
0.0
 11
279.357
 21
69.832
 31
0.0
  0
LINE
  8
0
 62
     0
 10
279.357
 20
69.832
 30
0.0
 11
279.357
 21
72.9326
 31
0.0
  0
LINE
  8
0
 62
     0
 10
279.357
 20
72.9326
 30
0.0
 11
278.558
 21
72.9326
 31
0.0
  0
LINE
  8
0
 62
     0
 10
278.558
 20
72.9326
 30
0.0
 11
278.558
 21
73.9316
 31
0.0
  0
LINE
  8
0
 62
     0
 10
278.558
 20
73.9316
 30
0.0
 11
264.557
 21
73.9316
 31
0.0
  0
LINE
  8
0
 62
     0
 10
288.371
 20
73.9316
 30
0.0
 11
288.371
 21
72.9326
 31
0.0
  0
LINE
  8
0
 62
     0
 10
288.371
 20
72.9326
 30
0.0
 11
287.57
 21
72.9326
 31
0.0
  0
LINE
  8
0
 62
     0
 10
287.57
 20
72.9326
 30
0.0
 11
287.57
 21
69.832
 31
0.0
  0
LINE
  8
0
 62
     0
 10
287.57
 20
69.832
 30
0.0
 11
288.371
 21
69.832
 31
0.0
  0
LINE
  8
0
 62
     0
 10
288.371
 20
69.832
 30
0.0
 11
288.371
 21
64.032
 31
0.0
  0
LINE
  8
0
 62
     0
 10
288.371
 20
64.032
 30
0.0
 11
287.57
 21
64.032
 31
0.0
  0
LINE
  8
0
 62
     0
 10
287.57
 20
64.032
 30
0.0
 11
287.57
 21
60.9328
 31
0.0
  0
LINE
  8
0
 62
     0
 10
287.57
 20
60.9328
 30
0.0
 11
288.371
 21
60.9328
 31
0.0
  0
LINE
  8
0
 62
     0
 10
288.371
 20
60.9328
 30
0.0
 11
288.371
 21
59.9324
 31
0.0
  0
LINE
  8
0
 62
     0
 10
288.371
 20
59.9324
 30
0.0
 11
302.37
 21
59.9324
 31
0.0
  0
LINE
  8
0
 62
     0
 10
302.37
 20
59.9324
 30
0.0
 11
302.37
 21
60.9328
 31
0.0
  0
LINE
  8
0
 62
     0
 10
302.37
 20
60.9328
 30
0.0
 11
303.171
 21
60.9328
 31
0.0
  0
LINE
  8
0
 62
     0
 10
303.171
 20
60.9328
 30
0.0
 11
303.171
 21
64.032
 31
0.0
  0
LINE
  8
0
 62
     0
 10
303.171
 20
64.032
 30
0.0
 11
302.37
 21
64.032
 31
0.0
  0
LINE
  8
0
 62
     0
 10
302.37
 20
64.032
 30
0.0
 11
302.37
 21
69.832
 31
0.0
  0
LINE
  8
0
 62
     0
 10
302.37
 20
69.832
 30
0.0
 11
303.171
 21
69.832
 31
0.0
  0
LINE
  8
0
 62
     0
 10
303.171
 20
69.832
 30
0.0
 11
303.171
 21
72.9326
 31
0.0
  0
LINE
  8
0
 62
     0
 10
303.171
 20
72.9326
 30
0.0
 11
302.37
 21
72.9326
 31
0.0
  0
LINE
  8
0
 62
     0
 10
302.37
 20
72.9326
 30
0.0
 11
302.37
 21
73.9316
 31
0.0
  0
LINE
  8
0
 62
     0
 10
302.37
 20
73.9316
 30
0.0
 11
288.371
 21
73.9316
 31
0.0
  0
LINE
  8
0
 62
     0
 10
259.796
 20
92.9816
 30
0.0
 11
259.796
 21
91.9826
 31
0.0
  0
LINE
  8
0
 62
     0
 10
259.796
 20
91.9826
 30
0.0
 11
258.995
 21
91.9826
 31
0.0
  0
LINE
  8
0
 62
     0
 10
258.995
 20
91.9826
 30
0.0
 11
258.995
 21
88.882
 31
0.0
  0
LINE
  8
0
 62
     0
 10
258.995
 20
88.882
 30
0.0
 11
259.796
 21
88.882
 31
0.0
  0
LINE
  8
0
 62
     0
 10
259.796
 20
88.882
 30
0.0
 11
259.796
 21
88.2826
 31
0.0
  0
LINE
  8
0
 62
     0
 10
259.796
 20
88.2826
 30
0.0
 11
258.27
 21
88.2826
 31
0.0
  0
LINE
  8
0
 62
     0
 10
258.27
 20
88.2826
 30
0.0
 11
258.27
 21
91.5127
 31
0.0
  0
LINE
  8
0
 62
     0
 10
258.27
 20
91.5127
 30
0.0
 11
251.521
 21
91.5127
 31
0.0
  0
LINE
  8
0
 62
     0
 10
251.521
 20
91.5127
 30
0.0
 11
251.521
 21
88.2826
 31
0.0
  0
LINE
  8
0
 62
     0
 10
251.521
 20
88.2826
 30
0.0
 11
250.696
 21
88.2826
 31
0.0
  0
LINE
  8
0
 62
     0
 10
250.696
 20
88.2826
 30
0.0
 11
250.696
 21
85.4826
 31
0.0
  0
LINE
  8
0
 62
     0
 10
250.696
 20
85.4826
 30
0.0
 11
251.521
 21
85.4826
 31
0.0
  0
LINE
  8
0
 62
     0
 10
251.521
 20
85.4826
 30
0.0
 11
251.521
 21
79.2124
 31
0.0
  0
LINE
  8
0
 62
     0
 10
251.521
 20
79.2124
 30
0.0
 11
253.245
 21
79.2124
 31
0.0
  0
LINE
  8
0
 62
     0
 10
253.245
 20
79.2124
 30
0.0
 11
253.245
 21
78.0122
 31
0.0
  0
LINE
  8
0
 62
     0
 10
253.245
 20
78.0122
 30
0.0
 11
256.545
 21
78.0122
 31
0.0
  0
LINE
  8
0
 62
     0
 10
256.545
 20
78.0122
 30
0.0
 11
256.545
 21
79.2124
 31
0.0
  0
LINE
  8
0
 62
     0
 10
256.545
 20
79.2124
 30
0.0
 11
258.27
 21
79.2124
 31
0.0
  0
LINE
  8
0
 62
     0
 10
258.27
 20
79.2124
 30
0.0
 11
258.27
 21
83.6828
 31
0.0
  0
LINE
  8
0
 62
     0
 10
258.27
 20
83.6828
 30
0.0
 11
259.796
 21
83.6828
 31
0.0
  0
LINE
  8
0
 62
     0
 10
259.796
 20
83.6828
 30
0.0
 11
259.796
 21
83.082
 31
0.0
  0
LINE
  8
0
 62
     0
 10
259.796
 20
83.082
 30
0.0
 11
258.995
 21
83.082
 31
0.0
  0
LINE
  8
0
 62
     0
 10
258.995
 20
83.082
 30
0.0
 11
258.995
 21
79.9828
 31
0.0
  0
LINE
  8
0
 62
     0
 10
258.995
 20
79.9828
 30
0.0
 11
259.796
 21
79.9828
 31
0.0
  0
LINE
  8
0
 62
     0
 10
259.796
 20
79.9828
 30
0.0
 11
259.796
 21
78.9824
 31
0.0
  0
LINE
  8
0
 62
     0
 10
259.796
 20
78.9824
 30
0.0
 11
273.795
 21
78.9824
 31
0.0
  0
LINE
  8
0
 62
     0
 10
273.795
 20
78.9824
 30
0.0
 11
273.795
 21
79.9828
 31
0.0
  0
LINE
  8
0
 62
     0
 10
273.795
 20
79.9828
 30
0.0
 11
274.596
 21
79.9828
 31
0.0
  0
LINE
  8
0
 62
     0
 10
274.596
 20
79.9828
 30
0.0
 11
274.596
 21
83.082
 31
0.0
  0
LINE
  8
0
 62
     0
 10
274.596
 20
83.082
 30
0.0
 11
273.795
 21
83.082
 31
0.0
  0
LINE
  8
0
 62
     0
 10
273.795
 20
83.082
 30
0.0
 11
273.795
 21
83.6828
 31
0.0
  0
LINE
  8
0
 62
     0
 10
273.795
 20
83.6828
 30
0.0
 11
275.321
 21
83.6828
 31
0.0
  0
LINE
  8
0
 62
     0
 10
275.321
 20
83.6828
 30
0.0
 11
275.321
 21
79.2124
 31
0.0
  0
LINE
  8
0
 62
     0
 10
275.321
 20
79.2124
 30
0.0
 11
277.045
 21
79.2124
 31
0.0
  0
LINE
  8
0
 62
     0
 10
277.045
 20
79.2124
 30
0.0
 11
277.045
 21
78.0122
 31
0.0
  0
LINE
  8
0
 62
     0
 10
277.045
 20
78.0122
 30
0.0
 11
280.345
 21
78.0122
 31
0.0
  0
LINE
  8
0
 62
     0
 10
280.345
 20
78.0122
 30
0.0
 11
280.345
 21
79.2124
 31
0.0
  0
LINE
  8
0
 62
     0
 10
280.345
 20
79.2124
 30
0.0
 11
282.071
 21
79.2124
 31
0.0
  0
LINE
  8
0
 62
     0
 10
282.071
 20
79.2124
 30
0.0
 11
282.071
 21
85.4826
 31
0.0
  0
LINE
  8
0
 62
     0
 10
282.071
 20
85.4826
 30
0.0
 11
282.896
 21
85.4826
 31
0.0
  0
LINE
  8
0
 62
     0
 10
282.896
 20
85.4826
 30
0.0
 11
282.896
 21
88.2826
 31
0.0
  0
LINE
  8
0
 62
     0
 10
282.896
 20
88.2826
 30
0.0
 11
282.071
 21
88.2826
 31
0.0
  0
LINE
  8
0
 62
     0
 10
282.071
 20
88.2826
 30
0.0
 11
282.071
 21
91.5127
 31
0.0
  0
LINE
  8
0
 62
     0
 10
282.071
 20
91.5127
 30
0.0
 11
275.321
 21
91.5127
 31
0.0
  0
LINE
  8
0
 62
     0
 10
275.321
 20
91.5127
 30
0.0
 11
275.321
 21
88.2826
 31
0.0
  0
LINE
  8
0
 62
     0
 10
275.321
 20
88.2826
 30
0.0
 11
273.795
 21
88.2826
 31
0.0
  0
LINE
  8
0
 62
     0
 10
273.795
 20
88.2826
 30
0.0
 11
273.795
 21
88.882
 31
0.0
  0
LINE
  8
0
 62
     0
 10
273.795
 20
88.882
 30
0.0
 11
274.596
 21
88.882
 31
0.0
  0
LINE
  8
0
 62
     0
 10
274.596
 20
88.882
 30
0.0
 11
274.596
 21
91.9826
 31
0.0
  0
LINE
  8
0
 62
     0
 10
274.596
 20
91.9826
 30
0.0
 11
273.795
 21
91.9826
 31
0.0
  0
LINE
  8
0
 62
     0
 10
273.795
 20
91.9826
 30
0.0
 11
273.795
 21
92.9816
 31
0.0
  0
LINE
  8
0
 62
     0
 10
273.795
 20
92.9816
 30
0.0
 11
259.796
 21
92.9816
 31
0.0
  0
LINE
  8
0
 62
     0
 10
2.62103
 20
92.9816
 30
0.0
 11
2.62103
 21
91.9826
 31
0.0
  0
LINE
  8
0
 62
     0
 10
2.62103
 20
91.9826
 30
0.0
 11
1.82039
 21
91.9826
 31
0.0
  0
LINE
  8
0
 62
     0
 10
1.82039
 20
91.9826
 30
0.0
 11
1.82039
 21
88.882
 31
0.0
  0
LINE
  8
0
 62
     0
 10
1.82039
 20
88.882
 30
0.0
 11
2.62103
 21
88.882
 31
0.0
  0
LINE
  8
0
 62
     0
 10
2.62103
 20
88.882
 30
0.0
 11
2.62103
 21
83.082
 31
0.0
  0
LINE
  8
0
 62
     0
 10
2.62103
 20
83.082
 30
0.0
 11
1.82039
 21
83.082
 31
0.0
  0
LINE
  8
0
 62
     0
 10
1.82039
 20
83.082
 30
0.0
 11
1.82039
 21
79.9828
 31
0.0
  0
LINE
  8
0
 62
     0
 10
1.82039
 20
79.9828
 30
0.0
 11
2.62103
 21
79.9828
 31
0.0
  0
LINE
  8
0
 62
     0
 10
2.62103
 20
79.9828
 30
0.0
 11
2.62103
 21
78.9824
 31
0.0
  0
LINE
  8
0
 62
     0
 10
2.62103
 20
78.9824
 30
0.0
 11
16.6205
 21
78.9824
 31
0.0
  0
LINE
  8
0
 62
     0
 10
16.6205
 20
78.9824
 30
0.0
 11
16.6205
 21
79.9828
 31
0.0
  0
LINE
  8
0
 62
     0
 10
16.6205
 20
79.9828
 30
0.0
 11
17.4212
 21
79.9828
 31
0.0
  0
LINE
  8
0
 62
     0
 10
17.4212
 20
79.9828
 30
0.0
 11
17.4212
 21
83.082
 31
0.0
  0
LINE
  8
0
 62
     0
 10
17.4212
 20
83.082
 30
0.0
 11
16.6205
 21
83.082
 31
0.0
  0
LINE
  8
0
 62
     0
 10
16.6205
 20
83.082
 30
0.0
 11
16.6205
 21
88.882
 31
0.0
  0
LINE
  8
0
 62
     0
 10
16.6205
 20
88.882
 30
0.0
 11
17.4212
 21
88.882
 31
0.0
  0
LINE
  8
0
 62
     0
 10
17.4212
 20
88.882
 30
0.0
 11
17.4212
 21
91.9826
 31
0.0
  0
LINE
  8
0
 62
     0
 10
17.4212
 20
91.9826
 30
0.0
 11
16.6205
 21
91.9826
 31
0.0
  0
LINE
  8
0
 62
     0
 10
16.6205
 20
91.9826
 30
0.0
 11
16.6205
 21
92.9816
 31
0.0
  0
LINE
  8
0
 62
     0
 10
16.6205
 20
92.9816
 30
0.0
 11
2.62103
 21
92.9816
 31
0.0
  0
LINE
  8
0
 62
     0
 10
21.671
 20
92.9816
 30
0.0
 11
21.671
 21
91.9826
 31
0.0
  0
LINE
  8
0
 62
     0
 10
21.671
 20
91.9826
 30
0.0
 11
20.8704
 21
91.9826
 31
0.0
  0
LINE
  8
0
 62
     0
 10
20.8704
 20
91.9826
 30
0.0
 11
20.8704
 21
88.882
 31
0.0
  0
LINE
  8
0
 62
     0
 10
20.8704
 20
88.882
 30
0.0
 11
21.671
 21
88.882
 31
0.0
  0
LINE
  8
0
 62
     0
 10
21.671
 20
88.882
 30
0.0
 11
21.671
 21
83.082
 31
0.0
  0
LINE
  8
0
 62
     0
 10
21.671
 20
83.082
 30
0.0
 11
20.8704
 21
83.082
 31
0.0
  0
LINE
  8
0
 62
     0
 10
20.8704
 20
83.082
 30
0.0
 11
20.8704
 21
79.9828
 31
0.0
  0
LINE
  8
0
 62
     0
 10
20.8704
 20
79.9828
 30
0.0
 11
21.671
 21
79.9828
 31
0.0
  0
LINE
  8
0
 62
     0
 10
21.671
 20
79.9828
 30
0.0
 11
21.671
 21
78.9824
 31
0.0
  0
LINE
  8
0
 62
     0
 10
21.671
 20
78.9824
 30
0.0
 11
35.6704
 21
78.9824
 31
0.0
  0
LINE
  8
0
 62
     0
 10
35.6704
 20
78.9824
 30
0.0
 11
35.6704
 21
79.9828
 31
0.0
  0
LINE
  8
0
 62
     0
 10
35.6704
 20
79.9828
 30
0.0
 11
36.4712
 21
79.9828
 31
0.0
  0
LINE
  8
0
 62
     0
 10
36.4712
 20
79.9828
 30
0.0
 11
36.4712
 21
83.082
 31
0.0
  0
LINE
  8
0
 62
     0
 10
36.4712
 20
83.082
 30
0.0
 11
35.6704
 21
83.082
 31
0.0
  0
LINE
  8
0
 62
     0
 10
35.6704
 20
83.082
 30
0.0
 11
35.6704
 21
88.882
 31
0.0
  0
LINE
  8
0
 62
     0
 10
35.6704
 20
88.882
 30
0.0
 11
36.4712
 21
88.882
 31
0.0
  0
LINE
  8
0
 62
     0
 10
36.4712
 20
88.882
 30
0.0
 11
36.4712
 21
91.9826
 31
0.0
  0
LINE
  8
0
 62
     0
 10
36.4712
 20
91.9826
 30
0.0
 11
35.6704
 21
91.9826
 31
0.0
  0
LINE
  8
0
 62
     0
 10
35.6704
 20
91.9826
 30
0.0
 11
35.6704
 21
92.9816
 31
0.0
  0
LINE
  8
0
 62
     0
 10
35.6704
 20
92.9816
 30
0.0
 11
21.671
 21
92.9816
 31
0.0
  0
LINE
  8
0
 62
     0
 10
40.7211
 20
92.9816
 30
0.0
 11
40.7211
 21
91.9826
 31
0.0
  0
LINE
  8
0
 62
     0
 10
40.7211
 20
91.9826
 30
0.0
 11
39.9203
 21
91.9826
 31
0.0
  0
LINE
  8
0
 62
     0
 10
39.9203
 20
91.9826
 30
0.0
 11
39.9203
 21
88.882
 31
0.0
  0
LINE
  8
0
 62
     0
 10
39.9203
 20
88.882
 30
0.0
 11
40.7211
 21
88.882
 31
0.0
  0
LINE
  8
0
 62
     0
 10
40.7211
 20
88.882
 30
0.0
 11
40.7211
 21
83.082
 31
0.0
  0
LINE
  8
0
 62
     0
 10
40.7211
 20
83.082
 30
0.0
 11
39.9203
 21
83.082
 31
0.0
  0
LINE
  8
0
 62
     0
 10
39.9203
 20
83.082
 30
0.0
 11
39.9203
 21
79.9828
 31
0.0
  0
LINE
  8
0
 62
     0
 10
39.9203
 20
79.9828
 30
0.0
 11
40.7211
 21
79.9828
 31
0.0
  0
LINE
  8
0
 62
     0
 10
40.7211
 20
79.9828
 30
0.0
 11
40.7211
 21
78.9824
 31
0.0
  0
LINE
  8
0
 62
     0
 10
40.7211
 20
78.9824
 30
0.0
 11
54.7204
 21
78.9824
 31
0.0
  0
LINE
  8
0
 62
     0
 10
54.7204
 20
78.9824
 30
0.0
 11
54.7204
 21
79.9828
 31
0.0
  0
LINE
  8
0
 62
     0
 10
54.7204
 20
79.9828
 30
0.0
 11
55.5212
 21
79.9828
 31
0.0
  0
LINE
  8
0
 62
     0
 10
55.5212
 20
79.9828
 30
0.0
 11
55.5212
 21
83.082
 31
0.0
  0
LINE
  8
0
 62
     0
 10
55.5212
 20
83.082
 30
0.0
 11
54.7204
 21
83.082
 31
0.0
  0
LINE
  8
0
 62
     0
 10
54.7204
 20
83.082
 30
0.0
 11
54.7204
 21
88.882
 31
0.0
  0
LINE
  8
0
 62
     0
 10
54.7204
 20
88.882
 30
0.0
 11
55.5212
 21
88.882
 31
0.0
  0
LINE
  8
0
 62
     0
 10
55.5212
 20
88.882
 30
0.0
 11
55.5212
 21
91.9826
 31
0.0
  0
LINE
  8
0
 62
     0
 10
55.5212
 20
91.9826
 30
0.0
 11
54.7204
 21
91.9826
 31
0.0
  0
LINE
  8
0
 62
     0
 10
54.7204
 20
91.9826
 30
0.0
 11
54.7204
 21
92.9816
 31
0.0
  0
LINE
  8
0
 62
     0
 10
54.7204
 20
92.9816
 30
0.0
 11
40.7211
 21
92.9816
 31
0.0
  0
LINE
  8
0
 62
     0
 10
59.7711
 20
92.9816
 30
0.0
 11
59.7711
 21
91.9826
 31
0.0
  0
LINE
  8
0
 62
     0
 10
59.7711
 20
91.9826
 30
0.0
 11
58.9703
 21
91.9826
 31
0.0
  0
LINE
  8
0
 62
     0
 10
58.9703
 20
91.9826
 30
0.0
 11
58.9703
 21
88.882
 31
0.0
  0
LINE
  8
0
 62
     0
 10
58.9703
 20
88.882
 30
0.0
 11
59.7711
 21
88.882
 31
0.0
  0
LINE
  8
0
 62
     0
 10
59.7711
 20
88.882
 30
0.0
 11
59.7711
 21
83.082
 31
0.0
  0
LINE
  8
0
 62
     0
 10
59.7711
 20
83.082
 30
0.0
 11
58.9703
 21
83.082
 31
0.0
  0
LINE
  8
0
 62
     0
 10
58.9703
 20
83.082
 30
0.0
 11
58.9703
 21
79.9828
 31
0.0
  0
LINE
  8
0
 62
     0
 10
58.9703
 20
79.9828
 30
0.0
 11
59.7711
 21
79.9828
 31
0.0
  0
LINE
  8
0
 62
     0
 10
59.7711
 20
79.9828
 30
0.0
 11
59.7711
 21
78.9824
 31
0.0
  0
LINE
  8
0
 62
     0
 10
59.7711
 20
78.9824
 30
0.0
 11
73.7704
 21
78.9824
 31
0.0
  0
LINE
  8
0
 62
     0
 10
73.7704
 20
78.9824
 30
0.0
 11
73.7704
 21
79.9828
 31
0.0
  0
LINE
  8
0
 62
     0
 10
73.7704
 20
79.9828
 30
0.0
 11
74.5712
 21
79.9828
 31
0.0
  0
LINE
  8
0
 62
     0
 10
74.5712
 20
79.9828
 30
0.0
 11
74.5712
 21
83.082
 31
0.0
  0
LINE
  8
0
 62
     0
 10
74.5712
 20
83.082
 30
0.0
 11
73.7704
 21
83.082
 31
0.0
  0
LINE
  8
0
 62
     0
 10
73.7704
 20
83.082
 30
0.0
 11
73.7704
 21
88.882
 31
0.0
  0
LINE
  8
0
 62
     0
 10
73.7704
 20
88.882
 30
0.0
 11
74.5712
 21
88.882
 31
0.0
  0
LINE
  8
0
 62
     0
 10
74.5712
 20
88.882
 30
0.0
 11
74.5712
 21
91.9826
 31
0.0
  0
LINE
  8
0
 62
     0
 10
74.5712
 20
91.9826
 30
0.0
 11
73.7704
 21
91.9826
 31
0.0
  0
LINE
  8
0
 62
     0
 10
73.7704
 20
91.9826
 30
0.0
 11
73.7704
 21
92.9816
 31
0.0
  0
LINE
  8
0
 62
     0
 10
73.7704
 20
92.9816
 30
0.0
 11
59.7711
 21
92.9816
 31
0.0
  0
LINE
  8
0
 62
     0
 10
78.8211
 20
92.9816
 30
0.0
 11
78.8211
 21
91.9826
 31
0.0
  0
LINE
  8
0
 62
     0
 10
78.8211
 20
91.9826
 30
0.0
 11
78.0203
 21
91.9826
 31
0.0
  0
LINE
  8
0
 62
     0
 10
78.0203
 20
91.9826
 30
0.0
 11
78.0203
 21
88.882
 31
0.0
  0
LINE
  8
0
 62
     0
 10
78.0203
 20
88.882
 30
0.0
 11
78.8211
 21
88.882
 31
0.0
  0
LINE
  8
0
 62
     0
 10
78.8211
 20
88.882
 30
0.0
 11
78.8211
 21
83.082
 31
0.0
  0
LINE
  8
0
 62
     0
 10
78.8211
 20
83.082
 30
0.0
 11
78.0203
 21
83.082
 31
0.0
  0
LINE
  8
0
 62
     0
 10
78.0203
 20
83.082
 30
0.0
 11
78.0203
 21
79.9828
 31
0.0
  0
LINE
  8
0
 62
     0
 10
78.0203
 20
79.9828
 30
0.0
 11
78.8211
 21
79.9828
 31
0.0
  0
LINE
  8
0
 62
     0
 10
78.8211
 20
79.9828
 30
0.0
 11
78.8211
 21
78.9824
 31
0.0
  0
LINE
  8
0
 62
     0
 10
78.8211
 20
78.9824
 30
0.0
 11
92.8204
 21
78.9824
 31
0.0
  0
LINE
  8
0
 62
     0
 10
92.8204
 20
78.9824
 30
0.0
 11
92.8204
 21
79.9828
 31
0.0
  0
LINE
  8
0
 62
     0
 10
92.8204
 20
79.9828
 30
0.0
 11
93.6198
 21
79.9828
 31
0.0
  0
LINE
  8
0
 62
     0
 10
93.6198
 20
79.9828
 30
0.0
 11
93.6198
 21
83.082
 31
0.0
  0
LINE
  8
0
 62
     0
 10
93.6198
 20
83.082
 30
0.0
 11
92.8204
 21
83.082
 31
0.0
  0
LINE
  8
0
 62
     0
 10
92.8204
 20
83.082
 30
0.0
 11
92.8204
 21
88.882
 31
0.0
  0
LINE
  8
0
 62
     0
 10
92.8204
 20
88.882
 30
0.0
 11
93.6198
 21
88.882
 31
0.0
  0
LINE
  8
0
 62
     0
 10
93.6198
 20
88.882
 30
0.0
 11
93.6198
 21
91.9826
 31
0.0
  0
LINE
  8
0
 62
     0
 10
93.6198
 20
91.9826
 30
0.0
 11
92.8204
 21
91.9826
 31
0.0
  0
LINE
  8
0
 62
     0
 10
92.8204
 20
91.9826
 30
0.0
 11
92.8204
 21
92.9816
 31
0.0
  0
LINE
  8
0
 62
     0
 10
92.8204
 20
92.9816
 30
0.0
 11
78.8211
 21
92.9816
 31
0.0
  0
LINE
  8
0
 62
     0
 10
97.8697
 20
92.9816
 30
0.0
 11
97.8697
 21
91.9826
 31
0.0
  0
LINE
  8
0
 62
     0
 10
97.8697
 20
91.9826
 30
0.0
 11
97.0703
 21
91.9826
 31
0.0
  0
LINE
  8
0
 62
     0
 10
97.0703
 20
91.9826
 30
0.0
 11
97.0703
 21
88.882
 31
0.0
  0
LINE
  8
0
 62
     0
 10
97.0703
 20
88.882
 30
0.0
 11
97.8697
 21
88.882
 31
0.0
  0
LINE
  8
0
 62
     0
 10
97.8697
 20
88.882
 30
0.0
 11
97.8697
 21
83.082
 31
0.0
  0
LINE
  8
0
 62
     0
 10
97.8697
 20
83.082
 30
0.0
 11
97.0703
 21
83.082
 31
0.0
  0
LINE
  8
0
 62
     0
 10
97.0703
 20
83.082
 30
0.0
 11
97.0703
 21
79.9828
 31
0.0
  0
LINE
  8
0
 62
     0
 10
97.0703
 20
79.9828
 30
0.0
 11
97.8697
 21
79.9828
 31
0.0
  0
LINE
  8
0
 62
     0
 10
97.8697
 20
79.9828
 30
0.0
 11
97.8697
 21
78.9824
 31
0.0
  0
LINE
  8
0
 62
     0
 10
97.8697
 20
78.9824
 30
0.0
 11
111.869
 21
78.9824
 31
0.0
  0
LINE
  8
0
 62
     0
 10
111.869
 20
78.9824
 30
0.0
 11
111.869
 21
79.9828
 31
0.0
  0
LINE
  8
0
 62
     0
 10
111.869
 20
79.9828
 30
0.0
 11
112.67
 21
79.9828
 31
0.0
  0
LINE
  8
0
 62
     0
 10
112.67
 20
79.9828
 30
0.0
 11
112.67
 21
83.082
 31
0.0
  0
LINE
  8
0
 62
     0
 10
112.67
 20
83.082
 30
0.0
 11
111.869
 21
83.082
 31
0.0
  0
LINE
  8
0
 62
     0
 10
111.869
 20
83.082
 30
0.0
 11
111.869
 21
88.882
 31
0.0
  0
LINE
  8
0
 62
     0
 10
111.869
 20
88.882
 30
0.0
 11
112.67
 21
88.882
 31
0.0
  0
LINE
  8
0
 62
     0
 10
112.67
 20
88.882
 30
0.0
 11
112.67
 21
91.9826
 31
0.0
  0
LINE
  8
0
 62
     0
 10
112.67
 20
91.9826
 30
0.0
 11
111.869
 21
91.9826
 31
0.0
  0
LINE
  8
0
 62
     0
 10
111.869
 20
91.9826
 30
0.0
 11
111.869
 21
92.9816
 31
0.0
  0
LINE
  8
0
 62
     0
 10
111.869
 20
92.9816
 30
0.0
 11
97.8697
 21
92.9816
 31
0.0
  0
LINE
  8
0
 62
     0
 10
116.92
 20
92.9816
 30
0.0
 11
116.92
 21
91.9826
 31
0.0
  0
LINE
  8
0
 62
     0
 10
116.92
 20
91.9826
 30
0.0
 11
116.119
 21
91.9826
 31
0.0
  0
LINE
  8
0
 62
     0
 10
116.119
 20
91.9826
 30
0.0
 11
116.119
 21
88.882
 31
0.0
  0
LINE
  8
0
 62
     0
 10
116.119
 20
88.882
 30
0.0
 11
116.92
 21
88.882
 31
0.0
  0
LINE
  8
0
 62
     0
 10
116.92
 20
88.882
 30
0.0
 11
116.92
 21
83.082
 31
0.0
  0
LINE
  8
0
 62
     0
 10
116.92
 20
83.082
 30
0.0
 11
116.119
 21
83.082
 31
0.0
  0
LINE
  8
0
 62
     0
 10
116.119
 20
83.082
 30
0.0
 11
116.119
 21
79.9828
 31
0.0
  0
LINE
  8
0
 62
     0
 10
116.119
 20
79.9828
 30
0.0
 11
116.92
 21
79.9828
 31
0.0
  0
LINE
  8
0
 62
     0
 10
116.92
 20
79.9828
 30
0.0
 11
116.92
 21
78.9824
 31
0.0
  0
LINE
  8
0
 62
     0
 10
116.92
 20
78.9824
 30
0.0
 11
130.92
 21
78.9824
 31
0.0
  0
LINE
  8
0
 62
     0
 10
130.92
 20
78.9824
 30
0.0
 11
130.92
 21
79.9828
 31
0.0
  0
LINE
  8
0
 62
     0
 10
130.92
 20
79.9828
 30
0.0
 11
131.721
 21
79.9828
 31
0.0
  0
LINE
  8
0
 62
     0
 10
131.721
 20
79.9828
 30
0.0
 11
131.721
 21
83.082
 31
0.0
  0
LINE
  8
0
 62
     0
 10
131.721
 20
83.082
 30
0.0
 11
130.92
 21
83.082
 31
0.0
  0
LINE
  8
0
 62
     0
 10
130.92
 20
83.082
 30
0.0
 11
130.92
 21
88.882
 31
0.0
  0
LINE
  8
0
 62
     0
 10
130.92
 20
88.882
 30
0.0
 11
131.721
 21
88.882
 31
0.0
  0
LINE
  8
0
 62
     0
 10
131.721
 20
88.882
 30
0.0
 11
131.721
 21
91.9826
 31
0.0
  0
LINE
  8
0
 62
     0
 10
131.721
 20
91.9826
 30
0.0
 11
130.92
 21
91.9826
 31
0.0
  0
LINE
  8
0
 62
     0
 10
130.92
 20
91.9826
 30
0.0
 11
130.92
 21
92.9816
 31
0.0
  0
LINE
  8
0
 62
     0
 10
130.92
 20
92.9816
 30
0.0
 11
116.92
 21
92.9816
 31
0.0
  0
LINE
  8
0
 62
     0
 10
135.971
 20
92.9816
 30
0.0
 11
135.971
 21
91.9826
 31
0.0
  0
LINE
  8
0
 62
     0
 10
135.971
 20
91.9826
 30
0.0
 11
135.17
 21
91.9826
 31
0.0
  0
LINE
  8
0
 62
     0
 10
135.17
 20
91.9826
 30
0.0
 11
135.17
 21
88.882
 31
0.0
  0
LINE
  8
0
 62
     0
 10
135.17
 20
88.882
 30
0.0
 11
135.971
 21
88.882
 31
0.0
  0
LINE
  8
0
 62
     0
 10
135.971
 20
88.882
 30
0.0
 11
135.971
 21
83.082
 31
0.0
  0
LINE
  8
0
 62
     0
 10
135.971
 20
83.082
 30
0.0
 11
135.17
 21
83.082
 31
0.0
  0
LINE
  8
0
 62
     0
 10
135.17
 20
83.082
 30
0.0
 11
135.17
 21
79.9828
 31
0.0
  0
LINE
  8
0
 62
     0
 10
135.17
 20
79.9828
 30
0.0
 11
135.971
 21
79.9828
 31
0.0
  0
LINE
  8
0
 62
     0
 10
135.971
 20
79.9828
 30
0.0
 11
135.971
 21
78.9824
 31
0.0
  0
LINE
  8
0
 62
     0
 10
135.971
 20
78.9824
 30
0.0
 11
149.97
 21
78.9824
 31
0.0
  0
LINE
  8
0
 62
     0
 10
149.97
 20
78.9824
 30
0.0
 11
149.97
 21
79.9828
 31
0.0
  0
LINE
  8
0
 62
     0
 10
149.97
 20
79.9828
 30
0.0
 11
150.771
 21
79.9828
 31
0.0
  0
LINE
  8
0
 62
     0
 10
150.771
 20
79.9828
 30
0.0
 11
150.771
 21
83.082
 31
0.0
  0
LINE
  8
0
 62
     0
 10
150.771
 20
83.082
 30
0.0
 11
149.97
 21
83.082
 31
0.0
  0
LINE
  8
0
 62
     0
 10
149.97
 20
83.082
 30
0.0
 11
149.97
 21
88.882
 31
0.0
  0
LINE
  8
0
 62
     0
 10
149.97
 20
88.882
 30
0.0
 11
150.771
 21
88.882
 31
0.0
  0
LINE
  8
0
 62
     0
 10
150.771
 20
88.882
 30
0.0
 11
150.771
 21
91.9826
 31
0.0
  0
LINE
  8
0
 62
     0
 10
150.771
 20
91.9826
 30
0.0
 11
149.97
 21
91.9826
 31
0.0
  0
LINE
  8
0
 62
     0
 10
149.97
 20
91.9826
 30
0.0
 11
149.97
 21
92.9816
 31
0.0
  0
LINE
  8
0
 62
     0
 10
149.97
 20
92.9816
 30
0.0
 11
135.971
 21
92.9816
 31
0.0
  0
LINE
  8
0
 62
     0
 10
155.021
 20
92.9816
 30
0.0
 11
155.021
 21
91.9826
 31
0.0
  0
LINE
  8
0
 62
     0
 10
155.021
 20
91.9826
 30
0.0
 11
154.22
 21
91.9826
 31
0.0
  0
LINE
  8
0
 62
     0
 10
154.22
 20
91.9826
 30
0.0
 11
154.22
 21
88.882
 31
0.0
  0
LINE
  8
0
 62
     0
 10
154.22
 20
88.882
 30
0.0
 11
155.021
 21
88.882
 31
0.0
  0
LINE
  8
0
 62
     0
 10
155.021
 20
88.882
 30
0.0
 11
155.021
 21
83.082
 31
0.0
  0
LINE
  8
0
 62
     0
 10
155.021
 20
83.082
 30
0.0
 11
154.22
 21
83.082
 31
0.0
  0
LINE
  8
0
 62
     0
 10
154.22
 20
83.082
 30
0.0
 11
154.22
 21
79.9828
 31
0.0
  0
LINE
  8
0
 62
     0
 10
154.22
 20
79.9828
 30
0.0
 11
155.021
 21
79.9828
 31
0.0
  0
LINE
  8
0
 62
     0
 10
155.021
 20
79.9828
 30
0.0
 11
155.021
 21
78.9824
 31
0.0
  0
LINE
  8
0
 62
     0
 10
155.021
 20
78.9824
 30
0.0
 11
169.02
 21
78.9824
 31
0.0
  0
LINE
  8
0
 62
     0
 10
169.02
 20
78.9824
 30
0.0
 11
169.02
 21
79.9828
 31
0.0
  0
LINE
  8
0
 62
     0
 10
169.02
 20
79.9828
 30
0.0
 11
169.821
 21
79.9828
 31
0.0
  0
LINE
  8
0
 62
     0
 10
169.821
 20
79.9828
 30
0.0
 11
169.821
 21
83.082
 31
0.0
  0
LINE
  8
0
 62
     0
 10
169.821
 20
83.082
 30
0.0
 11
169.02
 21
83.082
 31
0.0
  0
LINE
  8
0
 62
     0
 10
169.02
 20
83.082
 30
0.0
 11
169.02
 21
88.882
 31
0.0
  0
LINE
  8
0
 62
     0
 10
169.02
 20
88.882
 30
0.0
 11
169.821
 21
88.882
 31
0.0
  0
LINE
  8
0
 62
     0
 10
169.821
 20
88.882
 30
0.0
 11
169.821
 21
91.9826
 31
0.0
  0
LINE
  8
0
 62
     0
 10
169.821
 20
91.9826
 30
0.0
 11
169.02
 21
91.9826
 31
0.0
  0
LINE
  8
0
 62
     0
 10
169.02
 20
91.9826
 30
0.0
 11
169.02
 21
92.9816
 31
0.0
  0
LINE
  8
0
 62
     0
 10
169.02
 20
92.9816
 30
0.0
 11
155.021
 21
92.9816
 31
0.0
  0
LINE
  8
0
 62
     0
 10
174.071
 20
92.9816
 30
0.0
 11
174.071
 21
91.9826
 31
0.0
  0
LINE
  8
0
 62
     0
 10
174.071
 20
91.9826
 30
0.0
 11
173.27
 21
91.9826
 31
0.0
  0
LINE
  8
0
 62
     0
 10
173.27
 20
91.9826
 30
0.0
 11
173.27
 21
88.882
 31
0.0
  0
LINE
  8
0
 62
     0
 10
173.27
 20
88.882
 30
0.0
 11
174.071
 21
88.882
 31
0.0
  0
LINE
  8
0
 62
     0
 10
174.071
 20
88.882
 30
0.0
 11
174.071
 21
83.082
 31
0.0
  0
LINE
  8
0
 62
     0
 10
174.071
 20
83.082
 30
0.0
 11
173.27
 21
83.082
 31
0.0
  0
LINE
  8
0
 62
     0
 10
173.27
 20
83.082
 30
0.0
 11
173.27
 21
79.9828
 31
0.0
  0
LINE
  8
0
 62
     0
 10
173.27
 20
79.9828
 30
0.0
 11
174.071
 21
79.9828
 31
0.0
  0
LINE
  8
0
 62
     0
 10
174.071
 20
79.9828
 30
0.0
 11
174.071
 21
78.9824
 31
0.0
  0
LINE
  8
0
 62
     0
 10
174.071
 20
78.9824
 30
0.0
 11
188.07
 21
78.9824
 31
0.0
  0
LINE
  8
0
 62
     0
 10
188.07
 20
78.9824
 30
0.0
 11
188.07
 21
79.9828
 31
0.0
  0
LINE
  8
0
 62
     0
 10
188.07
 20
79.9828
 30
0.0
 11
188.871
 21
79.9828
 31
0.0
  0
LINE
  8
0
 62
     0
 10
188.871
 20
79.9828
 30
0.0
 11
188.871
 21
83.082
 31
0.0
  0
LINE
  8
0
 62
     0
 10
188.871
 20
83.082
 30
0.0
 11
188.07
 21
83.082
 31
0.0
  0
LINE
  8
0
 62
     0
 10
188.07
 20
83.082
 30
0.0
 11
188.07
 21
88.882
 31
0.0
  0
LINE
  8
0
 62
     0
 10
188.07
 20
88.882
 30
0.0
 11
188.871
 21
88.882
 31
0.0
  0
LINE
  8
0
 62
     0
 10
188.871
 20
88.882
 30
0.0
 11
188.871
 21
91.9826
 31
0.0
  0
LINE
  8
0
 62
     0
 10
188.871
 20
91.9826
 30
0.0
 11
188.07
 21
91.9826
 31
0.0
  0
LINE
  8
0
 62
     0
 10
188.07
 20
91.9826
 30
0.0
 11
188.07
 21
92.9816
 31
0.0
  0
LINE
  8
0
 62
     0
 10
188.07
 20
92.9816
 30
0.0
 11
174.071
 21
92.9816
 31
0.0
  0
LINE
  8
0
 62
     0
 10
193.121
 20
92.9816
 30
0.0
 11
193.121
 21
91.9826
 31
0.0
  0
LINE
  8
0
 62
     0
 10
193.121
 20
91.9826
 30
0.0
 11
192.32
 21
91.9826
 31
0.0
  0
LINE
  8
0
 62
     0
 10
192.32
 20
91.9826
 30
0.0
 11
192.32
 21
88.882
 31
0.0
  0
LINE
  8
0
 62
     0
 10
192.32
 20
88.882
 30
0.0
 11
193.121
 21
88.882
 31
0.0
  0
LINE
  8
0
 62
     0
 10
193.121
 20
88.882
 30
0.0
 11
193.121
 21
83.082
 31
0.0
  0
LINE
  8
0
 62
     0
 10
193.121
 20
83.082
 30
0.0
 11
192.32
 21
83.082
 31
0.0
  0
LINE
  8
0
 62
     0
 10
192.32
 20
83.082
 30
0.0
 11
192.32
 21
79.9828
 31
0.0
  0
LINE
  8
0
 62
     0
 10
192.32
 20
79.9828
 30
0.0
 11
193.121
 21
79.9828
 31
0.0
  0
LINE
  8
0
 62
     0
 10
193.121
 20
79.9828
 30
0.0
 11
193.121
 21
78.9824
 31
0.0
  0
LINE
  8
0
 62
     0
 10
193.121
 20
78.9824
 30
0.0
 11
207.12
 21
78.9824
 31
0.0
  0
LINE
  8
0
 62
     0
 10
207.12
 20
78.9824
 30
0.0
 11
207.12
 21
79.9828
 31
0.0
  0
LINE
  8
0
 62
     0
 10
207.12
 20
79.9828
 30
0.0
 11
207.921
 21
79.9828
 31
0.0
  0
LINE
  8
0
 62
     0
 10
207.921
 20
79.9828
 30
0.0
 11
207.921
 21
83.082
 31
0.0
  0
LINE
  8
0
 62
     0
 10
207.921
 20
83.082
 30
0.0
 11
207.12
 21
83.082
 31
0.0
  0
LINE
  8
0
 62
     0
 10
207.12
 20
83.082
 30
0.0
 11
207.12
 21
88.882
 31
0.0
  0
LINE
  8
0
 62
     0
 10
207.12
 20
88.882
 30
0.0
 11
207.921
 21
88.882
 31
0.0
  0
LINE
  8
0
 62
     0
 10
207.921
 20
88.882
 30
0.0
 11
207.921
 21
91.9826
 31
0.0
  0
LINE
  8
0
 62
     0
 10
207.921
 20
91.9826
 30
0.0
 11
207.12
 21
91.9826
 31
0.0
  0
LINE
  8
0
 62
     0
 10
207.12
 20
91.9826
 30
0.0
 11
207.12
 21
92.9816
 31
0.0
  0
LINE
  8
0
 62
     0
 10
207.12
 20
92.9816
 30
0.0
 11
193.121
 21
92.9816
 31
0.0
  0
LINE
  8
0
 62
     0
 10
212.171
 20
92.9816
 30
0.0
 11
212.171
 21
91.9826
 31
0.0
  0
LINE
  8
0
 62
     0
 10
212.171
 20
91.9826
 30
0.0
 11
211.37
 21
91.9826
 31
0.0
  0
LINE
  8
0
 62
     0
 10
211.37
 20
91.9826
 30
0.0
 11
211.37
 21
88.882
 31
0.0
  0
LINE
  8
0
 62
     0
 10
211.37
 20
88.882
 30
0.0
 11
212.171
 21
88.882
 31
0.0
  0
LINE
  8
0
 62
     0
 10
212.171
 20
88.882
 30
0.0
 11
212.171
 21
83.082
 31
0.0
  0
LINE
  8
0
 62
     0
 10
212.171
 20
83.082
 30
0.0
 11
211.37
 21
83.082
 31
0.0
  0
LINE
  8
0
 62
     0
 10
211.37
 20
83.082
 30
0.0
 11
211.37
 21
79.9828
 31
0.0
  0
LINE
  8
0
 62
     0
 10
211.37
 20
79.9828
 30
0.0
 11
212.171
 21
79.9828
 31
0.0
  0
LINE
  8
0
 62
     0
 10
212.171
 20
79.9828
 30
0.0
 11
212.171
 21
78.9824
 31
0.0
  0
LINE
  8
0
 62
     0
 10
212.171
 20
78.9824
 30
0.0
 11
226.17
 21
78.9824
 31
0.0
  0
LINE
  8
0
 62
     0
 10
226.17
 20
78.9824
 30
0.0
 11
226.17
 21
79.9828
 31
0.0
  0
LINE
  8
0
 62
     0
 10
226.17
 20
79.9828
 30
0.0
 11
226.971
 21
79.9828
 31
0.0
  0
LINE
  8
0
 62
     0
 10
226.971
 20
79.9828
 30
0.0
 11
226.971
 21
83.082
 31
0.0
  0
LINE
  8
0
 62
     0
 10
226.971
 20
83.082
 30
0.0
 11
226.17
 21
83.082
 31
0.0
  0
LINE
  8
0
 62
     0
 10
226.17
 20
83.082
 30
0.0
 11
226.17
 21
88.882
 31
0.0
  0
LINE
  8
0
 62
     0
 10
226.17
 20
88.882
 30
0.0
 11
226.971
 21
88.882
 31
0.0
  0
LINE
  8
0
 62
     0
 10
226.971
 20
88.882
 30
0.0
 11
226.971
 21
91.9826
 31
0.0
  0
LINE
  8
0
 62
     0
 10
226.971
 20
91.9826
 30
0.0
 11
226.17
 21
91.9826
 31
0.0
  0
LINE
  8
0
 62
     0
 10
226.17
 20
91.9826
 30
0.0
 11
226.17
 21
92.9816
 31
0.0
  0
LINE
  8
0
 62
     0
 10
226.17
 20
92.9816
 30
0.0
 11
212.171
 21
92.9816
 31
0.0
  0
LINE
  8
0
 62
     0
 10
231.221
 20
92.9816
 30
0.0
 11
231.221
 21
91.9826
 31
0.0
  0
LINE
  8
0
 62
     0
 10
231.221
 20
91.9826
 30
0.0
 11
230.42
 21
91.9826
 31
0.0
  0
LINE
  8
0
 62
     0
 10
230.42
 20
91.9826
 30
0.0
 11
230.42
 21
88.882
 31
0.0
  0
LINE
  8
0
 62
     0
 10
230.42
 20
88.882
 30
0.0
 11
231.221
 21
88.882
 31
0.0
  0
LINE
  8
0
 62
     0
 10
231.221
 20
88.882
 30
0.0
 11
231.221
 21
83.082
 31
0.0
  0
LINE
  8
0
 62
     0
 10
231.221
 20
83.082
 30
0.0
 11
230.42
 21
83.082
 31
0.0
  0
LINE
  8
0
 62
     0
 10
230.42
 20
83.082
 30
0.0
 11
230.42
 21
79.9828
 31
0.0
  0
LINE
  8
0
 62
     0
 10
230.42
 20
79.9828
 30
0.0
 11
231.221
 21
79.9828
 31
0.0
  0
LINE
  8
0
 62
     0
 10
231.221
 20
79.9828
 30
0.0
 11
231.221
 21
78.9824
 31
0.0
  0
LINE
  8
0
 62
     0
 10
231.221
 20
78.9824
 30
0.0
 11
245.22
 21
78.9824
 31
0.0
  0
LINE
  8
0
 62
     0
 10
245.22
 20
78.9824
 30
0.0
 11
245.22
 21
79.9828
 31
0.0
  0
LINE
  8
0
 62
     0
 10
245.22
 20
79.9828
 30
0.0
 11
246.021
 21
79.9828
 31
0.0
  0
LINE
  8
0
 62
     0
 10
246.021
 20
79.9828
 30
0.0
 11
246.021
 21
83.082
 31
0.0
  0
LINE
  8
0
 62
     0
 10
246.021
 20
83.082
 30
0.0
 11
245.22
 21
83.082
 31
0.0
  0
LINE
  8
0
 62
     0
 10
245.22
 20
83.082
 30
0.0
 11
245.22
 21
88.882
 31
0.0
  0
LINE
  8
0
 62
     0
 10
245.22
 20
88.882
 30
0.0
 11
246.021
 21
88.882
 31
0.0
  0
LINE
  8
0
 62
     0
 10
246.021
 20
88.882
 30
0.0
 11
246.021
 21
91.9826
 31
0.0
  0
LINE
  8
0
 62
     0
 10
246.021
 20
91.9826
 30
0.0
 11
245.22
 21
91.9826
 31
0.0
  0
LINE
  8
0
 62
     0
 10
245.22
 20
91.9826
 30
0.0
 11
245.22
 21
92.9816
 31
0.0
  0
LINE
  8
0
 62
     0
 10
245.22
 20
92.9816
 30
0.0
 11
231.221
 21
92.9816
 31
0.0
  0
LINE
  8
0
 62
     0
 10
288.371
 20
92.9816
 30
0.0
 11
288.371
 21
91.9826
 31
0.0
  0
LINE
  8
0
 62
     0
 10
288.371
 20
91.9826
 30
0.0
 11
287.57
 21
91.9826
 31
0.0
  0
LINE
  8
0
 62
     0
 10
287.57
 20
91.9826
 30
0.0
 11
287.57
 21
88.882
 31
0.0
  0
LINE
  8
0
 62
     0
 10
287.57
 20
88.882
 30
0.0
 11
288.371
 21
88.882
 31
0.0
  0
LINE
  8
0
 62
     0
 10
288.371
 20
88.882
 30
0.0
 11
288.371
 21
83.082
 31
0.0
  0
LINE
  8
0
 62
     0
 10
288.371
 20
83.082
 30
0.0
 11
287.57
 21
83.082
 31
0.0
  0
LINE
  8
0
 62
     0
 10
287.57
 20
83.082
 30
0.0
 11
287.57
 21
79.9828
 31
0.0
  0
LINE
  8
0
 62
     0
 10
287.57
 20
79.9828
 30
0.0
 11
288.371
 21
79.9828
 31
0.0
  0
LINE
  8
0
 62
     0
 10
288.371
 20
79.9828
 30
0.0
 11
288.371
 21
78.9824
 31
0.0
  0
LINE
  8
0
 62
     0
 10
288.371
 20
78.9824
 30
0.0
 11
302.37
 21
78.9824
 31
0.0
  0
LINE
  8
0
 62
     0
 10
302.37
 20
78.9824
 30
0.0
 11
302.37
 21
79.9828
 31
0.0
  0
LINE
  8
0
 62
     0
 10
302.37
 20
79.9828
 30
0.0
 11
303.171
 21
79.9828
 31
0.0
  0
LINE
  8
0
 62
     0
 10
303.171
 20
79.9828
 30
0.0
 11
303.171
 21
83.082
 31
0.0
  0
LINE
  8
0
 62
     0
 10
303.171
 20
83.082
 30
0.0
 11
302.37
 21
83.082
 31
0.0
  0
LINE
  8
0
 62
     0
 10
302.37
 20
83.082
 30
0.0
 11
302.37
 21
88.882
 31
0.0
  0
LINE
  8
0
 62
     0
 10
302.37
 20
88.882
 30
0.0
 11
303.171
 21
88.882
 31
0.0
  0
LINE
  8
0
 62
     0
 10
303.171
 20
88.882
 30
0.0
 11
303.171
 21
91.9826
 31
0.0
  0
LINE
  8
0
 62
     0
 10
303.171
 20
91.9826
 30
0.0
 11
302.37
 21
91.9826
 31
0.0
  0
LINE
  8
0
 62
     0
 10
302.37
 20
91.9826
 30
0.0
 11
302.37
 21
92.9816
 31
0.0
  0
LINE
  8
0
 62
     0
 10
302.37
 20
92.9816
 30
0.0
 11
288.371
 21
92.9816
 31
0.0
  0
ENDSEC
  0
EOF
