<?xml version="1.0" encoding="UTF-8" standalone="no"?>
<!-- Created with Inkscape (http://www.inkscape.org/) -->

<svg
   width="120"
   height="120"
   viewBox="0 0 120 120"
   version="1.1"
   id="svg1"
   sodipodi:docname="favicon.svg"
   inkscape:version="1.4.2 (ebf0e940d0, 2025-05-08)"
   xmlns:inkscape="http://www.inkscape.org/namespaces/inkscape"
   xmlns:sodipodi="http://sodipodi.sourceforge.net/DTD/sodipodi-0.dtd"
   xmlns="http://www.w3.org/2000/svg"
   xmlns:svg="http://www.w3.org/2000/svg">
  <sodipodi:namedview
     id="namedview1"
     pagecolor="#ffffff"
     bordercolor="#000000"
     borderopacity="0.25"
     inkscape:showpageshadow="2"
     inkscape:pageopacity="0.0"
     inkscape:pagecheckerboard="0"
     inkscape:deskcolor="#d1d1d1"
     inkscape:zoom="6.16875"
     inkscape:cx="122.63425"
     inkscape:cy="88.186424"
     inkscape:window-width="3072"
     inkscape:window-height="1642"
     inkscape:window-x="0"
     inkscape:window-y="0"
     inkscape:window-maximized="1"
     inkscape:current-layer="svg1" />
  <defs
     id="defs1" />
  <g
     id="text1"
     style="font-weight:bold;font-size:26.6667px;font-family:'Sarasa Term SC';-inkscape-font-specification:'Sarasa Term SC Bold';fill:#cccccc;stroke:#808080;stroke-width:0.944882;stroke-linecap:square"
     aria-label="[KEYS]&#10;[@]$ _"
     transform="matrix(1.3096151,0,0,1.3096151,-43.794627,-17.25894)">
    <path
       d="M 49.282454,55.194373 H 41.549111 V 29.43434 h 7.733343 v 2.560004 H 44.535782 V 52.63437 h 4.746672 z"
       id="path10" />
    <path
       style="fill:#0078d6;stroke:#4659bf"
       d="m 60.882469,51.381035 -3.280004,-7.813343 -0.773334,1.386668 v 6.426675 H 53.869127 V 31.78101 h 2.960004 v 7.92001 l 1.546668,-3.040004 2.42667,-4.880006 h 3.253337 l -4.906672,8.933345 4.906672,10.66668 z m 6.106675,0 V 31.78101 h 9.973345 v 2.560003 h -7.013342 v 5.573341 h 5.493341 v 2.560003 h -5.493341 v 6.346675 h 7.013342 v 2.560003 z m 16.72002,0 V 43.194358 L 79.415825,31.78101 h 3.173337 l 2.613337,7.76001 2.613337,-7.76001 h 3.173337 l -4.293339,11.413348 v 8.186677 z m 14.800019,0.213333 q -0.693334,0 -1.386668,-0.106666 -0.666668,-0.106667 -1.306668,-0.400001 -0.613334,-0.32 -1.146669,-0.773334 -0.506667,-0.480001 -0.853334,-1.066668 -0.32,-0.613334 -0.480001,-1.280002 -0.16,-0.693334 -0.16,-1.386668 v -0.240001 h 2.960004 v 0.106667 q 0,0.506668 0.133334,0.986668 0.16,0.480001 0.48,0.880001 0.320001,0.373334 0.773334,0.560001 0.480001,0.16 0.986668,0.16 0.480001,0 0.960002,-0.16 0.48,-0.186667 0.800005,-0.560001 0.32,-0.373333 0.45333,-0.853334 0.16,-0.480001 0.16,-0.960001 0,-0.666668 -0.26667,-1.280002 -0.26666,-0.613334 -0.719998,-1.066668 -0.453334,-0.480001 -1.040002,-0.800001 -0.56,-0.32 -1.146668,-0.613334 -0.586667,-0.32 -1.146668,-0.666668 -0.533334,-0.373333 -1.013334,-0.826667 -0.480001,-0.453334 -0.880002,-0.960002 -0.4,-0.533334 -0.666667,-1.120001 -0.266667,-0.613334 -0.426667,-1.253335 -0.133334,-0.640001 -0.133334,-1.280001 0,-0.693335 0.133334,-1.360002 0.16,-0.666668 0.453334,-1.253335 0.32,-0.613334 0.800001,-1.093335 0.506667,-0.506667 1.093334,-0.800001 0.613335,-0.32 1.280002,-0.426667 0.693334,-0.133334 1.360002,-0.133334 0.666667,0 1.333335,0.133334 0.693338,0.106667 1.279998,0.426667 0.61334,0.293334 1.09334,0.773334 0.48,0.480001 0.8,1.093335 0.32,0.586668 0.45333,1.253335 0.16,0.666668 0.16,1.333335 v 0.24 h -2.96 V 36.71435 q 0,-0.480001 -0.13333,-0.933335 -0.10667,-0.48 -0.4,-0.853334 -0.266672,-0.400001 -0.720005,-0.586668 -0.426668,-0.213333 -0.906668,-0.213333 -0.480001,0 -0.933335,0.186667 -0.426667,0.186667 -0.720001,0.56 -0.266667,0.373334 -0.4,0.853335 -0.106667,0.453334 -0.106667,0.933334 0,0.640001 0.266667,1.253335 0.266667,0.613334 0.720001,1.093335 0.453334,0.48 1.013335,0.800001 0.586667,0.32 1.146668,0.640001 0.586665,0.293333 1.120005,0.666667 0.56,0.346667 1.04,0.800001 0.50666,0.426667 0.88,0.960001 0.4,0.533334 0.66667,1.120002 0.29333,0.586667 0.42666,1.226668 0.16,0.640001 0.16,1.306668 0,0.693335 -0.16,1.386669 -0.16,0.666667 -0.50666,1.280001 -0.32,0.613335 -0.82667,1.093335 -0.50667,0.480001 -1.14667,0.773334 -0.61333,0.293334 -1.306668,0.400001 -0.693334,0.133333 -1.386669,0.133333 z"
       id="path11" />
    <path
       d="M 107.78919,55.194373 V 52.63437 h 4.74667 V 31.994344 h -4.74667 V 29.43434 h 7.73335 v 25.760033 z"
       id="path12" />
    <path
       d="M 49.282454,88.527748 H 41.549111 V 62.767716 h 7.733343 v 2.560003 h -4.746672 v 20.640026 h 4.746672 z"
       id="path13" />
    <path
       style="fill:#cc2a24;stroke:#8c3211"
       d="M 62.349138,86.847746 H 58.5358 q -0.720001,0 -1.440002,-0.16 Q 56.375797,86.554413 55.762463,86.181079 55.149129,85.807745 54.669128,85.221078 54.215794,84.661077 53.92246,83.994409 53.655793,83.327742 53.549127,82.607741 53.44246,81.88774 53.44246,81.167739 V 70.127725 q 0,-0.720001 0.106667,-1.440002 0.106666,-0.720001 0.373333,-1.386668 0.293334,-0.666668 0.746668,-1.226668 0.480001,-0.586668 1.093335,-0.960001 0.613334,-0.373334 1.333335,-0.506668 0.720001,-0.16 1.440002,-0.16 0.72,0 1.413335,0.16 0.693334,0.133334 1.306668,0.506668 0.613334,0.346667 1.066668,0.880001 0.480001,0.533334 0.773334,1.200001 0.293334,0.640001 0.400001,1.333335 0.133333,0.693334 0.133333,1.413335 v 8.586678 q 0,0.453334 -0.05333,0.933334 -0.05333,0.480001 -0.213334,0.933335 -0.16,0.453334 -0.426667,0.853334 -0.266667,0.400001 -0.666667,0.693334 -0.373334,0.266667 -0.853335,0.400001 -0.453334,0.106667 -0.933334,0.106667 -0.480001,0 -0.960002,-0.106667 -0.453333,-0.133334 -0.853334,-0.400001 -0.373334,-0.293333 -0.640001,-0.693334 -0.266667,-0.4 -0.426667,-0.853334 -0.16,-0.453334 -0.24,-0.933335 -0.05333,-0.48 -0.05333,-0.933334 V 73.88773 q 0,-0.506667 0.05333,-0.986668 0.08,-0.480001 0.24,-0.933334 0.186667,-0.453334 0.453334,-0.853335 0.293334,-0.4 0.693334,-0.666667 0.426667,-0.266667 0.880001,-0.373334 0.480001,-0.133334 0.960001,-0.133334 h 0.640001 q 0,-0.56 -0.16,-1.093334 -0.16,-0.560001 -0.533334,-0.986668 -0.346667,-0.453334 -0.906668,-0.640001 -0.533334,-0.213334 -1.093334,-0.213334 -0.586668,0 -1.146669,0.240001 -0.56,0.213333 -0.933334,0.666667 -0.346667,0.453334 -0.480001,1.040001 -0.133333,0.586668 -0.133333,1.173335 v 11.040014 q 0,0.586668 0.133333,1.173335 0.133334,0.586667 0.480001,1.040001 0.373334,0.453334 0.933334,0.693334 0.560001,0.213334 1.146669,0.213334 h 3.813338 z m -1.866669,-6.453341 q 0.186667,0 0.32,-0.133334 0.133334,-0.133333 0.213334,-0.293333 0.08,-0.186667 0.106666,-0.346667 0.05333,-0.186667 0.05333,-0.373334 0.02667,-0.186667 0.02667,-0.373334 0.02667,-0.186667 0.02667,-0.346667 v -6.533342 h -0.640001 q -0.266667,0 -0.453333,0.240001 -0.186667,0.24 -0.293334,0.533334 -0.08,0.266667 -0.106667,0.56 -0.02667,0.266667 -0.02667,0.560001 v 4.640006 q 0,0.16 0,0.346667 0.02667,0.186667 0.05333,0.373334 0.02667,0.186667 0.05333,0.373334 0.05333,0.16 0.133334,0.346667 0.08,0.16 0.213333,0.293333 0.133334,0.133334 0.320001,0.133334 z"
       id="path14" />
    <path
       d="m 67.789145,88.527748 v -2.560003 h 4.746672 V 65.327719 h -4.746672 v -2.560003 h 7.733343 V 88.527748 Z M 83.895831,87.567747 V 83.861076 Q 83.042496,83.727742 82.242495,83.301075 81.469161,82.874408 80.90916,82.20774 80.375826,81.514406 80.109159,80.661072 79.842492,79.807737 79.842492,78.954403 v -0.266667 h 2.960004 v 0.133334 q 0,0.373333 0.08,0.746667 0.106667,0.373334 0.266667,0.720001 0.186667,0.32 0.480001,0.586667 0.293333,0.240001 0.64,0.373334 v -5.226673 q -0.826667,-0.400001 -1.600002,-0.906668 -0.746667,-0.533334 -1.333335,-1.226668 -0.56,-0.720001 -0.906667,-1.573335 -0.320001,-0.880001 -0.320001,-1.786669 0,-0.826668 0.24,-1.600002 0.266667,-0.800001 0.773335,-1.413335 0.533334,-0.613335 1.253335,-0.986668 0.746667,-0.400001 1.520002,-0.533334 v -3.760005 h 2.613336 v 3.733338 q 0.826668,0.16 1.573336,0.613334 0.773334,0.426667 1.280001,1.120001 0.506667,0.666668 0.746668,1.493336 0.24,0.826667 0.24,1.680002 v 0.266667 h -2.960004 v -0.133334 q 0,-0.346667 -0.08,-0.693334 -0.05333,-0.373334 -0.213333,-0.693334 -0.160001,-0.320001 -0.400001,-0.586668 -0.24,-0.266667 -0.560001,-0.426667 v 5.120007 q 0.853335,0.373334 1.626669,0.906668 0.800001,0.506667 1.413335,1.226668 0.613334,0.720001 0.960001,1.600002 0.373334,0.880001 0.373334,1.840002 0,0.826668 -0.293333,1.626669 -0.266667,0.800001 -0.826668,1.440002 -0.533334,0.613334 -1.306668,0.986668 -0.773335,0.373333 -1.573336,0.506667 v 3.706671 z m 0.373333,-14.826685 v -4.133339 q -0.266667,0.106667 -0.506667,0.320001 -0.24,0.186667 -0.4,0.453334 -0.133334,0.266667 -0.213334,0.56 -0.08,0.293334 -0.08,0.613334 0,0.640001 0.346667,1.226669 0.346667,0.586667 0.853334,0.960001 z m 1.866669,8.506677 q 0.293334,-0.08 0.560001,-0.266667 0.293334,-0.213333 0.480001,-0.48 0.186667,-0.266667 0.266667,-0.586668 0.106667,-0.32 0.106667,-0.640001 0,-0.373333 -0.106667,-0.72 -0.106667,-0.346668 -0.320001,-0.640001 -0.186667,-0.293334 -0.453334,-0.533334 -0.24,-0.266667 -0.533334,-0.453334 z m 20.640027,6.026675 V 84.71441 h 10.18668 v 2.560004 z"
       id="path15" />
  </g>
</svg>
