<?xml version="1.0" encoding="UTF-8" standalone="no"?>
<!-- Created with Inkscape (http://www.inkscape.org/) -->

<svg
   width="480"
   height="120"
   viewBox="0 0 480 120"
   version="1.1"
   id="svg1"
   xmlns="http://www.w3.org/2000/svg"
   xmlns:svg="http://www.w3.org/2000/svg">
  <defs
     id="defs1" />
  <g
     id="layer1">
    <g
       id="text1"
       style="font-weight:bold;font-size:26.6667px;font-family:'Sarasa Term SC';-inkscape-font-specification:'Sarasa Term SC Bold';fill:#cccccc;stroke:#808080;stroke-width:0.944882;stroke-linecap:square"
       aria-label="[KEYS]&#10;[@]$ _">
      <path
         d="M 49.282454,55.194373 H 41.549111 V 29.43434 h 7.733343 v 2.560004 H 44.535782 V 52.63437 h 4.746672 z"
         id="path10" />
      <path
         style="fill:#0078d6;stroke:#4659bf"
         d="m 60.882469,51.381035 -3.280004,-7.813343 -0.773334,1.386668 v 6.426675 H 53.869127 V 31.78101 h 2.960004 v 7.92001 l 1.546668,-3.040004 2.42667,-4.880006 h 3.253337 l -4.906672,8.933345 4.906672,10.66668 z m 6.106675,0 V 31.78101 h 9.973345 v 2.560003 h -7.013342 v 5.573341 h 5.493341 v 2.560003 h -5.493341 v 6.346675 h 7.013342 v 2.560003 z m 16.72002,0 V 43.194358 L 79.415825,31.78101 h 3.173337 l 2.613337,7.76001 2.613337,-7.76001 h 3.173337 l -4.293339,11.413348 v 8.186677 z m 14.800019,0.213333 q -0.693334,0 -1.386668,-0.106666 -0.666668,-0.106667 -1.306668,-0.400001 -0.613334,-0.32 -1.146669,-0.773334 -0.506667,-0.480001 -0.853334,-1.066668 -0.32,-0.613334 -0.480001,-1.280002 -0.16,-0.693334 -0.16,-1.386668 v -0.240001 h 2.960004 v 0.106667 q 0,0.506668 0.133334,0.986668 0.16,0.480001 0.48,0.880001 0.320001,0.373334 0.773334,0.560001 0.480001,0.16 0.986668,0.16 0.480001,0 0.960002,-0.16 0.48,-0.186667 0.800005,-0.560001 0.32,-0.373333 0.45333,-0.853334 0.16,-0.480001 0.16,-0.960001 0,-0.666668 -0.26667,-1.280002 -0.26666,-0.613334 -0.719998,-1.066668 -0.453334,-0.480001 -1.040002,-0.800001 -0.56,-0.32 -1.146668,-0.613334 -0.586667,-0.32 -1.146668,-0.666668 -0.533334,-0.373333 -1.013334,-0.826667 -0.480001,-0.453334 -0.880002,-0.960002 -0.4,-0.533334 -0.666667,-1.120001 -0.266667,-0.613334 -0.426667,-1.253335 -0.133334,-0.640001 -0.133334,-1.280001 0,-0.693335 0.133334,-1.360002 0.16,-0.666668 0.453334,-1.253335 0.32,-0.613334 0.800001,-1.093335 0.506667,-0.506667 1.093334,-0.800001 0.613335,-0.32 1.280002,-0.426667 0.693334,-0.133334 1.360002,-0.133334 0.666667,0 1.333335,0.133334 0.693338,0.106667 1.279998,0.426667 0.61334,0.293334 1.09334,0.773334 0.48,0.480001 0.8,1.093335 0.32,0.586668 0.45333,1.253335 0.16,0.666668 0.16,1.333335 v 0.24 h -2.96 V 36.71435 q 0,-0.480001 -0.13333,-0.933335 -0.10667,-0.48 -0.4,-0.853334 -0.266672,-0.400001 -0.720005,-0.586668 -0.426668,-0.213333 -0.906668,-0.213333 -0.480001,0 -0.933335,0.186667 -0.426667,0.186667 -0.720001,0.56 -0.266667,0.373334 -0.4,0.853335 -0.106667,0.453334 -0.106667,0.933334 0,0.640001 0.266667,1.253335 0.266667,0.613334 0.720001,1.093335 0.453334,0.48 1.013335,0.800001 0.586667,0.32 1.146668,0.640001 0.586665,0.293333 1.120005,0.666667 0.56,0.346667 1.04,0.800001 0.50666,0.426667 0.88,0.960001 0.4,0.533334 0.66667,1.120002 0.29333,0.586667 0.42666,1.226668 0.16,0.640001 0.16,1.306668 0,0.693335 -0.16,1.386669 -0.16,0.666667 -0.50666,1.280001 -0.32,0.613335 -0.82667,1.093335 -0.50667,0.480001 -1.14667,0.773334 -0.61333,0.293334 -1.306668,0.400001 -0.693334,0.133333 -1.386669,0.133333 z"
         id="path11" />
      <path
         d="M 107.78919,55.194373 V 52.63437 h 4.74667 V 31.994344 h -4.74667 V 29.43434 h 7.73335 v 25.760033 z"
         id="path12" />
      <path
         d="M 49.282454,88.527748 H 41.549111 V 62.767716 h 7.733343 v 2.560003 h -4.746672 v 20.640026 h 4.746672 z"
         id="path13" />
      <path
         style="fill:#cc2a24;stroke:#8c3211"
         d="M 62.349138,86.847746 H 58.5358 q -0.720001,0 -1.440002,-0.16 Q 56.375797,86.554413 55.762463,86.181079 55.149129,85.807745 54.669128,85.221078 54.215794,84.661077 53.92246,83.994409 53.655793,83.327742 53.549127,82.607741 53.44246,81.88774 53.44246,81.167739 V 70.127725 q 0,-0.720001 0.106667,-1.440002 0.106666,-0.720001 0.373333,-1.386668 0.293334,-0.666668 0.746668,-1.226668 0.480001,-0.586668 1.093335,-0.960001 0.613334,-0.373334 1.333335,-0.506668 0.720001,-0.16 1.440002,-0.16 0.72,0 1.413335,0.16 0.693334,0.133334 1.306668,0.506668 0.613334,0.346667 1.066668,0.880001 0.480001,0.533334 0.773334,1.200001 0.293334,0.640001 0.400001,1.333335 0.133333,0.693334 0.133333,1.413335 v 8.586678 q 0,0.453334 -0.05333,0.933334 -0.05333,0.480001 -0.213334,0.933335 -0.16,0.453334 -0.426667,0.853334 -0.266667,0.400001 -0.666667,0.693334 -0.373334,0.266667 -0.853335,0.400001 -0.453334,0.106667 -0.933334,0.106667 -0.480001,0 -0.960002,-0.106667 -0.453333,-0.133334 -0.853334,-0.400001 -0.373334,-0.293333 -0.640001,-0.693334 -0.266667,-0.4 -0.426667,-0.853334 -0.16,-0.453334 -0.24,-0.933335 -0.05333,-0.48 -0.05333,-0.933334 V 73.88773 q 0,-0.506667 0.05333,-0.986668 0.08,-0.480001 0.24,-0.933334 0.186667,-0.453334 0.453334,-0.853335 0.293334,-0.4 0.693334,-0.666667 0.426667,-0.266667 0.880001,-0.373334 0.480001,-0.133334 0.960001,-0.133334 h 0.640001 q 0,-0.56 -0.16,-1.093334 -0.16,-0.560001 -0.533334,-0.986668 -0.346667,-0.453334 -0.906668,-0.640001 -0.533334,-0.213334 -1.093334,-0.213334 -0.586668,0 -1.146669,0.240001 -0.56,0.213333 -0.933334,0.666667 -0.346667,0.453334 -0.480001,1.040001 -0.133333,0.586668 -0.133333,1.173335 v 11.040014 q 0,0.586668 0.133333,1.173335 0.133334,0.586667 0.480001,1.040001 0.373334,0.453334 0.933334,0.693334 0.560001,0.213334 1.146669,0.213334 h 3.813338 z m -1.866669,-6.453341 q 0.186667,0 0.32,-0.133334 0.133334,-0.133333 0.213334,-0.293333 0.08,-0.186667 0.106666,-0.346667 0.05333,-0.186667 0.05333,-0.373334 0.02667,-0.186667 0.02667,-0.373334 0.02667,-0.186667 0.02667,-0.346667 v -6.533342 h -0.640001 q -0.266667,0 -0.453333,0.240001 -0.186667,0.24 -0.293334,0.533334 -0.08,0.266667 -0.106667,0.56 -0.02667,0.266667 -0.02667,0.560001 v 4.640006 q 0,0.16 0,0.346667 0.02667,0.186667 0.05333,0.373334 0.02667,0.186667 0.05333,0.373334 0.05333,0.16 0.133334,0.346667 0.08,0.16 0.213333,0.293333 0.133334,0.133334 0.320001,0.133334 z"
         id="path14" />
      <path
         d="m 67.789145,88.527748 v -2.560003 h 4.746672 V 65.327719 h -4.746672 v -2.560003 h 7.733343 V 88.527748 Z M 83.895831,87.567747 V 83.861076 Q 83.042496,83.727742 82.242495,83.301075 81.469161,82.874408 80.90916,82.20774 80.375826,81.514406 80.109159,80.661072 79.842492,79.807737 79.842492,78.954403 v -0.266667 h 2.960004 v 0.133334 q 0,0.373333 0.08,0.746667 0.106667,0.373334 0.266667,0.720001 0.186667,0.32 0.480001,0.586667 0.293333,0.240001 0.64,0.373334 v -5.226673 q -0.826667,-0.400001 -1.600002,-0.906668 -0.746667,-0.533334 -1.333335,-1.226668 -0.56,-0.720001 -0.906667,-1.573335 -0.320001,-0.880001 -0.320001,-1.786669 0,-0.826668 0.24,-1.600002 0.266667,-0.800001 0.773335,-1.413335 0.533334,-0.613335 1.253335,-0.986668 0.746667,-0.400001 1.520002,-0.533334 v -3.760005 h 2.613336 v 3.733338 q 0.826668,0.16 1.573336,0.613334 0.773334,0.426667 1.280001,1.120001 0.506667,0.666668 0.746668,1.493336 0.24,0.826667 0.24,1.680002 v 0.266667 h -2.960004 v -0.133334 q 0,-0.346667 -0.08,-0.693334 -0.05333,-0.373334 -0.213333,-0.693334 -0.160001,-0.320001 -0.400001,-0.586668 -0.24,-0.266667 -0.560001,-0.426667 v 5.120007 q 0.853335,0.373334 1.626669,0.906668 0.800001,0.506667 1.413335,1.226668 0.613334,0.720001 0.960001,1.600002 0.373334,0.880001 0.373334,1.840002 0,0.826668 -0.293333,1.626669 -0.266667,0.800001 -0.826668,1.440002 -0.533334,0.613334 -1.306668,0.986668 -0.773335,0.373333 -1.573336,0.506667 v 3.706671 z m 0.373333,-14.826685 v -4.133339 q -0.266667,0.106667 -0.506667,0.320001 -0.24,0.186667 -0.4,0.453334 -0.133334,0.266667 -0.213334,0.56 -0.08,0.293334 -0.08,0.613334 0,0.640001 0.346667,1.226669 0.346667,0.586667 0.853334,0.960001 z m 1.866669,8.506677 q 0.293334,-0.08 0.560001,-0.266667 0.293334,-0.213333 0.480001,-0.48 0.186667,-0.266667 0.266667,-0.586668 0.106667,-0.32 0.106667,-0.640001 0,-0.373333 -0.106667,-0.72 -0.106667,-0.346668 -0.320001,-0.640001 -0.186667,-0.293334 -0.453334,-0.533334 -0.24,-0.266667 -0.533334,-0.453334 z m 20.640027,6.026675 V 84.71441 h 10.18668 v 2.560004 z"
         id="path15" />
    </g>
    <g
       id="text6"
       style="font-weight:bold;font-size:37.3333px;line-height:0.8;font-family:'Sarasa Term SC';-inkscape-font-specification:'Sarasa Term SC Bold';fill:#cccccc;stroke:#888888;stroke-width:0.944882;stroke-linecap:square"
       aria-label="Keys Dock&#10;Creating Reality with Idealism.">
      <path
         style="font-weight:800;font-size:42.6667px;font-family:'AVHershey Duplex';-inkscape-font-specification:'AVHershey Duplex Ultra-Bold'"
         d="m 151.71996,32.324886 0.384,-0.597334 0.55466,-0.384 0.72534,-0.128 1.70667,0.128 0.59733,0.384 0.384,0.597334 0.128,0.682667 v 8.234673 l 9.51467,-9.514674 0.59734,-0.384 1.74933,-0.128 0.68267,0.128 0.55467,0.384 0.384,0.597334 0.17066,0.682667 -0.17066,0.682667 -0.384,0.597334 -8.32001,8.320006 8.49067,11.349342 0.29867,0.640001 0.0427,0.682667 -0.21334,0.64 -0.46933,0.554667 -0.64,0.298667 -1.49334,0.04267 -0.81066,-0.170667 -0.64,-0.554667 -7.72268,-10.325341 -1.62133,1.621334 v 7.637339 l -0.128,0.682668 -0.384,0.597333 -0.59733,0.384001 -0.68267,0.128 -1.74934,-0.128 -0.55466,-0.384001 -0.384,-0.597333 -0.128,-0.682668 V 33.007553 Z m 33.87739,23.253351 -2.09067,1.066667 -0.81067,0.170667 h -3.15733 l -0.768,-0.170667 -2.56001,-1.408001 -2.13333,-2.090668 -0.42667,-0.682667 -1.10933,-3.712003 0.0853,-2.688002 1.024,-3.157336 0.42667,-0.682667 2.60267,-2.432002 2.09067,-1.066667 0.768,-0.170667 h 3.15733 l 0.81067,0.170667 2.56,1.408001 1.36534,1.493334 1.06666,2.133335 0.17067,0.768001 v 3.157335 l -0.128,0.682668 -0.384,0.597333 -0.55467,0.384001 -0.64,0.128 1.19467,1.152001 0.384,0.554667 0.128,0.682667 -0.128,0.682667 -0.384,0.597334 z m -1.62134,-10.752008 -0.512,-1.066668 -1.19467,-0.554667 h -2.304 l -1.45066,0.725334 -0.55467,0.512 -0.128,0.384001 z m -6.48534,4.65067 0.46934,1.450667 0.55467,0.512001 1.45066,0.725334 h 2.304 l 1.19467,-0.554667 0.768,-1.578668 0.46934,-0.554667 z m 12.97068,-9.813341 0.384,-0.554667 0.55467,-0.426667 1.74933,-0.128 0.68267,0.128 0.59733,0.384 0.384,0.597334 3.58401,8.618673 3.584,-8.618673 0.384,-0.597334 0.59733,-0.384 1.74934,-0.128 0.68266,0.128 0.55467,0.384 0.384,0.597334 0.128,0.725334 -0.128,0.682667 -9.42934,22.016017 -0.384,0.554667 -0.59733,0.384 -1.70667,0.128 -0.68267,-0.128 -0.59733,-0.384 -0.384,-0.640001 -0.128,-0.682667 0.128,-0.640001 3.41333,-7.722672 -5.504,-12.92801 -0.128,-0.682667 z m 17.792,11.648009 0.34133,-0.597334 0.55467,-0.426667 0.68267,-0.213334 1.83466,0.128001 0.55467,0.341333 0.68267,1.109334 1.536,0.512001 h 2.56 l 1.536,-0.512001 0.128,-0.213333 -0.256,-0.682667 -6.10133,-2.517336 -2.56001,-1.365334 -1.36533,-2.602669 -0.21333,-0.768 0.21333,-0.810667 1.024,-2.090669 0.42667,-0.554667 0.59733,-0.341333 3.15734,-1.066668 3.712,-0.08533 3.712,1.152001 0.59734,0.341333 0.42666,0.554667 1.06667,2.090669 0.17067,0.682667 -0.0853,0.682667 -0.34133,0.597334 -0.64,0.512 -0.72533,0.128 -1.66401,-0.128 -0.55466,-0.341333 -0.72534,-1.109335 -1.536,-0.512 h -2.56 l -1.28,0.426667 5.97334,2.432002 2.60267,1.408001 1.36533,2.560002 0.17067,0.810667 v 1.024001 l -0.17067,0.810667 -1.06667,2.090668 -0.42666,0.554667 -0.59734,0.341334 -3.15733,1.066667 -3.71201,0.08533 -0.55466,-0.08533 -3.15734,-1.066667 -0.59733,-0.341334 -0.42667,-0.554667 -1.024,-2.090668 -0.21333,-0.725334 z m 29.35469,-18.986681 0.384,-0.597334 0.55467,-0.384 0.72533,-0.128 h 7.33867 l 3.71201,1.152001 0.68266,0.426667 2.43201,2.560002 1.152,2.346668 1.024,3.114669 0.128,5.802671 -1.152,3.712003 -1.152,2.346668 -2.43201,2.560002 -0.68266,0.426667 -3.71201,1.152001 h -7.33867 l -0.72533,-0.128 -0.55467,-0.384001 -0.384,-0.597333 -0.128,-0.682668 V 33.007553 Z m 4.48,19.840015 h 4.22401 l 2.47467,-0.810668 0.512,-0.554667 0.896,-1.706668 0.896,-2.730668 v -4.693337 l -0.896,-2.730669 -0.896,-1.706668 -0.512,-0.554667 -2.47467,-0.810667 h -4.22401 z m 22.65605,-13.482677 0.55467,-0.128 h 3.28533 l 0.81067,0.170667 2.56,1.408001 2.09067,2.090668 0.42667,0.682667 1.06666,3.157336 0.0853,2.688002 -1.152,3.712003 -0.42667,0.682667 -2.09067,2.090668 -2.56,1.408001 -0.81067,0.170667 h -3.15733 l -0.768,-0.170667 -2.56001,-1.408001 -2.13333,-2.090668 -0.42667,-0.682667 -1.024,-3.157336 -0.0853,-2.688002 0.0853,-0.554667 1.024,-3.157336 0.42667,-0.682667 2.60267,-2.432002 z m -0.34133,5.248004 -0.55467,0.512 -0.81067,2.474669 v 1.536001 l 0.81067,2.474668 0.55467,0.512001 1.45066,0.725334 h 2.30401 l 1.45066,-0.725334 0.55467,-0.512001 0.81067,-2.474668 v -1.536001 l -0.81067,-2.474669 -0.55467,-0.512 -1.45066,-0.725334 h -2.30401 z m 29.90934,-1.109334 0.128,0.682667 -0.128,0.682667 -0.384,0.554667 -1.024,1.066668 -0.59734,0.384 -0.64,0.128 -0.68266,-0.08533 -0.55467,-0.341334 -0.42667,-0.554667 -0.768,-1.578668 -1.19467,-0.554667 h -2.304 l -1.45067,0.725334 -0.55466,0.512 -0.81067,2.474669 v 1.536001 l 0.81067,2.474668 0.55466,0.512001 1.45067,0.725334 h 2.304 l 1.19467,-0.554667 0.768,-1.578668 0.42667,-0.554667 0.55467,-0.341334 0.68266,-0.08533 0.64,0.128 0.59734,0.384 1.024,1.066668 0.384,0.554667 0.128,0.682667 -0.128,0.682667 -0.384,0.597334 -2.09067,2.090668 -2.56,1.408001 -0.81067,0.170667 h -3.15734 l -0.768,-0.170667 -2.09066,-1.066667 -2.60267,-2.432002 -0.42667,-0.682667 -1.024,-3.157336 -0.0853,-2.688002 1.10933,-3.712003 0.42667,-0.682667 2.13333,-2.090668 2.56,-1.408001 0.768,-0.170667 h 3.15734 l 0.81067,0.170667 2.09067,1.066667 0.46933,0.341334 2.304,2.389335 z m 4.01067,-10.496008 0.384,-0.597334 0.55467,-0.384 0.72533,-0.128 1.70667,0.128 0.59733,0.384 0.384,0.597334 0.128,0.682667 V 46.49023 l 7.42401,-7.424006 0.59733,-0.384 1.70667,-0.128 0.72533,0.128 0.55467,0.384 0.384,0.597334 0.128,0.682667 -0.128,0.682667 -0.384,0.597334 -5.67467,5.632004 5.76001,6.570672 0.29866,0.512 0.128,0.810668 -0.17066,0.682667 -0.42667,0.554667 -0.46934,0.298667 -0.72533,0.128 h -2.09067 l -0.72533,-0.170667 -0.64,-0.469334 -4.52267,-5.29067 -1.74934,1.749334 v 2.389335 l -0.128,0.682668 -0.384,0.597333 -0.59733,0.384001 -1.70667,0.128 -0.72533,-0.128 -0.55467,-0.384001 -0.384,-0.597333 -0.128,-0.682668 V 33.007553 Z"
         id="path8" />
      <path
         style="font-weight:800;font-size:21.3333px;font-family:'AVHershey Duplex';-inkscape-font-specification:'AVHershey Duplex Ultra-Bold'"
         d="m 158.75994,84.847549 -1.04533,1.045331 -1.30133,0.703999 -0.384,0.08533 h -2.112 l -0.384,-0.08533 -1.28,-0.703999 -1.06666,-1.045331 -0.68267,-1.279998 -0.576,-1.685331 -0.0427,-2.901329 0.576,-1.855997 0.576,-1.173331 1.21599,-1.279998 1.28,-0.703999 0.384,-0.08533 h 2.112 l 0.384,0.08533 1.30133,0.703999 1.04533,1.045331 0.68267,1.279998 0.0853,0.341333 -0.064,0.405333 -0.192,0.298666 -0.23467,0.149333 -0.32,0.106667 h -0.59733 l -0.32,-0.064 -0.27733,-0.170667 -0.21333,-0.255999 -0.448,-0.917332 -0.32,-0.32 -0.72534,-0.362666 h -1.68533 l -0.64,0.32 -0.85333,1.258665 -0.42666,1.322664 v 2.346663 l 0.42666,1.322665 0.85333,1.258664 0.64,0.32 h 1.68533 l 0.72534,-0.362666 0.32,-0.32 0.448,-0.917332 0.21333,-0.255999 0.27733,-0.170667 0.32,-0.064 h 0.59733 l 0.27734,0.064 0.27733,0.192 0.21333,0.362666 0.0427,0.341333 -0.064,0.298666 z m 2.70934,-6.741323 0.21334,-0.298666 0.27733,-0.192 0.34133,-0.064 0.87467,0.064 0.29866,0.192 0.192,0.298666 0.0427,0.277333 0.29867,-0.213333 1.04533,-0.533333 0.40533,-0.08533 h 1.55733 l 0.36267,0.064 0.27733,0.192 0.192,0.298666 0.064,0.341333 -0.064,0.874665 -0.192,0.277333 -0.27733,0.192 -0.36267,0.08533 h -1.344 l -0.74666,0.362666 -0.832,0.831999 -0.36267,0.725332 v 3.989327 l -0.064,0.341333 -0.29866,0.362666 -0.192,0.128 -0.34133,0.064 -0.87467,-0.064 -0.27733,-0.192 -0.21334,-0.298666 -0.064,-0.341333 v -7.338655 z m 13.26931,7.957321 -1.04533,0.533332 -0.40533,0.08533 h -1.57866 l -0.384,-0.08533 -1.28,-0.703999 -1.06667,-1.045331 -0.21333,-0.341333 -0.55467,-1.855997 0.0427,-1.343998 0.512,-1.578664 0.21333,-0.341333 1.30133,-1.215998 1.04534,-0.533333 0.384,-0.08533 h 1.57866 l 0.40533,0.08533 1.28,0.703999 0.68267,0.746666 0.53333,1.066665 0.0853,0.383999 v 1.578664 l -0.064,0.341333 -0.192,0.298666 -0.27733,0.192 -0.32,0.064 0.59733,0.575999 0.192,0.277333 0.064,0.341333 -0.064,0.341333 -0.192,0.298666 z m -0.81066,-5.375992 -0.256,-0.533332 -0.59733,-0.277333 h -1.152 l -0.72533,0.362666 -0.27734,0.256 -0.064,0.191999 z m -3.24266,2.32533 0.23466,0.725332 0.27734,0.256 0.72533,0.362666 h 1.152 l 0.59733,-0.277333 0.384,-0.789332 0.23467,-0.277333 z m 15.01864,-5.397325 0.27733,0.192 0.192,0.298666 0.064,0.341333 v 7.338655 l -0.064,0.341333 -0.192,0.298666 -0.27733,0.192 -0.36267,0.064 -0.85333,-0.064 -0.29867,-0.192 -0.17066,-0.277333 -0.896,0.447999 -0.384,0.08533 h -1.57866 l -0.40534,-0.08533 -1.04533,-0.533332 -1.28,-1.215998 -0.21333,-0.341333 -0.53333,-1.578664 -0.0427,-1.343998 0.0427,-0.277333 0.53333,-1.578664 0.21333,-0.341333 1.04534,-1.045332 1.27999,-0.703999 0.40534,-0.08533 h 1.57866 l 0.384,0.08533 0.896,0.448 0.17066,-0.277333 0.29867,-0.192 0.34133,-0.064 z m -3.17866,2.26133 h -1.152 l -0.72533,0.362666 -0.27734,0.256 -0.40533,1.237331 v 0.767999 l 0.40533,1.237331 0.27734,0.256 0.72533,0.362666 h 1.152 l 1.408,-0.703999 v -3.071995 z m 5.14133,-1.770664 0.21334,-0.298666 0.27733,-0.192 0.34133,-0.064 h 0.68267 v -2.773329 l 0.064,-0.341332 0.192,-0.298667 0.29866,-0.191999 0.87467,-0.064 0.34133,0.064 0.27733,0.191999 0.192,0.298667 0.0853,0.341332 v 2.773329 h 0.66133 l 0.34133,0.064 0.29867,0.192 0.192,0.298666 0.064,0.874665 -0.064,0.341333 -0.192,0.277333 -0.29867,0.192 -0.34133,0.08533 h -0.66133 v 5.909324 l -0.0853,0.341333 -0.192,0.298666 -0.27733,0.192 -0.87466,0.064 -0.34134,-0.064 -0.29866,-0.192 -0.192,-0.298666 -0.064,-0.341333 V 79.87689 h -0.68267 l -0.34133,-0.08533 -0.27733,-0.192 -0.21334,-0.277333 -0.064,-0.874665 z m 6.99734,-3.967994 0.29866,-0.191999 0.34134,-0.064 0.87466,0.064 0.27733,0.191999 0.53334,0.533333 0.192,0.277333 0.064,0.874665 -0.064,0.341333 -0.192,0.298666 -0.53334,0.511999 -0.27733,0.213333 -0.87466,0.064 -0.34134,-0.064 -0.29866,-0.213333 -0.512,-0.511999 -0.192,-0.298666 -0.0853,-0.853332 0.0853,-0.362666 0.192,-0.277333 z m -0.192,3.967994 0.192,-0.298666 0.29866,-0.192 0.87467,-0.064 0.34133,0.064 0.27733,0.192 0.192,0.298666 0.0853,0.341333 v 7.338655 l -0.0853,0.341333 -0.192,0.298666 -0.27733,0.192 -0.34133,0.064 -0.87467,-0.064 -0.29866,-0.192 -0.192,-0.298666 -0.064,-0.341333 v -7.338655 z m 4.71467,0 0.192,-0.298666 0.27733,-0.192 0.36267,-0.064 0.85333,0.064 0.29867,0.192 0.192,0.298666 0.064,0.277333 0.27733,-0.213333 1.04533,-0.533333 0.40533,-0.08533 h 1.57867 l 0.384,0.08533 1.06666,0.533333 0.27733,0.213333 0.17067,0.298666 0.55467,1.855997 v 5.247992 l -0.064,0.341333 -0.192,0.298666 -0.27734,0.192 -0.87466,0.064 -0.34133,-0.064 -0.29867,-0.192 -0.192,-0.298666 -0.064,-0.341333 v -5.034659 l -0.29867,-0.597332 -0.59733,-0.277333 h -0.61866 l -0.81067,0.405333 -1.13066,0.746665 v 4.757326 l -0.064,0.341333 -0.192,0.298666 -0.29867,0.192 -0.34133,0.064 -0.87467,-0.064 -0.27733,-0.192 -0.192,-0.298666 -0.064,-0.341333 v -7.338655 z m 10.49597,9.429318 0.192,-0.277332 0.27733,-0.213333 0.36267,-0.064 h 1.04533 l 0.34133,0.064 0.27734,0.213333 0.42666,0.405332 0.72533,0.362666 h 0.64 l 0.72533,-0.362666 0.27734,-0.255999 0.384,-1.215998 -0.78934,0.405332 -0.38399,0.08533 h -1.57867 l -0.40533,-0.08533 -1.28,-0.703999 -1.04533,-1.045331 -0.21333,-0.341333 -0.53334,-1.578664 -0.0427,-1.343998 0.576,-1.855997 0.21333,-0.341333 1.28,-1.215998 1.04533,-0.533333 0.40533,-0.08533 h 1.57867 l 0.38399,0.08533 0.896,0.448 0.17067,-0.277333 0.29867,-0.192 0.34133,-0.064 0.87466,0.064 0.27734,0.192 0.192,0.298666 0.064,0.341333 v 7.871987 l -0.55467,1.855997 -0.21333,0.341333 -1.06667,1.045332 -1.28,0.703999 -0.38399,0.08533 h -1.57867 l -0.40533,-0.08533 -1.28,-0.703999 -1.04533,-1.045332 -0.192,-0.298666 -0.064,-0.341333 z m 5.69599,-6.954655 -1.408,-0.703999 h -1.152 l -0.72533,0.362666 -0.27733,0.256 -0.40533,1.237331 v 0.767999 l 0.40533,1.237331 0.27733,0.256 0.72533,0.362666 h 1.152 l 1.408,-0.703999 z m 10.00534,-6.14399 0.192,-0.298667 0.27734,-0.191999 0.36266,-0.064 h 4.18133 l 1.856,0.575999 0.36266,0.213333 0.68267,0.746665 0.53333,1.066665 0.0853,0.384 v 1.578664 l -0.0853,0.405333 -0.53333,1.045331 -0.68267,0.746666 -0.36266,0.234666 -0.93867,0.298666 2.53866,4.26666 0.064,0.341333 -0.064,0.341333 -0.192,0.298666 -0.17066,0.128 -0.34134,0.128 h -0.66133 l -0.29866,-0.04267 -0.256,-0.170666 -0.21334,-0.213333 -2.87999,-4.821326 h -1.216 v 4.351993 l -0.064,0.341333 -0.192,0.298666 -0.29867,0.192 -0.34133,0.064 -0.87466,-0.064 -0.27734,-0.192 -0.192,-0.298666 -0.064,-0.341333 v -11.00798 z m 2.24,4.693325 h 2.624 l 1.08799,-0.362666 0.256,-0.533332 v -1.151998 l -0.256,-0.533333 -1.08799,-0.341333 h -2.624 z m 14.1653,6.933323 -1.04533,0.533332 -0.40533,0.08533 h -1.57867 l -0.384,-0.08533 -1.28,-0.703999 -1.06666,-1.045331 -0.21333,-0.341333 -0.55467,-1.855997 0.0427,-1.343998 0.512,-1.578664 0.21333,-0.341333 1.30133,-1.215998 1.04533,-0.533333 0.384,-0.08533 h 1.57867 l 0.40533,0.08533 1.28,0.703999 0.68266,0.746666 0.53334,1.066665 0.0853,0.383999 v 1.578664 l -0.064,0.341333 -0.192,0.298666 -0.27733,0.192 -0.32,0.064 0.59733,0.575999 0.192,0.277333 0.064,0.341333 -0.064,0.341333 -0.192,0.298666 z m -0.81066,-5.375992 -0.256,-0.533332 -0.59734,-0.277333 h -1.15199 l -0.72534,0.362666 -0.27733,0.256 -0.064,0.191999 z m -3.24267,2.32533 0.23467,0.725332 0.27733,0.256 0.72534,0.362666 h 1.15199 l 0.59734,-0.277333 0.384,-0.789332 0.23466,-0.277333 z m 15.01864,-5.397325 0.27734,0.192 0.192,0.298666 0.064,0.341333 v 7.338655 l -0.064,0.341333 -0.192,0.298666 -0.27734,0.192 -0.36266,0.064 -0.85333,-0.064 -0.29867,-0.192 -0.17067,-0.277333 -0.896,0.447999 -0.384,0.08533 h -1.57866 l -0.40533,-0.08533 -1.04533,-0.533332 -1.28,-1.215998 -0.21333,-0.341333 -0.53334,-1.578664 -0.0427,-1.343998 0.0427,-0.277333 0.53334,-1.578664 0.21333,-0.341333 1.04533,-1.045332 1.28,-0.703999 0.40533,-0.08533 h 1.57866 l 0.384,0.08533 0.896,0.448 0.17067,-0.277333 0.29867,-0.192 0.34133,-0.064 z m -3.17866,2.26133 h -1.152 l -0.72533,0.362666 -0.27733,0.256 -0.40533,1.237331 v 0.767999 l 0.40533,1.237331 0.27733,0.256 0.72533,0.362666 h 1.152 l 1.408,-0.703999 v -3.071995 z m 6.18667,-5.439991 0.128,-0.192 0.36267,-0.298666 0.87466,-0.064 0.34133,0.064 0.27734,0.191999 0.192,0.298667 0.0853,0.341332 v 11.007983 l -0.0853,0.341333 -0.192,0.298666 -0.27734,0.192 -0.34133,0.064 -0.87466,-0.064 -0.29867,-0.192 -0.192,-0.298666 -0.064,-0.341333 V 74.778231 Z m 4.92799,-0.298667 0.29867,-0.191999 0.34133,-0.064 0.87467,0.064 0.27733,0.191999 0.53333,0.533333 0.192,0.277333 0.064,0.874665 -0.064,0.341333 -0.192,0.298666 -0.53333,0.511999 -0.27733,0.213333 -0.87467,0.064 -0.34133,-0.064 -0.29867,-0.213333 -0.512,-0.511999 -0.192,-0.298666 -0.0853,-0.853332 0.0853,-0.362666 0.192,-0.277333 z m -0.192,3.967994 0.192,-0.298666 0.29867,-0.192 0.87466,-0.064 0.34134,0.064 0.27733,0.192 0.192,0.298666 0.0853,0.341333 v 7.338655 l -0.0853,0.341333 -0.192,0.298666 -0.27733,0.192 -0.34134,0.064 -0.87466,-0.064 -0.29867,-0.192 -0.192,-0.298666 -0.064,-0.341333 v -7.338655 z m 3.66935,0 0.21333,-0.298666 0.27733,-0.192 0.34134,-0.064 h 0.68266 v -2.773329 l 0.064,-0.341332 0.192,-0.298667 0.29867,-0.191999 0.87466,-0.064 0.34133,0.064 0.27734,0.191999 0.192,0.298667 0.0853,0.341332 v 2.773329 h 0.66133 l 0.34134,0.064 0.29866,0.192 0.192,0.298666 0.064,0.874665 -0.064,0.341333 -0.192,0.277333 -0.29866,0.192 -0.34134,0.08533 h -0.66133 v 5.909324 l -0.0853,0.341333 -0.192,0.298666 -0.27734,0.192 -0.87466,0.064 -0.34133,-0.064 -0.29867,-0.192 -0.192,-0.298666 -0.064,-0.341333 V 79.87689 h -0.68266 l -0.34134,-0.08533 -0.27733,-0.192 -0.21333,-0.277333 -0.064,-0.874665 z m 5.76,0 0.192,-0.277333 0.27733,-0.213333 0.87467,-0.064 0.34133,0.064 0.29867,0.192 0.192,0.298666 1.79199,4.309327 1.792,-4.309327 0.192,-0.298666 0.29867,-0.192 0.87466,-0.064 0.34133,0.064 0.27734,0.192 0.192,0.298666 0.064,0.362666 -0.064,0.341333 -4.71466,11.007983 -0.192,0.277332 -0.29867,0.192 -0.85333,0.064 -0.34133,-0.064 -0.29867,-0.192 -0.192,-0.319999 -0.064,-0.341333 0.064,-0.319999 1.70666,-3.861328 -2.75199,-6.463989 -0.064,-0.341333 z m 14.14398,0 0.192,-0.298666 0.34133,-0.213333 0.81067,-0.04267 0.36266,0.064 0.29867,0.213333 0.192,0.32 1.25866,3.434661 1.28,-3.519995 0.21334,-0.277332 0.29866,-0.170667 0.256,-0.064 0.34133,0.064 0.29867,0.170667 0.21333,0.277332 1.28,3.519995 1.25867,-3.434661 0.192,-0.32 0.29866,-0.213333 0.36267,-0.064 0.81066,0.04267 0.29867,0.192 0.23467,0.319999 0.064,0.298666 -0.0427,0.341333 -2.624,7.338655 -0.192,0.298666 -0.27733,0.213333 -0.42667,0.08533 -0.31999,-0.08533 -0.29867,-0.213333 -0.17067,-0.298666 -1.25866,-3.434661 -1.25867,3.434661 -0.17066,0.298666 -0.29867,0.213333 -0.32,0.08533 -0.36266,-0.064 -0.29867,-0.170667 -0.23467,-0.362666 -2.62399,-7.338655 -0.0427,-0.319999 z m 13.29065,-3.967994 0.29867,-0.191999 0.34133,-0.064 0.87467,0.064 0.27733,0.191999 0.53333,0.533333 0.192,0.277333 0.064,0.874665 -0.064,0.341333 -0.192,0.298666 -0.53333,0.511999 -0.27733,0.213333 -0.87467,0.064 -0.34133,-0.064 -0.29867,-0.213333 -0.512,-0.511999 -0.192,-0.298666 -0.0853,-0.853332 0.0853,-0.362666 0.192,-0.277333 z m -0.192,3.967994 0.192,-0.298666 0.29867,-0.192 0.87467,-0.064 0.34133,0.064 0.27733,0.192 0.192,0.298666 0.0853,0.341333 v 7.338655 l -0.0853,0.341333 -0.192,0.298666 -0.27733,0.192 -0.34133,0.064 -0.87467,-0.064 -0.29867,-0.192 -0.192,-0.298666 -0.064,-0.341333 v -7.338655 z m 3.66935,0 0.21333,-0.298666 0.27733,-0.192 0.34134,-0.064 h 0.68266 v -2.773329 l 0.064,-0.341332 0.192,-0.298667 0.29867,-0.191999 0.87466,-0.064 0.34134,0.064 0.27733,0.191999 0.192,0.298667 0.0853,0.341332 v 2.773329 h 0.66133 l 0.34134,0.064 0.29866,0.192 0.192,0.298666 0.064,0.874665 -0.064,0.341333 -0.192,0.277333 -0.29866,0.192 -0.34134,0.08533 h -0.66133 v 5.909324 l -0.0853,0.341333 -0.192,0.298666 -0.27733,0.192 -0.87467,0.064 -0.34133,-0.064 -0.29867,-0.192 -0.192,-0.298666 -0.064,-0.341333 V 79.87689 h -0.68266 l -0.34134,-0.08533 -0.27733,-0.192 -0.21333,-0.277333 -0.064,-0.874665 z m 6.80532,-3.669327 0.192,-0.298667 0.27734,-0.191999 0.36266,-0.064 0.85334,0.064 0.29866,0.191999 0.192,0.298667 0.064,0.341332 v 3.605328 l 0.27733,-0.213333 1.04534,-0.533333 0.40533,-0.08533 h 1.57866 l 0.384,0.08533 1.06667,0.533333 0.27733,0.213333 0.17067,0.298666 0.55466,1.855997 v 5.247992 l -0.064,0.341333 -0.192,0.298666 -0.27733,0.192 -0.87467,0.064 -0.34133,-0.064 -0.29866,-0.192 -0.192,-0.298666 -0.064,-0.341333 v -5.034659 l -0.29867,-0.597332 -0.59733,-0.277333 h -0.61867 l -0.81066,0.405333 -1.13067,0.746665 v 4.757326 l -0.064,0.341333 -0.192,0.298666 -0.29866,0.192 -0.85334,0.064 -0.36266,-0.064 -0.27734,-0.192 -0.192,-0.298666 -0.064,-0.341333 V 74.778231 Z m 15.70131,0 0.128,-0.192 0.36267,-0.298666 0.87466,-0.064 0.34134,0.064 0.27733,0.191999 0.192,0.298667 0.0853,0.341332 v 11.007983 l -0.0853,0.341333 -0.192,0.298666 -0.27733,0.192 -0.34134,0.064 -0.87466,-0.064 -0.29867,-0.192 -0.192,-0.298666 -0.064,-0.341333 V 74.778231 Z m 12.224,-0.490666 0.27733,0.191999 0.192,0.298667 0.064,0.341332 v 11.007983 l -0.064,0.341333 -0.192,0.298666 -0.27733,0.192 -0.36267,0.064 -0.85333,-0.064 -0.29866,-0.192 -0.17067,-0.277333 -0.896,0.447999 -0.384,0.08533 h -1.57866 l -0.40534,-0.08533 -1.27999,-0.703999 -1.04534,-1.045331 -0.21333,-0.341333 -0.53333,-1.578664 -0.0427,-1.343998 0.0427,-0.277333 0.53333,-1.578664 0.21333,-0.341333 1.28,-1.215998 1.04533,-0.533333 0.40534,-0.08533 h 1.57866 l 0.384,0.08533 0.81067,0.405333 v -3.263995 l 0.064,-0.341332 0.192,-0.298667 0.29866,-0.191999 0.34133,-0.064 z m -3.17866,5.930657 h -1.152 l -0.72533,0.362666 -0.27734,0.256 -0.40533,1.237331 v 0.767999 l 0.40533,1.237331 0.27734,0.256 0.72533,0.362666 h 1.152 l 1.408,-0.703999 v -3.071995 z m 12.11732,6.186657 -1.04534,0.533332 -0.40533,0.08533 h -1.57866 l -0.384,-0.08533 -1.28,-0.703999 -1.06667,-1.045331 -0.21333,-0.341333 -0.55466,-1.855997 0.0427,-1.343998 0.512,-1.578664 0.21333,-0.341333 1.30134,-1.215998 1.04533,-0.533333 0.384,-0.08533 h 1.57866 l 0.40533,0.08533 1.28,0.703999 0.68267,0.746666 0.53333,1.066665 0.0853,0.383999 v 1.578664 l -0.064,0.341333 -0.192,0.298666 -0.27733,0.192 -0.32,0.064 0.59733,0.575999 0.192,0.277333 0.064,0.341333 -0.064,0.341333 -0.192,0.298666 z m -0.81067,-5.375992 -0.256,-0.533332 -0.59733,-0.277333 h -1.152 l -0.72533,0.362666 -0.27733,0.256 -0.064,0.191999 z m -3.24266,2.32533 0.23467,0.725332 0.27733,0.256 0.72533,0.362666 h 1.152 l 0.59733,-0.277333 0.384,-0.789332 0.23467,-0.277333 z m 15.01865,-5.397325 0.27733,0.192 0.192,0.298666 0.064,0.341333 v 7.338655 l -0.064,0.341333 -0.192,0.298666 -0.27733,0.192 -0.36267,0.064 -0.85333,-0.064 -0.29867,-0.192 -0.17066,-0.277333 -0.896,0.447999 -0.384,0.08533 h -1.57867 l -0.40533,-0.08533 -1.04533,-0.533332 -1.28,-1.215998 -0.21333,-0.341333 -0.53333,-1.578664 -0.0427,-1.343998 0.0427,-0.277333 0.53333,-1.578664 0.21333,-0.341333 1.04533,-1.045332 1.28,-0.703999 0.40533,-0.08533 h 1.57867 l 0.384,0.08533 0.896,0.448 0.17066,-0.277333 0.29867,-0.192 0.34133,-0.064 z m -3.17867,2.26133 h -1.15199 l -0.72534,0.362666 -0.27733,0.256 -0.40533,1.237331 v 0.767999 l 0.40533,1.237331 0.27733,0.256 0.72534,0.362666 h 1.15199 l 1.408,-0.703999 v -3.071995 z m 6.18666,-5.439991 0.128,-0.192 0.36267,-0.298666 0.87467,-0.064 0.34133,0.064 0.27733,0.191999 0.192,0.298667 0.0853,0.341332 v 11.007983 l -0.0853,0.341333 -0.192,0.298666 -0.27733,0.192 -0.34133,0.064 -0.87467,-0.064 -0.29867,-0.192 -0.192,-0.298666 -0.064,-0.341333 V 74.778231 Z m 4.928,-0.298667 0.29866,-0.191999 0.34134,-0.064 0.87466,0.064 0.27733,0.191999 0.53334,0.533333 0.192,0.277333 0.064,0.874665 -0.064,0.341333 -0.192,0.298666 -0.53334,0.511999 -0.27733,0.213333 -0.87466,0.064 -0.34134,-0.064 -0.29866,-0.213333 -0.512,-0.511999 -0.192,-0.298666 -0.0853,-0.853332 0.0853,-0.362666 0.192,-0.277333 z m -0.192,3.967994 0.192,-0.298666 0.29866,-0.192 0.87467,-0.064 0.34133,0.064 0.27733,0.192 0.192,0.298666 0.0853,0.341333 v 7.338655 l -0.0853,0.341333 -0.192,0.298666 -0.27733,0.192 -0.34133,0.064 -0.87467,-0.064 -0.29866,-0.192 -0.192,-0.298666 -0.064,-0.341333 v -7.338655 z m 4.18134,5.823991 0.17067,-0.298666 0.27733,-0.213333 0.34133,-0.106667 0.91733,0.064 0.27734,0.170666 0.34133,0.554666 0.768,0.256 h 1.28 l 0.768,-0.256 0.064,-0.106666 -0.128,-0.341333 -3.05067,-1.258665 -1.27999,-0.682665 -0.68267,-1.301332 -0.10667,-0.383999 0.10667,-0.405333 0.512,-1.045331 0.21333,-0.277333 0.29867,-0.170667 1.57866,-0.533332 1.856,-0.04267 1.856,0.575999 0.29866,0.170667 0.21334,0.277333 0.53333,1.045331 0.0853,0.341333 -0.0427,0.341333 -0.17067,0.298666 -0.32,0.256 -0.36267,0.064 -0.832,-0.064 -0.27733,-0.170667 -0.36266,-0.554665 -0.768,-0.256 h -1.28 l -0.64,0.213333 2.98666,1.215998 1.30133,0.703999 0.68267,1.279998 0.0853,0.405333 v 0.511999 l -0.0853,0.405332 -0.53333,1.045332 -0.21334,0.277333 -0.29866,0.170666 -1.57867,0.533333 -1.85599,0.04267 -0.27734,-0.04267 -1.57866,-0.533333 -0.29867,-0.170666 -0.21333,-0.277333 -0.512,-1.045332 -0.10667,-0.362666 z m 9.45065,-5.823991 0.192,-0.298666 0.29866,-0.192 0.34133,-0.064 0.85334,0.064 0.29866,0.192 0.192,0.298666 0.064,0.277333 0.27734,-0.213333 1.04533,-0.533333 0.40533,-0.08533 h 1.57866 l 0.40534,0.08533 1.04533,0.533333 0.27733,0.213333 0.23467,0.511999 0.78933,-0.725332 1.04533,-0.533333 0.384,-0.08533 h 1.57866 l 0.40534,0.08533 1.04533,0.533333 0.27733,0.213333 0.17067,0.298666 0.576,1.855997 v 5.247992 l -0.064,0.341333 -0.192,0.298666 -0.29867,0.192 -0.87466,0.064 -0.34134,-0.064 -0.27733,-0.192 -0.21333,-0.298666 -0.064,-0.341333 v -5.034659 l -0.29867,-0.597332 -0.576,-0.277333 h -0.64 l -0.81066,0.405333 -1.10933,0.746665 v 4.757326 l -0.0853,0.341333 -0.192,0.298666 -0.27733,0.192 -0.87466,0.064 -0.34134,-0.064 -0.29866,-0.192 -0.192,-0.298666 -0.064,-0.341333 v -5.034659 l -0.29867,-0.597332 -0.59733,-0.277333 h -0.61867 l -0.81066,0.405333 -1.13067,0.746665 v 4.757326 l -0.064,0.341333 -0.192,0.298666 -0.29866,0.192 -0.85334,0.064 -0.34133,-0.064 -0.29866,-0.192 -0.192,-0.298666 -0.064,-0.341333 v -7.338655 z m 16.98128,5.482658 0.29867,-0.213333 0.87466,-0.064 0.34133,0.064 0.27734,0.213333 0.53333,0.511999 0.192,0.298666 0.064,0.853332 -0.064,0.362667 -0.192,0.277332 -0.53333,0.533333 -0.27734,0.192 -0.87466,0.064 -0.34133,-0.064 -0.29867,-0.192 -0.512,-0.533333 -0.192,-0.277332 -0.0853,-0.874666 0.0853,-0.341333 0.192,-0.298666 z"
         id="path9" />
    </g>
  </g>
</svg>
