<?xml version="1.0" encoding="UTF-8" standalone="no"?>
<!-- Created with Inkscape (http://www.inkscape.org/) -->

<svg
   width="120"
   height="120"
   viewBox="0 0 120 120"
   version="1.1"
   id="svg1"
   xmlns="http://www.w3.org/2000/svg"
   xmlns:svg="http://www.w3.org/2000/svg">
  <defs
     id="defs1" />
  <path
     d="M 20.746419,55.024444 H 10.618716 V 21.288716 h 10.127703 v 3.35262 h -6.216313 v 27.03049 h 6.216313 z"
     id="path10"
     style="font-weight:bold;font-size:26.6667px;font-family:'Sarasa Term SC';-inkscape-font-specification:'Sarasa Term SC Bold';fill:#cccccc;stroke:#808080;stroke-width:1.23743;stroke-linecap:square" />
  <path
     style="font-weight:bold;font-size:26.6667px;font-family:'Sarasa Term SC';-inkscape-font-specification:'Sarasa Term SC Bold';fill:#0078d6;stroke:#4659bf;stroke-width:1.23743;stroke-linecap:square"
     d="m 35.937974,50.030439 -4.295543,-10.232472 -1.01277,1.816002 v 8.41647 H 26.753195 V 24.361951 h 3.876466 v 10.372164 l 2.02554,-3.981235 3.178004,-6.390929 h 4.260619 l -6.425852,11.699243 6.425852,13.969245 z"
     id="path11" />
  <path
     d="m 97.367724,55.024444 v -3.352618 h 6.216306 v -27.03049 h -6.216306 v -3.35262 h 10.127716 v 33.735728 z"
     id="path12"
     style="font-weight:bold;font-size:26.6667px;font-family:'Sarasa Term SC';-inkscape-font-specification:'Sarasa Term SC Bold';fill:#cccccc;stroke:#808080;stroke-width:1.23743;stroke-linecap:square" />
  <path
     d="M 20.746419,98.678336 H 10.618716 V 64.942609 h 10.127703 v 3.352618 h -6.216313 v 27.03049 h 6.216313 z"
     id="path13"
     style="font-weight:bold;font-size:26.6667px;font-family:'Sarasa Term SC';-inkscape-font-specification:'Sarasa Term SC Bold';fill:#cccccc;stroke:#808080;stroke-width:1.23743;stroke-linecap:square" />
  <path
     style="font-weight:bold;font-size:26.6667px;font-family:'Sarasa Term SC';-inkscape-font-specification:'Sarasa Term SC Bold';fill:#cc2a24;stroke:#8c3211;stroke-width:1.23743;stroke-linecap:square"
     d="m 37.858746,96.47818 h -4.994005 q -0.942925,0 -1.885849,-0.209539 -0.942924,-0.174615 -1.746155,-0.663539 -0.803232,-0.488923 -1.431848,-1.257231 -0.593694,-0.733386 -0.977848,-1.606465 -0.349231,-0.873077 -0.488923,-1.816001 -0.139692,-0.942924 -0.139692,-1.885848 V 74.581388 q 0,-0.942925 0.139692,-1.885849 0.139692,-0.942924 0.488923,-1.816001 0.384154,-0.873079 0.977848,-1.606463 0.628616,-0.768309 1.431848,-1.257232 0.803231,-0.488924 1.746155,-0.66354 0.942924,-0.209538 1.885849,-0.209538 0.942922,0 1.850924,0.209538 0.908001,0.174616 1.711233,0.66354 0.803231,0.454 1.396924,1.152463 0.628617,0.698462 1.01277,1.571539 0.384155,0.838155 0.523847,1.746156 0.174615,0.908 0.174615,1.850925 v 11.245243 q 0,0.593693 -0.06984,1.222308 -0.06984,0.628617 -0.279385,1.22231 -0.209538,0.593693 -0.55877,1.117539 -0.349231,0.523847 -0.873077,0.908001 -0.488924,0.349231 -1.11754,0.523847 -0.593693,0.139693 -1.222308,0.139693 -0.628617,0 -1.257233,-0.139693 -0.593692,-0.174616 -1.11754,-0.523847 -0.488923,-0.384154 -0.838155,-0.908001 -0.349231,-0.523846 -0.558769,-1.117539 -0.209539,-0.593693 -0.314308,-1.22231 -0.06984,-0.628615 -0.06984,-1.222308 v -6.076622 q 0,-0.663539 0.06984,-1.292155 0.104769,-0.628617 0.314308,-1.222309 0.244462,-0.593693 0.593693,-1.11754 0.384155,-0.523846 0.908001,-0.873077 0.558769,-0.349231 1.152462,-0.488924 0.628617,-0.174616 1.257232,-0.174616 h 0.838155 q 0,-0.733385 -0.209538,-1.431847 -0.209539,-0.733386 -0.698463,-1.292155 -0.454,-0.593693 -1.187386,-0.838155 -0.698462,-0.279386 -1.431847,-0.279386 -0.768309,0 -1.501695,0.314309 -0.733384,0.279384 -1.222308,0.873077 -0.454,0.593693 -0.628616,1.362001 -0.174615,0.76831 -0.174615,1.536618 v 14.458169 q 0,0.768309 0.174615,1.536617 0.174616,0.768308 0.628616,1.362001 0.488924,0.593693 1.222308,0.908001 0.733386,0.279385 1.501695,0.279385 h 4.994006 z m -2.444618,-8.451393 q 0.244462,0 0.419077,-0.174616 0.174616,-0.174615 0.279385,-0.384154 0.104769,-0.244462 0.139691,-0.454 0.06984,-0.244462 0.06984,-0.488924 0.03493,-0.244462 0.03493,-0.488924 0.03493,-0.244462 0.03493,-0.454 v -8.556164 h -0.838155 q -0.349231,0 -0.593692,0.314309 -0.244462,0.314308 -0.384154,0.698463 -0.10477,0.349231 -0.139693,0.733384 -0.03493,0.349231 -0.03493,0.733386 v 6.076622 q 0,0.209538 0,0.454 0.03493,0.244462 0.06984,0.488924 0.03493,0.244462 0.06984,0.488924 0.06984,0.209538 0.174616,0.454 0.104769,0.209539 0.279384,0.384154 0.174617,0.174616 0.419079,0.174616 z"
     id="path14" />
  <path
     d="m 44.983061,98.678336 v -3.352619 h 6.216313 v -27.03049 h -6.216313 v -3.352618 h 10.127703 v 33.735727 z"
     id="path15"
     style="font-weight:bold;font-size:26.6667px;font-family:'Sarasa Term SC';-inkscape-font-specification:'Sarasa Term SC Bold';fill:#cccccc;stroke:#808080;stroke-width:1.23743;stroke-linecap:square" />
  <path
     d="m 65.859801,98.553829 v -4.854313 c -0.745027,-0.116411 -1.466771,-0.360872 -2.165234,-0.733385 -0.67518,-0.372514 -1.257231,-0.849796 -1.746155,-1.431848 -0.465642,-0.605335 -0.814873,-1.280515 -1.047694,-2.02554 -0.23282,-0.745027 -0.349231,-1.490054 -0.349231,-2.23508 v -0.349231 h 3.876466 v 0.174616 c 0,0.325949 0.03493,0.651898 0.104769,0.977847 0.09313,0.325949 0.209539,0.640258 0.349231,0.942924 0.162975,0.279384 0.372514,0.535487 0.628617,0.768308 0.256102,0.20954 0.535487,0.372513 0.838154,0.488924 v -6.84493 C 65.62698,83.08289 64.928518,82.687094 64.253337,82.244735 63.601439,81.779093 63.019387,81.243606 62.507181,80.638272 62.018259,80.009655 61.622463,79.322834 61.319796,78.577809 61.040411,77.809501 60.900718,77.02955 60.900718,76.23796 c 0,-0.721745 0.104769,-1.420207 0.314308,-2.095387 0.232821,-0.698462 0.570411,-1.315437 1.012771,-1.850925 0.465642,-0.535488 1.01277,-0.966206 1.641387,-1.292155 0.651897,-0.349231 1.315436,-0.582052 1.990617,-0.698462 v -4.92416 h 3.422464 v 4.889236 c 0.721745,0.139693 1.408566,0.407436 2.060465,0.803232 0.67518,0.372513 1.233949,0.861436 1.676309,1.46677 0.442359,0.582052 0.768308,1.233951 0.977847,1.955695 0.209539,0.721744 0.314308,1.455129 0.314308,2.200156 v 0.349231 h -3.876466 v -0.174616 c 0,-0.302666 -0.03493,-0.605334 -0.104769,-0.908 -0.04656,-0.325949 -0.139689,-0.628617 -0.279384,-0.908001 -0.139693,-0.279386 -0.314309,-0.535489 -0.523848,-0.768309 -0.209538,-0.232821 -0.454,-0.419077 -0.733385,-0.55877 v 6.705238 c 0.745026,0.325949 1.45513,0.721745 2.13031,1.187387 0.698462,0.442359 1.315437,0.977846 1.850925,1.606463 0.535487,0.628616 0.954565,1.327078 1.257231,2.095386 0.325949,0.768308 0.488924,1.57154 0.488924,2.409695 0,0.721744 -0.128054,1.431848 -0.384153,2.13031 -0.232821,0.698462 -0.593693,1.327079 -1.082617,1.885848 -0.465641,0.535488 -1.036052,0.966207 -1.711232,1.292156 -0.675181,0.325948 -1.362002,0.547128 -2.060465,0.663538 v 4.854313 z m 0.488923,-19.417251 v -5.413083 c -0.232821,0.09313 -0.454001,0.232821 -0.663539,0.419078 -0.209539,0.162975 -0.384153,0.360872 -0.523846,0.593693 -0.116412,0.232821 -0.20954,0.477283 -0.279386,0.733385 -0.06984,0.256103 -0.104769,0.523847 -0.104769,0.803231 0,0.55877 0.151334,1.094258 0.454001,1.606464 0.302666,0.512205 0.675179,0.931283 1.117539,1.257232 z m 2.444618,11.140473 c 0.256103,-0.06984 0.500565,-0.186256 0.733385,-0.349231 0.256103,-0.186256 0.465642,-0.395795 0.628617,-0.628616 0.162975,-0.23282 0.279385,-0.488923 0.349231,-0.768309 0.09313,-0.279384 0.139693,-0.558769 0.139693,-0.838155 0,-0.325949 -0.04657,-0.640256 -0.139693,-0.942923 -0.09313,-0.302667 -0.232821,-0.582053 -0.419078,-0.838155 -0.162975,-0.256103 -0.360872,-0.488923 -0.593693,-0.698462 -0.209539,-0.232821 -0.442359,-0.430718 -0.698462,-0.593693 z"
     style="font-weight:bold;font-size:26.6667px;font-family:'Sarasa Term SC';-inkscape-font-specification:'Sarasa Term SC Bold';fill:#cccccc;stroke:#808080;stroke-width:1.23743;stroke-linecap:square"
     id="path1" />
  <path
     d="M 93.737714,98.79075 V 95.438131 H 107.07834 V 98.79075 Z"
     style="font-weight:bold;font-size:26.6667px;font-family:'Sarasa Term SC';-inkscape-font-specification:'Sarasa Term SC Bold';fill:#cccccc;stroke:#808080;stroke-width:1.23743;stroke-linecap:square"
     id="path1-1" />
  <path
     d="m 85.389674,50.04303 c -0.593019,0 -1.186037,-0.04562 -1.779055,-0.136849 -0.57021,-0.09124 -1.129015,-0.262297 -1.676417,-0.513189 -0.524593,-0.2737 -1.014974,-0.604422 -1.471143,-0.992166 -0.433359,-0.410552 -0.798295,-0.86672 -1.094803,-1.368504 -0.2737,-0.524593 -0.478977,-1.071996 -0.615828,-1.642206 -0.13685,-0.593018 -0.205275,-1.186036 -0.205275,-1.779054 v -0.307915 h 3.7976 v 0.136851 c 0,0.43336 0.05702,0.855315 0.171063,1.265866 0.136851,0.410552 0.342126,0.786891 0.615826,1.129016 0.273702,0.319317 0.604424,0.558806 0.992165,0.718465 0.410552,0.136851 0.832507,0.205276 1.265867,0.205276 0.410552,0 0.821103,-0.06842 1.231655,-0.205276 0.41055,-0.159659 0.752674,-0.399148 1.026383,-0.718465 0.273696,-0.319317 0.467566,-0.68425 0.581609,-1.094802 0.136855,-0.410553 0.205276,-0.821103 0.205276,-1.231654 0,-0.57021 -0.114056,-1.117613 -0.342131,-1.642205 -0.228073,-0.524593 -0.535986,-0.980762 -0.923736,-1.368505 -0.387744,-0.410552 -0.832507,-0.752678 -1.334292,-1.026378 -0.478976,-0.2737 -0.969357,-0.535997 -1.471142,-0.78689 -0.501784,-0.2737 -0.992166,-0.558805 -1.471142,-0.855315 -0.456168,-0.319318 -0.889527,-0.672847 -1.300078,-1.060591 -0.410552,-0.387742 -0.786891,-0.798293 -1.129017,-1.231654 -0.342126,-0.456168 -0.62723,-0.935145 -0.855315,-1.436929 -0.228084,-0.524592 -0.41055,-1.060591 -0.547401,-1.607992 -0.114043,-0.547402 -0.171064,-1.094804 -0.171064,-1.642205 0,-0.593018 0.05702,-1.174632 0.171064,-1.744843 0.136851,-0.57021 0.330721,-1.106208 0.581614,-1.607993 0.2737,-0.524592 0.615827,-0.992165 1.026379,-1.402717 0.433359,-0.433359 0.900932,-0.775485 1.402715,-1.026377 0.524594,-0.2737 1.071996,-0.456169 1.642205,-0.547402 0.59302,-0.114043 1.174634,-0.171064 1.744844,-0.171064 0.57021,0 1.14042,0.05702 1.71063,0.171064 0.593025,0.09124 1.140417,0.273702 1.642201,0.547402 0.524593,0.250892 0.992173,0.581614 1.402723,0.992165 0.41055,0.410552 0.75268,0.878124 1.026377,1.402717 0.273696,0.501785 0.467566,1.037782 0.581609,1.607992 0.136855,0.57021 0.205276,1.14042 0.205276,1.710631 v 0.307913 h -3.797595 v -0.13685 c 0,-0.410552 -0.05697,-0.809699 -0.171058,-1.197441 -0.09122,-0.410551 -0.262304,-0.775486 -0.513189,-1.094804 -0.228086,-0.342126 -0.536003,-0.593018 -0.923745,-0.752678 -0.364935,-0.182466 -0.752679,-0.2737 -1.163229,-0.2737 -0.410552,0 -0.809698,0.07982 -1.197442,0.239489 -0.364935,0.159659 -0.672847,0.399147 -0.92374,0.718463 -0.228084,0.319318 -0.399147,0.684253 -0.513188,1.094805 -0.09124,0.387743 -0.136851,0.786889 -0.136851,1.19744 0,0.547402 0.114043,1.0834 0.342126,1.607993 0.228084,0.524593 0.535997,0.992164 0.92374,1.402717 0.387743,0.41055 0.821103,0.752677 1.300079,1.026378 0.501785,0.2737 0.992166,0.547402 1.471143,0.821103 0.501782,0.250891 0.980761,0.535996 1.436933,0.855314 0.478972,0.296509 0.923739,0.638635 1.33429,1.026379 0.43335,0.364934 0.809696,0.775485 1.129014,1.231652 0.34213,0.456169 0.627232,0.935146 0.855319,1.436931 0.250885,0.501784 0.433349,1.026378 0.547393,1.57378 0.136854,0.5474 0.205275,1.106206 0.205275,1.676417 0,0.593018 -0.06838,1.186037 -0.205275,1.779056 -0.136855,0.570209 -0.353523,1.117611 -0.650031,1.642204 -0.273696,0.524594 -0.627232,0.992166 -1.060593,1.402717 -0.433362,0.410552 -0.923739,0.741273 -1.471145,0.992165 -0.524594,0.250893 -1.083392,0.421956 -1.676417,0.513189 -0.593019,0.114044 -1.186037,0.171063 -1.779056,0.171063 z"
     style="font-weight:bold;font-size:26.6667px;font-family:'Sarasa Term SC';-inkscape-font-specification:'Sarasa Term SC Bold';fill:#0078d6;stroke:#4659bf;stroke-width:1.21225;stroke-linecap:square"
     id="path1-9" />
  <path
     d="M 66.309649,50.030442 V 39.309046 L 60.687028,24.361954 h 4.15585 l 3.422465,10.162626 3.422466,-10.162626 h 4.15585 l -5.622622,14.947092 v 10.721396 z"
     style="font-weight:bold;font-size:26.6667px;font-family:'Sarasa Term SC';-inkscape-font-specification:'Sarasa Term SC Bold';fill:#0078d6;stroke:#4659bf;stroke-width:1.23743;stroke-linecap:square"
     id="path1-6" />
  <path
     d="M 43.878875,50.030438 V 24.36195 h 13.061243 v 3.352618 H 47.755339 V 35.0135 h 7.194162 v 3.352618 h -7.194162 v 8.311702 h 9.184779 v 3.352618 z"
     style="font-weight:bold;font-size:26.6667px;font-family:'Sarasa Term SC';-inkscape-font-specification:'Sarasa Term SC Bold';fill:#0078d6;stroke:#4659bf;stroke-width:1.23743;stroke-linecap:square"
     id="path1-8" />
</svg>
