<?xml version="1.0" encoding="UTF-8" standalone="no"?>
<svg
   xml:space="preserve"
   width="696"
   height="696"
   viewBox="0 0 696 696"
   version="1.1"
   id="svg250"
   xmlns="http://www.w3.org/2000/svg"
   xmlns:svg="http://www.w3.org/2000/svg"><defs
   id="defs250" />

<g
   fill="#000000"
   id="g250">
<g
   transform="matrix(4.12,0,0,4.12,288,48)"
   id="g1"><circle
     cx="3"
     cy="3"
     r="3"
     id="circle1" /></g>
<g
   transform="matrix(4.12,0,0,4.12,336,48)"
   id="g2"><path
     d="M 6,6 H 0 V 3 C 0,1.3 1.3,0 3,0 h 3 z"
     id="path1" /></g>
<g
   transform="matrix(4.12,0,0,4.12,360,48)"
   id="g3"><path
     d="M 6,6 H 0 V 0 h 3 c 1.7,0 3,1.3 3,3 z"
     id="path2" /></g>
<g
   transform="matrix(4.12,0,0,4.12,432,48)"
   id="g4"><path
     d="M 6,6 H 0 V 3 C 0,1.3 1.3,0 3,0 v 0 c 1.7,0 3,1.3 3,3 z"
     id="path3" /></g>
<g
   transform="matrix(4.12,0,0,4.12,312,72)"
   id="g5"><path
     d="M 6,6 H 0 V 3 C 0,1.3 1.3,0 3,0 h 3 z"
     id="path4" /></g>
<g
   transform="matrix(4.12,0,0,4.12,336,72)"
   id="g6"><rect
     width="6"
     height="6"
     id="rect5"
     x="0"
     y="0" /></g>
<g
   transform="matrix(4.12,0,0,4.12,360,72)"
   id="g7"><rect
     width="6"
     height="6"
     id="rect6"
     x="0"
     y="0" /></g>
<g
   transform="matrix(4.12,0,0,4.12,384,72)"
   id="g8"><rect
     width="6"
     height="6"
     id="rect7"
     x="0"
     y="0" /></g>
<g
   transform="matrix(4.12,0,0,4.12,408,72)"
   id="g9"><rect
     width="6"
     height="6"
     id="rect8"
     x="0"
     y="0" /></g>
<g
   transform="matrix(4.12,0,0,4.12,432,72)"
   id="g10"><rect
     width="6"
     height="6"
     id="rect9"
     x="0"
     y="0" /></g>
<g
   transform="matrix(4.12,0,0,4.12,240,96)"
   id="g11"><path
     d="M 6,6 H 0 V 3 C 0,1.3 1.3,0 3,0 v 0 c 1.7,0 3,1.3 3,3 z"
     id="path10" /></g>
<g
   transform="matrix(4.12,0,0,4.12,288,96)"
   id="g12"><path
     d="M 6,6 H 0 V 3 C 0,1.3 1.3,0 3,0 h 3 z"
     id="path11" /></g>
<g
   transform="matrix(4.12,0,0,4.12,312,96)"
   id="g13"><rect
     width="6"
     height="6"
     id="rect12"
     x="0"
     y="0" /></g>
<g
   transform="matrix(4.12,0,0,4.12,336,96)"
   id="g14"><rect
     width="6"
     height="6"
     id="rect13"
     x="0"
     y="0" /></g>
<g
   transform="matrix(4.12,0,0,4.12,384,96)"
   id="g15"><path
     d="M 3,6 V 6 C 1.3,6 0,4.7 0,3 V 0 H 6 V 3 C 6,4.7 4.7,6 3,6 Z"
     id="path14" /></g>
<g
   transform="matrix(4.12,0,0,4.12,432,96)"
   id="g16"><path
     d="M 3,6 V 6 C 1.3,6 0,4.7 0,3 V 0 H 6 V 3 C 6,4.7 4.7,6 3,6 Z"
     id="path15" /></g>
<g
   transform="matrix(4.12,0,0,4.12,240,120)"
   id="g17"><rect
     width="6"
     height="6"
     id="rect16"
     x="0"
     y="0" /></g>
<g
   transform="matrix(4.12,0,0,4.12,264,120)"
   id="g18"><rect
     width="6"
     height="6"
     id="rect17"
     x="0"
     y="0" /></g>
<g
   transform="matrix(4.12,0,0,4.12,288,120)"
   id="g19"><path
     d="M 3,6 H 0 V 0 H 6 V 3 C 6,4.7 4.7,6 3,6 Z"
     id="path18" /></g>
<g
   transform="matrix(4.12,0,0,4.12,336,120)"
   id="g20"><path
     d="M 6,6 H 3 C 1.3,6 0,4.7 0,3 V 0 h 6 z"
     id="path19" /></g>
<g
   transform="matrix(4.12,0,0,4.12,360,120)"
   id="g21"><path
     d="M 6,6 H 0 V 0 h 3 c 1.7,0 3,1.3 3,3 z"
     id="path20" /></g>
<g
   transform="matrix(4.12,0,0,4.12,240,144)"
   id="g22"><rect
     width="6"
     height="6"
     id="rect21"
     x="0"
     y="0" /></g>
<g
   transform="matrix(4.12,0,0,4.12,312,144)"
   id="g23"><circle
     cx="3"
     cy="3"
     r="3"
     id="circle22" /></g>
<g
   transform="matrix(4.12,0,0,4.12,360,144)"
   id="g24"><rect
     width="6"
     height="6"
     id="rect23"
     x="0"
     y="0" /></g>
<g
   transform="matrix(4.12,0,0,4.12,432,144)"
   id="g25"><path
     d="M 6,6 H 0 V 3 C 0,1.3 1.3,0 3,0 v 0 c 1.7,0 3,1.3 3,3 z"
     id="path24" /></g>
<g
   transform="matrix(4.12,0,0,4.12,240,168)"
   id="g26"><rect
     width="6"
     height="6"
     id="rect25"
     x="0"
     y="0" /></g>
<g
   transform="matrix(4.12,0,0,4.12,264,168)"
   id="g27"><rect
     width="6"
     height="6"
     id="rect26"
     x="0"
     y="0" /></g>
<g
   transform="matrix(4.12,0,0,4.12,288,168)"
   id="g28"><path
     d="M 6,6 H 0 V 0 h 3 c 1.7,0 3,1.3 3,3 z"
     id="path27" /></g>
<g
   transform="matrix(4.12,0,0,4.12,360,168)"
   id="g29"><path
     d="M 6,6 H 3 C 1.3,6 0,4.7 0,3 V 0 h 6 z"
     id="path28" /></g>
<g
   transform="matrix(4.12,0,0,4.12,384,168)"
   id="g30"><rect
     width="6"
     height="6"
     id="rect29"
     x="0"
     y="0" /></g>
<g
   transform="matrix(4.12,0,0,4.12,408,168)"
   id="g31"><rect
     width="6"
     height="6"
     id="rect30"
     x="0"
     y="0" /></g>
<g
   transform="matrix(4.12,0,0,4.12,432,168)"
   id="g32"><rect
     width="6"
     height="6"
     id="rect31"
     x="0"
     y="0" /></g>
<g
   transform="matrix(4.12,0,0,4.12,240,192)"
   id="g33"><rect
     width="6"
     height="6"
     id="rect32"
     x="0"
     y="0" /></g>
<g
   transform="matrix(4.12,0,0,4.12,288,192)"
   id="g34"><path
     d="M 3,6 V 6 C 1.3,6 0,4.7 0,3 V 0 H 6 V 3 C 6,4.7 4.7,6 3,6 Z"
     id="path33" /></g>
<g
   transform="matrix(4.12,0,0,4.12,336,192)"
   id="g35"><path
     d="M 6,6 H 0 V 3 C 0,1.3 1.3,0 3,0 v 0 c 1.7,0 3,1.3 3,3 z"
     id="path34" /></g>
<g
   transform="matrix(4.12,0,0,4.12,384,192)"
   id="g36"><path
     d="M 3,6 V 6 C 1.3,6 0,4.7 0,3 V 0 H 6 V 3 C 6,4.7 4.7,6 3,6 Z"
     id="path35" /></g>
<g
   transform="matrix(4.12,0,0,4.12,432,192)"
   id="g37"><rect
     width="6"
     height="6"
     id="rect36"
     x="0"
     y="0" /></g>
<g
   transform="matrix(4.12,0,0,4.12,240,216)"
   id="g38"><path
     d="M 3,6 V 6 C 1.3,6 0,4.7 0,3 V 0 H 6 V 3 C 6,4.7 4.7,6 3,6 Z"
     id="path37" /></g>
<g
   transform="matrix(4.12,0,0,4.12,336,216)"
   id="g39"><rect
     width="6"
     height="6"
     id="rect38"
     x="0"
     y="0" /></g>
<g
   transform="matrix(4.12,0,0,4.12,432,216)"
   id="g40"><path
     d="M 3,6 V 6 C 1.3,6 0,4.7 0,3 V 0 H 6 V 3 C 6,4.7 4.7,6 3,6 Z"
     id="path39" /></g>
<g
   transform="matrix(4.12,0,0,4.12,48,240)"
   id="g41"><circle
     cx="3"
     cy="3"
     r="3"
     id="circle40" /></g>
<g
   transform="matrix(4.12,0,0,4.12,96,240)"
   id="g42"><path
     d="M 6,6 H 3 C 1.3,6 0,4.7 0,3 V 3 C 0,1.3 1.3,0 3,0 h 3 z"
     id="path41" /></g>
<g
   transform="matrix(4.12,0,0,4.12,120,240)"
   id="g43"><rect
     width="6"
     height="6"
     id="rect42"
     x="0"
     y="0" /></g>
<g
   transform="matrix(4.12,0,0,4.12,144,240)"
   id="g44"><rect
     width="6"
     height="6"
     id="rect43"
     x="0"
     y="0" /></g>
<g
   transform="matrix(4.12,0,0,4.12,168,240)"
   id="g45"><rect
     width="6"
     height="6"
     id="rect44"
     x="0"
     y="0" /></g>
<g
   transform="matrix(4.12,0,0,4.12,192,240)"
   id="g46"><path
     d="M 3,6 H 0 V 0 H 3 C 4.7,0 6,1.3 6,3 V 3 C 6,4.7 4.7,6 3,6 Z"
     id="path45" /></g>
<g
   transform="matrix(4.12,0,0,4.12,264,240)"
   id="g47"><path
     d="M 6,6 H 3 C 1.3,6 0,4.7 0,3 V 3 C 0,1.3 1.3,0 3,0 h 3 z"
     id="path46" /></g>
<g
   transform="matrix(4.12,0,0,4.12,288,240)"
   id="g48"><path
     d="M 6,6 H 0 V 0 h 3 c 1.7,0 3,1.3 3,3 z"
     id="path47" /></g>
<g
   transform="matrix(4.12,0,0,4.12,336,240)"
   id="g49"><rect
     width="6"
     height="6"
     id="rect48"
     x="0"
     y="0" /></g>
<g
   transform="matrix(4.12,0,0,4.12,360,240)"
   id="g50"><rect
     width="6"
     height="6"
     id="rect49"
     x="0"
     y="0" /></g>
<g
   transform="matrix(4.12,0,0,4.12,384,240)"
   id="g51"><path
     d="M 6,6 H 0 V 0 h 3 c 1.7,0 3,1.3 3,3 z"
     id="path50" /></g>
<g
   transform="matrix(4.12,0,0,4.12,480,240)"
   id="g52"><path
     d="M 6,6 H 3 C 1.3,6 0,4.7 0,3 V 3 C 0,1.3 1.3,0 3,0 h 3 z"
     id="path51" /></g>
<g
   transform="matrix(4.12,0,0,4.12,504,240)"
   id="g53"><rect
     width="6"
     height="6"
     id="rect52"
     x="0"
     y="0" /></g>
<g
   transform="matrix(4.12,0,0,4.12,528,240)"
   id="g54"><rect
     width="6"
     height="6"
     id="rect53"
     x="0"
     y="0" /></g>
<g
   transform="matrix(4.12,0,0,4.12,552,240)"
   id="g55"><rect
     width="6"
     height="6"
     id="rect54"
     x="0"
     y="0" /></g>
<g
   transform="matrix(4.12,0,0,4.12,576,240)"
   id="g56"><path
     d="M 3,6 H 0 V 0 H 3 C 4.7,0 6,1.3 6,3 V 3 C 6,4.7 4.7,6 3,6 Z"
     id="path55" /></g>
<g
   transform="matrix(4.12,0,0,4.12,144,264)"
   id="g57"><path
     d="M 6,6 H 3 C 1.3,6 0,4.7 0,3 V 0 h 6 z"
     id="path56" /></g>
<g
   transform="matrix(4.12,0,0,4.12,168,264)"
   id="g58"><rect
     width="6"
     height="6"
     id="rect57"
     x="0"
     y="0" /></g>
<g
   transform="matrix(4.12,0,0,4.12,216,264)"
   id="g59"><circle
     cx="3"
     cy="3"
     r="3"
     id="circle58" /></g>
<g
   transform="matrix(4.12,0,0,4.12,288,264)"
   id="g60"><path
     d="M 3,6 V 6 C 1.3,6 0,4.7 0,3 V 0 H 6 V 3 C 6,4.7 4.7,6 3,6 Z"
     id="path59" /></g>
<g
   transform="matrix(4.12,0,0,4.12,336,264)"
   id="g61"><path
     d="M 3,6 V 6 C 1.3,6 0,4.7 0,3 V 0 H 6 V 3 C 6,4.7 4.7,6 3,6 Z"
     id="path60" /></g>
<g
   transform="matrix(4.12,0,0,4.12,384,264)"
   id="g62"><rect
     width="6"
     height="6"
     id="rect61"
     x="0"
     y="0" /></g>
<g
   transform="matrix(4.12,0,0,4.12,432,264)"
   id="g63"><path
     d="M 6,6 H 0 V 3 C 0,1.3 1.3,0 3,0 v 0 c 1.7,0 3,1.3 3,3 z"
     id="path62" /></g>
<g
   transform="matrix(4.12,0,0,4.12,504,264)"
   id="g64"><rect
     width="6"
     height="6"
     id="rect63"
     x="0"
     y="0" /></g>
<g
   transform="matrix(4.12,0,0,4.12,600,264)"
   id="g65"><path
     d="M 6,6 H 0 V 3 C 0,1.3 1.3,0 3,0 v 0 c 1.7,0 3,1.3 3,3 z"
     id="path64" /></g>
<g
   transform="matrix(4.12,0,0,4.12,72,288)"
   id="g66"><circle
     cx="3"
     cy="3"
     r="3"
     id="circle65" /></g>
<g
   transform="matrix(4.12,0,0,4.12,120,288)"
   id="g67"><circle
     cx="3"
     cy="3"
     r="3"
     id="circle66" /></g>
<g
   transform="matrix(4.12,0,0,4.12,168,288)"
   id="g68"><rect
     width="6"
     height="6"
     id="rect67"
     x="0"
     y="0" /></g>
<g
   transform="matrix(4.12,0,0,4.12,192,288)"
   id="g69"><path
     d="M 3,6 H 0 V 0 H 3 C 4.7,0 6,1.3 6,3 V 3 C 6,4.7 4.7,6 3,6 Z"
     id="path68" /></g>
<g
   transform="matrix(4.12,0,0,4.12,240,288)"
   id="g70"><path
     d="M 6,6 H 0 V 3 C 0,1.3 1.3,0 3,0 v 0 c 1.7,0 3,1.3 3,3 z"
     id="path69" /></g>
<g
   transform="matrix(4.12,0,0,4.12,312,288)"
   id="g71"><path
     d="M 6,6 H 0 V 3 C 0,1.3 1.3,0 3,0 v 0 c 1.7,0 3,1.3 3,3 z"
     id="path70" /></g>
<g
   transform="matrix(4.12,0,0,4.12,384,288)"
   id="g72"><path
     d="M 6,6 H 3 C 1.3,6 0,4.7 0,3 V 0 h 6 z"
     id="path71" /></g>
<g
   transform="matrix(4.12,0,0,4.12,408,288)"
   id="g73"><rect
     width="6"
     height="6"
     id="rect72"
     x="0"
     y="0" /></g>
<g
   transform="matrix(4.12,0,0,4.12,432,288)"
   id="g74"><rect
     width="6"
     height="6"
     id="rect73"
     x="0"
     y="0" /></g>
<g
   transform="matrix(4.12,0,0,4.12,456,288)"
   id="g75"><rect
     width="6"
     height="6"
     id="rect74"
     x="0"
     y="0" /></g>
<g
   transform="matrix(4.12,0,0,4.12,480,288)"
   id="g76"><rect
     width="6"
     height="6"
     id="rect75"
     x="0"
     y="0" /></g>
<g
   transform="matrix(4.12,0,0,4.12,504,288)"
   id="g77"><rect
     width="6"
     height="6"
     id="rect76"
     x="0"
     y="0" /></g>
<g
   transform="matrix(4.12,0,0,4.12,528,288)"
   id="g78"><rect
     width="6"
     height="6"
     id="rect77"
     x="0"
     y="0" /></g>
<g
   transform="matrix(4.12,0,0,4.12,552,288)"
   id="g79"><path
     d="M 3,6 H 0 V 0 H 3 C 4.7,0 6,1.3 6,3 V 3 C 6,4.7 4.7,6 3,6 Z"
     id="path78" /></g>
<g
   transform="matrix(4.12,0,0,4.12,600,288)"
   id="g80"><path
     d="M 6,6 H 3 C 1.3,6 0,4.7 0,3 V 0 h 6 z"
     id="path79" /></g>
<g
   transform="matrix(4.12,0,0,4.12,624,288)"
   id="g81"><path
     d="M 6,6 H 0 V 0 h 3 c 1.7,0 3,1.3 3,3 z"
     id="path80" /></g>
<g
   transform="matrix(4.12,0,0,4.12,48,312)"
   id="g82"><circle
     cx="3"
     cy="3"
     r="3"
     id="circle81" /></g>
<g
   transform="matrix(4.12,0,0,4.12,96,312)"
   id="g83"><path
     d="M 6,6 H 0 V 3 C 0,1.3 1.3,0 3,0 v 0 c 1.7,0 3,1.3 3,3 z"
     id="path82" /></g>
<g
   transform="matrix(4.12,0,0,4.12,168,312)"
   id="g84"><path
     d="M 3,6 V 6 C 1.3,6 0,4.7 0,3 V 0 H 6 V 3 C 6,4.7 4.7,6 3,6 Z"
     id="path83" /></g>
<g
   transform="matrix(4.12,0,0,4.12,240,312)"
   id="g85"><rect
     width="6"
     height="6"
     id="rect84"
     x="0"
     y="0" /></g>
<g
   transform="matrix(4.12,0,0,4.12,264,312)"
   id="g86"><path
     d="M 3,6 H 0 V 0 H 3 C 4.7,0 6,1.3 6,3 V 3 C 6,4.7 4.7,6 3,6 Z"
     id="path85" /></g>
<g
   transform="matrix(4.12,0,0,4.12,312,312)"
   id="g87"><rect
     width="6"
     height="6"
     id="rect86"
     x="0"
     y="0" /></g>
<g
   transform="matrix(4.12,0,0,4.12,432,312)"
   id="g88"><path
     d="M 6,6 H 3 C 1.3,6 0,4.7 0,3 V 0 h 6 z"
     id="path87" /></g>
<g
   transform="matrix(4.12,0,0,4.12,456,312)"
   id="g89"><rect
     width="6"
     height="6"
     id="rect88"
     x="0"
     y="0" /></g>
<g
   transform="matrix(4.12,0,0,4.12,480,312)"
   id="g90"><rect
     width="6"
     height="6"
     id="rect89"
     x="0"
     y="0" /></g>
<g
   transform="matrix(4.12,0,0,4.12,528,312)"
   id="g91"><rect
     width="6"
     height="6"
     id="rect90"
     x="0"
     y="0" /></g>
<g
   transform="matrix(4.12,0,0,4.12,624,312)"
   id="g92"><rect
     width="6"
     height="6"
     id="rect91"
     x="0"
     y="0" /></g>
<g
   transform="matrix(4.12,0,0,4.12,96,336)"
   id="g93"><rect
     width="6"
     height="6"
     id="rect92"
     x="0"
     y="0" /></g>
<g
   transform="matrix(4.12,0,0,4.12,144,336)"
   id="g94"><circle
     cx="3"
     cy="3"
     r="3"
     id="circle93" /></g>
<g
   transform="matrix(4.12,0,0,4.12,192,336)"
   id="g95"><circle
     cx="3"
     cy="3"
     r="3"
     id="circle94" /></g>
<g
   transform="matrix(4.12,0,0,4.12,240,336)"
   id="g96"><rect
     width="6"
     height="6"
     id="rect95"
     x="0"
     y="0" /></g>
<g
   transform="matrix(4.12,0,0,4.12,288,336)"
   id="g97"><path
     d="M 6,6 H 3 C 1.3,6 0,4.7 0,3 V 3 C 0,1.3 1.3,0 3,0 h 3 z"
     id="path96" /></g>
<g
   transform="matrix(4.12,0,0,4.12,312,336)"
   id="g98"><path
     d="M 3,6 H 0 V 0 H 6 V 3 C 6,4.7 4.7,6 3,6 Z"
     id="path97" /></g>
<g
   transform="matrix(4.12,0,0,4.12,360,336)"
   id="g99"><path
     d="M 6,6 H 3 C 1.3,6 0,4.7 0,3 V 3 C 0,1.3 1.3,0 3,0 h 3 z"
     id="path98" /></g>
<g
   transform="matrix(4.12,0,0,4.12,384,336)"
   id="g100"><path
     d="M 3,6 H 0 V 0 H 3 C 4.7,0 6,1.3 6,3 V 3 C 6,4.7 4.7,6 3,6 Z"
     id="path99" /></g>
<g
   transform="matrix(4.12,0,0,4.12,456,336)"
   id="g101"><rect
     width="6"
     height="6"
     id="rect100"
     x="0"
     y="0" /></g>
<g
   transform="matrix(4.12,0,0,4.12,480,336)"
   id="g102"><path
     d="M 3,6 H 0 V 0 H 6 V 3 C 6,4.7 4.7,6 3,6 Z"
     id="path101" /></g>
<g
   transform="matrix(4.12,0,0,4.12,528,336)"
   id="g103"><path
     d="M 3,6 V 6 C 1.3,6 0,4.7 0,3 V 0 H 6 V 3 C 6,4.7 4.7,6 3,6 Z"
     id="path102" /></g>
<g
   transform="matrix(4.12,0,0,4.12,576,336)"
   id="g104"><path
     d="M 6,6 H 3 C 1.3,6 0,4.7 0,3 V 3 C 0,1.3 1.3,0 3,0 h 3 z"
     id="path103" /></g>
<g
   transform="matrix(4.12,0,0,4.12,600,336)"
   id="g105"><rect
     width="6"
     height="6"
     id="rect104"
     x="0"
     y="0" /></g>
<g
   transform="matrix(4.12,0,0,4.12,624,336)"
   id="g106"><path
     d="M 3,6 H 0 V 0 H 6 V 3 C 6,4.7 4.7,6 3,6 Z"
     id="path105" /></g>
<g
   transform="matrix(4.12,0,0,4.12,48,360)"
   id="g107"><path
     d="M 6,6 H 0 V 3 C 0,1.3 1.3,0 3,0 h 3 z"
     id="path106" /></g>
<g
   transform="matrix(4.12,0,0,4.12,72,360)"
   id="g108"><rect
     width="6"
     height="6"
     id="rect107"
     x="0"
     y="0" /></g>
<g
   transform="matrix(4.12,0,0,4.12,96,360)"
   id="g109"><rect
     width="6"
     height="6"
     id="rect108"
     x="0"
     y="0" /></g>
<g
   transform="matrix(4.12,0,0,4.12,120,360)"
   id="g110"><path
     d="M 6,6 H 0 V 0 h 3 c 1.7,0 3,1.3 3,3 z"
     id="path109" /></g>
<g
   transform="matrix(4.12,0,0,4.12,240,360)"
   id="g111"><rect
     width="6"
     height="6"
     id="rect110"
     x="0"
     y="0" /></g>
<g
   transform="matrix(4.12,0,0,4.12,264,360)"
   id="g112"><path
     d="M 3,6 H 0 V 0 H 3 C 4.7,0 6,1.3 6,3 V 3 C 6,4.7 4.7,6 3,6 Z"
     id="path111" /></g>
<g
   transform="matrix(4.12,0,0,4.12,336,360)"
   id="g113"><circle
     cx="3"
     cy="3"
     r="3"
     id="circle112" /></g>
<g
   transform="matrix(4.12,0,0,4.12,432,360)"
   id="g114"><path
     d="M 6,6 H 0 V 3 C 0,1.3 1.3,0 3,0 h 3 z"
     id="path113" /></g>
<g
   transform="matrix(4.12,0,0,4.12,456,360)"
   id="g115"><path
     d="M 3,6 H 0 V 0 H 6 V 3 C 6,4.7 4.7,6 3,6 Z"
     id="path114" /></g>
<g
   transform="matrix(4.12,0,0,4.12,504,360)"
   id="g116"><path
     d="M 6,6 H 0 V 3 C 0,1.3 1.3,0 3,0 v 0 c 1.7,0 3,1.3 3,3 z"
     id="path115" /></g>
<g
   transform="matrix(4.12,0,0,4.12,552,360)"
   id="g117"><path
     d="M 6,6 H 0 V 3 C 0,1.3 1.3,0 3,0 v 0 c 1.7,0 3,1.3 3,3 z"
     id="path116" /></g>
<g
   transform="matrix(4.12,0,0,4.12,600,360)"
   id="g118"><rect
     width="6"
     height="6"
     id="rect117"
     x="0"
     y="0" /></g>
<g
   transform="matrix(4.12,0,0,4.12,48,384)"
   id="g119"><rect
     width="6"
     height="6"
     id="rect118"
     x="0"
     y="0" /></g>
<g
   transform="matrix(4.12,0,0,4.12,120,384)"
   id="g120"><path
     d="M 6,6 H 3 C 1.3,6 0,4.7 0,3 V 0 h 6 z"
     id="path119" /></g>
<g
   transform="matrix(4.12,0,0,4.12,144,384)"
   id="g121"><rect
     width="6"
     height="6"
     id="rect120"
     x="0"
     y="0" /></g>
<g
   transform="matrix(4.12,0,0,4.12,168,384)"
   id="g122"><rect
     width="6"
     height="6"
     id="rect121"
     x="0"
     y="0" /></g>
<g
   transform="matrix(4.12,0,0,4.12,192,384)"
   id="g123"><path
     d="M 3,6 H 0 V 0 H 3 C 4.7,0 6,1.3 6,3 V 3 C 6,4.7 4.7,6 3,6 Z"
     id="path122" /></g>
<g
   transform="matrix(4.12,0,0,4.12,240,384)"
   id="g124"><rect
     width="6"
     height="6"
     id="rect123"
     x="0"
     y="0" /></g>
<g
   transform="matrix(4.12,0,0,4.12,384,384)"
   id="g125"><path
     d="M 6,6 H 0 V 3 C 0,1.3 1.3,0 3,0 h 3 z"
     id="path124" /></g>
<g
   transform="matrix(4.12,0,0,4.12,408,384)"
   id="g126"><rect
     width="6"
     height="6"
     id="rect125"
     x="0"
     y="0" /></g>
<g
   transform="matrix(4.12,0,0,4.12,432,384)"
   id="g127"><rect
     width="6"
     height="6"
     id="rect126"
     x="0"
     y="0" /></g>
<g
   transform="matrix(4.12,0,0,4.12,504,384)"
   id="g128"><rect
     width="6"
     height="6"
     id="rect127"
     x="0"
     y="0" /></g>
<g
   transform="matrix(4.12,0,0,4.12,528,384)"
   id="g129"><rect
     width="6"
     height="6"
     id="rect128"
     x="0"
     y="0" /></g>
<g
   transform="matrix(4.12,0,0,4.12,552,384)"
   id="g130"><path
     d="M 3,6 H 0 V 0 H 6 V 3 C 6,4.7 4.7,6 3,6 Z"
     id="path129" /></g>
<g
   transform="matrix(4.12,0,0,4.12,600,384)"
   id="g131"><path
     d="M 6,6 H 3 C 1.3,6 0,4.7 0,3 V 0 h 6 z"
     id="path130" /></g>
<g
   transform="matrix(4.12,0,0,4.12,624,384)"
   id="g132"><path
     d="M 6,6 H 0 V 0 h 3 c 1.7,0 3,1.3 3,3 z"
     id="path131" /></g>
<g
   transform="matrix(4.12,0,0,4.12,48,408)"
   id="g133"><rect
     width="6"
     height="6"
     id="rect132"
     x="0"
     y="0" /></g>
<g
   transform="matrix(4.12,0,0,4.12,96,408)"
   id="g134"><path
     d="M 6,6 H 0 V 3 C 0,1.3 1.3,0 3,0 v 0 c 1.7,0 3,1.3 3,3 z"
     id="path133" /></g>
<g
   transform="matrix(4.12,0,0,4.12,144,408)"
   id="g135"><path
     d="M 3,6 V 6 C 1.3,6 0,4.7 0,3 V 0 H 6 V 3 C 6,4.7 4.7,6 3,6 Z"
     id="path134" /></g>
<g
   transform="matrix(4.12,0,0,4.12,240,408)"
   id="g136"><path
     d="M 6,6 H 3 C 1.3,6 0,4.7 0,3 V 0 h 6 z"
     id="path135" /></g>
<g
   transform="matrix(4.12,0,0,4.12,264,408)"
   id="g137"><rect
     width="6"
     height="6"
     id="rect136"
     x="0"
     y="0" /></g>
<g
   transform="matrix(4.12,0,0,4.12,288,408)"
   id="g138"><path
     d="M 3,6 H 0 V 0 H 3 C 4.7,0 6,1.3 6,3 V 3 C 6,4.7 4.7,6 3,6 Z"
     id="path137" /></g>
<g
   transform="matrix(4.12,0,0,4.12,336,408)"
   id="g139"><path
     d="M 6,6 H 0 V 3 C 0,1.3 1.3,0 3,0 v 0 c 1.7,0 3,1.3 3,3 z"
     id="path138" /></g>
<g
   transform="matrix(4.12,0,0,4.12,384,408)"
   id="g140"><rect
     width="6"
     height="6"
     id="rect139"
     x="0"
     y="0" /></g>
<g
   transform="matrix(4.12,0,0,4.12,432,408)"
   id="g141"><rect
     width="6"
     height="6"
     id="rect140"
     x="0"
     y="0" /></g>
<g
   transform="matrix(4.12,0,0,4.12,456,408)"
   id="g142"><rect
     width="6"
     height="6"
     id="rect141"
     x="0"
     y="0" /></g>
<g
   transform="matrix(4.12,0,0,4.12,480,408)"
   id="g143"><rect
     width="6"
     height="6"
     id="rect142"
     x="0"
     y="0" /></g>
<g
   transform="matrix(4.12,0,0,4.12,504,408)"
   id="g144"><rect
     width="6"
     height="6"
     id="rect143"
     x="0"
     y="0" /></g>
<g
   transform="matrix(4.12,0,0,4.12,528,408)"
   id="g145"><rect
     width="6"
     height="6"
     id="rect144"
     x="0"
     y="0" /></g>
<g
   transform="matrix(4.12,0,0,4.12,624,408)"
   id="g146"><path
     d="M 3,6 V 6 C 1.3,6 0,4.7 0,3 V 0 H 6 V 3 C 6,4.7 4.7,6 3,6 Z"
     id="path145" /></g>
<g
   transform="matrix(4.12,0,0,4.12,48,432)"
   id="g147"><path
     d="M 3,6 V 6 C 1.3,6 0,4.7 0,3 V 0 H 6 V 3 C 6,4.7 4.7,6 3,6 Z"
     id="path146" /></g>
<g
   transform="matrix(4.12,0,0,4.12,96,432)"
   id="g148"><path
     d="M 6,6 H 3 C 1.3,6 0,4.7 0,3 V 0 h 6 z"
     id="path147" /></g>
<g
   transform="matrix(4.12,0,0,4.12,120,432)"
   id="g149"><path
     d="M 3,6 H 0 V 0 H 3 C 4.7,0 6,1.3 6,3 V 3 C 6,4.7 4.7,6 3,6 Z"
     id="path148" /></g>
<g
   transform="matrix(4.12,0,0,4.12,192,432)"
   id="g150"><path
     d="M 6,6 H 3 C 1.3,6 0,4.7 0,3 V 3 C 0,1.3 1.3,0 3,0 h 3 z"
     id="path149" /></g>
<g
   transform="matrix(4.12,0,0,4.12,216,432)"
   id="g151"><path
     d="M 3,6 H 0 V 0 H 3 C 4.7,0 6,1.3 6,3 V 3 C 6,4.7 4.7,6 3,6 Z"
     id="path150" /></g>
<g
   transform="matrix(4.12,0,0,4.12,264,432)"
   id="g152"><path
     d="M 3,6 V 6 C 1.3,6 0,4.7 0,3 V 0 H 6 V 3 C 6,4.7 4.7,6 3,6 Z"
     id="path151" /></g>
<g
   transform="matrix(4.12,0,0,4.12,336,432)"
   id="g153"><path
     d="M 6,6 H 3 C 1.3,6 0,4.7 0,3 V 0 h 6 z"
     id="path152" /></g>
<g
   transform="matrix(4.12,0,0,4.12,360,432)"
   id="g154"><rect
     width="6"
     height="6"
     id="rect153"
     x="0"
     y="0" /></g>
<g
   transform="matrix(4.12,0,0,4.12,384,432)"
   id="g155"><rect
     width="6"
     height="6"
     id="rect154"
     x="0"
     y="0" /></g>
<g
   transform="matrix(4.12,0,0,4.12,408,432)"
   id="g156"><rect
     width="6"
     height="6"
     id="rect155"
     x="0"
     y="0" /></g>
<g
   transform="matrix(4.12,0,0,4.12,432,432)"
   id="g157"><rect
     width="6"
     height="6"
     id="rect156"
     x="0"
     y="0" /></g>
<g
   transform="matrix(4.12,0,0,4.12,456,432)"
   id="g158"><rect
     width="6"
     height="6"
     id="rect157"
     x="0"
     y="0" /></g>
<g
   transform="matrix(4.12,0,0,4.12,480,432)"
   id="g159"><rect
     width="6"
     height="6"
     id="rect158"
     x="0"
     y="0" /></g>
<g
   transform="matrix(4.12,0,0,4.12,504,432)"
   id="g160"><rect
     width="6"
     height="6"
     id="rect159"
     x="0"
     y="0" /></g>
<g
   transform="matrix(4.12,0,0,4.12,528,432)"
   id="g161"><rect
     width="6"
     height="6"
     id="rect160"
     x="0"
     y="0" /></g>
<g
   transform="matrix(4.12,0,0,4.12,576,432)"
   id="g162"><circle
     cx="3"
     cy="3"
     r="3"
     id="circle161" /></g>
<g
   transform="matrix(4.12,0,0,4.12,240,456)"
   id="g163"><circle
     cx="3"
     cy="3"
     r="3"
     id="circle162" /></g>
<g
   transform="matrix(4.12,0,0,4.12,432,456)"
   id="g164"><rect
     width="6"
     height="6"
     id="rect163"
     x="0"
     y="0" /></g>
<g
   transform="matrix(4.12,0,0,4.12,528,456)"
   id="g165"><rect
     width="6"
     height="6"
     id="rect164"
     x="0"
     y="0" /></g>
<g
   transform="matrix(4.12,0,0,4.12,552,456)"
   id="g166"><path
     d="M 3,6 H 0 V 0 H 3 C 4.7,0 6,1.3 6,3 V 3 C 6,4.7 4.7,6 3,6 Z"
     id="path165" /></g>
<g
   transform="matrix(4.12,0,0,4.12,264,480)"
   id="g167"><circle
     cx="3"
     cy="3"
     r="3"
     id="circle166" /></g>
<g
   transform="matrix(4.12,0,0,4.12,312,480)"
   id="g168"><path
     d="M 6,6 H 0 V 3 C 0,1.3 1.3,0 3,0 h 3 z"
     id="path167" /></g>
<g
   transform="matrix(4.12,0,0,4.12,336,480)"
   id="g169"><rect
     width="6"
     height="6"
     id="rect168"
     x="0"
     y="0" /></g>
<g
   transform="matrix(4.12,0,0,4.12,360,480)"
   id="g170"><path
     d="M 3,6 H 0 V 0 H 3 C 4.7,0 6,1.3 6,3 V 3 C 6,4.7 4.7,6 3,6 Z"
     id="path169" /></g>
<g
   transform="matrix(4.12,0,0,4.12,432,480)"
   id="g171"><rect
     width="6"
     height="6"
     id="rect170"
     x="0"
     y="0" /></g>
<g
   transform="matrix(4.12,0,0,4.12,480,480)"
   id="g172"><circle
     cx="3"
     cy="3"
     r="3"
     id="circle171" /></g>
<g
   transform="matrix(4.12,0,0,4.12,528,480)"
   id="g173"><rect
     width="6"
     height="6"
     id="rect172"
     x="0"
     y="0" /></g>
<g
   transform="matrix(4.12,0,0,4.12,576,480)"
   id="g174"><path
     d="M 6,6 H 3 C 1.3,6 0,4.7 0,3 V 3 C 0,1.3 1.3,0 3,0 h 3 z"
     id="path173" /></g>
<g
   transform="matrix(4.12,0,0,4.12,600,480)"
   id="g175"><rect
     width="6"
     height="6"
     id="rect174"
     x="0"
     y="0" /></g>
<g
   transform="matrix(4.12,0,0,4.12,624,480)"
   id="g176"><path
     d="M 6,6 H 0 V 0 h 3 c 1.7,0 3,1.3 3,3 z"
     id="path175" /></g>
<g
   transform="matrix(4.12,0,0,4.12,240,504)"
   id="g177"><path
     d="M 6,6 H 0 V 3 C 0,1.3 1.3,0 3,0 v 0 c 1.7,0 3,1.3 3,3 z"
     id="path176" /></g>
<g
   transform="matrix(4.12,0,0,4.12,312,504)"
   id="g178"><rect
     width="6"
     height="6"
     id="rect177"
     x="0"
     y="0" /></g>
<g
   transform="matrix(4.12,0,0,4.12,384,504)"
   id="g179"><path
     d="M 6,6 H 0 V 3 C 0,1.3 1.3,0 3,0 v 0 c 1.7,0 3,1.3 3,3 z"
     id="path178" /></g>
<g
   transform="matrix(4.12,0,0,4.12,432,504)"
   id="g180"><rect
     width="6"
     height="6"
     id="rect179"
     x="0"
     y="0" /></g>
<g
   transform="matrix(4.12,0,0,4.12,528,504)"
   id="g181"><rect
     width="6"
     height="6"
     id="rect180"
     x="0"
     y="0" /></g>
<g
   transform="matrix(4.12,0,0,4.12,552,504)"
   id="g182"><path
     d="M 3,6 H 0 V 0 H 3 C 4.7,0 6,1.3 6,3 V 3 C 6,4.7 4.7,6 3,6 Z"
     id="path181" /></g>
<g
   transform="matrix(4.12,0,0,4.12,624,504)"
   id="g183"><path
     d="M 3,6 V 6 C 1.3,6 0,4.7 0,3 V 0 H 6 V 3 C 6,4.7 4.7,6 3,6 Z"
     id="path182" /></g>
<g
   transform="matrix(4.12,0,0,4.12,240,528)"
   id="g184"><rect
     width="6"
     height="6"
     id="rect183"
     x="0"
     y="0" /></g>
<g
   transform="matrix(4.12,0,0,4.12,312,528)"
   id="g185"><path
     d="M 6,6 H 3 C 1.3,6 0,4.7 0,3 V 0 h 6 z"
     id="path184" /></g>
<g
   transform="matrix(4.12,0,0,4.12,336,528)"
   id="g186"><rect
     width="6"
     height="6"
     id="rect185"
     x="0"
     y="0" /></g>
<g
   transform="matrix(4.12,0,0,4.12,360,528)"
   id="g187"><rect
     width="6"
     height="6"
     id="rect186"
     x="0"
     y="0" /></g>
<g
   transform="matrix(4.12,0,0,4.12,384,528)"
   id="g188"><rect
     width="6"
     height="6"
     id="rect187"
     x="0"
     y="0" /></g>
<g
   transform="matrix(4.12,0,0,4.12,408,528)"
   id="g189"><rect
     width="6"
     height="6"
     id="rect188"
     x="0"
     y="0" /></g>
<g
   transform="matrix(4.12,0,0,4.12,432,528)"
   id="g190"><rect
     width="6"
     height="6"
     id="rect189"
     x="0"
     y="0" /></g>
<g
   transform="matrix(4.12,0,0,4.12,456,528)"
   id="g191"><rect
     width="6"
     height="6"
     id="rect190"
     x="0"
     y="0" /></g>
<g
   transform="matrix(4.12,0,0,4.12,480,528)"
   id="g192"><rect
     width="6"
     height="6"
     id="rect191"
     x="0"
     y="0" /></g>
<g
   transform="matrix(4.12,0,0,4.12,504,528)"
   id="g193"><rect
     width="6"
     height="6"
     id="rect192"
     x="0"
     y="0" /></g>
<g
   transform="matrix(4.12,0,0,4.12,528,528)"
   id="g194"><rect
     width="6"
     height="6"
     id="rect193"
     x="0"
     y="0" /></g>
<g
   transform="matrix(4.12,0,0,4.12,576,528)"
   id="g195"><path
     d="M 6,6 H 0 V 3 C 0,1.3 1.3,0 3,0 v 0 c 1.7,0 3,1.3 3,3 z"
     id="path194" /></g>
<g
   transform="matrix(4.12,0,0,4.12,240,552)"
   id="g196"><rect
     width="6"
     height="6"
     id="rect195"
     x="0"
     y="0" /></g>
<g
   transform="matrix(4.12,0,0,4.12,264,552)"
   id="g197"><rect
     width="6"
     height="6"
     id="rect196"
     x="0"
     y="0" /></g>
<g
   transform="matrix(4.12,0,0,4.12,288,552)"
   id="g198"><path
     d="M 3,6 H 0 V 0 H 3 C 4.7,0 6,1.3 6,3 V 3 C 6,4.7 4.7,6 3,6 Z"
     id="path197" /></g>
<g
   transform="matrix(4.12,0,0,4.12,336,552)"
   id="g199"><path
     d="M 6,6 H 3 C 1.3,6 0,4.7 0,3 V 0 h 6 z"
     id="path198" /></g>
<g
   transform="matrix(4.12,0,0,4.12,360,552)"
   id="g200"><path
     d="M 3,6 H 0 V 0 H 6 V 3 C 6,4.7 4.7,6 3,6 Z"
     id="path199" /></g>
<g
   transform="matrix(4.12,0,0,4.12,408,552)"
   id="g201"><path
     d="M 6,6 H 3 C 1.3,6 0,4.7 0,3 V 0 h 6 z"
     id="path200" /></g>
<g
   transform="matrix(4.12,0,0,4.12,432,552)"
   id="g202"><rect
     width="6"
     height="6"
     id="rect201"
     x="0"
     y="0" /></g>
<g
   transform="matrix(4.12,0,0,4.12,456,552)"
   id="g203"><rect
     width="6"
     height="6"
     id="rect202"
     x="0"
     y="0" /></g>
<g
   transform="matrix(4.12,0,0,4.12,480,552)"
   id="g204"><path
     d="M 3,6 H 0 V 0 H 6 V 3 C 6,4.7 4.7,6 3,6 Z"
     id="path203" /></g>
<g
   transform="matrix(4.12,0,0,4.12,528,552)"
   id="g205"><path
     d="M 6,6 H 3 C 1.3,6 0,4.7 0,3 V 0 h 6 z"
     id="path204" /></g>
<g
   transform="matrix(4.12,0,0,4.12,552,552)"
   id="g206"><rect
     width="6"
     height="6"
     id="rect205"
     x="0"
     y="0" /></g>
<g
   transform="matrix(4.12,0,0,4.12,576,552)"
   id="g207"><rect
     width="6"
     height="6"
     id="rect206"
     x="0"
     y="0" /></g>
<g
   transform="matrix(4.12,0,0,4.12,600,552)"
   id="g208"><rect
     width="6"
     height="6"
     id="rect207"
     x="0"
     y="0" /></g>
<g
   transform="matrix(4.12,0,0,4.12,624,552)"
   id="g209"><path
     d="M 6,6 H 0 V 0 h 3 c 1.7,0 3,1.3 3,3 z"
     id="path208" /></g>
<g
   transform="matrix(4.12,0,0,4.12,240,576)"
   id="g210"><path
     d="M 3,6 V 6 C 1.3,6 0,4.7 0,3 V 0 H 6 V 3 C 6,4.7 4.7,6 3,6 Z"
     id="path209" /></g>
<g
   transform="matrix(4.12,0,0,4.12,432,576)"
   id="g211"><rect
     width="6"
     height="6"
     id="rect210"
     x="0"
     y="0" /></g>
<g
   transform="matrix(4.12,0,0,4.12,456,576)"
   id="g212"><path
     d="M 3,6 H 0 V 0 H 6 V 3 C 6,4.7 4.7,6 3,6 Z"
     id="path211" /></g>
<g
   transform="matrix(4.12,0,0,4.12,552,576)"
   id="g213"><rect
     width="6"
     height="6"
     id="rect212"
     x="0"
     y="0" /></g>
<g
   transform="matrix(4.12,0,0,4.12,576,576)"
   id="g214"><path
     d="M 3,6 H 0 V 0 H 6 V 3 C 6,4.7 4.7,6 3,6 Z"
     id="path213" /></g>
<g
   transform="matrix(4.12,0,0,4.12,624,576)"
   id="g215"><rect
     width="6"
     height="6"
     id="rect214"
     x="0"
     y="0" /></g>
<g
   transform="matrix(4.12,0,0,4.12,288,600)"
   id="g216"><path
     d="M 6,6 H 0 V 3 C 0,1.3 1.3,0 3,0 h 3 z"
     id="path215" /></g>
<g
   transform="matrix(4.12,0,0,4.12,312,600)"
   id="g217"><path
     d="M 6,6 H 0 V 0 h 3 c 1.7,0 3,1.3 3,3 z"
     id="path216" /></g>
<g
   transform="matrix(4.12,0,0,4.12,408,600)"
   id="g218"><path
     d="M 6,6 H 0 V 3 C 0,1.3 1.3,0 3,0 h 3 z"
     id="path217" /></g>
<g
   transform="matrix(4.12,0,0,4.12,432,600)"
   id="g219"><path
     d="M 3,6 H 0 V 0 H 6 V 3 C 6,4.7 4.7,6 3,6 Z"
     id="path218" /></g>
<g
   transform="matrix(4.12,0,0,4.12,480,600)"
   id="g220"><path
     d="M 6,6 H 3 C 1.3,6 0,4.7 0,3 V 3 C 0,1.3 1.3,0 3,0 h 3 z"
     id="path219" /></g>
<g
   transform="matrix(4.12,0,0,4.12,504,600)"
   id="g221"><rect
     width="6"
     height="6"
     id="rect220"
     x="0"
     y="0" /></g>
<g
   transform="matrix(4.12,0,0,4.12,528,600)"
   id="g222"><rect
     width="6"
     height="6"
     id="rect221"
     x="0"
     y="0" /></g>
<g
   transform="matrix(4.12,0,0,4.12,552,600)"
   id="g223"><rect
     width="6"
     height="6"
     id="rect222"
     x="0"
     y="0" /></g>
<g
   transform="matrix(4.12,0,0,4.12,624,600)"
   id="g224"><rect
     width="6"
     height="6"
     id="rect223"
     x="0"
     y="0" /></g>
<g
   transform="matrix(4.12,0,0,4.12,240,624)"
   id="g225"><circle
     cx="3"
     cy="3"
     r="3"
     id="circle224" /></g>
<g
   transform="matrix(4.12,0,0,4.12,288,624)"
   id="g226"><path
     d="M 6,6 H 3 C 1.3,6 0,4.7 0,3 V 0 h 6 z"
     id="path225" /></g>
<g
   transform="matrix(4.12,0,0,4.12,312,624)"
   id="g227"><rect
     width="6"
     height="6"
     id="rect226"
     x="0"
     y="0" /></g>
<g
   transform="matrix(4.12,0,0,4.12,336,624)"
   id="g228"><rect
     width="6"
     height="6"
     id="rect227"
     x="0"
     y="0" /></g>
<g
   transform="matrix(4.12,0,0,4.12,360,624)"
   id="g229"><path
     d="M 3,6 H 0 V 0 H 3 C 4.7,0 6,1.3 6,3 V 3 C 6,4.7 4.7,6 3,6 Z"
     id="path228" /></g>
<g
   transform="matrix(4.12,0,0,4.12,408,624)"
   id="g230"><path
     d="M 3,6 V 6 C 1.3,6 0,4.7 0,3 V 0 H 6 V 3 C 6,4.7 4.7,6 3,6 Z"
     id="path229" /></g>
<g
   transform="matrix(4.12,0,0,4.12,456,624)"
   id="g231"><circle
     cx="3"
     cy="3"
     r="3"
     id="circle230" /></g>
<g
   transform="matrix(4.12,0,0,4.12,504,624)"
   id="g232"><path
     d="M 6,6 H 3 C 1.3,6 0,4.7 0,3 V 0 h 6 z"
     id="path231" /></g>
<g
   transform="matrix(4.12,0,0,4.12,528,624)"
   id="g233"><rect
     width="6"
     height="6"
     id="rect232"
     x="0"
     y="0" /></g>
<g
   transform="matrix(4.12,0,0,4.12,552,624)"
   id="g234"><rect
     width="6"
     height="6"
     id="rect233"
     x="0"
     y="0" /></g>
<g
   transform="matrix(4.12,0,0,4.12,576,624)"
   id="g235"><rect
     width="6"
     height="6"
     id="rect234"
     x="0"
     y="0" /></g>
<g
   transform="matrix(4.12,0,0,4.12,600,624)"
   id="g236"><rect
     width="6"
     height="6"
     id="rect235"
     x="0"
     y="0" /></g>
<g
   transform="matrix(4.12,0,0,4.12,624,624)"
   id="g237"><path
     d="M 3,6 H 0 V 0 H 6 V 3 C 6,4.7 4.7,6 3,6 Z"
     id="path236" /></g>
<g
   transform="translate(48,48)"
   id="g239"><g
     transform="scale(12)"
     id="g238"><path
       d="M 4.5,14 H 9.6 C 12,14 14,12 14,9.6 V 4.5 C 14,2 12,0 9.5,0 H 4.4 C 2,0 0,2 0,4.4 V 9.5 C 0,12 2,14 4.5,14 Z M 12,4.8 V 9.2 C 12,10.7 10.7,12 9.2,12 H 4.8 C 3.2,12 2,10.8 2,9.2 V 4.8 C 2,3.3 3.3,2 4.8,2 H 9.2 C 10.8,2 12,3.2 12,4.8 Z"
       id="path237" /></g></g>
<g
   transform="translate(480,48)"
   id="g241"><g
     transform="scale(12)"
     id="g240"><path
       d="M 4.5,14 H 9.6 C 12,14 14,12 14,9.6 V 4.5 C 14,2 12,0 9.5,0 H 4.4 C 2,0 0,2 0,4.4 V 9.5 C 0,12 2,14 4.5,14 Z M 12,4.8 V 9.2 C 12,10.7 10.7,12 9.2,12 H 4.8 C 3.2,12 2,10.8 2,9.2 V 4.8 C 2,3.3 3.3,2 4.8,2 H 9.2 C 10.8,2 12,3.2 12,4.8 Z"
       id="path239" /></g></g>
<g
   transform="translate(48,480)"
   id="g243"><g
     transform="scale(12)"
     id="g242"><path
       d="M 4.5,14 H 9.6 C 12,14 14,12 14,9.6 V 4.5 C 14,2 12,0 9.5,0 H 4.4 C 2,0 0,2 0,4.4 V 9.5 C 0,12 2,14 4.5,14 Z M 12,4.8 V 9.2 C 12,10.7 10.7,12 9.2,12 H 4.8 C 3.2,12 2,10.8 2,9.2 V 4.8 C 2,3.3 3.3,2 4.8,2 H 9.2 C 10.8,2 12,3.2 12,4.8 Z"
       id="path241" /></g></g>
<g
   transform="translate(96,96)"
   id="g245"><g
     transform="scale(12)"
     id="g244"><circle
       cx="3"
       cy="3"
       r="3"
       id="circle243" /></g></g>
<g
   transform="translate(528,96)"
   id="g247"><g
     transform="scale(12)"
     id="g246"><circle
       cx="3"
       cy="3"
       r="3"
       id="circle245" /></g></g>
<g
   transform="translate(96,528)"
   id="g249"><g
     transform="scale(12)"
     id="g248"><circle
       cx="3"
       cy="3"
       r="3"
       id="circle247" /></g></g>
</g></svg>
